<svg xmlns="http://www.w3.org/2000/svg" xmlns:xlink="http://www.w3.org/1999/xlink" viewBox="0 0 801.91 395.65">
  <defs>
    <style>
      .cls-1, .cls-11, .cls-12, .cls-13, .cls-4 {
        fill: none;
      }

      .cls-2 {
        fill: #ffeeb8;
      }

      .cls-3 {
        fill: #c24a4a;
      }

      .cls-12, .cls-4 {
        stroke: #f47f5b;
      }

      .cls-11, .cls-12, .cls-13, .cls-4 {
        stroke-miterlimit: 10;
      }

      .cls-11, .cls-4 {
        stroke-width: 53px;
      }

      .cls-5 {
        fill: #f47f5b;
      }

      .cls-6 {
        fill: #878787;
      }

      .cls-7 {
        fill: #468f99;
      }

      .cls-8 {
        fill: #c6c6c6;
      }

      .cls-9 {
        fill: #69bec4;
      }

      .cls-10 {
        clip-path: url(#clip-path);
      }

      .cls-11 {
        stroke: #c24a4a;
      }

      .cls-12, .cls-13 {
        stroke-linecap: round;
        stroke-width: 20px;
      }

      .cls-13 {
        stroke: #fca992;
      }

      .cls-14 {
        fill: #c1484a;
      }
    </style>
    <clipPath id="clip-path">
      <polygon class="cls-1" points="388.35 249.64 43.33 249.64 43.33 37.93 276.52 75.45 369.83 168.2 353.12 166.53 371.57 171.08 376.95 177.6 365.76 180.86 383.76 182.05 399 197.19 388.35 249.64"/>
    </clipPath>
  </defs>
  <title>abtrennen</title>
  <g id="Bcakground">
    <g>
      <path class="cls-2" d="M120.3,250.26c-50.6.81-72.52-7.38-72.52-7.38S-5.35,221.54,30.91,209s90.24-14,132.82-9.6,49.76,13.91,130.09,13.17,88.75-5,176-7.7,143.78-4.57,197.76,3.6,70,18.56,47.22,28.91-72.23,20.78-127.19,21.18S170.9,249.45,120.3,250.26Z"/>
      <path class="cls-2" d="M458.8,219.38c-42.87-5.81-276.78,18.53-369.23,6.36s140.49,3.5,151.09-36.82,50.6-39.39,63-25.21,153,21.51,191-16.46S620.52,89.08,646,80.54s37.78,7.54,53.55,33.78,93.49,10.18,86.83,43.41-87,63.11-103.07,64.39S501.66,225.2,458.8,219.38Z"/>
      <path class="cls-2" d="M696.64,252.34c-1.53-1.23,9-5.71,21-12.06s20.85-12.15,22.38-10.92-4.87,9-16.84,15.38S698.17,253.57,696.64,252.34Z"/>
      <path class="cls-2" d="M446.52,158.14c-.67-3.23,11-7.82,24.88-15.64s24.83-15.89,25.5-12.66-9.17,16.54-23.08,24.36S447.19,161.37,446.52,158.14Z"/>
      <path class="cls-2" d="M101,195.06c.36,1.33-13.57,1-28.07,2.58s-24.1,4.45-24.46,3.13,8.65-6.36,23.15-7.93S100.6,193.74,101,195.06Z"/>
      <path class="cls-2" d="M693.66,84.65c-.29,4-11.58-13.86-26.88-17s-28.84,9.8-28.54,5.79,14.28-23.37,29.59-20.29S694,80.65,693.66,84.65Z"/>
    </g>
  </g>
  <g id="Ebene_8" data-name="Ebene 8">
    <ellipse class="cls-3" cx="126.81" cy="250.98" rx="62.94" ry="3.83"/>
    <path class="cls-4" d="M464.07,147.09c51.1-36.21,102.06-65.51,142.09-33.13,53.08,42.94,108,42.65,134.05,25.86"/>
    <polygon class="cls-5" points="674.98 90.09 797.89 199.91 786.62 97.24 674.98 90.09"/>
    <g>
      <polygon class="cls-6" points="218.16 108.4 227.74 128.96 494.62 220.81 505.98 200.69 528.41 200.47 526.35 186.42 218.16 108.4"/>
      <polygon class="cls-6" points="241.74 29.8 261.54 25.47 488.87 181.36 482.33 201.81 507.91 226.23 497.15 232.7 241.74 29.8"/>
      <path class="cls-7" d="M676.7,174.3,564.84,138l-29.22,9.88-2.44.59-13.84,29.07,2.56,29.82,138.37,53.8,21.09-63.93ZM641,228.2l-95.61-42.62,7.58-13,13.14-1.13L648.21,197l6.47,8.62Z"/>
      <path class="cls-7" d="M576.22,350.33l-89.16-59.95L473.61,257.5,470,251.68l17.08-17.82,21.27-13.05,95.34,53.35,20,30.37-29.64,37.91Zm14.55-44.59L579.9,284.33l-72.48-33.67-8.7,5.34L510,274.4,574.9,316l9.45.81Z"/>
      <polygon class="cls-8" points="218.16 108.4 233.78 120.07 496.77 188.3 502.15 180.29 218.16 108.4"/>
      <polygon class="cls-8" points="253.08 27.32 441.55 158.88 462.5 163.28 261.54 25.47 253.08 27.32"/>
      <polygon class="cls-9" points="538.39 157.86 556.82 157.86 566.13 157.86 663.73 188.3 668.8 206.56 681.36 197.24 676.7 174.3 564.84 138.01 533.18 148.48 538.39 157.86"/>
      <polygon class="cls-9" points="561.51 192.78 546.9 199.85 623.77 233.94 640.97 228.2 561.51 192.78"/>
      <polygon class="cls-9" points="528.41 232.01 507.91 232.7 590.77 279.6 607.93 310.04 623.77 304.53 603.73 274.16 528.41 232.01"/>
      <circle class="cls-8" cx="474.45" cy="197.19" r="4.4"/>
    </g>
    <g class="cls-10">
      <path class="cls-11" d="M105.56,274C130,224.69,145.8,150.18,226.91,145s87,54.59,155,19.6"/>
    </g>
    <path class="cls-12" d="M183.35,150.35s60.49-26.91,114.44,8.12"/>
    <path class="cls-13" d="M529.6,104.34s50.66-31.27,97.93,18.25"/>
    <polygon class="cls-14" points="365.28 221.66 359.95 239.86 368.62 239.86 371.57 217.68 365.28 221.66"/>
    <polygon class="cls-14" points="392.62 230.11 404.61 258.53 419.8 258.53 399 233.2 392.62 230.11"/>
    <polygon class="cls-14" points="313.95 108.6 308.02 116.66 347.28 139.82 347.28 133.26 313.95 108.6"/>
    <polygon class="cls-14" points="352 215.38 342.56 217.19 346.39 221.01 352 215.38"/>
    <polygon class="cls-5" points="432.56 116.92 442.01 96.39 448.68 99.46 434.82 120.8 432.56 116.92"/>
    <polygon class="cls-5" points="405.63 103.13 417.44 71.95 423.32 74.73 412.66 100.49 405.63 103.13"/>
    <polygon class="cls-5" points="415.56 193.36 420.95 214.59 431.07 213.63 426.02 201.5 415.56 193.36"/>
    <polygon class="cls-5" points="455.95 236.25 460.62 244.32 467.28 242.97 461.62 236.25 455.95 236.25"/>
  </g>
</svg>
