<svg xmlns="http://www.w3.org/2000/svg" viewBox="0 0 801.91 304.53">
  <defs>
    <style>
      .cls-1 {
        fill: #ffeeb8;
      }

      .cls-2 {
        fill: #c24a4a;
      }

      .cls-3 {
        fill: #878787;
      }

      .cls-13, .cls-4 {
        fill: #f47f5b;
      }

      .cls-5 {
        fill: #f7931e;
      }

      .cls-6 {
        fill: #f4ca98;
      }

      .cls-7 {
        fill: #e56a6a;
      }

      .cls-8 {
        fill: #468f99;
      }

      .cls-9 {
        fill: #69bec4;
      }

      .cls-10 {
        fill: #d45c28;
      }

      .cls-11 {
        fill: #dd992e;
      }

      .cls-12 {
        fill: #fdf1b5;
      }

      .cls-13, .cls-14 {
        stroke: #ffeeb8;
        stroke-linecap: round;
        stroke-miterlimit: 10;
        stroke-width: 0.5px;
      }

      .cls-14 {
        fill: #7d4e24;
      }

      .cls-15 {
        fill: #b2b2b2;
      }
    </style>
  </defs>
  <title>bett</title>
  <g id="Bcakground">
    <path class="cls-1" d="M118.15,260.78c-37.37,1.37-53.56-12.54-53.56-12.54S-.18,201.09,45.22,177.4s101.8-19,133.25-11.46,28.49,10.21,87.82,9,57.21-32.17,121.36-40.55S536,149.08,575.84,163s36.33,49,19.51,66.63-53.35,35.31-94,36c-19.66.33-101.42-1.11-184.75-2.53C227.93,261.55,137.43,260.07,118.15,260.78Z"/>
    <ellipse class="cls-1" cx="491.95" cy="132.23" rx="72" ry="43.79"/>
    <ellipse class="cls-1" cx="546.61" cy="193.84" rx="72" ry="43.79"/>
    <ellipse class="cls-1" cx="409.28" cy="163.29" rx="72" ry="43.79"/>
    <path class="cls-1" d="M621.94,199.83c-2.22,1-.57-10.77-5.29-21.41s-14-16.12-11.8-17.1,15.11,2.9,19.83,13.54S624.15,198.85,621.94,199.83Z"/>
    <path class="cls-1" d="M562,106.5c-1.15,2.13-9.79-9-23.37-16.32s-26.93-8-25.78-10.15,16.37-4.89,30,2.42S563.1,104.36,562,106.5Z"/>
  </g>
  <g id="Ebene_8" data-name="Ebene 8">
    <ellipse class="cls-2" cx="236.21" cy="245.95" rx="24.72" ry="2.2"/>
    <polygon class="cls-3" points="226.59 245.8 202.38 13.31 208.73 10.07 216.84 11.91 240.33 245.62 226.59 245.8"/>
    <ellipse class="cls-2" cx="384.25" cy="260.8" rx="286.28" ry="9.84"/>
    <ellipse class="cls-2" cx="73.83" cy="268.14" rx="50.26" ry="3.29"/>
    <polygon class="cls-4" points="161.32 259.62 147.55 259.62 147.55 101.43 161.32 101.43 205.18 118.83 201.64 251.83 161.32 259.62"/>
    <polygon class="cls-4" points="602.39 264.23 611.84 263.81 611.84 189.55 602.39 188.79 584.84 195.65 587.27 259.27 602.39 264.23"/>
    <polygon class="cls-4" points="592.6 231.84 154.44 231.84 154.44 201.94 592.6 208.94 592.6 231.84"/>
    <rect class="cls-4" x="140.47" y="96.71" width="23.61" height="11.81"/>
    <rect class="cls-4" x="140.47" y="247.82" width="23.61" height="11.81"/>
    <rect class="cls-4" x="603.23" y="250.97" width="14.47" height="11.81"/>
    <polygon class="cls-5" points="168.21 198.63 203.05 198.63 204.95 127.21 164.08 108.52 168.21 198.63"/>
    <path class="cls-6" d="M166,154.11s6.75,40.17,10.4,42.53,11.33,9.8,11.33,9.8l15.36-3.31,18.87,5.9,18.3-15.74,8.86-13.77-23.61-7.08-12.4-17.71-8.51-8.22-14.51,7.63s-3-11.22-11.22-11.22S166,154.11,166,154.11Z"/>
    <polygon class="cls-2" points="225.13 212.21 228.71 188.79 242.85 175.61 252.49 163.21 274.99 163.21 326.99 180.53 532.77 175.02 545.63 163.21 562.98 163.21 575.84 171.48 580.98 180.53 584.84 192.14 580.34 204.53 579.05 216.89 570.16 222.1 548.2 216.89 514.13 211.62 381.7 216.89 375.63 212.21 367.45 216.89 324.49 216.89 265.35 211.03 234.49 216.89 225.13 212.21"/>
    <polygon class="cls-7" points="232.31 209.65 228.71 188.79 242.85 175.61 249.08 156.72 291.57 153.57 322.86 163.21 532.77 175.02 545.63 163.21 562.98 163.21 575.84 171.48 580.98 180.53 578.91 193.91 572.54 202.17 571.13 214.92 548.34 209.25 514.1 204.53 387.2 210.44 373.52 204.53 363 211.03 329.94 209.25 278 202.76 246.72 204.53 232.31 209.65"/>
    <path class="cls-1" d="M236.69,175.81l-11.22-3.37-12.4-17.71-8.51-8.22-14.51,7.63s-3-11.22-11.22-11.22a11,11,0,0,0-7.57,3.43l5.1,27.27L196,176l5.31,9.05,27.45,8.26Z"/>
    <polygon class="cls-8" points="225.13 252.03 191.82 262.54 197.72 273.67 236.69 276.03 239.04 268.95 331.71 273.08 351.78 262.54 328.17 261.08 321.67 249.51 305.74 255.18 261.47 259.11 252.03 255.18 269.14 252.03 236.69 250.68 225.13 252.03"/>
    <polygon class="cls-9" points="203.98 270.64 225.13 264.23 236.69 264.23 242.84 262.77 280.95 262.77 314 259.62 328.17 261.08 351.78 262.54 351.78 256.87 334.66 256.87 321.67 249.51 269.84 254.53 252.03 255.18 260.93 252.56 235.43 250.97 225.13 252.03 214.25 256.87 198.9 256.87 203.98 270.64"/>
    <polygon class="cls-10" points="164.08 234.05 164.08 259.62 201.64 251.83 201.64 234.05 164.08 234.05"/>
    <polygon class="cls-10" points="586.31 234.05 602.05 234.05 602.23 264.77 587.27 259.27 586.31 234.05"/>
    <polygon class="cls-10" points="91.65 270.64 84.57 259.62 77.87 210.14 85.86 191.35 83.39 163.21 69.81 163.21 69.81 153.57 107.59 149.64 107.59 159.08 97.97 163.21 102.41 188.79 119.99 201.94 119.99 246.84 119.99 267.4 106.41 270.64 91.65 270.64"/>
    <polygon class="cls-10" points="85.46 200.11 82.8 204.53 71.58 190.05 71.58 176.2 74.83 163.21 78.52 162.03 76.01 176.2 76.01 190.05 85.46 200.11"/>
    <polygon class="cls-10" points="99.18 161.3 105.38 168.67 106.56 184.61 102.87 194.94 107.44 198.63 112.17 184.46 110.39 167.49 103.61 158.94 99.18 161.3"/>
    <polygon class="cls-11" points="65.71 234.86 83.81 232.65 88.53 234.86 88.53 250.32 81.45 254.53 81.84 269.48 77.12 269.48 77.12 256.11 67.67 248.63 65.71 234.86"/>
    <polygon class="cls-11" points="77.56 268.11 91.33 269.29 84.64 274.8 72.05 274.8 68.51 271.25 77.56 268.11"/>
    <polygon class="cls-1" points="77.12 237.61 88.53 234.86 87.26 248.24 82.63 250.99 77.12 237.61"/>
    <polygon class="cls-1" points="87.35 270.27 81.84 269.48 81.6 260.43 79.92 270.27 85.58 271.45 87.35 270.27"/>
    <polygon class="cls-11" points="50.67 233.11 66.5 230.34 70.76 232.07 71.46 245.69 65.42 249.72 66.44 262.86 62.29 263.08 61.68 251.3 53.02 245.15 50.67 233.11"/>
    <polygon class="cls-11" points="62.61 261.84 74.79 262.25 69.15 267.41 58.07 267.98 54.79 265.03 62.61 261.84"/>
    <polygon class="cls-1" points="60.84 235.02 65.8 233.55 66.3 246.54 66.3 246.54 60.84 235.02"/>
    <polygon class="cls-1" points="70.15 266.84 65.26 266.4 64.64 258.45 63.61 267.18 68.64 267.96 70.15 266.84"/>
    <polygon class="cls-4" points="82.82 153.57 107.59 149.64 107.59 156.57 90.62 158.94 82.82 158.34 82.82 153.57"/>
    <polygon class="cls-4" points="107.59 168.23 110.39 167.49 112.17 184.46 108.92 184.46 107.59 168.23"/>
    <polygon class="cls-4" points="111.89 196.81 119.99 201.94 110.54 205.42 105.67 199.66 111.89 196.81"/>
    <polygon class="cls-4" points="109.88 208.96 112.17 267.1 118.51 265.94 118.51 205.42 109.88 208.96"/>
    <polygon class="cls-4" points="206.78 14.99 176.65 76.66 178.99 83.51 245.35 87.07 247.31 79.69 214.01 12.43 206.78 14.99"/>
    <polygon class="cls-12" points="193.08 74.06 237.31 76.73 214.41 24.34 210.45 24.83 192.54 69.67 193.08 74.06"/>
    <polygon class="cls-8" points="381.28 262.53 381.28 269.89 428.62 281.69 504.31 275.23 508.28 269.89 475.28 265.28 454.41 266.46 446.28 265.28 464.28 262.53 439.28 259.59 381.28 262.53"/>
    <polygon class="cls-9" points="395.32 266.79 428.62 274.26 501.28 271.35 475.28 265.28 454.41 266.46 446.28 265.28 464.28 262.53 395.32 266.79"/>
    <polygon class="cls-5" points="512.32 264.62 522.02 270.55 529.16 269.29 528.28 268.83 540.82 265.68 545.66 265.09 568.62 267.33 561.05 263.21 536.95 260.8 519.99 264.09 518.3 263.93 512.32 264.62"/>
    <polygon class="cls-5" points="472.95 260.08 481.28 262.53 487 262.12 487.73 261.23 498.62 261.3 501.28 256.87 504.95 256.87 506.28 260.08 515.95 259.59 528.28 259.59 510.62 256.87 501.28 252.94 497.28 252.94 494.45 258.65 483.62 258.94 482.03 258.61 472.95 260.08"/>
    <polygon class="cls-5" points="581.51 264.33 602.45 267.06 599.5 272.46 570.16 272.46 580.2 268.39 581.51 264.33"/>
    <line class="cls-13" x1="476.66" y1="260.31" x2="482.03" y2="259.59"/>
    <line class="cls-13" x1="478.08" y1="260.77" x2="483.46" y2="260.06"/>
    <line class="cls-13" x1="479.5" y1="261.23" x2="484.88" y2="260.52"/>
    <line class="cls-13" x1="480.93" y1="261.7" x2="486.3" y2="260.98"/>
    <g>
      <line class="cls-14" x1="514.56" y1="265.17" x2="519.96" y2="264.71"/>
      <line class="cls-14" x1="515.82" y1="265.91" x2="521.11" y2="265.38"/>
      <line class="cls-14" x1="517.09" y1="266.66" x2="522.25" y2="266.06"/>
      <line class="cls-14" x1="518.36" y1="267.41" x2="523.4" y2="266.73"/>
      <line class="cls-14" x1="519.62" y1="268.15" x2="524.55" y2="267.4"/>
      <line class="cls-14" x1="520.89" y1="268.9" x2="525.7" y2="268.08"/>
      <line class="cls-14" x1="522.16" y1="269.65" x2="526.84" y2="268.75"/>
    </g>
    <polygon class="cls-15" points="223.22 88.44 219.44 91.21 226.37 166.79 231.75 168.41 223.22 88.44"/>
    <polygon class="cls-10" points="585.48 210.3 586.31 197.1 600.62 191.94 598.96 209.3 585.48 210.3"/>
  </g>
</svg>
