<svg xmlns="http://www.w3.org/2000/svg" xmlns:xlink="http://www.w3.org/1999/xlink" viewBox="0 0 801.91 304.53">
  <defs>
    <style>
      .cls-1, .cls-12, .cls-13, .cls-14, .cls-15, .cls-16, .cls-5, .cls-6, .cls-7 {
        fill: none;
      }

      .cls-2 {
        fill: #ffeeb8;
      }

      .cls-3 {
        fill: #468f99;
      }

      .cls-4 {
        fill: #69bec4;
      }

      .cls-12, .cls-13, .cls-14, .cls-15, .cls-16, .cls-5, .cls-6, .cls-7 {
        stroke: #ffeeb8;
        stroke-miterlimit: 10;
      }

      .cls-5, .cls-6, .cls-7 {
        stroke-width: 7px;
      }

      .cls-6 {
        stroke-dasharray: 12.36 12.36;
      }

      .cls-7 {
        stroke-dasharray: 8.21 8.21;
      }

      .cls-8 {
        clip-path: url(#clip-path);
      }

      .cls-9 {
        fill: #c24a4a;
      }

      .cls-10 {
        fill: #f47f5b;
      }

      .cls-11 {
        fill: #f7931e;
      }

      .cls-12, .cls-13, .cls-14, .cls-15, .cls-16 {
        stroke-width: 3.4px;
      }

      .cls-13 {
        stroke-dasharray: 8.73 8.73;
      }

      .cls-14 {
        stroke-dasharray: 12.72 12.72;
      }

      .cls-15 {
        stroke-dasharray: 5.52 5.52;
      }

      .cls-16 {
        stroke-dasharray: 10.89 10.89;
      }

      .cls-17 {
        fill: #79d1d3;
      }
    </style>
    <clipPath id="clip-path">
      <polygon class="cls-1" points="192.02 109.38 221.95 235.97 246.79 288.64 380.62 297.31 533.28 279.31 541.95 133.04 443.95 81.31 260.74 77.31 192.02 109.38"/>
    </clipPath>
  </defs>
  <title>Herz</title>
  <g id="Bcakground">
    <path class="cls-2" d="M503.74,198c.15,1.38-21,1.71-45.75,4.61s-43.68,7.26-43.84,5.88,18.53-8,43.27-10.88S503.58,196.66,503.74,198Z"/>
    <path class="cls-2" d="M728,256.43c-1.34.35,2.57-5.19,1.22-11.1s-6.46-10-5.12-10.31,6.62,4.14,8,10S729.29,256.08,728,256.43Z"/>
    <path class="cls-2" d="M155.49,288.78c-43.69.93-62.63-8.49-62.63-8.49S9.64,223.18,62.71,207.13s119-12.84,155.79-7.75,40.81,32.08,110.17,31.23,66.88-21.79,141.88-27.46,173.4,10,220,19.38,42.48,33.22,22.82,45.13S651,291.58,603.53,292c-23,.22-118.56-.75-216-1.71C283.83,289.3,178,288.3,155.49,288.78Z"/>
    <polygon class="cls-3" points="168.39 259.24 119.02 145.71 119.02 84.81 141.85 38.19 221.83 13.38 295.51 21.65 334.8 47.96 334.8 112.62 334.8 187.06 308.99 215.63 286.07 222.4 235.41 225.4 221.83 241.94 204.35 259.24 168.39 259.24"/>
    <polygon class="cls-4" points="170.4 250.04 186.87 252.71 212.98 242.71 217.49 229.38 192.02 109.38 210.18 88.71 267.14 63.38 307.68 63.38 321.02 72.05 328.35 189.38 334.8 187.06 331.42 51.38 295.51 21.65 221.83 13.38 141.85 38.19 119.02 84.81 119.02 145.71 170.4 250.04"/>
    <g>
      <line class="cls-5" x1="221.95" y1="70.64" x2="219.19" y2="65.31"/>
      <polyline class="cls-6" points="213.5 54.34 213.31 53.97 197.95 43.31 182.58 39.31 158.28 39.31 149.97 41.84"/>
      <line class="cls-5" x1="144.06" y1="43.65" x2="138.32" y2="45.4"/>
    </g>
    <g>
      <line class="cls-5" x1="285.52" y1="53.99" x2="283.14" y2="48.48"/>
      <polyline class="cls-5" points="276.85 33.92 274.47 28.42 268.7 26.75"/>
      <line class="cls-7" x1="260.82" y1="24.48" x2="248.99" y2="21.06"/>
      <line class="cls-5" x1="245.05" y1="19.92" x2="239.28" y2="18.26"/>
    </g>
    <g class="cls-8">
      <g>
        <polygon class="cls-9" points="271.93 237.31 177.08 166.3 180.3 118.08 194.62 110.14 219.8 111.01 240.71 131.4 264.3 110.25 272 103.93 286.33 98.21 308.32 113.58 306.94 162.46 286.26 231.59 271.93 237.31"/>
        <polygon class="cls-10" points="286.26 231.59 191.4 160.57 194.62 112.35 208.94 104.42 234.12 105.29 263.43 130.15 278.62 104.53 286.33 98.21 305.74 101.16 322.65 107.86 321.26 156.73 286.26 231.59"/>
      </g>
    </g>
    <polygon class="cls-11" points="164.28 219.97 171.95 240.64 187.09 240.64 180.13 212.64 164.28 219.97"/>
    <polygon class="cls-11" points="171.57 231.31 187.71 263.31 191.17 271.31 196.97 271.76 242.44 275.31 304.5 259.24 322.01 235.31 312.52 212.64 304.5 218.64 312.52 236.64 296.5 259.24 239.58 271.31 195.83 263.97 175.67 226.64 171.57 231.31"/>
    <g>
      <polyline class="cls-12" points="134.2 168.61 132.34 163.86 135 159.51"/>
      <polyline class="cls-13" points="140.59 153.04 149.75 146.89 151.7 146.22"/>
      <polyline class="cls-12" points="155.84 144.83 160.67 143.19 162.03 148.11"/>
      <polyline class="cls-14" points="165.41 160.37 168.64 174 169.64 178.98"/>
      <polyline class="cls-12" points="170.89 185.22 171.9 190.22 167.46 192.75"/>
      <line class="cls-15" x1="162.67" y1="195.49" x2="155.48" y2="199.59"/>
      <polyline class="cls-12" points="153.08 200.96 148.65 203.49 146.63 198.81"/>
      <polyline class="cls-16" points="142.32 188.81 139.9 183.19 136.18 173.68"/>
    </g>
    <polygon class="cls-17" points="203.95 232.64 180.13 105.31 187.09 100.64 209.71 226.64 203.95 232.64"/>
    <polygon class="cls-17" points="289.95 23.64 325.62 52.64 334.8 187.06 334.8 47.96 295.51 21.65 265.31 18.26 289.95 23.64"/>
  </g>
  <g id="Ebene_8" data-name="Ebene 8">
    <ellipse class="cls-9" cx="228.74" cy="288.28" rx="144.91" ry="3.83"/>
  </g>
</svg>
