<svg xmlns="http://www.w3.org/2000/svg" viewBox="0 0 85.13 111.53"><defs><style>.cls-1{fill:#f47f5b;}.cls-2{fill:#ffeeb8;}.cls-3{fill:#f7931e;}</style></defs><title>kapitelbild_6</title><g id="Bcakground"><polygon class="cls-1" points="62.47 82.52 9.2 53.99 7.12 29.43 13.73 24.33 26.49 22.84 38.6 31.51 48.87 19.04 52.27 15.26 62.28 15.26 71.32 17.34 74.37 42.09 62.47 82.52"/><polygon class="cls-2" points="64.17 79.3 10.89 50.78 8.82 26.22 15.43 21.12 28.19 19.63 44.88 29.91 50.57 15.83 53.97 12.05 63.98 12.05 73.02 14.13 76.07 38.88 64.17 79.3"/><polygon class="cls-1" points="44.88 29.91 44.88 35.85 51.51 37.74 51.51 47.76 55.86 52.1 53.21 45.68 53.21 34.53 47.17 34.16 44.88 26.79 44.88 29.91"/></g><g id="Ebene_8" data-name="Ebene 8"><ellipse class="cls-3" cx="44.88" cy="90.37" rx="30.41" ry="1.53"/></g></svg>