<svg xmlns="http://www.w3.org/2000/svg" viewBox="0 0 801.91 304.53">
  <defs>
    <style>
      .cls-1 {
        fill: #ffeeb8;
      }

      .cls-2 {
        fill: #c24a4a;
      }

      .cls-3 {
        fill: #f9d9d9;
        stroke: #e56a6a;
      }

      .cls-3, .cls-4 {
        stroke-miterlimit: 10;
        stroke-width: 6px;
      }

      .cls-4 {
        fill: #cdf7f7;
        stroke: #69bec4;
      }

      .cls-5 {
        fill: #468f99;
      }

      .cls-6 {
        fill: #e56a6a;
      }

      .cls-7 {
        font-size: 23.86px;
        letter-spacing: -0.02em;
      }

      .cls-23, .cls-35, .cls-7 {
        fill: #fff;
        font-family: Arvo-Bold, Arvo;
        font-weight: 700;
      }

      .cls-8 {
        letter-spacing: -0.01em;
      }

      .cls-9 {
        letter-spacing: -0.02em;
      }

      .cls-10 {
        letter-spacing: -0.02em;
      }

      .cls-11 {
        letter-spacing: -0.01em;
      }

      .cls-12 {
        letter-spacing: -0.01em;
      }

      .cls-13 {
        letter-spacing: -0.01em;
      }

      .cls-14 {
        letter-spacing: -0.01em;
      }

      .cls-15 {
        letter-spacing: -0.02em;
      }

      .cls-16 {
        letter-spacing: -0.01em;
      }

      .cls-17 {
        letter-spacing: -0.02em;
      }

      .cls-18 {
        letter-spacing: -0.01em;
      }

      .cls-19 {
        letter-spacing: -0.02em;
      }

      .cls-20 {
        letter-spacing: -0.02em;
      }

      .cls-21 {
        letter-spacing: -0.02em;
      }

      .cls-22 {
        fill: #69bec4;
      }

      .cls-23 {
        font-size: 24.65px;
        letter-spacing: -0.02em;
      }

      .cls-24 {
        letter-spacing: -0.01em;
      }

      .cls-25 {
        letter-spacing: -0.02em;
      }

      .cls-26 {
        letter-spacing: -0.02em;
      }

      .cls-27 {
        letter-spacing: -0.01em;
      }

      .cls-28 {
        letter-spacing: -0.01em;
      }

      .cls-29 {
        letter-spacing: -0.02em;
      }

      .cls-30 {
        letter-spacing: -0.01em;
      }

      .cls-31 {
        letter-spacing: -0.02em;
      }

      .cls-32 {
        letter-spacing: -0.02em;
      }

      .cls-33 {
        letter-spacing: -0.02em;
      }

      .cls-34 {
        letter-spacing: -0.02em;
      }

      .cls-35 {
        font-size: 25.28px;
      }
    </style>
  </defs>
  <title>statistik</title>
  <g id="Bcakground">
    <g>
      <path class="cls-1" d="M120.3,272.11c-50.6,1.24-72.52-11.3-72.52-11.3S-5.35,228.13,30.91,208.9s90.24-21.48,132.82-14.71,49.76,21.3,130.09,20.17,88.75-7.72,176-11.79,143.78-7,197.76,5.52,70,28.41,47.22,44.26-72.23,31.82-127.19,32.43S170.9,270.87,120.3,272.11Z"/>
      <path class="cls-1" d="M458.8,234c-42.87-3.5-276.78,11.14-369.23,3.82s140.49,2.1,151.09-22.14,50.6-23.68,63-15.15,153,12.93,191-9.9,125.79-35,151.3-40.11,37.78,4.54,53.55,20.31,93.49,6.12,86.83,26.1-87,37.94-103.07,38.72S501.66,237.45,458.8,234Z"/>
      <path class="cls-1" d="M696.64,275.29c-1.53-1.89,9-8.75,21-18.46S738.46,238.22,740,240.1s-4.87,13.83-16.84,23.55S698.17,277.17,696.64,275.29Z"/>
      <path class="cls-1" d="M446.52,197.13c-.67-1.94,11-4.7,24.88-9.4s24.83-9.56,25.5-7.62-9.17,9.95-23.08,14.65S447.19,199.07,446.52,197.13Z"/>
      <path class="cls-1" d="M101,187.58c.36,2-13.57,1.54-28.07,3.95s-24.1,6.81-24.46,4.78,8.65-9.72,23.15-12.13S100.6,185.55,101,187.58Z"/>
      <path class="cls-1" d="M693.66,152.94c-.29,2.41-11.58-8.33-26.88-10.19s-28.84,5.89-28.54,3.48,14.28-14,29.59-12.2S694,150.54,693.66,152.94Z"/>
    </g>
  </g>
  <g id="Ebene_8" data-name="Ebene 8">
    <ellipse class="cls-2" cx="336.06" cy="276.61" rx="62.94" ry="3.83"/>
    <ellipse class="cls-2" cx="419.8" cy="276.61" rx="62.94" ry="3.83"/>
    <g>
      <rect class="cls-3" x="297.41" y="38.46" width="71.17" height="235" rx="5" ry="5" transform="translate(-11.49 27.36) rotate(-4.63)"/>
      <rect class="cls-2" x="302.52" y="116.23" width="67.08" height="155.1" rx="4.85" ry="4.85" transform="translate(-14.53 27.73) rotate(-4.63)"/>
    </g>
    <g>
      <rect class="cls-4" x="391.3" y="37.8" width="71.17" height="235" rx="5" ry="5" transform="translate(10.62 -26.55) rotate(3.61)"/>
      <rect class="cls-5" x="391.26" y="106.06" width="67.08" height="164.5" rx="5" ry="5" transform="translate(12.69 -26.35) rotate(3.61)"/>
    </g>
    <polygon class="cls-2" points="660.81 124.77 650.55 207.42 518.62 206.94 511.68 195.04 538.67 120.05 652.35 115.29 657.61 120.3 660.81 124.77"/>
    <polygon class="cls-6" points="644.79 195.68 517.9 196.69 511.68 195.04 531.73 108.15 652.35 115.29 644.79 195.68"/>
    <polygon class="cls-2" points="527.85 205.38 471.95 220.39 513.68 198.25 527.85 205.38"/>
    <text class="cls-7" transform="matrix(0.99, 0.13, -0.13, 0.99, 537.62, 142.12)">T<tspan class="cls-8" x="16.24" y="-1.26">r</tspan><tspan class="cls-8" x="28.77" y="-2.39">e</tspan><tspan class="cls-9" x="42.16" y="-3.68">u</tspan><tspan class="cls-10" x="58.17" y="-4.96">e</tspan><tspan class="cls-11" x="71.61" y="-5.75"> </tspan><tspan class="cls-12" x="76.03" y="-6.33">i</tspan><tspan class="cls-13" x="84.84" y="-7.26">s</tspan><tspan class="cls-14" x="97.29" y="-8.19">t</tspan><tspan class="cls-11" x="106.25" y="-8.78"> </tspan><tspan class="cls-15" x="110.69" y="-9.16"></tspan><tspan class="cls-16"><tspan x="-2.04" y="29.11"> </tspan><tspan class="cls-17" x="2.33" y="27.97">w</tspan><tspan class="cls-18" x="24.02" y="26.64">i</tspan><tspan class="cls-19" x="32.83" y="25.67">c</tspan><tspan class="cls-20" x="46.15" y="24.4">h</tspan><tspan class="cls-18" x="61.9" y="23.32">t</tspan><tspan class="cls-18" x="70.84" y="22.54">i</tspan><tspan class="cls-21" x="79.65" y="21.52">g</tspan></tspan></text>
    <polygon class="cls-5" points="237.32 119.81 251.13 205.49 102.75 244.14 92.58 234.19 98.85 152.09 227.61 113.24 234.22 116.78 237.32 119.81"/>
    <polygon class="cls-22" points="241.77 195.33 99.22 234.12 92.58 234.19 88.68 142.14 227.22 113.18 241.77 195.33"/>
    <polygon class="cls-5" points="242.91 177.64 290.62 206.64 248.31 192.51 242.91 177.64"/>
    <text class="cls-23" transform="matrix(0.99, -0.14, 0.14, 0.99, 103.81, 173.38)">L<tspan class="cls-24" x="15.79" y="-1.09">i</tspan><tspan class="cls-25" x="24.89" y="-2.09">e</tspan><tspan class="cls-26" x="38.73" y="-3.37">b</tspan><tspan class="cls-25" x="54.01" y="-4.64">e</tspan><tspan class="cls-27" x="67.9" y="-5.45"> </tspan><tspan class="cls-28" x="72.46" y="-6.06">f</tspan><tspan class="cls-29" x="81.85" y="-7.2">ü</tspan><tspan class="cls-30" x="98.39" y="-8.48">r</tspan><tspan class="cls-30" x="111.34" y="-9.61">s</tspan><tspan class="cls-31" x="124.22" y="-10.37"> </tspan><tspan class="cls-32"><tspan x="-2.16" y="29.55">L</tspan><tspan class="cls-25" x="13.61" y="28.25">e</tspan><tspan class="cls-26" x="27.46" y="26.98">b</tspan><tspan class="cls-33" x="42.74" y="25.7">e</tspan><tspan class="cls-34" x="56.57" y="24.35">n</tspan></tspan></text>
    <text class="cls-35" transform="matrix(1, 0.06, -0.06, 1, 402.53, 137.49)">70%</text>
    <text class="cls-35" transform="matrix(1, -0.08, 0.08, 1, 308.02, 148.52)">66%</text>
  </g>
</svg>
