<svg xmlns="http://www.w3.org/2000/svg" viewBox="0 0 801.91 304.53">
  <defs>
    <style>
      .cls-1 {
        fill: #ffeeb8;
      }

      .cls-2 {
        fill: #c24a4a;
      }

      .cls-3 {
        fill: #f4ca98;
      }

      .cls-4 {
        fill: #f47f5b;
      }

      .cls-5 {
        fill: #fff;
      }

      .cls-6 {
        fill: #468f99;
      }

      .cls-7 {
        fill: #f7931e;
      }

      .cls-8 {
        fill: #7d4e24;
      }

      .cls-9 {
        fill: #d45c28;
      }

      .cls-10 {
        fill: #69bec4;
      }

      .cls-11 {
        fill: #e56a6a;
      }
    </style>
  </defs>
  <title>storch</title>
  <g id="Bcakground">
    <path class="cls-1" d="M142.27,283c-43.69.93-62.63-8.49-62.63-8.49s-83.22-57.11-30.15-73.15,119-12.85,155.79-7.76,40.81,32.08,110.17,31.24,66.88-21.8,141.88-27.47,173.4,10,220,19.39,42.48,33.21,22.82,45.12-62.37,23.92-109.83,24.38c-23,.22-118.57-.75-216-1.71C270.61,283.5,164.8,282.5,142.27,283Z"/>
  </g>
  <g id="Ebene_8" data-name="Ebene 8">
    <path class="cls-2" d="M579.94,276.39l-20-4.41-7.2-19.5,7.7-43,16-17.5,32.5-14,15.5-6-4.5-7,.5-7.5h4l4.5,3,3.5-3v-11h-7.5l-6-7,8.5-5h12v6l10,1.5,5-3,5,7.5a9,9,0,0,0-3,2.5c-1,1.5-12,2.83-12,2.83l-3,5.67,5.5,3.5,3.5-1-.5,7-1.5,4-8,3.28,4,3.22,15,11,5,24,6.5,45.47-2,11.57-9,6.84h-80Z"/>
    <ellipse class="cls-2" cx="228.74" cy="282.21" rx="144.91" ry="3.83"/>
    <ellipse class="cls-2" cx="476.15" cy="282.21" rx="99.61" ry="3.83"/>
    <polygon class="cls-3" points="138.22 281.35 162.22 213.35 130.03 196.85 125.92 158.85 135.22 114.85 150.95 91.94 234.65 70.35 255.01 127.85 257.72 142.85 237.69 203.85 204.76 217.85 179.3 218.35 173.2 281.85 154.21 283.85 138.22 281.35"/>
    <polygon class="cls-4" points="297.28 199.44 216.28 207.94 212.31 176.77 224.53 166.44 238.03 172.06 244.83 147.19 247.33 138.69 253.33 136.69 265.78 154.44 318.18 169.59 474.62 177.94 481.28 175.94 486.3 172.69 491.95 174.94 491.95 183.94 484.88 186.44 434.28 186.44 438.95 189.94 436.78 194.44 297.28 199.44"/>
    <polygon class="cls-5" points="228.18 99.94 213.31 112.94 221.62 137.94 237.52 137.26 245.11 130.44 238.58 103.94 228.18 99.94"/>
    <polygon class="cls-6" points="396.31 194.9 401.89 194.9 406.41 199.44 424.68 210.44 444.78 219.94 495.29 207.44 544.78 205.44 573.78 220.44 594.27 254.44 590.89 265.44 581.19 271.94 577.81 280.94 540.12 285.44 506.91 285.44 480.14 276.94 430.78 281.94 404.99 274.44 400.96 257.94 405.28 234.42 409.28 216.44 404.99 209.3 396.31 194.9"/>
    <polygon class="cls-6" points="419.95 202.5 429.78 202.5 432.78 210.94 424.84 218.44 404.99 223.44 404.85 212.97 419.95 202.5"/>
    <polygon class="cls-3" points="124.17 127.44 124.17 130.44 132.39 127.44 128.28 123.44 124.17 127.44"/>
    <polygon class="cls-3" points="131.46 139.44 115.23 142.94 112.17 146.44 112.17 149.44 130.09 144.44 131.46 139.44"/>
    <polygon class="cls-3" points="128.16 157.06 108.86 166.06 108.86 172.06 115.25 172.06 128.16 161.06 128.16 157.06"/>
    <polygon class="cls-3" points="129.93 186.27 113.7 194.27 113.7 199.34 117.01 199.34 127.9 191.74 129.93 186.27"/>
    <polygon class="cls-7" points="251.78 141.94 245.11 170.85 482.03 182.44 483.46 179.94 260.93 162.19 251.78 141.94"/>
    <polygon class="cls-8" points="237.82 121.94 231.75 127.44 230.39 138.44 242.02 134.48 237.82 121.94"/>
    <polygon class="cls-9" points="213.31 177.94 218.31 207.72 297.28 199.44 430.29 194.67 436.78 194.44 438.95 189.94 434.28 186.44 238.95 192.83 213.31 177.94"/>
    <polygon class="cls-7" points="131.62 131.91 140 180.77 151.64 191.59 172.07 202.5 191.82 209.91 211.27 206.76 213.93 189.44 216.28 207.94 231.28 206.36 204.76 217.85 171.95 222.19 154.04 283.78 138.22 281.35 162.22 213.35 131.62 195.97 128.28 159.1 131.62 131.91"/>
    <polygon class="cls-7" points="209.71 107.28 229.13 93.85 238.14 98.36 245.11 130.44 236.39 103.1 228.18 99.94 213 123.85 209.71 107.28"/>
    <polygon class="cls-2" points="133.92 105.08 125.92 105.08 124.31 98.7 128.28 98.7 125.92 65.06 132.12 56.65 228.71 35.62 242.02 37.43 246.56 61.76 249.86 71.97 248.06 82.78 228.71 80.08 133.92 105.08"/>
    <polygon class="cls-6" points="184.38 85.85 182.58 91.94 220.13 84.35 272.39 88.14 269.99 82.85 242.02 71.73 220.13 75.94 184.38 85.85"/>
    <polygon class="cls-10" points="242.02 75.04 234.78 79.84 268.19 85.85 268.19 83.75 242.02 75.04"/>
    <polygon class="cls-11" points="230.39 66.03 226.91 41.7 239.35 40.2 246.56 70.35 230.39 66.03"/>
    <polygon class="cls-1" points="144.69 164.56 136.08 167.48 136.08 172.81 149.69 164.56 144.69 164.56"/>
    <polygon class="cls-1" points="151.47 179.74 142.85 182.65 142.85 187.99 156.47 179.74 151.47 179.74"/>
    <polygon class="cls-1" points="143.03 149.4 133.93 149.42 132.23 154.47 147.77 150.99 143.03 149.4"/>
    <polygon class="cls-7" points="216.28 144.44 216.28 149.4 238.95 146.94 236.21 144.44 216.28 144.44"/>
    <polygon class="cls-7" points="161.62 138.44 154.95 141.94 154.95 144.44 161.62 138.44"/>
    <polygon class="cls-7" points="171.95 154.47 164.28 158.77 168.12 162.19 171.95 154.47"/>
    <polygon class="cls-7" points="156.47 113.77 147.77 113.77 147.77 117.44 156.47 113.77"/>
    <polygon class="cls-7" points="132.01 113.87 124.6 113.87 126.36 117.33 138.32 115.5 132.01 113.87"/>
    <polygon class="cls-6" points="381.28 187.44 367.28 202.5 364.28 216.94 367.28 223.44 373.52 223.44 381.28 215.44 391.28 216.94 391.28 223.44 400.96 223.44 404.85 216.94 398.28 210.44 390.78 198.94 392.78 187.44 384.25 187.44 381.28 187.44"/>
    <polygon class="cls-10" points="386.95 189.44 372.95 203.17 376.28 207.94 383.28 207.94 392.28 212.97 394.95 219.1 400.96 217.1 388.62 197.77 390.95 189.44 386.95 189.44"/>
    <polygon class="cls-10" points="411.28 211.44 422.28 204.27 428.95 205.44 428.95 207.94 411.28 215.44 411.28 211.44"/>
    <path class="cls-10" d="M432.78,219.1l16.84,2.67L492,211.1l34-3.16,19.67,1.91,8.66,5.59,11,6.33L579,236.44l3.35,14L562,258.77l-31.42-2.33L502,248.1l-18.49-1.33L471,252.44s-35.33,4-36.67,4-17.33-6-17.33-6l3.17-18.25H429l3.83-4.75v-7"/>
    <path class="cls-11" d="M567.43,207.94l31.85-20.5,20-6.67,6.34-2.67,3.33,4.34L624.28,193l1.34,5.08,6-1.33,3.66-9.33s4.67.33,4,2-2,11.33-2,11.33a62.87,62.87,0,0,1-2.66,7.17c-1,1.83,6.33,7.5,6.33,7.5s3.67,3,3.67,5.66-2.34,10-2.34,10l-16,18.34h-30l-15.33-26-11.67-8Z"/>
    <polygon class="cls-11" points="624.62 160.1 624.62 164.44 629.62 166.77 642.95 166.77 642.95 162.19 630.95 163.44 624.62 160.1"/>
    <polygon class="cls-11" points="623.28 138.44 624.62 141.94 628.62 141.94 633.78 138.44 635.28 141.94 635.28 146.92 640.62 146.92 638.28 142.68 637.62 136.69 630.28 136.69 623.28 138.44"/>
    <polygon class="cls-3" points="213 123.44 246.79 113.94 229.87 96.44 213 106.94 213 123.44"/>
    <polygon class="cls-7" points="212.31 125.52 246.79 115.6 246.79 112.14 210.7 123.85 212.31 125.52"/>
    <polygon class="cls-1" points="228.75 99.94 230.39 114.27 243.7 111.77 231.03 99.35 228.75 99.94"/>
  </g>
</svg>
