<svg xmlns="http://www.w3.org/2000/svg" viewBox="0 0 801.91 409.98"><defs><style>.cls-1{fill:#ffeeb8;}.cls-2{fill:#fdb;}.cls-3{fill:#dd992e;}.cls-4{fill:#f4ca98;}.cls-5{fill:#e56a6a;}.cls-6{fill:#c24a4a;}.cls-7{fill:none;stroke:#f4ca98;stroke-miterlimit:10;stroke-width:14.96px;}.cls-8{fill:#f7931e;}.cls-9{fill:#7d4e24;}.cls-10{fill:#fff;}.cls-11{fill:#9d9d9c;}.cls-12{fill:#b2b2b2;}.cls-13{fill:#468f99;}.cls-14{fill:#dadada;}.cls-15{fill:#d45c28;}.cls-16{fill:#c6c6c6;}</style></defs><title>beziehung</title><g id="asdsa"><path class="cls-1" d="M128.32,353c-49.68,3.35-71.2-30.51-71.2-30.51S5,234.15,40.56,182.21s88.58-58,130.39-39.74S219.8,200,298.66,197s87.13-20.86,172.82-31.86S612.64,146.21,665.62,180,734.34,256.78,712,299.6s-70.91,85.95-124.86,87.61S178,349.62,128.32,353Z"/><path class="cls-2" d="M136.77,380.9c-49.59,2.93-71.44-4-71.44-4s-53-18.25-17.95-31.86,87.92-17.3,129.87-14.87,49.38,11.25,128.13,7.13,86.85-8.62,172.34-14.88,140.84-10.5,194.11-4.94,69.42,14.85,47.52,25.76-70,23-123.86,25.76S186.37,378,136.77,380.9Z"/></g><g id="overlay"><path class="cls-3" d="M335.44,360c0,4.23-51.47,7.65-114.95,7.65S105.54,364.21,105.54,360s51.46-7.65,115-7.65S335.44,355.76,335.44,360Z"/><polygon class="cls-4" points="233.98 205.13 292.02 193.2 316.59 189.12 309.23 76.36 215.91 82.43 227.5 195.94 233.98 205.13"/><rect class="cls-4" x="206.14" y="197.06" width="60.41" height="25.07" transform="translate(-65.47 302.86) rotate(-58.74)"/><polygon class="cls-5" points="163.03 357.74 231.31 360.83 279.22 357.74 279.22 216.57 247.16 216.57 233.66 226.86 217.22 216.96 221.56 209.81 206.03 210.22 163.03 216.57 163.03 357.74"/><polygon class="cls-6" points="177.4 358.39 163.03 357.74 161.04 276.53 143.4 236.67 171.42 236.67 178.9 298.32 177.4 358.39"/><polyline class="cls-7" points="150.85 267.99 174.19 319.32 262.74 238.23"/><polyline class="cls-7" points="285.37 276.53 291.08 308.82 382.76 317.99"/><polygon class="cls-8" points="248.15 195.75 292.02 193.2 316.59 189.12 317.27 195.29 233.98 205.13 230.29 199.9 248.15 195.75"/><polygon class="cls-8" points="310.26 92.16 257.08 97.37 241.96 121.25 220.98 132.08 215.91 82.43 308.37 66.79 310.26 92.16"/><path class="cls-8" d="M295.55,143.39a5,5,0,1,0,5.43-4.13A4.82,4.82,0,0,0,295.55,143.39Z"/><polygon class="cls-8" points="225.63 203.09 236.11 224.99 253.91 204.84 232.47 191.83 225.63 203.09"/><path class="cls-8" d="M279.36,170.79c0,.69,7.24,1.24,16.15,1.22s16.12-.6,16.11-1.29-7.24-1.24-16.15-1.22S279.35,170.1,279.36,170.79Z"/><path class="cls-8" d="M272.6,161.36c-.47.47,1.53,3.21,4.47,6.12s5.69,4.88,6.15,4.42-1.53-3.21-4.47-6.12S273.07,160.89,272.6,161.36Z"/><path class="cls-8" d="M310.18,171.71c.58,0,1.28-1.51,1.58-3.43s.07-3.47-.51-3.48-1.28,1.51-1.58,3.42S309.6,171.69,310.18,171.71Z"/><polygon class="cls-5" points="294.14 282.95 277.95 282.95 279.22 216.88 294.14 232.47 294.14 282.95"/><polygon class="cls-8" points="150.81 285.65 165.62 294.24 165.62 282.11 150.81 282.11 150.81 285.65"/><polygon class="cls-8" points="280.19 289.99 293.73 283.15 293.73 283.15 278.92 283.15 280.19 289.99"/><polygon class="cls-5" points="171.42 282.95 130.28 282.95 130.28 232.47 163.03 216.57 171.42 232.47 171.42 282.95"/><polygon class="cls-8" points="245.66 105.98 245.12 184.44 248.15 195.75 235.38 206.88 229.64 206.3 219.89 121.4 245.66 105.98"/><polygon class="cls-6" points="279.22 344.56 279.22 357.74 228.72 360.83 279.22 344.56"/><polygon class="cls-9" points="217.15 161.84 204.77 85.89 197.11 68.04 208.38 50.52 313.77 27.58 318.03 86.08 286.7 88.19 276.85 74.15 275.21 88.51 254.65 90.97 228.34 110.14 224.69 156.35 217.15 161.84"/><rect class="cls-8" x="264.29" y="98.26" width="16.84" height="4.1" transform="translate(-12.57 45.12) rotate(-9.25)"/><polygon class="cls-8" points="310.7 104 293.58 102.68 294.01 98.6 311.13 99.92 310.7 104"/><rect class="cls-9" x="264.63" y="94.89" width="16.84" height="4.1" transform="translate(-12.03 45.13) rotate(-9.25)"/><polygon class="cls-9" points="311.04 100.63 293.93 99.31 294.36 95.23 311.47 96.55 311.04 100.63"/><polygon class="cls-8" points="206.69 150.6 221.47 134.21 214.47 118.45 197.2 118.21 206.69 150.6"/><ellipse class="cls-9" cx="284.95" cy="118.47" rx="5.13" ry="4.27" transform="translate(-10.52 29.44) rotate(-5.81)"/><ellipse class="cls-9" cx="302.12" cy="118.22" rx="4.27" ry="5.13" transform="translate(61.88 336.25) rotate(-63.6)"/><polygon class="cls-6" points="194.61 226.06 203.87 243.22 233.66 226.86 213.65 215.3 194.61 226.06"/><polygon class="cls-10" points="622.52 336.61 368.96 339.73 387 327.88 588.66 321.96 622.52 336.61"/><polygon class="cls-11" points="368.96 339.73 368.96 352.04 622.52 345.88 622.52 336.61 368.96 339.73"/><rect class="cls-11" x="388.13" y="343.69" width="8.78" height="34.83"/><rect class="cls-11" x="597.59" y="338.61" width="8.78" height="34.83"/><polygon class="cls-11" points="421.75 329.01 434.89 329.02 451.02 324.21 459.86 317.66 443.69 263.39 419.21 268.26 405.58 274.74 421.75 329.01"/><rect class="cls-12" x="400.43" y="290.5" width="16.82" height="3.01" transform="translate(-66.36 128.91) rotate(-16.59)"/><rect class="cls-11" x="407.69" y="314.85" width="16.82" height="3.01" transform="translate(-73.01 132) rotate(-16.59)"/><rect class="cls-12" x="398.9" y="294.01" width="5.98" height="10.84" transform="translate(-39.44 61.94) rotate(-8.4)"/><polygon class="cls-12" points="406.39 320.82 411.85 318.47 405.25 302.33 399.79 304.68 406.39 320.82"/><polygon class="cls-12" points="451.02 324.21 459.86 317.66 443.69 263.39 426.06 273.85 438.1 328.06 451.02 324.21"/><polygon class="cls-13" points="445.9 312.51 456.36 305.93 449.11 281.57 439.25 290.21 445.9 312.51"/><rect class="cls-11" x="414.13" y="288.5" width="3.36" height="6.63" transform="translate(-66.02 130.89) rotate(-16.59)"/><rect class="cls-11" x="419.69" y="313.04" width="3.36" height="6.63" transform="translate(-72.8 133.5) rotate(-16.59)"/><path class="cls-14" d="M432.29,258.3l-.42-9.26-3.65-4.38L418.49,246l-2.79-9.34,2.62-12.18-7.39,15.16s1.31,12.89,3.58,12,7.6,6.5,7.6,6.5l-4.34,4.45,6.1,1.46L430.8,262Z"/><path class="cls-14" d="M405,231.73l-4-4.28-.31-3.6,5.1-3.85-3-5.4.07,20.28,3.47-21.15s5.25,6.29,3.81,7-.54,6.34-.54,6.34l4,0-2.13,3.43-4.12,2.26Z"/><path class="cls-14" d="M412.51,261l-1.38-1.48-.09-1.24,1.77-1.34-1-1.87-2.32-1.43,3.54,1.13s1.8,2.16,1.3,2.39-.2,2.2-.2,2.2h1.39l-.75,1.19-1.43.78Z"/><path class="cls-14" d="M430.92,283.65l-1.37-1.47-.1-1.25,1.77-1.34-1-1.86-2.32-1.44,3.55,1.13s1.8,2.17,1.3,2.4-.21,2.19-.21,2.19h1.39l-.75,1.19-1.43.79Z"/><path class="cls-11" d="M569.14,331.45c0,1.06-14.63,1.91-32.68,1.91s-32.67-.85-32.67-1.91,14.63-1.91,32.67-1.91S569.14,330.4,569.14,331.45Z"/><path class="cls-11" d="M462.34,333.57c0,.94-13,1.7-29,1.7s-29-.76-29-1.7,13-1.69,29-1.69S462.34,332.64,462.34,333.57Z"/><polygon class="cls-12" points="557.48 313.66 538.52 315.86 514.46 311.61 500.61 303.62 514.91 222.64 551.03 225.59 571.78 232.68 557.48 313.66"/><rect class="cls-12" x="567.76" y="245.9" width="4.37" height="24.43" transform="translate(216.65 774.5) rotate(-79.99)"/><rect class="cls-12" x="561.34" y="282.24" width="4.37" height="24.43" transform="translate(175.57 798.2) rotate(-79.99)"/><rect class="cls-12" x="573.34" y="263.33" width="15.74" height="8.69" transform="translate(295.18 840.07) rotate(-88.18)"/><polygon class="cls-12" points="578.28 299.29 570 296.81 576.84 272.42 585.12 274.9 578.28 299.29"/><polygon class="cls-11" points="514.46 311.61 500.61 303.62 514.91 222.64 542.08 234.79 533.73 315.01 514.46 311.61"/><polygon class="cls-15" points="519.9 293.87 503.7 286.11 510.12 249.78 525.78 260.59 519.9 293.87"/><rect class="cls-11" x="555.04" y="256.57" width="9.63" height="4.89" transform="matrix(0.17, -0.98, 0.98, 0.17, 207.44, 765.31)"/><rect class="cls-11" x="551.11" y="292.9" width="9.63" height="4.89" transform="translate(168.42 791.45) rotate(-79.99)"/><path class="cls-14" d="M530.51,213.4,529.58,200l4.53-6.92,14.27.37,2.46-13.95L545,162.32,558.22,183s.26,18.81-3.17,17.92-9.87,10.65-9.87,10.65l7,5.68-8.55,3.12-10.34-1.82Z"/><path class="cls-14" d="M565.47,170.53l5.07-6.85-.15-5.25-8-4.7,3.37-8.28,9-7.16-14.27,6.5s-6.52,10-4.33,10.65,1.83,9.07,1.83,9.07l-5.78.63,3.65,4.6,6.32,2.57Z"/><path class="cls-14" d="M559.5,214l1.73-2.36-.06-1.81-2.78-1.64,1.15-2.85,3.1-2.46-4.92,2.22s-2.24,3.43-1.48,3.67.66,3.14.66,3.14l-2,.21,1.28,1.59,2.19.9Z"/><path class="cls-14" d="M556.39,137.28l1.74-2.36-.06-1.82-2.78-1.63,1.15-2.86,3.1-2.46-4.93,2.22s-2.23,3.43-1.47,3.68.66,3.13.66,3.13l-2,.21,1.27,1.6,2.2.89Z"/><rect class="cls-16" x="579.44" y="255.66" width="4.37" height="9.05" transform="translate(224.27 787.71) rotate(-79.99)"/><ellipse class="cls-11" cx="488.45" cy="372.73" rx="134.07" ry="8.75"/><polygon class="cls-4" points="416.59 320.12 391.59 329.32 379.4 326.55 379.19 309.89 410.6 298.32 416.59 320.12"/><polygon class="cls-4" points="404.07 295.63 390.87 313.95 382.49 310.16 396.46 288.17 404.07 295.63"/><polygon class="cls-6" points="130.28 232.47 147.95 230.47 149.75 282.95 130.28 282.95 130.28 232.47"/><polygon class="cls-4" points="253.91 204.84 248.15 230.47 266.25 249.12 273.78 243.22 283.29 204.84 277.95 196.09 253.97 192.43 253.91 204.84"/><polygon class="cls-8" points="256.12 197.13 273.78 189.12 279.22 189.12 259.77 199.72 256.12 197.13"/></g><g id="Ebene_8" data-name="Ebene 8"><polygon class="cls-8" points="248.15 230.47 264.09 246.89 277.91 199.56 253.97 195.41 248.15 230.47"/><polygon class="cls-8" points="248.15 261.43 260.14 238.42 264.09 246.89 248.15 261.43"/><polygon class="cls-8" points="403.16 301.06 404.07 324.73 416.59 320.12 410.6 298.32 403.16 301.06"/><polygon class="cls-8" points="265.72 198.12 283.38 190.11 288.82 190.11 269.37 200.71 265.72 198.12"/><polygon class="cls-4" points="277.27 208.41 290.32 194.77 288.82 190.11 269.37 200.71 277.27 208.41"/><polygon class="cls-8" points="268.28 202.12 291.17 192.78 297.74 192.78 272.69 204.99 268.28 202.12"/><polygon class="cls-4" points="280.47 211.18 299.55 197.95 297.74 192.78 274.26 204.53 280.47 211.18"/></g></svg>