<svg xmlns="http://www.w3.org/2000/svg" viewBox="0 0 376.87 285.31"><defs><style>.cls-1{fill:#ffeeb8;}.cls-2{fill:#c24a4a;}.cls-3{fill:#e56a6a;}.cls-4{fill:#fff;}.cls-5{fill:#706f6f;}.cls-6{fill:#b2b2b2;}.cls-7,.cls-8,.cls-9{fill:none;stroke:#b2b2b2;stroke-linecap:round;stroke-miterlimit:10;}.cls-7{stroke-width:2.19px;}.cls-8{stroke-width:2.53px;}.cls-9{stroke-width:1.62px;}.cls-10{fill:#9d9d9c;}.cls-11{fill:#d45c28;}.cls-12{fill:#e5aa3c;}.cls-13{fill:#468f99;}.cls-14{fill:#3c3c3b;}.cls-15{fill:#5aa9af;}.cls-16{fill:#dd992e;}</style></defs><title>gebetscheckliste</title><g id="overlay"><path class="cls-1" d="M340,198.38c7.38,17-32.56,32.31-32.56,32.31s-104.41,38.62-170.22,37.7-76.72-18.45-57.17-37.5,42-27.48,33-54.92-30.84-25.43-49.95-53.5S-17.44,91.8,20.35,65.24s89.22-41.91,143-43.64,75.31,12.1,80.91,31S190,82.56,340,198.38Z"/><polygon class="cls-2" points="49.21 77.94 134.27 238.41 145.56 246.3 295.38 216.07 298.21 212.13 181.74 69.25 172.29 63.62 52.04 65.31 49.21 69.25 49.21 77.94"/><polygon class="cls-3" points="52.04 74 137.1 234.47 148.39 242.35 298.21 212.13 184.58 65.31 175.13 59.68 52.04 65.31 52.04 74"/><polygon class="cls-2" points="139.72 200.36 71.52 86.47 162.24 110.31 257.92 210.29 155.96 229.94 139.72 200.36"/><path class="cls-4" d="M61.26,72.07l108.26-2.64,5.42-1.66,3.19,4.3,34.76,62.25s41.06,58.6,48.34,63.57,12.92,6,12.92,6c-3,1.32-109.59,12.91-109.59,12.91s-10.6,5-18.55-6-30.12-72.51-43.37-87.74C90.45,109,73.21,96.43,63.57,77.21Q62.33,74.72,61.26,72.07Z"/><polygon class="cls-5" points="98.52 62.6 92.89 38.13 95.71 35.81 111.77 35.81 130.64 74.88 112.76 74.88 102.5 62.63 98.52 62.6"/><polygon class="cls-5" points="91.69 63.37 81.12 46.74 82.45 44.42 96.68 44.42 106.61 62.96 91.69 63.37"/><polygon class="cls-6" points="116.22 72.89 98.01 35.81 111.77 35.81 129.68 72.89 116.22 72.89"/><polygon class="cls-6" points="84.43 44.42 94.74 60.73 98.37 60.35 94.34 44.42 84.43 44.42"/><path class="cls-7" d="M102.77,111s4.31,4.79,5,5.09,1.93.07,4.56,0,4.63-.67,5-.45.37-.45-1.72-2.77-1.57-3.66-2.77-3.73-8.82,1.57-9.19,1.42"/><path class="cls-8" d="M135.6,161.58s4.8,5.73,5.55,6.09,2.16.08,5.08,0,5.17-.81,5.58-.54.42-.54-1.91-3.31-1.75-4.38-3.08-4.47-9.84,1.88-10.25,1.7"/><path class="cls-9" d="M112.51,121.35a53.21,53.21,0,0,1,5.1,4.31c.59.86.71,1.81,2.14,1.47s4.39-1.38,5.69-1.38.83-.87-.59-2.59a26.38,26.38,0,0,0-3.68-3.45c-.59-.52-2.49-.52-3.56,0a12.11,12.11,0,0,1-3.52.6"/><path class="cls-7" d="M123.22,135.07c-.53,1.36,4.25,7,5.3,6.71s6.49-1.55,7.32-1.8-.67-8.11-2.59-8.6S123.75,133.7,123.22,135.07Z"/><path class="cls-7" d="M131.4,149.33l2.74,6.71s8.21-.41,8.62-.82.55-.68,0-2.53-1.91-6.24-3.42-6.24-7.94,2-7.94,2Z"/><path class="cls-8" d="M145,178.39s3.15,8.91,4.25,9.59a5,5,0,0,0,3.83.82c1.64-.27,7.26-2.33,8.77-2.33s-1.37-7-2.19-8.08-3.16-4-3.16-4l-10,2.88"/><path class="cls-4" d="M84.43,81.69A125.82,125.82,0,0,0,94,93c2.93,3.06,7.57-1.6,4.64-4.65a114.48,114.48,0,0,1-8.55-10,3.38,3.38,0,0,0-4.49-1.18c-1.39.82-2.26,3.07-1.18,4.5Z"/><path class="cls-4" d="M90,84.16c4.23,0,4.24-6.58,0-6.58s-4.23,6.58,0,6.58Z"/><path class="cls-10" d="M123.63,94.7l-1.21-2.46a4,4,0,0,1-.14,1.56,2,2,0,0,1-.59.83,2.28,2.28,0,0,1-1.32.37,3.68,3.68,0,0,1-1-.1,6.18,6.18,0,0,1-1-.32,10,10,0,0,1-1.09-.54,8.47,8.47,0,0,1-1.08-.76,14.79,14.79,0,0,1-2.37-2.54A16.13,16.13,0,0,1,112,87.55a13.73,13.73,0,0,1-.72-2.06,10.25,10.25,0,0,1-.31-1.84,5.44,5.44,0,0,1,.09-1.54,3,3,0,0,1,.47-1.16,2.11,2.11,0,0,1,.85-.72,2.59,2.59,0,0,1,1.22-.21,4.56,4.56,0,0,1,1.55.36A9.94,9.94,0,0,1,117,81.54l1.55,0,1.6,3.15-2.16,0a9,9,0,0,0-1.08-1,6.16,6.16,0,0,0-.86-.52,2.47,2.47,0,0,0-1-.22,1.12,1.12,0,0,0-.91.34,1.66,1.66,0,0,0-.4,1,4.6,4.6,0,0,0,.1,1.48,8.28,8.28,0,0,0,.59,1.76,10.82,10.82,0,0,0,1,1.69,8.55,8.55,0,0,0,1.24,1.43,5.67,5.67,0,0,0,1.36,1,2.94,2.94,0,0,0,1.29.3,1.09,1.09,0,0,0,1-.64,2.48,2.48,0,0,0,0-1.64l-2.06,0L117,87.06l5,0,3.83,7.55Z"/><path class="cls-10" d="M127.08,90.23l.17.28a3.75,3.75,0,0,0,.66.71,4.52,4.52,0,0,0,.73.5,3.21,3.21,0,0,0,.76.29,2.92,2.92,0,0,0,.7.07,2.92,2.92,0,0,0,1.09-.25,2.48,2.48,0,0,0,.43-.22l.4-.26,1.84,1.77a6,6,0,0,1-.47.57,2.43,2.43,0,0,1-.5.41,2.25,2.25,0,0,1-.63.26,5.88,5.88,0,0,1-.89.13,4.88,4.88,0,0,1-2-.3,6.8,6.8,0,0,1-1.88-1,9.55,9.55,0,0,1-1.65-1.6,11.65,11.65,0,0,1-1.3-2,7.83,7.83,0,0,1-.75-2,3.82,3.82,0,0,1,0-1.6,1.81,1.81,0,0,1,.64-1.08,2.12,2.12,0,0,1,1.35-.38,4.51,4.51,0,0,1,1.73.36,7.48,7.48,0,0,1,1.69,1,11.24,11.24,0,0,1,1.57,1.46,12.68,12.68,0,0,1,1.33,1.82c.1.14.19.29.28.43s.17.29.24.44Zm-.15-3.46a1.26,1.26,0,0,0-.61.13.68.68,0,0,0-.29.34,1,1,0,0,0,0,.49,2.53,2.53,0,0,0,.13.58l3.1-.07a6.79,6.79,0,0,0-.47-.57,3.3,3.3,0,0,0-.52-.47,2.89,2.89,0,0,0-.6-.32A2.23,2.23,0,0,0,126.93,86.77Z"/><path class="cls-10" d="M127.66,80.41l3.13.08,2.88,4.6a1.65,1.65,0,0,1,.57-.35,2.46,2.46,0,0,1,.76-.13,5,5,0,0,1,1.74.34,9,9,0,0,1,1.84,1,11.85,11.85,0,0,1,1.75,1.39,9.92,9.92,0,0,1,1.44,1.7,6.77,6.77,0,0,1,.87,1.75,3.06,3.06,0,0,1,.12,1.47,1.73,1.73,0,0,1-.62,1.05,2.31,2.31,0,0,1-1.36.48,4.44,4.44,0,0,1-1,0,5,5,0,0,1-1-.23l.14.24-2.26.16-6.64-11.08h-1Zm8.66,6.52a.88.88,0,0,0-.69.28,1.05,1.05,0,0,0-.18.75l1.63,2.64a4.21,4.21,0,0,0,1,.62,2.35,2.35,0,0,0,1,.2,1.06,1.06,0,0,0,.61-.2.77.77,0,0,0,.31-.47A1.52,1.52,0,0,0,140,90a3.6,3.6,0,0,0-.44-.92,6.25,6.25,0,0,0-.75-.92,5.25,5.25,0,0,0-.85-.69,3.46,3.46,0,0,0-.86-.43A2.1,2.1,0,0,0,136.32,86.93Z"/><path class="cls-10" d="M145.16,89.41l.19.25a4.09,4.09,0,0,0,.72.61,4.32,4.32,0,0,0,.78.43,3.44,3.44,0,0,0,.78.23,3.09,3.09,0,0,0,.73,0,4.34,4.34,0,0,0,.59-.09,2.44,2.44,0,0,0,.5-.16,2.74,2.74,0,0,0,.42-.21,3,3,0,0,0,.38-.24l2,1.52a5.16,5.16,0,0,1-.43.53,2.8,2.8,0,0,1-.48.37,2.24,2.24,0,0,1-.63.25,5.71,5.71,0,0,1-.9.14,5.44,5.44,0,0,1-2-.21,7.87,7.87,0,0,1-2-.86A10.64,10.64,0,0,1,144,90.63a11.42,11.42,0,0,1-1.46-1.74,7.12,7.12,0,0,1-.9-1.75,3.1,3.1,0,0,1-.16-1.43,1.4,1.4,0,0,1,.57-1,2.23,2.23,0,0,1,1.34-.37,5.13,5.13,0,0,1,1.78.28,8.48,8.48,0,0,1,1.79.83,12.43,12.43,0,0,1,1.7,1.26,13.69,13.69,0,0,1,1.48,1.57l.31.38.28.39Zm-.4-3.07a1.38,1.38,0,0,0-.61.13.54.54,0,0,0-.27.31.92.92,0,0,0,0,.44,3,3,0,0,0,.17.51l3.14-.14a6,6,0,0,0-.51-.5,3.78,3.78,0,0,0-.56-.4,3.52,3.52,0,0,0-.63-.27A2.38,2.38,0,0,0,144.76,86.34Z"/><path class="cls-10" d="M151.26,84.53l1.49,0,1.59,1.91-1.52.07,2.6,3.24a5.2,5.2,0,0,0,.41.46,1.85,1.85,0,0,0,.35.26.94.94,0,0,0,.32.13,1,1,0,0,0,.3,0,1.39,1.39,0,0,0,.46-.09l.32-.17,1.48,1.39a1.36,1.36,0,0,1-.54.45,2.85,2.85,0,0,1-1,.25,3.13,3.13,0,0,1-1-.08,4.69,4.69,0,0,1-1.11-.41,6.72,6.72,0,0,1-1.12-.76A7.1,7.1,0,0,1,153.24,90l-2.67-3.46-1.08,0-1.54-2,1.08,0-1.45-1.86,1.32-1.12Z"/><path class="cls-7" d="M111.77,99.08s10.78-.54,15.63-1.12,7.43,1.36,12.92.59,7.06-1.57,13.88-1.92S165.88,95.2,168,95.51"/><path class="cls-6" d="M175.6,105.49c-8.19.37-16.38.66-24.56,1.12-3.76.22-20.5,4.32-22.6,1.23-.94-1.38-3.2-.08-2.25,1.31,3.31,4.87,10.59,1.75,15.27,1,11.19-1.76,22.83-1.56,34.14-2.08C177.27,108,177.28,105.41,175.6,105.49Z"/><path class="cls-6" d="M179.64,115.37c-2.47-.56-5.1-1.39-7.65-.87s-3.72,1.86-6.51,2c-2.61.15-5.66.63-8.18.24-1.43-.21-3.23-1.37-4.74-.86-.94.33-1,1.1-1.65,1.58-2.61,1.81-1.54,1.07-3.87-.16-1.49-.79-1.77-1.63-3.58-1.16-1.21.32-4.14,5.06-5.54,1.77-.65-1.54-2.9-.21-2.25,1.32,1.22,2.86,3.09,3.87,5.75,2.29,2.21-1.31,1.37-3.78,4.75-1.21.48.37.57,1.41,1.19,1.66,1,.4,1.09.87,2.39.6s1.81-2.14,2.85-2.82c2-1.31,5,0,7.82-.29,2.27-.2,4.65,0,6.87-.26,1.31-.13,1-.39,2.21-.79,3.71-1.2,5.51-1.45,9.44-.56C180.58,118.26,181.28,115.74,179.64,115.37Z"/><path class="cls-6" d="M188.36,124.13c-4.63,1-9.78,2.07-14.2,2.59-.49.06-.9.47-1.34.52a30.51,30.51,0,0,1-6.68-.3c-1.6-.15-2.74-.6-4.33.1-3.21,1.42-1.64,3.56-6.6,2.11-1.22-.36-1.37-1.39-2.9-1.33-1.35.05-6.76,5.07-7,3.79-.34-1.64-2.86-.94-2.51.7.65,3.1,2.94,2.9,5.31,1.58,1.95-1.09,3.09-3.32,5.29-2.9,1.7.34,2.26,2.3,4.48,2,1.83-.23,2.26-1.53,3.67-2.39,4.11-2.5,6.14.64,10.13,0,5.75-1,11.51-2.72,17.41-3.94C190.7,126.31,190,123.79,188.36,124.13Z"/><path class="cls-6" d="M197.25,139.64c-2.09-.28-3.68.61-5.7,1-2.6.47-4.85-.34-7.41-.46-3.34-.15-5.84-.72-8.78,1.07-4.5,2.74-10.17,3-15.37,2.44-1.22-.13-2-.57-3.17-.09-.58.23-3.93,4-4.22,3.49a1.31,1.31,0,0,0-2.25,1.32c1.78,3.1,3,1.93,5.32.2,5-3.74,2.88-1.41,7.12-1.19,2.27.12,5-1,7.16-1.16a10.63,10.63,0,0,0,5.09-1.48c2.64-1.31,4.51-1.33,7.27-1.45,2.38-.1,4.62.55,7,.47,2.76-.09,5.1-1.92,7.94-1.54C198.91,142.47,198.89,139.86,197.25,139.64Z"/><path class="cls-6" d="M209.84,153.09a6.76,6.76,0,0,0,1-1.2c1-1.34-1.26-2.64-2.25-1.31a3.35,3.35,0,0,1-1.54,1.06,6.44,6.44,0,0,0-2.66-.41,1.32,1.32,0,0,0-1.3,1.3l-4.06,1.13a1.33,1.33,0,0,0-1.58-.21c.23-.15-3,2.13-2.52,2-1.75.5-4.21-.77-5.57-1.8a1.3,1.3,0,0,0-1.58.2c-1.28,1.56-4.78,6.69-7.6,2.86a1.35,1.35,0,0,0-1.47-.6c-5.31,1.39-9,3.95-14.77,3.68-1.68-.08-1.68,2.53,0,2.61,3.91.18,6.5-.58,10.21-1.7a7.07,7.07,0,0,1,4.87-1.19,4.46,4.46,0,0,0,1.19,1.14c.47.06,1.06.53,1.6.61,2.37.35,3.62-1.86,5.43-2.78.6-1.48,1.55-1.79,2.87-.92a12.22,12.22,0,0,0,1.44,1,7.6,7.6,0,0,0,2.05.45c2.21-.13,3.48-2.2,5.34-2.3s3,1.27,4.91.16a1.86,1.86,0,0,0,.39-.37,5.16,5.16,0,0,0,5.12,2.25C213.83,157.87,212.52,155,209.84,153.09Z"/><path class="cls-6" d="M218.06,171.18c-5.72.08-11.18,1.17-16.8,1.29-3.5.07-5,1.37-8.28,2.94-3.9,1.88-6.64.26-10.21-1.2-1-.42-1.68-1.1-2.89-1.05s-2.31,1.16-3.39,1.75a19,19,0,0,1-10.34,2.62c-1.68-.06-1.68,2.55,0,2.61a18.48,18.48,0,0,0,6.58-.65c1.92-.6,3.73-2.22,5.57-2.66,4-1,6.46,3.29,10.61,2.74,4.85-.63,8.21-4,13.19-4,5.31,0,10.5-1.71,16-1.78A1.31,1.31,0,0,0,218.06,171.18Z"/><path class="cls-11" d="M128.69,124.48a39.91,39.91,0,0,0-7.75-2.6,32,32,0,0,1,2.53-5c.89-1.43-1.37-2.74-2.26-1.32a36.2,36.2,0,0,0-2.86,5.83,58,58,0,0,0-7.84-.78c-1.68-.06-1.67,2.55,0,2.61a57.52,57.52,0,0,1,6.86.63,17.69,17.69,0,0,0-1.59,5.29c-.12,1.68,2.49,1.67,2.61,0A16.4,16.4,0,0,1,120,124.3a36.79,36.79,0,0,1,7.42,2.43C128.89,127.43,130.22,125.18,128.69,124.48Z"/><path class="cls-11" d="M117.61,109.68a82.14,82.14,0,0,1-8.6,2.07,26.5,26.5,0,0,1-6.56-4.59c-1.19-1.18-3,.67-1.84,1.85a25.9,25.9,0,0,0,4.93,3.75,16.54,16.54,0,0,0-3.35,1.65c-1.4.91-.1,3.17,1.31,2.25a17.52,17.52,0,0,1,5.17-2.18c1.82.91,3.69,1.74,5.56,2.62,1.52.7,2.84-1.55,1.32-2.26l-2.78-1.27a40.05,40.05,0,0,0,5.54-1.38C119.88,111.64,119.2,109.12,117.61,109.68Z"/><polygon class="cls-12" points="255.28 77.98 219.27 77.81 218.44 77.81 214.93 80.39 215.72 82.56 240.5 106.75 255.28 77.98"/><polygon class="cls-13" points="324.97 99 331.1 116.03 318.95 142.3 310.3 140.32 238.79 106.14 237.96 92.31 244.26 82.59 254.75 76.49 324.97 99"/><polygon class="cls-14" points="208.26 77.19 211.66 79.43 216.38 82.63 219.27 77.81 208.26 77.19"/><polygon class="cls-1" points="249.78 78.28 221.2 78.13 218.71 80.83 239.47 86.99 241.4 83.14 249.78 78.28"/><polygon class="cls-15" points="322.78 99.89 254.12 76.85 244.26 82.59 314.87 109.79 322.78 99.89"/><polygon class="cls-12" points="324.53 101.55 315.11 111.34 310.09 129.26 311.53 139.18 318.44 140.63 330.02 116.79 324.53 101.55"/><path class="cls-11" d="M318.8,123.19a6.89,6.89,0,0,1,.81-4.65c.75-1.06,1.6-.7,1.9.81a6.91,6.91,0,0,1-.81,4.66C320,125.07,319.1,124.7,318.8,123.19Z"/><polygon class="cls-15" points="307.85 128.97 240.42 100.9 238.79 106.14 310.3 140.32 307.85 128.97"/><ellipse class="cls-16" cx="190.54" cy="268.86" rx="108.12" ry="4.63"/></g></svg>