<svg xmlns="http://www.w3.org/2000/svg" viewBox="0 0 376.87 285.31"><defs><style>.cls-1{fill:#ffeeb8;}.cls-2{fill:#dd992e;}.cls-3{fill:#c24a4a;}.cls-4{fill:#e56a6a;}.cls-5{font-size:42.12px;letter-spacing:-0.01em;}.cls-17,.cls-5{fill:#fff;font-family:Arvo-Bold, Arvo;font-weight:700;}.cls-6{letter-spacing:-0.02em;}.cls-7{letter-spacing:-0.02em;}.cls-8{letter-spacing:-0.01em;}.cls-9{letter-spacing:-0.02em;}.cls-10{letter-spacing:-0.01em;}.cls-11{letter-spacing:-0.02em;}.cls-12{letter-spacing:-0.02em;}.cls-13{letter-spacing:-0.02em;}.cls-14{letter-spacing:-0.02em;}.cls-15{letter-spacing:-0.01em;}.cls-16{letter-spacing:-0.01em;}.cls-17{font-size:52.54px;letter-spacing:-0.01em;}</style></defs><title>ichbinda</title><g id="Bcakground"><path class="cls-1" d="M70.05,77.91c-4.16-16.36,31.86-24.77,31.86-24.77s94-20.6,150-10.72S315.11,69.66,296,84.22s-61.07,18.36-56.9,44.42,23.35,28.14,36.13,56.17,21.87,46.15-13.74,65S180.08,275.49,134,269.66s-92.9-20.33-95.3-38.18S74.2,94.28,70.05,77.91Z"/></g><g id="overlay"><ellipse class="cls-2" cx="160.33" cy="270.71" rx="56.87" ry="4.24"/><ellipse class="cls-2" cx="235.31" cy="266.47" rx="23.9" ry="1.78"/><polygon class="cls-3" points="251.63 105.26 202.06 221.56 11.51 174.43 5.67 154.79 71.08 55.88 237.09 89.02 242.92 98.11 251.63 105.26"/><polygon class="cls-4" points="197.85 202.57 14.08 159.36 5.67 154.79 65.25 36.24 237.09 89.02 197.85 202.57"/><polygon class="cls-3" points="118.14 191.1 153.08 265.45 82.61 188.54 118.14 191.1"/><text class="cls-5" transform="matrix(0.93, 0.36, -0.36, 0.93, 60.3, 92.6)">I<tspan class="cls-6" x="15.96" y="-1.73">c</tspan><tspan class="cls-7" x="39.49" y="-3.97">h</tspan><tspan class="cls-8" x="67.32" y="-5.53"> </tspan><tspan class="cls-9" x="75.08" y="-7.01">b</tspan><tspan class="cls-10" x="101.21" y="-8.84">i</tspan><tspan class="cls-11" x="116.74" y="-10.8">n</tspan><tspan class="cls-12" x="146.08" y="-12.42"></tspan><tspan class="cls-13"><tspan x="-3.15" y="42.02">d</tspan><tspan class="cls-14" x="24.89" y="39.67">a</tspan><tspan class="cls-15" x="50.55" y="38.21"> </tspan><tspan class="cls-16" x="58.37" y="37.42">.</tspan><tspan class="cls-16" x="68.62" y="36.52">.</tspan><tspan class="cls-16" x="78.88" y="35.63">.</tspan></tspan></text><polygon class="cls-3" points="245.45 182.76 229.67 229.8 233.4 239.5 274.32 242.49 288.75 186 285.02 176.29 247.94 180.33 245.45 182.76"/><polygon class="cls-4" points="241.72 173.05 229.67 229.8 270.59 232.78 285.02 176.29 244.2 170.62 241.72 173.05"/><text class="cls-17" transform="matrix(0.99, 0.17, -0.17, 0.99, 245.71, 217.49)">!</text><polygon class="cls-3" points="241.77 237.66 232.26 258.57 255.65 237.66 241.77 237.66"/></g></svg>