<svg xmlns="http://www.w3.org/2000/svg" viewBox="0 0 85.13 111.53"><defs><style>.cls-1{fill:#c24a4a;}.cls-2{fill:#e56a6a;}.cls-3{fill:#ffeeb8;}.cls-4{fill:#dd992e;}</style></defs><title>kapitelbild</title><g id="Bcakground"><path class="cls-1" d="M14.69,77.83c13.66-19.4,3-8.13-1.11-10.09s8.23-22.22,18-32.3,14.53-9,15.14-3-1.15,10.8,5.13,13.68,15.38,9.25,17,.58,14.6-7.74,13.9,2.27S61.49,57.65,58.36,67.6,63,89.11,55.09,85.67,1,97.24,14.69,77.83Z"/><ellipse class="cls-1" cx="51.42" cy="32.3" rx="1.69" ry="6.29" transform="translate(-7.26 16.67) rotate(-17.22)"/></g><g id="overlay"><path class="cls-2" d="M52,77A1,1,0,0,1,51,78H22.91a1.16,1.16,0,0,1-.4-.06.5.5,0,0,1-.26-.2l-.16-.24a.78.78,0,0,1-.09-.33c0-.17,0-.28,0-.34V59.22H16.35a1.9,1.9,0,0,1-1.88-1.87,1.76,1.76,0,0,1,.44-1.2L24.29,44.9a1.81,1.81,0,0,1,1.43-.65,1.83,1.83,0,0,1,1.44.65l9.37,11.25a1.76,1.76,0,0,1,.44,1.2,1.9,1.9,0,0,1-1.87,1.87H29.47V70.47H46.35a.89.89,0,0,1,.73.33l4.68,5.62A1.15,1.15,0,0,1,52,77ZM70.72,64.85a1.76,1.76,0,0,1-.44,1.2L60.91,77.3a1.88,1.88,0,0,1-2.88,0L48.66,66.05a1.76,1.76,0,0,1-.44-1.2A1.91,1.91,0,0,1,50.1,63h5.62V51.72H38.85a.86.86,0,0,1-.74-.35l-4.68-5.62a.93.93,0,0,1-.21-.59,1,1,0,0,1,.94-.94H62.28a1.16,1.16,0,0,1,.4.06.58.58,0,0,1,.26.21l.16.23a.84.84,0,0,1,.09.34c0,.17,0,.28,0,.34V63h5.62a1.91,1.91,0,0,1,1.88,1.88Z"/><path class="cls-2" d="M53.72,81.26a.94.94,0,0,1-.93.94H24.66a1.1,1.1,0,0,1-.39-.06.54.54,0,0,1-.27-.2l-.16-.24a.83.83,0,0,1-.09-.33,2.69,2.69,0,0,1,0-.34V63.45H18.1a1.88,1.88,0,0,1-1.87-1.87,1.71,1.71,0,0,1,.44-1.2L26,49.13a1.91,1.91,0,0,1,2.87,0l9.37,11.25a1.71,1.71,0,0,1,.44,1.2,1.88,1.88,0,0,1-1.87,1.87H31.22V74.7H48.1a.9.9,0,0,1,.73.32l4.69,5.63A1.1,1.1,0,0,1,53.72,81.26ZM72.47,69.08a1.71,1.71,0,0,1-.44,1.2L62.66,81.53a1.87,1.87,0,0,1-2.87,0L50.41,70.28a1.76,1.76,0,0,1-.44-1.2,1.91,1.91,0,0,1,1.88-1.88h5.62V56H40.6a.84.84,0,0,1-.73-.35L35.18,50a.94.94,0,0,1,.73-1.53H64a1.14,1.14,0,0,1,.39.06.56.56,0,0,1,.27.21l.16.23a.88.88,0,0,1,.08.34c0,.16,0,.28,0,.33V67.2H70.6a1.9,1.9,0,0,1,1.87,1.88Z"/><path class="cls-3" d="M53.72,77a.89.89,0,0,1-.27.65.9.9,0,0,1-.66.28H24.66a1.1,1.1,0,0,1-.39-.06.48.48,0,0,1-.27-.2l-.16-.24a.78.78,0,0,1-.09-.33,2.69,2.69,0,0,1,0-.34V59.22H18.1a1.88,1.88,0,0,1-1.87-1.87,1.71,1.71,0,0,1,.44-1.2L26,44.9a1.91,1.91,0,0,1,2.87,0l9.37,11.25a1.71,1.71,0,0,1,.44,1.2,1.88,1.88,0,0,1-1.87,1.87H31.22V70.47H48.1a.88.88,0,0,1,.73.33l4.69,5.62A1.13,1.13,0,0,1,53.72,77ZM72.47,64.85a1.71,1.71,0,0,1-.44,1.2L62.66,77.3a1.87,1.87,0,0,1-2.87,0L50.41,66.05a1.76,1.76,0,0,1-.44-1.2A1.91,1.91,0,0,1,51.85,63h5.62V51.72H40.6a.84.84,0,0,1-.73-.35l-4.69-5.62a.92.92,0,0,1-.2-.59.93.93,0,0,1,.27-.66.94.94,0,0,1,.66-.28H64a1.14,1.14,0,0,1,.39.06.56.56,0,0,1,.27.21c.06.1.12.17.16.23a.88.88,0,0,1,.08.34c0,.17,0,.28,0,.34V63H70.6a1.9,1.9,0,0,1,1.87,1.88Z"/><ellipse class="cls-4" cx="42.83" cy="89.14" rx="28.37" ry="2.11"/></g></svg>