<?xml version="1.0" encoding="utf-8"?>
<!-- Generator: Adobe Illustrator 22.1.0, SVG Export Plug-In . SVG Version: 6.00 Build 0)  -->
<svg version="1.1" id="Ebene_1" xmlns="http://www.w3.org/2000/svg" xmlns:xlink="http://www.w3.org/1999/xlink" x="0px" y="0px"
	 viewBox="0 0 801.9 410" style="enable-background:new 0 0 801.9 410;" xml:space="preserve">
<style type="text/css">
	.st0{fill:#FFEEB8;}
	.st1{fill:#F4CA98;}
	.st2{fill:#EDEDED;}
	.st3{fill:none;stroke:#F4CA98;stroke-width:7.04;stroke-miterlimit:10;}
	.st4{fill:#DD992E;}
	.st5{fill:none;stroke:#F4CA98;stroke-width:9.55;stroke-miterlimit:10;}
	.st6{fill:#9D9D9C;}
	.st7{fill:#C24A4A;}
	.st8{fill:#7D4E24;}
	.st9{fill:#F7931E;}
	.st10{fill:#B2B2B2;}
	.st11{fill:#468F99;}
	.st12{fill:#E56A6A;}
	.st13{fill:#E5AA3C;}
	.st14{fill:none;stroke:#9D9D9C;stroke-width:8.18;stroke-miterlimit:10;}
	.st15{fill:#FFEEB8;stroke:#DD992E;stroke-width:1.36;stroke-miterlimit:10;}
	.st16{fill:none;stroke:#706F6F;stroke-width:5.46;stroke-miterlimit:10;}
	.st17{fill:#FDF1B5;}
	.st18{fill:#FFFFFF;}
</style>
<title>thron</title>
<g id="overlay">
	<path class="st0" d="M118.5,386c-54.6,1.5-78.2-13.8-78.2-13.8S-17,332.4,22.1,309s97.3-26.2,143.2-18s53.7,26,140.2,24.6
		s95.7-9.4,189.8-14.4s155-8.5,213.2,6.7s75.4,34.6,50.9,53.9s-77.9,38.8-137.1,39.5S173,384.5,118.5,386z"/>
	<ellipse class="st0" cx="146.1" cy="265" rx="34.9" ry="5.5"/>
	<ellipse class="st0" cx="256.1" cy="291.1" rx="34.9" ry="5.5"/>
	<ellipse class="st0" cx="569.8" cy="280.3" rx="34.9" ry="5.5"/>
	<ellipse class="st0" cx="632.5" cy="254.2" rx="34.9" ry="5.5"/>
</g>
<g id="Ebene_8">
	<polygon class="st1" points="382.4,171.2 382.4,165.2 385.2,162.3 381.3,150.3 373.3,125.5 345.7,127 329.8,136.7 352.4,192.9 
		390.3,178.4 388.8,173.5 	"/>
	<path class="st2" d="M272.3,102.9c5.5-0.8,9-1.7,8.9-2.3s-3.5-0.8-8.9-0.7c-0.6-7.6-7.4-13.3-15-12.6c-7,0.6-12.4,6.3-12.7,13.3
		c0,0.6,0,1.2,0.1,1.8c-6.2,0.9-10.3,1.8-10.3,2.5s4.4,0.8,10.9,0.6c1.7,5.3,6.4,9.1,12,9.6L284,374l6.1-0.5l-26.7-259.3
		C268.2,112.4,271.7,108,272.3,102.9z"/>
	<line class="st3" x1="383.5" y1="255.6" x2="366.5" y2="253"/>
	<line class="st3" x1="322.7" y1="357.4" x2="328.2" y2="323.1"/>
	<path class="st4" d="M537.9,372.1c0,4.5-74.3,8.2-165.9,8.2s-165.9-3.7-165.9-8.2s74.3-8.2,165.9-8.2S537.9,367.5,537.9,372.1z"/>
	<polyline class="st5" points="435,180.9 444.9,206.8 463.2,195.6 	"/>
	<polygon class="st6" points="535.7,123.4 534,134.5 504.2,367.5 483.3,367.5 435.6,365.2 364.9,359.3 364.9,259.1 460.6,255 
		481.5,111.8 517.2,113.6 	"/>
	<polygon class="st7" points="442.6,269.5 326.8,251.8 313,328.2 340.7,330.4 349.1,271.8 450.3,278.6 	"/>
	<polygon class="st4" points="437.1,94.6 463.9,16.1 478,42 495.3,20 506.6,48.8 537.6,29 506,120.8 458.2,111.8 	"/>
	<polygon class="st8" points="494.5,101.8 447.3,93.1 437.6,95.3 451.5,106.6 458.7,102.5 506.5,121.5 	"/>
	<polygon class="st1" points="467.4,101.1 450.6,100.1 450.8,111.8 448.4,113.6 447.3,119.2 450.9,120.8 451.1,130.8 451.3,130.8 
		455.1,130.8 456,136.2 455.1,140.3 451.2,140.3 451.3,143.4 450.3,151.8 488.2,151.8 491,122.4 492,111.8 	"/>
	<polygon class="st9" points="450.3,98.9 450.8,111 456.2,110.5 461.2,110.1 466.4,113.6 467.4,101.1 457.4,98.1 	"/>
	<polygon class="st10" points="517.2,113.6 483.3,371.6 345.2,373 345.2,267.3 440.9,263.2 462.7,102.1 469.2,99.9 	"/>
	<path class="st9" d="M366.6,156.6l4.1,29.2h-9l-12.6-37.4c0,0,7-18.4,9.5-18.1s16.1,1.7,16.1,1.7l5.7,14.6l-6,6.3l-3.5-4.6l1.1,6.4
		L366.6,156.6z"/>
	<polygon class="st11" points="420.6,261.5 376.4,261.5 377.7,248.6 395.1,246.9 390.2,242.3 405.5,228.8 420.6,245.8 	"/>
	<polygon class="st12" points="376.9,191.2 360.1,203.1 368.5,232.7 391,245.8 406.9,228.5 381.7,196.8 	"/>
	<polyline class="st5" points="378.3,210.8 412.3,193.9 424.1,171.4 	"/>
	<polygon class="st8" points="368.2,111.8 383.5,144.2 374.2,148.7 365.5,140.7 368,150.4 362.1,159.1 371.9,197 357.1,207.6 
		338.5,210.5 330.5,207.6 340.3,202.9 343.5,189.5 336.6,172.3 326.8,147.8 327.5,127.9 341.3,111.8 	"/>
	<polygon class="st9" points="382.4,171.2 382.4,165.2 384.7,162.8 381.6,163.6 376.4,163.9 373.7,161.2 376.6,171.8 380.5,174.3 
		388.9,173.7 388.8,173.5 	"/>
	<polygon class="st13" points="270.3,350.9 284,367.5 337.1,367.5 340.8,353.2 329.8,350.9 326.6,356.4 319.4,356.4 318.5,350.9 
		282.1,356.4 279.4,347.7 284.9,342.7 276.2,342.7 	"/>
	<ellipse class="st9" cx="382.4" cy="156.6" rx="2.5" ry="1.3"/>
	<polygon class="st1" points="364.3,245.8 368.7,248.8 368.7,255.6 365.6,258.6 346.7,259.5 342.3,249.1 344.8,245.8 350.8,250.4 
		360.1,249.9 	"/>
	<polygon class="st12" points="386.7,197.4 389.7,199.5 385.6,201.5 386.7,210.8 391,210.8 391,215.8 376.4,217.7 373.7,207.4 
		373.7,200.3 	"/>
	<ellipse transform="matrix(0.2033 -0.9791 0.9791 0.2033 242.0998 537.0269)" class="st9" cx="451" cy="119.7" rx="0.6" ry="3.8"/>
	<polygon class="st9" points="459,138.4 458.2,126 457,129.6 451.1,130.4 451.1,130.8 451.3,130.8 455.1,130.8 456,136.2 
		455.1,140.3 	"/>
	<ellipse class="st9" cx="456.2" cy="107.4" rx="2.8" ry="0.5"/>
	<path class="st9" d="M455.1,125c1.6-0.2,3.1-0.5,4.7-0.8l-0.4,0.7L455.1,125z"/>
	<polygon class="st9" points="453.1,107.9 454.2,115.3 455.1,107.9 	"/>
	<polygon class="st13" points="495.4,25.4 495.4,62.6 509.7,62.6 	"/>
	<polygon class="st13" points="535.7,31.8 522.6,44 497.4,100.1 505,110.1 508.3,107.4 	"/>
	<polygon class="st1" points="420.9,156.5 416.9,172.6 422.9,176.7 432.5,171.2 431.8,160 	"/>
	<polygon class="st1" points="414.2,150.5 428.2,183.9 438.7,183.9 442.1,162.6 428.9,143.5 	"/>
	<line class="st14" x1="187.1" y1="100.1" x2="220.5" y2="372.1"/>
	<circle class="st4" cx="184" cy="83.1" r="18.7"/>
	<ellipse transform="matrix(0.9908 -0.1352 0.1352 0.9908 -9.8279 25.5401)" class="st4" cx="183.1" cy="85.1" rx="31.6" ry="2.5"/>
	<ellipse class="st15" cx="186.5" cy="71.4" rx="5.6" ry="3.2"/>
	<line class="st16" x1="545.8" y1="178.9" x2="517.2" y2="378.7"/>
	
		<ellipse transform="matrix(0.9988 -4.867544e-02 4.867544e-02 0.9988 -7.5278 26.879)" class="st4" cx="548.1" cy="168" rx="12.7" ry="12.7"/>
	
		<ellipse transform="matrix(0.1354 -0.9908 0.9908 0.1354 305.4952 688.4751)" class="st17" cx="547.2" cy="169.2" rx="1.7" ry="21.5"/>
	
		<ellipse transform="matrix(0.2681 -0.9634 0.9634 0.2681 249.0618 649.4687)" class="st18" cx="552" cy="160.8" rx="2.1" ry="3.8"/>
	<polygon class="st4" points="538.5,187.8 538.3,205.2 542,206.8 545.8,206.8 551.1,190.6 	"/>
	<polygon class="st9" points="424.1,178.9 422,154.2 431.2,172.7 	"/>
	<polygon class="st9" points="429.2,154.2 432.4,170.4 428.2,156.6 	"/>
	<polygon class="st9" points="377.4,251.2 375,251.2 369.4,257.1 376.7,258.6 	"/>
	<polygon class="st9" points="342.7,250.1 346.7,259.5 365.6,258.6 368.2,255.6 348,255.6 344.3,250.7 	"/>
</g>
</svg>
