<svg xmlns="http://www.w3.org/2000/svg" viewBox="0 0 801.91 409.98"><defs><style>.cls-1,.cls-17{fill:#ffeeb8;}.cls-2{fill:#ededed;}.cls-16,.cls-18,.cls-3,.cls-5{fill:none;}.cls-3,.cls-5{stroke:#f4ca98;}.cls-16,.cls-17,.cls-18,.cls-3,.cls-5{stroke-miterlimit:10;}.cls-3{stroke-width:7.04px;}.cls-4{fill:#dd992e;}.cls-5{stroke-width:9.55px;}.cls-6{fill:#9d9d9c;}.cls-7{fill:#c24a4a;}.cls-8{fill:#7d4e24;}.cls-9{fill:#f4ca98;}.cls-10{fill:#f7931e;}.cls-11{fill:#b2b2b2;}.cls-12{fill:#468f99;}.cls-13{fill:#e56a6a;}.cls-14{fill:#fff;}.cls-15{fill:#e5aa3c;}.cls-16{stroke:#9d9d9c;stroke-width:8.18px;}.cls-17{stroke:#dd992e;stroke-width:1.36px;}.cls-18{stroke:#706f6f;stroke-width:5.46px;}.cls-19{fill:#fdf1b5;}</style></defs><title>thron</title><g id="overlay"><path class="cls-1" d="M118.49,386c-54.56,1.51-78.2-13.77-78.2-13.77S-17,332.39,22.11,309,119.4,282.8,165.31,291,219,317,305.56,315.62s95.69-9.41,189.79-14.37,155-8.52,213.21,6.73S784,342.59,759.48,361.9s-77.88,38.76-137.13,39.51S173,384.46,118.49,386Z"/><ellipse class="cls-1" cx="146.07" cy="264.97" rx="34.86" ry="5.48"/><ellipse class="cls-1" cx="256.08" cy="291.08" rx="34.86" ry="5.48"/><ellipse class="cls-1" cx="569.76" cy="280.31" rx="34.86" ry="5.48"/><ellipse class="cls-1" cx="632.5" cy="254.19" rx="34.86" ry="5.48"/></g><g id="Ebene_8" data-name="Ebene 8"><path class="cls-2" d="M272.28,102.9c5.48-.84,9-1.7,8.93-2.3s-3.52-.79-8.89-.65a13.86,13.86,0,0,0-27.66.64,13.14,13.14,0,0,0,.05,1.78c-6.25.9-10.33,1.85-10.27,2.49s4.39.84,10.88.59a13.86,13.86,0,0,0,12,9.57L284,374l6.06-.47L263.37,114.21A13.86,13.86,0,0,0,272.28,102.9Z"/><line class="cls-3" x1="383.5" y1="255.63" x2="366.47" y2="253.04"/><line class="cls-3" x1="322.71" y1="357.37" x2="328.25" y2="323.13"/><path class="cls-4" d="M537.86,372.06c0,4.54-74.27,8.22-165.89,8.22s-165.88-3.68-165.88-8.22,74.27-8.22,165.88-8.22S537.86,367.52,537.86,372.06Z"/><polyline class="cls-5" points="435 180.9 444.89 206.81 463.23 195.56"/><polygon class="cls-6" points="535.73 123.45 534.03 134.49 504.22 367.51 483.26 367.51 435.64 365.24 364.87 359.33 364.87 259.09 460.56 255 481.53 111.8 517.19 113.59 535.73 123.45"/><polygon class="cls-7" points="442.64 269.54 326.78 251.81 313.02 328.19 340.68 330.4 349.08 271.83 450.3 278.64 442.64 269.54"/><polygon class="cls-4" points="437.11 94.64 463.92 16.14 478.01 41.96 495.3 20.04 506.64 48.83 537.61 29.05 505.96 120.85 458.19 111.8 437.11 94.64"/><polygon class="cls-8" points="494.5 101.8 447.28 93.1 437.62 95.32 458.7 112.48 506.47 121.53 494.5 101.8"/><polygon class="cls-9" points="491.95 111.8 490.96 122.41 488.2 151.82 450.3 151.82 451.3 143.4 450.92 120.84 447.28 119.18 448.39 113.56 450.76 111.8 450.56 100.1 467.39 101.11 491.95 111.8"/><polygon class="cls-10" points="450.3 98.9 450.75 111 456.23 110.47 461.25 110.11 466.37 113.56 467.39 101.11 457.4 98.06 450.3 98.9"/><polygon class="cls-10" points="451.08 130.43 457 129.58 458.19 125.96 459.04 138.45 455.06 140.32 451.08 140.32 451.08 130.43"/><polygon class="cls-11" points="517.19 113.59 483.26 371.6 345.23 372.96 345.23 267.27 440.93 263.18 462.74 102.07 469.21 99.86 517.19 113.59"/><polygon class="cls-9" points="373.34 125.49 381.3 150.26 390.34 178.38 352.36 192.87 329.77 136.72 345.73 126.97 373.34 125.49"/><path class="cls-10" d="M366.58,156.63l4.11,29.25h-9l-12.62-37.37s7-18.42,9.49-18.08,16.09,1.71,16.09,1.71l5.66,14.55-6,6.31-3.54-4.55,1.06,6.42Z"/><polygon class="cls-12" points="420.62 261.5 376.43 261.5 377.66 248.56 395.08 246.91 390.2 242.33 405.54 228.78 420.62 245.79 420.62 261.5"/><polygon class="cls-13" points="376.93 191.24 360.06 203.06 368.49 232.73 391.02 245.79 406.94 228.52 381.69 196.75 376.93 191.24"/><polyline class="cls-5" points="378.29 210.76 412.31 193.93 424.09 171.35"/><polygon class="cls-8" points="368.18 111.8 383.5 144.19 374.21 148.74 365.48 140.66 367.98 150.35 362.11 159.12 371.87 196.98 357.1 207.55 338.51 210.53 330.5 207.55 340.32 202.95 343.53 189.53 336.61 172.31 326.78 147.82 327.5 127.92 341.31 111.8 368.18 111.8"/><polygon class="cls-10" points="373.73 161.16 376.62 171.78 380.46 174.3 388.85 173.73 385.27 162.62 381.56 163.62 376.35 163.9 373.73 161.16"/><polygon class="cls-14" points="390.96 161.77 386.83 160.49 382.42 165.19 382.42 171.17 390.96 174.3 390.96 161.77"/><polygon class="cls-15" points="270.32 350.92 283.96 367.51 337.15 367.51 340.79 353.19 329.77 350.92 326.64 356.37 319.42 356.37 318.51 350.92 282.14 356.37 279.42 347.74 284.87 342.74 276.23 342.74 270.32 350.92"/><ellipse class="cls-10" cx="382.42" cy="156.63" rx="2.55" ry="1.32"/><polygon class="cls-9" points="364.26 245.79 368.69 248.75 368.69 255.63 365.62 258.63 346.7 259.49 342.26 249.09 344.82 245.79 350.79 250.45 360.06 249.94 364.26 245.79"/><polygon class="cls-13" points="386.69 197.38 389.66 199.48 385.65 201.51 386.69 210.76 390.96 210.76 390.96 215.84 376.43 217.72 373.73 207.38 373.73 200.33 386.69 197.38"/><ellipse class="cls-10" cx="451.08" cy="119.76" rx="0.62" ry="3.8" transform="translate(242.08 537.06) rotate(-78.27)"/><polygon class="cls-14" points="444.89 130.78 451.29 130.78 455.06 130.78 455.97 136.23 455.06 140.32 448.3 140.32 444.89 130.78"/><ellipse class="cls-10" cx="456.23" cy="107.42" rx="2.81" ry="0.51"/><path class="cls-10" d="M455.06,125a42.85,42.85,0,0,0,4.69-.82l-.36.71Z"/><polygon class="cls-10" points="453.11 107.93 454.18 115.35 455.06 107.93 453.11 107.93"/><polygon class="cls-15" points="495.35 25.42 495.35 62.59 509.67 62.59 495.35 25.42"/><polygon class="cls-15" points="535.73 31.79 522.63 44 497.4 100.1 505.01 110.11 508.31 107.42 535.73 31.79"/><polygon class="cls-9" points="420.94 156.49 416.89 172.58 422.91 176.69 432.55 171.23 431.83 159.99 420.94 156.49"/><polygon class="cls-9" points="414.24 150.47 428.16 183.85 438.67 183.87 442.09 162.56 428.87 143.52 414.24 150.47"/><line class="cls-16" x1="187.13" y1="100.1" x2="220.54" y2="372.06"/><circle class="cls-4" cx="183.97" cy="83.06" r="18.66"/><ellipse class="cls-4" cx="183.13" cy="85.14" rx="31.58" ry="2.51" transform="translate(-9.83 25.53) rotate(-7.77)"/><ellipse class="cls-17" cx="186.53" cy="71.37" rx="5.6" ry="3.15"/><line class="cls-18" x1="545.84" y1="178.88" x2="517.19" y2="378.68"/><circle class="cls-4" cx="548.12" cy="167.98" r="12.68" transform="translate(-7.53 26.9) rotate(-2.79)"/><ellipse class="cls-19" cx="547.19" cy="169.2" rx="1.7" ry="21.46" transform="translate(305.5 688.45) rotate(-82.22)"/><ellipse class="cls-14" cx="551.93" cy="160.8" rx="2.14" ry="3.81" transform="translate(249.09 649.44) rotate(-74.45)"/><polygon class="cls-4" points="538.51 187.75 538.33 205.24 541.96 206.84 545.84 206.84 551.06 190.59 538.51 187.75"/><polygon class="cls-10" points="424.09 178.88 422.02 154.23 431.21 172.73 424.09 178.88"/><polygon class="cls-10" points="429.2 154.23 432.44 170.4 428.16 156.63 429.2 154.23"/><polygon class="cls-10" points="377.4 251.24 374.99 251.24 369.37 257.06 376.71 258.59 377.4 251.24"/><polygon class="cls-10" points="342.68 250.05 346.7 259.49 365.62 258.63 368.16 255.63 348.02 255.63 344.28 250.68 342.68 250.05"/></g></svg>