<svg xmlns="http://www.w3.org/2000/svg" viewBox="0 0 400.95 409.98"><defs><style>.cls-1{fill:#ffeeb8;}.cls-2{fill:#dd992e;}.cls-3{fill:#f4ca98;}.cls-4{fill:#f7931e;}.cls-5{fill:#e56a6a;}.cls-6{fill:#754c24;}.cls-7{fill:#c24a4a;}</style></defs><title>denker</title><g id="Ebene_8" data-name="Ebene 8"><path class="cls-1" d="M116.23,396.37c-19.58,7.72-35.72-25.5-35.72-25.5S40,283.92,43.33,227.1,67,159.46,88,174.8s32.44,55.39,64,45.49,43.85,84.52,76.49,65.8,53.6-31.65,82.59-1.18,36.81,49,34.72,66.33-12.94,35-34.64,41.31S135.81,388.66,116.23,396.37Z"/><path class="cls-2" d="M387,388.8c0,5.9-77.86,10.68-173.91,10.68S39.18,394.7,39.18,388.8s77.86-10.68,173.9-10.68S387,382.9,387,388.8Z"/><rect class="cls-3" x="147.67" y="134.61" width="113.22" height="157.15" transform="translate(-37.04 43.06) rotate(-11.04)"/><rect class="cls-3" x="175.13" y="287.62" width="60.67" height="29.82" transform="translate(-108.48 490.09) rotate(-86.67)"/><polygon class="cls-3" points="254.82 363.08 144.99 363.08 144.99 338.3 179.4 332.3 222.13 324.85 262.03 346.51 254.82 363.08"/><polygon class="cls-4" points="220.03 294.65 196.53 310.42 196.53 343.65 175.4 336.89 175.4 332.67 188.21 330.93 188.81 294.65 221.39 285.65 220.03 294.65"/><polygon class="cls-5" points="172.58 330.42 188.81 340.27 230.32 340.27 238.09 333.51 264.39 340.87 274.89 385.9 126.4 385.9 126.4 340.27 172.58 330.42"/><polygon class="cls-4" points="274.89 279.47 221.1 289.96 163.78 301.15 133.67 146.9 194.48 135.04 253.5 169.8 187.16 201.71 191.69 282.82 273.41 271.88 274.89 279.47"/><polygon class="cls-6" points="261.86 169.06 234.43 174.41 222.13 159.46 213.2 178.56 127.52 195.27 115.63 134.35 126.4 115.44 136.89 113.39 212.58 98.62 246.81 91.94 261.86 169.06"/><polygon class="cls-6" points="179.6 264.5 153.13 269.65 126.65 194.76 164.55 187.38 179.6 264.5"/><path class="cls-4" d="M163.54,240.18c0,11.44-7.44,20.72-16.62,20.72s-16.63-9.28-16.63-20.72,7.44-20.73,16.63-20.73S163.54,228.73,163.54,240.18Z"/><polygon class="cls-4" points="221.78 278.91 229.48 290.14 225.24 303.92 263.72 324.85 290.55 292.66 283.46 283.48 279.78 283.49 279.28 278.07 273.16 270.14 279.48 248.18 273.16 230.43 262.36 230.88 264.81 243.46 243.73 276.38 218.74 261.48 221.78 278.91"/><polygon class="cls-4" points="233.8 201.24 212.14 208.35 210.04 201.93 231.7 194.82 233.8 201.24"/><rect class="cls-4" x="232.86" y="183.12" width="22.81" height="6.76"/><rect class="cls-4" x="180.89" y="328.87" width="81.11" height="16.05" transform="translate(-180.76 309.27) rotate(-52.75)"/><polygon class="cls-3" points="225.16 278.06 232.86 289.3 232.86 301.15 266.41 314.69 290.55 289.28 286.84 282.64 283.16 282.65 282.66 277.22 276.54 269.3 282.86 247.33 276.54 229.59 265.74 230.04 268.19 242.62 247.11 275.53 222.13 260.64 225.16 278.06"/><polygon class="cls-3" points="206.71 373.21 193.92 363.49 235.78 310.29 249.24 316.61 206.71 373.21"/><polygon class="cls-6" points="232.33 198.13 211.77 203.42 210.08 196.88 230.64 191.59 232.33 198.13"/><polygon class="cls-6" points="257.78 187.99 236.61 186.57 237.32 175.68 258.49 177.1 257.78 187.99"/><path class="cls-4" d="M256.92,241.7A4,4,0,0,0,255,240c-.74,2.89-3.73,6.24-8,8.59-4.65,2.55-9.47,3.18-12.25,1.88a4.33,4.33,0,0,0,.27,3.21c1.76,3.21,8.09,3.12,14.14-.19S258.68,244.91,256.92,241.7Z"/><path class="cls-4" d="M247.55,225.33c0,4-1.78,7.24-4,7.24s-4-3.24-4-7.24,1.78-7.23,4-7.23S247.55,221.34,247.55,225.33Z"/><polygon class="cls-7" points="150.87 393.5 210.76 326.63 236.61 343.36 198.34 393.5 150.87 393.5"/><path class="cls-6" d="M233,211.71a6,6,0,1,1-6-6.44A6.24,6.24,0,0,1,233,211.71Z"/><path class="cls-6" d="M255.51,201.47c.44,6.91-1.79,12.67-5,12.88s-6.12-5.24-6.56-12.14,1.79-12.67,5-12.88S255.07,194.57,255.51,201.47Z"/><polygon class="cls-7" points="126.4 385.9 150.87 393.5 183.01 389.7 126.4 340.27 126.4 385.9"/><polygon class="cls-5" points="220.04 314.69 200.81 336.17 234.19 350.41 235.51 350.41 251.72 329.18 220.04 314.69"/></g></svg>