<svg xmlns="http://www.w3.org/2000/svg" viewBox="0 0 317.6 378.4"><defs><style>.cls-1{isolation:isolate;}.cls-2{fill:#f7931e;}.cls-3{fill:#c7b299;}.cls-4{fill:#f4ca98;}.cls-5{fill:#cee6ea;}.cls-6{fill:#ccc;}.cls-7{fill:#aa652d;}.cls-8{fill:#f2f2f2;}.cls-13,.cls-9{fill:#f1e643;}.cls-9{opacity:0.37;mix-blend-mode:screen;}.cls-10{fill:#a7c8ce;}.cls-11{fill:#eae0d8;}.cls-12{fill:#333;}</style></defs><title>gott_zorn</title><g class="cls-1"><g id="Ebene_8" data-name="Ebene 8"><path class="cls-2" d="M268.92,361.15c0,3.1-59.77,5.62-133.49,5.62S1.94,364.25,1.94,361.15s59.76-5.61,133.49-5.61S268.92,358.05,268.92,361.15Z"/><path class="cls-3" d="M182.51,197.25s-18.33-52.53-19.72-51.7-35.18,4.08-35.18,4.08l-11.12,47.62h68"/><rect class="cls-4" x="112.51" y="56.25" width="70" height="77"/><polygon class="cls-5" points="214.82 361.25 56.2 361.25 60.28 192.25 215.42 192.25 214.82 361.25"/><polygon class="cls-2" points="182.51 56.25 113.51 56.25 113.51 77.75 145.51 83.25 153.46 114.59 145.51 133.25 182.51 133.25 182.51 56.25"/><path class="cls-6" d="M144.81,127.39a10.76,10.76,0,1,1-10.76-10.75A10.75,10.75,0,0,1,144.81,127.39Z"/><path class="cls-6" d="M161.8,123.53a10.75,10.75,0,1,1-10.75-10.75A10.75,10.75,0,0,1,161.8,123.53Z"/><path class="cls-6" d="M174.74,125.83A10.76,10.76,0,1,1,164,115.08,10.76,10.76,0,0,1,174.74,125.83Z"/><polygon class="cls-6" points="115.51 133.99 109.4 137.57 108.36 115.14 103.42 101.85 107.61 100.47 106.1 66.25 115.51 66.25 115.51 133.99"/><polygon class="cls-6" points="184.36 144.14 177.84 147.49 177.78 66.32 187.76 66.68 186 98.05 190.08 103.55 185.61 109.01 184.36 144.14"/><polygon class="cls-4" points="153.51 119.25 143.51 119.25 143.51 102.25 150.42 102.25 153.51 119.25"/><rect class="cls-7" x="143.51" y="116.25" width="10" height="5"/><path class="cls-7" d="M138.92,100.58a4.23,4.23,0,1,1-4.22-4.23A4.22,4.22,0,0,1,138.92,100.58Z"/><path class="cls-7" d="M164.25,100.58A4.23,4.23,0,1,1,160,96.35,4.22,4.22,0,0,1,164.25,100.58Z"/><polygon class="cls-6" points="174.19 97.07 151.26 99.58 150.34 91.03 173.28 88.52 174.19 97.07"/><polygon class="cls-8" points="174.42 94.44 151.48 96.95 150.56 88.39 173.5 85.88 174.42 94.44"/><path class="cls-9" d="M155.69,284.32l-7,1.05-5.18-35.44h0l-2.13-14.54-29.67,6s5,86.28,5.71,92.06l-1.58,5.9.1.48,6.53-1.45,33.27-4.86-6.55-44.75,7-1.05Z"/><polygon class="cls-10" points="143.18 361.25 56.2 361.25 58.43 192.25 143.51 198.25 143.18 361.25"/><polygon class="cls-6" points="146.51 197.25 135.51 197.25 129.5 372.25 140.5 372.25 146.51 197.25"/><path class="cls-4" d="M133.29,368.25,16.52,314,53.38,243a9.18,9.18,0,1,1,16.29,8.46l-28,54L129,346l15.45-16.41a9.18,9.18,0,1,1,13.37,12.58Z"/><path class="cls-2" d="M58.35,273.25l11.32-21.84A9.18,9.18,0,1,0,53.38,243l-15.72,30.3Z"/><path class="cls-4" d="M258.38,323.62a9.09,9.09,0,0,1-11.92-4.87c-.11-.28,1.11,4.41-10.5-23.72-6.82-16.52-12.24-29.71-16.12-39.25-8.38-20.57-8.38-20.56-7.69-23.7a9.18,9.18,0,0,1,17.87-.3c2.31,6.55,15.84,37.7,33.4,79.92a9.09,9.09,0,0,1-5,11.91Z"/><path class="cls-6" d="M186.51,74.25h-80V60.34c0-15.39,13.25-28.09,28.65-28.09H159c15.4,0,27.56,12.7,27.56,28.09Z"/><ellipse class="cls-3" cx="150.43" cy="193.25" rx="32.08" ry="4"/><polygon class="cls-6" points="193.51 198.25 214.84 320.58 214.51 263.75 214.51 232.25 193.51 198.25"/><polygon class="cls-4" points="145.51 176.61 122.13 172.25 116.49 197.25 145.51 197.25 145.51 176.61"/><polygon class="cls-6" points="192 184.25 104.18 184.25 99.51 179.56 99.51 131.31 105.92 126.25 189.57 126.25 194.51 132.01 194.51 178.87 192 184.25"/><polygon class="cls-6" points="146.02 102.85 120.28 96.23 123.02 85.68 148.76 92.31 146.02 102.85"/><polygon class="cls-8" points="147.75 100.85 122.01 94.22 124.75 83.68 150.48 90.3 147.75 100.85"/><path class="cls-11" d="M159,32.25H141.39l13.62,12,1.5,16v14h30V60.34C186.51,45,174.35,32.25,159,32.25Z"/><path class="cls-2" d="M234,241.91c-4.45-10.89-3.24-8.08-4-10.13a9.18,9.18,0,0,0-17.87.3c-.69,3.14-.69,3.13,7.69,23.7l1.45,3.58Z"/><path class="cls-11" d="M177.82,116v10.28h-3.1c0-.14,0-.28,0-.42A10.75,10.75,0,0,0,159,116.31a10.78,10.78,0,0,0-5.15-3.15l.16,14.59-15.5,7.5,14.5,4.5-.5,37.5,10,3.5,7.21,3.5H192l2.51-5.38V132l-4.94-5.76H185l.29-8.17Z"/><polygon class="cls-7" points="136.6 134.02 163 140.18 153.38 127.93 136.6 134.02"/><polygon class="cls-5" points="246.63 233.4 189.27 256.92 176.99 226.99 188.94 198.69 206.1 191.65 234.35 203.46 246.63 233.4"/><path class="cls-10" d="M98.51,246.25h-62V213.9l21.8-21.65H76.85s21.66,9.65,21.66,21.65Z"/><path class="cls-4" d="M251,282.16l20.13-102.37a9.18,9.18,0,0,1,18,3.55L263,316.65Z"/><path class="cls-4" d="M273.51,160.25a9,9,0,0,1-9-9v-51a9,9,0,0,1,18,0v51A9,9,0,0,1,273.51,160.25Z"/><polygon class="cls-12" points="140.12 320.07 155.77 364.5 118.31 335.92 97.96 378.4 91.68 331.71 47.24 347.36 75.83 309.91 33.33 289.55 80.03 283.29 64.38 238.85 101.83 267.43 122.19 224.95 128.46 271.64 172.91 255.99 144.32 293.44 186.82 313.8 140.12 320.07"/><rect class="cls-4" x="264.51" y="141.25" width="36" height="50" transform="translate(5.04 340.78) rotate(-62.65)"/><polyline class="cls-13" points="113.46 271.98 95.69 303.9 130.16 302.62 115.73 334.5"/><polyline class="cls-12" points="233.47 67.46 238.95 87.76 252.59 73.39 259.43 92.33"/><polyline class="cls-12" points="275.57 49.52 264.09 67.12 283.92 67.77 274.35 85.49"/><polyline class="cls-12" points="313.23 61.06 292.97 66.67 307.42 80.28 288.53 87.24"/><rect class="cls-2" x="272.06" y="153.65" width="8.08" height="50" transform="translate(-9.43 341.8) rotate(-62.65)"/></g></g></svg>