<svg xmlns="http://www.w3.org/2000/svg" xmlns:xlink="http://www.w3.org/1999/xlink" viewBox="0 0 317.6 378.4"><defs><style>.cls-1{fill:#f7931e;}.cls-2{fill:#f1e643;}.cls-10,.cls-3,.cls-4,.cls-8,.cls-9{fill:none;}.cls-3,.cls-8{stroke:#fff;opacity:0.71;}.cls-3{stroke-width:4.75px;}.cls-4,.cls-9{stroke:#fcee21;}.cls-4{stroke-width:10.3px;}.cls-5{opacity:0.54;}.cls-6{fill:#fff;}.cls-7{fill:url(#radial-gradient);}.cls-8{stroke-width:7.51px;}.cls-9{stroke-width:16.28px;}.cls-10{stroke:#f1e643;stroke-miterlimit:10;stroke-width:5.46px;stroke-dasharray:28.05 28.05;}</style><radialGradient id="radial-gradient" cx="-796.48" cy="-746.49" r="58.61" gradientTransform="translate(761.95 754.06) scale(0.75)" gradientUnits="userSpaceOnUse"><stop offset="0.02" stop-color="#f7f7f7" stop-opacity="0.79"/><stop offset="1" stop-color="#fff" stop-opacity="0"/></radialGradient></defs><title>gott_sonne</title><g id="Ebene_8" data-name="Ebene 8"><path class="cls-1" d="M241.2,361.15c0,3.38-32.54,6.13-72.69,6.13s-72.7-2.75-72.7-6.13,32.55-6.12,72.7-6.12S241.2,357.77,241.2,361.15Z"/><path class="cls-2" d="M219,190.94a58.39,58.39,0,1,1-58.39-58.38A58.39,58.39,0,0,1,219,190.94Z"/><path class="cls-3" d="M219,190.94a58.39,58.39,0,1,1-58.39-58.38A58.39,58.39,0,0,1,219,190.94Z"/><path class="cls-4" d="M219,190.94a58.39,58.39,0,1,1-58.39-58.38A58.39,58.39,0,0,1,219,190.94Z"/><g class="cls-5"><path class="cls-6" d="M160.58,132.55a58.39,58.39,0,1,1-58.39,58.39,58.39,58.39,0,0,1,58.39-58.39m0-10.29a68.68,68.68,0,1,0,68.69,68.68,68.76,68.76,0,0,0-68.69-68.68Z"/></g><path class="cls-7" d="M205.09,190.68a44.24,44.24,0,1,1-44.24-44.23A44.24,44.24,0,0,1,205.09,190.68Z"/><path class="cls-8" d="M205.09,190.68a44.24,44.24,0,1,1-44.24-44.23A44.24,44.24,0,0,1,205.09,190.68Z"/><path class="cls-9" d="M205.09,190.68a44.24,44.24,0,1,1-44.24-44.23A44.24,44.24,0,0,1,205.09,190.68Z"/><g class="cls-5"><path class="cls-6" d="M160.85,146.45a44.24,44.24,0,1,1-44.23,44.23,44.24,44.24,0,0,1,44.23-44.23m0-16.29a60.51,60.51,0,1,0,60.52,60.52,60.58,60.58,0,0,0-60.52-60.52Z"/></g><path class="cls-10" d="M241.79,190.9a80.35,80.35,0,1,1-80.34-80.34A80.35,80.35,0,0,1,241.79,190.9Z"/></g></svg>