<svg xmlns="http://www.w3.org/2000/svg" viewBox="0 0 317.6 378.4"><defs><style>.cls-1{isolation:isolate;}.cls-2{fill:#f7931e;}.cls-3{fill:#c7b299;}.cls-4{fill:#f4ca98;}.cls-5{fill:#cee6ea;}.cls-6{fill:#ccc;}.cls-7{fill:#f4e8dc;}.cls-8{fill:#aa652d;}.cls-9{fill:#f2f2f2;}.cls-10{fill:#f1e643;opacity:0.37;mix-blend-mode:screen;}.cls-11{fill:#a7c8ce;}.cls-12{fill:#eae0d8;}.cls-13{fill:#d4145a;}.cls-14{fill:#ed70a8;}.cls-15,.cls-16{fill:none;}.cls-15{stroke:#ed70a8;stroke-miterlimit:10;stroke-width:3.52px;}</style></defs><title>gott_schenker</title><g class="cls-1"><g id="Ebene_8" data-name="Ebene 8"><path class="cls-2" d="M272.92,361.15c0,3.1-59.77,5.62-133.49,5.62S5.94,364.25,5.94,361.15s59.76-5.61,133.49-5.61S272.92,358.05,272.92,361.15Z"/><path class="cls-3" d="M186.51,197.25s-18.33-52.53-19.72-51.7-35.18,4.08-35.18,4.08l-11.12,47.62h68"/><rect class="cls-4" x="116.51" y="56.25" width="70" height="77"/><polygon class="cls-5" points="218.82 361.25 60.2 361.25 64.28 192.25 219.42 192.25 218.82 361.25"/><polygon class="cls-2" points="186.51 56.25 117.51 56.25 117.51 77.75 149.51 83.25 149.51 133.25 186.51 133.25 186.51 56.25"/><path class="cls-6" d="M148.81,127.39a10.76,10.76,0,1,1-10.76-10.75A10.75,10.75,0,0,1,148.81,127.39Z"/><path class="cls-6" d="M165.81,123.53a10.76,10.76,0,1,1-10.76-10.75A10.76,10.76,0,0,1,165.81,123.53Z"/><path class="cls-6" d="M178.74,125.83A10.76,10.76,0,1,1,168,115.08,10.76,10.76,0,0,1,178.74,125.83Z"/><polygon class="cls-6" points="119.51 133.99 113.4 137.57 112.36 115.14 107.42 101.85 111.61 100.47 110.1 66.25 119.51 66.25 119.51 133.99"/><polygon class="cls-6" points="188.36 144.14 181.84 147.49 181.78 66.32 191.76 66.68 190 98.05 194.08 103.55 189.61 109.01 188.36 144.14"/><rect class="cls-7" x="147.51" y="102.25" width="10" height="17"/><rect class="cls-8" x="147.51" y="116.25" width="10" height="5"/><path class="cls-8" d="M142.92,100.58a4.23,4.23,0,1,1-4.22-4.23A4.22,4.22,0,0,1,142.92,100.58Z"/><path class="cls-8" d="M168.25,100.58A4.22,4.22,0,1,1,164,96.35,4.22,4.22,0,0,1,168.25,100.58Z"/><polygon class="cls-6" points="176.81 101.73 153.96 98.77 155.08 90.24 177.94 93.2 176.81 101.73"/><polygon class="cls-9" points="177.65 99.22 154.79 96.26 155.92 87.73 178.77 90.69 177.65 99.22"/><path class="cls-10" d="M159.69,284.32l-7,1.05-5.18-35.44h0l-2.13-14.54-29.67,6s5,86.28,5.71,92.06l-1.58,5.9.1.48,6.53-1.45,33.27-4.86-6.55-44.75,7-1.05Z"/><polygon class="cls-11" points="147.18 361.25 60.2 361.25 62.43 192.25 147.51 198.25 147.18 361.25"/><polygon class="cls-6" points="150.51 197.25 139.51 197.25 133.5 372.25 144.5 372.25 150.51 197.25"/><path class="cls-4" d="M137.29,368.25,20.52,314,57.38,243a9.18,9.18,0,1,1,16.29,8.46l-28,54L133,346l15.45-16.41a9.18,9.18,0,1,1,13.37,12.58Z"/><path class="cls-2" d="M62.35,273.25l11.32-21.84A9.18,9.18,0,1,0,57.38,243l-15.72,30.3Z"/><path class="cls-4" d="M230.74,370.25a9.1,9.1,0,0,1-9.18-9c0-.31-.15-31-.23-61.4,0-17.87-.05-32.13,0-42.43.06-22.21.06-22.2,1.88-24.85a9.18,9.18,0,0,1,16.65,6.51c-.34,6.93-.14,76.35.09,122.07a9.08,9.08,0,0,1-9.13,9.13Z"/><path class="cls-6" d="M190.51,74.25h-80V60.34c0-15.39,13.25-28.09,28.65-28.09H163c15.4,0,27.56,12.7,27.56,28.09Z"/><ellipse class="cls-3" cx="154.43" cy="193.25" rx="32.08" ry="4"/><polygon class="cls-6" points="197.51 198.25 218.84 320.58 218.51 263.75 218.51 232.25 197.51 198.25"/><polygon class="cls-4" points="149.51 176.61 126.13 172.25 120.49 197.25 149.51 197.25 149.51 176.61"/><polygon class="cls-6" points="196 184.25 108.18 184.25 103.51 179.56 103.51 131.31 109.92 126.25 193.57 126.25 198.51 132.01 198.51 178.87 196 184.25"/><polygon class="cls-6" points="152.86 98.12 126.53 101.72 125.07 90.92 151.4 87.32 152.86 98.12"/><polygon class="cls-9" points="153.69 95.61 127.36 99.21 125.91 88.42 152.24 84.81 153.69 95.61"/><path class="cls-12" d="M163,32.25H145.39l13.62,12,1.5,16v14h30V60.34C190.51,45,178.35,32.25,163,32.25Z"/><path class="cls-2" d="M239.65,249.92c0-11.76.08-8.7.18-10.87a9.18,9.18,0,0,0-16.65-6.51c-1.82,2.65-1.82,2.64-1.88,24.85v3.86Z"/><path class="cls-12" d="M181.82,116v10.28h-3.1c0-.14,0-.28,0-.42A10.75,10.75,0,0,0,163,116.31a10.78,10.78,0,0,0-5.15-3.15l.16,14.59-15.5,7.5,14.5,4.5-.5,37.5,10,3.5,7.21,3.5H196l2.51-5.38V132l-4.94-5.76H189l.29-8.17Z"/><polygon class="cls-8" points="140.6 134.02 167 140.18 157.38 127.93 140.6 134.02"/><path class="cls-5" d="M250.51,245.25h-62V212.9a21.72,21.72,0,0,1,21.8-21.65h18.54a21.6,21.6,0,0,1,21.66,21.65Z"/><path class="cls-11" d="M97.51,243.25h-62V210.9a21.72,21.72,0,0,1,21.8-21.65H75.85A21.6,21.6,0,0,1,97.51,210.9Z"/><rect class="cls-13" x="73.13" y="240.64" width="79.86" height="99.15" transform="translate(-40.8 19.41) rotate(-8.32)"/><rect class="cls-14" x="67.01" y="241.09" width="79.86" height="14.69" transform="translate(-34.82 18.08) rotate(-8.32)"/><rect class="cls-14" x="108.86" y="238.85" width="11.94" height="100.87" transform="translate(-59.83 31.67) rotate(-12.49)"/><polygon class="cls-14" points="159.69 284.32 160.21 287.7 65.62 301.92 65.1 298.54 159.69 284.32"/><path class="cls-15" d="M98.57,227c3.4,6.56,3,13.5-.81,15.5s-9.73-1.7-13.14-8.27-3-13.5.82-15.49S95.17,220.44,98.57,227Z"/><path class="cls-15" d="M115,230.14c-.82,7.35-5,12.91-9.3,12.43s-7.15-6.83-6.33-14.17,5-12.91,9.29-12.43S115.81,222.79,115,230.14Z"/><path class="cls-10" d="M159.69,284.32l-7,1.05-5.18-35.44h0l-2.13-14.54-29.67,6s5,86.28,5.71,92.06l-1.58,5.9.1.48,6.53-1.45,33.27-4.86-6.55-44.75,7-1.05Z"/><rect id="_Slice_" data-name="&lt;Slice&gt;" class="cls-16" x="0.56" y="11.84" width="302" height="361"/></g></g></svg>