<svg xmlns="http://www.w3.org/2000/svg" xmlns:xlink="http://www.w3.org/1999/xlink" viewBox="0 0 85.13 111.53"><defs><style>.cls-1{fill:none;}.cls-2{isolation:isolate;}.cls-3{clip-path:url(#clip-path);}.cls-4{fill:#c7b299;}.cls-5{fill:#f4ca98;}.cls-6{fill:#cee6ea;}.cls-7{fill:#f7931e;}.cls-8{fill:#ccc;}.cls-9{fill:#aa652d;}.cls-10{fill:#822a2a;}.cls-11{fill:#f2f2f2;}.cls-12,.cls-16{fill:#f1e643;}.cls-12{opacity:0.37;mix-blend-mode:screen;}.cls-13{fill:#a7c8ce;}.cls-14{fill:#eae0d8;}.cls-15{fill:#333;}</style><clipPath id="clip-path"><rect class="cls-1" x="5.87" y="5.45" width="74.72" height="86.59"/></clipPath></defs><title>kapitelbild_2</title><g class="cls-2"><g id="overlay"><g class="cls-3"><path class="cls-4" d="M50.25,47.62s-3.87-11.1-4.17-10.93-7.44.87-7.44.87L36.29,47.62H50.67"/><rect class="cls-5" x="35.45" y="17.81" width="14.8" height="16.28"/><polygon class="cls-6" points="57.08 82.31 23.54 82.31 24.4 46.57 57.21 46.57 57.08 82.31"/><polygon class="cls-7" points="50.25 17.81 35.66 17.81 35.66 22.36 42.43 23.52 44.11 30.15 42.43 34.09 50.25 34.09 50.25 17.81"/><path class="cls-8" d="M42.28,32.85A2.28,2.28,0,1,1,40,30.58,2.28,2.28,0,0,1,42.28,32.85Z"/><path class="cls-8" d="M45.87,32a2.27,2.27,0,1,1-2.27-2.28A2.27,2.27,0,0,1,45.87,32Z"/><path class="cls-8" d="M48.61,32.52a2.28,2.28,0,1,1-2.28-2.27A2.28,2.28,0,0,1,48.61,32.52Z"/><polygon class="cls-8" points="36.08 34.25 34.79 35.01 34.57 30.26 33.53 27.45 34.41 27.16 34.09 19.92 36.08 19.92 36.08 34.25"/><polygon class="cls-8" points="50.64 36.39 49.26 37.1 49.25 19.94 51.36 20.01 50.99 26.65 51.85 27.81 50.91 28.96 50.64 36.39"/><polygon class="cls-5" points="44.12 31.13 42.01 31.13 42.01 27.54 43.47 27.54 44.12 31.13"/><rect class="cls-9" x="42" y="30.5" width="2.11" height="1.06"/><ellipse class="cls-10" cx="40.3" cy="82.28" rx="28.23" ry="2.38"/><path class="cls-9" d="M41,27.18a.89.89,0,1,1-.89-.89A.89.89,0,0,1,41,27.18Z"/><path class="cls-9" d="M46.39,27.18a.89.89,0,1,1-.89-.89A.89.89,0,0,1,46.39,27.18Z"/><polygon class="cls-8" points="48.49 26.44 43.64 26.97 43.45 25.16 48.3 24.63 48.49 26.44"/><polygon class="cls-11" points="48.54 25.88 43.69 26.41 43.5 24.61 48.35 24.07 48.54 25.88"/><path class="cls-12" d="M44.58,66l-1.48.22L42,58.76h0l-.45-3.07L35.28,57s1,18.24,1.21,19.46l-.34,1.25,0,.1,1.38-.31,7-1L43.21,67l1.48-.22Z"/><polygon class="cls-13" points="41.94 82.31 23.54 82.31 24.02 46.57 42.01 47.84 41.94 82.31"/><polygon class="cls-8" points="42.64 47.62 40.31 47.63 39.04 84.63 41.37 84.63 42.64 47.62"/><path class="cls-5" d="M39.84,83.79,15.15,72.31l7.79-15a1.94,1.94,0,0,1,3.45,1.79L20.46,70.5l18.48,8.58,3.26-3.47A1.94,1.94,0,0,1,45,78.27Z"/><path class="cls-7" d="M24,63.7l2.39-4.62a1.94,1.94,0,0,0-3.45-1.79L19.62,63.7Z"/><path class="cls-5" d="M66.3,74.35a1.93,1.93,0,0,1-2.52-1c0-.06.23.93-2.22-5C60.11,64.81,59,62,58.15,60c-1.78-4.35-1.77-4.35-1.63-5a1.94,1.94,0,0,1,3.78-.06c.49,1.38,3.35,8,7.06,16.9a1.91,1.91,0,0,1-1.06,2.51Z"/><path class="cls-8" d="M51.1,21.61H34.18V18.67a6.08,6.08,0,0,1,6.06-5.94h5a5.88,5.88,0,0,1,5.83,5.94Z"/><path class="cls-4" d="M50.25,46.78c0,.47-3,.84-6.78.84s-6.78-.37-6.78-.84,3-.85,6.78-.85S50.25,46.31,50.25,46.78Z"/><polygon class="cls-8" points="52.58 47.84 57.09 73.7 57.02 61.69 57.02 55.03 52.58 47.84"/><polygon class="cls-5" points="42.43 43.26 37.48 42.34 36.29 47.63 42.43 47.62 42.43 43.26"/><polygon class="cls-8" points="52.26 44.88 33.69 44.88 32.7 43.88 32.7 33.68 34.06 32.61 51.74 32.61 52.79 33.83 52.79 43.74 52.26 44.88"/><polygon class="cls-8" points="42.54 27.66 37.09 26.26 37.67 24.03 43.12 25.43 42.54 27.66"/><polygon class="cls-11" points="42.9 27.24 37.46 25.84 38.04 23.61 43.48 25.01 42.9 27.24"/><path class="cls-14" d="M45.27,12.73H41.56l2.88,2.54.31,3.38v3H51.1V18.67A5.88,5.88,0,0,0,45.27,12.73Z"/><path class="cls-7" d="M61.14,57.07a19,19,0,0,1-.84-2.14,1.94,1.94,0,0,0-3.78.06c-.14.66-.15.66,1.63,5,.09.24.2.5.3.76Z"/><path class="cls-14" d="M49.26,30.44v2.17H48.6a.28.28,0,0,0,0-.09,2.28,2.28,0,0,0-2.28-2.27,2.21,2.21,0,0,0-1,.26,2.28,2.28,0,0,0-1.09-.67l0,3.09L41,34.51l3.06,1-.1,7.93,2.11.74,1.53.74h4.71l.53-1.14V33.83l-1-1.22h-1l.06-1.73Z"/><polygon class="cls-9" points="40.54 34.25 46.13 35.55 44.09 32.97 40.54 34.25"/><polygon class="cls-6" points="63.81 55.27 51.68 60.24 49.09 53.91 51.61 47.93 55.24 46.44 61.22 48.94 63.81 55.27"/><path class="cls-13" d="M32.49,58H19.38V51.15L24,46.57h3.92s4.58,2,4.58,4.58Z"/><path class="cls-5" d="M64.74,65.58,69,43.93a1.94,1.94,0,0,1,3.81.75L67.26,72.87Z"/><path class="cls-5" d="M69.5,39.8a1.91,1.91,0,0,1-1.91-1.9V27.11a1.91,1.91,0,0,1,3.81,0V37.9A1.9,1.9,0,0,1,69.5,39.8Z"/><polygon class="cls-15" points="41.29 73.6 44.6 82.99 36.68 76.95 32.37 85.93 31.05 76.06 21.65 79.37 27.69 71.45 18.71 67.14 28.58 65.82 25.27 56.42 33.19 62.47 37.5 53.48 38.82 63.36 48.22 60.05 42.18 67.97 51.16 72.27 41.29 73.6"/><rect class="cls-5" x="67.59" y="35.78" width="7.61" height="10.57" transform="translate(2.12 85.62) rotate(-62.65)"/><polyline class="cls-16" points="35.65 63.43 31.89 70.18 39.18 69.91 36.13 76.65"/><polyline class="cls-15" points="61.03 20.18 62.19 24.47 65.07 21.43 66.52 25.44"/><polyline class="cls-15" points="69.93 16.38 67.5 20.11 71.7 20.25 69.67 23.99"/><polyline class="cls-15" points="77.9 18.83 73.61 20.01 76.67 22.89 72.67 24.36"/><rect class="cls-7" x="69.19" y="38.4" width="1.71" height="10.57" transform="translate(-0.96 85.8) rotate(-62.62)"/></g></g></g></svg>