<svg xmlns="http://www.w3.org/2000/svg" viewBox="0 0 400.95 409.98"><defs><style>.cls-1{fill:#ffeeb8;}.cls-2{fill:#f4ca98;}.cls-3{fill:#f5f5f5;}.cls-4{fill:#dd992e;}.cls-5{fill:#f7931e;}.cls-6{fill:#4b9d8f;}.cls-7{fill:#336d62;}.cls-8{fill:#999;}.cls-9{fill:#754c24;}.cls-10{opacity:0.23;}.cls-11{fill:#ff931e;}.cls-12{fill:none;stroke:#c69c6d;stroke-width:11.58px;opacity:0.33;}.cls-13{opacity:0.27;}.cls-14{fill:#a67c52;}</style></defs><title>moses</title><g id="overlay"><path class="cls-1" d="M317.54,388.8c-92.32,0-196.3-2.9-196.3-2.9s-98.86,5.52-102.3-25.83-7.87-101,12-119.89,7.81-55.56,9.53-101.82S102.58,61,142.75,76.21s10.89,70.06,30.62,137,61.76-45.46,76.14-66.86c22.62-33.68,81.41-34.95,113.79-8C401,169.63,429.88,388.8,317.54,388.8Z"/></g><g id="Ebene_8" data-name="Ebene 8"><polygon class="cls-2" points="281.6 124.59 272.96 124.59 272.96 113.21 281.6 108.92 281.6 124.59"/><path class="cls-3" d="M297.69,179.09c-2.52-2.87-5.71-6.89-7.09-8.92s-9.46-6.34-12.39-9.09h-7.93c-3,3-7,4.91-8.84,4.13h-6.13c-3,3.2-10.14,8.09-15.84,10.88v5.85a10.94,10.94,0,0,0,10.94,10.94H252c1.59-.53,4.85.21,7.26,1.65h5.12c2.21-1.16,5.5-1.53,7.3-.83H276a9.73,9.73,0,0,1,8.24,0h2.49a10.94,10.94,0,0,0,10.94-10.94Z"/><path class="cls-3" d="M377.34,232c-7.15-11.95-16.2-28.64-20.11-37.1s-26.81-26.34-35.13-37.76H299.6c-8.47,12.65-19.75,20.37-25.07,17.16h-17.4c-8.54,13.28-28.75,33.62-44.92,45.19v24.32c0,25.12,13.89,45.5,31,45.5h4.51c4.49-2.21,13.76.88,20.6,6.86h14.5c6.29-4.81,15.61-6.36,20.71-3.43h12.31c6.42-5.11,16.95-5.11,23.38,0h7c17.15,0,31-20.37,31-45.49Z"/><path class="cls-3" d="M156.83,229.74c-3-5-6.82-12.07-8.47-15.64s-11.3-11.09-14.81-15.91h-9.48c-3.57,5.33-8.32,8.59-10.56,7.23h-7.34c-3.59,5.6-12.11,14.17-18.93,19.05v10.25c0,10.58,5.86,19.17,13.08,19.17h1.91c1.89-.93,5.8.37,8.68,2.89H117c2.65-2,6.57-2.68,8.72-1.45h5.19a8.34,8.34,0,0,1,9.86,0h3c7.23,0,13.08-8.58,13.08-19.16Z"/><path class="cls-3" d="M129.66,157.89c-3-5-6.83-12.07-8.47-15.64s-11.3-11.1-14.81-15.91H96.9c-3.57,5.33-8.32,8.58-10.57,7.23H79c-3.6,5.6-12.12,14.17-18.93,19v10.25c0,10.59,5.85,19.18,13.08,19.18h1.9c1.9-.93,5.8.37,8.69,2.89h6.1c2.65-2,6.58-2.68,8.73-1.45h5.19a8.33,8.33,0,0,1,9.85,0h3c7.22,0,13.08-8.58,13.08-19.17Z"/><path class="cls-3" d="M383,84.83c-3-5-6.83-12.07-8.48-15.64S363.2,58.1,359.7,53.28h-9.48c-3.57,5.33-8.32,8.59-10.57,7.23h-7.33c-3.6,5.6-12.12,14.17-18.93,19.05V89.81c0,10.58,5.85,19.17,13.08,19.17h1.9c1.89-.93,5.8.37,8.68,2.89h6.11c2.65-2,6.58-2.68,8.73-1.45h5.19a8.33,8.33,0,0,1,9.85,0h3c7.22,0,13.08-8.58,13.08-19.17Z"/><path class="cls-3" d="M80.49,300.68c-.82-1.37-1.86-3.28-2.31-4.25s-3.07-3-4-4.33H71.57c-1,1.45-2.26,2.33-2.87,2h-2a23.15,23.15,0,0,1-5.15,5.19V302c0,2.88,1.6,5.22,3.56,5.22h.52A2.64,2.64,0,0,1,68,308h1.67a2.42,2.42,0,0,1,2.37-.4h1.41a2.28,2.28,0,0,1,2.68,0h.81c2,0,3.56-2.33,3.56-5.21Z"/><path class="cls-3" d="M200.49,191.46c-1-1.13-2.24-2.71-2.78-3.5s-3.71-2.49-4.85-3.56h-3.11c-1.18,1.19-2.73,1.92-3.47,1.61h-2.41a25.67,25.67,0,0,1-6.2,4.27v2.29a4.29,4.29,0,0,0,4.29,4.29h.62a4.21,4.21,0,0,1,2.85.65h2a4,4,0,0,1,2.86-.33H192a3.8,3.8,0,0,1,3.23,0h1a4.29,4.29,0,0,0,4.29-4.29Z"/><path class="cls-3" d="M216.7,168.29c-1-1.12-2.24-2.7-2.78-3.5s-3.7-2.48-4.85-3.56H206c-1.17,1.2-2.73,1.92-3.47,1.62h-2.4a26,26,0,0,1-6.21,4.26v2.3a4.29,4.29,0,0,0,4.29,4.29h.62a4.2,4.2,0,0,1,2.85.65h2a4,4,0,0,1,2.86-.33h1.7a3.8,3.8,0,0,1,3.23,0h1a4.29,4.29,0,0,0,4.29-4.29Z"/><path class="cls-4" d="M344.12,385.16c0,4.19-55.54,7.58-124.06,7.58S96,389.35,96,385.16s55.54-7.58,124.07-7.58S344.12,381,344.12,385.16Z"/><rect class="cls-2" x="192.56" y="314.4" width="30.11" height="69.49"/><rect class="cls-2" x="301.43" y="185.84" width="15.06" height="69.49"/><polygon class="cls-5" points="195.23 125.38 185.81 125.38 185.81 110.07 195.23 113.21 195.23 125.38"/><polygon class="cls-5" points="316.48 210.16 301.43 217.11 301.43 202.06 316.48 202.06 316.48 210.16"/><rect class="cls-2" x="157.82" y="185.84" width="15.06" height="69.49"/><rect class="cls-2" x="145.08" y="248.38" width="27.8" height="37.06"/><rect class="cls-2" x="245.84" y="314.4" width="30.11" height="69.49"/><rect class="cls-6" x="179.82" y="136.04" width="111.18" height="194.57"/><polygon class="cls-7" points="264.17 182.83 276.23 134.8 179.53 134.8 179.53 329.52 235.28 329.52 235.28 204.22 259.46 195.59 264.17 182.83"/><rect class="cls-2" x="200.67" y="92.04" width="71.8" height="69.49"/><polygon class="cls-5" points="275.53 96.34 269.75 109.69 208.71 115.53 197.44 143.98 198.6 140.79 197.9 93.04 275.53 96.34"/><polygon class="cls-7" points="182.14 203.22 155.5 203.22 155.5 160.37 182.14 136.04 182.14 203.22"/><polygon class="cls-6" points="323.43 202.13 288.69 203.22 288.69 136.04 323.43 159.28 323.43 202.13"/><polygon class="cls-8" points="288.69 102.46 182.14 102.46 182.14 45.8 198.35 32.97 254.19 32.97 253.5 30 255.86 32.97 262.25 25.57 259.89 32.97 273.63 32.97 288.69 32.97 288.69 102.46"/><rect class="cls-9" x="245.84" y="364.2" width="55.59" height="19.69"/><rect class="cls-9" x="167.08" y="364.2" width="55.59" height="19.69"/><rect class="cls-8" x="207.62" y="138.36" width="60.22" height="13.9"/><rect class="cls-8" x="194.88" y="92.04" width="5.79" height="53.27"/><rect class="cls-8" x="267.84" y="92.04" width="5.79" height="53.27"/><polygon class="cls-5" points="222.68 335.24 192.56 349.14 192.56 330.61 222.68 330.61 222.68 335.24"/><polygon class="cls-5" points="275.95 335.24 245.84 349.14 245.84 330.61 275.95 330.61 275.95 335.24"/><polygon class="cls-5" points="172.95 210.16 158.98 217.11 158.98 203.22 172.95 203.22 172.95 210.16"/><rect class="cls-9" x="148.55" y="75.82" width="15.06" height="315.01" transform="translate(-29.43 22.64) rotate(-7.58)"/><path class="cls-2" d="M161.29,255.62a5.5,5.5,0,1,1-5.5-5.5A5.5,5.5,0,0,1,161.29,255.62Z"/><path class="cls-2" d="M163.61,269.52a5.5,5.5,0,1,1-5.5-5.5A5.5,5.5,0,0,1,163.61,269.52Z"/><path class="cls-2" d="M165.93,282.26a5.51,5.51,0,1,1-5.51-5.5A5.51,5.51,0,0,1,165.93,282.26Z"/><path class="cls-2" d="M301.64,263a5.5,5.5,0,1,1-6.19,4.72A5.5,5.5,0,0,1,301.64,263Z"/><path class="cls-2" d="M310,264.72a5.5,5.5,0,1,1-6.19,4.72A5.51,5.51,0,0,1,310,264.72Z"/><path class="cls-2" d="M318.28,263a5.5,5.5,0,1,1-6.19,4.72A5.51,5.51,0,0,1,318.28,263Z"/><path class="cls-9" d="M156,82.16A20.82,20.82,0,1,1,135.2,61.34,20.82,20.82,0,0,1,156,82.16Z"/><g class="cls-10"><path class="cls-11" d="M135.2,61.34a20.82,20.82,0,1,1-20.81,20.82A20.82,20.82,0,0,1,135.2,61.34m0-16.21a37,37,0,1,0,37,37,37.07,37.07,0,0,0-37-37Z"/></g><path class="cls-12" d="M156,82.16A20.82,20.82,0,1,1,135.2,61.34,20.82,20.82,0,0,1,156,82.16Z"/><g class="cls-13"><path class="cls-14" d="M135.2,61.34a20.82,20.82,0,1,1-20.81,20.82A20.82,20.82,0,0,1,135.2,61.34m0-5.79a26.61,26.61,0,1,0,26.61,26.61A26.64,26.64,0,0,0,135.2,55.55Z"/></g><rect class="cls-2" x="295.64" y="248.38" width="26.64" height="18.53"/><polygon class="cls-5" points="231.63 117.89 206.12 118.89 205.79 110.79 231.3 109.79 231.63 117.89"/><path class="cls-9" d="M225.22,116.06a5.17,5.17,0,1,1-5.16-5.17A5.16,5.16,0,0,1,225.22,116.06Z"/><rect class="cls-5" x="249.28" y="101.54" width="8.11" height="25.48" transform="matrix(0.05, -1, 1, 0.05, 127.69, 362.17)"/><path class="cls-9" d="M260,118.38a5.17,5.17,0,1,1-5.17-5.17A5.17,5.17,0,0,1,260,118.38Z"/><polygon class="cls-8" points="231.99 114.43 206.48 115.44 206.15 107.33 231.66 106.33 231.99 114.43"/><rect class="cls-8" x="251.65" y="99.23" width="8.11" height="25.48" transform="translate(132.25 362.33) rotate(-87.4)"/><polygon class="cls-8" points="278.26 168.35 267.46 195.11 200.67 195.11 191.41 177.74 191.41 125.62 236.57 160.37 278.26 129.1 278.26 168.35"/><rect class="cls-5" x="228.99" y="133.23" width="12.56" height="12.56"/><path class="cls-4" d="M126.63,376.25c0,1.28-16.95,2.32-37.87,2.32s-37.88-1-37.88-2.32,17-2.31,37.88-2.31S126.63,375,126.63,376.25Z"/><path class="cls-4" d="M49.17,377.25c0,.62-8.17,1.12-18.26,1.12s-18.26-.5-18.26-1.12,8.18-1.11,18.26-1.11S49.17,376.64,49.17,377.25Z"/></g></svg>