<svg xmlns="http://www.w3.org/2000/svg" xmlns:xlink="http://www.w3.org/1999/xlink" viewBox="0 0 561.58 474.43"><defs><style>.cls-1,.cls-16{fill:none;}.cls-2,.cls-4,.cls-5{fill:#ffeeb8;}.cls-3{fill:#f9ae56;}.cls-4{font-size:37.74px;}.cls-4,.cls-5{font-family:Arvo-Bold, Arvo;font-weight:700;}.cls-5{font-size:63.02px;}.cls-6{fill:#f47f5b;}.cls-7{fill:#e8d6bc;}.cls-8{fill:#754c24;}.cls-9{fill:#3c3c3b;}.cls-10{fill:#468f99;}.cls-11{fill:#dd992e;}.cls-12{clip-path:url(#clip-path);}.cls-13{fill:#706f6f;}.cls-14{fill:#575756;}.cls-15{fill:#1d1d1b;}.cls-16{stroke:#1d1d1b;stroke-miterlimit:10;stroke-width:5px;}.cls-17{fill:#f7931e;}</style><clipPath id="clip-path"><polygon class="cls-1" points="212.03 441.47 146.24 441.47 123 277.47 144.41 221.47 178 221.47 193.74 250.47 204.55 221.47 215.23 221.47 233 291.47 212.03 441.47"/></clipPath></defs><title>alter_mann</title><g id="Bcakground"><path class="cls-2" d="M534.14,256.53c-2.8,2-9.38-10.65-23.57-21s-24.65-18.22-21.84-20.21,19.23,1.64,33.42,12S537,254.54,534.14,256.53Z"/><path class="cls-2" d="M80.5,248c-.12,2.38-13.86-5.6-30.71-1.41s-29.41,7.21-29.28,4.83,13-10.47,29.85-14.65S80.63,245.58,80.5,248Z"/><path class="cls-2" d="M475.78,429.53c-.6-2.89,13.48-15.85,28.74-37.77s25.93-44.51,26.53-41.61-8.82,31.66-24.08,53.59S476.38,432.43,475.78,429.53Z"/><ellipse class="cls-2" cx="474.41" cy="205.36" rx="2.38" ry="2.48" transform="translate(231.41 661.63) rotate(-85.37)"/></g><g id="Ebene_8" data-name="Ebene 8"><path class="cls-2" d="M69.14,451c-38.52,7.61-53.5-24.87-53.5-24.87s-36-85-6-140.71S73.18,250.06,104.58,265s34.93,54.15,96,44.36S303,255.24,369.66,236.8s83.52-36.45,122.8-6.7,49.34,72,30,117.23-58.93,93.13-100.68,99.4S107.66,443.42,69.14,451Z"/></g><g id="Ebene_16" data-name="Ebene 16"><polygon class="cls-3" points="545.45 92.18 534.29 57.81 366.24 7.66 339.33 164.44 435.26 183.28 345.75 203.61 474.41 185.32 532.36 198.6 545.45 92.18"/><text class="cls-4" transform="matrix(0.99, 0.17, -0.17, 0.99, 374.7, 82.84)">Grüss</text><text class="cls-4" transform="matrix(0.99, 0.17, -0.17, 0.99, 395.37, 124.4)">Gott</text><text class="cls-5" transform="matrix(0.9, 0.44, -0.44, 0.9, 484.51, 136.72)">!</text><polygon class="cls-6" points="366.24 7.66 347.58 154.32 532.01 192.19 532.36 198.6 477.28 186.73 345.75 203.61 443.58 184.47 339.33 164.44 359.68 14.66 366.24 7.66"/><polygon class="cls-3" points="197.78 237.41 176.51 228.65 178 208.3 207.95 168.9 220.69 188.73 207.45 201.26 208.89 210.44 202.26 216.97 197.78 237.41"/><polygon class="cls-3" points="139.82 408.04 117.31 412.8 115.06 374.03 137.57 369.26 139.82 408.04"/><polygon class="cls-3" points="270.53 318.92 260.44 313.98 282.53 282.05 319.9 268.42 270.53 318.92"/><polygon class="cls-7" points="290.59 206.04 231.06 208.3 205.39 191.09 202.26 73.13 271.58 71.28 287.01 81.59 290.59 206.04"/><polygon class="cls-3" points="290.59 206.04 231.06 208.3 205.39 191.09 203.78 130.65 212.93 130.65 231.06 165.3 223.95 169.47 233 201.26 290.59 206.04"/><polygon class="cls-3" points="227.16 99.82 203.42 110.03 202.26 78.97 227.04 86.12 227.16 99.82"/><polygon class="cls-8" points="231.06 162.29 223.37 128.43 223.37 89.86 175.71 89.86 175.71 120.47 189.32 134.43 210.72 134.05 217.81 165.3 231.06 162.29"/><polygon class="cls-8" points="297.19 134.43 288.64 132.61 287.55 90.16 297.19 98.47 297.19 134.43"/><path class="cls-3" d="M264.44,140.28c.29,11.71-4.85,21.35-11.49,21.51s-12.27-9.19-12.56-20.9,4.85-21.35,11.49-21.51S264.14,128.57,264.44,140.28Z"/><ellipse class="cls-3" cx="277.33" cy="139.52" rx="11.35" ry="20.24"/><path class="cls-9" d="M258.4,138.05c0,1.27-2.68,2.31-6,2.31s-6-1-6-2.31,2.68-2.3,6-2.3C258.39,135.75,258.4,128.78,258.4,138.05Z"/><path class="cls-9" d="M286.56,137.93c0,1.27-2.69,2.31-6,2.31s-6-1-6-2.31c0-6.61,2.68-2.3,6-2.3S286.56,136.66,286.56,137.93Z"/><path class="cls-10" d="M297.19,441.47c0,3.68-48.29,6.66-107.87,6.66s-107.87-3-107.87-6.66,48.3-6.67,107.87-6.67S297.19,437.78,297.19,441.47Z"/><polygon class="cls-7" points="212.03 441.47 146.24 441.47 123 277.47 144.41 221.47 178 221.47 197.78 237.41 204.55 221.47 215.23 221.47 233 291.47 212.03 441.47"/><polygon class="cls-11" points="146.24 441.47 128.59 262.83 144.41 221.47 162.36 342.47 162.36 441.47 146.24 441.47"/><g class="cls-12"><path class="cls-13" d="M132.12,456.8h-8.43v-238h8.43Zm19.33-238H143v238h8.43Zm19.33,0h-8.42v238h8.42Zm19.34,0h-8.43v238h8.43Zm19.33,0H201v238h8.43Zm19.33,0h-8.42v238h8.42Z"/></g><polygon class="cls-7" points="126.76 267.62 110.79 338.8 106.45 369.26 137.64 380.8 127.45 292.13 126.76 267.62"/><path class="cls-9" d="M324.33,260.71,316,247.83l-56.58,36.5,8.31,12.89c1.9,2.94,16.1-2.85,31.73-12.93S326.23,263.65,324.33,260.71Z"/><polygon class="cls-7" points="231.06 283.83 242.79 322.87 250.67 306.89 258.4 303.35 292.37 322.87 258.4 364.64 243.45 364.64 223.95 350.97 231.06 283.83"/><path class="cls-14" d="M331.45,229.94c3.89,6-14.15,24.6-40.29,41.46S240.67,297.05,236.78,291s14.14-24.6,40.29-41.46S327.56,223.9,331.45,229.94Z"/><path class="cls-15" d="M306.41,246.09c1.84,2.84-6.66,11.59-19,19.53s-23.78,12.09-25.61,9.25,6.66-11.59,19-19.54S304.58,243.25,306.41,246.09Z"/><rect class="cls-3" x="234.72" y="109.87" width="19.4" height="12.1" transform="translate(-18.42 51.91) rotate(-11.69)"/><polygon class="cls-3" points="284.27 123.81 268.47 122.03 269.78 110.03 285.59 111.81 284.27 123.81"/><rect class="cls-8" x="236.72" y="107.1" width="19.4" height="12.1" transform="translate(-17.81 52.26) rotate(-11.69)"/><polygon class="cls-8" points="284.27 120.04 268.47 118.26 269.78 106.26 285.59 108.04 284.27 120.04"/><path class="cls-3" d="M289.86,156.9h-26.2v8.87l5.39,3.13h20.81s7,.27,7-6S289.86,156.9,289.86,156.9Z"/><path class="cls-7" d="M289.86,156.9h-26.2v6l5.39,2.12h20.81s7,.19,7-4.06S289.86,156.9,289.86,156.9Z"/><path class="cls-16" d="M266.29,136.21c0,10-5,18.07-11.15,18.07S244,146.19,244,136.21s5-18.08,11.15-18.08S266.29,126.22,266.29,136.21Z"/><path class="cls-16" d="M292.83,136.21c0,10-5,18.07-11.15,18.07s-11.15-8.09-11.15-18.07,5-18.08,11.15-18.08S292.83,126.22,292.83,136.21Z"/><path class="cls-16" d="M243.51,137.75h-5.07s-4.78,6.89-11.43,6.71-18.57-10.5-24.75-7.63-7.15,28,5.87,24.67"/><polygon class="cls-3" points="210.14 140.05 184.39 138.28 186.97 163.6 212.93 157.14 210.14 140.05"/><polygon class="cls-17" points="287.55 183.5 247.19 193.97 247.19 183.5 287.55 183.5 287.55 183.5"/><polygon class="cls-11" points="228.78 292.93 240.38 347.47 255.14 347.47 281.68 324.21 284.12 333.02 258.4 364.64 243.45 364.64 223.95 350.97 228.78 292.93"/><polygon class="cls-11" points="244.42 324.23 252.41 336.47 263.67 318.92 252.41 310.47 244.42 324.23"/><polygon class="cls-11" points="126.76 376.78 123.95 352.97 126.76 267.62 106.45 369.26 126.76 376.78"/><rect class="cls-11" x="192.37" y="264.29" width="27.98" height="33.45"/><polygon class="cls-8" points="299.46 183.58 297.18 169.59 250.19 170.47 245.98 181.48 245.95 181.48 245.11 198.5 256.72 194.89 262.17 184.5 289.28 184 293.7 196.6 298.73 197.32 299.46 183.58"/></g></svg>