<svg xmlns="http://www.w3.org/2000/svg" xmlns:xlink="http://www.w3.org/1999/xlink" viewBox="0 0 561.58 474.43">
  <defs>
    <style>
      .cls-1, .cls-16 {
        fill: none;
      }

      .cls-2 {
        fill: #e56a6a;
      }

      .cls-3 {
        fill: #8eced3;
      }

      .cls-4 {
        fill: #fff;
      }

      .cls-5 {
        fill: #468f99;
      }

      .cls-6 {
        fill: #f9ae56;
      }

      .cls-7 {
        fill: #f7931e;
      }

      .cls-8 {
        fill: #e8d6bc;
      }

      .cls-9 {
        fill: #754c24;
      }

      .cls-10 {
        fill: #3c3c3b;
      }

      .cls-11 {
        fill: #dd992e;
      }

      .cls-12 {
        clip-path: url(#clip-path);
      }

      .cls-13 {
        fill: #706f6f;
      }

      .cls-14 {
        fill: #575756;
      }

      .cls-15 {
        fill: #1d1d1b;
      }

      .cls-16 {
        stroke: #1d1d1b;
        stroke-miterlimit: 10;
        stroke-width: 5px;
      }

      .cls-17 {
        fill: #b17f4a;
      }
    </style>
    <clipPath id="clip-path">
      <polygon class="cls-1" points="212.03 441.47 146.24 441.47 123 277.47 144.41 221.47 178 221.47 193.74 250.47 204.55 221.47 215.23 221.47 233 291.47 212.03 441.47"/>
    </clipPath>
  </defs>
  <title>alter_mann</title>
  <g id="Bcakground">
    <path class="cls-2" d="M534.14,256.53c-2.8,2-9.38-10.65-23.57-21s-24.65-18.22-21.84-20.21,19.23,1.64,33.42,12S537,254.54,534.14,256.53Z"/>
    <path class="cls-2" d="M80.5,248c-.12,2.38-13.86-5.6-30.71-1.41s-29.41,7.21-29.28,4.83,13-10.47,29.85-14.65S80.63,245.58,80.5,248Z"/>
    <path class="cls-2" d="M475.78,429.53c-.6-2.89,13.48-15.85,28.74-37.77s25.93-44.51,26.53-41.61-8.82,31.66-24.08,53.59S476.38,432.43,475.78,429.53Z"/>
    <ellipse class="cls-2" cx="474.41" cy="205.36" rx="2.38" ry="2.48" transform="translate(231.41 661.63) rotate(-85.37)"/>
  </g>
  <g id="Ebene_8" data-name="Ebene 8">
    <path class="cls-2" d="M69.14,451c-38.52,7.61-53.5-24.87-53.5-24.87s-36-85-6-140.71S73.18,250.06,104.58,265s34.93,54.15,96,44.36S303,255.24,369.66,236.8s83.52-36.45,122.8-6.7,49.34,72,30,117.23-58.93,93.13-100.68,99.4S107.66,443.42,69.14,451Z"/>
  </g>
  <g id="Ebene_16" data-name="Ebene 16">
    <polygon class="cls-3" points="545.45 92.18 534.29 57.81 366.24 7.66 339.33 164.44 435.26 183.28 345.75 203.61 474.41 185.32 532.36 198.6 545.45 92.18"/>
    <g>
      <path class="cls-4" d="M396.71,86.67l.83-4.72a11.41,11.41,0,0,1-2.71,2.52,8.85,8.85,0,0,1-2.68,1.07,9.46,9.46,0,0,1-3.72-.09,11.76,11.76,0,0,1-2.2-.65,13,13,0,0,1-2.06-1.07,14.94,14.94,0,0,1-1.87-1.43,10.48,10.48,0,0,1-1.58-1.76,15.07,15.07,0,0,1-2.31-5.26,15.42,15.42,0,0,1-.1-6,15.26,15.26,0,0,1,1.13-3.68,15.67,15.67,0,0,1,1.92-3.16,14.2,14.2,0,0,1,2.56-2.52A13.59,13.59,0,0,1,387,58.14a12.9,12.9,0,0,1,7.1-.77,11.3,11.3,0,0,1,3.63,1.22,11.72,11.72,0,0,1,3,2.73l4.07.71-1.07,6.13-5.61-1A7.83,7.83,0,0,0,396.88,65a7.72,7.72,0,0,0-1.43-1.24,6.28,6.28,0,0,0-2.34-.8,6,6,0,0,0-2.95.2,7.21,7.21,0,0,0-2.58,1.46,9.2,9.2,0,0,0-2,2.5,10.38,10.38,0,0,0-1.17,6.39,8,8,0,0,0,1,2.94,7.08,7.08,0,0,0,2,2.23,6.57,6.57,0,0,0,2.72,1.13,5.4,5.4,0,0,0,3.55-.54,6.32,6.32,0,0,0,2.6-2.71l-5.24-.91.87-5,12.74,2.22-2.56,14.69Z"/>
      <path class="cls-4" d="M425,79.28l-5.1-.89.34-1.94a7.87,7.87,0,0,0-1.38-.14,3.42,3.42,0,0,0-1.14.15,2.27,2.27,0,0,0-.89.51,2.59,2.59,0,0,0-.63,1L415,84.74l3.83.67-.87,5-12.27-2.14.86-5,2.82.49,1.54-8.86-2.78-.49.87-5,8.37,1.46-.23,1.32a6,6,0,0,1,2-.66,6.45,6.45,0,0,1,2.23,0l2.47.45,2.36.43Z"/>
      <path class="cls-4" d="M441,75l8.9,1.55-2.41,13.84,2.27.39-.87,5-8-1.39.28-1.6a6.76,6.76,0,0,1-2.49,1,8.78,8.78,0,0,1-3.06,0,9,9,0,0,1-2.85-1,6.66,6.66,0,0,1-2.15-1.9A6.9,6.9,0,0,1,429.43,88a9.48,9.48,0,0,1,0-3.6l1.06-6.1-2.45-.43.87-5,8.31,1.45-1.93,11.07a3.84,3.84,0,0,0,.47,3,3.51,3.51,0,0,0,2.34,1.37,3.21,3.21,0,0,0,2.1-.33,3.72,3.72,0,0,0,1.6-1.59l1.29-7.37-3-.52ZM434,68.06a3.16,3.16,0,0,1,.46-1.22,3.29,3.29,0,0,1,.86-.92,3.23,3.23,0,0,1,2.47-.55,2.89,2.89,0,0,1,1.19.47,3.24,3.24,0,0,1,.9.87,3.45,3.45,0,0,1,.51,1.16,3.16,3.16,0,0,1,0,1.3,3,3,0,0,1-.47,1.22,3.26,3.26,0,0,1-2,1.42,3.06,3.06,0,0,1-1.28,0,3.17,3.17,0,0,1-1.23-.48,3.25,3.25,0,0,1-.9-.87,3.1,3.1,0,0,1-.51-1.14A3.34,3.34,0,0,1,434,68.06Zm8.69,1.51a3.25,3.25,0,0,1,.48-1.22,3.28,3.28,0,0,1,.87-.91,3.12,3.12,0,0,1,1.14-.52,3.3,3.3,0,0,1,1.33,0,3,3,0,0,1,1.19.47,3.07,3.07,0,0,1,.89.87,3.37,3.37,0,0,1,.55,2.46,3.18,3.18,0,0,1-.48,1.22,3.15,3.15,0,0,1-.87.91,3.31,3.31,0,0,1-1.13.51,3.24,3.24,0,0,1-1.28,0,3.28,3.28,0,0,1-1.24-.48,3.39,3.39,0,0,1-.9-.87,3.27,3.27,0,0,1-.51-1.14A3.21,3.21,0,0,1,442.73,69.57Z"/>
      <path class="cls-4" d="M465.75,84.39a2.38,2.38,0,0,0-.71-.84,5,5,0,0,0-1.25-.71,7.89,7.89,0,0,0-1.75-.5,6.88,6.88,0,0,0-.83-.08,3.36,3.36,0,0,0-.85.09,1.72,1.72,0,0,0-.69.34,1,1,0,0,0-.37.67,1.25,1.25,0,0,0,0,.43.85.85,0,0,0,.18.42,1.64,1.64,0,0,0,.44.43,3.13,3.13,0,0,0,.78.39l3.3,1.26a15.47,15.47,0,0,1,2.94,1.45,7.21,7.21,0,0,1,1.8,1.62,4.51,4.51,0,0,1,.81,1.81,5.49,5.49,0,0,1,0,2,5.36,5.36,0,0,1-1.24,2.7A6.55,6.55,0,0,1,466,97.53a9.53,9.53,0,0,1-3,.74,12.54,12.54,0,0,1-5-.58,8.3,8.3,0,0,1-1.43-.61,6.06,6.06,0,0,1-1.09-.72,6.59,6.59,0,0,1-.84-.83L451.36,95l.88-5,5.14.9,0,.11a1.53,1.53,0,0,0,.17,1,2.62,2.62,0,0,0,.69.81,4.5,4.5,0,0,0,1.06.6,6.11,6.11,0,0,0,1.32.37,5.08,5.08,0,0,0,2.46,0,1.28,1.28,0,0,0,.93-1,1.25,1.25,0,0,0-.2-1,2.81,2.81,0,0,0-1.19-.82l-3.36-1.35a10.47,10.47,0,0,1-4.58-3,4.89,4.89,0,0,1-1-4.09,5,5,0,0,1,1.07-2.37,6,6,0,0,1,2-1.6,8.51,8.51,0,0,1,2.77-.78,10.84,10.84,0,0,1,3.2.11,12.34,12.34,0,0,1,2,.49,10.69,10.69,0,0,1,1.54.63,6.51,6.51,0,0,1,1.15.73,6.59,6.59,0,0,1,.85.8l3.16.54-.88,5-4.69-.81A1.48,1.48,0,0,0,465.75,84.39Z"/>
      <path class="cls-4" d="M485.75,87.88a2.35,2.35,0,0,0-.7-.84,5.08,5.08,0,0,0-1.25-.72,8,8,0,0,0-1.76-.49,5.19,5.19,0,0,0-.83-.08,2.89,2.89,0,0,0-.84.09,1.68,1.68,0,0,0-.7.33,1.07,1.07,0,0,0-.37.68,1.55,1.55,0,0,0,0,.43,1,1,0,0,0,.18.42,2,2,0,0,0,.44.42,3.53,3.53,0,0,0,.78.39l3.3,1.27a15.9,15.9,0,0,1,2.95,1.45,7,7,0,0,1,1.79,1.62,4.41,4.41,0,0,1,.82,1.81,5.49,5.49,0,0,1,0,2,5.37,5.37,0,0,1-1.25,2.7A6.67,6.67,0,0,1,486,101a9.25,9.25,0,0,1-3,.73,12,12,0,0,1-3.17-.13,11.53,11.53,0,0,1-1.82-.45,9.62,9.62,0,0,1-1.43-.6,6.44,6.44,0,0,1-1.09-.72,7.33,7.33,0,0,1-.84-.83l-3.28-.57.88-5,5.14.89,0,.11a1.56,1.56,0,0,0,.16,1,2.75,2.75,0,0,0,.7.8,4.33,4.33,0,0,0,1.06.61,7.51,7.51,0,0,0,1.32.37,5,5,0,0,0,2.45,0,1.27,1.27,0,0,0,.94-1,1.28,1.28,0,0,0-.21-1,2.68,2.68,0,0,0-1.18-.81l-3.36-1.35a10.54,10.54,0,0,1-4.59-3,5,5,0,0,1-1-4.09,5,5,0,0,1,1.07-2.37A6.18,6.18,0,0,1,476.78,82a8.52,8.52,0,0,1,2.76-.78,11.25,11.25,0,0,1,3.21.11,14.11,14.11,0,0,1,2,.49,12.69,12.69,0,0,1,1.53.63,6.63,6.63,0,0,1,1.16.74,7.14,7.14,0,0,1,.84.79l3.16.55-.88,5-4.68-.82A1.46,1.46,0,0,0,485.75,87.88Z"/>
    </g>
    <g>
      <path class="cls-4" d="M417.38,128.24l.82-4.72a11.21,11.21,0,0,1-2.7,2.52,9.23,9.23,0,0,1-2.68,1.07,9.86,9.86,0,0,1-3.72-.09,10.89,10.89,0,0,1-2.2-.66,11.83,11.83,0,0,1-2.06-1.07,13.93,13.93,0,0,1-1.88-1.43,10,10,0,0,1-1.57-1.76,14.74,14.74,0,0,1-2.31-5.25A15.56,15.56,0,0,1,402,104a13.93,13.93,0,0,1,2.57-2.52,13.41,13.41,0,0,1,3.07-1.76,13.28,13.28,0,0,1,3.44-.88,12.56,12.56,0,0,1,3.66.12,10.92,10.92,0,0,1,3.62,1.22,11.18,11.18,0,0,1,3,2.72l4.07.71-1.07,6.14-5.61-1a7.68,7.68,0,0,0-1.24-2.14,7,7,0,0,0-1.43-1.24,6.11,6.11,0,0,0-2.34-.8,6,6,0,0,0-2.95.19,7.52,7.52,0,0,0-2.59,1.47,8.84,8.84,0,0,0-2,2.5,10.2,10.2,0,0,0-1.12,3.16,10,10,0,0,0,0,3.23,7.94,7.94,0,0,0,1,2.93,6.83,6.83,0,0,0,2,2.23,6.49,6.49,0,0,0,2.72,1.13,5.3,5.3,0,0,0,3.56-.54,6.29,6.29,0,0,0,2.6-2.7l-5.24-.92.86-5,12.75,2.22-2.56,14.68Z"/>
      <path class="cls-4" d="M428,120.33a10,10,0,0,1,1.42-3.72,9.75,9.75,0,0,1,6.15-4.35,10.18,10.18,0,0,1,4.16-.08,10.4,10.4,0,0,1,3.91,1.48,10.06,10.06,0,0,1,2.79,2.68,9.89,9.89,0,0,1,1.52,3.5,10.23,10.23,0,0,1,.06,4,10.54,10.54,0,0,1-1.39,3.73,9.59,9.59,0,0,1-6.11,4.39,11.45,11.45,0,0,1-8.21-1.43,9.75,9.75,0,0,1-2.78-2.68,9.65,9.65,0,0,1-1.47-3.5A10.53,10.53,0,0,1,428,120.33Zm5.43,1a5.52,5.52,0,0,0,0,2,4.9,4.9,0,0,0,.72,1.72,4.55,4.55,0,0,0,1.28,1.27,4.38,4.38,0,0,0,1.7.68,4.59,4.59,0,0,0,1.85,0,4.19,4.19,0,0,0,1.61-.76,4.84,4.84,0,0,0,1.23-1.38,5.74,5.74,0,0,0,.69-1.93,5.87,5.87,0,0,0,0-2.09,4.66,4.66,0,0,0-.69-1.71,4.08,4.08,0,0,0-1.26-1.22,5.2,5.2,0,0,0-3.56-.62,4.22,4.22,0,0,0-1.62.72,4.63,4.63,0,0,0-1.26,1.37A5.44,5.44,0,0,0,433.46,121.28Z"/>
      <path class="cls-4" d="M459.51,116.2l3.75.65-.83,4.76-3.79-.66-1.42,7.94a5,5,0,0,0-.09,1.14,1.9,1.9,0,0,0,.2.74,1.13,1.13,0,0,0,.44.43,2.56,2.56,0,0,0,.66.21,4.91,4.91,0,0,0,1.24.07c.36,0,.73-.07,1.11-.13l.16,3.64a8.22,8.22,0,0,1-2.22.56,9.4,9.4,0,0,1-2.75-.12,6.08,6.08,0,0,1-2.05-.75,5,5,0,0,1-1.57-1.46,5.7,5.7,0,0,1-.88-2.15,7.07,7.07,0,0,1,0-2.78L453,120l-2.7-.47.83-4.76,2.72.48.82-4.5,6.11-1.7Z"/>
      <path class="cls-4" d="M474,118.73l3.76.65-.83,4.76-3.8-.66-1.42,8a4.31,4.31,0,0,0-.08,1.13,1.91,1.91,0,0,0,.19.74,1.13,1.13,0,0,0,.44.43,2.7,2.7,0,0,0,.66.21,4.91,4.91,0,0,0,1.24.07c.37,0,.74-.07,1.11-.13l.17,3.64a8.41,8.41,0,0,1-2.22.56,9.45,9.45,0,0,1-2.76-.12,6.08,6.08,0,0,1-2.05-.75,5,5,0,0,1-1.57-1.46,5.7,5.7,0,0,1-.88-2.15,7.47,7.47,0,0,1,0-2.78l1.51-8.32-2.71-.47.83-4.76,2.72.48.82-4.5,6.12-1.7Z"/>
    </g>
    <path class="cls-4" d="M490.26,134.63a5.32,5.32,0,0,1,1.31-1.74,5.54,5.54,0,0,1,1.8-1.08,5.64,5.64,0,0,1,2.09-.3,5.36,5.36,0,0,1,2.13.56,5.14,5.14,0,0,1,1.71,1.31,5.59,5.59,0,0,1,1.05,1.83,5.81,5.81,0,0,1,.28,2.09,5.33,5.33,0,0,1-.55,2.11,5.48,5.48,0,0,1-7.29,2.54,5.38,5.38,0,0,1-1.76-1.34A5.46,5.46,0,0,1,490,138.8a5.32,5.32,0,0,1-.27-2.07A5.47,5.47,0,0,1,490.26,134.63ZM509.54,95l10.21,5-15.5,29-7.94-3.87Z"/>
    <polygon class="cls-5" points="366.24 7.66 347.58 154.32 532.01 192.19 532.36 198.6 477.28 186.73 345.75 203.61 443.58 184.47 339.33 164.44 359.68 14.66 366.24 7.66"/>
    <polygon class="cls-6" points="197.78 237.41 176.51 228.65 194.81 203.16 207.95 168.9 222.57 197.32 214.71 205.36 212.93 212.32 203.38 221.47 197.78 237.41"/>
    <polygon class="cls-7" points="139.82 408.04 117.31 412.8 115.06 374.03 137.57 369.26 139.82 408.04"/>
    <polygon class="cls-6" points="270.53 318.92 260.44 313.98 282.53 282.05 319.9 268.42 270.53 318.92"/>
    <polygon class="cls-8" points="290.59 206.04 231.06 208.3 205.39 191.09 202.26 73.13 271.58 71.28 287.01 81.59 290.59 206.04"/>
    <polygon class="cls-6" points="290.59 206.04 231.06 208.3 205.39 191.09 203.78 130.65 212.93 130.65 231.06 165.3 223.95 169.47 233 201.26 290.59 206.04"/>
    <polygon class="cls-6" points="227.16 99.82 203.42 110.03 202.26 78.97 227.04 86.12 227.16 99.82"/>
    <polygon class="cls-9" points="231.06 162.29 223.37 128.43 223.37 89.86 175.71 89.86 175.71 120.47 189.32 134.43 210.72 134.05 217.81 165.3 231.06 162.29"/>
    <polygon class="cls-9" points="297.19 134.43 288.64 132.61 287.55 90.16 297.19 98.47 297.19 134.43"/>
    <path class="cls-6" d="M264.44,140.28c.29,11.71-4.85,21.35-11.49,21.51s-12.27-9.19-12.56-20.9,4.85-21.35,11.49-21.51S264.14,128.57,264.44,140.28Z"/>
    <ellipse class="cls-6" cx="277.33" cy="139.52" rx="11.35" ry="20.24"/>
    <path class="cls-10" d="M258.4,138.05c0,1.27-2.68,2.31-6,2.31s-6-1-6-2.31,2.68-2.3,6-2.3C258.39,135.75,258.4,128.78,258.4,138.05Z"/>
    <path class="cls-10" d="M286.56,137.93c0,1.27-2.69,2.31-6,2.31s-6-1-6-2.31c0-6.61,2.68-2.3,6-2.3S286.56,136.66,286.56,137.93Z"/>
    <path class="cls-5" d="M297.19,441.47c0,3.68-48.29,6.66-107.87,6.66s-107.87-3-107.87-6.66,48.3-6.67,107.87-6.67S297.19,437.78,297.19,441.47Z"/>
    <polygon class="cls-8" points="212.03 441.47 146.24 441.47 123 277.47 144.41 221.47 178 221.47 197.78 237.41 204.55 221.47 215.23 221.47 233 291.47 212.03 441.47"/>
    <polygon class="cls-11" points="146.24 441.47 128.59 262.83 144.41 221.47 162.36 342.47 162.36 441.47 146.24 441.47"/>
    <g class="cls-12">
      <path class="cls-13" d="M132.12,456.8h-8.43v-238h8.43Zm19.33-238H143v238h8.43Zm19.33,0h-8.42v238h8.42Zm19.34,0h-8.43v238h8.43Zm19.33,0H201v238h8.43Zm19.33,0h-8.42v238h8.42Z"/>
    </g>
    <polygon class="cls-8" points="126.76 267.62 110.79 338.8 106.45 369.26 137.64 380.8 127.45 292.13 126.76 267.62"/>
    <path class="cls-10" d="M324.33,260.71,316,247.83l-56.58,36.5,8.31,12.89c1.9,2.94,16.1-2.85,31.73-12.93S326.23,263.65,324.33,260.71Z"/>
    <polygon class="cls-8" points="231.06 283.83 242.79 322.87 250.67 306.89 258.4 303.35 292.37 322.87 258.4 364.64 243.45 364.64 223.95 350.97 231.06 283.83"/>
    <path class="cls-14" d="M331.45,229.94c3.89,6-14.15,24.6-40.29,41.46S240.67,297.05,236.78,291s14.14-24.6,40.29-41.46S327.56,223.9,331.45,229.94Z"/>
    <path class="cls-15" d="M306.41,246.09c1.84,2.84-6.66,11.59-19,19.53s-23.78,12.09-25.61,9.25,6.66-11.59,19-19.54S304.58,243.25,306.41,246.09Z"/>
    <rect class="cls-6" x="234.72" y="109.87" width="19.4" height="12.1" transform="translate(-18.42 51.91) rotate(-11.69)"/>
    <polygon class="cls-6" points="284.27 123.81 268.47 122.03 269.78 110.03 285.59 111.81 284.27 123.81"/>
    <rect class="cls-9" x="236.72" y="107.1" width="19.4" height="12.1" transform="translate(-17.81 52.26) rotate(-11.69)"/>
    <polygon class="cls-9" points="284.27 120.04 268.47 118.26 269.78 106.26 285.59 108.04 284.27 120.04"/>
    <path class="cls-7" d="M289.86,156.9h-26.2v8.87l5.39,3.13h20.81s7,.27,7-6S289.86,156.9,289.86,156.9Z"/>
    <path class="cls-8" d="M289.86,156.9,266,157v6l3.07,2h20.81s7,.19,7-4.06S289.86,156.9,289.86,156.9Z"/>
    <path class="cls-16" d="M266.29,136.21c0,10-5,18.07-11.15,18.07S244,146.19,244,136.21s5-18.08,11.15-18.08S266.29,126.22,266.29,136.21Z"/>
    <path class="cls-16" d="M292.83,136.21c0,10-5,18.07-11.15,18.07s-11.15-8.09-11.15-18.07,5-18.08,11.15-18.08S292.83,126.22,292.83,136.21Z"/>
    <path class="cls-16" d="M243.51,137.75h-5.07s-4.78,6.89-11.43,6.71-18.57-10.5-24.75-7.63-7.15,28,5.87,24.67"/>
    <polygon class="cls-6" points="210.14 140.05 184.39 138.28 186.97 163.6 212.93 157.14 210.14 140.05"/>
    <polygon class="cls-7" points="287.55 183.5 247.19 193.97 247.19 183.5 287.55 183.5 287.55 183.5"/>
    <polygon class="cls-11" points="228.78 292.93 240.38 347.47 255.14 347.47 281.68 324.21 284.12 333.02 258.4 364.64 243.45 364.64 223.95 350.97 228.78 292.93"/>
    <polygon class="cls-11" points="244.42 324.23 252.41 336.47 263.67 318.92 252.41 310.47 244.42 324.23"/>
    <polygon class="cls-11" points="126.76 376.78 123.95 352.97 126.76 267.62 106.45 369.26 126.76 376.78"/>
    <rect class="cls-11" x="192.37" y="264.29" width="27.98" height="33.45"/>
    <polygon class="cls-9" points="299.46 183.58 297.18 169.59 250.19 170.47 245.98 181.48 245.95 181.48 245.11 198.5 256.72 194.89 262.17 184.5 289.28 184 293.7 196.6 298.73 197.32 299.46 183.58"/>
    <polygon class="cls-6" points="127.44 383.32 130.14 407.44 137.64 407.3 136.24 385.33 127.44 383.32"/>
    <polygon class="cls-8" points="277.03 302.32 274.58 307.32 277.33 307.32 284.12 300.32 277.03 302.32"/>
    <polygon class="cls-17" points="210.15 93.5 214.71 128.32 218.58 135.21 223.95 137.28 220.69 129.65 220.69 91.66 178 90.33 178 92.33 210.15 93.5"/>
    <polygon class="cls-17" points="227.16 149.07 222.57 149.07 226.24 161.8 229.91 161.8 227.16 149.07"/>
    <polygon class="cls-17" points="289.58 96.33 290.59 116.92 295.41 127.58 295.41 98.99 288.68 93.66 289.58 96.33"/>
    <polygon class="cls-17" points="237.91 110.03 237.91 111.09 255.14 108.99 254.08 106.99 237.91 110.03"/>
    <polygon class="cls-17" points="271.24 106.99 271.24 109.04 284.12 110.62 284.12 109.04 271.24 106.99"/>
    <polygon class="cls-17" points="254.14 171.52 249.55 183.02 248.74 193.97 250.83 191.19 251 193.74 252.41 193.6 254.23 190 254.41 193.4 255.14 193.32 260.44 180.66 283.34 179.65 284.99 178.89 286.56 179.5 288.02 177.24 288.68 179.41 290.59 179.32 294.24 187.82 295.41 193.16 297.91 193.97 297.91 183.31 296.08 170.82 284.12 170.82 278.1 173.11 269.43 175.34 263.67 171.77 254.14 171.52"/>
    <polygon class="cls-8" points="186.24 140.36 188.49 154.28 192.41 154.28 192.41 142.57 203.38 142.07 202.66 140.59 187.58 139.52 186.24 140.36"/>
    <polygon class="cls-9" points="292.83 186.51 292.37 174.76 293.89 182.4 293.53 187.98 292.83 186.51"/>
  </g>
</svg>
