<svg xmlns="http://www.w3.org/2000/svg" xmlns:xlink="http://www.w3.org/1999/xlink" viewBox="0 0 355.77 480"><defs><style>.cls-1,.cls-12{fill:none;}.cls-2{fill:#f9ae56;}.cls-3{fill:#e8d6bc;}.cls-4{fill:#754c24;}.cls-5{fill:#3c3c3b;}.cls-6{fill:#468f99;}.cls-7{fill:#dd992e;}.cls-8{clip-path:url(#clip-path);}.cls-9{fill:#706f6f;}.cls-10{fill:#575756;}.cls-11{fill:#1d1d1b;}.cls-12{stroke:#1d1d1b;stroke-miterlimit:10;stroke-width:5px;}.cls-13{font-size:21.94px;letter-spacing:0.1em;}.cls-13,.cls-14{fill:#c24a4a;font-family:Dosis-ExtraBold, Dosis;font-weight:700;}.cls-14{font-size:60.77px;letter-spacing:0.1em;}</style><clipPath id="clip-path"><polygon class="cls-1" points="213.37 464 147.58 464 124.34 300 145.75 244 179.34 244 195.09 273 205.89 244 216.57 244 234.34 314 213.37 464"/></clipPath></defs><title>alter_mann</title><g id="Layer_2" data-name="Layer 2"><polygon class="cls-2" points="199.12 259.95 177.85 251.19 179.34 230.83 209.29 191.43 222.03 211.27 208.79 223.8 210.23 232.97 203.6 239.5 199.12 259.95"/><polygon class="cls-2" points="141.16 430.58 118.66 435.34 116.4 396.56 138.91 391.8 141.16 430.58"/><polygon class="cls-2" points="271.88 341.45 261.78 336.51 283.87 304.58 321.24 290.96 271.88 341.45"/><polygon class="cls-3" points="291.94 228.57 232.4 230.83 206.73 213.62 203.6 95.66 222.03 87.34 271.88 87.34 288.35 104.12 291.94 228.57"/><polygon class="cls-2" points="291.94 228.57 232.4 230.83 206.73 213.62 205.13 153.18 214.28 153.18 232.4 187.83 225.29 192.01 234.34 223.8 291.94 228.57"/><polygon class="cls-2" points="241.88 122.37 229.68 127.14 225.69 155.28 205.79 132.56 203.6 101.5 203.6 95.66 220.95 101.61 241.65 108.67 241.88 122.37"/><polygon class="cls-4" points="232.4 184.82 224.72 150.97 224.72 112.39 177.05 112.39 177.05 143 190.67 156.97 212.06 156.59 219.15 187.83 232.4 184.82"/><polygon class="cls-4" points="298.54 156.97 289.99 155.14 288.89 112.69 298.54 121 298.54 156.97"/><path class="cls-2" d="M265.78,162.81c.3,11.72-4.85,21.35-11.49,21.52s-12.26-9.2-12.56-20.91,4.85-21.34,11.49-21.51S265.48,151.1,265.78,162.81Z"/><ellipse class="cls-2" cx="278.67" cy="162.05" rx="11.35" ry="20.24"/><path class="cls-5" d="M259.74,160.58c0,1.28-2.68,2.31-6,2.31s-6-1-6-2.31,2.68-2.3,6-2.3S259.74,159.31,259.74,160.58Z"/><path class="cls-5" d="M284.9,162.46c0,1.28-2.68,2.31-6,2.31s-6-1-6-2.31,2.69-2.3,6-2.3S284.9,161.19,284.9,162.46Z"/><path class="cls-6" d="M298.54,464c0,3.68-48.3,6.67-107.87,6.67s-107.88-3-107.88-6.67,48.3-6.67,107.88-6.67S298.54,460.32,298.54,464Z"/><polygon class="cls-3" points="213.37 464 147.58 464 124.34 300 145.75 244 179.34 244 199.12 259.95 205.89 244 216.57 244 234.34 314 213.37 464"/><polygon class="cls-7" points="147.58 464 129.94 285.36 145.75 244 163.7 365 163.7 464 147.58 464"/><g class="cls-8"><path class="cls-9" d="M133.46,479.33H125v-238h8.43Zm19.33-238h-8.42v238h8.42Zm19.34,0H163.7v238h8.43Zm19.33,0H183v238h8.43Zm19.33,0h-8.43v238h8.43Zm19.34,0H221.7v238h8.43Z"/></g><polygon class="cls-3" points="128.1 290.15 112.13 361.33 107.8 391.8 138.98 403.33 128.79 314.67 128.1 290.15"/><path class="cls-5" d="M325.67,283.25l-8.31-12.89-56.58,36.51,8.32,12.88c1.89,2.94,16.1-2.85,31.72-12.93S327.57,286.18,325.67,283.25Z"/><polygon class="cls-3" points="232.4 306.36 244.13 345.41 252.01 329.42 259.74 325.89 293.71 345.41 259.74 387.17 244.79 387.17 225.29 373.5 232.4 306.36"/><path class="cls-10" d="M332.79,252.47c3.89,6-14.14,24.6-40.29,41.47S242,319.59,238.12,313.55s14.15-24.59,40.29-41.46S328.9,246.44,332.79,252.47Z"/><path class="cls-11" d="M307.75,268.63c1.84,2.84-6.66,11.58-19,19.53S265,300.24,263.16,297.4s6.66-11.59,19-19.53S305.92,265.78,307.75,268.63Z"/><rect class="cls-2" x="236.06" y="132.41" width="19.4" height="12.1" transform="translate(-22.95 52.65) rotate(-11.69)"/><polygon class="cls-2" points="285.61 146.34 269.81 144.56 271.12 132.56 286.93 134.34 285.61 146.34"/><rect class="cls-4" x="238.06" y="129.64" width="19.4" height="12.1" transform="translate(-22.35 53) rotate(-11.69)"/><polygon class="cls-4" points="285.61 142.57 269.81 140.79 271.12 128.79 286.93 130.57 285.61 142.57"/><path class="cls-2" d="M291.2,179.43H265v8.87l5.38,3.13H291.2s7,.27,7-6S291.2,179.43,291.2,179.43Z"/><path class="cls-3" d="M291.2,179.43H265v6l5.38,2.12H291.2s7,.18,7-4.07S291.2,179.43,291.2,179.43Z"/><path class="cls-12" d="M267.63,158.74c0,10-5,18.07-11.15,18.07s-11.15-8.09-11.15-18.07,5-18.07,11.15-18.07S267.63,148.76,267.63,158.74Z"/><path class="cls-12" d="M294.17,158.74c0,10-5,18.07-11.15,18.07s-11.14-8.09-11.14-18.07,5-18.07,11.14-18.07S294.17,148.76,294.17,158.74Z"/><path class="cls-12" d="M244.85,160.28h-5.07S235,167.17,228.35,167s-18.57-10.5-24.75-7.63-7.14,28,5.87,24.67"/><polygon class="cls-2" points="211.48 162.58 185.73 160.81 188.31 186.13 214.28 179.68 211.48 162.58"/><polygon class="cls-2" points="287.89 203.03 288.89 214.67 282.91 214.62 278.37 208.33 248.53 216.5 248.53 206.03 285.89 203.03 287.89 203.03"/><polygon class="cls-7" points="230.13 315.46 241.72 370 256.48 370 283.02 346.74 285.46 355.56 259.74 387.17 244.79 387.17 225.29 373.5 230.13 315.46"/><polygon class="cls-7" points="245.76 346.77 253.75 359 265.01 341.45 253.75 333 245.76 346.77"/><polygon class="cls-7" points="128.1 399.31 125.3 375.5 128.1 290.15 107.8 391.8 128.1 399.31"/><rect class="cls-7" x="193.72" y="286.82" width="27.98" height="33.45"/><polygon class="cls-4" points="292.66 205.12 290.38 191.13 243.39 192.01 239.19 203.01 239.16 203.01 238.32 220.03 249.93 216.43 255.38 206.03 282.49 205.53 286.91 218.14 291.93 218.85 292.66 205.12"/><polygon class="cls-2" points="135.12 102.22 120.56 89.33 24.76 111.05 59.32 192 108.93 174.53 165.04 185.33 128.32 165.77 158.12 155.12 135.12 102.22"/><text class="cls-13" transform="matrix(0.97, -0.26, 0.26, 0.97, 48.43, 137.23)">Grüss</text><text class="cls-13" transform="matrix(0.97, -0.26, 0.26, 0.97, 65.6, 164.77)">Gott</text><text class="cls-14" transform="matrix(0.95, -0.3, 0.3, 0.95, 119.02, 146.1)">!</text><polygon class="cls-3" points="128.78 413.57 128.1 429.33 138.98 426 138.98 413.57 128.78 413.57"/></g></svg>