<svg xmlns="http://www.w3.org/2000/svg" viewBox="0 0 1031.29 470.32"><defs><style>.cls-1{fill:#ffeeb8;}.cls-2{fill:#d45c28;}.cls-3{fill:#575756;}.cls-4{fill:#c24a4a;}.cls-5{fill:#878787;}.cls-6{fill:#dd992e;}.cls-7{fill:#3c3c3b;}.cls-8{fill:#e56a6a;}</style></defs><title>grab_schluessel_komposition</title><g id="Layer_2" data-name="Layer 2"><polygon class="cls-1" points="317 289.33 317 177.51 365.5 143.83 411.82 153.3 448.75 186.82 503.2 177.51 499.35 112.34 570.59 91.34 595.4 113.84 609.63 153.3 663.34 153.3 655.68 188.02 676.42 230.83 733.76 247.57 726 289.33 750.9 308.84 787.5 301.67 799.81 318.13 793.24 333 737.5 333 678.35 334.47 605.73 319.23 547.01 328.77 499.35 330.11 438.88 318.13 354.66 330.11 299.46 325.75 291.7 299.93 317 289.33"/><polygon class="cls-2" points="547.01 388.42 826.5 433.52 879.5 377 689.11 362.82 559.11 379.32 547.01 388.42"/><polygon class="cls-3" points="536.78 388.42 536.15 308.84 539.16 299.93 535.98 286.67 540.5 275.6 535.45 220.37 555.61 164.83 581.36 153.3 631 186.82 647.36 229.33 689.11 362.82 588.5 394.68 536.78 388.42"/><polygon class="cls-4" points="689.11 362.82 696.66 412.57 588.5 394.68 689.11 362.82"/><polygon class="cls-5" points="588.5 394.68 566.01 203.83 581.36 153.3 631 186.82 648.5 232.98 689.11 362.82 588.5 394.68"/><polygon class="cls-2" points="615.95 451.32 701.55 428.39 679.54 423.5 716.14 414.42 733.76 417.28 697.59 423.5 724.26 427.6 615.95 451.32"/><polygon class="cls-2" points="792.2 470.31 788.13 436.68 766.13 431.8 802.73 422.71 820.35 425.57 784.17 431.8 798.76 434.04 792.2 470.31"/><path class="cls-2" d="M883.07,417l-11,1.42L866.36,421l-.32,6.71s7.44-.36,9.07-.57C877.76,418.59,883.07,417,883.07,417Z"/><polygon class="cls-2" points="885.77 416.63 877.67 426.93 911.16 424.81 920.49 416.7 917.29 412.57 885.77 416.63"/><path class="cls-2" d="M933.56,384.74l-8.4.33-4.53,1.56-.69,5.05s5.66.23,6.91.18C929.43,385.61,933.56,384.74,933.56,384.74Z"/><polygon class="cls-2" points="935.64 384.65 928.8 391.91 954.32 392.55 961.94 387.04 959.79 383.69 935.64 384.65"/><path class="cls-2" d="M965.79,406,953,408.33l-6.08,3.27,2,5.56c6.39-1.5,6.09-1.48,8-1.57C960.28,407.23,965.79,406,965.79,406Z"/><polygon class="cls-2" points="969.24 405.32 960.19 415.05 1001.86 408.53 1005 402.06 1001.56 399.31 969.24 405.32"/><path class="cls-2" d="M874.59,389.51H863.53l-6,1.81-1.18,6.61s7.42.6,9.08.59C869.12,390.44,874.59,389.51,874.59,389.51Z"/><polygon class="cls-2" points="877.32 389.51 867.97 398.69 901.45 400.87 911.74 394.02 909.1 389.51 877.32 389.51"/><path class="cls-2" d="M982.86,357.33c0,1.43-5.08,2.59-11.34,2.59s-11.33-1.16-11.33-2.59,5.08-2.58,11.33-2.58S982.86,355.9,982.86,357.33Z"/><path class="cls-2" d="M1020.15,385.05c0,4-1.68,7.24-3.75,7.24s-3.75-3.24-3.75-7.24,1.68-7.25,3.75-7.25S1020.15,381.05,1020.15,385.05Z"/><path class="cls-2" d="M1008.2,372.15c-.23,1-6.1.63-13.11-.9s-12.52-3.62-12.29-4.66,6.1-.63,13.11.9S1008.42,371.11,1008.2,372.15Z"/><path class="cls-2" d="M994.31,382.18c.76,1.53-1.21,4-4.39,5.61s-6.37,1.58-7.12,0,1.21-4,4.39-5.61S993.56,380.64,994.31,382.18Z"/><path class="cls-2" d="M969.16,345.49c0,.72-6.83,1.49-15.29,1.73s-15.34-.15-15.37-.87,6.83-1.48,15.3-1.72S969.14,344.78,969.16,345.49Z"/><path class="cls-2" d="M936.88,340c0,.71-6.83,1.48-15.3,1.72s-15.34-.15-15.36-.87,6.83-1.48,15.29-1.72S936.86,339.25,936.88,340Z"/><path class="cls-2" d="M857.51,327.28a8.07,8.07,0,0,1-2.63.3,8.17,8.17,0,0,1-2.65-.15,8.07,8.07,0,0,1,2.63-.3A8.17,8.17,0,0,1,857.51,327.28Z"/><path class="cls-2" d="M823.83,327.12a15.55,15.55,0,0,1-5.27.15,7.65,7.65,0,0,1,2.63-.3A8.05,8.05,0,0,1,823.83,327.12Z"/><path class="cls-2" d="M809.14,327.11a8.18,8.18,0,0,1-2.63.29,7.9,7.9,0,0,1-2.64-.14,7.65,7.65,0,0,1,2.63-.3A8.05,8.05,0,0,1,809.14,327.11Z"/><path class="cls-2" d="M799.81,327.1a8.24,8.24,0,0,1-2.63.29,7.86,7.86,0,0,1-2.65-.15,8.27,8.27,0,0,1,2.64-.29A7.82,7.82,0,0,1,799.81,327.1Z"/><path class="cls-2" d="M832.46,330.29a7.65,7.65,0,0,1-2.63.3,8.09,8.09,0,0,1-2.64-.15,15.55,15.55,0,0,1,5.27-.15Z"/><path class="cls-2" d="M839.81,327.08a7.76,7.76,0,0,1-2.63.3,8.17,8.17,0,0,1-2.65-.15,8.27,8.27,0,0,1,2.64-.29A8,8,0,0,1,839.81,327.08Z"/><path class="cls-2" d="M847.13,330.3a15.55,15.55,0,0,1-5.27.15,8.12,8.12,0,0,1,2.63-.29A8.27,8.27,0,0,1,847.13,330.3Z"/><path class="cls-2" d="M885,334.32c0,.26-2.47.54-5.53.63s-5.53-.06-5.54-.32,2.48-.55,5.53-.63S885,334.06,885,334.32Z"/><path class="cls-2" d="M904.61,333.35c0,.26-2.47.54-5.53.63s-5.53-.06-5.54-.32,2.47-.55,5.53-.63S904.61,333.09,904.61,333.35Z"/><path class="cls-2" d="M873.5,330.45c0,.26-2.47.54-5.52.63s-5.54-.06-5.54-.32,2.47-.54,5.52-.63S873.5,330.19,873.5,330.45Z"/><polygon class="cls-2" points="836.64 422.71 850.59 423.5 848.8 438.55 865.46 439.44 844.49 442.35 845.89 427.66 832.46 424.67 836.64 422.71"/><polygon class="cls-2" points="774 372.73 774 366.02 787.5 366.02 778.5 372.73 774 372.73"/><path class="cls-2" d="M809.14,369.37s-5.72,4.29-2.64,3.36,17.33-3.36,17.33-3.36"/><polygon class="cls-2" points="837.17 371.12 837.17 377.5 852.23 374.31 854.87 369.37 837.17 371.12"/><polygon class="cls-2" points="728 362.82 737.5 362.82 737.5 359.92 726 359.92 728 362.82"/><polygon class="cls-2" points="612.28 407.18 624.5 411.02 618.39 412.57 603.5 412.57 612.28 407.18"/><path class="cls-3" d="M610.79,249.69A28.45,28.45,0,0,1,611.9,258a17.49,17.49,0,0,1-1.61,7.1,15.47,15.47,0,0,1-4.46,5.55,20.8,20.8,0,0,1-7.5,3.6,40.36,40.36,0,0,1-4.11.91,36.8,36.8,0,0,1-4.36.43l-1.32-7.29a2.28,2.28,0,0,1,.32-1.72,2.91,2.91,0,0,1,1.7-1.09,8.21,8.21,0,0,1,1.57-.22,10.29,10.29,0,0,0,2.21-.4,8.94,8.94,0,0,0,2.95-1.34,5,5,0,0,0,1.74-2.22,8.28,8.28,0,0,0,.47-3.34,20.73,20.73,0,0,0-.82-4.66l-9.32-33.77,12,3.93Z"/><path class="cls-3" d="M634.6,258.26a.47.47,0,0,1,.35.08,1.54,1.54,0,0,1,.41.45l2.73,4.26a15.37,15.37,0,0,1-1.74,6.29,5.57,5.57,0,0,1-3.75,2.78,5.44,5.44,0,0,1-4.32-1,15.39,15.39,0,0,1-4-4.51,39,39,0,0,1-3.46-7.36,69.2,69.2,0,0,1-2.65-9.6,60.86,60.86,0,0,1-1.29-10,36.28,36.28,0,0,1,.47-8.15,15,15,0,0,1,2.14-5.71,5.85,5.85,0,0,1,3.71-2.65,4.68,4.68,0,0,1,2.14,0,7,7,0,0,1,2.07,1,10.6,10.6,0,0,1,1.94,1.68,16.67,16.67,0,0,1,1.78,2.32l-.48,5.33a4.9,4.9,0,0,1-.17.91.62.62,0,0,1-.47.49.61.61,0,0,1-.51-.17,6.94,6.94,0,0,1-.58-.55l-.69-.71a5.1,5.1,0,0,0-.84-.68,3.66,3.66,0,0,0-1-.45,2.75,2.75,0,0,0-1.28,0,3.12,3.12,0,0,0-2,1.52,9.12,9.12,0,0,0-1.09,3.41,24.6,24.6,0,0,0-.13,5,46.48,46.48,0,0,0,.9,6.42,48.59,48.59,0,0,0,1.75,6.44,25.22,25.22,0,0,0,2.09,4.58,9,9,0,0,0,2.23,2.64,2.73,2.73,0,0,0,2.2.6,3.93,3.93,0,0,0,1.08-.37,2.75,2.75,0,0,0,.83-.7,4.82,4.82,0,0,0,.62-1.11,9.46,9.46,0,0,0,.49-1.59,2.68,2.68,0,0,1,.23-.61A.55.55,0,0,1,634.6,258.26Z"/><polygon class="cls-3" points="614 272.22 614 275.6 619 275.6 614 272.22"/><polygon class="cls-3" points="638.8 272.22 641 275.6 646.5 275.6 638.8 272.22"/><path class="cls-3" d="M613.53,318.31a31.58,31.58,0,0,0-.62-3.59,5,5,0,0,1-.43-1.54,14.59,14.59,0,0,0-.52-1.39,4.35,4.35,0,0,1-.69-1.29,4.33,4.33,0,0,0-1.21-1.29,2.6,2.6,0,0,0-.82-.37,4.07,4.07,0,0,1-2.6,1.14,5.6,5.6,0,0,0-.7,1.57,13.65,13.65,0,0,0-.44,3.21,29.28,29.28,0,0,0,.23,4.47,29.73,29.73,0,0,0,.82,4.4,13,13,0,0,0,1.18,3,4.81,4.81,0,0,0,1.44,1.7,2.45,2.45,0,0,0,1.62.42,2.26,2.26,0,0,0,.84-.28,4.11,4.11,0,0,1,1.47-1.88c.07-.19.14-.4.2-.61a13.76,13.76,0,0,0,.45-3.21A29,29,0,0,0,613.53,318.31ZM611.35,324a2.46,2.46,0,0,1-.4,1.08.87.87,0,0,1-.55.35.86.86,0,0,1-.61-.21,2.36,2.36,0,0,1-.63-1,12.33,12.33,0,0,1-.59-2A33.08,33.08,0,0,1,608,319c-.16-1.35-.24-2.46-.26-3.33a11.71,11.71,0,0,1,.12-2.07,2.25,2.25,0,0,1,.38-1.07.87.87,0,0,1,.55-.35.9.9,0,0,1,.62.21,2.49,2.49,0,0,1,.63,1,11.76,11.76,0,0,1,.61,2,31.35,31.35,0,0,1,.52,3.3,30.43,30.43,0,0,1,.26,3.34A11.71,11.71,0,0,1,611.35,324Z"/><path class="cls-3" d="M624.39,319.5l-.29-2.5-3.9.46.4,3.35,1.53-.18A4,4,0,0,1,624.39,319.5Z"/><path class="cls-3" d="M639,319.19q-.39-3.29-2.27-4.2a2.63,2.63,0,0,0,.59-.69,3,3,0,0,0,.39-.93,5.69,5.69,0,0,0,.16-1.26,12.41,12.41,0,0,0-.09-1.64,8.21,8.21,0,0,0-.45-1.91,5.76,5.76,0,0,0-.82-1.54,3.78,3.78,0,0,0-.87-.79c-.13,0-.24,0-.37,0a4.51,4.51,0,0,1-1.82-.36,3,3,0,0,0-.75.35,4.13,4.13,0,0,1-1.19,1.53,6.9,6.9,0,0,0-.49,1.64,12.39,12.39,0,0,0-.14,2.6l1.22.25.18,0h.16a.53.53,0,0,0,.44-.32,2.44,2.44,0,0,0,.19-.91,3.82,3.82,0,0,1,.12-.69,2,2,0,0,1,.22-.57,1.49,1.49,0,0,1,.33-.41.9.9,0,0,1,.45-.18,1,1,0,0,1,1,.51,4.19,4.19,0,0,1,.51,1.74,6.33,6.33,0,0,1,0,1,2,2,0,0,1-.2.84,1.5,1.5,0,0,1-.56.59,2.61,2.61,0,0,1-1,.31l.34,2.87a3,3,0,0,1,1.24,0,1.32,1.32,0,0,1,.72.48,2.19,2.19,0,0,1,.37.83c.07.33.12.71.17,1.13a4.4,4.4,0,0,1,0,1,3.28,3.28,0,0,1-.17.87,2,2,0,0,1-.4.66,1,1,0,0,1-.62.31,1.05,1.05,0,0,1-.92-.4,5.88,5.88,0,0,1-.88-1.53,1,1,0,0,0-.33-.46.6.6,0,0,0-.44-.12.73.73,0,0,0-.24.07.94.94,0,0,0-.24.18l-.91.87a17,17,0,0,0,.88,2.29,6.47,6.47,0,0,0,.87,1.37,4.12,4.12,0,0,1,2.75,1.09,2.71,2.71,0,0,0,1.24-.52,3.55,3.55,0,0,0,1-1.28,6.35,6.35,0,0,0,.58-2A10.92,10.92,0,0,0,639,319.19Z"/><path class="cls-3" d="M648.44,314.63c0-.15,0-.29-.05-.44a28.4,28.4,0,0,0-.82-4.41,13.68,13.68,0,0,0-1.18-3c-.16-.27-.32-.5-.48-.72a3.93,3.93,0,0,1-2.46-1.38h-.15a2.4,2.4,0,0,0-1.47.78,4.84,4.84,0,0,0-1,2,13.64,13.64,0,0,0-.44,3.2,29.35,29.35,0,0,0,.23,4.48,28.48,28.48,0,0,0,.82,4.4,13,13,0,0,0,1.18,3,4.81,4.81,0,0,0,1.44,1.7l.16.08a5,5,0,0,1,1.12-.13,4.73,4.73,0,0,1,1.22.17,3.05,3.05,0,0,0,.61-.49,4.84,4.84,0,0,0,1-2,13.76,13.76,0,0,0,.45-3.21,24.5,24.5,0,0,0-.06-2.66A5.26,5.26,0,0,1,648.44,314.63Zm-2.22,5.24a2.46,2.46,0,0,1-.4,1.08.89.89,0,0,1-.55.35.86.86,0,0,1-.61-.21,2.26,2.26,0,0,1-.63-1,11.39,11.39,0,0,1-.59-2,41.4,41.4,0,0,1-.79-6.64,13,13,0,0,1,.11-2.07,2.35,2.35,0,0,1,.39-1.07.87.87,0,0,1,.55-.35.9.9,0,0,1,.62.21,2.49,2.49,0,0,1,.63.95,11.76,11.76,0,0,1,.61,2c.19.85.36,1.95.52,3.3a33.15,33.15,0,0,1,.26,3.34A11.71,11.71,0,0,1,646.22,319.87Z"/><polygon class="cls-5" points="573.16 341.76 573.16 350.67 582.75 345.92 585.83 340.39 579.5 344.56 573.16 341.76"/><polygon class="cls-1" points="580.6 155.79 632.25 190.13 631 186.82 581.36 153.3 580.6 155.79"/><polygon class="cls-6" points="516.97 387.92 511.61 359.92 527.7 387.92 535.45 373.92 535.45 386.19 547.01 382.32 541.1 392.07 519.65 392.07 516.97 387.92"/><polygon class="cls-6" points="566.01 394.49 561.89 374.04 573.16 390.37 575.96 374.04 579.99 387.05 592.72 382.1 588.49 396.05 566.01 394.49"/><polygon class="cls-6" points="686.58 354.75 694.62 345.53 690.6 354.75 700.65 354.75 693.62 361.37 689.11 362.82 686.58 354.75"/><polygon class="cls-6" points="595.4 399.31 600.2 385.01 603.5 400.87 614 396.05 605.49 403.66 595.4 399.31"/><polygon class="cls-6" points="644.5 376 648.64 362.82 653.06 369.41 657.75 357.33 662.93 371.12 663.94 366.02 668.43 369.37 644.5 376"/><polygon class="cls-3" points="609.41 213.5 606.66 211.28 615.95 193.72 619.6 198.79 609.41 213.5"/><polygon class="cls-6" points="674.86 366.67 674.86 361.37 679.69 364.02 681.27 350.67 683.89 366.02 674.86 366.67"/><path class="cls-2" d="M622.63,195.32c1.32,4.22.39,8.26-2.07,9s-5.52-2-6.84-6.25-.39-8.26,2.07-9S621.32,191.1,622.63,195.32Z"/><polygon class="cls-6" points="619 386.3 615.95 377.5 622.3 381.04 622.3 369.37 627.56 382.69 619 386.3"/><path class="cls-4" d="M613.69,198l0,.12a11.47,11.47,0,0,0,2.93,4.93l3-4.24L616,193.72Z"/><path class="cls-7" d="M620.63,196c.72,2.32.21,4.54-1.14,5s-3-1.12-3.76-3.43-.21-4.54,1.14-5S619.9,193.63,620.63,196Z"/><path class="cls-4" d="M688.67,189.14l-6.06-3.69L687,179.9l-2.52-14.31-7.39-1L669.62,166,653,187.2l-36,6.52c-.52,2.23.37,6.45,1.89,6.18l35.44-6.25L677.18,209l7.82-1.38,6.17-4.3Zm-5.76,13.42-4.54.8-20.49-13.75,14.69-18.73,4.69-.82,2.66.34,1.41,8-6.72,8.42,9.19,5.6,1.49,8.44Z"/><path class="cls-8" d="M617.3,196.67l33-6-.31-1.77-32.88,5.79A4.89,4.89,0,0,1,617.3,196.67Z"/><polygon class="cls-8" points="655.68 188.02 671.43 168.08 669.99 167.01 655.25 185.66 655.68 188.02"/><rect class="cls-8" x="671.69" y="166.3" width="4.69" height="0.91" transform="translate(-18.71 119.52) rotate(-9.99)"/><rect class="cls-8" x="678.39" y="204.36" width="4.24" height="0.81" transform="translate(-25.21 121.25) rotate(-10)"/><polygon class="cls-3" points="600.2 265.1 595.4 261 600.2 261 600.2 265.1"/><polygon class="cls-3" points="650.33 251.33 644.5 249.33 648.64 254.77 650.33 257 650.33 251.33"/><polygon class="cls-3" points="671.65 352 671.43 345.53 674.04 352 671.65 352"/><polygon class="cls-3" points="630.81 348.77 632.25 354.18 633.74 352 630.81 348.77"/><polygon class="cls-3" points="597.8 376 605.49 389.3 606.66 388.93 597.8 376"/><polygon class="cls-3" points="577.3 312 580.6 301.67 578.95 315.83 577.3 312"/><polygon class="cls-3" points="570.83 268 575.16 268 573 272.22 570.83 268"/><polygon class="cls-3" points="566.01 188.95 575.16 196.67 567.5 193.72 566.01 188.95"/><polygon class="cls-3" points="658.83 318.13 626.83 314.75 624.95 313 626.66 311.37 658.68 314.86 660.71 315.83 658.83 318.13"/><polygon class="cls-1" points="711.4 177.51 714.99 213.5 750.9 233.83 751.32 219.55 751.32 200.98 726 171.71 711.4 177.51"/><polygon class="cls-1" points="780.75 257 766.13 273.99 773.44 284.83 794.53 284.83 803.87 293.83 821.2 293.83 814.71 275.6 814.71 247.57 787.5 239.56 780.75 257"/><polygon class="cls-1" points="245.02 303.5 230.4 320.49 237.71 331.33 258.81 331.33 268.14 340.33 285.47 340.33 278.98 322.1 278.98 294.08 251.77 286.06 245.02 303.5"/><polygon class="cls-1" points="170.77 285.35 156.15 294.84 163.46 300.9 184.56 300.9 193.89 305.93 211.22 305.93 204.74 295.74 204.74 280.08 177.52 275.6 170.77 285.35"/><polygon class="cls-1" points="79.42 303.33 64.8 312.82 72.1 318.88 93.2 318.88 102.53 323.91 119.86 323.91 113.38 313.73 113.38 298.06 86.17 293.58 79.42 303.33"/><polygon class="cls-1" points="633.74 70.5 620.2 110.84 653.98 118.34 674.04 131.93 696.88 131.93 689.89 91.34 696.88 59.74 665.2 59.74 633.74 70.5"/><polygon class="cls-1" points="453.11 101.84 476.7 124.33 488.95 101.84 471.31 59.74 465.48 82.34 445.08 70.5 453.11 101.84"/><polygon class="cls-1" points="844.49 314.5 848.96 284.83 866.04 299.67 883.07 299.93 889.85 315.83 885.03 325.75 857.51 327.28 844.49 314.5"/><polygon class="cls-1" points="100.51 352.18 87.19 339.56 99.39 338.45 104.41 331.99 114.18 335.23 117.68 340.72 110.54 351.87 100.51 352.18"/></g></svg>