<svg xmlns="http://www.w3.org/2000/svg" viewBox="0 0 1031.29 470.32"><defs><style>.cls-1{fill:#ffeeb8;}</style></defs><title>grab_schluessel_hintergrund</title><g id="Layer_2" data-name="Layer 2"><polygon class="cls-1" points="317 289.33 317 177.51 365.5 143.83 411.82 153.3 448.75 186.82 503.2 177.51 499.35 112.34 570.59 91.34 595.4 113.84 609.63 153.3 663.34 153.3 655.68 188.02 676.42 230.83 733.76 247.57 726 289.33 750.9 308.84 787.5 301.67 799.81 318.13 793.24 333 737.5 333 678.35 334.47 605.73 319.23 547.01 328.77 499.35 330.11 438.88 318.13 354.66 330.11 299.46 325.75 291.7 299.93 317 289.33"/><polygon class="cls-1" points="711.4 177.51 714.99 213.5 750.9 233.83 751.32 219.55 751.32 200.98 726 171.71 711.4 177.51"/><polygon class="cls-1" points="780.75 257 766.13 273.99 773.44 284.83 794.53 284.83 803.87 293.83 821.2 293.83 814.71 275.6 814.71 247.57 787.5 239.56 780.75 257"/><polygon class="cls-1" points="245.02 303.5 230.4 320.49 237.71 331.33 258.81 331.33 268.14 340.33 285.47 340.33 278.98 322.1 278.98 294.08 251.77 286.06 245.02 303.5"/><polygon class="cls-1" points="170.77 285.35 156.15 294.84 163.46 300.9 184.56 300.9 193.89 305.93 211.22 305.93 204.74 295.74 204.74 280.08 177.52 275.6 170.77 285.35"/><polygon class="cls-1" points="79.42 303.33 64.8 312.82 72.1 318.88 93.2 318.88 102.53 323.91 119.86 323.91 113.38 313.73 113.38 298.06 86.17 293.58 79.42 303.33"/><polygon class="cls-1" points="633.74 70.5 620.2 110.84 653.98 118.34 674.04 131.93 696.88 131.93 689.89 91.34 696.88 59.74 665.2 59.74 633.74 70.5"/><polygon class="cls-1" points="453.11 101.84 476.7 124.33 488.95 101.84 471.31 59.74 465.48 82.34 445.08 70.5 453.11 101.84"/><polygon class="cls-1" points="844.49 314.5 848.96 284.83 866.04 299.67 883.07 299.93 889.85 315.83 885.03 325.75 857.51 327.28 844.49 314.5"/><polygon class="cls-1" points="100.51 352.18 87.19 339.56 99.39 338.45 104.41 331.99 114.18 335.23 117.68 340.72 110.54 351.87 100.51 352.18"/></g></svg>