<svg xmlns="http://www.w3.org/2000/svg" viewBox="0 0 529.29 342.39"><defs><style>.cls-1{fill:#d45c28;}.cls-2{fill:#575756;}.cls-3{fill:#c24a4a;}.cls-4{fill:#878787;}.cls-5{fill:#ffeeb8;}.cls-6{fill:#dd992e;}.cls-7{fill:#3c3c3b;}.cls-8{fill:#e56a6a;}</style></defs><title>grab_schluessel</title><g id="Layer_2" data-name="Layer 2"><polygon class="cls-1" points="45.01 260.49 324.5 305.59 377.5 249.07 187.11 234.9 57.11 251.39 45.01 260.49"/><polygon class="cls-2" points="34.78 260.49 34.15 180.91 37.16 172 33.98 158.74 38.5 147.67 33.45 92.44 53.61 36.91 79.36 25.37 129 58.89 145.36 101.4 187.11 234.9 86.5 266.75 34.78 260.49"/><polygon class="cls-3" points="187.11 234.9 194.66 284.64 86.5 266.75 187.11 234.9"/><polygon class="cls-4" points="86.5 266.75 64.01 75.9 79.36 25.37 129 58.89 146.5 105.05 187.11 234.9 86.5 266.75"/><polygon class="cls-1" points="113.95 323.39 199.55 300.46 177.54 295.58 214.14 286.49 231.76 289.35 195.59 295.58 222.26 299.67 113.95 323.39"/><polygon class="cls-1" points="290.2 342.39 286.13 308.75 264.13 303.87 300.73 294.78 318.35 297.64 282.17 303.87 296.76 306.11 290.2 342.39"/><path class="cls-1" d="M381.07,289.05l-11,1.41L364.36,293l-.32,6.71s7.44-.36,9.07-.57C375.76,290.66,381.07,289.05,381.07,289.05Z"/><polygon class="cls-1" points="383.77 288.7 375.67 299 409.17 296.88 418.49 288.77 415.29 284.64 383.77 288.7"/><path class="cls-1" d="M431.56,256.81l-8.4.33-4.53,1.56-.69,5.06s5.66.22,6.91.17C427.43,257.68,431.56,256.81,431.56,256.81Z"/><polygon class="cls-1" points="433.64 256.73 426.8 263.98 452.32 264.62 459.94 259.11 457.79 255.76 433.64 256.73"/><path class="cls-1" d="M463.79,278.11,451,280.41l-6.08,3.26,2,5.56c6.39-1.5,6.09-1.48,8-1.57C458.28,279.31,463.79,278.11,463.79,278.11Z"/><polygon class="cls-1" points="467.24 277.39 458.19 287.12 499.86 280.6 503 274.13 499.56 271.38 467.24 277.39"/><path class="cls-1" d="M372.59,261.58H361.53l-6,1.81L354.33,270s7.42.6,9.08.6C367.12,262.51,372.59,261.58,372.59,261.58Z"/><polygon class="cls-1" points="375.31 261.58 365.96 270.76 399.45 272.94 409.74 266.09 407.1 261.58 375.31 261.58"/><path class="cls-1" d="M480.86,229.4c0,1.43-5.08,2.59-11.34,2.59s-11.33-1.16-11.33-2.59,5.08-2.58,11.33-2.58S480.86,228,480.86,229.4Z"/><path class="cls-1" d="M518.15,257.12c0,4-1.68,7.24-3.75,7.24s-3.75-3.24-3.75-7.24,1.68-7.24,3.75-7.24S518.15,253.12,518.15,257.12Z"/><path class="cls-1" d="M506.2,244.22c-.23,1-6.1.63-13.11-.9s-12.52-3.62-12.29-4.65,6.1-.64,13.11.9S506.42,243.18,506.2,244.22Z"/><path class="cls-1" d="M492.31,254.25c.76,1.53-1.21,4-4.39,5.61s-6.37,1.58-7.12.05,1.21-4.05,4.39-5.61S491.56,252.71,492.31,254.25Z"/><path class="cls-1" d="M467.16,217.56c0,.72-6.83,1.49-15.29,1.73s-15.34-.15-15.37-.87,6.83-1.48,15.3-1.72S467.14,216.85,467.16,217.56Z"/><path class="cls-1" d="M434.88,212c0,.71-6.83,1.48-15.3,1.72s-15.34-.15-15.36-.86,6.83-1.49,15.29-1.73S434.86,211.32,434.88,212Z"/><path class="cls-1" d="M355.51,199.35a8.07,8.07,0,0,1-2.63.3,8.17,8.17,0,0,1-2.65-.15,8.07,8.07,0,0,1,2.63-.3A8.17,8.17,0,0,1,355.51,199.35Z"/><path class="cls-1" d="M321.83,199.19a15.55,15.55,0,0,1-5.27.15,8,8,0,0,1,2.63-.3A8.05,8.05,0,0,1,321.83,199.19Z"/><path class="cls-1" d="M307.14,199.18a8.34,8.34,0,0,1-2.63.3,8.05,8.05,0,0,1-2.64-.15,7.65,7.65,0,0,1,2.63-.3A8.05,8.05,0,0,1,307.14,199.18Z"/><path class="cls-1" d="M297.81,199.17a8.24,8.24,0,0,1-2.63.29,7.86,7.86,0,0,1-2.65-.15,8.27,8.27,0,0,1,2.64-.29A7.82,7.82,0,0,1,297.81,199.17Z"/><path class="cls-1" d="M330.46,202.36a7.65,7.65,0,0,1-2.63.3,8.09,8.09,0,0,1-2.64-.15,8.34,8.34,0,0,1,2.63-.3A8.05,8.05,0,0,1,330.46,202.36Z"/><path class="cls-1" d="M337.81,199.16a8.24,8.24,0,0,1-2.63.29,7.86,7.86,0,0,1-2.65-.15,8.27,8.27,0,0,1,2.64-.29A7.82,7.82,0,0,1,337.81,199.16Z"/><path class="cls-1" d="M345.13,202.38a8.18,8.18,0,0,1-2.63.29,7.74,7.74,0,0,1-2.64-.15,8.12,8.12,0,0,1,2.63-.29A7.78,7.78,0,0,1,345.13,202.38Z"/><path class="cls-1" d="M383,206.39c0,.26-2.47.54-5.53.63S372,207,372,206.7s2.48-.54,5.53-.63S383,206.13,383,206.39Z"/><path class="cls-1" d="M402.61,205.42c0,.26-2.47.54-5.53.63s-5.53-.06-5.54-.32,2.47-.55,5.53-.63S402.61,205.16,402.61,205.42Z"/><path class="cls-1" d="M371.5,202.52c0,.26-2.47.55-5.52.63s-5.54-.06-5.54-.32,2.47-.54,5.52-.63S371.5,202.26,371.5,202.52Z"/><polygon class="cls-1" points="334.64 294.78 348.59 295.58 346.8 310.62 363.46 311.51 342.49 314.42 343.89 299.73 330.46 296.74 334.64 294.78"/><polygon class="cls-1" points="272 244.8 272 238.09 285.5 238.09 276.5 244.8 272 244.8"/><path class="cls-1" d="M307.14,241.44s-5.72,4.29-2.64,3.36,17.33-3.36,17.33-3.36"/><polygon class="cls-1" points="335.17 243.19 335.17 249.57 350.23 246.38 352.87 241.44 335.17 243.19"/><polygon class="cls-1" points="226 234.9 235.5 234.9 235.5 231.99 224 231.99 226 234.9"/><polygon class="cls-1" points="110.28 279.25 122.5 283.09 116.39 284.64 101.5 284.64 110.28 279.25"/><path class="cls-2" d="M108.79,121.76a28.45,28.45,0,0,1,1.11,8.32,17.45,17.45,0,0,1-1.61,7.1,15.47,15.47,0,0,1-4.46,5.55,20.8,20.8,0,0,1-7.5,3.6,37.84,37.84,0,0,1-4.11.91,36.8,36.8,0,0,1-4.36.43l-1.32-7.29a2.28,2.28,0,0,1,.32-1.72,2.91,2.91,0,0,1,1.7-1.09,8.21,8.21,0,0,1,1.57-.22,9.71,9.71,0,0,0,2.21-.4,8.94,8.94,0,0,0,3-1.34A5,5,0,0,0,97,133.39a8.28,8.28,0,0,0,.47-3.34,20.83,20.83,0,0,0-.82-4.66L87.36,91.62l12,3.93Z"/><path class="cls-2" d="M132.6,130.33a.52.52,0,0,1,.35.08,1.54,1.54,0,0,1,.41.45l2.73,4.26a15.37,15.37,0,0,1-1.74,6.29,5.57,5.57,0,0,1-3.75,2.78,5.44,5.44,0,0,1-4.32-1,15.39,15.39,0,0,1-4-4.51,39,39,0,0,1-3.46-7.36,69.2,69.2,0,0,1-2.65-9.6,60.86,60.86,0,0,1-1.29-10,36.28,36.28,0,0,1,.47-8.15,15,15,0,0,1,2.14-5.71,5.85,5.85,0,0,1,3.71-2.65,4.68,4.68,0,0,1,2.14,0,7,7,0,0,1,2.07,1,10.6,10.6,0,0,1,1.94,1.68,17.28,17.28,0,0,1,1.78,2.32l-.48,5.33a4.9,4.9,0,0,1-.17.91.62.62,0,0,1-.47.49.61.61,0,0,1-.51-.17c-.17-.14-.37-.33-.58-.54l-.69-.72a5.1,5.1,0,0,0-.84-.68,3.66,3.66,0,0,0-1-.45,2.75,2.75,0,0,0-1.28,0,3.1,3.1,0,0,0-2,1.53,9.07,9.07,0,0,0-1.09,3.4,24.65,24.65,0,0,0-.13,5,46.48,46.48,0,0,0,.9,6.42,48.59,48.59,0,0,0,1.75,6.44,25.22,25.22,0,0,0,2.09,4.58,9,9,0,0,0,2.23,2.64,2.77,2.77,0,0,0,2.2.61,4.3,4.3,0,0,0,1.08-.38,2.75,2.75,0,0,0,.83-.7,4.82,4.82,0,0,0,.62-1.11,9.46,9.46,0,0,0,.49-1.59,2.68,2.68,0,0,1,.23-.61A.55.55,0,0,1,132.6,130.33Z"/><polygon class="cls-2" points="112 144.29 112 147.67 117 147.67 112 144.29"/><polygon class="cls-2" points="136.8 144.29 139 147.67 144.5 147.67 136.8 144.29"/><path class="cls-2" d="M111.53,190.38a31.58,31.58,0,0,0-.62-3.59,5.06,5.06,0,0,1-.43-1.53,13.86,13.86,0,0,0-.52-1.4,4.23,4.23,0,0,1-.69-1.29,4.33,4.33,0,0,0-1.21-1.29,2.37,2.37,0,0,0-.82-.36,4.12,4.12,0,0,1-2.6,1.13,5.6,5.6,0,0,0-.7,1.57,13.65,13.65,0,0,0-.44,3.21,33.72,33.72,0,0,0,1,8.87,13.3,13.3,0,0,0,1.18,3,4.86,4.86,0,0,0,1.44,1.69,2.45,2.45,0,0,0,1.62.42,2.26,2.26,0,0,0,.84-.28,4.11,4.11,0,0,1,1.47-1.88c.07-.19.14-.4.2-.61a13.76,13.76,0,0,0,.45-3.21A29.09,29.09,0,0,0,111.53,190.38Zm-2.18,5.69a2.56,2.56,0,0,1-.4,1.08.75.75,0,0,1-1.16.13,2.36,2.36,0,0,1-.63-1,12,12,0,0,1-.59-2A33.3,33.3,0,0,1,106,191c-.16-1.35-.24-2.47-.26-3.34a11.71,11.71,0,0,1,.12-2.07,2.25,2.25,0,0,1,.38-1.07.87.87,0,0,1,.55-.35.9.9,0,0,1,.62.21,2.49,2.49,0,0,1,.63,1,11.76,11.76,0,0,1,.61,2,31.35,31.35,0,0,1,.52,3.3,30.43,30.43,0,0,1,.26,3.34A11.9,11.9,0,0,1,109.35,196.07Z"/><path class="cls-2" d="M122.39,191.57l-.29-2.5-3.9.46.4,3.36,1.53-.19A4,4,0,0,1,122.39,191.57Z"/><path class="cls-2" d="M137,191.26q-.39-3.28-2.27-4.2a2.63,2.63,0,0,0,.59-.69,3,3,0,0,0,.39-.93,5.69,5.69,0,0,0,.16-1.26,12.5,12.5,0,0,0-.09-1.64,8.33,8.33,0,0,0-.45-1.91,5.91,5.91,0,0,0-.82-1.54,3.78,3.78,0,0,0-.87-.79c-.13,0-.24,0-.37,0a4.51,4.51,0,0,1-1.82-.37,3,3,0,0,0-.75.36,4.17,4.17,0,0,1-1.19,1.52,6.9,6.9,0,0,0-.49,1.64,12.39,12.39,0,0,0-.14,2.6l1.22.25.18,0h.16a.56.56,0,0,0,.44-.33,2.43,2.43,0,0,0,.19-.9,3.78,3.78,0,0,1,.12-.7,2,2,0,0,1,.22-.57,1.31,1.31,0,0,1,.33-.4.83.83,0,0,1,.45-.19,1,1,0,0,1,1,.51,4.23,4.23,0,0,1,.51,1.74,6.38,6.38,0,0,1,.05,1,2,2,0,0,1-.2.84,1.5,1.5,0,0,1-.56.59,2.61,2.61,0,0,1-1,.31l.34,2.87a3,3,0,0,1,1.24.05,1.32,1.32,0,0,1,.72.48,2.19,2.19,0,0,1,.37.83c.07.33.12.71.17,1.13a4.4,4.4,0,0,1,0,1,3.28,3.28,0,0,1-.17.87,2,2,0,0,1-.4.66,1,1,0,0,1-.62.31,1.05,1.05,0,0,1-.92-.4,5.88,5.88,0,0,1-.88-1.53,1,1,0,0,0-.33-.46A.6.6,0,0,0,131,192a1.09,1.09,0,0,0-.24.07.94.94,0,0,0-.24.18l-.91.87a17,17,0,0,0,.88,2.29,6.47,6.47,0,0,0,.87,1.37,4.17,4.17,0,0,1,2.75,1.09,2.71,2.71,0,0,0,1.24-.52,3.47,3.47,0,0,0,1-1.28,6.36,6.36,0,0,0,.58-2A11,11,0,0,0,137,191.26Z"/><path class="cls-2" d="M146.44,186.7c0-.15,0-.29-.05-.44a28.4,28.4,0,0,0-.82-4.41,13.68,13.68,0,0,0-1.18-3c-.16-.27-.32-.5-.48-.72a3.93,3.93,0,0,1-2.46-1.38h-.15a2.4,2.4,0,0,0-1.47.78,4.84,4.84,0,0,0-1,2,13.65,13.65,0,0,0-.44,3.21,29.28,29.28,0,0,0,.23,4.47,28.48,28.48,0,0,0,.82,4.4,13.3,13.3,0,0,0,1.18,3,4.86,4.86,0,0,0,1.44,1.69l.16.08a5,5,0,0,1,1.12-.13,4.73,4.73,0,0,1,1.22.17,3.05,3.05,0,0,0,.61-.49,4.84,4.84,0,0,0,1-2,13.76,13.76,0,0,0,.45-3.21,24.27,24.27,0,0,0-.06-2.65A5.37,5.37,0,0,1,146.44,186.7Zm-2.22,5.24a2.46,2.46,0,0,1-.4,1.08.75.75,0,0,1-1.16.14,2.26,2.26,0,0,1-.63-1,11.39,11.39,0,0,1-.59-2,33.08,33.08,0,0,1-.53-3.31,32.56,32.56,0,0,1-.26-3.33,13,13,0,0,1,.11-2.07,2.35,2.35,0,0,1,.39-1.07.87.87,0,0,1,.55-.35.9.9,0,0,1,.62.21,2.49,2.49,0,0,1,.63,1,11.76,11.76,0,0,1,.61,2c.19.85.36,2,.52,3.3a33.15,33.15,0,0,1,.26,3.34A11.71,11.71,0,0,1,144.22,191.94Z"/><polygon class="cls-4" points="71.17 213.83 71.17 222.74 80.75 217.99 83.83 212.47 77.5 216.63 71.17 213.83"/><polygon class="cls-5" points="78.6 27.86 130.25 62.2 129 58.89 79.36 25.37 78.6 27.86"/><polygon class="cls-6" points="14.97 259.99 9.61 231.99 25.7 259.99 33.45 245.99 33.45 258.26 45.01 254.39 39.1 264.15 17.65 264.15 14.97 259.99"/><polygon class="cls-6" points="64.01 266.56 59.89 246.11 71.17 262.44 73.96 246.11 77.98 259.12 90.72 254.18 86.49 268.12 64.01 266.56"/><polygon class="cls-6" points="184.58 226.82 192.62 217.6 188.6 226.82 198.65 226.82 191.62 233.44 187.11 234.9 184.58 226.82"/><polygon class="cls-6" points="93.4 271.38 98.2 257.08 101.5 272.94 112 268.12 103.49 275.73 93.4 271.38"/><polygon class="cls-6" points="142.5 248.07 146.64 234.9 151.06 241.48 155.75 229.41 160.93 243.19 161.94 238.09 166.43 241.44 142.5 248.07"/><polygon class="cls-2" points="107.41 85.57 104.66 83.35 113.95 65.79 117.6 70.86 107.41 85.57"/><polygon class="cls-6" points="172.85 238.74 172.85 233.44 177.69 236.09 179.27 222.74 181.9 238.09 172.85 238.74"/><path class="cls-1" d="M120.63,67.39c1.32,4.22.39,8.26-2.07,9s-5.52-2-6.84-6.25-.39-8.25,2.07-9S119.32,63.17,120.63,67.39Z"/><polygon class="cls-6" points="117 258.37 113.95 249.57 120.3 253.11 120.3 241.44 125.56 254.76 117 258.37"/><path class="cls-3" d="M111.69,70.06l0,.11a11.47,11.47,0,0,0,2.93,4.93l2.95-4.24L114,65.79Z"/><path class="cls-7" d="M118.63,68c.72,2.32.21,4.54-1.14,5s-3-1.12-3.76-3.43-.21-4.54,1.14-5S117.9,65.7,118.63,68Z"/><path class="cls-3" d="M186.67,61.21l-6.06-3.69L185,52l-2.52-14.3-7.39-1L167.62,38,151,59.27l-36,6.52c-.52,2.24.37,6.45,1.89,6.18l35.44-6.24,22.9,15.36L183,79.71l6.17-4.3Zm-5.76,13.42-4.54.8L155.88,61.68,170.57,43l4.69-.82,2.66.34,1.41,8-6.72,8.42,9.19,5.6L183.29,73Z"/><path class="cls-8" d="M115.3,68.74l33-6L148,61,115.14,66.8A4.89,4.89,0,0,1,115.3,68.74Z"/><polygon class="cls-8" points="153.68 60.09 169.44 40.15 167.99 39.08 153.25 57.73 153.68 60.09"/><rect class="cls-8" x="169.69" y="38.37" width="4.69" height="0.91" transform="translate(-4.13 30.45) rotate(-9.99)"/><rect class="cls-8" x="176.39" y="76.43" width="4.24" height="0.81" transform="translate(-10.63 32.16) rotate(-10)"/><polygon class="cls-2" points="98.2 137.17 93.4 133.07 98.2 133.07 98.2 137.17"/><polygon class="cls-2" points="148.33 123.4 142.5 121.4 146.64 126.84 148.33 129.07 148.33 123.4"/><polygon class="cls-2" points="169.65 224.07 169.44 217.6 172.04 224.07 169.65 224.07"/><polygon class="cls-2" points="128.81 220.84 130.25 226.25 131.74 224.07 128.81 220.84"/><polygon class="cls-2" points="95.8 248.07 103.48 261.37 104.66 261 95.8 248.07"/><polygon class="cls-2" points="75.31 184.07 78.6 173.74 76.95 187.9 75.31 184.07"/><polygon class="cls-2" points="68.83 140.07 73.17 140.07 71 144.29 68.83 140.07"/><polygon class="cls-2" points="64.01 61.02 73.17 68.74 65.5 65.79 64.01 61.02"/><polygon class="cls-2" points="156.83 190.2 124.83 186.82 122.94 185.07 124.67 183.44 156.68 186.93 158.71 187.9 156.83 190.2"/></g></svg>