<svg xmlns="http://www.w3.org/2000/svg" viewBox="0 0 801.91 373.96"><defs><style>.cls-1{fill:#ffeeb8;}.cls-2{fill:#d45c28;}.cls-3{fill:#575756;}.cls-4{fill:#c24a4a;}.cls-5{fill:#878787;}.cls-6{fill:#dd992e;}.cls-7{fill:#3c3c3b;}.cls-8{fill:#e56a6a;}</style></defs><title>grab</title><g id="Bcakground"><path class="cls-1" d="M260.86,108.73c.69.68-6.66,6.8-14.88,15.18s-14.19,15.84-14.89,15.16,4.17-9.24,12.39-17.62S260.17,108.05,260.86,108.73Z"/><path class="cls-1" d="M153.26,283.05c.12,1-9.44,1.22-21.08,2.72s-21,3.66-21.08,2.7,9-4.68,20.64-6.18S153.14,282.09,153.26,283.05Z"/><path class="cls-1" d="M782.44,267c-.3.92-7.16-5.24-18.34-8.83S741.68,254.91,742,254s12-2.76,23.2.83S782.74,266.06,782.44,267Z"/></g><g id="asdsa"><path class="cls-1" d="M115.8,270.82C61.33,272.15-2.1,278,22.65,290.52c12.39,6.29,55.47,1.1,100.88-8.63s104.61,24.41,191,21.37,86.77,55.84,180.83,55.68,155,.07,212.3-16.62,90.4-61.37,65-77.65-96.09-5-155.21-2.71S170.26,269.5,115.8,270.82Z"/></g><g id="Ebene_8" data-name="Ebene 8"><polygon class="cls-1" points="235.99 218.9 235.99 137.99 271.09 113.61 304.61 120.46 331.33 144.72 370.74 137.99 367.95 90.82 419.5 75.62 437.46 91.9 447.76 120.46 486.63 120.46 481.08 145.59 496.1 176.57 537.59 188.69 531.97 218.9 549.99 233.03 576.48 227.83 585.39 239.75 580.63 250.51 540.29 250.51 497.49 251.57 444.94 240.54 402.44 247.45 367.95 248.41 324.19 239.75 263.24 248.41 223.3 245.26 217.68 226.57 235.99 218.9"/><polygon class="cls-2" points="416.57 307.06 634.31 342.19 675.6 298.16 527.28 287.12 426 299.97 416.57 307.06"/><polygon class="cls-3" points="408.61 307.06 408.12 245.07 410.46 238.12 407.98 227.79 411.5 219.17 407.57 176.14 423.28 132.88 443.33 123.89 482.01 150.01 494.75 183.12 527.28 287.12 448.89 311.94 408.61 307.06"/><polygon class="cls-4" points="527.28 287.12 533.16 325.87 448.89 311.94 527.28 287.12"/><polygon class="cls-5" points="448.89 311.94 431.38 163.26 443.33 123.89 482.01 150.01 495.64 185.97 527.28 287.12 448.89 311.94"/><polygon class="cls-2" points="470.28 356.06 536.97 338.2 519.82 334.39 548.34 327.31 562.06 329.54 533.88 334.39 554.66 337.58 470.28 356.06"/><polygon class="cls-2" points="607.59 370.86 604.42 344.66 587.28 340.85 615.79 333.77 629.52 336 601.33 340.85 612.7 342.6 607.59 370.86"/><path class="cls-2" d="M678.38,329.3l-8.54,1.11-4.48,2-.25,5.23s5.79-.28,7.07-.45C674.24,330.57,678.38,329.3,678.38,329.3Z"/><polygon class="cls-2" points="680.48 329.03 674.17 337.06 700.26 335.41 707.53 329.09 705.04 325.87 680.48 329.03"/><path class="cls-2" d="M717.72,304.19l-6.55.26-3.53,1.21-.54,3.94s4.41.18,5.39.14C714.5,304.87,717.72,304.19,717.72,304.19Z"/><polygon class="cls-2" points="719.33 304.13 714.01 309.78 733.89 310.28 739.82 305.98 738.15 303.38 719.33 304.13"/><path class="cls-2" d="M742.82,320.78l-10,1.79-4.74,2.55,1.53,4.33c5-1.17,4.74-1.15,6.24-1.23C738.53,321.72,742.82,320.78,742.82,320.78Z"/><polygon class="cls-2" points="745.51 320.22 738.46 327.8 770.92 322.73 773.36 317.68 770.69 315.54 745.51 320.22"/><path class="cls-2" d="M671.77,307.91h-8.61l-4.7,1.41-.91,5.15s5.78.46,7.07.46C667.51,308.63,671.77,307.91,671.77,307.91Z"/><polygon class="cls-2" points="673.89 307.91 666.61 315.06 692.7 316.76 700.71 311.42 698.65 307.91 673.89 307.91"/><path class="cls-2" d="M756.12,282.84c0,1.12-4,2-8.83,2s-8.83-.9-8.83-2,3.95-2,8.83-2S756.12,281.73,756.12,282.84Z"/><path class="cls-2" d="M785.17,304.43c0,3.12-1.31,5.64-2.92,5.64s-2.92-2.52-2.92-5.64,1.3-5.64,2.92-5.64S785.17,301.32,785.17,304.43Z"/><path class="cls-2" d="M775.86,294.38c-.18.81-4.75.5-10.22-.7s-9.75-2.82-9.57-3.62,4.75-.5,10.21.7S776,293.58,775.86,294.38Z"/><path class="cls-2" d="M765,302.2c.59,1.19-.94,3.15-3.42,4.37s-5,1.23-5.55,0,.95-3.15,3.42-4.37S764.45,301,765,302.2Z"/><path class="cls-2" d="M745.44,273.62c0,.55-5.31,1.16-11.91,1.34s-11.95-.12-12-.67,5.32-1.16,11.92-1.35S745.43,273.06,745.44,273.62Z"/><path class="cls-2" d="M720.29,269.31c0,.56-5.31,1.16-11.91,1.34s-12-.11-12-.67,5.32-1.16,11.92-1.34S720.28,268.76,720.29,269.31Z"/><path class="cls-2" d="M658.46,259.43a6,6,0,0,1-2.05.23,6.66,6.66,0,0,1-2.06-.11,6.26,6.26,0,0,1,2-.24A6.07,6.07,0,0,1,658.46,259.43Z"/><path class="cls-2" d="M632.23,259.31a6.79,6.79,0,0,1-2.05.23,6.11,6.11,0,0,1-2.06-.12,12.16,12.16,0,0,1,4.11-.11Z"/><path class="cls-2" d="M620.79,259.3a6.79,6.79,0,0,1-2,.23,6.07,6.07,0,0,1-2.06-.12,6,6,0,0,1,2.05-.23A6.15,6.15,0,0,1,620.79,259.3Z"/><path class="cls-2" d="M613.51,259.29a6.31,6.31,0,0,1-2,.23,6,6,0,0,1-2.05-.12,6.31,6.31,0,0,1,2.05-.23A6,6,0,0,1,613.51,259.29Z"/><path class="cls-2" d="M639,261.78a6.31,6.31,0,0,1-2.05.23,6,6,0,0,1-2-.12,6.28,6.28,0,0,1,2-.23A6.07,6.07,0,0,1,639,261.78Z"/><path class="cls-2" d="M644.68,259.28a6.43,6.43,0,0,1-2,.23,6.07,6.07,0,0,1-2.06-.12,6.31,6.31,0,0,1,2-.23A6.15,6.15,0,0,1,644.68,259.28Z"/><path class="cls-2" d="M650.38,261.79a6.43,6.43,0,0,1-2,.23,6.11,6.11,0,0,1-2.06-.12,6.43,6.43,0,0,1,2.05-.23A6.07,6.07,0,0,1,650.38,261.79Z"/><path class="cls-2" d="M679.91,264.91c0,.21-1.93.43-4.31.49s-4.31,0-4.31-.25,1.92-.42,4.3-.49S679.9,264.71,679.91,264.91Z"/><path class="cls-2" d="M695.16,264.16c0,.2-1.93.42-4.31.49s-4.31,0-4.31-.25,1.92-.43,4.3-.49S695.16,264,695.16,264.16Z"/><path class="cls-2" d="M670.93,261.9c0,.2-1.93.42-4.31.49s-4.31-.05-4.32-.25,1.93-.42,4.31-.49S670.92,261.7,670.93,261.9Z"/><polygon class="cls-2" points="642.2 333.77 653.08 334.39 651.68 346.11 664.66 346.81 648.33 349.07 649.42 337.63 638.95 335.3 642.2 333.77"/><polygon class="cls-2" points="593.41 294.83 593.41 289.61 603.92 289.61 596.91 294.83 593.41 294.83"/><path class="cls-2" d="M620.79,292.22s-4.46,3.34-2.06,2.61,13.5-2.61,13.5-2.61"/><polygon class="cls-2" points="642.62 293.58 642.62 298.55 654.36 296.07 656.41 292.22 642.62 293.58"/><polygon class="cls-2" points="557.57 287.12 564.97 287.12 564.97 284.86 556.01 284.86 557.57 287.12"/><polygon class="cls-2" points="467.42 321.67 476.94 324.67 472.18 325.87 460.58 325.87 467.42 321.67"/><path class="cls-3" d="M466.26,199a22.26,22.26,0,0,1,.87,6.47,13.69,13.69,0,0,1-1.26,5.54,11.85,11.85,0,0,1-3.47,4.32,16.22,16.22,0,0,1-5.84,2.81,30.71,30.71,0,0,1-3.21.7,27.36,27.36,0,0,1-3.4.34l-1-5.68a1.73,1.73,0,0,1,.25-1.34,2.28,2.28,0,0,1,1.32-.85,6.06,6.06,0,0,1,1.23-.17,8.51,8.51,0,0,0,1.72-.31,7.09,7.09,0,0,0,2.3-1A3.94,3.94,0,0,0,457.1,208a6.41,6.41,0,0,0,.37-2.6,16.87,16.87,0,0,0-.64-3.63l-7.27-26.31,9.37,3.07Z"/><path class="cls-3" d="M484.82,205.66a.36.36,0,0,1,.27.06,1.24,1.24,0,0,1,.31.35l2.13,3.32a11.78,11.78,0,0,1-1.36,4.9,4.31,4.31,0,0,1-2.92,2.17,4.2,4.2,0,0,1-3.36-.82,11.87,11.87,0,0,1-3.12-3.51,29.83,29.83,0,0,1-2.69-5.73,53.41,53.41,0,0,1-2.07-7.48,48.91,48.91,0,0,1-1-7.77,29.09,29.09,0,0,1,.37-6.35,11.83,11.83,0,0,1,1.67-4.45,4.51,4.51,0,0,1,2.89-2.06,3.49,3.49,0,0,1,1.67,0,5.5,5.5,0,0,1,1.61.73,8.58,8.58,0,0,1,1.51,1.31,13,13,0,0,1,1.38,1.81l-.36,4.15a3.72,3.72,0,0,1-.14.71.46.46,0,0,1-.37.38.43.43,0,0,1-.39-.13,4.17,4.17,0,0,1-.45-.42l-.54-.56a3.74,3.74,0,0,0-.66-.53,3,3,0,0,0-.81-.35,2.23,2.23,0,0,0-1,0,2.41,2.41,0,0,0-1.56,1.19,7.12,7.12,0,0,0-.85,2.65,19.74,19.74,0,0,0-.1,3.93,36.42,36.42,0,0,0,.7,5,37.59,37.59,0,0,0,1.37,5,19.53,19.53,0,0,0,1.62,3.57,7,7,0,0,0,1.74,2.05,2.1,2.1,0,0,0,1.71.47,2.86,2.86,0,0,0,.84-.29,2,2,0,0,0,.65-.55,3.67,3.67,0,0,0,.49-.86,7.69,7.69,0,0,0,.38-1.24,2.31,2.31,0,0,1,.18-.47A.4.4,0,0,1,484.82,205.66Z"/><polygon class="cls-3" points="468.76 216.54 468.76 219.17 472.66 219.17 468.76 216.54"/><polygon class="cls-3" points="488.09 216.54 489.8 219.17 494.08 219.17 488.09 216.54"/><path class="cls-3" d="M468.39,252.44a25,25,0,0,0-.47-2.8,3.71,3.71,0,0,1-.34-1.19,10.42,10.42,0,0,0-.41-1.09,3.36,3.36,0,0,1-.53-1,3.53,3.53,0,0,0-.95-1,1.9,1.9,0,0,0-.64-.28,3.15,3.15,0,0,1-2,.88,4.19,4.19,0,0,0-.54,1.22,10.51,10.51,0,0,0-.35,2.5,22.19,22.19,0,0,0,.18,3.49,23,23,0,0,0,.64,3.43,10.36,10.36,0,0,0,.92,2.34,3.78,3.78,0,0,0,1.12,1.32,1.87,1.87,0,0,0,1.27.33,1.67,1.67,0,0,0,.65-.22,3.15,3.15,0,0,1,1.14-1.46c.06-.15.11-.31.16-.48a10.36,10.36,0,0,0,.35-2.5A22.13,22.13,0,0,0,468.39,252.44Zm-1.69,4.43a2,2,0,0,1-.31.84.59.59,0,0,1-.91.11,2,2,0,0,1-.49-.75,9.33,9.33,0,0,1-.46-1.55c-.15-.66-.28-1.52-.41-2.58s-.19-1.91-.2-2.59a9.07,9.07,0,0,1,.09-1.62,1.9,1.9,0,0,1,.3-.83.66.66,0,0,1,.43-.27.65.65,0,0,1,.48.16,1.87,1.87,0,0,1,.49.74,9.2,9.2,0,0,1,.47,1.55,24.51,24.51,0,0,1,.41,2.57,22.45,22.45,0,0,1,.2,2.6A9.07,9.07,0,0,1,466.7,256.87Z"/><path class="cls-3" d="M476.86,253.37l-.23-2-3,.36.31,2.61,1.2-.14A3,3,0,0,1,476.86,253.37Z"/><path class="cls-3" d="M488.2,253.13c-.2-1.71-.79-2.8-1.77-3.28a2.18,2.18,0,0,0,.47-.53,2.54,2.54,0,0,0,.3-.73,4.52,4.52,0,0,0,.12-1,10.22,10.22,0,0,0-.07-1.28,7,7,0,0,0-.35-1.48,4.26,4.26,0,0,0-.64-1.2,2.64,2.64,0,0,0-.68-.62,2.66,2.66,0,0,1-.28,0,3.67,3.67,0,0,1-1.42-.28,2.11,2.11,0,0,0-.59.27,3.14,3.14,0,0,1-.92,1.19,5.22,5.22,0,0,0-.39,1.28,9.76,9.76,0,0,0-.11,2l1,.2h.26a.46.46,0,0,0,.35-.26,2,2,0,0,0,.14-.7,4.34,4.34,0,0,1,.09-.54,1.62,1.62,0,0,1,.17-.44,1.21,1.21,0,0,1,.26-.32.73.73,0,0,1,.35-.15.76.76,0,0,1,.77.4,3.55,3.55,0,0,1,.4,1.36,5.69,5.69,0,0,1,0,.81,1.48,1.48,0,0,1-.15.65,1.14,1.14,0,0,1-.44.46,2,2,0,0,1-.81.24l.27,2.24a2.25,2.25,0,0,1,1,0,1.07,1.07,0,0,1,.56.37,1.56,1.56,0,0,1,.29.65c.05.26.1.55.14.88a3.76,3.76,0,0,1,0,.75,2.41,2.41,0,0,1-.14.68,1.44,1.44,0,0,1-.3.51.74.74,0,0,1-.49.24.82.82,0,0,1-.71-.31,4.41,4.41,0,0,1-.69-1.2.75.75,0,0,0-.26-.35.42.42,0,0,0-.34-.09.49.49,0,0,0-.19.05.55.55,0,0,0-.18.14l-.71.67a12.3,12.3,0,0,0,.68,1.79,5.34,5.34,0,0,0,.68,1.07,3.19,3.19,0,0,1,2.14.85,2.13,2.13,0,0,0,1-.41,2.75,2.75,0,0,0,.82-1,5.24,5.24,0,0,0,.45-1.56A8.52,8.52,0,0,0,488.2,253.13Z"/><path class="cls-3" d="M495.59,249.57l0-.34a23,23,0,0,0-.64-3.43,10.44,10.44,0,0,0-.93-2.35,4.94,4.94,0,0,0-.37-.56,3.11,3.11,0,0,1-1.91-1.07h-.12a1.82,1.82,0,0,0-1.15.61,3.78,3.78,0,0,0-.79,1.53,10.55,10.55,0,0,0-.34,2.5,22.19,22.19,0,0,0,.18,3.49,23.07,23.07,0,0,0,.63,3.43,10.86,10.86,0,0,0,.92,2.34,3.79,3.79,0,0,0,1.13,1.32l.12.07a4,4,0,0,1,.87-.1,3.52,3.52,0,0,1,.95.13,2.43,2.43,0,0,0,.48-.38,3.82,3.82,0,0,0,.79-1.55,10.31,10.31,0,0,0,.36-2.5c0-.62,0-1.31-.05-2.06A4.39,4.39,0,0,1,495.59,249.57Zm-1.73,4.09a1.77,1.77,0,0,1-.31.84.58.58,0,0,1-.9.11,1.89,1.89,0,0,1-.49-.75,9.2,9.2,0,0,1-.47-1.55c-.14-.66-.28-1.52-.4-2.58a24.81,24.81,0,0,1-.21-2.59,9.07,9.07,0,0,1,.09-1.62,1.9,1.9,0,0,1,.3-.83.68.68,0,0,1,.43-.27.65.65,0,0,1,.48.16,1.87,1.87,0,0,1,.5.74,9.2,9.2,0,0,1,.47,1.55c.15.66.28,1.52.41,2.57s.19,1.93.2,2.6A8.92,8.92,0,0,1,493.86,253.66Z"/><polygon class="cls-5" points="436.95 270.71 436.95 277.65 444.42 273.95 446.82 269.65 441.88 272.89 436.95 270.71"/><polygon class="cls-1" points="442.74 125.83 482.98 152.59 482.01 150.01 443.33 123.89 442.74 125.83"/><polygon class="cls-6" points="393.17 306.67 389 284.86 401.53 306.67 407.57 295.76 407.57 305.32 416.57 302.31 411.98 309.91 395.26 309.91 393.17 306.67"/><polygon class="cls-6" points="431.38 311.79 428.17 295.86 436.95 308.58 439.13 295.86 442.26 305.99 452.19 302.14 448.89 313.01 431.38 311.79"/><polygon class="cls-6" points="525.31 280.83 531.57 273.65 528.44 280.83 536.27 280.83 530.79 285.99 527.28 287.12 525.31 280.83"/><polygon class="cls-6" points="454.28 315.54 458.01 304.4 460.58 316.76 468.76 313.01 462.14 318.94 454.28 315.54"/><polygon class="cls-6" points="492.52 297.38 495.75 287.12 499.19 292.25 502.85 282.84 506.88 293.58 507.67 289.61 511.17 292.22 492.52 297.38"/><polygon class="cls-3" points="465.19 170.79 463.04 169.06 470.28 155.38 473.12 159.33 465.19 170.79"/><polygon class="cls-6" points="516.17 290.11 516.17 285.99 519.94 288.05 521.17 277.65 523.21 289.61 516.17 290.11"/><path class="cls-2" d="M475.49,156.63c1,3.28.3,6.43-1.61,7s-4.3-1.58-5.33-4.86-.31-6.44,1.61-7S474.46,153.34,475.49,156.63Z"/><polygon class="cls-6" points="472.66 305.41 470.28 298.55 475.23 301.31 475.23 292.22 479.33 302.6 472.66 305.41"/><path class="cls-4" d="M468.52,158.7l0,.1a9,9,0,0,0,2.28,3.84l2.29-3.31-2.84-4Z"/><path class="cls-7" d="M473.93,157.12c.56,1.8.16,3.53-.89,3.86s-2.36-.87-2.93-2.67-.16-3.54.89-3.87S473.36,155.31,473.93,157.12Z"/><path class="cls-4" d="M526.93,151.81l-4.72-2.87,3.45-4.33-2-11.14-5.75-.75-5.86,1-13,16.55-28.05,5.08c-.4,1.74.29,5,1.47,4.82l27.62-4.87,17.83,12,6.1-1.08,4.8-3.34Zm-4.48,10.46-3.54.62-16-10.71,11.44-14.59L518,137l2.07.27,1.11,6.26L516,150l7.16,4.36L524.3,161Z"/><path class="cls-8" d="M471.34,157.68,497.07,153l-.25-1.38-25.61,4.51A4,4,0,0,1,471.34,157.68Z"/><polygon class="cls-8" points="501.23 150.94 513.51 135.41 512.38 134.57 500.9 149.1 501.23 150.94"/><rect class="cls-8" x="513.71" y="134.02" width="3.65" height="0.71" transform="translate(-15.5 91.51) rotate(-9.99)"/><rect class="cls-8" x="518.92" y="163.67" width="3.3" height="0.63" transform="translate(-20.56 92.86) rotate(-10)"/><polygon class="cls-3" points="458.01 210.99 454.28 207.79 458.01 207.79 458.01 210.99"/><polygon class="cls-3" points="497.07 200.26 492.52 198.71 495.75 202.94 497.07 204.68 497.07 200.26"/><polygon class="cls-3" points="513.67 278.69 513.51 273.65 515.53 278.69 513.67 278.69"/><polygon class="cls-3" points="481.86 276.17 482.98 280.38 484.14 278.69 481.86 276.17"/><polygon class="cls-3" points="456.14 297.38 462.13 307.75 463.04 307.46 456.14 297.38"/><polygon class="cls-3" points="440.18 247.53 442.74 239.48 441.46 250.51 440.18 247.53"/><polygon class="cls-3" points="435.13 213.25 438.51 213.25 436.82 216.54 435.13 213.25"/><polygon class="cls-3" points="431.38 151.66 438.51 157.68 432.54 155.38 431.38 151.66"/><polygon class="cls-3" points="503.69 252.3 478.76 249.67 477.29 248.3 478.63 247.04 503.57 249.75 505.15 250.51 503.69 252.3"/><polygon class="cls-1" points="544.64 142.76 547.44 170.79 575.41 186.63 575.74 175.5 575.74 161.04 556.01 138.24 544.64 142.76"/><polygon class="cls-1" points="598.67 204.68 587.28 217.91 592.97 226.36 609.41 226.36 616.68 233.37 630.18 233.37 625.13 219.17 625.13 197.34 603.92 191.09 598.67 204.68"/><polygon class="cls-1" points="181.31 240.91 169.93 254.14 175.62 262.58 192.05 262.58 199.32 269.6 212.82 269.6 207.77 255.4 207.77 233.56 186.57 227.32 181.31 240.91"/><polygon class="cls-1" points="123.47 226.76 112.08 234.16 117.78 238.88 134.21 238.88 141.49 242.8 154.98 242.8 149.93 234.86 149.93 222.66 128.73 219.17 123.47 226.76"/><polygon class="cls-1" points="52.3 240.77 40.91 248.17 46.61 252.89 63.04 252.89 70.31 256.81 83.81 256.81 78.76 248.87 78.76 236.67 57.56 233.18 52.3 240.77"/><polygon class="cls-1" points="484.14 59.39 473.59 90.81 499.91 96.66 515.53 107.24 533.33 107.24 527.89 75.62 533.33 51.01 508.65 51.01 484.14 59.39"/><polygon class="cls-1" points="343.43 83.8 361.8 101.33 371.34 83.8 357.61 51.01 353.06 68.61 337.17 59.39 343.43 83.8"/><polygon class="cls-1" points="648.33 249.47 651.81 226.36 665.11 237.92 678.38 238.12 683.66 250.51 679.91 258.24 658.46 259.43 648.33 249.47"/><polygon class="cls-1" points="68.74 278.83 58.36 269 67.87 268.13 71.77 263.1 79.39 265.62 82.11 269.9 76.55 278.58 68.74 278.83"/><ellipse class="cls-2" cx="58.21" cy="291.08" rx="4.16" ry="0.97"/><ellipse class="cls-2" cx="85.73" cy="286.96" rx="6.34" ry="0.97"/><ellipse class="cls-2" cx="152.72" cy="290.34" rx="8.67" ry="0.74"/><ellipse class="cls-2" cx="184.66" cy="280.6" rx="6.07" ry="0.19"/><ellipse class="cls-2" cx="212.53" cy="275.84" rx="3.13" ry="0.44"/><ellipse class="cls-2" cx="233.94" cy="271.64" rx="2.25" ry="0.13"/><ellipse class="cls-2" cx="251.66" cy="270.58" rx="1.57" ry="0.06"/><ellipse class="cls-2" cx="232.25" cy="277.22" rx="2.69" ry="0.31"/></g></svg>