<svg xmlns="http://www.w3.org/2000/svg" viewBox="0 0 226.4 239.08"><defs><style>.cls-1{fill:#468f99;}.cls-2{fill:#d45c28;}.cls-10,.cls-3,.cls-8{fill:none;stroke:#f7931e;stroke-miterlimit:10;}.cls-3{stroke-width:15.19px;}.cls-4{fill:#f7931e;}.cls-5{fill:#e8d6bc;}.cls-6{fill:#f4ca98;}.cls-7{fill:#754c24;}.cls-8{stroke-width:14px;}.cls-9{fill:#e5aa3c;}</style></defs><title>jesus_kreuz</title><g id="Ebene_8" data-name="Ebene 8"><path class="cls-1" d="M149.77,231.07c0,1.6-19,2.9-42.35,2.9s-42.36-1.3-42.36-2.9,19-2.91,42.36-2.91S149.77,229.46,149.77,231.07Z"/><rect class="cls-2" x="3.58" y="134.44" width="219" height="32.3"/><rect class="cls-2" x="91.16" y="12.07" width="32.3" height="219"/><line class="cls-3" x1="135" y1="144.24" x2="181.5" y2="153.46"/><rect class="cls-4" x="178.55" y="141.56" width="29.44" height="23"/><polygon class="cls-4" points="200.23 131.38 194.49 128.88 182.4 142.69 193.63 149.2 200.23 131.38"/><polygon class="cls-4" points="125.35 91.66 120.37 95.46 88.56 95.46 88.56 42.77 125.35 42.77 125.35 91.66"/><rect class="cls-4" x="99.34" y="89.92" width="14.49" height="34.54"/><polygon class="cls-5" points="149.88 211.46 77.78 211.46 77.78 147.1 89.59 108.61 99.34 108.61 102.45 121.39 113.83 108.72 122.98 108.61 149.88 139.09 149.88 211.46"/><polygon class="cls-6" points="122.15 90.32 115.33 94.84 91.02 93.53 91.02 48.95 115.33 52.43 122.15 90.32"/><polygon class="cls-7" points="88.81 101.25 80.53 101.25 84.42 58.57 82.78 42.77 88.56 34.73 125.35 34.73 129.44 38.23 133.35 63.82 136.65 100.28 125.44 105.55 125.35 62.27 123.06 58.81 121.87 81 118.11 81 119.68 60 117.68 46.86 106.58 48.1 94.53 48.41 92.04 51.19 88.56 66.65 88.81 101.25"/><line class="cls-8" x1="81.68" y1="141.16" x2="42.2" y2="150.38"/><polygon class="cls-6" points="112.52 107.75 106.96 107.75 106.96 99.33 112.52 101.59 112.52 107.75"/><path class="cls-4" d="M100.29,65.26c0,.24-.65.44-1.44.44s-1.44-.2-1.44-.44.64-.43,1.44-.43S100.29,65,100.29,65.26Z"/><path class="cls-4" d="M111.26,65.26c0,.18-.56.33-1.25.33s-1.26-.15-1.26-.33.56-.32,1.26-.32S111.26,65.08,111.26,65.26Z"/><polygon class="cls-7" points="87.82 79 127.95 79.75 125.35 98.5 96.17 99.33 86.7 95.46 87.82 79"/><polygon class="cls-6" points="113.83 87.79 98.98 82.73 94.89 89.92 101.64 86.95 113.83 87.79"/><rect class="cls-4" x="109.24" y="54.15" width="4.03" height="11.1" transform="translate(37.45 162.15) rotate(-82.45)"/><rect class="cls-7" x="110.3" y="53.22" width="4.03" height="11.1" transform="translate(39.29 162.38) rotate(-82.45)"/><rect class="cls-4" x="92.78" y="56.64" width="9.94" height="4.03" transform="translate(-6.54 12.61) rotate(-7.15)"/><rect class="cls-7" x="92.09" y="55.65" width="9.94" height="4.03" transform="translate(-6.42 12.52) rotate(-7.15)"/><path class="cls-6" d="M105.11,79a1.8,1.8,0,1,1-1.79-2A1.9,1.9,0,0,1,105.11,79Z"/><rect class="cls-4" x="124.28" y="62.43" width="7.34" height="6.85"/><rect class="cls-4" x="78.01" y="62.43" width="7.34" height="6.85"/><polygon class="cls-9" points="94.89 133.95 89.59 108.61 77.78 147.1 77.78 211.46 99.34 211.46 94.89 133.95"/><polygon class="cls-5" points="140.5 153.88 157.05 153.88 157.05 135 132.31 121.04 140.5 153.88"/><polygon class="cls-9" points="135.65 134.44 104.36 201.63 84.95 205.3 83.45 186.63 132.31 122.13 135.65 134.44"/><polygon class="cls-9" points="99.35 109.52 97.63 114.16 98.49 127.24 103.32 124.45 111.52 110.9 102.45 121.39 99.35 109.52"/><polygon class="cls-1" points="127.41 113.63 97.63 155.14 77.78 167.54 76.47 171.96 77.78 199.4 101.72 194.69 138.36 124.45 131.6 116.92 128.94 113.63 127.41 113.63"/><polygon class="cls-9" points="80.72 153.88 68.64 153.88 68.64 135 86.7 121.04 80.72 153.88"/><rect class="cls-4" x="19.7" y="138.47" width="25" height="23"/><polygon class="cls-4" points="26.29 128.3 31.16 125.79 41.43 139.61 31.9 146.11 26.29 128.3"/><rect class="cls-4" x="16.45" y="138.75" width="6.75" height="6.6"/><rect class="cls-4" x="16.45" y="146.46" width="6.75" height="6.6"/><rect class="cls-4" x="16.45" y="154.16" width="6.75" height="6.6"/><polygon class="cls-9" points="149.88 154.27 139.68 150.59 144.12 156.52 149.88 157.87 149.88 154.27"/><polyline class="cls-10" points="82.7 56.04 79.2 58.66 80.95 54.38 76.47 54.38 75.53 44.71 78.01 51.88 81.68 42.05 85.35 50.55 88.56 41.38 95.7 43.71 97.06 37.88 102.93 44.88 107.32 40.21 111.26 44.88 115.53 37.88 118 48.95 122.15 40.71 123.03 51.88 128.86 44.88 131.62 41.55 131.62 53.38 136.65 45.05 136.65 52.55 133.53 58.66"/></g></svg>