<svg xmlns="http://www.w3.org/2000/svg" viewBox="0 0 196.31 231.32"><defs><style>.cls-1{fill:#ffeeb8;}.cls-2{fill:#468f99;}.cls-3{fill:#e8d6bc;}.cls-4,.cls-6{fill:none;}.cls-4{stroke:#fff;}.cls-4,.cls-6,.cls-7{stroke-miterlimit:10;stroke-width:4px;}.cls-5{fill:#754c24;}.cls-6{stroke:#e5aa3c;}.cls-7,.cls-9{fill:#e5aa3c;}.cls-7{stroke:#754c24;}.cls-8{fill:#d45c28;}</style></defs><title>jesus_04</title><g id="Ebene_1" data-name="Ebene 1"><polygon class="cls-1" points="161.76 215.57 105.55 215.57 105.55 91.97 108.96 82.56 126.55 82.56 133.55 93.52 137.2 82.56 152.22 82.56 161.76 91.97 161.76 215.57"/><polygon class="cls-1" points="90.76 215.57 34.55 215.57 34.55 96.18 41.76 82.56 56.06 82.56 62.66 96.18 67.26 82.56 78.26 82.56 90.76 91.97 90.76 215.57"/><path class="cls-2" d="M158.93,223.71c0,1.6-24.53,2.9-54.78,2.9s-54.79-1.3-54.79-2.9,24.53-2.91,54.79-2.91S158.93,222.1,158.93,223.71Z"/><polyline class="cls-3" points="112.59 164.67 118.59 150.51 142.59 150.51 148.17 163.52 112.59 166.01"/><path class="cls-4" d="M149.55,133.42c-.44,2.22-9.87,2.25-21.07.07s-19.94-5.75-19.5-8,9.86-2.25,21.06-.07S150,131.2,149.55,133.42Z"/><polygon class="cls-5" points="56.06 167.13 152.22 161.19 152.22 178.27 141.82 201.26 71.52 201.26 58.56 185.27 56.06 167.13"/><path class="cls-6" d="M150.55,136.74c-.44,2.22-9.87,2.25-21.07.07s-19.94-5.75-19.5-8,9.86-2.25,21.06-.07S151,134.52,150.55,136.74Z"/><line class="cls-7" x1="78.26" y1="194.19" x2="71.26" y2="223.71"/><line class="cls-7" x1="133.55" y1="194.19" x2="126.55" y2="223.71"/><line class="cls-7" x1="80.13" y1="194.19" x2="87.01" y2="223.71"/><polygon class="cls-8" points="60.28 170.29 66.58 173.47 70.67 169.67 78.58 172.31 81.27 170.7 83.53 173.65 89.37 167.4 95.21 170.99 95.03 164.72 137.96 162.07 144.63 168.4 148.71 163.68 152.22 166.01 152.22 161.19 152.22 178.27 68.54 184.43 58.88 172.97 59.71 173.04 60.28 170.29"/><line class="cls-7" x1="137.2" y1="194.19" x2="144.08" y2="223.71"/><polygon class="cls-9" points="60.06 162.58 64.93 166.01 65.63 162.29 74.2 166.01 80.13 164.19 83.57 165.43 89.51 162.29 94.63 164.74 94.63 168.99 88.59 166.01 83.57 172.52 81.59 168.1 78.26 171.52 69.93 166.52 66.59 172.52 59.71 168.1 58.59 172.52 57.59 168.99 52.93 174.52 56.06 166.01 49.36 162.29 59.93 166.86 60.06 162.58"/><polygon class="cls-9" points="144.08 160.48 149.56 155.77 149.56 158.12 156.93 158.12 150.51 160.58 152.22 165.3 148.17 162.81 144.08 167.39 137.2 161.4 144.08 160.48"/></g></svg>