<svg xmlns="http://www.w3.org/2000/svg" viewBox="0 0 196.31 231.32"><defs><style>.cls-1,.cls-13,.cls-8{fill:none;stroke-miterlimit:10;}.cls-1,.cls-8{stroke:#f7931e;}.cls-1{stroke-width:15.19px;}.cls-2{fill:#f7931e;}.cls-3{fill:#468f99;}.cls-4{fill:#e8d6bc;}.cls-5{fill:#f4ca98;}.cls-6{fill:#754c24;}.cls-7{fill:#e5aa3c;}.cls-8{stroke-width:14px;}.cls-9{fill:#d45c28;}.cls-10{fill:#fcea10;}.cls-11{fill:#3aaa35;}.cls-12{fill:#3c3c3b;}.cls-13{stroke:#3c3c3b;}</style></defs><title>jesus_01</title><g id="Ebene_1" data-name="Ebene 1"><line class="cls-1" x1="111.84" y1="136.88" x2="158.34" y2="146.1"/><rect class="cls-2" x="155.39" y="134.2" width="29.44" height="23"/><polygon class="cls-2" points="177.08 124.02 171.34 121.51 159.24 135.33 170.47 141.84 177.08 124.02"/><path class="cls-3" d="M132.74,223.71c0,1.6-19,2.9-42.36,2.9S48,225.31,48,223.71s19-2.91,42.36-2.91S132.74,222.1,132.74,223.71Z"/><polygon class="cls-2" points="102.2 84.3 97.22 88.1 65.4 88.1 65.4 35.41 102.2 35.41 102.2 84.3"/><rect class="cls-2" x="76.18" y="82.56" width="14.49" height="34.54"/><polygon class="cls-4" points="126.73 204.1 54.62 204.1 54.62 139.74 66.44 101.25 76.18 101.25 79.29 114.03 90.67 101.36 99.82 101.25 126.73 131.72 126.73 204.1"/><polygon class="cls-5" points="99 82.96 92.17 87.48 67.86 86.17 67.86 41.59 92.17 45.07 99 82.96"/><polygon class="cls-6" points="65.65 93.89 57.38 93.89 61.26 51.21 59.62 35.41 65.4 27.37 102.2 27.37 106.28 30.87 110.2 56.45 113.49 92.92 102.29 98.19 102.2 54.91 99.9 51.45 98.72 73.64 94.96 73.64 96.52 52.64 94.52 39.5 83.43 40.74 71.37 41.05 68.88 43.83 65.4 59.29 65.65 93.89"/><polygon class="cls-5" points="89.36 100.39 83.8 100.39 83.8 91.97 89.36 94.23 89.36 100.39"/><path class="cls-2" d="M77.13,57.9a1.44,1.44,0,1,1-1.44-1.44A1.43,1.43,0,0,1,77.13,57.9Z"/><path class="cls-2" d="M88.1,57.9a1.26,1.26,0,1,1-1.25-1.25A1.26,1.26,0,0,1,88.1,57.9Z"/><polygon class="cls-6" points="64.67 71.64 104.79 72.39 102.2 91.14 73.01 91.97 63.54 88.1 64.67 71.64"/><polygon class="cls-5" points="69.65 76.73 76.42 86.12 88.92 85.18 98.11 76.73 80.16 78.43 69.65 76.73"/><rect class="cls-2" x="86.09" y="46.79" width="4.03" height="11.1" transform="translate(24.63 132.8) rotate(-82.45)"/><rect class="cls-6" x="87.14" y="45.86" width="4.03" height="11.1" transform="translate(26.48 133.03) rotate(-82.45)"/><rect class="cls-2" x="69.63" y="49.28" width="9.94" height="4.03" transform="translate(-5.8 9.68) rotate(-7.15)"/><rect class="cls-6" x="68.93" y="48.29" width="9.94" height="4.03" transform="translate(-5.68 9.58) rotate(-7.15)"/><path class="cls-5" d="M82,71.64a1.8,1.8,0,1,1-1.79-2A1.9,1.9,0,0,1,82,71.64Z"/><rect class="cls-2" x="101.12" y="55.07" width="7.34" height="6.85"/><rect class="cls-2" x="54.85" y="55.07" width="7.34" height="6.85"/><polygon class="cls-7" points="71.73 126.58 66.44 101.25 54.62 139.74 54.62 204.1 76.18 204.1 71.73 126.58"/><polygon class="cls-4" points="117.35 146.51 133.9 146.51 133.9 127.64 109.15 113.68 117.35 146.51"/><polygon class="cls-7" points="112.5 127.08 81.2 194.27 61.79 197.94 60.29 179.27 109.15 114.77 112.5 127.08"/><polygon class="cls-7" points="76.2 102.16 74.48 106.8 75.34 119.88 80.16 117.09 88.36 103.53 79.29 114.03 76.2 102.16"/><polygon class="cls-3" points="104.25 106.27 74.48 147.78 54.62 160.18 53.32 164.6 54.62 192.04 78.56 187.33 115.2 117.09 108.45 109.56 105.78 106.27 104.25 106.27"/><polygon class="cls-7" points="57.56 146.51 45.48 146.51 45.48 127.64 63.54 113.68 57.56 146.51"/><line class="cls-8" x1="53.91" y1="139.94" x2="46.44" y2="179.81"/><rect class="cls-2" x="36.43" y="176.81" width="23" height="24.99" transform="translate(-6.16 1.67) rotate(-1.87)"/><polygon class="cls-7" points="126.73 146.91 116.53 143.23 120.96 149.16 126.73 150.51 126.73 146.91"/><polygon class="cls-3" points="133.9 127.64 112.43 115.53 99.82 101.25 90.67 101.36 79.29 114.03 76.18 101.25 66.44 101.25 62.34 114.61 45.48 127.64 45.48 146.51 54.62 146.51 54.62 204.1 126.73 204.1 126.73 146.51 133.9 146.51 133.9 127.64"/><rect class="cls-9" x="54.62" y="170.2" width="72.1" height="7.36"/><rect class="cls-10" x="54.62" y="197.41" width="72.1" height="6.68"/><polygon class="cls-11" points="45.48 142.98 45.48 146.51 54.62 146.51 54.62 150.34 126.73 150.34 126.73 146.51 133.9 146.51 133.9 142.98 45.48 142.98"/><rect class="cls-10" x="54.62" y="156.59" width="72.1" height="7.36"/><rect class="cls-11" x="54.62" y="183.81" width="72.1" height="7.36"/><polygon class="cls-9" points="89.95 102.16 83.34 109.52 107.12 109.52 100.63 102.16 89.95 102.16"/><polygon class="cls-9" points="66.16 102.16 63.9 109.52 78.19 109.52 76.4 102.16 66.16 102.16"/><rect class="cls-10" x="45.48" y="129.37" width="88.41" height="7.36"/><polygon class="cls-11" points="60.84 115.77 51.32 123.13 125.9 123.13 112.85 115.77 60.84 115.77"/><rect class="cls-10" x="54.51" y="37.77" width="57.33" height="6.5"/><path class="cls-12" d="M93.81,57.9a5.45,5.45,0,1,1-5.45-5.45A5.45,5.45,0,0,1,93.81,57.9Z"/><path class="cls-12" d="M81.21,57.9a5.45,5.45,0,1,1-5.45-5.45A5.45,5.45,0,0,1,81.21,57.9Z"/><polyline class="cls-13" points="79.41 57.49 82.12 55.69 84.52 57.36"/></g></svg>