<svg xmlns="http://www.w3.org/2000/svg" viewBox="0 0 226.4 239.08"><defs><style>.cls-1{fill:#ffeeb8;}.cls-2{fill:#468f99;}.cls-3{fill:#e8d6bc;}.cls-4,.cls-6{fill:none;}.cls-4{stroke:#fff;}.cls-4,.cls-6,.cls-7{stroke-miterlimit:10;stroke-width:4px;}.cls-5{fill:#754c24;}.cls-6{stroke:#e5aa3c;}.cls-7,.cls-9{fill:#e5aa3c;}.cls-7{stroke:#754c24;}.cls-8{fill:#d45c28;}</style></defs><title>jesus_baby</title><g id="Ebene_8" data-name="Ebene 8"><polygon class="cls-1" points="176.96 222.93 120.75 222.93 120.75 99.33 124.16 89.92 141.75 89.92 148.75 100.88 152.4 89.92 167.43 89.92 176.96 99.33 176.96 222.93"/><polygon class="cls-1" points="105.96 222.93 49.75 222.93 49.75 103.54 56.96 89.92 71.27 89.92 77.86 103.54 82.46 89.92 93.46 89.92 105.96 99.33 105.96 222.93"/><path class="cls-2" d="M174.13,231.07c0,1.6-24.53,2.9-54.78,2.9s-54.79-1.3-54.79-2.9,24.53-2.91,54.79-2.91S174.13,229.46,174.13,231.07Z"/><polyline class="cls-3" points="127.8 172.03 133.79 157.87 157.79 157.87 163.37 170.88 127.8 173.37"/><path class="cls-4" d="M164.75,140.78c-.43,2.22-9.87,2.25-21.07.07s-19.94-5.75-19.5-8,9.86-2.25,21.06-.07S165.18,138.56,164.75,140.78Z"/><polygon class="cls-5" points="71.27 174.49 167.43 168.55 167.43 185.63 157.02 208.63 86.72 208.63 73.77 192.63 71.27 174.49"/><path class="cls-6" d="M165.75,144.1c-.43,2.22-9.87,2.25-21.07.07s-19.94-5.75-19.5-8,9.86-2.25,21.06-.07S166.18,141.88,165.75,144.1Z"/><line class="cls-7" x1="93.46" y1="201.55" x2="86.46" y2="231.07"/><line class="cls-7" x1="148.75" y1="201.55" x2="141.75" y2="231.07"/><line class="cls-7" x1="95.33" y1="201.55" x2="102.21" y2="231.07"/><polygon class="cls-8" points="75.48 177.65 81.78 180.83 85.87 177.03 93.78 179.67 96.47 178.06 98.73 181.01 104.57 174.76 110.41 178.35 110.23 172.08 153.16 169.43 159.84 175.76 163.91 171.04 167.43 173.37 167.43 168.55 167.43 185.63 83.74 191.79 74.08 180.34 74.91 180.41 75.48 177.65"/><line class="cls-7" x1="152.4" y1="201.55" x2="159.29" y2="231.07"/><polygon class="cls-9" points="75.27 169.94 80.13 173.37 80.83 169.65 89.41 173.37 95.33 171.55 98.77 172.79 104.71 169.65 109.83 172.1 109.83 176.35 103.8 173.37 98.77 179.88 96.8 175.46 93.46 178.88 85.13 173.88 81.8 179.88 74.91 175.46 73.8 179.88 72.8 176.35 68.13 181.88 71.27 173.37 64.56 169.65 75.13 174.22 75.27 169.94"/><polygon class="cls-9" points="159.28 167.84 164.76 163.13 164.76 165.48 172.13 165.48 165.71 167.94 167.43 172.66 163.37 170.17 159.28 174.75 152.4 168.76 159.28 167.84"/></g></svg>