<svg xmlns="http://www.w3.org/2000/svg" viewBox="0 0 226.4 239.08"><defs><style>.cls-1,.cls-7{fill:none;stroke:#f7931e;stroke-miterlimit:10;}.cls-1{stroke-width:15.19px;}.cls-2{fill:#f7931e;}.cls-3{fill:#468f99;}.cls-4{fill:#e8d6bc;}.cls-5{fill:#f4ca98;}.cls-6{fill:#754c24;}.cls-7{stroke-width:14px;}.cls-8{fill:#e5aa3c;}</style></defs><title>jesus_nett</title><g id="Ebene_8" data-name="Ebene 8"><line class="cls-1" x1="133.96" y1="144.24" x2="180.46" y2="153.46"/><rect class="cls-2" x="177.52" y="141.56" width="29.44" height="23"/><polygon class="cls-2" points="199.2 131.38 193.46 128.88 181.37 142.69 192.59 149.2 199.2 131.38"/><rect class="cls-2" x="149.98" y="141.84" width="7.95" height="6.6"/><rect class="cls-2" x="149.98" y="149.54" width="7.95" height="6.6"/><path class="cls-3" d="M154.86,231.07c0,1.6-19,2.9-42.36,2.9s-42.36-1.3-42.36-2.9,19-2.91,42.36-2.91S154.86,229.46,154.86,231.07Z"/><polygon class="cls-2" points="124.32 91.66 119.34 95.46 87.53 95.46 87.53 42.77 124.32 42.77 124.32 91.66"/><rect class="cls-2" x="98.3" y="89.92" width="14.49" height="34.54"/><polygon class="cls-4" points="148.85 211.46 76.75 211.46 76.75 147.1 88.56 108.61 98.3 108.61 101.42 121.39 112.8 108.72 121.94 108.61 148.85 139.09 148.85 211.46"/><polygon class="cls-5" points="121.12 90.32 114.29 94.84 89.98 93.53 89.98 48.95 114.29 52.43 121.12 90.32"/><polygon class="cls-6" points="87.78 101.25 79.5 101.25 83.39 58.57 81.74 42.77 87.53 34.73 124.32 34.73 128.4 38.23 132.32 63.82 135.62 100.28 124.41 105.55 124.32 62.27 122.02 58.81 120.84 81 117.08 81 118.65 60 116.65 46.86 105.55 48.1 93.49 48.41 91 51.19 87.53 66.65 87.78 101.25"/><line class="cls-7" x1="80.65" y1="141.16" x2="41.16" y2="150.38"/><polygon class="cls-5" points="111.48 107.75 105.92 107.75 105.92 99.33 111.48 101.59 111.48 107.75"/><path class="cls-2" d="M99.26,65.26a1.45,1.45,0,1,1-1.45-1.44A1.44,1.44,0,0,1,99.26,65.26Z"/><path class="cls-2" d="M110.22,65.26A1.25,1.25,0,1,1,109,64,1.26,1.26,0,0,1,110.22,65.26Z"/><polygon class="cls-6" points="86.79 79 110.75 79.45 115.32 77.53 116.36 79.56 126.91 79.75 124.32 98.5 95.13 99.33 85.66 95.46 86.79 79"/><polygon class="cls-5" points="93.85 84.85 108.7 89.92 113.8 80.73 106.04 85.7 93.85 84.85"/><rect class="cls-2" x="108.21" y="54.15" width="4.03" height="11.1" transform="translate(36.55 161.12) rotate(-82.45)"/><rect class="cls-6" x="109.26" y="53.22" width="4.03" height="11.1" transform="translate(38.39 161.36) rotate(-82.45)"/><rect class="cls-2" x="91.75" y="56.64" width="9.94" height="4.03" transform="translate(-6.55 12.49) rotate(-7.15)"/><rect class="cls-6" x="91.06" y="55.65" width="9.94" height="4.03" transform="translate(-6.43 12.39) rotate(-7.15)"/><path class="cls-5" d="M104.07,79a1.8,1.8,0,1,1-1.78-2A1.9,1.9,0,0,1,104.07,79Z"/><rect class="cls-2" x="123.24" y="62.43" width="7.34" height="6.85"/><rect class="cls-2" x="76.98" y="62.43" width="7.34" height="6.85"/><polygon class="cls-8" points="93.85 133.95 88.56 108.61 76.75 147.1 76.75 211.46 98.3 211.46 93.85 133.95"/><polygon class="cls-4" points="139.47 153.88 156.02 153.88 156.02 135 131.28 121.04 139.47 153.88"/><polygon class="cls-8" points="134.62 134.44 103.33 201.63 83.91 205.3 82.41 186.63 131.28 122.13 134.62 134.44"/><polygon class="cls-8" points="98.32 109.52 96.6 114.16 97.46 127.24 102.28 124.45 110.48 110.9 101.42 121.39 98.32 109.52"/><polygon class="cls-3" points="126.38 113.63 96.6 155.14 76.75 167.54 75.44 171.96 76.75 199.4 100.69 194.69 137.32 124.45 130.57 116.92 127.91 113.63 126.38 113.63"/><polygon class="cls-8" points="79.68 153.88 67.6 153.88 67.6 135 85.66 121.04 79.68 153.88"/><rect class="cls-2" x="18.66" y="138.47" width="25" height="23"/><polygon class="cls-2" points="25.25 128.3 30.13 125.79 40.39 139.61 30.86 146.11 25.25 128.3"/><rect class="cls-2" x="15.41" y="138.75" width="6.75" height="6.6"/><rect class="cls-2" x="15.41" y="146.46" width="6.75" height="6.6"/><rect class="cls-2" x="15.41" y="154.16" width="6.75" height="6.6"/><polygon class="cls-8" points="148.85 154.27 138.65 150.59 143.09 156.52 148.85 157.87 148.85 154.27"/></g></svg>