<svg xmlns="http://www.w3.org/2000/svg" viewBox="0 0 224.36 231.32"><defs><style>.cls-1,.cls-7{fill:none;stroke:#f7931e;stroke-miterlimit:10;}.cls-1{stroke-width:15.19px;}.cls-2{fill:#f7931e;}.cls-3{fill:#468f99;}.cls-4{fill:#e8d6bc;}.cls-5{fill:#f4ca98;}.cls-6{fill:#754c24;}.cls-7{stroke-width:14px;}.cls-8{fill:#e5aa3c;}</style></defs><title>jesus_03</title><g id="Ebene_1" data-name="Ebene 1"><line class="cls-1" x1="135.92" y1="136.88" x2="182.42" y2="146.1"/><rect class="cls-2" x="179.48" y="134.2" width="29.44" height="23"/><polygon class="cls-2" points="201.16 124.02 195.42 121.51 183.33 135.33 194.55 141.84 201.16 124.02"/><rect class="cls-2" x="151.94" y="134.48" width="7.95" height="6.6"/><rect class="cls-2" x="151.94" y="142.18" width="7.95" height="6.6"/><rect class="cls-2" x="151.94" y="149.88" width="7.95" height="6.6"/><path class="cls-3" d="M156.82,223.71c0,1.6-19,2.9-42.36,2.9s-42.36-1.3-42.36-2.9,19-2.91,42.36-2.91S156.82,222.1,156.82,223.71Z"/><polygon class="cls-2" points="126.28 84.3 121.3 88.1 89.48 88.1 89.48 35.41 126.28 35.41 126.28 84.3"/><rect class="cls-2" x="100.26" y="82.56" width="14.49" height="34.54"/><polygon class="cls-4" points="150.81 204.1 78.7 204.1 78.7 139.74 90.52 101.25 100.26 101.25 103.38 114.03 114.76 101.36 123.9 101.25 150.81 131.72 150.81 204.1"/><polygon class="cls-5" points="123.08 82.96 116.25 87.48 91.94 86.17 91.94 41.59 116.25 45.07 123.08 82.96"/><polygon class="cls-6" points="89.73 93.89 81.46 93.89 85.35 51.21 83.7 35.41 89.48 27.37 126.28 27.37 130.36 30.87 134.28 56.45 137.57 92.92 126.37 98.19 126.28 54.91 123.98 51.45 122.8 73.64 119.04 73.64 120.61 52.64 118.61 39.5 107.51 40.74 95.45 41.05 92.96 43.83 89.48 59.29 89.73 93.89"/><line class="cls-7" x1="82.61" y1="133.8" x2="43.12" y2="143.02"/><polygon class="cls-5" points="113.44 100.39 107.88 100.39 107.88 91.97 113.44 94.23 113.44 100.39"/><path class="cls-2" d="M101.22,57.9a1.45,1.45,0,1,1-1.45-1.44A1.44,1.44,0,0,1,101.22,57.9Z"/><path class="cls-2" d="M112.18,57.9a1.25,1.25,0,1,1-1.25-1.25A1.26,1.26,0,0,1,112.18,57.9Z"/><polygon class="cls-6" points="88.75 71.64 112.71 72.09 117.28 70.17 118.32 72.2 128.87 72.39 126.28 91.14 97.09 91.97 87.62 88.1 88.75 71.64"/><polygon class="cls-5" points="95.81 77.49 110.66 82.56 115.76 73.37 108 78.34 95.81 77.49"/><rect class="cls-2" x="110.17" y="46.79" width="4.03" height="11.1" transform="translate(45.55 156.67) rotate(-82.45)"/><rect class="cls-6" x="111.22" y="45.86" width="4.03" height="11.1" transform="translate(47.39 156.91) rotate(-82.45)"/><rect class="cls-2" x="93.71" y="49.28" width="9.94" height="4.03" transform="translate(-5.61 12.67) rotate(-7.15)"/><rect class="cls-6" x="93.02" y="48.29" width="9.94" height="4.03" transform="translate(-5.5 12.58) rotate(-7.15)"/><path class="cls-5" d="M106,71.64a1.8,1.8,0,1,1-1.78-2A1.9,1.9,0,0,1,106,71.64Z"/><rect class="cls-2" x="125.2" y="55.07" width="7.34" height="6.85"/><rect class="cls-2" x="78.94" y="55.07" width="7.34" height="6.85"/><polygon class="cls-8" points="95.81 126.58 90.52 101.25 78.7 139.74 78.7 204.1 100.26 204.1 95.81 126.58"/><polygon class="cls-4" points="141.43 146.51 157.98 146.51 157.98 127.64 133.24 113.68 141.43 146.51"/><polygon class="cls-8" points="136.58 127.08 105.28 194.27 85.87 197.94 84.37 179.27 133.24 114.77 136.58 127.08"/><polygon class="cls-8" points="100.28 102.16 98.56 106.8 99.42 119.88 104.25 117.09 112.44 103.53 103.38 114.03 100.28 102.16"/><polygon class="cls-3" points="128.34 106.27 98.56 147.78 78.7 160.18 77.4 164.6 78.7 192.04 102.65 187.33 139.28 117.09 132.53 109.56 129.87 106.27 128.34 106.27"/><polygon class="cls-8" points="81.64 146.51 69.56 146.51 69.56 127.64 87.62 113.68 81.64 146.51"/><rect class="cls-2" x="20.62" y="131.11" width="25" height="23"/><polygon class="cls-2" points="27.21 120.94 32.09 118.43 42.35 132.25 32.82 138.75 27.21 120.94"/><rect class="cls-2" x="17.37" y="131.39" width="6.75" height="6.6"/><rect class="cls-2" x="17.37" y="139.09" width="6.75" height="6.6"/><rect class="cls-2" x="17.37" y="146.79" width="6.75" height="6.6"/><polygon class="cls-8" points="150.81 146.91 140.61 143.23 145.04 149.16 150.81 150.51 150.81 146.91"/></g></svg>