<svg xmlns="http://www.w3.org/2000/svg" viewBox="0 0 226.4 239.08"><defs><style>.cls-1,.cls-13,.cls-8{fill:none;stroke-miterlimit:10;}.cls-1,.cls-8{stroke:#f7931e;}.cls-1{stroke-width:15.19px;}.cls-2{fill:#f7931e;}.cls-3{fill:#468f99;}.cls-4{fill:#e8d6bc;}.cls-5{fill:#f4ca98;}.cls-6{fill:#754c24;}.cls-7{fill:#e5aa3c;}.cls-8{stroke-width:14px;}.cls-9{fill:#d45c28;}.cls-10{fill:#fcea10;}.cls-11{fill:#3aaa35;}.cls-12{fill:#3c3c3b;}.cls-13{stroke:#3c3c3b;}</style></defs><title>jesus_hippie</title><g id="Ebene_8" data-name="Ebene 8"><line class="cls-1" x1="137.83" y1="144.24" x2="184.33" y2="153.46"/><rect class="cls-2" x="181.39" y="141.56" width="29.44" height="23"/><polygon class="cls-2" points="203.07 131.38 197.33 128.88 185.24 142.69 196.46 149.2 203.07 131.38"/><path class="cls-3" d="M158.73,231.07c0,1.6-19,2.9-42.36,2.9S74,232.67,74,231.07s19-2.91,42.35-2.91S158.73,229.46,158.73,231.07Z"/><polygon class="cls-2" points="128.19 91.66 123.21 95.46 91.4 95.46 91.4 42.77 128.19 42.77 128.19 91.66"/><rect class="cls-2" x="102.17" y="89.92" width="14.49" height="34.54"/><polygon class="cls-4" points="152.72 211.46 80.62 211.46 80.62 147.1 92.43 108.61 102.17 108.61 105.29 121.39 116.67 108.72 125.81 108.61 152.72 139.09 152.72 211.46"/><polygon class="cls-5" points="124.99 90.32 118.17 94.84 93.86 93.53 93.86 48.95 118.17 52.43 124.99 90.32"/><polygon class="cls-6" points="91.65 101.25 83.37 101.25 87.26 58.57 85.61 42.77 91.4 34.73 128.19 34.73 132.27 38.23 136.19 63.82 139.49 100.28 128.28 105.55 128.19 62.27 125.89 58.81 124.71 81 120.95 81 122.52 60 120.52 46.86 109.42 48.1 97.37 48.41 94.87 51.19 91.4 66.65 91.65 101.25"/><polygon class="cls-5" points="115.36 107.75 109.79 107.75 109.79 99.33 115.36 101.59 115.36 107.75"/><path class="cls-2" d="M103.13,65.26a1.45,1.45,0,1,1-1.45-1.44A1.44,1.44,0,0,1,103.13,65.26Z"/><path class="cls-2" d="M114.1,65.26a1.26,1.26,0,1,1-2.51,0,1.26,1.26,0,0,1,2.51,0Z"/><polygon class="cls-6" points="90.66 79 130.78 79.75 128.19 98.5 99 99.33 89.53 95.46 90.66 79"/><polygon class="cls-5" points="95.64 84.09 102.41 93.48 114.91 92.54 124.1 84.09 106.16 85.79 95.64 84.09"/><rect class="cls-2" x="112.08" y="54.15" width="4.03" height="11.1" transform="translate(39.91 164.96) rotate(-82.45)"/><rect class="cls-6" x="113.13" y="53.22" width="4.03" height="11.1" transform="translate(41.76 165.19) rotate(-82.45)"/><rect class="cls-2" x="95.62" y="56.64" width="9.94" height="4.03" transform="translate(-6.52 12.97) rotate(-7.15)"/><rect class="cls-6" x="94.93" y="55.65" width="9.94" height="4.03" transform="translate(-6.4 12.87) rotate(-7.15)"/><path class="cls-5" d="M107.94,79a1.8,1.8,0,1,1-1.78-2A1.9,1.9,0,0,1,107.94,79Z"/><rect class="cls-2" x="127.11" y="62.43" width="7.34" height="6.85"/><rect class="cls-2" x="80.85" y="62.43" width="7.34" height="6.85"/><polygon class="cls-7" points="97.72 133.95 92.43 108.61 80.62 147.1 80.62 211.46 102.17 211.46 97.72 133.95"/><polygon class="cls-4" points="143.34 153.88 159.89 153.88 159.89 135 135.15 121.04 143.34 153.88"/><polygon class="cls-7" points="138.49 134.44 107.2 201.63 87.78 205.3 86.28 186.63 135.15 122.13 138.49 134.44"/><polygon class="cls-7" points="102.19 109.52 100.47 114.16 101.33 127.24 106.16 124.45 114.36 110.9 105.29 121.39 102.19 109.52"/><polygon class="cls-3" points="130.25 113.63 100.47 155.14 80.62 167.54 79.31 171.96 80.62 199.4 104.56 194.69 141.19 124.45 134.44 116.92 131.78 113.63 130.25 113.63"/><polygon class="cls-7" points="83.55 153.88 71.47 153.88 71.47 135 89.53 121.04 83.55 153.88"/><line class="cls-8" x1="79.9" y1="147.3" x2="72.43" y2="187.17"/><rect class="cls-2" x="62.43" y="184.18" width="23" height="24.99" transform="translate(-6.39 2.52) rotate(-1.87)"/><polygon class="cls-7" points="152.72 154.27 142.52 150.59 146.96 156.52 152.72 157.87 152.72 154.27"/><polygon class="cls-3" points="159.89 135 138.42 122.89 125.81 108.61 116.67 108.72 105.29 121.39 102.17 108.61 92.43 108.61 88.33 121.97 71.47 135 71.47 153.88 80.62 153.88 80.62 211.46 152.72 211.46 152.72 153.88 159.89 153.88 159.89 135"/><rect class="cls-9" x="80.62" y="177.56" width="72.1" height="7.36"/><rect class="cls-10" x="80.62" y="204.77" width="72.1" height="6.68"/><polygon class="cls-11" points="71.47 150.34 71.47 153.88 80.62 153.88 80.62 157.7 152.72 157.7 152.72 153.88 159.89 153.88 159.89 150.34 71.47 150.34"/><rect class="cls-10" x="80.62" y="163.95" width="72.1" height="7.36"/><rect class="cls-11" x="80.62" y="191.17" width="72.1" height="7.36"/><polygon class="cls-9" points="115.95 109.52 109.34 116.88 133.12 116.88 126.62 109.52 115.95 109.52"/><polygon class="cls-9" points="92.15 109.52 89.89 116.88 104.19 116.88 102.4 109.52 92.15 109.52"/><rect class="cls-10" x="71.48" y="136.74" width="88.41" height="7.36"/><polygon class="cls-11" points="86.83 123.13 77.31 130.49 151.89 130.49 138.84 123.13 86.83 123.13"/><rect class="cls-10" x="80.5" y="45.13" width="57.33" height="6.5"/><path class="cls-12" d="M119.81,65.26a5.45,5.45,0,1,1-5.45-5.45A5.45,5.45,0,0,1,119.81,65.26Z"/><path class="cls-12" d="M107.21,65.26a5.45,5.45,0,1,1-5.45-5.45A5.45,5.45,0,0,1,107.21,65.26Z"/><polyline class="cls-13" points="105.41 64.85 108.12 63.05 110.52 64.72"/></g></svg>