<svg xmlns="http://www.w3.org/2000/svg" xmlns:xlink="http://www.w3.org/1999/xlink" viewBox="0 0 85.13 111.53"><defs><style>.cls-1{fill:#822a2a;}.cls-2{fill:url(#linear-gradient);}.cls-3{fill:url(#linear-gradient-2);}.cls-4{fill:url(#linear-gradient-3);}.cls-5{fill:url(#linear-gradient-4);}.cls-6{fill:url(#linear-gradient-5);}.cls-7{fill:url(#linear-gradient-6);}.cls-8{fill:url(#linear-gradient-7);}.cls-9{fill:url(#linear-gradient-8);}.cls-10{fill:url(#linear-gradient-9);}.cls-11,.cls-14{fill:#dd992e;}.cls-12{fill:#d45c28;}.cls-13{fill:none;}.cls-13,.cls-14{stroke:#d45c28;stroke-miterlimit:10;stroke-width:1.29px;}.cls-15{fill:#f4ca98;}</style><linearGradient id="linear-gradient" x1="45.32" y1="14.32" x2="45.06" y2="5.93" gradientUnits="userSpaceOnUse"><stop offset="0" stop-color="#ffeeb8"/><stop offset="1" stop-color="#ffeeb8" stop-opacity="0"/></linearGradient><linearGradient id="linear-gradient-2" x1="7.75" y1="-573.89" x2="7.48" y2="-582.31" gradientTransform="matrix(0.93, 0.36, -0.36, 0.93, -154.25, 551.31)" xlink:href="#linear-gradient"/><linearGradient id="linear-gradient-3" x1="-503.78" y1="-1342.55" x2="-504.05" y2="-1350.97" gradientTransform="translate(-743.55 1208.54) rotate(55.06)" xlink:href="#linear-gradient"/><linearGradient id="linear-gradient-4" x1="-198.81" y1="800.74" x2="-199.07" y2="792.31" gradientTransform="matrix(0.91, -0.42, 0.42, 0.91, -125.35, -798.16)" xlink:href="#linear-gradient"/><linearGradient id="linear-gradient-5" x1="-2134.64" y1="1689.34" x2="-2134.9" y2="1680.92" gradientTransform="matrix(-0.12, -0.99, 0.99, -0.12, -1920.48, -1880.4)" xlink:href="#linear-gradient"/><linearGradient id="linear-gradient-6" x1="-3146.64" y1="1168.06" x2="-3146.9" y2="1159.63" gradientTransform="matrix(-0.69, -0.72, 0.72, -0.69, -2996.25, -1415.39)" xlink:href="#linear-gradient"/><linearGradient id="linear-gradient-7" x1="-3530.99" y1="605.64" x2="-3531.25" y2="597.21" gradientTransform="matrix(-0.91, -0.4, 0.41, -0.91, -3433.38, -829.91)" xlink:href="#linear-gradient"/><linearGradient id="linear-gradient-8" x1="-3609.81" y1="-552.98" x2="-3610.08" y2="-561.41" gradientTransform="matrix(-0.96, 0.29, -0.29, -0.96, -3557.58, 557.9)" xlink:href="#linear-gradient"/><linearGradient id="linear-gradient-9" x1="-2919.34" y1="-1427.49" x2="-2919.61" y2="-1435.91" gradientTransform="matrix(-0.53, 0.85, -0.85, -0.53, -2683.06, 1769.79)" xlink:href="#linear-gradient"/></defs><title>kapitelbild</title><g id="Ebene_1" data-name="Ebene 1"><path class="cls-1" d="M70.5,106.74c0,1.07-12.79,1.93-28.56,1.93s-28.56-.86-28.56-1.93,12.79-1.92,28.56-1.92S70.5,105.68,70.5,106.74Z"/><polygon class="cls-2" points="42.1 19.36 44.29 19.96 49.19 11.45 41.22 10.12 42.1 19.36"/><polygon class="cls-3" points="55.47 22.45 57.29 23.8 63.49 17.06 56.53 12.96 55.47 22.45"/><polygon class="cls-4" points="63.49 28.16 64.24 30.3 73.14 28.18 69.67 20.88 63.49 28.16"/><polygon class="cls-5" points="28.77 17.71 31.01 17.35 30.51 8.21 22.71 10.32 28.77 17.71"/><polygon class="cls-6" points="23.94 30.76 24.27 28.51 15.41 26.22 15.07 34.29 23.94 30.76"/><polygon class="cls-7" points="31.63 39.79 30.56 37.79 22.09 41.27 26.65 47.94 31.63 39.79"/><polygon class="cls-8" points="43.09 42.1 41.34 40.66 34.81 47.08 41.56 51.52 43.09 42.1"/><polygon class="cls-9" points="57.17 44.8 54.9 44.85 54.12 53.97 62.13 52.96 57.17 44.8"/><polygon class="cls-10" points="66.33 39.17 64.66 40.71 70.11 48.06 75.45 41.99 66.33 39.17"/><polygon class="cls-1" points="45.2 97.65 17.49 94.24 17.49 66.95 45.2 62.34 45.2 97.65"/><polygon class="cls-11" points="45.2 97.65 72.43 94.24 71.98 85 72.43 70.96 45.2 62.34 44.62 85 45.2 97.65"/><polygon class="cls-1" points="39.59 81.94 17.49 79.99 17.49 66.95 45.2 62.34 39.59 81.94"/><polygon class="cls-11" points="37.21 74.96 6.69 77.64 17.49 66.95 45.2 62.34 37.21 74.96"/><polygon class="cls-1" points="47.72 79.67 72.21 77.95 72.43 70.96 45.2 62.34 47.72 79.67"/><polygon class="cls-11" points="56 73.64 81.36 77.95 72.43 70.96 45.2 62.34 56 73.64"/><path class="cls-12" d="M58.7,87.23a4.24,4.24,0,0,1,0,1.06,2.43,2.43,0,0,1-.24.89,1.74,1.74,0,0,1-.52.65,2,2,0,0,1-.83.37,2.34,2.34,0,0,1-.45.07,3.53,3.53,0,0,1-.46,0l-.07-.94a.3.3,0,0,1,.05-.21A.29.29,0,0,1,56.4,89h.17l.24,0a.77.77,0,0,0,.32-.13.61.61,0,0,0,.21-.26,1.31,1.31,0,0,0,.08-.42,3.5,3.5,0,0,0,0-.61l-.66-4.4L58,82.86Z"/><path class="cls-12" d="M59.56,88.88a.88.88,0,0,1,0-.29.74.74,0,0,1,.14-.23.62.62,0,0,1,.2-.16.7.7,0,0,1,.25,0,.51.51,0,0,1,.25.06.64.64,0,0,1,.2.16.7.7,0,0,1,.13.24.71.71,0,0,1,0,.29.93.93,0,0,1,0,.29,1,1,0,0,1-.14.24.8.8,0,0,1-.21.15.64.64,0,0,1-.24,0,.55.55,0,0,1-.26-.06.58.58,0,0,1-.19-.16.7.7,0,0,1-.13-.24A.71.71,0,0,1,59.56,88.88Z"/><path class="cls-12" d="M64.76,88.22h.07a.17.17,0,0,1,.06.06l.37.48a1.66,1.66,0,0,1-.63.58,2.06,2.06,0,0,1-1.73,0,2.14,2.14,0,0,1-.62-.54,2.54,2.54,0,0,1-.39-.81,3.33,3.33,0,0,1-.12-1,3,3,0,0,1,.17-1,2.43,2.43,0,0,1,.45-.79A2,2,0,0,1,64,84.48a2,2,0,0,1,.44,0,2.15,2.15,0,0,1,.38.15,1.85,1.85,0,0,1,.33.21,1.66,1.66,0,0,1,.26.27l-.33.52a.27.27,0,0,1-.07.08.16.16,0,0,1-.12,0,.17.17,0,0,1-.1,0l-.09-.07-.11-.09a.53.53,0,0,0-.15-.08.84.84,0,0,0-.19-.07l-.26,0a1.06,1.06,0,0,0-.48.11,1,1,0,0,0-.37.31,1.42,1.42,0,0,0-.25.49,2.17,2.17,0,0,0-.09.65,2.37,2.37,0,0,0,.07.68,1.55,1.55,0,0,0,.23.5,1,1,0,0,0,.34.32.92.92,0,0,0,.43.11h.23l.2,0a.61.61,0,0,0,.18-.09,1.14,1.14,0,0,0,.17-.15l.08-.05A.11.11,0,0,1,64.76,88.22Z"/><path class="cls-12" d="M65.81,88a.58.58,0,0,1,0-.19.38.38,0,0,1,.09-.15.45.45,0,0,1,.13-.11.47.47,0,0,1,.17,0,.33.33,0,0,1,.17,0,.45.45,0,0,1,.13.11.38.38,0,0,1,.09.15.64.64,0,0,1,0,.2.41.41,0,0,1,0,.19.51.51,0,0,1-.09.16.36.36,0,0,1-.14.1.29.29,0,0,1-.16,0,.33.33,0,0,1-.17,0,.41.41,0,0,1-.13-.1.51.51,0,0,1-.09-.16A.64.64,0,0,1,65.81,88Z"/><line class="cls-13" x1="53.85" y1="92.31" x2="67.35" y2="90.75"/><line class="cls-14" x1="53.16" y1="81.04" x2="66.82" y2="81.74"/><polygon class="cls-12" points="71.98 85 69.22 85.37 71.98 85.37 71.98 85"/><polygon class="cls-12" points="43.87 85 49.4 85 44.14 85.37 43.87 85"/><polyline class="cls-12" points="6.69 77.64 6.69 78.26 37.21 74.96"/><polyline class="cls-12" points="56 73.64 80.94 78.26 81.36 77.95"/><path class="cls-15" d="M59.75,34,39.62,27.69l.53.37-4.29-7.24-2.19-.69H31.43l-1.31,4.16,1.1,1.83L29.27,27,28,31.12l1.67,1.52,2.28.72,7.77-3.85-.59.09,12.58,4-2.4,7.6,1.9.6,1-3.28,2,.63-1,3.27,1.9.6,2.4-7.6,2,.62.52-1.66Zm-28-2.39-1.32-.42-.64-.59.77-2.45,3-1.31-1.67-2.78.73-2.34h.81l1.36.43,3.65,6.16Z"/><rect class="cls-15" x="49.79" y="21.85" width="0.54" height="19.58" transform="translate(4.85 69.89) rotate(-72.53)"/><polygon class="cls-15" points="39.15 27.94 35.23 21.38 35.7 21.12 39.37 27.26 39.15 27.94"/><rect class="cls-15" x="34.37" y="20.18" width="0.27" height="1.41" transform="translate(4.23 47.53) rotate(-72.53)"/><rect class="cls-15" x="30.97" y="31.33" width="0.24" height="1.27" transform="translate(-8.73 52.02) rotate(-72.53)"/></g></svg>