<svg xmlns="http://www.w3.org/2000/svg" viewBox="0 0 85.13 111.53"><defs><style>.cls-1{fill:#c24a4a;}.cls-2,.cls-7{fill:none;stroke:#f4ca98;stroke-miterlimit:10;}.cls-2{stroke-width:5.87px;}.cls-3{fill:#f4ca98;}.cls-4{fill:#f7931e;}.cls-5{fill:#e8d6bc;}.cls-6{fill:#754c24;}.cls-7{stroke-width:5.41px;}.cls-8{fill:#e5aa3c;}.cls-9{fill:#468f99;}</style></defs><title>kapitelbild_4</title><g id="Bcakground"><path class="cls-1" d="M57.78,88.23c-18-2.67-21.43,4.94-32.85,4.15S13.66,82.11,17.5,77.61s.36-5.11.07-13.88S1.9,47.33,16.65,38.24s21.44,13.2,29.27,10.3,18.6-14.15,17-3.29C58.57,74.88,75.73,90.9,57.78,88.23Z"/><circle class="cls-1" cx="64.62" cy="36.76" r="1.24"/></g><g id="Ebene_8" data-name="Ebene 8"><line class="cls-2" x1="50.06" y1="57.07" x2="68.01" y2="60.63"/><rect class="cls-3" x="66.87" y="56.04" width="11.37" height="8.88"/><polygon class="cls-3" points="75.24 52.11 73.03 51.14 68.36 56.47 72.69 58.99 75.24 52.11"/><rect class="cls-4" x="56.24" y="56.14" width="3.07" height="2.55"/><rect class="cls-4" x="56.24" y="59.12" width="3.07" height="2.55"/><path class="cls-4" d="M58.12,90.6c0,.62-7.32,1.12-16.35,1.12s-16.35-.5-16.35-1.12,7.32-1.13,16.35-1.13S58.12,90,58.12,90.6Z"/><polygon class="cls-4" points="46.33 36.77 44.41 38.24 32.13 38.24 32.13 17.9 46.33 17.9 46.33 36.77"/><rect class="cls-4" x="36.29" y="36.1" width="5.6" height="13.33"/><polygon class="cls-5" points="55.8 83.03 27.96 83.03 27.96 58.18 32.53 43.31 36.29 43.31 37.49 48.25 41.88 43.36 45.41 43.31 55.8 55.08 55.8 83.03"/><polygon class="cls-3" points="45.1 36.25 42.46 38 33.08 37.49 33.08 20.28 42.46 21.63 45.1 36.25"/><polygon class="cls-6" points="32.22 40.48 29.03 40.48 30.53 24 29.89 17.9 32.13 14.79 46.33 14.79 47.91 16.14 49.42 26.02 50.69 40.1 46.37 42.14 46.33 25.42 45.45 24.09 44.99 32.66 43.54 32.66 44.14 24.55 43.37 19.47 39.09 19.95 34.43 20.07 33.47 21.15 32.13 27.12 32.22 40.48"/><line class="cls-7" x1="29.47" y1="55.88" x2="14.23" y2="59.44"/><polygon class="cls-3" points="41.38 42.98 39.23 42.98 39.23 39.73 41.38 40.6 41.38 42.98"/><path class="cls-4" d="M36.66,26.58A.56.56,0,1,1,36.1,26,.56.56,0,0,1,36.66,26.58Z"/><path class="cls-4" d="M40.89,26.58a.49.49,0,1,1-.48-.48A.48.48,0,0,1,40.89,26.58Z"/><polygon class="cls-6" points="31.84 31.89 41.09 32.06 42.86 31.32 43.26 32.1 47.33 32.17 46.33 39.41 35.06 39.73 31.41 38.24 31.84 31.89"/><polygon class="cls-3" points="34.57 34.14 40.3 36.1 42.27 32.55 39.27 34.47 34.57 34.14"/><rect class="cls-4" x="40.11" y="22.29" width="1.56" height="4.29" transform="matrix(0.13, -0.99, 0.99, 0.13, 11.29, 61.76)"/><rect class="cls-6" x="40.52" y="21.93" width="1.56" height="4.29" transform="translate(12.01 61.85) rotate(-82.45)"/><rect class="cls-4" x="33.76" y="23.25" width="3.84" height="1.56" transform="translate(-2.71 4.62) rotate(-7.15)"/><rect class="cls-6" x="33.49" y="22.87" width="3.84" height="1.56" transform="translate(-2.67 4.59) rotate(-7.15)"/><path class="cls-3" d="M38.52,31.89a.7.7,0,1,1-.69-.78A.74.74,0,0,1,38.52,31.89Z"/><rect class="cls-4" x="45.92" y="25.49" width="2.84" height="2.64"/><rect class="cls-4" x="28.05" y="25.49" width="2.84" height="2.64"/><polygon class="cls-8" points="34.57 53.1 32.53 43.31 27.96 58.18 27.96 83.03 36.29 83.03 34.57 53.1"/><polygon class="cls-5" points="52.18 60.79 58.57 60.79 58.57 53.5 49.02 48.12 52.18 60.79"/><polygon class="cls-8" points="50.31 53.29 38.23 79.23 30.73 80.65 30.15 73.44 49.02 48.54 50.31 53.29"/><polygon class="cls-8" points="36.29 43.67 35.63 45.46 35.96 50.51 37.83 49.43 40.99 44.2 37.49 48.25 36.29 43.67"/><polygon class="cls-9" points="47.13 45.25 35.63 61.28 27.96 66.07 27.46 67.78 27.96 78.37 37.21 76.55 51.35 49.43 48.74 46.52 47.72 45.25 47.13 45.25"/><polygon class="cls-8" points="29.1 60.79 24.43 60.79 24.43 53.5 31.41 48.12 29.1 60.79"/><rect class="cls-3" x="5.54" y="54.85" width="9.65" height="8.88"/><polygon class="cls-3" points="8.08 50.92 9.96 49.95 13.93 55.28 10.25 57.8 8.08 50.92"/><rect class="cls-3" x="4.28" y="54.95" width="2.61" height="2.55"/><rect class="cls-3" x="4.28" y="57.93" width="2.61" height="2.55"/><rect class="cls-3" x="4.28" y="60.9" width="2.61" height="2.55"/><polygon class="cls-8" points="55.8 60.95 51.87 59.52 53.58 61.81 55.8 62.33 55.8 60.95"/></g></svg>