<svg xmlns="http://www.w3.org/2000/svg" xmlns:xlink="http://www.w3.org/1999/xlink" viewBox="0 0 795.3 387.48"><defs><style>.cls-1{fill:#ffeeb8;}.cls-2{fill:#c24a4a;}.cls-3{fill:#e56a6a;}.cls-4{fill:url(#linear-gradient);}.cls-5{fill:url(#linear-gradient-2);}.cls-6{fill:url(#linear-gradient-3);}.cls-7{fill:url(#linear-gradient-4);}.cls-8{fill:url(#linear-gradient-5);}.cls-9{fill:url(#linear-gradient-6);}.cls-10{fill:url(#linear-gradient-7);}.cls-11{fill:url(#linear-gradient-8);}.cls-12{fill:url(#linear-gradient-9);}.cls-13{fill:#d45c28;}.cls-14,.cls-16{fill:#dd992e;}.cls-15{fill:none;}.cls-15,.cls-16{stroke:#d45c28;stroke-miterlimit:10;stroke-width:4.32px;}</style><linearGradient id="linear-gradient" x1="371.59" y1="48.83" x2="370.51" y2="14.52" gradientUnits="userSpaceOnUse"><stop offset="0" stop-color="#ffeeb8"/><stop offset="1" stop-color="#ffeeb8" stop-opacity="0"/></linearGradient><linearGradient id="linear-gradient-2" x1="2579.49" y1="275.64" x2="2578.4" y2="241.17" gradientTransform="matrix(0.93, 0.36, -0.36, 0.93, -1881.94, -1117.18)" xlink:href="#linear-gradient"/><linearGradient id="linear-gradient-3" x1="5837.86" y1="-995.28" x2="5836.77" y2="-1029.75" gradientTransform="translate(-3692.63 -4116.58) rotate(55.06)" xlink:href="#linear-gradient"/><linearGradient id="linear-gradient-4" x1="-1922.42" y1="-1076.64" x2="-1923.5" y2="-1111.12" gradientTransform="matrix(0.91, -0.42, 0.42, 0.91, 2498.04, 217.11)" xlink:href="#linear-gradient"/><linearGradient id="linear-gradient-5" x1="-3618.11" y1="-7850.9" x2="-3619.19" y2="-7885.37" gradientTransform="matrix(-0.12, -0.99, 0.99, -0.12, 7609.92, -4441.48)" xlink:href="#linear-gradient"/><linearGradient id="linear-gradient-6" x1="-1226.97" y1="-10636.74" x2="-1228.05" y2="-10671.21" gradientTransform="matrix(-0.69, -0.72, 0.72, -0.69, 7114.75, -8095.14)" xlink:href="#linear-gradient"/><linearGradient id="linear-gradient-7" x1="861.11" y1="-11375.67" x2="860.02" y2="-11410.15" gradientTransform="matrix(-0.91, -0.4, 0.41, -0.91, 5747.78, -9868.1)" xlink:href="#linear-gradient"/><linearGradient id="linear-gradient-8" x1="4775.53" y1="-10502.85" x2="4774.45" y2="-10537.33" gradientTransform="matrix(-0.96, 0.29, -0.29, -0.96, 1980.29, -11237)" xlink:href="#linear-gradient"/><linearGradient id="linear-gradient-9" x1="7199.08" y1="-7138.97" x2="7197.99" y2="-7173.44" gradientTransform="matrix(-0.53, 0.85, -0.85, -0.53, -1795.29, -9704.82)" xlink:href="#linear-gradient"/></defs><title>schluesselbox_breit</title><g id="Bcakground"><path class="cls-1" d="M646.72,200c.33,2-19.39,1.43-41.93,5.29s-39.36,6.65-39.7,4.68,15.82-8.94,38.36-12.8S646.38,198,646.72,200Z"/><path class="cls-1" d="M163.2,248.53c-.13,2-19.21-3-42-4.43s-39.84-2.52-39.72-4.51,17.44-5.09,40.27-3.7S163.32,246.54,163.2,248.53Z"/><path class="cls-1" d="M13.49,313.67c1.29-1.52,9,18.64,26.38,33.44s34.52,17.2,33.23,18.72S52,368.14,34.51,353.35,12.2,315.19,13.49,313.67Z"/><path class="cls-1" d="M686.77,329.93c-1.15-1.63,16.86-9.69,35.5-22.93s30.85-26.66,32-25-8.65,18.52-27.29,31.76S687.93,331.56,686.77,329.93Z"/><circle class="cls-1" cx="22.33" cy="293.6" r="1.72"/><circle class="cls-1" cx="168.55" cy="249" r="2.09"/><ellipse class="cls-1" cx="659.77" cy="201.79" rx="3.43" ry="1.37"/></g><g id="Ebene_8" data-name="Ebene 8"><path class="cls-1" d="M127.11,361.06c-52.4,6.14-76.74-11.74-76.74-11.74s-59.27-47-24-80.19S110.2,245.94,155.27,253,209.62,282.4,292.9,274s135.47-35.71,225.6-49.34,111.37-24.72,169-9.52,76.25,38.85,54.59,65.65-71,56-128,61.51S179.5,354.93,127.11,361.06Z"/><path class="cls-2" d="M430.64,129.42,348.27,103.5l2.16,1.53L332.89,75.4l-9-2.82h-9.15l-5.37,17,4.52,7.48-8,3.53-5.33,16.92,6.83,6.23,9.32,2.94,31.8-15.78-2.42.39,51.44,16.19-9.78,31.08,7.77,2.45,4.21-13.39,8.1,2.55-4.21,13.39,7.77,2.45L421.24,135l8,2.52,2.13-6.78Zm-114.42-9.8-5.4-1.7-2.64-2.41,3.17-10.05,12.11-5.36L316.6,88.76l3-9.58h3.3l5.58,1.76,14.92,25.19Z"/><rect class="cls-3" x="389.87" y="79.61" width="2.22" height="80.09" transform="translate(159.46 456.67) rotate(-72.53)"/><polygon class="cls-3" points="346.36 104.55 330.33 77.71 332.26 76.63 347.25 101.74 346.36 104.55"/><rect class="cls-3" x="326.81" y="72.79" width="1.12" height="5.77" transform="translate(156.93 365.24) rotate(-72.53)"/><rect class="cls-3" x="312.9" y="118.39" width="1" height="5.21" transform="translate(103.89 383.6) rotate(-72.53)"/><path class="cls-2" d="M456.14,344.68c0,3.58-43,6.47-95.95,6.47s-95.94-2.89-95.94-6.47,42.95-6.47,95.94-6.47S456.14,341.11,456.14,344.68Z"/><polygon class="cls-4" points="358.42 69.43 367.37 71.92 387.43 37.09 354.84 31.63 358.42 69.43"/><polygon class="cls-5" points="413.11 82.08 420.57 87.61 445.9 60.03 417.43 43.25 413.11 82.08"/><polygon class="cls-6" points="445.9 105.43 448.98 114.19 485.41 105.51 471.21 75.67 445.9 105.43"/><polygon class="cls-7" points="303.89 62.69 313.05 61.21 311.01 23.82 279.12 32.47 303.89 62.69"/><polygon class="cls-8" points="284.14 116.06 285.51 106.87 249.25 97.51 247.85 130.51 284.14 116.06"/><polygon class="cls-9" points="315.61 153 311.2 144.84 276.56 159.07 295.22 186.33 315.61 153"/><polygon class="cls-10" points="362.48 162.45 355.31 156.55 328.62 182.81 356.2 200.99 362.48 162.45"/><polygon class="cls-11" points="420.05 173.51 410.77 173.69 407.59 211 440.36 206.86 420.05 173.51"/><polygon class="cls-12" points="454.37 159.95 447.53 166.23 469.85 196.29 491.68 171.48 454.37 159.95"/><polygon class="cls-13" points="371.13 314.13 278.06 302.69 278.06 211 371.13 195.5 371.13 314.13"/><polygon class="cls-14" points="371.13 314.13 462.63 302.69 461.1 271.63 462.63 224.49 371.13 195.5 369.18 271.63 371.13 314.13"/><polygon class="cls-2" points="352.3 261.36 278.06 254.82 278.06 211 371.13 195.5 352.3 261.36"/><polygon class="cls-14" points="344.32 237.92 241.78 246.91 278.06 211 371.13 195.5 344.32 237.92"/><polygon class="cls-13" points="379.59 253.75 461.87 247.96 462.63 224.49 371.13 195.5 379.59 253.75"/><polygon class="cls-14" points="407.42 233.48 492.61 247.96 462.63 224.49 371.13 195.5 407.42 233.48"/><path class="cls-13" d="M416.48,279.12a14.66,14.66,0,0,1,.12,3.59,8.34,8.34,0,0,1-.8,3,6.08,6.08,0,0,1-1.77,2.19,6.64,6.64,0,0,1-2.78,1.25,13.12,13.12,0,0,1-1.49.23,11.69,11.69,0,0,1-1.57,0L408,286.2a1.19,1.19,0,0,1,.17-.73,1,1,0,0,1,.64-.39,2,2,0,0,1,.57,0,3.53,3.53,0,0,0,.8-.08,2.92,2.92,0,0,0,1.09-.46,2,2,0,0,0,.69-.88,4,4,0,0,0,.27-1.41,10.87,10.87,0,0,0-.13-2l-2.22-14.78,4.44-1Z"/><path class="cls-13" d="M419.38,284.67a3,3,0,0,1,.18-1,2.51,2.51,0,0,1,.46-.78,2.16,2.16,0,0,1,.68-.52,1.74,1.74,0,0,1,.85-.18,2,2,0,0,1,.83.21,2.34,2.34,0,0,1,.67.54,2.72,2.72,0,0,1,.45.8,3.1,3.1,0,0,1,.15,1,3.15,3.15,0,0,1-.18,1,2.51,2.51,0,0,1-.46.78,2.14,2.14,0,0,1-.69.51,1.83,1.83,0,0,1-.84.17,1.86,1.86,0,0,1-.84-.2,2,2,0,0,1-.67-.54,2.45,2.45,0,0,1-.43-.8A2.84,2.84,0,0,1,419.38,284.67Z"/><path class="cls-13" d="M436.84,282.45a.46.46,0,0,1,.23.06.52.52,0,0,1,.22.18l1.25,1.63a5.6,5.6,0,0,1-2.12,1.94,6.16,6.16,0,0,1-3,.61,6.06,6.06,0,0,1-2.82-.69,6.39,6.39,0,0,1-2.09-1.82,8.47,8.47,0,0,1-1.3-2.72,11.61,11.61,0,0,1-.42-3.4,10.49,10.49,0,0,1,.57-3.4,8.39,8.39,0,0,1,1.52-2.67,6.7,6.7,0,0,1,2.31-1.71,6.82,6.82,0,0,1,2.95-.58,6.39,6.39,0,0,1,2.74.68,5.84,5.84,0,0,1,1.09.71,5.52,5.52,0,0,1,.89.92l-1.11,1.72a1.37,1.37,0,0,1-.25.29.52.52,0,0,1-.4.12.62.62,0,0,1-.32-.09c-.1-.07-.21-.14-.32-.23l-.37-.29a2.8,2.8,0,0,0-.48-.3,3.39,3.39,0,0,0-.66-.23,3.23,3.23,0,0,0-.87-.11,3.45,3.45,0,0,0-1.61.34,3.65,3.65,0,0,0-1.25,1,5.17,5.17,0,0,0-.83,1.66,7.78,7.78,0,0,0-.32,2.2,7.9,7.9,0,0,0,.27,2.27,5.16,5.16,0,0,0,.76,1.69,3.46,3.46,0,0,0,1.15,1.05,2.85,2.85,0,0,0,1.42.38,5.1,5.1,0,0,0,.8,0,2.74,2.74,0,0,0,.67-.17,2.85,2.85,0,0,0,.6-.31,3.55,3.55,0,0,0,.57-.49,1.44,1.44,0,0,1,.25-.18A.54.54,0,0,1,436.84,282.45Z"/><path class="cls-13" d="M440.39,281.86a1.87,1.87,0,0,1,.11-.64,1.67,1.67,0,0,1,.31-.52,1.52,1.52,0,0,1,.45-.35,1.35,1.35,0,0,1,.57-.12,1.15,1.15,0,0,1,.55.14,1.55,1.55,0,0,1,.45.36,1.73,1.73,0,0,1,.3.53,2,2,0,0,1,0,1.31,1.79,1.79,0,0,1-.31.52,1.36,1.36,0,0,1-1,.46,1.33,1.33,0,0,1-.57-.14,1.39,1.39,0,0,1-.44-.36,1.6,1.6,0,0,1-.29-.53A1.79,1.79,0,0,1,440.39,281.86Z"/><line class="cls-15" x1="400.22" y1="296.21" x2="445.55" y2="290.95"/><line class="cls-16" x1="397.89" y1="258.32" x2="443.78" y2="260.7"/><polygon class="cls-13" points="461.1 271.63 451.82 272.88 461.1 272.88 461.1 271.63"/><polygon class="cls-13" points="366.69 271.63 385.25 271.63 367.59 272.88 366.69 271.63"/><polyline class="cls-13" points="241.78 246.91 241.78 248.99 344.32 237.92"/><polyline class="cls-13" points="407.42 233.48 491.21 248.99 492.61 247.96"/></g></svg>