<svg xmlns="http://www.w3.org/2000/svg" xmlns:xlink="http://www.w3.org/1999/xlink" viewBox="0 0 400.95 409.98"><defs><style>.cls-1{fill:#ffeeb8;}.cls-2{fill:#c24a4a;}.cls-3{fill:#e56a6a;}.cls-4{fill:url(#linear-gradient);}.cls-5{fill:url(#linear-gradient-2);}.cls-6{fill:url(#linear-gradient-3);}.cls-7{fill:url(#linear-gradient-4);}.cls-8{fill:url(#linear-gradient-5);}.cls-9{fill:url(#linear-gradient-6);}.cls-10{fill:url(#linear-gradient-7);}.cls-11{fill:url(#linear-gradient-8);}.cls-12{fill:url(#linear-gradient-9);}.cls-13{fill:#d45c28;}.cls-14,.cls-16{fill:#dd992e;}.cls-15{fill:none;}.cls-15,.cls-16{stroke:#d45c28;stroke-miterlimit:10;stroke-width:4.32px;}</style><linearGradient id="linear-gradient" x1="196.62" y1="65.46" x2="195.54" y2="31.16" gradientUnits="userSpaceOnUse"><stop offset="0" stop-color="#ffeeb8"/><stop offset="1" stop-color="#ffeeb8" stop-opacity="0"/></linearGradient><linearGradient id="linear-gradient-2" x1="2356.41" y1="44.5" x2="2355.32" y2="10.03" gradientTransform="matrix(0.93, 0.36, -0.36, 0.93, -1931.6, -804.75)" xlink:href="#linear-gradient"/><linearGradient id="linear-gradient-3" x1="5362.43" y1="-1543.29" x2="5361.34" y2="-1577.76" gradientTransform="translate(-4044.58 -3396.34) rotate(55.06)" xlink:href="#linear-gradient"/><linearGradient id="linear-gradient-4" x1="-2158.13" y1="-770.7" x2="-2159.22" y2="-805.18" gradientTransform="matrix(0.91, -0.42, 0.42, 0.91, 2409.59, -142.65)" xlink:href="#linear-gradient"/><linearGradient id="linear-gradient-5" x1="-4564.1" y1="-7141.11" x2="-4565.19" y2="-7175.59" gradientTransform="matrix(-0.12, -0.99, 0.99, -0.12, 6614.14, -5276.11)" xlink:href="#linear-gradient"/><linearGradient id="linear-gradient-6" x1="-2569.19" y1="-10111.66" x2="-2570.28" y2="-10146.13" gradientTransform="matrix(-0.69, -0.72, 0.72, -0.69, 5630.9, -8681.58)" xlink:href="#linear-gradient"/><linearGradient id="linear-gradient-7" x1="-635.97" y1="-11067.56" x2="-637.05" y2="-11102.04" gradientTransform="matrix(-0.91, -0.4, 0.41, -0.91, 4079.55, -10175.92)" xlink:href="#linear-gradient"/><linearGradient id="linear-gradient-8" x1="3243.96" y1="-10673.69" x2="3242.87" y2="-10708.17" gradientTransform="matrix(-0.96, 0.29, -0.29, -0.96, 290.01, -10943.81)" xlink:href="#linear-gradient"/><linearGradient id="linear-gradient-9" x1="5962.14" y1="-7701.2" x2="5961.06" y2="-7735.67" gradientTransform="matrix(-0.53, 0.85, -0.85, -0.53, -3100.44, -8934.16)" xlink:href="#linear-gradient"/></defs><title>schluesselbox</title><g id="Ebene_8" data-name="Ebene 8"><path class="cls-1" d="M64.33,376.79C39,380.31,26.71,366.2,26.71,366.2s-29.88-36.95-13.45-61.4,43.41-29.3,65.51-22.92,27.1,23.47,67.46,18.89,44-12.8,87.55-21.17,71.77-14.14,100.15-1.35,38,31.16,28,51-33.35,40.94-61,43.89S89.7,373.28,64.33,376.79Z"/><path class="cls-2" d="M255.67,146.06,173.3,120.14l2.17,1.52L157.93,92l-9-2.82h-9.16l-5.36,17,4.51,7.48-8,3.53-5.33,16.92,6.83,6.22,9.33,2.94,31.8-15.77-2.42.38,51.43,16.19-9.78,31.09,7.77,2.45,4.22-13.39,8.09,2.55-4.21,13.39,7.77,2.44,9.79-31.08,8,2.52,2.14-6.78Zm-114.41-9.8-5.4-1.7-2.64-2.41,3.16-10.06,12.11-5.35-6.85-11.35,3-9.57H148l5.58,1.76,14.92,25.19Z"/><rect class="cls-3" x="214.9" y="96.25" width="2.22" height="80.09" transform="translate(21.16 301.42) rotate(-72.53)"/><polygon class="cls-3" points="171.39 121.19 155.37 94.34 157.3 93.27 172.29 118.38 171.39 121.19"/><rect class="cls-3" x="151.85" y="89.43" width="1.12" height="5.77" transform="translate(18.61 209.98) rotate(-72.53)"/><rect class="cls-3" x="137.93" y="135.02" width="1" height="5.21" transform="translate(-34.41 228.35) rotate(-72.53)"/><path class="cls-2" d="M281.17,361.32c0,3.57-43,6.47-95.94,6.47s-95.95-2.9-95.95-6.47,43-6.47,95.95-6.47S281.17,357.75,281.17,361.32Z"/><polygon class="cls-4" points="183.46 86.06 192.4 88.55 212.46 53.72 179.87 48.27 183.46 86.06"/><polygon class="cls-5" points="238.15 98.72 245.6 104.25 270.93 76.67 242.47 59.89 238.15 98.72"/><polygon class="cls-6" points="270.93 122.07 274.01 130.82 310.44 122.15 296.25 92.31 270.93 122.07"/><polygon class="cls-7" points="128.92 79.32 138.09 77.85 136.05 40.46 104.15 49.11 128.92 79.32"/><polygon class="cls-8" points="109.17 132.69 110.54 123.51 74.28 114.15 72.88 147.15 109.17 132.69"/><polygon class="cls-9" points="140.64 169.64 136.24 161.47 101.6 175.71 120.25 202.97 140.64 169.64"/><polygon class="cls-10" points="187.51 179.08 180.35 173.19 153.66 199.45 181.23 217.63 187.51 179.08"/><polygon class="cls-11" points="245.08 190.14 235.8 190.33 232.62 227.64 265.39 223.5 245.08 190.14"/><polygon class="cls-12" points="279.4 176.58 272.56 182.87 294.88 212.93 316.71 188.12 279.4 176.58"/><polygon class="cls-13" points="196.17 330.77 103.09 319.33 103.09 227.64 196.17 212.14 196.17 330.77"/><polygon class="cls-14" points="196.17 330.77 287.67 319.33 286.13 288.27 287.67 241.13 196.17 212.14 194.21 288.27 196.17 330.77"/><polygon class="cls-2" points="177.33 278 103.09 271.46 103.09 227.64 196.17 212.14 177.33 278"/><polygon class="cls-14" points="169.35 254.56 66.81 263.55 103.09 227.64 196.17 212.14 169.35 254.56"/><polygon class="cls-13" points="204.63 270.38 286.9 264.6 287.67 241.13 196.17 212.14 204.63 270.38"/><polygon class="cls-14" points="232.45 250.12 317.64 264.6 287.67 241.13 196.17 212.14 232.45 250.12"/><path class="cls-13" d="M241.51,295.75a14.3,14.3,0,0,1,.13,3.6,8.77,8.77,0,0,1-.8,3,6.3,6.3,0,0,1-1.77,2.19,6.75,6.75,0,0,1-2.79,1.25,10.93,10.93,0,0,1-1.49.22,10.09,10.09,0,0,1-1.56,0l-.23-3.17a1.05,1.05,0,0,1,.17-.72,1,1,0,0,1,.63-.4,2.44,2.44,0,0,1,.57,0,3.43,3.43,0,0,0,.8-.08,3.09,3.09,0,0,0,1.09-.46,2,2,0,0,0,.69-.88,4.24,4.24,0,0,0,.28-1.41,11,11,0,0,0-.14-2L234.87,282l4.45-1Z"/><path class="cls-13" d="M244.42,301.31a2.63,2.63,0,0,1,.18-1,2.56,2.56,0,0,1,.45-.77,2.13,2.13,0,0,1,.68-.52,1.74,1.74,0,0,1,.85-.18,1.68,1.68,0,0,1,.83.21,2.19,2.19,0,0,1,.67.54,2.41,2.41,0,0,1,.45.8,3,3,0,0,1,.15,1,2.63,2.63,0,0,1-.18,1,2.29,2.29,0,0,1-.46.79,2.14,2.14,0,0,1-.69.51,1.77,1.77,0,0,1-.83.17,1.87,1.87,0,0,1-.85-.2,2,2,0,0,1-.66-.54,2.29,2.29,0,0,1-.44-.8A2.68,2.68,0,0,1,244.42,301.31Z"/><path class="cls-13" d="M261.88,299.09a.59.59,0,0,1,.22.05.73.73,0,0,1,.22.18l1.25,1.64a5.53,5.53,0,0,1-2.12,1.94,6.23,6.23,0,0,1-3,.61,6,6,0,0,1-2.82-.7,6.21,6.21,0,0,1-2.1-1.82,8.32,8.32,0,0,1-1.3-2.71,12,12,0,0,1-.42-3.4,10.55,10.55,0,0,1,.58-3.41,8,8,0,0,1,1.52-2.66,6.51,6.51,0,0,1,2.31-1.71,6.64,6.64,0,0,1,2.94-.58,6.87,6.87,0,0,1,1.47.19,6.75,6.75,0,0,1,1.28.48,6.24,6.24,0,0,1,1.09.72,5.81,5.81,0,0,1,.88.91l-1.1,1.73a1.42,1.42,0,0,1-.26.29.57.57,0,0,1-.39.12.56.56,0,0,1-.33-.1l-.32-.22-.37-.3a2.65,2.65,0,0,0-.48-.29,4,4,0,0,0-.65-.24,3.81,3.81,0,0,0-.88-.1,3.41,3.41,0,0,0-1.6.34,3.57,3.57,0,0,0-1.26,1,5.05,5.05,0,0,0-.82,1.66,7.41,7.41,0,0,0-.32,2.19,8,8,0,0,0,.26,2.28,5.17,5.17,0,0,0,.77,1.69,3.28,3.28,0,0,0,1.15,1,2.93,2.93,0,0,0,1.42.38,5.15,5.15,0,0,0,.8,0,2.86,2.86,0,0,0,.67-.17,3,3,0,0,0,.59-.31,4.14,4.14,0,0,0,.57-.49,1.05,1.05,0,0,1,.25-.18A.55.55,0,0,1,261.88,299.09Z"/><path class="cls-13" d="M265.42,298.5a1.75,1.75,0,0,1,.12-.65,1.58,1.58,0,0,1,.3-.52,1.49,1.49,0,0,1,.45-.34,1.24,1.24,0,0,1,.57-.12,1.19,1.19,0,0,1,.56.14,1.39,1.39,0,0,1,.44.36,1.62,1.62,0,0,1,.3.53,2,2,0,0,1,.1.65,1.75,1.75,0,0,1-.12.65,1.55,1.55,0,0,1-.31.53,1.49,1.49,0,0,1-.45.34,1.2,1.2,0,0,1-.56.11,1.28,1.28,0,0,1-.56-.13,1.43,1.43,0,0,1-.45-.36,1.8,1.8,0,0,1-.29-.53A2.07,2.07,0,0,1,265.42,298.5Z"/><line class="cls-15" x1="225.25" y1="312.85" x2="270.58" y2="307.59"/><line class="cls-16" x1="222.92" y1="274.96" x2="268.81" y2="277.34"/><polygon class="cls-13" points="286.13 288.27 276.85 289.52 286.13 289.52 286.13 288.27"/><polygon class="cls-13" points="191.72 288.27 210.29 288.27 192.63 289.52 191.72 288.27"/><polyline class="cls-13" points="66.81 263.55 66.81 265.63 169.35 254.56"/><polyline class="cls-13" points="232.45 250.12 316.25 265.63 317.64 264.6"/></g></svg>