<svg xmlns="http://www.w3.org/2000/svg" xmlns:xlink="http://www.w3.org/1999/xlink" viewBox="0 0 386.55 453.73"><defs><style>.cls-1{fill:#c24a4a;}.cls-2{fill:url(#linear-gradient);}.cls-3{fill:url(#linear-gradient-2);}.cls-4{fill:url(#linear-gradient-3);}.cls-5{fill:url(#linear-gradient-4);}.cls-6{fill:url(#linear-gradient-5);}.cls-7{fill:url(#linear-gradient-6);}.cls-8{fill:url(#linear-gradient-7);}.cls-9{fill:url(#linear-gradient-8);}.cls-10{fill:url(#linear-gradient-9);}.cls-11{fill:#d45c28;}.cls-12,.cls-14{fill:#dd992e;}.cls-13,.cls-16{fill:none;}.cls-13,.cls-14{stroke:#d45c28;stroke-miterlimit:10;stroke-width:5.47px;}.cls-15{fill:#e56a6a;}</style><linearGradient id="linear-gradient" x1="191.95" y1="66.71" x2="190.58" y2="23.21" gradientUnits="userSpaceOnUse"><stop offset="0" stop-color="#ffeeb8"/><stop offset="1" stop-color="#ffeeb8" stop-opacity="0"/></linearGradient><linearGradient id="linear-gradient-2" x1="168.67" y1="-373.94" x2="167.29" y2="-417.64" gradientTransform="matrix(0.93, 0.36, -0.36, 0.93, -29.53, 376.28)" xlink:href="#linear-gradient"/><linearGradient id="linear-gradient-3" x1="-254.35" y1="-938.9" x2="-255.73" y2="-982.61" gradientTransform="translate(-311.59 876.93) rotate(55.06)" xlink:href="#linear-gradient"/><linearGradient id="linear-gradient-4" x1="3.23" y1="672.3" x2="1.85" y2="628.59" gradientTransform="matrix(0.91, -0.42, 0.42, 0.91, -180.39, -552.56)" xlink:href="#linear-gradient"/><linearGradient id="linear-gradient-5" x1="-1408.54" y1="1459.32" x2="-1409.92" y2="1415.62" gradientTransform="matrix(-0.12, -0.99, 0.99, -0.12, -1567.43, -1071.56)" xlink:href="#linear-gradient"/><linearGradient id="linear-gradient-6" x1="-2232.72" y1="1137.26" x2="-2234.09" y2="1093.56" gradientTransform="matrix(-0.69, -0.72, 0.72, -0.69, -2271.26, -609.78)" xlink:href="#linear-gradient"/><linearGradient id="linear-gradient-7" x1="-2594.74" y1="745.55" x2="-2596.11" y2="701.85" gradientTransform="matrix(-0.91, -0.4, 0.41, -0.91, -2512.01, -138.06)" xlink:href="#linear-gradient"/><linearGradient id="linear-gradient-8" x1="-2764.65" y1="-162.58" x2="-2766.03" y2="-206.29" gradientTransform="matrix(-0.96, 0.29, -0.29, -0.96, -2440.98, 891.02)" xlink:href="#linear-gradient"/><linearGradient id="linear-gradient-9" x1="-2298.49" y1="-896.85" x2="-2299.87" y2="-940.56" gradientTransform="matrix(-0.53, 0.85, -0.85, -0.53, -1656.13, 1695.85)" xlink:href="#linear-gradient"/></defs><title>schluesselbox</title><g id="Layer_2" data-name="Layer 2"><path class="cls-1" d="M299.14,441.79c0,4.53-54.46,8.2-121.64,8.2s-121.64-3.67-121.64-8.2,54.46-8.2,121.64-8.2S299.14,437.26,299.14,441.79Z"/><polygon class="cls-2" points="175.26 92.82 186.6 95.98 212.03 51.82 170.71 44.91 175.26 92.82"/><polygon class="cls-3" points="244.59 108.87 254.04 115.88 286.16 80.92 250.07 59.64 244.59 108.87"/><polygon class="cls-4" points="286.16 138.47 290.06 149.57 336.25 138.57 318.25 100.74 286.16 138.47"/><polygon class="cls-5" points="106.11 84.28 117.74 82.41 115.15 35.01 74.72 45.97 106.11 84.28"/><polygon class="cls-6" points="81.08 151.94 82.82 140.3 36.85 128.43 35.07 170.27 81.08 151.94"/><polygon class="cls-7" points="120.98 198.78 115.39 188.43 71.48 206.47 95.13 241.03 120.98 198.78"/><polygon class="cls-8" points="180.4 210.75 171.31 203.28 137.47 236.57 172.44 259.62 180.4 210.75"/><polygon class="cls-9" points="253.38 224.78 241.62 225.01 237.59 272.31 279.13 267.06 253.38 224.78"/><polygon class="cls-10" points="300.89 195.58 292.23 203.55 320.52 241.66 348.2 210.21 300.89 195.58"/><polygon class="cls-11" points="191.37 403.06 73.37 388.56 73.37 272.31 191.37 252.66 191.37 403.06"/><polygon class="cls-12" points="191.37 403.06 307.37 388.56 305.43 349.18 307.37 289.41 191.37 252.66 188.89 349.18 191.37 403.06"/><polygon class="cls-1" points="167.49 336.15 73.37 327.86 73.37 272.31 191.37 252.66 167.49 336.15"/><polygon class="cls-12" points="157.37 306.44 27.37 317.84 73.37 272.31 191.37 252.66 157.37 306.44"/><polygon class="cls-11" points="202.09 326.5 306.4 319.16 307.37 289.41 191.37 252.66 202.09 326.5"/><polygon class="cls-12" points="237.37 300.81 345.37 319.16 307.37 289.41 191.37 252.66 237.37 300.81"/><path class="cls-11" d="M248.86,358.67a18.61,18.61,0,0,1,.16,4.55,11,11,0,0,1-1,3.77,8,8,0,0,1-2.24,2.78,8.48,8.48,0,0,1-3.53,1.58,13.68,13.68,0,0,1-1.89.28,13.12,13.12,0,0,1-2,0l-.29-4a1.32,1.32,0,0,1,.22-.91,1.22,1.22,0,0,1,.81-.51,2.56,2.56,0,0,1,.71,0,4,4,0,0,0,1-.11,3.69,3.69,0,0,0,1.38-.58,2.61,2.61,0,0,0,.88-1.12,5.15,5.15,0,0,0,.35-1.78,13.71,13.71,0,0,0-.18-2.56l-2.81-18.74,5.63-1.22Z"/><path class="cls-11" d="M252.54,365.7a3.54,3.54,0,0,1,.23-1.23,3,3,0,0,1,.58-1,2.64,2.64,0,0,1,.86-.66,2.31,2.31,0,0,1,1.08-.23,2.41,2.41,0,0,1,1,.27,2.81,2.81,0,0,1,.85.69,3,3,0,0,1,.56,1,3.62,3.62,0,0,1,.2,1.24,3.55,3.55,0,0,1-.23,1.24,3,3,0,0,1-.59,1,2.83,2.83,0,0,1-.86.65,2.56,2.56,0,0,1-1.07.22,2.59,2.59,0,0,1-1.07-.26,2.74,2.74,0,0,1-.84-.68,3.13,3.13,0,0,1-.55-1A3.64,3.64,0,0,1,252.54,365.7Z"/><path class="cls-11" d="M274.68,362.89a.72.72,0,0,1,.28.07.84.84,0,0,1,.28.23l1.59,2.07a6.94,6.94,0,0,1-2.69,2.46,7.82,7.82,0,0,1-3.79.78,7.73,7.73,0,0,1-3.57-.88,8.08,8.08,0,0,1-2.66-2.31,10.62,10.62,0,0,1-1.65-3.45,15.18,15.18,0,0,1-.53-4.3,13.22,13.22,0,0,1,.73-4.32,10.44,10.44,0,0,1,1.93-3.38,8.42,8.42,0,0,1,2.92-2.17,8.68,8.68,0,0,1,3.74-.73,8,8,0,0,1,1.86.24,8.9,8.9,0,0,1,1.62.61,7.66,7.66,0,0,1,1.38.91,6.81,6.81,0,0,1,1.12,1.16l-1.4,2.19a1.8,1.8,0,0,1-.32.36.72.72,0,0,1-.5.16.75.75,0,0,1-.41-.12,4.49,4.49,0,0,1-.41-.29l-.47-.37a3.19,3.19,0,0,0-.61-.38,4.79,4.79,0,0,0-4,0,4.54,4.54,0,0,0-1.59,1.32,6.77,6.77,0,0,0-1.05,2.1,9.58,9.58,0,0,0-.4,2.79,9.83,9.83,0,0,0,.33,2.88,6.71,6.71,0,0,0,1,2.14,4.31,4.31,0,0,0,1.46,1.34,3.78,3.78,0,0,0,1.8.48,8,8,0,0,0,1,0,3.47,3.47,0,0,0,1.61-.61,5,5,0,0,0,.72-.62,1.44,1.44,0,0,1,.32-.23A.73.73,0,0,1,274.68,362.89Z"/><path class="cls-11" d="M279.17,362.15a2.18,2.18,0,0,1,.15-.82,1.89,1.89,0,0,1,.39-.66,1.75,1.75,0,0,1,.57-.44,1.58,1.58,0,0,1,.72-.15,1.43,1.43,0,0,1,.7.18,1.81,1.81,0,0,1,.57.46,2.07,2.07,0,0,1,.37.67,2.43,2.43,0,0,1,.13.82,2.27,2.27,0,0,1-.15.83,2,2,0,0,1-.39.66,1.9,1.9,0,0,1-.58.44,1.7,1.7,0,0,1-1.42,0,1.78,1.78,0,0,1-.57-.45,2.45,2.45,0,0,1-.36-.68A2.53,2.53,0,0,1,279.17,362.15Z"/><line class="cls-13" x1="228.24" y1="380.34" x2="285.71" y2="373.67"/><line class="cls-14" x1="225.29" y1="332.3" x2="283.47" y2="335.32"/><polygon class="cls-11" points="305.43 349.18 293.66 350.76 305.43 350.76 305.43 349.18"/><polygon class="cls-11" points="185.73 349.18 209.27 349.18 186.88 350.76 185.73 349.18"/><polyline class="cls-11" points="27.37 317.84 27.37 320.48 157.37 306.44"/><polyline class="cls-11" points="237.37 300.81 343.61 320.48 345.37 319.16"/><path class="cls-1" d="M266.81,168.89,162.38,136l2.75,1.94L142.89,100.4l-11.36-3.58H119.92l-6.8,21.6,5.73,9.48-10.12,4.48L102,153.84l8.66,7.89,11.82,3.72,40.32-20-3.07.48,65.21,20.53-12.4,39.41,9.85,3.1,5.35-17L238,195.24l-5.34,17,9.85,3.11,12.41-39.41,10.17,3.2,2.71-8.61ZM121.75,156.46l-6.84-2.16-3.35-3.05,4-12.75,15.35-6.79-8.69-14.38,3.82-12.14h4.18l7.08,2.23,18.91,31.94Z"/><rect class="cls-15" x="215.12" y="105.73" width="2.81" height="101.53" transform="translate(2.24 316.05) rotate(-72.53)"/><polygon class="cls-15" points="159.96 137.35 139.65 103.32 142.09 101.95 161.1 133.79 159.96 137.35"/><rect class="cls-15" x="135.18" y="97.09" width="1.42" height="7.31" transform="translate(-0.99 200.13) rotate(-72.53)"/><rect class="cls-15" x="117.54" y="154.89" width="1.27" height="6.61" transform="translate(-68.21 223.42) rotate(-72.53)"/><rect id="_Slice_" data-name="&lt;Slice&gt;" class="cls-16" x="-0.06" y="12.1" width="385" height="453"/></g></svg>