<svg xmlns="http://www.w3.org/2000/svg" viewBox="0 0 801.91 300.57"><defs><style>.cls-1{fill:#ffeeb8;}.cls-2{fill:#f7931e;}.cls-3{fill:#e8d6bc;}.cls-4{fill:#c24a4a;}.cls-5{fill:#f4ca98;}.cls-6{fill:#e56a6a;}.cls-11,.cls-7,.cls-8{fill:none;stroke-miterlimit:10;}.cls-7{stroke:#c24a4a;}.cls-7,.cls-8{stroke-width:3.4px;}.cls-8{stroke:#706f6f;}.cls-9{fill:#f47f5b;}.cls-10{fill:#3c3c3b;}.cls-11{stroke:#e56a6a;stroke-width:3.48px;}</style></defs><title>teppich</title><g id="Bcakground"><path class="cls-1" d="M790.1,211.73c-.09,1.84-13.63-.59-30.43-1.34s-30.5.48-30.42-1.37S743.17,203,760,203.7,790.18,209.88,790.1,211.73Z"/><path class="cls-1" d="M422.44,200.19c.41-.88,8.62,4,19.26,9s19.66,8.17,19.25,9-10.1-.88-20.74-5.87S422,201.06,422.44,200.19Z"/><path class="cls-1" d="M378.21,158.36c-.47.85-8.3-4.63-18.55-10.36s-19-9.54-18.54-10.38,10,1.59,20.25,7.32S378.69,157.52,378.21,158.36Z"/><path class="cls-1" d="M43.69,135.59c.69.68-6.66,6.8-14.88,15.18s-14.2,15.84-14.89,15.16,4.17-9.24,12.39-17.62S43,134.91,43.69,135.59Z"/></g><g id="asdsa"><path class="cls-1" d="M699.31,252.75c57.92,7.36,120.93-13.36,96.16-32.85-12.41-9.77-59-7.7-108.62.15s-106.57,12.77-199.06,7.09S402.45,143,302.19,132.6s-165.14-17.51-228.38-1.73S-8.78,206.79,16.15,231.33s80.61,50.59,143.91,54.24S417,216.9,699.31,252.75Z"/></g><g id="Ebene_8" data-name="Ebene 8"><path class="cls-2" d="M653.16,250c0,5.36-132,10.06-292.74,10.06S71.18,271.75,71.18,266.39s128.53-25.71,289.24-25.71S653.16,244.67,653.16,250Z"/><polygon class="cls-3" points="242.31 226.41 263.58 64.48 245.61 56.04 234.71 56.04 222.68 226.76 233.44 231.32 242.31 226.41"/><polygon class="cls-3" points="308.01 213.96 320.76 116.92 309.99 111.86 303.46 111.86 296.25 214.17 302.7 216.9 308.01 213.96"/><polygon class="cls-3" points="121.97 223.06 110.06 28.18 89.18 21.3 77.6 23.18 101.19 226.86 113.59 230.39 121.97 223.06"/><path class="cls-4" d="M712.33,244c-14.19-1-93.09-3.07-161.29-5.67,3,3.6,6.36,6.85,9.26,10.47,53.45,1.1,113,2.87,123,.21C699.39,244.76,789.92,249.27,712.33,244Z"/><polygon class="cls-5" points="78.01 26.68 89.18 21.3 106.42 168.33 94.55 169.5 78.01 26.68"/><polygon class="cls-5" points="234.71 56.04 245.61 56.04 238.42 173 227.23 162.13 234.71 56.04"/><polygon class="cls-5" points="303.46 111.86 309.99 111.86 301.08 203.68 296.25 201.67 303.46 111.86"/><path class="cls-4" d="M469.42,247l27.66-1.67s20.34-37.66,35-36,48,33,48,33l-19.78,6.45-41.55-16.59L509.92,247Z"/><path class="cls-6" d="M439.73,231.84c28,.35,35.69-27.53,50.35-25.87s42,3.36,42,3.36l-20.92,26.43-16.12.58S411.71,231.5,439.73,231.84Z"/><path class="cls-7" d="M339.79,205.79c-13.74-16.74-17.23-50.68-21.6-71.38-.87-5.8-7.86-12.42-15.13-6.35-.21-1.51,4.64-3.54,0,0-4.95,5.52-5.82,13.8-13.68,16.28-7,1.66-11.34-5-14.84-9.93-7-12.42-10.47-26.49-14.84-39.74-6.11-6.62-14.84-15.73-25.31-9.93-8.73,5.79-15.72,13.24-25.32,16.56-19.2,6.62-38.41,3.31-55.87-7.46C152.33,93,127,73.15,117.41,60.73a19.93,19.93,0,0,0-6.11-5.8c-6.11-2.48-15.66-5.51-19.62-5.54S79.75,48.55,78,52.69a3,3,0,0,0,0,2.07c.27,1.7,3.43,1.52,3.43,1.52"/><polyline class="cls-8" points="99.43 45.33 105.42 47 105.42 56.04 99.43 56.04"/><polyline class="cls-8" points="250.04 81.75 255.4 84.89 253.08 93.63 247.29 92.09"/><polyline class="cls-8" points="313.42 121.65 317.08 124 313.42 134.12 309.99 132"/><path class="cls-4" d="M514.07,235.78c-25-1.1-41.77-1.05-54.63-2.24-50.36-4.65-110.7-30.12-152-33.85s-93.52,34.77-119.71,42-97,6.64-97,6.64S218.05,287,267.23,273c28.46-8.08,46.85-25.32,70.65-29.91s124.65,6.16,167.54,3.88a40.24,40.24,0,0,1,4.5,0C511.22,243.52,512.4,239.12,514.07,235.78Z"/><path class="cls-9" d="M423.23,230.5s-31-5.06-78.86-9.72c-21.42,1.06-48.27,33.59-67.21,37.29s-46.62-20.63-46.62-20.63,64.88-26.22,80.23-30.18C341.07,199.44,423.23,230.5,423.23,230.5Z"/><path class="cls-4" d="M205.35,202.06c-6.75,37.05,8.94,70.7,36.13,75.16s55.58-22,62.33-59-9.81-70.7-37-75.16a36.63,36.63,0,0,0-6.16-.49C235.58,142.63,211.59,167.8,205.35,202.06Z"/><path class="cls-4" d="M72.91,203c-4.2,23,6.11,44,23,46.74s34-13.66,38.22-36.7-6.11-44-23-46.74S77.11,179.94,72.91,203Z"/><polygon class="cls-4" points="103.52 166.2 95.43 249.63 242.35 277.22 248.79 248.32 251.42 144.06 103.52 166.2"/><path class="cls-9" d="M220.07,149.12s-62.8,45.07-9.27,122.18c-.44.7-107.07-19.63-107.65-19.54s-40.27-49,11.66-87.19C110.88,164.88,220.07,149.12,220.07,149.12Z"/><path class="cls-10" d="M247.74,209.57c-.51,10.67,4.87,19.56,12,19.87s13.32-8.1,13.83-18.76-4.88-19.56-12-19.87S248.24,198.91,247.74,209.57Z"/><path class="cls-11" d="M220.46,204.71c-4.25,32.38,9.85,60.71,31.5,63.28s42.65-21.6,46.91-54-9.86-60.71-31.51-63.27S224.71,172.33,220.46,204.71Z"/><polygon class="cls-6" points="317.08 242.67 344.08 229.44 359.42 229.44 433.97 236.99 344.36 224.08 335.75 228.14 317.08 242.67"/><polygon class="cls-9" points="522.48 209.28 499.59 235.14 459.44 233.54 494.2 206.41 522.48 209.28"/></g></svg>