<svg xmlns="http://www.w3.org/2000/svg" viewBox="0 0 1031.09 323.98"><defs><style>.cls-1{fill:#e8d6bc;}.cls-2{fill:#468f99;}.cls-3{fill:#c24a4a;}.cls-4{fill:#d45c28;}.cls-5{fill:#3c3c3b;}.cls-6,.cls-7{fill:none;stroke-miterlimit:10;}.cls-6{stroke:#e56a6a;stroke-width:4.1px;}.cls-7{stroke:#c24a4a;stroke-width:4px;}</style></defs><title>teppich</title><g id="Layer_2" data-name="Layer 2"><polygon class="cls-1" points="663.4 254.42 639.03 58.83 659.61 48.63 672.1 48.63 685.88 254.84 673.56 260.35 663.4 254.42"/><polygon class="cls-1" points="588.13 239.38 573.53 122.17 585.87 116.05 593.35 116.05 601.61 239.63 594.22 242.93 588.13 239.38"/><polygon class="cls-1" points="801.25 250.38 814.9 14.97 838.82 6.66 852.08 8.93 825.05 254.96 810.85 259.22 801.25 250.38"/><ellipse class="cls-2" cx="670.59" cy="300.66" rx="195.83" ry="15.74"/><path class="cls-3" d="M158.18,281.69c18.38,5.11,179.9-3.29,229-.54s139.45-12.1,166.72-6.55,48.33,26.37,80.93,36.13c56.34,16.88,202.28-29.84,202.28-29.84s-81.17.69-111.16-8-89.77-55.22-137.13-50.72S472.35,257.42,414.67,263,150.39,273.82,125,275.64C36.09,282,139.8,276.58,158.18,281.69Z"/><path class="cls-4" d="M355.42,272.51s99.16-16.86,191.08-20.91c24.54,1.29,55.28,36.6,77,41.06s53.41-24.92,53.41-24.92S602.55,236.07,585,231.28C550.26,221.84,493,256.2,355.42,272.51Z"/><path class="cls-3" d="M705.74,225c7.73,44.75-10.25,85.4-41.4,90.78s-63.66-26.53-71.4-71.29,11.25-85.4,42.4-90.79a40.88,40.88,0,0,1,7-.59C671.1,153.22,698.59,183.63,705.74,225Z"/><path class="cls-3" d="M857.45,226.12c4.81,27.83-7,53.11-26.37,56.46s-39-16.51-43.77-44.34,7-53.11,26.37-56.46S852.64,198.29,857.45,226.12Z"/><polygon class="cls-3" points="822.38 181.69 831.65 282.47 663.35 315.79 655.97 280.89 652.97 154.94 822.38 181.69"/><path class="cls-4" d="M688.87,161.06s71.94,54.44,10.62,147.58c.5.84,122.65-23.71,123.31-23.6s46.14-59.25-13.35-105.32C814,180.09,688.87,161.06,688.87,161.06Z"/><path class="cls-5" d="M657.18,234.08c.57,12.88-5.58,23.63-13.75,24s-15.26-9.77-15.84-22.65,5.58-23.63,13.75-24S656.6,221.2,657.18,234.08Z"/><path class="cls-6" d="M688.43,228.21c4.87,39.11-11.29,73.33-36.09,76.44s-48.86-26.1-53.73-65.22S609.9,166.1,634.7,163,683.56,189.09,688.43,228.21Z"/><path class="cls-7" d="M551.73,229.51c15.74-20.22,19.74-61.22,24.74-86.22,1-7,9-15,17.34-7.67.24-1.82-5.32-4.28,0,0,5.66,6.67,6.66,16.67,15.66,19.67,8,2,13-6,17-12,8-15,12-32,17-48,7-8,17-19,29-12,10,7,18,16,29,20,22,8,44,4,64-9l3-3c16-10,27-22,38-37a23.36,23.36,0,0,1,7-7c7-3,14-5,22-4,5,1,9,3,11,8,5,17,12,32,23,45a45.92,45.92,0,0,0,48.23,12.19"/></g></svg>