<svg xmlns="http://www.w3.org/2000/svg" xmlns:xlink="http://www.w3.org/1999/xlink" viewBox="0 0 1200 10446.62"><defs><style>.cls-1,.cls-122,.cls-125,.cls-129,.cls-130,.cls-132,.cls-135,.cls-137,.cls-140,.cls-141,.cls-142,.cls-3,.cls-46,.cls-64,.cls-83,.cls-87{fill:none;}.cls-127,.cls-2{fill:#e56a6a;}.cls-141,.cls-3{stroke:#fff;}.cls-122,.cls-125,.cls-129,.cls-130,.cls-132,.cls-135,.cls-137,.cls-140,.cls-141,.cls-142,.cls-143,.cls-3,.cls-46,.cls-47,.cls-64,.cls-83,.cls-87{stroke-miterlimit:10;}.cls-4,.cls-88{font-size:20px;}.cls-29,.cls-4,.cls-61,.cls-76{fill:#575756;}.cls-101,.cls-117,.cls-4,.cls-88{font-family:Lato-Light, Lato;}.cls-5{letter-spacing:0.2em;}.cls-6{letter-spacing:0.2em;}.cls-7{letter-spacing:-0.02em;}.cls-8{letter-spacing:0.2em;}.cls-9{letter-spacing:0.17em;}.cls-10{letter-spacing:0.17em;}.cls-11{letter-spacing:-0.01em;}.cls-12{letter-spacing:0.12em;}.cls-13{letter-spacing:0.12em;}.cls-14{letter-spacing:-0.02em;}.cls-15{letter-spacing:-0.02em;}.cls-16{letter-spacing:-0.01em;}.cls-17{letter-spacing:-0.03em;}.cls-18{letter-spacing:0.12em;}.cls-19{letter-spacing:0.12em;}.cls-20{letter-spacing:0.06em;}.cls-21{letter-spacing:0.08em;}.cls-22{letter-spacing:0.08em;}.cls-23{letter-spacing:0.17em;}.cls-24{letter-spacing:-0.04em;}.cls-25{letter-spacing:0em;}.cls-26{letter-spacing:0.17em;}.cls-27{letter-spacing:0.17em;}.cls-28{letter-spacing:-0.03em;}.cls-29,.cls-61{font-size:27px;}.cls-127,.cls-29,.cls-61,.cls-97{font-family:Lato-Black, Lato;}.cls-29,.cls-62{letter-spacing:0.1em;}.cls-30{letter-spacing:0.08em;}.cls-31{fill:#e8d6bc;}.cls-32,.cls-85,.cls-86{fill:#c24a4a;}.cls-33{fill:url(#linear-gradient);}.cls-34{fill:#468f99;}.cls-35{fill:url(#linear-gradient-2);}.cls-36{fill:url(#linear-gradient-3);}.cls-37{fill:url(#linear-gradient-4);}.cls-38{fill:url(#linear-gradient-5);}.cls-39{fill:#ffeeb8;}.cls-40{fill:url(#linear-gradient-6);}.cls-41{fill:url(#linear-gradient-7);}.cls-42{fill:url(#linear-gradient-8);}.cls-43{fill:url(#linear-gradient-9);}.cls-44{fill:#d45c28;}.cls-45,.cls-47{fill:#dd992e;}.cls-46,.cls-47{stroke:#d45c28;stroke-width:5.47px;}.cls-48{letter-spacing:0.09em;}.cls-49{letter-spacing:0.09em;}.cls-50{letter-spacing:0.09em;}.cls-51{letter-spacing:0.12em;}.cls-52{letter-spacing:-0.11em;}.cls-53{letter-spacing:0.12em;}.cls-54{letter-spacing:-0.01em;}.cls-55{letter-spacing:0.16em;}.cls-56{letter-spacing:0.16em;}.cls-57{letter-spacing:0.16em;}.cls-58{letter-spacing:0.09em;}.cls-59{letter-spacing:0.09em;}.cls-60{letter-spacing:0.09em;}.cls-61{letter-spacing:0.1em;}.cls-63{fill:#3c3c3b;}.cls-130,.cls-64{stroke:#e56a6a;}.cls-64{stroke-width:4.1px;}.cls-65{letter-spacing:-0.03em;}.cls-66{letter-spacing:-0.03em;}.cls-67{letter-spacing:0.11em;}.cls-68{letter-spacing:0.11em;}.cls-69{letter-spacing:0.22em;}.cls-70{letter-spacing:0.22em;}.cls-71{letter-spacing:0.22em;}.cls-72{letter-spacing:-0.01em;}.cls-73{letter-spacing:-0.01em;}.cls-74{letter-spacing:0.09em;}.cls-75{letter-spacing:0.09em;}.cls-77{fill:#878787;}.cls-78{fill:#f9ae56;}.cls-79{fill:#754c24;}.cls-80{clip-path:url(#clip-path);}.cls-81{fill:#706f6f;}.cls-82{fill:#1d1d1b;}.cls-83{stroke:#1d1d1b;}.cls-129,.cls-130,.cls-83{stroke-width:5px;}.cls-84{fill:#f7931e;}.cls-85{font-size:21.94px;letter-spacing:0.1em;}.cls-85,.cls-86{font-family:Dosis-ExtraBold, Dosis;font-weight:700;}.cls-86{font-size:60.77px;letter-spacing:0.1em;}.cls-87{stroke:#c24a4a;}.cls-141,.cls-142,.cls-143,.cls-87{stroke-width:4px;}.cls-88{fill:#ff0707;}.cls-89{font-size:27.45px;font-family:Blanch-Caps, Blanch;}.cls-117,.cls-89{fill:#5d5d5d;}.cls-90{letter-spacing:-0.03em;}.cls-91{letter-spacing:-0.03em;}.cls-92{letter-spacing:0em;}.cls-93{fill:#4b9d8f;}.cls-94{fill:#69bea4;}.cls-95{fill:#afca2e;}.cls-96{fill:#f1e643;}.cls-97{font-size:89px;}.cls-101,.cls-102,.cls-124,.cls-126,.cls-97{fill:#fff;}.cls-98{letter-spacing:-0.07em;}.cls-99{letter-spacing:-0.08em;}.cls-100{letter-spacing:0em;}.cls-101{font-size:43px;}.cls-102{font-size:21px;}.cls-102,.cls-114{font-family:Lato-Regular, Lato;}.cls-103,.cls-105,.cls-113{letter-spacing:-0.02em;}.cls-104,.cls-105,.cls-106,.cls-107,.cls-108,.cls-109,.cls-110,.cls-133{font-family:Lato-LightItalic, Lato;}.cls-104,.cls-105,.cls-106,.cls-107,.cls-108,.cls-109,.cls-111,.cls-112,.cls-113,.cls-133{font-style:italic;}.cls-106{letter-spacing:-0.05em;}.cls-107{letter-spacing:-0.01em;}.cls-108{letter-spacing:-0.02em;}.cls-109,.cls-112{letter-spacing:-0.01em;}.cls-115{letter-spacing:-0.08em;}.cls-116{letter-spacing:-0.02em;}.cls-117,.cls-127{font-size:18px;}.cls-118{letter-spacing:-0.02em;}.cls-119{letter-spacing:0em;}.cls-120{letter-spacing:-0.06em;}.cls-121{letter-spacing:-0.04em;}.cls-122{stroke:#5d5d5d;stroke-width:0.99px;}.cls-123{fill:#ce5757;}.cls-124{font-size:24px;}.cls-124,.cls-131{font-family:FontAwesome, FontAwesome;}.cls-125,.cls-135,.cls-137{stroke:#f7931e;}.cls-125{stroke-width:15.19px;}.cls-128{opacity:0.2;}.cls-129{stroke:#575756;}.cls-129,.cls-130{stroke-linecap:round;}.cls-131{font-size:22.73px;fill:#c6c6c6;}.cls-132{stroke:#c6c6c6;}.cls-133{font-size:19px;fill:#f6f6f6;}.cls-134{fill:#f4ca98;}.cls-135{stroke-width:14px;}.cls-136,.cls-143{fill:#e5aa3c;}.cls-138{fill:#fcea10;}.cls-139{fill:#3aaa35;}.cls-140{stroke:#3c3c3b;}.cls-142{stroke:#e5aa3c;}.cls-143{stroke:#754c24;}.cls-144{letter-spacing:-0.01em;}.cls-145{letter-spacing:-0.01em;}.cls-146{letter-spacing:-0.09em;}</style><linearGradient id="linear-gradient" x1="915.9" y1="1186.03" x2="914.53" y2="1142.54" gradientUnits="userSpaceOnUse"><stop offset="0" stop-color="#ffeeb8"/><stop offset="1" stop-color="#ffeeb8" stop-opacity="0"/></linearGradient><linearGradient id="linear-gradient-2" x1="989.19" y1="1207.38" x2="987.81" y2="1163.68" gradientTransform="matrix(0.93, 0.36, -0.36, 0.93, 495.77, -274.88)" xlink:href="#linear-gradient"/><linearGradient id="linear-gradient-3" x1="1046.46" y1="1228.13" x2="1045.08" y2="1184.43" gradientTransform="translate(1443.93 -311.21) rotate(55.06)" xlink:href="#linear-gradient"/><linearGradient id="linear-gradient-4" x1="833.05" y1="1249.09" x2="831.67" y2="1205.38" gradientTransform="matrix(0.91, -0.42, 0.42, 0.91, -451.32, 389)" xlink:href="#linear-gradient"/><linearGradient id="linear-gradient-5" x1="738.5" y1="1262.08" x2="737.12" y2="1218.37" gradientTransform="matrix(-0.12, -0.99, 0.99, -0.12, -383.62, 2153.41)" xlink:href="#linear-gradient"/><linearGradient id="linear-gradient-6" x1="660.1" y1="1274.77" x2="658.72" y2="1231.07" gradientTransform="matrix(-0.69, -0.72, 0.72, -0.69, 358.56, 2689.14)" xlink:href="#linear-gradient"/><linearGradient id="linear-gradient-7" x1="593.39" y1="1284.61" x2="592.01" y2="1240.9" gradientTransform="matrix(-0.91, -0.4, 0.41, -0.91, 907.31, 2764.4)" xlink:href="#linear-gradient"/><linearGradient id="linear-gradient-8" x1="500.77" y1="1271.06" x2="499.39" y2="1227.36" gradientTransform="matrix(-0.96, 0.29, -0.29, -0.96, 1820.31, 2445.01)" xlink:href="#linear-gradient"/><linearGradient id="linear-gradient-9" x1="426.49" y1="1276.44" x2="425.12" y2="1232.74" gradientTransform="matrix(-0.53, 0.85, -0.85, -0.53, 2351.35, 1647.2)" xlink:href="#linear-gradient"/><clipPath id="clip-path"><polygon class="cls-1" points="815.88 3934.41 750.09 3934.41 726.85 3770.41 748.26 3714.41 781.85 3714.41 797.6 3743.41 808.41 3714.41 819.08 3714.41 836.85 3784.41 815.88 3934.41"/></clipPath></defs><title>Übresicht</title><g id="Layer_2" data-name="Layer 2"><rect class="cls-2" x="1.27" y="128.16" width="1200" height="691.8"/><line class="cls-3" x1="169.54" y1="423.15" x2="265.8" y2="423.15"/><line class="cls-3" x1="169.85" y1="714.25" x2="266.11" y2="714.25"/><text class="cls-4" transform="translate(171.54 1276.75)">Gott<tspan class="cls-5" x="40.05" y="0"> </tspan><tspan x="47.91" y="0">fand</tspan><tspan class="cls-6" x="85.82" y="0"> </tspan><tspan x="93.68" y="0">eine</tspan><tspan class="cls-6" x="129.69" y="0"> </tspan><tspan class="cls-7" x="137.56" y="0">L</tspan><tspan x="147.46" y="0">ösung,</tspan><tspan class="cls-6" x="202.55" y="0"> </tspan><tspan x="210.42" y="0">die</tspan><tspan class="cls-6" x="236.31" y="0"> </tspan><tspan x="244.17" y="0">heisst</tspan><tspan class="cls-8" x="294.29" y="0"> </tspan><tspan x="302.15" y="0">Jesus.</tspan><tspan class="cls-6" x="353.42" y="0"> </tspan><tspan x="361.29" y="0">Dass</tspan><tspan class="cls-5" x="403.42" y="0"> </tspan><tspan x="411.28" y="0">Jesus </tspan><tspan x="0" y="33">gelebt</tspan><tspan class="cls-9" x="53.33" y="33"> </tspan><tspan x="60.55" y="33">hat,</tspan><tspan class="cls-9" x="92.18" y="33"> </tspan><tspan x="99.41" y="33">wird</tspan><tspan class="cls-10" x="137.76" y="33"> </tspan><tspan class="cls-11" x="144.98" y="33">v</tspan><tspan x="154.54" y="33">on</tspan><tspan class="cls-9" x="176.18" y="33"> </tspan><tspan x="183.4" y="33">fast</tspan><tspan class="cls-9" x="215.3" y="33"> </tspan><tspan x="222.52" y="33">niemanden</tspan><tspan class="cls-10" x="316.73" y="33"> </tspan><tspan class="cls-11" x="323.95" y="33">v</tspan><tspan x="333.51" y="33">erneint.</tspan><tspan class="cls-9" x="399.36" y="33"> </tspan><tspan x="406.58" y="33">Schon </tspan><tspan x="0" y="66">der</tspan><tspan class="cls-12" x="29.08" y="66"> </tspan><tspan x="35.42" y="66">römischer</tspan><tspan class="cls-13" x="121.52" y="66"> </tspan><tspan x="127.86" y="66">Geschichtsschreiber</tspan><tspan class="cls-13" x="302.48" y="66"> </tspan><tspan x="308.82" y="66">Josephus</tspan><tspan class="cls-12" x="388.47" y="66"> </tspan><tspan x="394.82" y="66">Falvius, </tspan><tspan x="0" y="99">der</tspan><tspan class="cls-14" x="29.08" y="99"> </tspan><tspan x="32.64" y="99">37</tspan><tspan class="cls-15" x="55.84" y="99"> </tspan><tspan x="59.39" y="99">Jahre</tspan><tspan class="cls-14" x="107.18" y="99"> </tspan><tspan x="110.74" y="99">nach</tspan><tspan class="cls-14" x="151.21" y="99"> </tspan><tspan x="154.76" y="99">Christus</tspan><tspan class="cls-14" x="227.49" y="99"> </tspan><tspan x="231.05" y="99">auf</tspan><tspan class="cls-15" x="258.04" y="99"> </tspan><tspan x="261.59" y="99">die</tspan><tspan class="cls-14" x="287.48" y="99"> </tspan><tspan class="cls-16" x="291.04" y="99">W</tspan><tspan x="310.58" y="99">elt</tspan><tspan class="cls-14" x="332.68" y="99"> </tspan><tspan x="336.24" y="99">kam</tspan><tspan class="cls-14" x="371.71" y="99"> </tspan><tspan x="375.27" y="99">und</tspan><tspan class="cls-15" x="407.83" y="99"> </tspan><tspan x="411.39" y="99">somit </tspan><tspan x="0" y="132">kurze </tspan><tspan class="cls-17" x="51.72" y="132">Z</tspan><tspan x="63.88" y="132">eit nach Jesus lebte, schreibt: </tspan><tspan x="0" y="165">„Nun</tspan><tspan class="cls-18" x="43.41" y="165"> </tspan><tspan x="49.7" y="165">gab</tspan><tspan class="cls-19" x="80.44" y="165"> </tspan><tspan x="86.73" y="165">es</tspan><tspan class="cls-19" x="105.55" y="165"> </tspan><tspan x="111.84" y="165">um</tspan><tspan class="cls-18" x="138.57" y="165"> </tspan><tspan x="144.86" y="165">diese</tspan><tspan class="cls-18" x="189.57" y="165"> </tspan><tspan class="cls-17" x="195.86" y="165">Z</tspan><tspan x="208.02" y="165">eit</tspan><tspan class="cls-18" x="230.12" y="165"> </tspan><tspan x="236.41" y="165">Jesus,</tspan><tspan class="cls-19" x="287.68" y="165"> </tspan><tspan x="293.97" y="165">einen</tspan><tspan class="cls-18" x="340.8" y="165"> </tspan><tspan x="347.09" y="165">weisen</tspan><tspan class="cls-19" x="406.44" y="165"> </tspan><tspan x="412.73" y="165">Men</tspan><tspan x="451.95" y="165">-</tspan><tspan x="0" y="198">schen,</tspan><tspan class="cls-20" x="53.51" y="198"> </tspan><tspan x="58.55" y="198">wenn</tspan><tspan class="cls-20" x="105.15" y="198"> </tspan><tspan x="110.2" y="198">es</tspan><tspan class="cls-20" x="129.01" y="198"> </tspan><tspan x="134.06" y="198">denn</tspan><tspan class="cls-20" x="176.84" y="198"> </tspan><tspan x="181.88" y="198">recht</tspan><tspan class="cls-20" x="227.09" y="198"> </tspan><tspan x="232.14" y="198">ist,</tspan><tspan class="cls-20" x="256.57" y="198"> </tspan><tspan x="261.61" y="198">ihn</tspan><tspan class="cls-20" x="288" y="198"> </tspan><tspan x="293.04" y="198">einen</tspan><tspan class="cls-20" x="339.87" y="198"> </tspan><tspan x="344.91" y="198">Menschen</tspan><tspan class="cls-20" x="433.69" y="198"> </tspan><tspan x="438.74" y="198">zu </tspan><tspan x="0" y="231">nennen,</tspan><tspan class="cls-21" x="67.67" y="231"> </tspan><tspan x="73.14" y="231">denn</tspan><tspan class="cls-21" x="115.92" y="231"> </tspan><tspan x="121.4" y="231">er</tspan><tspan class="cls-21" x="139.56" y="231"> </tspan><tspan x="145.03" y="231">war</tspan><tspan class="cls-21" x="177.44" y="231"> </tspan><tspan x="182.92" y="231">ein</tspan><tspan class="cls-21" x="208.71" y="231"> </tspan><tspan x="214.18" y="231">Wundertäter</tspan><tspan class="cls-21" x="326.79" y="231"> </tspan><tspan x="332.26" y="231">und</tspan><tspan class="cls-22" x="364.82" y="231"> </tspan><tspan x="370.29" y="231">ein</tspan><tspan class="cls-21" x="396.08" y="231"> </tspan><tspan class="cls-7" x="401.56" y="231">L</tspan><tspan x="411.46" y="231">ehrer </tspan><tspan x="0" y="264">für</tspan><tspan class="cls-23" x="25.2" y="264"> </tspan><tspan x="32.54" y="264">die,</tspan><tspan class="cls-23" x="62.38" y="264"> </tspan><tspan x="69.72" y="264">die</tspan><tspan class="cls-23" x="95.61" y="264"> </tspan><tspan x="102.95" y="264">die</tspan><tspan class="cls-23" x="128.84" y="264"> </tspan><tspan class="cls-24" x="136.18" y="264">W</tspan><tspan class="cls-25" x="155.19" y="264">ahrheit</tspan><tspan class="cls-26" x="216.6" y="264"> </tspan><tspan x="223.94" y="264">mit</tspan><tspan class="cls-27" x="251.73" y="264"> </tspan><tspan class="cls-28" x="259.07" y="264">F</tspan><tspan x="269.91" y="264">reuden</tspan><tspan class="cls-23" x="330.85" y="264"> </tspan><tspan x="338.19" y="264">annehmen.</tspan><tspan class="cls-26" x="431.5" y="264"> </tspan><tspan x="438.84" y="264">Er </tspan><tspan x="0" y="297">gewann viele Juden und viele Heiden als Gefolgschaft“</tspan></text><text class="cls-29" transform="translate(171.54 1220.36)">Mose? <tspan class="cls-30" x="100.9" y="0">W</tspan><tspan x="131.84" y="0">er ist das?</tspan></text><polygon class="cls-31" points="805.13 2546.78 780.76 2351.19 801.34 2340.99 813.83 2340.99 827.61 2547.2 815.28 2552.71 805.13 2546.78"/><polygon class="cls-31" points="729.86 2531.74 715.26 2414.53 727.6 2408.42 735.08 2408.42 743.34 2531.99 735.95 2535.29 729.86 2531.74"/><polygon class="cls-31" points="942.98 2542.74 956.63 2307.33 980.54 2299.03 993.8 2301.3 966.78 2547.33 952.57 2551.59 942.98 2542.74"/><path class="cls-32" d="M990.76,1288.21l-104.42-32.87,2.74,1.94-22.24-37.55-11.35-3.58H843.88l-6.8,21.6,5.72,9.48-10.12,4.47-6.75,21.46,8.66,7.89,11.82,3.73,40.31-20-3.07.49,65.22,20.52-12.41,39.42,9.86,3.1,5.34-17,10.26,3.23-5.34,17,9.86,3.1,12.4-39.41,10.17,3.2,2.71-8.6Zm-145-12.43-6.85-2.15-3.34-3.05,4-12.75,15.35-6.79-8.69-14.38,3.82-12.15h4.19l7.07,2.23,18.91,31.93Z"/><rect class="cls-2" x="939.08" y="1225.06" width="2.81" height="101.53" transform="translate(-558.84 1789.87) rotate(-72.53)"/><polygon class="cls-2" points="883.91 1256.68 863.6 1222.64 866.05 1221.28 885.05 1253.11 883.91 1256.68"/><rect class="cls-2" x="859.14" y="1216.41" width="1.42" height="7.31" transform="matrix(0.3, -0.95, 0.95, 0.3, -562.05, 1674.07)"/><rect class="cls-2" x="841.5" y="1274.22" width="1.27" height="6.61" transform="translate(-629.31 1697.19) rotate(-72.53)"/><path class="cls-32" d="M1023.09,1561.12c0,4.53-54.46,8.2-121.63,8.2s-121.64-3.67-121.64-8.2,54.46-8.21,121.64-8.21S1023.09,1556.58,1023.09,1561.12Z"/><polygon class="cls-33" points="899.21 1212.15 910.55 1215.3 935.98 1171.15 894.67 1164.23 899.21 1212.15"/><ellipse class="cls-34" cx="812.32" cy="2593.03" rx="195.83" ry="15.74"/><polygon class="cls-35" points="968.55 1228.19 978 1235.21 1010.11 1200.24 974.02 1178.97 968.55 1228.19"/><polygon class="cls-36" points="1010.11 1257.79 1014.02 1268.89 1060.2 1257.9 1042.2 1220.07 1010.11 1257.79"/><polygon class="cls-37" points="830.07 1203.6 841.69 1201.73 839.1 1154.33 798.67 1165.3 830.07 1203.6"/><polygon class="cls-38" points="805.03 1271.26 806.77 1259.62 760.8 1247.76 759.02 1289.59 805.03 1271.26"/><polygon class="cls-39" points="475.82 3075.92 475.82 2964.11 524.33 2930.43 570.65 2939.89 607.58 2973.41 662.03 2964.11 658.18 2898.93 729.41 2877.93 754.23 2900.43 768.45 2939.89 822.17 2939.89 814.51 2974.61 835.25 3017.42 892.59 3034.16 884.83 3075.92 909.72 3095.43 946.33 3088.26 958.64 3104.72 952.07 3119.6 896.33 3119.6 837.18 3121.06 764.56 3105.82 705.83 3115.36 658.18 3116.7 597.71 3104.72 513.49 3116.7 458.29 3112.34 450.53 3086.52 475.82 3075.92"/><polygon class="cls-40" points="844.93 1318.11 839.35 1307.75 795.43 1325.8 819.08 1360.36 844.93 1318.11"/><polygon class="cls-41" points="904.35 1330.08 895.27 1322.6 861.43 1355.9 896.39 1378.94 904.35 1330.08"/><polygon class="cls-42" points="977.34 1344.1 965.57 1344.34 961.54 1391.64 1003.08 1386.38 977.34 1344.1"/><polygon class="cls-43" points="1024.85 1314.91 1016.18 1322.88 1044.48 1360.98 1072.15 1329.53 1024.85 1314.91"/><polygon class="cls-44" points="915.33 1522.38 797.33 1507.88 797.33 1391.64 915.33 1371.99 915.33 1522.38"/><polygon class="cls-45" points="915.33 1522.38 1031.33 1507.88 1029.38 1468.51 1031.33 1408.74 915.33 1371.99 912.85 1468.51 915.33 1522.38"/><polygon class="cls-32" points="891.44 1455.48 797.33 1447.19 797.33 1391.64 915.33 1371.99 891.44 1455.48"/><polygon class="cls-45" points="881.33 1425.77 751.33 1437.16 797.33 1391.64 915.33 1371.99 881.33 1425.77"/><polygon class="cls-44" points="926.05 1445.83 1030.36 1438.49 1031.33 1408.74 915.33 1371.99 926.05 1445.83"/><polygon class="cls-45" points="961.33 1420.14 1069.33 1438.49 1031.33 1408.74 915.33 1371.99 961.33 1420.14"/><path class="cls-44" d="M972.81,1478a18.21,18.21,0,0,1,.16,4.56,10.74,10.74,0,0,1-1,3.76,7.87,7.87,0,0,1-2.24,2.78,8.48,8.48,0,0,1-3.53,1.58,13.72,13.72,0,0,1-1.89.29,13,13,0,0,1-2,0l-.29-4a1.4,1.4,0,0,1,.21-.92,1.2,1.2,0,0,1,.81-.5,2.59,2.59,0,0,1,.72,0,3.78,3.78,0,0,0,1-.1,3.74,3.74,0,0,0,1.39-.58,2.52,2.52,0,0,0,.87-1.12,5.2,5.2,0,0,0,.35-1.78,13.7,13.7,0,0,0-.17-2.57l-2.81-18.74,5.63-1.22Z"/><path class="cls-44" d="M976.5,1485a3.53,3.53,0,0,1,.22-1.23,3.23,3.23,0,0,1,.58-1,2.64,2.64,0,0,1,.86-.66,2.44,2.44,0,0,1,1.08-.23,2.34,2.34,0,0,1,1,.27,2.84,2.84,0,0,1,.85.69,3,3,0,0,1,.57,1,3.58,3.58,0,0,1,.19,1.24,3.89,3.89,0,0,1-.22,1.24,3.14,3.14,0,0,1-.59,1,2.61,2.61,0,0,1-.87.65,2.24,2.24,0,0,1-1.06.22,2.38,2.38,0,0,1-1.07-.26,2.53,2.53,0,0,1-.85-.68,3.16,3.16,0,0,1-.55-1A3.68,3.68,0,0,1,976.5,1485Z"/><path class="cls-44" d="M998.63,1482.22a.62.62,0,0,1,.29.07.64.64,0,0,1,.27.23l1.59,2.07a7.09,7.09,0,0,1-2.69,2.46,8,8,0,0,1-3.78.78,7.74,7.74,0,0,1-3.58-.89,7.9,7.9,0,0,1-2.65-2.3,10.62,10.62,0,0,1-1.65-3.45,14.87,14.87,0,0,1-.54-4.3,13.5,13.5,0,0,1,.73-4.33,10.39,10.39,0,0,1,1.93-3.37,8.37,8.37,0,0,1,6.66-2.9,7.89,7.89,0,0,1,1.86.24,7.64,7.64,0,0,1,1.62.61,6.94,6.94,0,0,1,1.39.91,7.6,7.6,0,0,1,1.12,1.15l-1.4,2.19a1.89,1.89,0,0,1-.32.37.68.68,0,0,1-.51.15.75.75,0,0,1-.41-.12,3.93,3.93,0,0,1-.4-.29l-.48-.37a3.42,3.42,0,0,0-.6-.37,4.23,4.23,0,0,0-.83-.3,5.1,5.1,0,0,0-1.12-.14,4.32,4.32,0,0,0-2,.44,4.5,4.5,0,0,0-1.58,1.31,6.63,6.63,0,0,0-1.06,2.11,9.86,9.86,0,0,0-.4,2.78,10.63,10.63,0,0,0,.33,2.89,6.82,6.82,0,0,0,1,2.14,4.38,4.38,0,0,0,1.45,1.34,3.9,3.9,0,0,0,1.8.48,8.1,8.1,0,0,0,1,0,3.78,3.78,0,0,0,.85-.21,3.4,3.4,0,0,0,.75-.4,4.87,4.87,0,0,0,.72-.61,1.41,1.41,0,0,1,.32-.24A.62.62,0,0,1,998.63,1482.22Z"/><path class="cls-44" d="M1003.13,1481.47a2.43,2.43,0,0,1,.14-.82,2.4,2.4,0,0,1,.39-.66,1.72,1.72,0,0,1,.57-.43,1.58,1.58,0,0,1,.72-.16,1.65,1.65,0,0,1,.7.18,2,2,0,0,1,.57.46,2.2,2.2,0,0,1,.38.67,2.49,2.49,0,0,1,.12.83,2.31,2.31,0,0,1-.15.83,2,2,0,0,1-.39.66,1.76,1.76,0,0,1-.58.43,1.66,1.66,0,0,1-.7.15,1.7,1.7,0,0,1-1.28-.63,2.12,2.12,0,0,1-.37-.68A2.26,2.26,0,0,1,1003.13,1481.47Z"/><line class="cls-46" x1="952.2" y1="1499.67" x2="1009.66" y2="1493"/><line class="cls-47" x1="949.24" y1="1451.63" x2="1007.42" y2="1454.65"/><text class="cls-4" transform="translate(171.54 2374.49)">Jesus<tspan class="cls-48" x="47.32" y="0"> </tspan><tspan x="53.05" y="0">ist</tspan><tspan class="cls-48" x="73.53" y="0"> </tspan><tspan x="79.26" y="0">nicht</tspan><tspan class="cls-48" x="121.87" y="0"> </tspan><tspan x="127.6" y="0">nur</tspan><tspan class="cls-49" x="157.18" y="0"> </tspan><tspan x="162.91" y="0">für</tspan><tspan class="cls-50" x="188.11" y="0"> </tspan><tspan x="193.84" y="0">uns</tspan><tspan class="cls-49" x="224.08" y="0"> </tspan><tspan x="229.8" y="0">gestorben,</tspan><tspan class="cls-48" x="320.51" y="0"> </tspan><tspan x="326.24" y="0">sondern</tspan><tspan class="cls-49" x="396.38" y="0"> </tspan><tspan x="402.1" y="0">hat</tspan><tspan class="cls-50" x="429.78" y="0"> </tspan><tspan x="435.51" y="0">als </tspan><tspan x="0" y="33">ersten</tspan><tspan class="cls-51" x="54.93" y="33"> </tspan><tspan x="61.18" y="33">den</tspan><tspan class="cls-51" x="93.14" y="33"> </tspan><tspan class="cls-52" x="99.39" y="33">T</tspan><tspan x="108.93" y="33">od</tspan><tspan class="cls-53" x="130.67" y="33"> </tspan><tspan x="136.93" y="33">überwunden</tspan><tspan class="cls-51" x="245.17" y="33"> </tspan><tspan x="251.42" y="33">und</tspan><tspan class="cls-51" x="283.98" y="33"> </tspan><tspan x="290.23" y="33">damit</tspan><tspan class="cls-53" x="338.67" y="33"> </tspan><tspan x="344.93" y="33">den</tspan><tspan class="cls-51" x="376.88" y="33"> </tspan><tspan class="cls-54" x="383.14" y="33">W</tspan><tspan x="402.68" y="33">eg</tspan><tspan class="cls-53" x="422.99" y="33"> </tspan><tspan x="429.25" y="33">frei </tspan><tspan x="0" y="66">gemacht,</tspan><tspan class="cls-55" x="76.95" y="66"> </tspan><tspan x="84.05" y="66">dass</tspan><tspan class="cls-55" x="121.9" y="66"> </tspan><tspan x="129" y="66">wir</tspan><tspan class="cls-55" x="156.43" y="66"> </tspan><tspan x="163.53" y="66">nicht</tspan><tspan class="cls-55" x="206.15" y="66"> </tspan><tspan x="213.25" y="66">nur</tspan><tspan class="cls-56" x="242.82" y="66"> </tspan><tspan x="249.92" y="66">hier</tspan><tspan class="cls-55" x="283.65" y="66"> </tspan><tspan x="290.75" y="66">auf</tspan><tspan class="cls-56" x="317.74" y="66"> </tspan><tspan x="324.84" y="66">Erden</tspan><tspan class="cls-55" x="376.56" y="66"> </tspan><tspan x="383.66" y="66">mit</tspan><tspan class="cls-57" x="411.45" y="66"> </tspan><tspan x="418.55" y="66">Gott </tspan><tspan x="0" y="99">eine</tspan><tspan class="cls-58" x="36.01" y="99"> </tspan><tspan x="41.66" y="99">Beziehung</tspan><tspan class="cls-58" x="131.26" y="99"> </tspan><tspan x="136.91" y="99">haben</tspan><tspan class="cls-58" x="189.42" y="99"> </tspan><tspan class="cls-28" x="195.07" y="99">k</tspan><tspan x="204.31" y="99">önnen,</tspan><tspan class="cls-58" x="261.76" y="99"> </tspan><tspan x="267.41" y="99">sondern</tspan><tspan class="cls-59" x="337.55" y="99"> </tspan><tspan x="343.2" y="99">auch</tspan><tspan class="cls-60" x="383.67" y="99"> </tspan><tspan x="389.32" y="99">in</tspan><tspan class="cls-58" x="404.89" y="99"> </tspan><tspan x="410.54" y="99">Ewig</tspan><tspan x="451.94" y="99">-</tspan><tspan class="cls-28" x="0" y="132">k</tspan><tspan x="9.24" y="132">eit im Himmel. </tspan></text><text class="cls-61" transform="translate(171.54 2318.1)">Der <tspan class="cls-30" x="61.88" y="0">W</tspan><tspan class="cls-62" x="92.83" y="0">eg</tspan></text><path class="cls-32" d="M429.91,2564.06c18.38,5.11,49.9,6.7,99,9.45s139.45-12.1,166.72-6.55,48.33,26.37,80.93,36.14c56.34,16.87,202.28-29.85,202.28-29.85s-81.17.7-111.16-8-89.77-55.22-137.13-50.72-116.49,35.27-174.17,40.89-134.29.78-159.7,2.61C307.82,2564.4,411.53,2558.94,429.91,2564.06Z"/><path class="cls-44" d="M497.15,2564.87S596.31,2548,688.23,2544c24.54,1.28,55.27,36.59,77,41.06s53.41-24.92,53.41-24.92-74.33-31.68-91.91-36.46C692,2514.2,634.71,2548.57,497.15,2564.87Z"/><path class="cls-32" d="M847.47,2517.37c7.73,44.76-10.25,85.41-41.4,90.79s-63.67-26.54-71.4-71.29,11.25-85.41,42.39-90.79a40,40,0,0,1,7.05-.59C812.83,2445.58,840.32,2476,847.47,2517.37Z"/><path class="cls-32" d="M999.18,2518.49c4.8,27.83-7,53.1-26.37,56.45s-39-16.5-43.77-44.34,7-53.1,26.37-56.45S994.37,2490.65,999.18,2518.49Z"/><polygon class="cls-32" points="964.11 2474.06 973.38 2574.84 805.07 2608.16 797.7 2573.25 794.69 2447.31 964.11 2474.06"/><path class="cls-44" d="M830.6,2453.43s71.94,54.43,10.62,147.57c.5.85,122.65-23.7,123.31-23.6s46.14-59.24-13.35-105.32C955.69,2472.46,830.6,2453.43,830.6,2453.43Z"/><path class="cls-63" d="M798.91,2526.44c.57,12.89-5.58,23.63-13.75,24s-15.26-9.78-15.84-22.66,5.58-23.62,13.75-24S798.33,2513.56,798.91,2526.44Z"/><path class="cls-64" d="M830.16,2520.57c4.87,39.12-11.29,73.34-36.09,76.44s-48.86-26.1-53.73-65.21,11.29-73.34,36.09-76.44S825.29,2481.46,830.16,2520.57Z"/><text class="cls-4" transform="translate(171.54 2996.28)">Um<tspan class="cls-65" x="30.58" y="0"> </tspan><tspan x="33.76" y="0">die</tspan><tspan class="cls-66" x="59.65" y="0"> </tspan><tspan x="62.83" y="0">Auferstehung</tspan><tspan class="cls-65" x="179.63" y="0"> </tspan><tspan x="182.81" y="0">und</tspan><tspan class="cls-65" x="215.37" y="0"> </tspan><tspan x="218.55" y="0">ob</tspan><tspan class="cls-66" x="240.29" y="0"> </tspan><tspan x="243.47" y="0">sie</tspan><tspan class="cls-65" x="267.04" y="0"> </tspan><tspan x="270.21" y="0">wirklich</tspan><tspan class="cls-66" x="336.9" y="0"> </tspan><tspan x="340.08" y="0">geschehen</tspan><tspan class="cls-65" x="430.99" y="0"> </tspan><tspan x="434.17" y="0">ist, </tspan><tspan x="0" y="33">werden viele Diskussionen und Theorien gemacht. Die </tspan><tspan x="0" y="66">Auferstehung</tspan><tspan class="cls-67" x="116.8" y="66"> </tspan><tspan x="122.89" y="66">ist</tspan><tspan class="cls-67" x="143.37" y="66"> </tspan><tspan x="149.46" y="66">jedoch</tspan><tspan class="cls-68" x="206.05" y="66"> </tspan><tspan x="212.14" y="66">für</tspan><tspan class="cls-67" x="237.34" y="66"> </tspan><tspan x="243.43" y="66">den</tspan><tspan class="cls-67" x="275.39" y="66"> </tspan><tspan x="281.48" y="66">christlichen</tspan><tspan class="cls-67" x="380.28" y="66"> </tspan><tspan x="386.37" y="66">Glauben </tspan><tspan x="0" y="99">zent</tspan><tspan class="cls-17" x="37.21" y="99">r</tspan><tspan x="44.65" y="99">al</tspan><tspan class="cls-69" x="59.13" y="99"> </tspan><tspan x="67.39" y="99">und</tspan><tspan class="cls-70" x="99.95" y="99"> </tspan><tspan x="108.21" y="99">gehört</tspan><tspan class="cls-71" x="165.23" y="99"> </tspan><tspan x="173.49" y="99">zum</tspan><tspan class="cls-70" x="209.26" y="99"> </tspan><tspan x="217.52" y="99">Kreuz</tspan><tspan class="cls-71" x="268.74" y="99"> </tspan><tspan x="277" y="99">dazu.</tspan><tspan class="cls-71" x="321.46" y="99"> </tspan><tspan x="329.72" y="99">Nur</tspan><tspan class="cls-70" x="363.6" y="99"> </tspan><tspan x="371.86" y="99">so</tspan><tspan class="cls-69" x="391.28" y="99"> </tspan><tspan class="cls-28" x="399.54" y="99">k</tspan><tspan x="408.78" y="99">onnte </tspan><tspan x="0" y="132">Jesus</tspan><tspan class="cls-72" x="47.32" y="132"> </tspan><tspan x="51" y="132">den</tspan><tspan class="cls-72" x="82.96" y="132"> </tspan><tspan class="cls-52" x="86.64" y="132">T</tspan><tspan x="96.18" y="132">od</tspan><tspan class="cls-73" x="117.92" y="132"> </tspan><tspan x="121.61" y="132">überwinden</tspan><tspan class="cls-72" x="223.78" y="132"> </tspan><tspan x="227.46" y="132">und</tspan><tspan class="cls-72" x="260.02" y="132"> </tspan><tspan x="263.7" y="132">damit</tspan><tspan class="cls-72" x="312.14" y="132"> </tspan><tspan x="315.83" y="132">den</tspan><tspan class="cls-72" x="347.78" y="132"> </tspan><tspan class="cls-54" x="351.47" y="132">W</tspan><tspan x="371.01" y="132">eg</tspan><tspan class="cls-72" x="391.32" y="132"> </tspan><tspan x="395" y="132">zu</tspan><tspan class="cls-73" x="414.86" y="132"> </tspan><tspan x="418.55" y="132">Gott </tspan><tspan x="0" y="165">frei</tspan><tspan class="cls-74" x="29.35" y="165"> </tspan><tspan x="35.07" y="165">machen.</tspan><tspan class="cls-75" x="105.62" y="165"> </tspan><tspan x="111.34" y="165">Ohne</tspan><tspan class="cls-74" x="159.15" y="165"> </tspan><tspan x="164.87" y="165">die</tspan><tspan class="cls-74" x="190.76" y="165"> </tspan><tspan x="196.49" y="165">Auferstehung,</tspan><tspan class="cls-74" x="317.24" y="165"> </tspan><tspan x="322.97" y="165">würde</tspan><tspan class="cls-75" x="377.6" y="165"> </tspan><tspan x="383.33" y="165">auch</tspan><tspan class="cls-74" x="423.79" y="165"> </tspan><tspan x="429.52" y="165">der </tspan><tspan class="cls-52" x="0" y="198">T</tspan><tspan x="9.54" y="198">od </tspan><tspan class="cls-11" x="35.14" y="198">v</tspan><tspan x="44.7" y="198">on Jesus nichts nützen. </tspan></text><text class="cls-61" transform="translate(171.54 2939.89)">Auferstehung</text><polygon class="cls-44" points="705.83 3175.01 985.33 3220.11 1038.33 3163.59 847.94 3149.41 717.94 3165.91 705.83 3175.01"/><polygon class="cls-76" points="695.61 3175.01 694.98 3095.43 697.99 3086.52 694.8 3073.26 699.33 3062.19 694.28 3006.96 714.44 2951.42 740.18 2939.89 789.83 2973.41 806.18 3015.92 847.94 3149.41 747.32 3181.27 695.61 3175.01"/><polygon class="cls-32" points="847.94 3149.41 855.48 3199.16 747.32 3181.27 847.94 3149.41"/><polygon class="cls-77" points="747.32 3181.27 724.83 2990.42 740.18 2939.89 789.83 2973.41 807.33 3019.57 847.94 3149.41 747.32 3181.27"/><polygon class="cls-44" points="774.77 3237.91 860.37 3214.98 838.37 3210.09 874.97 3201.01 892.59 3203.87 856.41 3210.09 883.08 3214.19 774.77 3237.91"/><polygon class="cls-44" points="951.02 3256.91 946.96 3223.27 924.96 3218.39 961.56 3209.3 979.18 3212.16 943 3218.39 957.59 3220.63 951.02 3256.91"/><path class="cls-44" d="M1041.9,3203.56l-11,1.42-5.74,2.56-.33,6.71s7.44-.36,9.08-.57C1036.59,3205.18,1041.9,3203.56,1041.9,3203.56Z"/><polygon class="cls-44" points="1044.6 3203.22 1036.5 3213.52 1069.99 3211.4 1079.32 3203.29 1076.12 3199.16 1044.6 3203.22"/><path class="cls-44" d="M1092.39,3171.33l-8.4.33-4.53,1.56-.69,5.05s5.66.23,6.91.18C1088.26,3172.2,1092.39,3171.33,1092.39,3171.33Z"/><polygon class="cls-44" points="1094.46 3171.24 1087.63 3178.5 1113.15 3179.14 1120.76 3173.63 1118.62 3170.28 1094.46 3171.24"/><path class="cls-44" d="M1124.61,3192.63l-12.77,2.29-6.08,3.27,2,5.56c6.38-1.5,6.09-1.48,8-1.57C1119.11,3193.83,1124.61,3192.63,1124.61,3192.63Z"/><polygon class="cls-44" points="1128.07 3191.91 1119.02 3201.64 1160.69 3195.12 1163.82 3188.65 1160.39 3185.9 1128.07 3191.91"/><path class="cls-44" d="M1033.42,3176.1h-11.06l-6,1.81-1.17,6.61s7.42.6,9.07.6C1028,3177,1033.42,3176.1,1033.42,3176.1Z"/><polygon class="cls-44" points="1036.14 3176.1 1026.79 3185.28 1060.28 3187.46 1070.57 3180.61 1067.92 3176.1 1036.14 3176.1"/><path class="cls-44" d="M1141.69,3143.92c0,1.43-5.08,2.59-11.34,2.59s-11.33-1.16-11.33-2.59,5.07-2.58,11.33-2.58S1141.69,3142.49,1141.69,3143.92Z"/><path class="cls-44" d="M1179,3171.64c0,4-1.68,7.24-3.75,7.24s-3.75-3.24-3.75-7.24,1.68-7.25,3.75-7.25S1179,3167.64,1179,3171.64Z"/><path class="cls-44" d="M1167,3158.74c-.23,1-6.1.63-13.12-.9s-12.51-3.62-12.28-4.66,6.09-.63,13.11.9S1167.25,3157.7,1167,3158.74Z"/><path class="cls-44" d="M1153.14,3168.77c.76,1.53-1.21,4-4.39,5.61s-6.37,1.58-7.12,0,1.21-4,4.39-5.61S1152.39,3167.23,1153.14,3168.77Z"/><path class="cls-44" d="M1128,3132.08c0,.72-6.83,1.49-15.3,1.73s-15.34-.15-15.36-.87,6.83-1.48,15.29-1.72S1128,3131.37,1128,3132.08Z"/><path class="cls-44" d="M1095.7,3126.56c0,.71-6.82,1.48-15.29,1.72s-15.34-.15-15.36-.87,6.82-1.48,15.29-1.72S1095.68,3125.84,1095.7,3126.56Z"/><path class="cls-44" d="M1016.33,3113.87a8,8,0,0,1-2.63.3,8.09,8.09,0,0,1-2.64-.15,15.55,15.55,0,0,1,5.27-.15Z"/><path class="cls-44" d="M982.66,3113.71a8.07,8.07,0,0,1-2.63.3,8.17,8.17,0,0,1-2.65-.15,7.79,7.79,0,0,1,2.64-.3A8.09,8.09,0,0,1,982.66,3113.71Z"/><path class="cls-44" d="M968,3113.7a8.24,8.24,0,0,1-2.63.29,8,8,0,0,1-2.65-.14,7.79,7.79,0,0,1,2.64-.3A8.13,8.13,0,0,1,968,3113.7Z"/><path class="cls-44" d="M958.64,3113.69a8.27,8.27,0,0,1-2.64.29,7.82,7.82,0,0,1-2.64-.15,8.24,8.24,0,0,1,2.63-.29A7.86,7.86,0,0,1,958.64,3113.69Z"/><path class="cls-44" d="M991.29,3116.88a7.7,7.7,0,0,1-2.63.3A8.05,8.05,0,0,1,986,3117a8,8,0,0,1,2.63-.3A8.09,8.09,0,0,1,991.29,3116.88Z"/><path class="cls-44" d="M998.64,3113.67a7.79,7.79,0,0,1-2.64.3,8.13,8.13,0,0,1-2.64-.15,8.24,8.24,0,0,1,2.63-.29A8,8,0,0,1,998.64,3113.67Z"/><path class="cls-44" d="M1006,3116.9a8.24,8.24,0,0,1-2.63.29,7.86,7.86,0,0,1-2.65-.15,8.24,8.24,0,0,1,2.63-.29A7.86,7.86,0,0,1,1006,3116.9Z"/><path class="cls-44" d="M1043.86,3120.91c0,.26-2.47.54-5.53.63s-5.53-.06-5.54-.32,2.47-.55,5.53-.63S1043.85,3120.65,1043.86,3120.91Z"/><path class="cls-44" d="M1063.44,3119.94c0,.26-2.47.54-5.53.63s-5.53-.06-5.54-.32,2.47-.55,5.53-.63S1063.43,3119.68,1063.44,3119.94Z"/><path class="cls-44" d="M1032.33,3117c0,.26-2.47.54-5.53.63s-5.53-.06-5.54-.32,2.48-.54,5.53-.63S1032.33,3116.78,1032.33,3117Z"/><polygon class="cls-44" points="995.46 3209.3 1009.42 3210.09 1007.63 3225.14 1024.29 3226.03 1003.32 3228.94 1004.72 3214.25 991.29 3211.26 995.46 3209.3"/><polygon class="cls-44" points="932.83 3159.32 932.83 3152.61 946.33 3152.61 937.33 3159.32 932.83 3159.32"/><path class="cls-44" d="M968,3156s-5.72,4.29-2.64,3.36,17.33-3.36,17.33-3.36"/><polygon class="cls-44" points="996 3157.7 996 3164.09 1011.06 3160.9 1013.7 3155.96 996 3157.7"/><polygon class="cls-44" points="886.83 3149.41 896.33 3149.41 896.33 3146.51 884.83 3146.51 886.83 3149.41"/><polygon class="cls-44" points="771.11 3193.77 783.33 3197.61 777.22 3199.16 762.33 3199.16 771.11 3193.77"/><path class="cls-76" d="M769.62,3036.28a28.79,28.79,0,0,1,1.11,8.32,17.65,17.65,0,0,1-1.61,7.1,15.47,15.47,0,0,1-4.46,5.55,20.88,20.88,0,0,1-7.5,3.6,40.36,40.36,0,0,1-4.11.91,36.76,36.76,0,0,1-4.37.43l-1.31-7.29a2.23,2.23,0,0,1,.32-1.72,2.88,2.88,0,0,1,1.7-1.09,8.21,8.21,0,0,1,1.57-.22,10.51,10.51,0,0,0,2.21-.4,9,9,0,0,0,3-1.34,4.87,4.87,0,0,0,1.73-2.22,8.1,8.1,0,0,0,.48-3.34,20.82,20.82,0,0,0-.83-4.66l-9.32-33.77,12,3.93Z"/><path class="cls-76" d="M793.43,3044.85a.48.48,0,0,1,.35.08,1.54,1.54,0,0,1,.41.45l2.73,4.26a15.37,15.37,0,0,1-1.74,6.29,5.59,5.59,0,0,1-3.75,2.78,5.42,5.42,0,0,1-4.32-1,15.55,15.55,0,0,1-4-4.51,39.65,39.65,0,0,1-3.45-7.36,69.16,69.16,0,0,1-2.66-9.6,63.11,63.11,0,0,1-1.29-10,36.83,36.83,0,0,1,.48-8.15,15,15,0,0,1,2.14-5.71,5.85,5.85,0,0,1,3.71-2.65,4.69,4.69,0,0,1,2.14.05,6.94,6.94,0,0,1,2.06.95,10.64,10.64,0,0,1,1.95,1.68,16.63,16.63,0,0,1,1.77,2.32l-.47,5.33a4.9,4.9,0,0,1-.17.91.62.62,0,0,1-.48.49.59.59,0,0,1-.5-.17,5.67,5.67,0,0,1-.58-.55l-.69-.71a5.18,5.18,0,0,0-.85-.68,3.6,3.6,0,0,0-1-.45,2.75,2.75,0,0,0-1.28,0,3.09,3.09,0,0,0-2,1.52,9.11,9.11,0,0,0-1.1,3.41,25.36,25.36,0,0,0-.13,5,45.12,45.12,0,0,0,.91,6.42,47.11,47.11,0,0,0,1.75,6.44,25.22,25.22,0,0,0,2.09,4.58,8.86,8.86,0,0,0,2.23,2.64,2.72,2.72,0,0,0,2.19.6,3.71,3.71,0,0,0,1.08-.37,2.63,2.63,0,0,0,.83-.7,4.49,4.49,0,0,0,.63-1.11,10.48,10.48,0,0,0,.49-1.59,2.68,2.68,0,0,1,.23-.61A.55.55,0,0,1,793.43,3044.85Z"/><polygon class="cls-76" points="772.83 3058.81 772.83 3062.19 777.83 3062.19 772.83 3058.81"/><polygon class="cls-76" points="797.63 3058.81 799.83 3062.19 805.33 3062.19 797.63 3058.81"/><path class="cls-76" d="M772.35,3104.9a31.72,31.72,0,0,0-.61-3.59,4.77,4.77,0,0,1-.43-1.54,12.27,12.27,0,0,0-.53-1.39,4.56,4.56,0,0,1-.68-1.29,4.33,4.33,0,0,0-1.21-1.29,2.65,2.65,0,0,0-.83-.37,4,4,0,0,1-2.59,1.14,5.33,5.33,0,0,0-.7,1.57,13.14,13.14,0,0,0-.44,3.21,29.28,29.28,0,0,0,.23,4.47,29.83,29.83,0,0,0,.81,4.4,14,14,0,0,0,1.18,3,4.93,4.93,0,0,0,1.45,1.7,2.42,2.42,0,0,0,1.62.42,2.26,2.26,0,0,0,.84-.28,4.09,4.09,0,0,1,1.46-1.88,5.46,5.46,0,0,0,.21-.61,13.76,13.76,0,0,0,.45-3.21A29.17,29.17,0,0,0,772.35,3104.9Zm-2.18,5.68a2.35,2.35,0,0,1-.39,1.08.89.89,0,0,1-.55.35.88.88,0,0,1-.62-.21,2.36,2.36,0,0,1-.62-1,11.28,11.28,0,0,1-.6-2,33.5,33.5,0,0,1-.52-3.31,32.77,32.77,0,0,1-.26-3.33,11.87,11.87,0,0,1,.11-2.07,2.35,2.35,0,0,1,.39-1.07.75.75,0,0,1,1.16-.14,2.38,2.38,0,0,1,.64,1,11,11,0,0,1,.6,2,31,31,0,0,1,.53,3.3,33.15,33.15,0,0,1,.26,3.34A10.68,10.68,0,0,1,770.17,3110.58Z"/><path class="cls-76" d="M783.22,3106.09l-.3-2.5-3.89.46.39,3.36,1.54-.19A4,4,0,0,1,783.22,3106.09Z"/><path class="cls-76" d="M797.77,3105.78c-.26-2.19-1-3.59-2.27-4.2a2.49,2.49,0,0,0,.6-.69,3,3,0,0,0,.39-.93,5.73,5.73,0,0,0,.15-1.26,9.73,9.73,0,0,0-.09-1.64,8.74,8.74,0,0,0-.44-1.91,5.5,5.5,0,0,0-.83-1.54,3.41,3.41,0,0,0-.87-.79c-.12,0-.23,0-.36,0a4.51,4.51,0,0,1-1.82-.37,3.08,3.08,0,0,0-.76.35,4.1,4.1,0,0,1-1.18,1.53,6.9,6.9,0,0,0-.49,1.64,11.71,11.71,0,0,0-.15,2.6l1.23.25.18,0h.15a.57.57,0,0,0,.45-.33,2.44,2.44,0,0,0,.19-.91,5,5,0,0,1,.11-.69,2.43,2.43,0,0,1,.23-.57,1.31,1.31,0,0,1,.33-.4.8.8,0,0,1,.44-.19,1,1,0,0,1,1,.51,4.19,4.19,0,0,1,.51,1.74,7.67,7.67,0,0,1,0,1,2,2,0,0,1-.2.84,1.57,1.57,0,0,1-.56.59,2.67,2.67,0,0,1-1,.31l.34,2.87a3,3,0,0,1,1.24,0,1.33,1.33,0,0,1,.71.48,1.92,1.92,0,0,1,.37.83c.07.33.13.71.18,1.13a4.4,4.4,0,0,1,0,1,3.27,3.27,0,0,1-.18.87,1.81,1.81,0,0,1-.39.66,1,1,0,0,1-.62.31,1,1,0,0,1-.92-.4,5.88,5.88,0,0,1-.88-1.53,1.12,1.12,0,0,0-.33-.46.6.6,0,0,0-.44-.12.73.73,0,0,0-.24.07.94.94,0,0,0-.24.18l-.91.87a18.54,18.54,0,0,0,.87,2.29,7.38,7.38,0,0,0,.87,1.37,4.1,4.1,0,0,1,2.75,1.09,2.7,2.7,0,0,0,1.25-.52,3.55,3.55,0,0,0,1.05-1.28,6.62,6.62,0,0,0,.58-2A10.5,10.5,0,0,0,797.77,3105.78Z"/><path class="cls-76" d="M807.27,3101.22c0-.15,0-.29,0-.44a28.4,28.4,0,0,0-.82-4.41,13.18,13.18,0,0,0-1.19-3,6.9,6.9,0,0,0-.47-.72,3.93,3.93,0,0,1-2.46-1.38h-.15a2.42,2.42,0,0,0-1.48.78,5,5,0,0,0-1,2,13.13,13.13,0,0,0-.44,3.2,29.35,29.35,0,0,0,.23,4.48,29.83,29.83,0,0,0,.81,4.4,14,14,0,0,0,1.18,3,4.93,4.93,0,0,0,1.45,1.7l.16.08a4.92,4.92,0,0,1,1.12-.13,4.59,4.59,0,0,1,1.21.17,2.79,2.79,0,0,0,.61-.49,4.73,4.73,0,0,0,1-2,13.76,13.76,0,0,0,.45-3.21,24.5,24.5,0,0,0-.06-2.66A4.86,4.86,0,0,1,807.27,3101.22Zm-2.23,5.24a2.35,2.35,0,0,1-.39,1.08.89.89,0,0,1-.55.35.88.88,0,0,1-.62-.21,2.36,2.36,0,0,1-.62-1,11.28,11.28,0,0,1-.6-2,33.5,33.5,0,0,1-.52-3.31,32.77,32.77,0,0,1-.26-3.33,11,11,0,0,1,.11-2.07A2.35,2.35,0,0,1,802,3095a.75.75,0,0,1,1.16-.14,2.38,2.38,0,0,1,.64,1,11,11,0,0,1,.6,2,31,31,0,0,1,.53,3.3,33.15,33.15,0,0,1,.26,3.34A10.68,10.68,0,0,1,805,3106.46Z"/><polygon class="cls-77" points="731.99 3128.35 731.99 3137.26 741.58 3132.51 744.66 3126.99 738.33 3131.15 731.99 3128.35"/><polygon class="cls-39" points="739.42 2942.38 791.08 2976.72 789.83 2973.41 740.18 2939.89 739.42 2942.38"/><polygon class="cls-45" points="675.8 3174.51 670.43 3146.51 686.52 3174.51 694.28 3160.51 694.28 3172.78 705.83 3168.91 699.93 3178.66 678.48 3178.66 675.8 3174.51"/><polygon class="cls-45" points="724.83 3181.08 720.71 3160.63 731.99 3176.96 734.79 3160.63 738.81 3173.64 751.55 3168.69 747.32 3182.64 724.83 3181.08"/><polygon class="cls-45" points="845.41 3141.34 853.45 3132.12 849.43 3141.34 859.48 3141.34 852.45 3147.96 847.94 3149.41 845.41 3141.34"/><polygon class="cls-45" points="754.23 3185.9 759.03 3171.6 762.33 3187.46 772.83 3182.64 764.32 3190.25 754.23 3185.9"/><polygon class="cls-45" points="803.32 3162.59 807.46 3149.41 811.88 3156 816.58 3143.92 821.75 3157.7 822.77 3152.61 827.26 3155.96 803.32 3162.59"/><polygon class="cls-76" points="768.23 3000.09 765.48 2997.87 774.77 2980.31 778.42 2985.38 768.23 3000.09"/><polygon class="cls-45" points="833.68 3153.26 833.68 3147.96 838.52 3150.61 840.1 3137.26 842.72 3152.61 833.68 3153.26"/><path class="cls-44" d="M781.46,2981.91c1.32,4.22.39,8.26-2.07,9s-5.52-2-6.84-6.25-.39-8.25,2.07-9S780.14,2977.69,781.46,2981.91Z"/><polygon class="cls-45" points="777.83 3172.89 774.77 3164.09 781.12 3167.63 781.12 3155.96 786.39 3169.28 777.83 3172.89"/><path class="cls-32" d="M772.52,2984.57l0,.12a11.47,11.47,0,0,0,2.93,4.93l2.94-4.24-3.65-5.07Z"/><path class="cls-63" d="M779.45,2982.54c.73,2.32.22,4.54-1.13,5s-3-1.12-3.76-3.43-.22-4.54,1.14-5S778.73,2980.22,779.45,2982.54Z"/><path class="cls-32" d="M847.49,2975.73l-6.06-3.69,4.44-5.55-2.52-14.31-7.39-1-7.52,1.33-16.66,21.24-36,6.52c-.51,2.23.37,6.45,1.89,6.18l35.45-6.25,22.9,15.37,7.82-1.38,6.16-4.3Zm-5.75,13.42-4.54.8-20.49-13.75,14.69-18.73,4.68-.82,2.66.34,1.42,8-6.73,8.42,9.2,5.6,1.49,8.44Z"/><path class="cls-2" d="M776.13,2983.26l33-6-.31-1.77L776,2981.32A5.08,5.08,0,0,1,776.13,2983.26Z"/><polygon class="cls-2" points="814.51 2974.61 830.26 2954.67 828.82 2953.6 814.08 2972.25 814.51 2974.61"/><rect class="cls-2" x="830.52" y="2952.89" width="4.69" height="0.91" transform="translate(-499.94 189.37) rotate(-9.99)"/><rect class="cls-2" x="837.21" y="2990.95" width="4.24" height="0.81" transform="translate(-506.56 191.13) rotate(-10)"/><polygon class="cls-76" points="759.03 3051.69 754.23 3047.59 759.03 3047.59 759.03 3051.69"/><polygon class="cls-76" points="809.16 3037.92 803.32 3035.92 807.46 3041.36 809.16 3043.59 809.16 3037.92"/><polygon class="cls-76" points="830.48 3138.59 830.26 3132.12 832.86 3138.59 830.48 3138.59"/><polygon class="cls-76" points="789.64 3135.36 791.08 3140.77 792.57 3138.59 789.64 3135.36"/><polygon class="cls-76" points="756.63 3162.59 764.31 3175.89 765.48 3175.52 756.63 3162.59"/><polygon class="cls-76" points="736.13 3098.59 739.42 3088.26 737.78 3102.42 736.13 3098.59"/><polygon class="cls-76" points="729.66 3054.59 733.99 3054.59 731.83 3058.81 729.66 3054.59"/><polygon class="cls-76" points="724.83 2975.54 733.99 2983.26 726.33 2980.31 724.83 2975.54"/><polygon class="cls-76" points="817.66 3104.72 785.66 3101.34 783.77 3099.59 785.49 3097.96 817.51 3101.45 819.54 3102.42 817.66 3104.72"/><polygon class="cls-44" points="1029.38 1468.51 1017.62 1470.08 1029.38 1470.08 1029.38 1468.51"/><polygon class="cls-44" points="909.69 1468.51 933.23 1468.51 910.84 1470.08 909.69 1468.51"/><polyline class="cls-44" points="751.33 1437.16 751.33 1439.8 881.33 1425.77"/><polyline class="cls-44" points="961.33 1420.14 1067.56 1439.8 1069.33 1438.49"/><polygon class="cls-78" points="801.63 3730.36 780.36 3721.6 781.85 3701.25 811.81 3661.85 824.55 3681.68 811.31 3694.21 812.74 3703.39 806.12 3709.91 801.63 3730.36"/><polygon class="cls-78" points="743.67 3900.99 721.17 3905.75 718.92 3866.97 741.42 3862.21 743.67 3900.99"/><polygon class="cls-78" points="874.39 3811.86 864.29 3806.92 886.38 3774.99 923.75 3761.37 874.39 3811.86"/><polygon class="cls-31" points="894.45 3698.99 834.91 3701.25 809.24 3684.04 806.12 3566.08 875.44 3564.23 890.86 3574.53 894.45 3698.99"/><polygon class="cls-78" points="894.45 3698.99 834.91 3701.25 809.24 3684.04 807.64 3623.6 816.79 3623.6 834.91 3658.25 827.81 3662.42 836.85 3694.21 894.45 3698.99"/><polygon class="cls-78" points="894.45 3592.77 810.22 3602.98 806.12 3571.91 894.02 3579.07 894.45 3592.77"/><polygon class="cls-79" points="834.91 3655.24 827.23 3621.38 827.23 3582.8 779.56 3582.8 779.56 3613.42 793.18 3627.38 814.57 3627 821.66 3658.25 834.91 3655.24"/><polygon class="cls-79" points="901.05 3627.38 892.5 3625.56 891.4 3583.11 901.05 3591.41 901.05 3627.38"/><path class="cls-78" d="M868.29,3633.23c.3,11.71-4.85,21.34-11.49,21.51s-12.26-9.19-12.56-20.9,4.85-21.35,11.49-21.52S868,3621.51,868.29,3633.23Z"/><ellipse class="cls-78" cx="881.19" cy="3632.46" rx="11.35" ry="20.24"/><path class="cls-63" d="M862.25,3631c0,1.27-2.68,2.3-6,2.3s-6-1-6-2.3,2.68-2.31,6-2.31S862.25,3629.73,862.25,3631Z"/><path class="cls-63" d="M887.41,3632.88c0,1.27-2.68,2.3-6,2.3s-6-1-6-2.3,2.68-2.31,6-2.31S887.41,3631.61,887.41,3632.88Z"/><path class="cls-34" d="M901.05,3934.41c0,3.69-48.3,6.67-107.87,6.67s-107.87-3-107.87-6.67,48.29-6.66,107.87-6.66S901.05,3930.73,901.05,3934.41Z"/><polygon class="cls-31" points="815.88 3934.41 750.09 3934.41 726.85 3770.41 748.26 3714.41 781.85 3714.41 801.63 3730.36 808.41 3714.41 819.08 3714.41 836.85 3784.41 815.88 3934.41"/><polygon class="cls-45" points="750.09 3934.41 732.45 3755.78 748.26 3714.41 766.21 3835.41 766.21 3934.41 750.09 3934.41"/><g class="cls-80"><path class="cls-81" d="M736,3949.75h-8.42v-238H736Zm19.34-238h-8.43v238h8.43Zm19.33,0h-8.43v238h8.43Zm19.33,0h-8.43v238H794Zm19.34,0h-8.43v238h8.43Zm19.33,0h-8.43v238h8.43Z"/></g><polygon class="cls-31" points="730.62 3760.56 714.64 3831.75 710.31 3862.21 741.5 3873.75 731.31 3785.08 730.62 3760.56"/><path class="cls-63" d="M928.19,3753.66l-8.32-12.88-56.57,36.5,8.31,12.89c1.9,2.93,16.1-2.86,31.72-12.94S930.08,3756.6,928.19,3753.66Z"/><polygon class="cls-31" points="834.91 3776.78 846.64 3815.82 854.52 3799.83 862.25 3796.3 896.23 3815.82 862.25 3857.58 847.31 3857.58 827.81 3843.91 834.91 3776.78"/><path class="cls-76" d="M935.31,3722.88c3.89,6-14.15,24.6-40.29,41.47S844.53,3790,840.64,3784s14.14-24.6,40.28-41.47S931.41,3716.85,935.31,3722.88Z"/><path class="cls-82" d="M910.27,3739c1.83,2.84-6.67,11.59-19,19.53s-23.78,12.09-25.62,9.24,6.67-11.58,19-19.53S908.44,3736.2,910.27,3739Z"/><rect class="cls-78" x="838.57" y="3602.82" width="19.4" height="12.1" transform="translate(-713.46 246.65) rotate(-11.69)"/><polygon class="cls-78" points="888.13 3616.76 872.32 3614.98 873.64 3602.98 889.44 3604.76 888.13 3616.76"/><rect class="cls-79" x="840.57" y="3600.05" width="19.4" height="12.1" transform="translate(-712.86 247) rotate(-11.69)"/><polygon class="cls-79" points="888.13 3612.99 872.32 3611.21 873.64 3599.21 889.44 3600.99 888.13 3612.99"/><path class="cls-78" d="M893.71,3649.85H867.52v8.86l5.38,3.14h20.81s7,.27,7-6S893.71,3649.85,893.71,3649.85Z"/><path class="cls-31" d="M893.71,3649.85H867.52v6l5.38,2.12h20.81s7,.18,7-4.06S893.71,3649.85,893.71,3649.85Z"/><path class="cls-83" d="M870.14,3629.15c0,10-5,18.07-11.14,18.07s-11.15-8.09-11.15-18.07,5-18.07,11.15-18.07S870.14,3619.17,870.14,3629.15Z"/><path class="cls-83" d="M896.69,3629.15c0,10-5,18.07-11.15,18.07s-11.15-8.09-11.15-18.07,5-18.07,11.15-18.07S896.69,3619.17,896.69,3629.15Z"/><path class="cls-83" d="M847.36,3630.69h-5.07s-4.78,6.89-11.42,6.72-18.57-10.5-24.75-7.63-7.15,28,5.86,24.67"/><polygon class="cls-78" points="813.99 3633 788.25 3631.23 790.82 3656.55 816.79 3650.09 813.99 3633"/><polygon class="cls-84" points="891.4 3676.45 851.04 3686.91 851.04 3676.45 891.4 3676.45 891.4 3676.45"/><polygon class="cls-45" points="832.64 3785.87 844.23 3840.41 859 3840.41 885.54 3817.16 887.97 3825.97 862.25 3857.58 847.31 3857.58 827.81 3843.91 832.64 3785.87"/><polygon class="cls-45" points="848.27 3817.18 856.27 3829.41 867.52 3811.86 856.27 3803.41 848.27 3817.18"/><polygon class="cls-45" points="730.62 3869.72 727.81 3845.91 730.62 3760.56 710.31 3862.21 730.62 3869.72"/><rect class="cls-45" x="796.23" y="3757.24" width="27.98" height="33.45"/><polygon class="cls-79" points="895.18 3675.53 892.9 3661.54 845.91 3662.42 841.7 3673.43 841.67 3673.43 840.83 3690.45 852.44 3686.84 857.89 3676.45 885 3675.95 889.42 3688.55 894.44 3689.26 895.18 3675.53"/><polygon class="cls-78" points="737.63 3572.63 723.08 3559.75 627.27 3581.46 661.83 3662.42 711.44 3644.95 767.56 3655.75 730.83 3636.18 760.63 3625.53 737.63 3572.63"/><text class="cls-85" transform="matrix(0.97, -0.26, 0.26, 0.97, 650.94, 3607.65)">Grüss</text><text class="cls-85" transform="matrix(0.97, -0.26, 0.26, 0.97, 668.11, 3635.18)">Gott</text><text class="cls-86" transform="matrix(0.95, -0.3, 0.3, 0.95, 721.54, 3616.52)">!</text><polygon class="cls-39" points="870.23 2964.11 873.82 3000.09 909.72 3020.42 910.15 3006.14 910.15 2987.57 884.83 2958.3 870.23 2964.11"/><polygon class="cls-39" points="939.58 3043.59 924.96 3060.58 932.26 3071.42 953.36 3071.42 962.69 3080.42 980.02 3080.42 973.54 3062.19 973.54 3034.16 946.33 3026.15 939.58 3043.59"/><polygon class="cls-39" points="792.57 2857.09 779.03 2897.43 812.81 2904.93 832.86 2918.52 855.71 2918.52 848.72 2877.93 855.71 2846.33 824.02 2846.33 792.57 2857.09"/><polygon class="cls-39" points="611.94 2888.43 635.52 2910.93 647.77 2888.43 630.14 2846.33 624.31 2868.93 603.9 2857.09 611.94 2888.43"/><polygon class="cls-39" points="1003.32 3101.09 1007.79 3071.42 1024.86 3086.26 1041.9 3086.52 1048.68 3102.42 1043.86 3112.34 1016.33 3113.87 1003.32 3101.09"/><path class="cls-87" d="M697.46,2506.88c15.74-20.22,15.74-46.22,20.74-71.22,1-7,9-15,17.33-7.67.25-1.83-5.32-4.28,0,0,5.67,6.67,6.67,16.67,15.67,19.67,8,2,13-6,17-12,8-15,12-32,17-48,7-8,17-19,29-12,10,7,18,16,29,20,22,8,44,4,64-9l3-3c16-10,27-22,38-37a23.36,23.36,0,0,1,7-7c7-3,14-5,22-4,5,1,9,3,11,8,5,17,12,32,23,45a45.9,45.9,0,0,0,48.23,12.18"/><text class="cls-88" transform="translate(225.26 3725.81)">Irgendwo bei der Geschichte <tspan class="cls-11" x="0" y="33">v</tspan><tspan x="9.56" y="33">om Mann im KZ platzieren. </tspan></text></g><g id="Ebene_1" data-name="Ebene 1"><path class="cls-2" d="M601.46,860.25c-42.51,0-54.51-43-151.53-43l303,0C656.35,817.18,644,860.25,601.46,860.25Z"/><text class="cls-89" transform="translate(299.56 72.82)">fir<tspan class="cls-90" x="19.35" y="0">s</tspan><tspan x="26.57" y="0">t </tspan><tspan class="cls-91" x="37.36" y="0">s</tspan><tspan class="cls-92" x="44.58" y="0">teps</tspan></text><path class="cls-93" d="M271.58,47.94h13.36A5.08,5.08,0,0,1,290,53V68.79a5.09,5.09,0,0,1-5.09,5.09H271.58a5.09,5.09,0,0,1-5.09-5.09V53A5.09,5.09,0,0,1,271.58,47.94Z"/><path class="cls-94" d="M285.68,71.75l-17.76,2.12a1.23,1.23,0,0,1-1.43-1V49a1.17,1.17,0,0,1,1.17-1l17.76-2.12a1.22,1.22,0,0,1,1.43,1V70.72A1.15,1.15,0,0,1,285.68,71.75Z"/><path class="cls-95" d="M282.13,70.33,268,73.86a1.23,1.23,0,0,1-1.52-1V49a1.13,1.13,0,0,1,1-1l14.12-3.52a1.22,1.22,0,0,1,1.51,1V69.32A1.1,1.1,0,0,1,282.13,70.33Z"/><path class="cls-96" d="M277.8,68.83l-9.89,5a1.2,1.2,0,0,1-1.58-1V49.07a1.05,1.05,0,0,1,.84-1l9.89-5a1.2,1.2,0,0,1,1.59,1V67.85A1.06,1.06,0,0,1,277.8,68.83Z"/><path class="cls-93" d="M286.7,73.5a3.17,3.17,0,0,0,.86,3.75c.15.14-4.16.77-5.25-3.75"/><text class="cls-97" transform="translate(169.55 299.26)">RETTUNG – <tspan class="cls-98" x="0" y="100">W</tspan><tspan x="89.09" y="100">AS JESUS </tspan><tspan class="cls-99" x="486.91" y="100">TA</tspan><tspan class="cls-100" x="591.58" y="100">T!</tspan></text><text class="cls-101" transform="translate(169.55 207.41)">KAPITEL 3</text><text class="cls-102" transform="translate(169.54 460.12)">Gott ist heilig <tspan class="cls-103" x="126.78" y="0">(</tspan><tspan x="132.66" y="0">Offenbarung 4,8) und die Menschen sind es nicht, sondern sie sind sündig </tspan><tspan x="0" y="28">(Römer 3, 23) . Gott kann nur Beziehung mit jemanden haben, der auch heilig ist (Jesaja 59,2: </tspan><tspan x="0" y="56">„</tspan><tspan class="cls-104" x="7.64" y="56">sondern eu</tspan><tspan class="cls-105" x="98.98" y="56">r</tspan><tspan class="cls-104" x="105.62" y="56">e </tspan><tspan class="cls-106" x="119.07" y="56">V</tspan><tspan class="cls-104" x="130.49" y="56">erschuldungen scheiden euch </tspan><tspan class="cls-107" x="377.09" y="56">v</tspan><tspan class="cls-104" x="386.38" y="56">on eu</tspan><tspan class="cls-108" x="431.69" y="56">r</tspan><tspan class="cls-104" x="438.33" y="56">em Gott, und eu</tspan><tspan class="cls-105" x="571.29" y="56">r</tspan><tspan class="cls-104" x="577.92" y="56">e Sünden </tspan><tspan class="cls-109" x="657.88" y="56">v</tspan><tspan class="cls-104" x="667.17" y="56">erbergen sein Ange</tspan><tspan class="cls-104" x="823.1" y="56">-</tspan><tspan class="cls-110"><tspan class="cls-111" x="0" y="84">sicht </tspan><tspan class="cls-112" x="43.7" y="84">v</tspan><tspan class="cls-111" x="52.99" y="84">or euch, dass ihr nicht gehört we</tspan><tspan class="cls-113" x="318.54" y="84">r</tspan><tspan class="cls-111" x="325.18" y="84">det“</tspan><tspan class="cls-114" x="358.67" y="84">).</tspan></tspan><tspan class="cls-115" x="0" y="130">T</tspan><tspan x="10.71" y="130">rotzdem ist er ein Gott der Liebe (1. Johannes 4,8). Und er wünscht sich mit den Menschen </tspan><tspan x="0" y="158">eine Beziehung zu haben ( Jesaja 57,15). Wie geht das nun? Kann der heilige Gott, doch mit </tspan><tspan x="0" y="186">dem sündigen Menschen zusammen sein? </tspan><tspan x="0" y="232">Wie seht ihr dieses Problem? Gibt es eine </tspan><tspan class="cls-116" x="378.92" y="232">L</tspan><tspan x="389.34" y="232">ösung? </tspan></text><text class="cls-117" transform="translate(647.77 74.16)">ÜBERSICHT</text><text class="cls-117" transform="translate(774.77 74.16)"><tspan class="cls-118">K</tspan><tspan class="cls-119" x="11.61" y="0">ON</tspan><tspan class="cls-120" x="39.57" y="0">T</tspan><tspan x="49.06" y="0">AKT</tspan></text><rect class="cls-1" x="745.68" y="61.26" width="29.1" height="12.9"/><text class="cls-117" transform="translate(891.44 74.16)"><tspan class="cls-121">L</tspan><tspan x="8.49" y="0">OGIN</tspan></text><rect class="cls-1" x="857.51" y="61.26" width="29.1" height="12.9"/><rect class="cls-122" x="886.61" y="56.16" width="66.38" height="23.5" rx="5" ry="5"/><rect class="cls-123" x="1.27" y="128.65" width="1200" height="10"/><text class="cls-124" transform="matrix(1, 0, 0, 1, 590.12, 842.85)"></text><line class="cls-125" x1="769.07" y1="1923.96" x2="815.57" y2="1933.18"/><rect class="cls-84" x="812.62" y="1921.28" width="29.44" height="23"/><polygon class="cls-84" points="834.3 1911.1 828.57 1908.6 816.47 1922.41 827.7 1928.92 834.3 1911.1"/><rect class="cls-84" x="837.94" y="1921.56" width="7.95" height="6.6"/><rect class="cls-84" x="837.94" y="1929.26" width="7.95" height="6.6"/><rect class="cls-84" x="837.94" y="1936.96" width="7.95" height="6.6"/><rect class="cls-126" x="551.27" y="776.94" width="100" height="32.92" rx="9.75" ry="9.75"/><text class="cls-127" transform="translate(561.93 799.94)">LETS GO!</text><g class="cls-128"><rect x="-4.92" y="302.26" width="44.03" height="258.83" rx="10.99" ry="10.99"/></g><rect class="cls-126" x="-7.92" y="299.26" width="44.03" height="258.83" rx="10.99" ry="10.99"/><line class="cls-129" x1="14.09" y1="351.18" x2="14.09" y2="534.22"/><line class="cls-130" x1="14.09" y1="351.18" x2="14.09" y2="423.15"/><path class="cls-34" d="M540.3,2010.79c0,1.6-19,2.9-42.36,2.9s-42.36-1.3-42.36-2.9,19-2.91,42.36-2.91S540.3,2009.18,540.3,2010.79Z"/><path class="cls-34" d="M775.75,2010.79c0,1.6-19,2.9-42.36,2.9s-42.35-1.3-42.35-2.9,19-2.91,42.35-2.91S775.75,2009.18,775.75,2010.79Z"/><text class="cls-131" transform="translate(6.89 330.85)"></text><path class="cls-2" d="M19.83,423.15a5.74,5.74,0,1,1-5.74-5.74A5.74,5.74,0,0,1,19.83,423.15Z"/><line class="cls-132" x1="2.1" y1="339.37" x2="28.36" y2="339.37"/><text class="cls-133" transform="translate(170.98 746.25)">Plant für diese Lektion ca. 50 Minuten ein.</text><polygon class="cls-84" points="759.43 1871.38 754.44 1875.18 722.63 1875.18 722.63 1822.49 759.43 1822.49 759.43 1871.38"/><rect class="cls-84" x="733.41" y="1869.64" width="14.49" height="34.54"/><polygon class="cls-31" points="783.95 1991.18 711.85 1991.18 711.85 1926.82 723.67 1888.33 733.41 1888.33 736.52 1901.11 747.9 1888.44 757.05 1888.33 783.95 1918.81 783.95 1991.18"/><polygon class="cls-134" points="756.22 1870.04 749.4 1874.56 725.09 1873.25 725.09 1828.67 749.4 1832.15 756.22 1870.04"/><polygon class="cls-79" points="722.88 1880.97 714.6 1880.97 718.49 1838.29 716.85 1822.49 722.63 1814.45 759.43 1814.45 763.51 1817.95 767.43 1843.54 770.72 1880 759.52 1885.27 759.43 1841.99 757.13 1838.53 755.94 1860.72 752.18 1860.72 753.75 1839.72 751.75 1826.58 740.66 1827.82 728.6 1828.13 726.11 1830.91 722.63 1846.37 722.88 1880.97"/><line class="cls-135" x1="715.75" y1="1920.88" x2="676.27" y2="1930.1"/><polygon class="cls-134" points="746.59 1887.47 741.03 1887.47 741.03 1879.05 746.59 1881.31 746.59 1887.47"/><path class="cls-84" d="M734.36,1845a1.44,1.44,0,1,1-1.44-1.44A1.43,1.43,0,0,1,734.36,1845Z"/><path class="cls-84" d="M745.33,1845a1.26,1.26,0,1,1-1.25-1.25A1.26,1.26,0,0,1,745.33,1845Z"/><polygon class="cls-79" points="721.89 1858.72 762.02 1859.47 759.43 1878.22 730.24 1879.05 720.77 1875.18 721.89 1858.72"/><polygon class="cls-134" points="728.96 1864.57 743.81 1869.64 747.9 1862.45 741.14 1865.42 728.96 1864.57"/><rect class="cls-84" x="743.31" y="1833.87" width="4.03" height="11.1" transform="translate(-1176.11 2336.47) rotate(-82.45)"/><rect class="cls-79" x="744.37" y="1832.94" width="4.03" height="11.1" transform="translate(-1174.25 2336.76) rotate(-82.45)"/><rect class="cls-44" x="411.27" y="1914.16" width="219" height="32.3"/><rect class="cls-44" x="495.9" y="1791.79" width="32.3" height="219"/><rect class="cls-84" x="726.85" y="1836.36" width="9.94" height="4.03" transform="translate(-222.99 105.31) rotate(-7.15)"/><rect class="cls-79" x="726.16" y="1835.38" width="9.94" height="4.03" transform="translate(-222.87 105.21) rotate(-7.15)"/><path class="cls-134" d="M739.18,1858.72a1.8,1.8,0,1,1-1.79-2A1.9,1.9,0,0,1,739.18,1858.72Z"/><rect class="cls-84" x="758.35" y="1842.15" width="7.34" height="6.85"/><rect class="cls-84" x="712.08" y="1842.15" width="7.34" height="6.85"/><polygon class="cls-136" points="728.96 1913.67 723.67 1888.33 711.85 1926.82 711.85 1991.18 733.41 1991.18 728.96 1913.67"/><polygon class="cls-31" points="774.57 1933.6 791.12 1933.6 791.12 1914.72 766.38 1900.76 774.57 1933.6"/><polygon class="cls-136" points="769.73 1914.16 738.43 1981.35 719.02 1985.02 717.52 1966.35 766.38 1901.85 769.73 1914.16"/><polygon class="cls-136" points="733.42 1889.24 731.71 1893.88 732.57 1906.96 737.39 1904.17 745.59 1890.62 736.52 1901.11 733.42 1889.24"/><polygon class="cls-34" points="761.48 1893.35 731.71 1934.86 711.85 1947.26 710.55 1951.68 711.85 1979.12 735.79 1974.41 772.43 1904.17 765.67 1896.64 763.01 1893.35 761.48 1893.35"/><polygon class="cls-136" points="714.79 1933.6 702.71 1933.6 702.71 1914.72 720.77 1900.76 714.79 1933.6"/><rect class="cls-84" x="653.77" y="1918.19" width="25" height="23"/><polygon class="cls-84" points="660.36 1908.02 665.23 1905.51 675.5 1919.33 665.97 1925.83 660.36 1908.02"/><rect class="cls-84" x="650.52" y="1918.47" width="6.75" height="6.6"/><rect class="cls-84" x="650.52" y="1926.18" width="6.75" height="6.6"/><rect class="cls-84" x="650.52" y="1933.88" width="6.75" height="6.6"/><polygon class="cls-136" points="783.95 1933.99 773.75 1930.31 778.19 1936.24 783.95 1937.59 783.95 1933.99"/><polygon class="cls-39" points="1031.27 2002.65 975.06 2002.65 975.06 1879.06 978.47 1869.64 996.06 1869.64 1003.06 1880.6 1006.7 1869.64 1021.73 1869.64 1031.27 1879.06 1031.27 2002.65"/><polygon class="cls-39" points="960.27 2002.65 904.06 2002.65 904.06 1883.26 911.27 1869.64 925.57 1869.64 932.16 1883.26 936.77 1869.64 947.77 1869.64 960.27 1879.06 960.27 2002.65"/><path class="cls-34" d="M1014.22,2010.79c0,1.6-24.53,2.9-54.78,2.9s-54.79-1.3-54.79-2.9,24.53-2.91,54.79-2.91S1014.22,2009.18,1014.22,2010.79Z"/><line class="cls-125" x1="311.57" y1="1923.96" x2="358.07" y2="1933.18"/><rect class="cls-84" x="355.12" y="1921.28" width="29.44" height="23"/><polygon class="cls-84" points="376.81 1911.1 371.07 1908.6 358.97 1922.41 370.2 1928.92 376.81 1911.1"/><path class="cls-34" d="M318.25,2010.79c0,1.6-19,2.9-42.36,2.9s-42.35-1.3-42.35-2.9,19-2.91,42.35-2.91S318.25,2009.18,318.25,2010.79Z"/><polygon class="cls-84" points="301.93 1871.38 296.94 1875.18 265.13 1875.18 265.13 1822.49 301.93 1822.49 301.93 1871.38"/><rect class="cls-84" x="275.91" y="1869.64" width="14.49" height="34.54"/><polygon class="cls-31" points="326.45 1991.18 254.35 1991.18 254.35 1926.82 266.17 1888.33 275.91 1888.33 279.02 1901.11 290.4 1888.44 299.55 1888.33 326.45 1918.81 326.45 1991.18"/><polygon class="cls-134" points="298.72 1870.04 291.9 1874.56 267.59 1873.25 267.59 1828.67 291.9 1832.15 298.72 1870.04"/><polygon class="cls-79" points="265.38 1880.97 257.1 1880.97 260.99 1838.29 259.35 1822.49 265.13 1814.45 301.93 1814.45 306.01 1817.95 309.93 1843.54 313.22 1880 302.02 1885.27 301.93 1841.99 299.63 1838.53 298.44 1860.72 294.69 1860.72 296.25 1839.72 294.25 1826.58 283.16 1827.82 271.1 1828.13 268.61 1830.91 265.13 1846.37 265.38 1880.97"/><polygon class="cls-134" points="289.09 1887.47 283.53 1887.47 283.53 1879.05 289.09 1881.31 289.09 1887.47"/><path class="cls-84" d="M276.86,1845a1.44,1.44,0,1,1-1.44-1.44A1.43,1.43,0,0,1,276.86,1845Z"/><path class="cls-84" d="M287.83,1845a1.26,1.26,0,1,1-1.25-1.25A1.26,1.26,0,0,1,287.83,1845Z"/><polygon class="cls-79" points="264.39 1858.72 304.52 1859.47 301.93 1878.22 272.74 1879.05 263.27 1875.18 264.39 1858.72"/><polygon class="cls-134" points="269.38 1863.81 276.14 1873.2 288.65 1872.26 297.84 1863.81 279.89 1865.51 269.38 1863.81"/><rect class="cls-84" x="285.81" y="1833.87" width="4.03" height="11.1" transform="translate(-1573.47 1882.94) rotate(-82.45)"/><rect class="cls-79" x="286.87" y="1832.94" width="4.03" height="11.1" transform="translate(-1571.62 1883.23) rotate(-82.45)"/><rect class="cls-84" x="269.35" y="1836.36" width="9.94" height="4.03" transform="translate(-226.54 48.4) rotate(-7.15)"/><rect class="cls-79" x="268.66" y="1835.38" width="9.94" height="4.03" transform="translate(-226.42 48.31) rotate(-7.15)"/><path class="cls-134" d="M281.68,1858.72a1.8,1.8,0,1,1-1.79-2A1.9,1.9,0,0,1,281.68,1858.72Z"/><rect class="cls-84" x="300.85" y="1842.15" width="7.34" height="6.85"/><rect class="cls-84" x="254.58" y="1842.15" width="7.34" height="6.85"/><polygon class="cls-136" points="271.46 1913.67 266.17 1888.33 254.35 1926.82 254.35 1991.18 275.91 1991.18 271.46 1913.67"/><polygon class="cls-31" points="317.07 1933.6 333.62 1933.6 333.62 1914.72 308.88 1900.76 317.07 1933.6"/><polygon class="cls-136" points="312.23 1914.16 280.93 1981.35 261.52 1985.02 260.02 1966.35 308.88 1901.85 312.23 1914.16"/><polygon class="cls-136" points="275.93 1889.24 274.2 1893.88 275.07 1906.96 279.89 1904.17 288.09 1890.62 279.02 1901.11 275.93 1889.24"/><polygon class="cls-34" points="303.98 1893.35 274.2 1934.86 254.35 1947.26 253.05 1951.68 254.35 1979.12 278.29 1974.41 314.93 1904.17 308.18 1896.64 305.51 1893.35 303.98 1893.35"/><polygon class="cls-136" points="257.29 1933.6 245.21 1933.6 245.21 1914.72 263.27 1900.76 257.29 1933.6"/><line class="cls-135" x1="253.63" y1="1927.02" x2="246.17" y2="1966.89"/><rect class="cls-84" x="236.16" y="1963.9" width="23" height="24.99" transform="translate(-64.43 9.14) rotate(-1.87)"/><polygon class="cls-136" points="326.45 1933.99 316.25 1930.31 320.69 1936.24 326.45 1937.59 326.45 1933.99"/><line class="cls-125" x1="539.74" y1="1923.96" x2="586.23" y2="1933.18"/><rect class="cls-84" x="583.29" y="1921.28" width="29.44" height="23"/><polygon class="cls-84" points="604.97 1911.1 599.23 1908.6 587.14 1922.41 598.37 1928.92 604.97 1911.1"/><polygon class="cls-84" points="530.09 1871.38 525.11 1875.18 493.3 1875.18 493.3 1822.49 530.09 1822.49 530.09 1871.38"/><rect class="cls-84" x="504.08" y="1869.64" width="14.49" height="34.54"/><polygon class="cls-31" points="554.62 1991.18 482.52 1991.18 482.52 1926.82 494.33 1888.33 504.08 1888.33 507.19 1901.11 518.57 1888.44 527.72 1888.33 554.62 1918.81 554.62 1991.18"/><polygon class="cls-134" points="526.89 1870.04 520.07 1874.56 495.76 1873.25 495.76 1828.67 520.07 1832.15 526.89 1870.04"/><polygon class="cls-79" points="493.55 1880.97 485.27 1880.97 489.16 1838.29 487.51 1822.49 493.3 1814.45 530.09 1814.45 534.17 1817.95 538.09 1843.54 541.39 1880 530.18 1885.27 530.09 1841.99 527.8 1838.53 526.61 1860.72 522.85 1860.72 524.42 1839.72 522.42 1826.58 511.32 1827.82 499.27 1828.13 496.77 1830.91 493.3 1846.37 493.55 1880.97"/><line class="cls-135" x1="486.42" y1="1920.88" x2="446.94" y2="1930.1"/><polygon class="cls-134" points="517.26 1887.47 511.69 1887.47 511.69 1879.05 517.26 1881.31 517.26 1887.47"/><path class="cls-84" d="M505,1845c0,.24-.65.44-1.44.44s-1.45-.2-1.45-.44.65-.43,1.45-.43S505,1844.74,505,1845Z"/><path class="cls-84" d="M516,1845c0,.18-.56.33-1.26.33s-1.25-.15-1.25-.33.56-.32,1.25-.32S516,1844.8,516,1845Z"/><polygon class="cls-79" points="492.56 1858.72 532.69 1859.47 530.09 1878.22 500.9 1879.05 491.44 1875.18 492.56 1858.72"/><polygon class="cls-134" points="518.57 1867.51 503.72 1862.45 499.63 1869.64 506.38 1866.67 518.57 1867.51"/><rect class="cls-84" x="513.98" y="1833.87" width="4.03" height="11.1" transform="translate(-1375.3 2109.13) rotate(-82.45)"/><rect class="cls-79" x="515.03" y="1832.94" width="4.03" height="11.1" transform="translate(-1373.45 2109.42) rotate(-82.45)"/><rect class="cls-84" x="497.52" y="1836.36" width="9.94" height="4.03" transform="translate(-224.77 76.78) rotate(-7.15)"/><rect class="cls-79" x="496.83" y="1835.38" width="9.94" height="4.03" transform="translate(-224.65 76.69) rotate(-7.15)"/><path class="cls-134" d="M509.85,1858.72a1.8,1.8,0,1,1-1.79-2A1.9,1.9,0,0,1,509.85,1858.72Z"/><rect class="cls-84" x="529.01" y="1842.15" width="7.34" height="6.85"/><rect class="cls-84" x="482.75" y="1842.15" width="7.34" height="6.85"/><polygon class="cls-136" points="499.63 1913.67 494.33 1888.33 482.52 1926.82 482.52 1991.18 504.08 1991.18 499.63 1913.67"/><polygon class="cls-31" points="545.24 1933.6 561.79 1933.6 561.79 1914.72 537.05 1900.76 545.24 1933.6"/><polygon class="cls-136" points="540.39 1914.16 509.1 1981.35 489.69 1985.02 488.19 1966.35 537.05 1901.85 540.39 1914.16"/><polygon class="cls-136" points="504.09 1889.24 502.37 1893.88 503.23 1906.96 508.06 1904.17 516.26 1890.62 507.19 1901.11 504.09 1889.24"/><polygon class="cls-34" points="532.15 1893.35 502.37 1934.86 482.52 1947.26 481.21 1951.68 482.52 1979.12 506.46 1974.41 543.1 1904.17 536.34 1896.64 533.68 1893.35 532.15 1893.35"/><polygon class="cls-136" points="485.45 1933.6 473.38 1933.6 473.38 1914.72 491.44 1900.76 485.45 1933.6"/><rect class="cls-84" x="424.44" y="1918.19" width="25" height="23"/><polygon class="cls-84" points="431.02 1908.02 435.9 1905.51 446.17 1919.33 436.63 1925.83 431.02 1908.02"/><rect class="cls-84" x="421.19" y="1918.47" width="6.75" height="6.6"/><rect class="cls-84" x="421.19" y="1926.18" width="6.75" height="6.6"/><rect class="cls-84" x="421.19" y="1933.88" width="6.75" height="6.6"/><polygon class="cls-136" points="554.62 1933.99 544.42 1930.31 548.86 1936.24 554.62 1937.59 554.62 1933.99"/><polyline class="cls-137" points="487.44 1835.76 483.94 1838.38 485.69 1834.1 481.21 1834.1 480.27 1824.43 482.75 1831.6 486.42 1821.77 490.09 1830.27 493.3 1821.1 500.44 1823.43 501.8 1817.6 507.67 1824.6 512.06 1819.93 516 1824.6 520.27 1817.6 522.74 1828.67 526.89 1820.43 527.77 1831.6 533.6 1824.6 536.36 1821.27 536.36 1833.1 541.39 1824.77 541.39 1832.27 538.27 1838.38"/><polygon class="cls-34" points="333.62 1914.72 312.16 1902.61 299.55 1888.33 290.4 1888.44 279.02 1901.11 275.91 1888.33 266.17 1888.33 262.06 1901.69 245.21 1914.72 245.21 1933.6 254.35 1933.6 254.35 1991.18 326.45 1991.18 326.45 1933.6 333.62 1933.6 333.62 1914.72"/><rect class="cls-44" x="254.35" y="1957.28" width="72.1" height="7.36"/><rect class="cls-138" x="254.35" y="1984.49" width="72.1" height="6.68"/><polygon class="cls-139" points="245.21 1930.06 245.21 1933.6 254.35 1933.6 254.35 1937.42 326.45 1937.42 326.45 1933.6 333.62 1933.6 333.62 1930.06 245.21 1930.06"/><rect class="cls-138" x="254.35" y="1943.67" width="72.1" height="7.36"/><rect class="cls-139" x="254.35" y="1970.89" width="72.1" height="7.36"/><polygon class="cls-44" points="289.68 1889.24 283.07 1896.6 306.85 1896.6 300.36 1889.24 289.68 1889.24"/><polygon class="cls-44" points="265.89 1889.24 263.63 1896.6 277.92 1896.6 276.13 1889.24 265.89 1889.24"/><rect class="cls-138" x="245.21" y="1916.46" width="88.41" height="7.36"/><polygon class="cls-139" points="260.57 1902.85 251.05 1910.21 325.63 1910.21 312.58 1902.85 260.57 1902.85"/><rect class="cls-138" x="254.24" y="1824.85" width="57.33" height="6.5"/><path class="cls-63" d="M293.54,1845a5.45,5.45,0,1,1-5.45-5.45A5.45,5.45,0,0,1,293.54,1845Z"/><path class="cls-63" d="M280.94,1845a5.45,5.45,0,1,1-5.45-5.45A5.45,5.45,0,0,1,280.94,1845Z"/><polyline class="cls-31" points="982.1 1951.75 988.1 1937.59 1012.1 1937.59 1017.68 1950.6 982.1 1953.09"/><polyline class="cls-140" points="279.14 1844.57 281.85 1842.77 284.25 1844.44"/><path class="cls-141" d="M1019.05,1920.5c-.43,2.22-9.86,2.25-21.06.07s-19.94-5.75-19.51-8,9.87-2.25,21.07-.07S1019.49,1918.28,1019.05,1920.5Z"/><polygon class="cls-79" points="925.57 1954.21 1021.73 1948.27 1021.73 1965.35 1011.32 1988.35 941.03 1988.35 928.07 1972.35 925.57 1954.21"/><path class="cls-142" d="M1020.05,1923.82c-.43,2.22-9.86,2.25-21.06.07s-19.94-5.75-19.51-8,9.87-2.25,21.07-.07S1020.49,1921.6,1020.05,1923.82Z"/><line class="cls-143" x1="947.77" y1="1981.27" x2="940.77" y2="2010.79"/><line class="cls-143" x1="1003.06" y1="1981.27" x2="996.06" y2="2010.79"/><line class="cls-143" x1="949.64" y1="1981.27" x2="956.52" y2="2010.79"/><polygon class="cls-44" points="929.79 1957.37 936.09 1960.55 940.17 1956.75 948.09 1959.39 950.78 1957.78 953.04 1960.73 958.88 1954.48 964.72 1958.07 964.53 1951.8 1007.47 1949.15 1014.14 1955.48 1018.22 1950.76 1021.73 1953.09 1021.73 1948.27 1021.73 1965.35 938.05 1971.51 928.38 1960.06 929.22 1960.13 929.79 1957.37"/><line class="cls-143" x1="1006.71" y1="1981.27" x2="1013.59" y2="2010.79"/><polygon class="cls-136" points="929.57 1949.66 934.44 1953.09 935.14 1949.37 943.71 1953.09 949.64 1951.27 953.08 1952.51 959.02 1949.37 964.14 1951.83 964.14 1956.07 958.1 1953.09 953.08 1959.6 951.1 1955.18 947.77 1958.6 939.44 1953.6 936.1 1959.6 929.22 1955.18 928.1 1959.6 927.1 1956.07 922.44 1961.6 925.57 1953.09 918.87 1949.37 929.44 1953.94 929.57 1949.66"/><polygon class="cls-136" points="1013.59 1947.56 1019.07 1942.85 1019.07 1945.2 1026.44 1945.2 1020.01 1947.66 1021.73 1952.38 1017.68 1949.89 1013.59 1954.47 1006.71 1948.48 1013.59 1947.56"/><text class="cls-88" transform="translate(431.03 2066.27) scale(0.71 1)">Slider <tspan class="cls-144" x="52.89" y="0">v</tspan><tspan x="62.45" y="0">erwenden und die </tspan><tspan class="cls-145" x="218.38" y="0">v</tspan><tspan x="227.93" y="0">erschiedenen Jesus</tspan><tspan class="cls-146" x="393.76" y="0">-T</tspan><tspan x="408.5" y="0">ypen bezeichnen</tspan></text><text class="cls-88" transform="translate(431.03 2658.74) scale(0.71 1)">geht das so?</text><text class="cls-88" transform="translate(431.03 3288.18) scale(0.71 1)">geht das so?</text></g></svg>