<svg xmlns="http://www.w3.org/2000/svg" viewBox="0 0 230.83 199.32"><defs><style>.cls-1{fill:#ffeeb8;}.cls-2{fill:#468f99;}.cls-3{fill:#c24a4a;}.cls-4{fill:#e56a6a;}.cls-5{font-size:58.49px;fill:#fff;font-family:Arvo-Bold, Arvo;font-weight:700;}</style></defs><title>icon_glaube</title><g id="Bcakground"><path class="cls-1" d="M33.18,42.65c64.07,4.61,23-4.84,21.78-17.92s63-13.08,100-4.08S196.29,43,183.26,53.54,156.68,67,158.84,86.83s.23,52,22.54,42.9,42.24,31.21,18.12,44.53-54.75,17.27-85.27,11.6-42.38-31.45-42.38-31.45S-30.89,38,33.18,42.65Z"/><ellipse class="cls-1" cx="197.81" cy="59.1" rx="19.37" ry="5.2" transform="translate(38.11 189.93) rotate(-55.96)"/></g><g id="overlay"><ellipse class="cls-2" cx="132.71" cy="187.71" rx="64.36" ry="4.8"/><polygon class="cls-3" points="58.91 83.82 82.05 158.23 196.48 138.43 197.81 126.09 162.88 37.24 64.09 66.19 58.91 83.82"/><path class="cls-4" d="M164.31,30.49c-1.26-.27-2.51-.61-3.76-1L64.09,66.19,89.4,148l108-16.29.43-5.6Z"/><polygon class="cls-3" points="131.76 145.18 115.74 180.89 152.19 143.43 131.76 145.18"/><text class="cls-5" transform="matrix(0.97, -0.23, 0.23, 0.97, 105.32, 120.64)">JA</text></g></svg>