<svg xmlns="http://www.w3.org/2000/svg" viewBox="0 0 196.31 199.32"><defs><style>.cls-1,.cls-10{fill:#ffeeb8;}.cls-2{fill:#468f99;}.cls-3{fill:#c24a4a;}.cls-4{fill:#e5aa3c;}.cls-11,.cls-13,.cls-16,.cls-5,.cls-8{fill:none;stroke-miterlimit:10;}.cls-5,.cls-8{stroke:#468f99;}.cls-5{stroke-width:7.17px;}.cls-6{fill:#7d4e24;}.cls-7{fill:#b1d0d4;}.cls-11,.cls-8{stroke-width:2.39px;}.cls-9{fill:#d45c28;}.cls-10{opacity:0.43;}.cls-11,.cls-16{stroke:#b1d0d4;}.cls-12{fill:#e56a6a;}.cls-13{stroke:#706f6f;stroke-width:5px;}.cls-14{fill:#dadada;}.cls-15{fill:#fff;}.cls-17{fill:#3c3c3b;}</style></defs><title>icon_taufe</title><g id="Bcakground"><path class="cls-1" d="M173.45,157c-56.87,1.9-19.84,6.27-17.59,17.43s-54.31,17-87.75,12.66S9.3,149.18,17.17,126.73s45.27,20.67,41.6,3.76S11.84,119,35.07,95.62s65.68,3.86,94.3-31.28S230.32,155.13,173.45,157Z"/><ellipse class="cls-1" cx="52.32" cy="76.88" rx="14.22" ry="3.82" transform="translate(-2.49 1.76) rotate(-1.88)"/></g><g id="overlay"><ellipse class="cls-2" cx="95.3" cy="184.98" rx="75.42" ry="7.6"/><ellipse class="cls-3" cx="94.77" cy="137.76" rx="65.74" ry="9.79"/><ellipse class="cls-2" cx="94.77" cy="142.54" rx="63.23" ry="9.42"/><polygon class="cls-4" points="110.83 130.64 100.51 132.44 87.05 131.52 80.83 82.57 116.89 82.57 110.83 130.64"/><polyline class="cls-5" points="70.47 53.91 75.6 86.8 81.25 123.08 87.95 127.97 96.69 126.41 98.56 121.34"/><polygon class="cls-6" points="82.02 69.62 88.8 63.05 108.12 64.24 111.31 66.34 112.9 63.05 113.7 67.43 115.69 64.84 115.69 69.62 119.88 72.81 119.88 95.72 114.84 83.67 84.51 83.67 82.02 104.29 75.75 87.75 79.43 71.61 79.43 67.43 82.02 69.62"/><polygon class="cls-7" points="76.9 90.34 81.21 88.55 97.95 88.55 100.14 92.3 102.53 88.55 116.87 88.55 121.76 92.61 122.76 107.75 117.98 112.13 102.99 114.05 100.14 107.87 97.15 107.87 94.88 114.05 77.09 111.1 72.76 104.76 76.9 90.34"/><polygon class="cls-8" points="76.9 90.34 81.21 88.55 97.95 88.55 100.14 92.3 102.53 88.55 116.87 88.55 121.76 92.61 122.76 107.75 117.98 112.13 102.99 114.05 100.14 107.87 97.15 107.87 94.88 114.05 77.09 111.1 72.76 104.76 76.9 90.34"/><polygon class="cls-4" points="103.64 146.56 99.21 147.78 94.77 146.56 94.77 130.3 103.64 130.3 103.64 146.56"/><polygon class="cls-1" points="111.41 116.72 104.53 118.52 102.59 127.97 103.64 130.62 110.06 129.57 111.41 116.72"/><polygon class="cls-1" points="102.59 144.66 99.21 144.66 99.21 129.72 102.59 127.97 104.53 129.72 102.59 132.07 102.59 144.66"/><polygon class="cls-9" points="95.42 116.72 95.42 118.52 102.59 118.52 102.59 117.62 95.42 116.72"/><ellipse class="cls-10" cx="119.18" cy="141.81" rx="6.57" ry="0.73"/><ellipse class="cls-10" cx="127.54" cy="138.48" rx="6.57" ry="0.73"/><polygon class="cls-3" points="29.03 135.14 47.36 144.75 110.72 144.8 144.98 143.75 151.75 138.56 155.73 135.14 160.51 138.56 154.94 180.96 111.91 186.79 76.84 186.79 54.13 184.23 34.61 180.96 29.03 135.14"/><ellipse class="cls-10" cx="112.6" cy="139.78" rx="6.57" ry="0.73"/><ellipse class="cls-10" cx="69.41" cy="139.78" rx="6.57" ry="0.73"/><ellipse class="cls-10" cx="82.22" cy="140.32" rx="6.57" ry="0.73"/><ellipse class="cls-10" cx="49.49" cy="141.06" rx="6.57" ry="0.73"/><ellipse class="cls-10" cx="56.79" cy="137.72" rx="6.57" ry="0.73"/><polygon class="cls-1" points="108.72 93.27 105.73 108.21 108.72 108.95 111.35 109.05 114.95 93.36 111.41 92.52 108.72 93.27"/><line class="cls-11" x1="71.98" y1="55.02" x2="75.21" y2="78.32"/><polyline class="cls-11" points="81.67 118.52 82.87 123.67 88.79 126.73 94.77 125.39 96.92 123.67"/><polygon class="cls-2" points="92.04 119.95 92.31 122.18 104.97 123.62 106.06 120.89 92.04 119.95"/><polygon class="cls-12" points="158 139.78 147.3 147.78 110.34 148.96 111.41 184.66 152.15 180.96 158 139.78"/><path class="cls-2" d="M93.11,141.08A5,5,0,0,0,96,142c2,.09,6,.43,7.61-.47a3.05,3.05,0,0,1,3,.07l.71,3.18-16.73,0,.41-2.45Z"/><polyline class="cls-13" points="60.43 143.16 57.93 135.49 50.63 131.62 44.06 138.08 25.03 192.75"/><polyline class="cls-13" points="40.41 140.72 37.92 133.05 30.62 129.18 24.04 135.64 5.02 190.31"/><line class="cls-13" x1="18.87" y1="152.91" x2="38.07" y2="155.3"/><line class="cls-13" x1="10.31" y1="175.39" x2="29.5" y2="177.78"/><line class="cls-13" x1="22.91" y1="136.34" x2="42.11" y2="138.74"/><polygon class="cls-14" points="21.91 134.14 3.02 188.99 4.42 189.99 23.03 134.67 30.07 127.97 29.5 126.73 21.91 134.14"/><polygon class="cls-14" points="42.45 136.02 23.56 190.87 24.96 191.87 43.58 136.55 50.61 129.85 50.05 128.62 42.45 136.02"/><polygon class="cls-14" points="17.84 150.1 37.09 152.91 36.64 154.1 17.17 152.1 17.84 150.1"/><polygon class="cls-14" points="10.38 173.95 29.62 176.75 29.17 177.95 9.7 175.95 10.38 173.95"/><polygon class="cls-14" points="23.73 134.5 42.97 137.31 42.52 138.51 23.05 136.51 23.73 134.5"/><circle class="cls-15" cx="59.86" cy="109.63" r="5.34"/><circle class="cls-15" cx="142.48" cy="112.28" r="5.34"/><circle class="cls-15" cx="127.54" cy="127.97" r="5.34"/><circle class="cls-15" cx="59.86" cy="90.94" r="5.34"/><circle class="cls-15" cx="134.11" cy="83.67" r="5.34"/><circle class="cls-15" cx="143.08" cy="97.22" r="2.67"/><circle class="cls-15" cx="119.87" cy="121.79" r="2.67"/><circle class="cls-15" cx="44.35" cy="101.3" r="2.67"/><circle class="cls-7" cx="69.31" cy="44.47" r="2.67"/><circle class="cls-15" cx="67.3" cy="126.73" r="2.67"/><line class="cls-16" x1="62.39" y1="41.16" x2="64.11" y2="41.8"/><line class="cls-16" x1="65.2" y1="46.31" x2="63.25" y2="47.14"/><line class="cls-16" x1="69.31" y1="49.27" x2="69.31" y2="51.08"/><line class="cls-16" x1="72.76" y1="47.14" x2="75.21" y2="48.88"/><line class="cls-16" x1="73.98" y1="44.47" x2="76.41" y2="44.47"/><line class="cls-16" x1="72.76" y1="41.48" x2="73.98" y2="39.83"/><line class="cls-16" x1="68.31" y1="39.65" x2="67.64" y2="37.54"/><polygon class="cls-3" points="81.95 74.51 118.93 67.73 116.99 51.82 98.86 46.44 76.85 59.27 77.15 79.8 81.95 74.51"/><polygon class="cls-12" points="97.09 69.83 118.93 67.73 116.99 51.82 98.86 46.44 97.09 69.83"/><polygon class="cls-17" points="95.21 68.77 121.67 57.07 137.67 63.17 145.97 69.87 118.79 82.64 117.92 77.09 112.2 75.18 88.27 74.79 80.43 75.92 85.2 72.52 95.21 68.77"/></g></svg>