<svg xmlns="http://www.w3.org/2000/svg" xmlns:xlink="http://www.w3.org/1999/xlink" viewBox="0 0 230.83 199.32"><defs><style>.cls-1{fill:#ffeeb8;}.cls-2{fill:#468f99;}.cls-3{fill:#e56a6a;}.cls-4{fill:#fff;}.cls-5{fill:url(#Unbenannter_Verlauf_4);}.cls-6{fill:url(#Unbenannter_Verlauf_4-2);}.cls-7{fill:url(#Unbenannter_Verlauf_4-3);}.cls-8{fill:url(#Unbenannter_Verlauf_4-4);}.cls-9{fill:url(#Unbenannter_Verlauf_4-5);}.cls-10{fill:url(#Unbenannter_Verlauf_4-6);}.cls-11{fill:url(#Unbenannter_Verlauf_4-7);}.cls-12{fill:url(#Unbenannter_Verlauf_4-8);}.cls-13{fill:url(#Unbenannter_Verlauf_4-9);}.cls-14{fill:url(#Unbenannter_Verlauf_4-10);}.cls-15{fill:url(#Unbenannter_Verlauf_4-11);}.cls-16{fill:url(#Unbenannter_Verlauf_4-12);}</style><linearGradient id="Unbenannter_Verlauf_4" x1="156.24" y1="21.68" x2="138.72" y2="48.44" gradientUnits="userSpaceOnUse"><stop offset="0" stop-color="#fff" stop-opacity="0"/><stop offset="1" stop-color="#468f99"/></linearGradient><linearGradient id="Unbenannter_Verlauf_4-2" x1="1100.23" y1="669.78" x2="1078.66" y2="702.72" gradientTransform="matrix(0.72, -0.16, 0.17, 0.75, -779.1, -312.5)" xlink:href="#Unbenannter_Verlauf_4"/><linearGradient id="Unbenannter_Verlauf_4-3" x1="176.32" y1="2755.87" x2="149.05" y2="2797.53" gradientTransform="matrix(0.49, -0.56, 0.57, 0.51, -1566.13, -1300.3)" xlink:href="#Unbenannter_Verlauf_4"/><linearGradient id="Unbenannter_Verlauf_4-4" x1="-193.17" y1="3061.52" x2="-218.45" y2="3100.15" gradientTransform="matrix(0.41, -0.62, 0.64, 0.42, -1801.19, -1411.21)" xlink:href="#Unbenannter_Verlauf_4"/><linearGradient id="Unbenannter_Verlauf_4-5" x1="-1248.47" y1="3721.59" x2="-1270.89" y2="3755.83" gradientTransform="matrix(0.21, -0.71, 0.74, 0.21, -2427.83, -1662.77)" xlink:href="#Unbenannter_Verlauf_4"/><linearGradient id="Unbenannter_Verlauf_4-6" x1="-1803.88" y1="3912.02" x2="-1830.45" y2="3952.61" gradientTransform="matrix(0.11, -0.73, 0.76, 0.11, -2747.9, -1705.41)" xlink:href="#Unbenannter_Verlauf_4"/><linearGradient id="Unbenannter_Verlauf_4-7" x1="-3666.91" y1="4246.38" x2="-3685.39" y2="4274.61" gradientTransform="matrix(-0.23, -0.7, 0.73, -0.24, -3909.97, -1480.31)" xlink:href="#Unbenannter_Verlauf_4"/><linearGradient id="Unbenannter_Verlauf_4-8" x1="-5682.68" y1="3687.17" x2="-5693.61" y2="3703.88" gradientTransform="matrix(-0.54, -0.51, 0.52, -0.56, -4972.77, -692.84)" xlink:href="#Unbenannter_Verlauf_4"/><linearGradient id="Unbenannter_Verlauf_4-9" x1="-132.82" y1="-726.54" x2="-153.07" y2="-695.59" gradientTransform="matrix(0.95, 0.32, -0.32, 0.95, 66.3, 764.55)" xlink:href="#Unbenannter_Verlauf_4"/><linearGradient id="Unbenannter_Verlauf_4-10" x1="-811.47" y1="-1398.16" x2="-829.41" y2="-1370.75" gradientTransform="matrix(0.74, 0.67, -0.67, 0.74, -150.73, 1645.92)" xlink:href="#Unbenannter_Verlauf_4"/><linearGradient id="Unbenannter_Verlauf_4-11" x1="-1522.53" y1="-1651.98" x2="-1541.23" y2="-1623.4" gradientTransform="matrix(0.5, 0.87, -0.87, 0.5, -483.41, 2238.56)" xlink:href="#Unbenannter_Verlauf_4"/><linearGradient id="Unbenannter_Verlauf_4-12" x1="-1500.82" y1="-1635.95" x2="-1518.64" y2="-1608.73" gradientTransform="matrix(0.5, 0.87, -0.87, 0.5, -483.41, 2238.56)" xlink:href="#Unbenannter_Verlauf_4"/></defs><title>icon_ruach</title><g id="Bcakground"><path class="cls-1" d="M166.2,166c-49.91-4.85-18.07,2.56-17.42,11.25s-49.47,6.9-78.17-.1-46.89-35.24-37.37-51.38,37.12,20.66,35.9,7.44-39.65-13.85-16.58-29,56.93,10.19,86.09-13.27S216.12,170.86,166.2,166Z"/><path class="cls-1" d="M168.77,174.3c-8.73.29-15.86-1.38-15.94-3.73s7.08-1.27,15.8-1.56,15.73-1.82,15.81.52S177.5,174,168.77,174.3Z"/><path class="cls-1" d="M65.49,64.47c-4.88,5.62-6.95,11.81-9.91,9.24s-1.39-9.21,3.49-14.83,11.23-8.09,14.19-5.52S70.38,58.85,65.49,64.47Z"/></g><g id="overlay"><ellipse class="cls-2" cx="108.14" cy="185.53" rx="61.92" ry="5.88"/><path class="cls-3" d="M159,109.82,155.8,74,131.08,54.27,111.62,54V41.77l-5.81-2.94L100,41.77v12l-12.8-.21L56.58,75.35l-8.06,43.17,4,18.6,3.08,2.26-2.78,4.32a.2.2,0,0,0,.06.27l15.21,9.79a.2.2,0,0,0,.27-.06l9.78-15.21a.19.19,0,0,0,0-.27L62.9,128.43a.19.19,0,0,0-.26.06l-1.18,1.83-1.37-3.93,7.55-19.68,20,35.84V173L75,174.08,72,183l6,3.5,24.5-.75v-28.3l1.59-8,3,8v25.37l4,3.68,26.27.94.32-7.95-2.83-3.63-13.42-3.5V141.5L135.85,106,144,122.57l.84,10.86-3.64-2.34-10,15.54,15.53,10,10-15.54-1.89-1.22C156.1,130.35,159,109.82,159,109.82ZM103.68,51.67a1.2,1.2,0,1,1,1.2-1.2A1.2,1.2,0,0,1,103.68,51.67Zm4.58,0a1.2,1.2,0,1,1,1.2-1.2A1.2,1.2,0,0,1,108.26,51.67Z"/><polygon class="cls-4" points="119.78 133.94 119.77 133.9 118.93 133.9 119.78 133.94"/><path class="cls-4" d="M115.1,182.9,112.32,145l1.79-.56-.21-1h1.47l-1.09-6.34,5.5-8.2-3.14-7.75,1.24-1.4L116.64,112l-3.11-2.16H107.4l-1.61.64v-3.6l3.9-.25.88-1.64-.18-6.86,2.39,1.55.11-4.12-2.19.27.11-2.07-.58-2.16-.1-3.75v0h0l0-1.76-1.29.08-2.85-3.59-9.43-.74-.89,5.15-1,.07.27,4.3,0,.22-1.78.31.78,1.53H85.31v2.17h8.76V96L95.16,96l.54,8.56,4.22,2.68,1.71-.11v4l-1.48-1.31H95.34l-2.62,3.7-2.1,5.13,1.59,1.08-1.59,6.52,4,9.77.58-.7-1.07,9.89,1.91.51h1.74l.32,36.56H87.83v4.66h12.74v-.14L103,145.64h3.1l6.71,40.68,16.73.12-4.45-3.54ZM92.44,126.09l1-5.27,1.87-3.36V132Zm22.64-3.56,2,5.58-3.4,5.79h-.17V123.55Z"/><polygon class="cls-5" points="144.97 29.45 141.56 40.69 147.02 44.03 160.69 26.75 149.52 20.06 144.97 29.45"/><polygon class="cls-6" points="122.96 20.38 122.4 29.34 126.91 30.94 133.01 11.28 123.81 8.11 122.96 20.38"/><path class="cls-7" d="M100.61,27.86h8s6.4-19.81,5.13-25.21-18,2.81-18,2.81Z"/><polygon class="cls-8" points="81.33 33 85.71 31.05 78.58 7.93 66.84 13.29 81.33 33"/><polygon class="cls-9" points="63.82 42.9 67.41 39.73 59.24 18.77 45.79 30.89 63.82 42.9"/><polygon class="cls-10" points="50.97 61.41 54.09 57.77 34.78 41.34 26 54.23 50.97 61.41"/><polygon class="cls-11" points="39.73 89.05 48.7 88.75 49.87 84.11 33.24 78.32 30.97 87.79 39.73 89.05"/><polygon class="cls-12" points="37.42 115.83 45.14 111.25 43.92 106.62 33.59 107.8 36.15 117.19 37.42 115.83"/><polygon class="cls-13" points="160.84 42.22 153.98 51.76 158.07 56.69 177.21 39.89 168.79 29.95 160.84 42.22"/><polygon class="cls-14" points="174.34 64.15 164.25 70.18 166.06 76.33 188.19 72.07 184.41 59.61 174.34 64.15"/><polygon class="cls-15" points="176.46 88.86 165.01 91.5 164.84 97.91 188.11 101.8 188.34 88.79 176.46 88.86"/><polygon class="cls-16" points="174.64 114.92 163.19 117.56 163.02 123.97 185.12 128.68 185.35 115.67 174.64 114.92"/></g></svg>