<svg xmlns="http://www.w3.org/2000/svg" viewBox="0 0 224.36 199.32"><defs><style>.cls-1{fill:#ffeeb8;}.cls-2{fill:#c24a4a;}.cls-3{fill:#e56a6a;}.cls-4{fill:#468f99;}</style></defs><title>icon_umkehr</title><g id="Bcakground"><path class="cls-1" d="M46.38,159.25c35.15-49.92,7.7-20.92-2.84-26S64.71,76.1,89.84,50.18s37.4-23.26,38.94-7.82S125.85,70.14,142,77.56s39.58,23.8,43.7,1.48,37.55-19.91,35.75,5.83-54.64,22.46-62.71,48,12,55.33-8.41,46.48S11.24,209.16,46.38,159.25Z"/><ellipse class="cls-1" cx="140.89" cy="42.11" rx="4.35" ry="16.17" transform="translate(-6.15 43.59) rotate(-17.22)"/></g><g id="overlay"><path class="cls-2" d="M144.32,168.07a2.42,2.42,0,0,1-2.41,2.41H69.55a3,3,0,0,1-1-.15,1.36,1.36,0,0,1-.68-.53c-.18-.25-.32-.45-.41-.6a2,2,0,0,1-.23-.87c0-.42-.08-.71-.08-.86V122.24H52.67a4.88,4.88,0,0,1-4.82-4.82A4.55,4.55,0,0,1,49,114.33L73.1,85.39a4.93,4.93,0,0,1,7.38,0l24.12,28.94a4.5,4.5,0,0,1,1.13,3.09,4.88,4.88,0,0,1-4.82,4.82H86.44v29h43.41a2.28,2.28,0,0,1,1.89.83l12,14.47A2.89,2.89,0,0,1,144.32,168.07Zm48.24-31.35a4.55,4.55,0,0,1-1.13,3.09l-24.12,28.94a4.8,4.8,0,0,1-7.38,0l-24.12-28.94a4.5,4.5,0,0,1-1.13-3.09,4.88,4.88,0,0,1,4.82-4.83H154V103H110.56a2.23,2.23,0,0,1-1.89-.9L96.61,87.57a2.38,2.38,0,0,1-.52-1.5,2.44,2.44,0,0,1,2.41-2.42h72.35a3,3,0,0,1,1,.16,1.39,1.39,0,0,1,.68.52l.41.61a2.16,2.16,0,0,1,.23.86c.05.43.08.72.08.87v45.22h14.47a4.88,4.88,0,0,1,4.82,4.83Z"/><path class="cls-3" d="M144.32,157.19a2.42,2.42,0,0,1-2.41,2.41H69.55a3,3,0,0,1-1-.15,1.39,1.39,0,0,1-.68-.52c-.18-.26-.32-.46-.41-.61a2,2,0,0,1-.23-.86c0-.43-.08-.72-.08-.87V111.37H52.67a4.9,4.9,0,0,1-4.82-4.83A4.55,4.55,0,0,1,49,103.45L73.1,74.51a4.93,4.93,0,0,1,7.38,0l24.12,28.94a4.5,4.5,0,0,1,1.13,3.09,4.9,4.9,0,0,1-4.82,4.83H86.44v28.94h43.41a2.31,2.31,0,0,1,1.89.83l12,14.47A2.89,2.89,0,0,1,144.32,157.19Zm48.24-31.35a4.55,4.55,0,0,1-1.13,3.09l-24.12,28.94a4.8,4.8,0,0,1-7.38,0l-24.12-28.94a4.5,4.5,0,0,1-1.13-3.09A4.9,4.9,0,0,1,139.5,121H154V92.07H110.56a2.23,2.23,0,0,1-1.89-.9L96.61,76.7a2.43,2.43,0,0,1-.52-1.51,2.42,2.42,0,0,1,2.41-2.41h72.35a3,3,0,0,1,1,.15,1.39,1.39,0,0,1,.68.52l.41.61a2.16,2.16,0,0,1,.23.86c.05.43.08.72.08.87V121h14.47a4.9,4.9,0,0,1,4.82,4.83Z"/><ellipse class="cls-4" cx="116.29" cy="188.33" rx="72.98" ry="5.44"/></g></svg>