<svg xmlns="http://www.w3.org/2000/svg" viewBox="0 0 85.13 111.53"><defs><style>.cls-1{fill:#c24a4a;}.cls-2{fill:#dd992e;}.cls-3{fill:#b2b2b2;}.cls-4{fill:#9d9d9c;}.cls-5{fill:#d45c28;}.cls-6{fill:#dadada;}.cls-7{fill:#c6c6c6;}.cls-8{fill:#468f99;}</style></defs><title>kapitelbild_1</title><g id="Bcakground"><path class="cls-1" d="M60.89,84.43c-21.43-2.93-25.47,1.29-39.1.4S8.29,73.81,12.85,69,22,63,21.62,53.64s7.09-7.72-7.69-14.17S2.31,21.21,10.63,15.23,26.76,34.38,36.09,31.32,51.34,11.17,52,22.89,82.33,87.37,60.89,84.43Z"/><ellipse class="cls-1" cx="26.88" cy="22.61" rx="0.84" ry="6.07" transform="translate(-8.24 23.37) rotate(-41.3)"/><circle class="cls-1" cx="52.41" cy="15.59" r="0.99"/></g><g id="overlay"><ellipse class="cls-2" cx="51.75" cy="88.45" rx="17.45" ry="1.42"/><polygon class="cls-3" points="60.04 76.94 53.27 77.72 44.68 76.2 39.73 73.35 44.84 44.43 57.74 45.48 65.15 48.02 60.04 76.94"/><rect class="cls-3" x="63.71" y="52.74" width="1.56" height="8.73" transform="translate(-2.95 110.69) rotate(-79.99)"/><rect class="cls-3" x="61.42" y="65.72" width="1.56" height="8.73" transform="translate(-17.62 119.15) rotate(-79.99)"/><rect class="cls-3" x="65.71" y="58.96" width="5.62" height="3.1" transform="translate(5.86 127.07) rotate(-88.18)"/><polygon class="cls-3" points="67.47 71.81 64.52 70.92 66.96 62.21 69.91 63.1 67.47 71.81"/><polygon class="cls-4" points="44.68 76.2 39.73 73.35 44.84 44.43 54.55 48.77 51.56 77.42 44.68 76.2"/><polygon class="cls-5" points="46.62 69.87 40.84 67.1 43.13 54.12 48.72 57.98 46.62 69.87"/><rect class="cls-4" x="59.17" y="56.55" width="3.44" height="1.75" transform="translate(-6.24 107.4) rotate(-79.99)"/><rect class="cls-4" x="57.77" y="69.52" width="3.44" height="1.75" transform="translate(-20.18 116.74) rotate(-79.99)"/><path class="cls-6" d="M50.41,41.13l-.33-4.8,1.62-2.47,5.09.13.88-5L55.6,22.89l4.71,7.37s.09,6.72-1.13,6.4-3.53,3.81-3.53,3.81l2.5,2-3.06,1.11L51.4,43Z"/><path class="cls-6" d="M62.9,25.82l1.81-2.44-.06-1.88L61.8,19.82l1.2-3,3.22-2.55-5.09,2.32s-2.33,3.55-1.55,3.8.65,3.24.65,3.24l-2.06.23,1.3,1.64,2.26.92Z"/><path class="cls-6" d="M60.76,41.35l.62-.84,0-.65-1-.58.41-1,1.11-.88-1.76.79s-.8,1.22-.53,1.31.24,1.12.24,1.12l-.72.08.46.57.78.32Z"/><path class="cls-6" d="M59.66,14l.62-.85,0-.64-1-.59.41-1L60.78,10l-1.76.8s-.8,1.22-.53,1.31.24,1.12.24,1.12l-.72.07.46.57.78.32Z"/><rect class="cls-7" x="67.89" y="56.22" width="1.56" height="3.23" transform="translate(-0.23 115.4) rotate(-79.99)"/><polygon class="cls-4" points="18.8 78.69 24.72 78.69 31.99 76.53 35.98 73.57 28.69 49.12 17.66 51.31 11.51 54.23 18.8 78.69"/><rect class="cls-3" x="9.19" y="61.33" width="7.58" height="1.35" transform="translate(-17.17 6.29) rotate(-16.59)"/><rect class="cls-4" x="12.46" y="72.31" width="7.58" height="1.35" transform="translate(-20.16 7.68) rotate(-16.59)"/><rect class="cls-3" x="8.5" y="62.91" width="2.7" height="4.89" transform="matrix(0.99, -0.15, 0.15, 0.99, -9.44, 2.14)"/><polygon class="cls-3" points="11.88 75 14.34 73.94 11.37 66.66 8.9 67.72 11.88 75"/><polygon class="cls-3" points="31.99 76.53 35.98 73.57 28.69 49.12 20.74 53.83 26.17 78.26 31.99 76.53"/><polygon class="cls-8" points="29.68 71.25 34.4 68.28 31.13 57.31 26.69 61.2 29.68 71.25"/><rect class="cls-4" x="15.37" y="60.43" width="1.52" height="2.99" transform="translate(-17.01 7.18) rotate(-16.59)"/><rect class="cls-4" x="17.87" y="71.49" width="1.52" height="2.99" transform="translate(-20.07 8.36) rotate(-16.59)"/><path class="cls-6" d="M23.55,46.82l-.19-4.17-1.64-2-4.39.62-1.25-4.21,1.17-5.49-3.32,6.84s.58,5.8,1.61,5.41S19,46.77,19,46.77l-1.95,2,2.75.66,3.12-.93Z"/><path class="cls-6" d="M11.25,34.85,9.44,32.92,9.3,31.3l2.3-1.74-1.34-2.43,1.25,1.73.35-2.12s2.37,2.83,1.72,3.13-.25,2.86-.25,2.86h1.81l-1,1.54-1.86,1Z"/><path class="cls-6" d="M14.64,48,14,47.38l0-.56.8-.61-.45-.84-1.05-.65,1.6.51s.81,1,.58,1.08-.09,1-.09,1H16l-.34.53-.64.36Z"/><path class="cls-6" d="M19.79,39.33l-.62-.67-.05-.56.8-.6-.45-.84-1-.65,1.6.51s.81,1,.59,1.08-.09,1-.09,1h.62l-.34.54-.64.35Z"/><path class="cls-2" d="M38.37,88.3c0,.42-5.84.77-13,.77s-13-.35-13-.77,5.84-.76,13.05-.76S38.37,87.88,38.37,88.3Z"/></g></svg>