<svg xmlns="http://www.w3.org/2000/svg" viewBox="0 0 85.13 111.53"><defs><style>.cls-1{fill:#f7931e;}.cls-2,.cls-4{fill:#69bec4;}.cls-2{stroke:#468f99;stroke-miterlimit:10;stroke-width:2.5px;}.cls-3{fill:#468f99;}.cls-5{fill:#ffeeb8;}</style></defs><title>kapitelbild_11</title><g id="Ebene_8" data-name="Ebene 8"><ellipse class="cls-1" cx="41.1" cy="95.43" rx="28.55" ry="1.5"/><polyline class="cls-2" points="40.14 73.87 43.13 86.1 43.13 95.83"/><polygon class="cls-3" points="55.3 28.7 51.71 40.6 44.53 37.39 41.77 32.41 39.03 32.44 37.5 49.61 40.56 62.4 44.59 65.6 49.33 57.66 54.04 56.63 58.77 62.3 60.91 73.87 58.21 82.28 51.26 80.89 45.7 76.72 36.95 76.64 26.1 49.34 31.94 22.64 42.53 21.64 45.76 14.33 52.48 16.67 55.3 28.7"/><polyline class="cls-4" points="54.04 56.63 51.44 58.47 50.6 65.02 53.52 76.93 58.21 82.28 60.91 73.87 58.77 62.3 54.04 56.63"/><polygon class="cls-4" points="51.71 40.6 47.09 38.53 45.18 28.75 44.14 21.35 45.76 14.33 52.48 16.67 55.3 28.7 51.71 40.6"/><polygon class="cls-4" points="31.94 22.64 30.63 28.64 35.17 26.15 39.55 25.64 42.53 21.64 31.94 22.64"/><polygon class="cls-4" points="33.19 35.84 31.1 48.31 36.58 63.68 37.99 64.62 39.34 63.06 36.58 48.77 37.67 36.78 35.69 34.8 35.22 32.51 33.19 35.84"/><polygon class="cls-4" points="39.34 66.5 39.34 68.69 43.13 70.36 43.51 69.46 39.34 66.5"/><polygon class="cls-4" points="49.47 58.64 47.57 61.92 49.33 63.19 50.36 59.43 49.47 58.64"/><ellipse class="cls-3" cx="53.16" cy="62.44" rx="0.68" ry="1.35"/><ellipse class="cls-3" cx="55.41" cy="60.81" rx="0.68" ry="1.35" transform="translate(-18.36 24.39) rotate(-21.39)"/><ellipse class="cls-3" cx="55.24" cy="67.07" rx="0.68" ry="1.35" transform="translate(-14.28 14.95) rotate(-13.66)"/><ellipse class="cls-3" cx="57.55" cy="65.84" rx="0.68" ry="1.35" transform="translate(-13.92 15.46) rotate(-13.66)"/><ellipse class="cls-3" cx="52.98" cy="69.04" rx="0.68" ry="1.35"/><ellipse class="cls-3" cx="55.41" cy="73.38" rx="0.68" ry="1.35" transform="translate(-12.78 11.69) rotate(-10.81)"/><ellipse class="cls-3" cx="57.06" cy="77.52" rx="0.68" ry="1.35" transform="translate(-16.7 15.67) rotate(-13.66)"/><ellipse class="cls-3" cx="58.49" cy="72.72" rx="0.68" ry="1.35"/><ellipse class="cls-3" cx="47.5" cy="20.48" rx="1.35" ry="0.68" transform="translate(22.76 65.91) rotate(-84.75)"/><ellipse class="cls-3" cx="49.89" cy="19.06" rx="0.68" ry="1.35" transform="translate(-3.33 14.62) rotate(-16.14)"/><ellipse class="cls-3" cx="49.15" cy="25.28" rx="0.68" ry="1.35" transform="translate(-3.17 7.46) rotate(-8.41)"/><ellipse class="cls-3" cx="51.56" cy="24.27" rx="0.68" ry="1.35" transform="translate(-3 7.81) rotate(-8.41)"/><ellipse class="cls-3" cx="46.71" cy="27.04" rx="1.35" ry="0.68" transform="translate(15.52 71.08) rotate(-84.75)"/><ellipse class="cls-3" cx="48.74" cy="31.58" rx="0.68" ry="1.35" transform="translate(-2.83 4.87) rotate(-5.56)"/><ellipse class="cls-3" cx="50.01" cy="35.85" rx="0.68" ry="1.35" transform="translate(-4.71 7.7) rotate(-8.41)"/><ellipse class="cls-3" cx="51.87" cy="31.2" rx="1.35" ry="0.68" transform="translate(16.06 80) rotate(-84.75)"/><polygon class="cls-5" points="52.48 17.6 46.72 15.93 44.38 22.79 47.09 38.53 43.13 22.6 45.76 14.33 52.48 16.67 52.48 17.6"/><polygon class="cls-5" points="32.15 49.4 36.58 48.77 37.99 61.6 36.58 61.6 32.15 49.4"/><polygon class="cls-5" points="54.95 57.72 52.48 58.93 51.87 63.79 50.6 65.84 51.44 58.47 54.04 56.63 54.95 57.72"/></g></svg>