<svg xmlns="http://www.w3.org/2000/svg" width="801.9145" height="315.2324" viewBox="0 0 801.9145 315.2324">
  <defs>
    <style>
      .cls-1 {
        fill: #ffeeb8;
      }

      .cls-2 {
        fill: #468f99;
      }

      .cls-11, .cls-3, .cls-8 {
        fill: none;
      }

      .cls-3, .cls-7 {
        stroke: #c24a4a;
      }

      .cls-11, .cls-3, .cls-6, .cls-7, .cls-8 {
        stroke-miterlimit: 10;
      }

      .cls-3, .cls-8 {
        stroke-width: 12.5021px;
      }

      .cls-4, .cls-6 {
        fill: #c24a4a;
      }

      .cls-5 {
        fill: #d45c28;
      }

      .cls-6 {
        stroke: #e56a6a;
      }

      .cls-11, .cls-6, .cls-7 {
        stroke-width: 1.1366px;
      }

      .cls-7 {
        fill: #e56a6a;
      }

      .cls-11, .cls-8 {
        stroke: #69bec4;
      }

      .cls-9 {
        fill: #b7cebf;
      }

      .cls-10 {
        fill: #e5aa3c;
      }

      .cls-12 {
        fill: #f47f5b;
      }

      .cls-13 {
        fill: #f4ca98;
      }

      .cls-14 {
        fill: #f7931e;
      }

      .cls-15 {
        fill: #69bec4;
      }

      .cls-16 {
        opacity: 0.39;
      }

      .cls-17 {
        opacity: 0.51;
      }
    </style>
  </defs>
  <title>veraenderung</title>
  <g id="Bcakground">
    <path class="cls-1" d="M142.4914,291.502C93.09,292.81,71.682,279.5742,71.682,279.5742s-85.6109-44.8608-25.6026-67.4035,134.5646-18.04,176.1446-10.8993,37.6572,9.7137,116.0827,8.5235,60.6544,13.1826,145.4565,5.2129,99.1759.9619,151.8712,14.1762,159.8779,15.92,137.6471,32.6546-70.5223,33.595-124.1845,34.2435c-25.9914.3141-134.0631-1.0573-244.22-2.4066C287.6029,292.2391,167.9655,290.8278,142.4914,291.502Z"/>
    <path class="cls-1" d="M727.14,289.5907c-1.1286-2.4875,21.6171-6.8447,38.1335-15.8369,12.2265-6.6568,17.8734-14.32,18.519-12.8983s-3.7252,11.8966-15.5689,19.3975C752.2241,290.3857,728.2685,292.0783,727.14,289.5907Z"/>
    <path class="cls-1" d="M618.0426,215.56c-.33,1.6452-14.8584-.5821-32.0918-4.0317s-31.7822-4.542-31.4523-6.1872,15.4135-3.22,32.6469.2294S618.3725,213.9149,618.0426,215.56Z"/>
    <path class="cls-1" d="M109.3727,247.9571c.1517.8544-13.264,1.6408-29.4748,4.5174s-29.078,6.7539-29.23,5.9,12.47-6.1171,28.68-8.9937S109.2211,247.1027,109.3727,247.9571Z"/>
    <path class="cls-1" d="M109.3726,191.1291c.1516.8545-13.264,1.6409-29.4748,4.5174s-29.078,6.754-29.23,5.8995,12.47-6.1171,28.68-8.9936S109.221,190.2747,109.3726,191.1291Z"/>
    <ellipse class="cls-2" cx="534.2971" cy="275.646" rx="102.1456" ry="4.0778"/>
    <ellipse class="cls-2" cx="138.0716" cy="279.2689" rx="102.1456" ry="4.0778"/>
  </g>
  <g id="Ebene_1" data-name="Ebene 1">
    <polyline class="cls-3" points="469.697 155.88 503.177 185.709 532.977 180.739 554.493 209.813 546.591 245.792 546.591 258.494 561.709 264.717 564.567 267.922 564.567 273.05"/>
    <polygon class="cls-4" points="438.552 153.248 431.37 169.46 423.2 187.902 430.876 196.045 442.939 195.456 452.555 183.077 446.695 157.196 438.552 153.248"/>
    <polygon class="cls-4" points="452.555 153.248 446.695 181.322 449.625 195.456 465.749 196.045 479.702 186.586 479.701 174.647 458.73 153.248 452.555 153.248"/>
    <polygon class="cls-4" points="466.626 145.791 470.574 186.586 477.742 187.914 488.68 185.709 499.086 172.549 501.313 158.285 479.701 145.791 466.626 145.791"/>
    <polygon class="cls-4" points="473.644 138.703 477.154 153.248 491.19 158.951 513.123 145.791 524.293 144.037 521.457 135.264 509.614 131.316 486.804 131.316 473.644 138.703"/>
    <polygon class="cls-4" points="477.154 131.316 483.969 124.297 495.138 116.84 508.736 116.84 515.316 116.84 515.316 124.078 507.421 127.807 503.473 131.316 488.68 133.509 477.154 131.316"/>
    <polygon class="cls-4" points="456.098 131.316 463.198 121.227 477.154 116.84 479.701 116.84 477.154 125.175 456.098 131.316"/>
    <polygon class="cls-4" points="442.5 153.248 427.147 162.46 420.568 155.442 427.586 145.133 437.877 135.702 449.519 135.702 449.519 141.843 442.5 153.248"/>
    <polyline class="cls-5" points="463.198 126.929 458.432 127.999 449.519 130 446.695 133.509 449.519 135.702 444.255 140.527 437.877 145.791 437.877 149.327 442.062 149.081 442.5 153.248 446.695 166.853 456.098 162.46 473.644 158.951 476.208 149.327 481.979 140.966 483.969 135.702 488.68 129.122 471.138 126.929"/>
    <polygon class="cls-5" points="473.645 199.307 469.697 203.513 469.697 209.813 479.515 207.641 488.68 204.56 496.235 204.56 494.261 196.045 482.966 196.045 473.645 199.307"/>
    <polygon class="cls-5" points="483.97 216.113 496.235 216.113 501.313 211.189 496.235 209.813 483.97 216.113"/>
    <path class="cls-5" d="M441.5206,216.113h1.1275a2.4526,2.4526,0,0,0,1.7075-.692l1.27-1.2312a2.4528,2.4528,0,0,0-1.0662-4.1283h0a2.4534,2.4534,0,0,0-1.7619.1857L440.4,211.4784A2.4528,2.4528,0,0,0,441.5206,216.113Z"/>
    <path class="cls-5" d="M409.7528,274.2269H410.88a2.453,2.453,0,0,0,1.7076-.692l1.27-1.2311a2.4528,2.4528,0,0,0-1.0663-4.1283h0a2.4529,2.4529,0,0,0-1.7619.1856l-2.3971,1.2312A2.4528,2.4528,0,0,0,409.7528,274.2269Z"/>
    <path class="cls-5" d="M431.1528,206.3957H432.28a2.4527,2.4527,0,0,0,1.7075-.692l1.27-1.2312a2.4528,2.4528,0,0,0-1.0663-4.1282h0a2.4529,2.4529,0,0,0-1.7619.1856l-2.3971,1.2312A2.4528,2.4528,0,0,0,431.1528,206.3957Z"/>
    <path class="cls-5" d="M459.9738,231.693l.3737.2878a1.0258,1.0258,0,0,0,.7427.2062l.7352-.0844a1.0271,1.0271,0,0,0,.7-1.6417h0a1.0256,1.0256,0,0,0-.6315-.3881l-1.1089-.2033A1.0269,1.0269,0,0,0,459.9738,231.693Z"/>
    <path class="cls-5" d="M446.6421,203.4328l.3737.2878a1.0252,1.0252,0,0,0,.7427.2062l.7352-.0844a1.0271,1.0271,0,0,0,.7-1.6417h0a1.026,1.026,0,0,0-.6314-.3881l-1.1089-.2033A1.0269,1.0269,0,0,0,446.6421,203.4328Z"/>
    <path class="cls-5" d="M428.7361,213.1846l.3738.2878a1.0254,1.0254,0,0,0,.7426.2062l.7352-.0844a1.0271,1.0271,0,0,0,.7005-1.6417h0a1.0253,1.0253,0,0,0-.6315-.3881l-1.1089-.2033A1.0269,1.0269,0,0,0,428.7361,213.1846Z"/>
    <path class="cls-5" d="M461.5241,259.7264l.3738.2878a1.0252,1.0252,0,0,0,.7427.2062l.7352-.0844a1.0271,1.0271,0,0,0,.7-1.6417h0a1.026,1.026,0,0,0-.6314-.3881l-1.1089-.2033A1.0269,1.0269,0,0,0,461.5241,259.7264Z"/>
    <path class="cls-5" d="M444.6991,243.2553l.3737.2877a1.0257,1.0257,0,0,0,.7427.2063l.7352-.0845a1.027,1.027,0,0,0,.7-1.6416h0a1.0251,1.0251,0,0,0-.6314-.3881l-1.1089-.2034A1.027,1.027,0,0,0,444.6991,243.2553Z"/>
    <path class="cls-5" d="M506.8271,224.4782l.3737.2877a1.0257,1.0257,0,0,0,.7427.2063l.7352-.0845a1.027,1.027,0,0,0,.7-1.6416h0a1.0251,1.0251,0,0,0-.6314-.3881l-1.1089-.2034A1.027,1.027,0,0,0,506.8271,224.4782Z"/>
    <path class="cls-5" d="M455.0983,210.9015h1.1275a2.453,2.453,0,0,0,1.7076-.692l1.2695-1.2312a2.4528,2.4528,0,0,0-1.0662-4.1283h0a2.4524,2.4524,0,0,0-1.7619.1857l-2.3971,1.2312A2.4528,2.4528,0,0,0,455.0983,210.9015Z"/>
    <polygon class="cls-5" points="551.955 245.792 551.955 236.592 556.988 230.013 576.728 216.113 591.292 217.778 603.485 227.819 609.626 238.347 609.626 250.191 586.271 236.154 564.567 238.347 554.493 252.873 549.093 247.252 551.955 245.792"/>
    <polygon class="cls-5" points="566.639 265.544 569.271 258.494 579.36 252.873 588.571 252.873 590.764 260.683 607.433 268.175 589.449 268.175 584.623 260.683 575.85 265.544 566.639 265.544"/>
    <polygon class="cls-5" points="492.641 265.544 482.966 265.544 477.154 270.79 498.969 270.79 501.313 268.167 492.641 265.544"/>
    <polygon class="cls-5" points="602.169 280.896 622.347 280.896 622.347 278.271 610.942 275.646 594.295 278.271 602.169 280.896"/>
    <polygon class="cls-5" points="568.832 283.967 549.093 286.16 554.493 290.609 582.43 287.288 587.036 283.967 568.832 283.967"/>
    <polyline class="cls-6" points="458.292 166.853 458.292 186.147 463.198 192.289"/>
    <polyline class="cls-6" points="477.154 158.951 488.68 166.853 492.641 174.647"/>
    <polyline class="cls-6" points="484.897 138.703 506.982 135.702 521.457 135.264"/>
    <polyline class="cls-6" points="489.233 126.929 498.969 119.472 510.491 119.472"/>
    <polyline class="cls-6" points="439.43 162.46 430.657 179.571 430.657 192.289"/>
    <polygon class="cls-7" points="463.198 179.571 463.198 182.638 473.644 179.571 471.89 174.647 463.198 179.571"/>
    <polyline class="cls-3" points="554.493 209.813 546.591 245.792 546.591 258.494 561.709 264.717 564.567 267.922 564.567 273.05"/>
    <polyline class="cls-8" points="518.755 183.111 532.977 180.739 539.861 190.041"/>
    <path class="cls-2" d="M478.7965,162.4859c2.7021-.111,4.5116-.1033,6.9639-1.1876a28.9832,28.9832,0,0,1,6.7072-2.2188,32.5734,32.5734,0,0,1,8.77-.3119l.0752-.4828-21.6114-12.4933H466.626l1.6189,16.7277C471.6193,163.28,475.4255,162.6246,478.7965,162.4859Z"/>
    <polygon class="cls-9" points="473.644 138.703 477.154 153.248 491.19 158.951 513.123 145.791 524.293 144.037 521.457 135.264 509.614 131.316 486.804 131.316 473.644 138.703"/>
    <polygon class="cls-9" points="477.154 131.316 483.969 124.297 495.138 116.84 508.736 116.84 515.316 116.84 515.316 124.078 507.421 127.807 503.473 131.316 488.68 133.509 477.154 131.316"/>
    <polygon class="cls-9" points="456.098 131.316 463.198 121.227 477.154 116.84 479.701 116.84 477.154 125.175 456.098 131.316"/>
    <path class="cls-9" d="M427.1474,162.46s5.7114-2.4775,7.8958-3.654c3.0936-1.666,5.0616-4.898,7.9526-4.1733l6.5228-12.7892v-6.1412H437.8772l-10.2911,9.431-7.0185,10.3078,4.6392,4.9491Z"/>
    <path class="cls-10" d="M442.45,152.7663c1.5921.121-2.0536-.0577-1.13,1.878.0147.031.1539,2.739.1689,2.7689.9082-.11-.0925.9578.814,1.3929-4.4064,4.6828,4.3895,8.0534,4.3923,8.0468.8-1.9424,18.4681-7.0134,18.5305-6.9768.972-.4984,6.5553-9.2364,9.6365-5.4971l1.3454-5.0524,5.7713-8.361,1.9906-5.2632,4.7105-6.58L471.1378,126.93h-7.94L458.4326,128l-8.914,2-2.8234,3.51,2.8234,2.1932-5.2638,4.8248-6.3776,5.2644v3.5351l4.1843-.2453Z"/>
    <polyline class="cls-11" points="484.897 138.703 506.982 135.702 521.457 135.264"/>
    <polyline class="cls-11" points="489.233 126.929 498.969 119.472 510.491 119.472"/>
    <path class="cls-1" d="M444.6234,130.2281a30.9868,30.9868,0,0,1,2.8345,3.2843c.7078.9466,3.8868-.2,3.0506-1.3184a30.9779,30.9779,0,0,0-2.8345-3.2844c-.8516-.8574-3.978.3846-3.0506,1.3185Z"/>
    <path class="cls-1" d="M456.6655,130.2332a10.4651,10.4651,0,0,1-.7935-3.904c-.0078-.6877-3.3053-.162-3.2935.8824a10.4661,10.4661,0,0,0,.7935,3.9041c.3686.8972,3.5991-.1386,3.2935-.8825Z"/>
    <path class="cls-1" d="M460.76,131.0086a54.8,54.8,0,0,0-.0719-5.7974c-.0707-1.0739-3.3773-.39-3.2935.8825a50.28,50.28,0,0,1,.0709,5.3231c-.0544,1.3582,3.25.7,3.2945-.4082Z"/>
    <path class="cls-1" d="M447.1575,136.6792a12.3075,12.3075,0,0,0-2.6571-5.2523c-1.0067-1.17-4.1276.1731-3.0092,1.4728a10.7226,10.7226,0,0,1,2.3728,4.662c.3654,1.5711,3.6633.7078,3.2935-.8825Z"/>
    <path class="cls-1" d="M448.4369,141.1985a7.2551,7.2551,0,0,1-4.3974-2.6028c-.51-.6183-3.6105.5083-3.1024,1.1248a7.9256,7.9256,0,0,0,4.7953,2.76,3.9423,3.9423,0,0,0,2.3026-.4189c.2492-.1231,1.1571-.73.4019-.8632Z"/>
    <path class="cls-1" d="M445.8813,144.3926a24.0841,24.0841,0,0,1-4.5231-1.1695,2.753,2.753,0,0,0-2.3326.3069c-.3829.2434-1.0531,1.0074-.2875,1.29a27.3372,27.3372,0,0,0,5.1278,1.3663,2.8642,2.8642,0,0,0,2.3288-.624c.4672-.4544.4137-1.0524-.3134-1.17Z"/>
    <path class="cls-1" d="M457.2849,140.572l-1.2776-2.601c-.3088-.6286-1.3-.5185-1.86-.3555-.3405.0992-1.7344.625-1.4333,1.238l1.2776,2.601c.3088.6287,1.3.5186,1.86.3556.34-.0992,1.7344-.625,1.4333-1.2381Z"/>
    <path class="cls-1" d="M460.2615,137.9839l-.53-2.4124c-.1014-.4616-1.51-.09-1.77-.0174-.2781.0782-1.6294.4195-1.5239.9l.53,2.4125c.1014.4616,1.51.09,1.77.0174.2781-.0783,1.6293-.42,1.5238-.9Z"/>
    <path class="cls-1" d="M455.0971,134.0844a1.7729,1.7729,0,0,1-.6028-1.5856c.19-1.3313-3.1319-.7662-3.2979.3952a2.8022,2.8022,0,0,0,.847,2.4971,2.1548,2.1548,0,0,0,2.1861.0559c.3658-.1687,1.435-.8378.8676-1.3626Z"/>
    <path class="cls-1" d="M467.7869,129.8671a55.44,55.44,0,0,0-.0607-5.7668c-.0582-.9033-3.3672-.263-3.2935.8825a51.5463,51.5463,0,0,1,.0762,5.3538c-.0475,1.1969,3.24.4982,3.278-.47Z"/>
    <path class="cls-1" d="M471.8563,129.742a31.05,31.05,0,0,0,1.4337-5.6245c.1758-1.1158-3.1193-.5339-3.2777.4709a31.055,31.055,0,0,1-1.4336,5.6244c-.3346.9372,2.9176.5379,3.2776-.4708Z"/>
    <path class="cls-1" d="M477.1254,131.9615a19.9967,19.9967,0,0,0,.8782-4.46c.1124-1.3824-3.2048-.7719-3.2992.39a19.9988,19.9988,0,0,1-.8783,4.46c-.3793,1.1935,2.9324.7639,3.2993-.39Z"/>
    <path class="cls-1" d="M467.6273,135.7709a12.3086,12.3086,0,0,1-.7549-3.146c-.08-.7611-1.4279-.6738-1.9109-.5444-.66.1769-1.4643.6479-1.3826,1.4269a12.3035,12.3035,0,0,0,.755,3.146c.2784.7254,1.2823.7128,1.9108.5444.495-.1327,1.6586-.7079,1.3826-1.4269Z"/>
    <path class="cls-1" d="M482.2562,131.1422a7.7318,7.7318,0,0,1,.3673-2.9327c.2171-.6826-1.0417-.6492-1.3938-.601-.6026.0824-1.6713.38-1.8874,1.059a8.8747,8.8747,0,0,0-.38,3.3572c.0675.9408,3.3772.2841,3.2935-.8825Z"/>
    <path class="cls-1" d="M484.7766,132.287a5.47,5.47,0,0,1,.61-1.1231c.0858-.1136.2436-.2887.3661-.4164.0744-.0776.15-.1541.23-.2266.2143-.1953-.2586.2.1417-.113.5056-.3956.8975-1.1292.2114-1.574a2.278,2.278,0,0,0-2.3525.2325,7.3934,7.3934,0,0,0-2.33,2.9381c-.6976,1.6637,2.6043,1.5213,3.1237.2825Z"/>
    <path class="cls-1" d="M473.8231,136.5866a4.595,4.595,0,0,1-1.3942-3.1159c-.0162-.79-.8018-1.0291-1.4923-.9688-.5725.05-1.8473.4927-1.8314,1.2678a6.0481,6.0481,0,0,0,1.69,4.22,1.9941,1.9941,0,0,0,2.22.1822c.4691-.2189,1.3821-1,.8079-1.5851Z"/>
    <path class="cls-1" d="M478.2382,137.4748l1.3116-2.3983c.3854-.7049-.3446-1.3063-.9986-1.3637a2.2194,2.2194,0,0,0-2.1461,1.0028l-1.3116,2.3983c-.3855.7049.3446,1.3063.9986,1.3636a2.2192,2.2192,0,0,0,2.1461-1.0027Z"/>
    <path class="cls-1" d="M479.2322,144.6544l1.47-1.86a.91.91,0,0,0-.411-1.5341,2.3093,2.3093,0,0,0-2.3289.624l-1.47,1.86a.91.91,0,0,0,.4111,1.5341,2.3091,2.3091,0,0,0,2.3288-.624Z"/>
    <path class="cls-1" d="M468.5681,141.8734a10.2379,10.2379,0,0,1-.7989-2.5778c-.1278-.7483-3.4463-.012-3.2935.8825a10.2379,10.2379,0,0,0,.7989,2.5778c.3949.8568,3.5893-.2407,3.2935-.8825Z"/>
    <path class="cls-1" d="M463.3657,143.5469a16.1256,16.1256,0,0,0-.8639-4.8344c-.3161-.9274-3.5848.0277-3.2935.8825a16.1223,16.1223,0,0,1,.864,4.8344c.019.7557,3.3206.195,3.2934-.8825Z"/>
    <path class="cls-1" d="M452.9241,143.9837a8.697,8.697,0,0,1-1.941-2.8513c-.3082-.7207-3.5127.37-3.2934.8824a9.3819,9.3819,0,0,0,2.1227,3.0591c.1464.142.6817.08.8288.0661a5.5482,5.5482,0,0,0,1.2811-.2946c.2364-.0834,1.3852-.49,1.0018-.8617Z"/>
    <path class="cls-1" d="M447.5108,148.3091a12.2384,12.2384,0,0,1-1.998-2.246c-.7027-1.0175-3.8842.1285-3.0431,1.3464a12.2457,12.2457,0,0,0,1.998,2.246,2.0966,2.0966,0,0,0,2.2.108c.3778-.1807,1.4458-.9245.843-1.4544Z"/>
    <path class="cls-1" d="M446.7231,151.5751a18.4779,18.4779,0,0,1-3.1085-1.5614c-.9-.5636-3.9415.76-2.6234,1.5849A18.4864,18.4864,0,0,0,444.1,153.16a2.7657,2.7657,0,0,0,2.3314-.3113c.3966-.2438,1.0421-.9813.2919-1.2736Z"/>
    <path class="cls-1" d="M457.1215,149.1046l.3467-4.0751c.0882-1.0355-3.19-.3735-3.2656.5156l-.3468,4.0751c-.0881,1.0356,3.19.3736,3.2657-.5156Z"/>
    <path class="cls-1" d="M463.3688,148.1754v-4.0731c0-.6025-3.2935-.1155-3.2934.8825v4.0731c0,.6025,3.2934.1156,3.2934-.8825Z"/>
    <path class="cls-1" d="M470.8741,146.8423a8.2973,8.2973,0,0,1,1.9787-3.3609.9385.9385,0,0,0-.4212-1.5719,2.3062,2.3062,0,0,0-2.3288.624,11.0268,11.0268,0,0,0-2.5628,4.5688c-.2329.7982.9754,1.1,1.5165,1.0591a1.9528,1.9528,0,0,0,1.8176-1.3191Z"/>
    <path class="cls-1" d="M475.4643,147.81a3.2488,3.2488,0,0,1,1.0779-2.07c.5671-.5133-.4927-.6581-.8036-.636a3.7147,3.7147,0,0,0-2.1972.812,4.1976,4.1976,0,0,0-1.3706,2.7768c-.0546.5417,3.1867.1775,3.2935-.8825Z"/>
    <path class="cls-1" d="M482.991,140.8576a4.1142,4.1142,0,0,1,.8264-2.1357c.4765-.6446-.4073-1.1453-.947-1.1711a2.4942,2.4942,0,0,0-2.16.9523,5.4668,5.4668,0,0,0-1.034,2.6889c-.15,1.506,3.1852.96,3.3143-.3344Z"/>
    <path class="cls-1" d="M458.9343,132.988l-1.9852-2.9962c-.5251-.7924-3.544.5044-3.2935.8825l1.9852,2.9962c.5251.7924,3.544-.5044,3.2935-.8825Z"/>
    <path class="cls-1" d="M451.5606,137.7336l-5.0108-2.9418a2.4294,2.4294,0,0,0-2.3424.27c-.4939.337-.9391,1.025-.25,1.43l5.0108,2.9418a2.43,2.43,0,0,0,2.3424-.27c.4939-.337.9391-1.0251.25-1.4295Z"/>
    <path class="cls-1" d="M452.7858,142.2586a13.1252,13.1252,0,0,0-3.689-6.0975c-1.1075-1.0621-3.9282.61-2.5236,1.9572a10.8365,10.8365,0,0,1,2.9191,5.0228c.4312,1.5822,3.7255.703,3.2935-.8825Z"/>
    <path class="cls-1" d="M456.0371,133.6142l-3.5054-3.161c-.6787-.6121-3.6705.632-3.0956,1.15l3.5054,3.161c.6787.612,3.6705-.6321,3.0956-1.15Z"/>
    <path class="cls-1" d="M448.62,140.9153a10.2166,10.2166,0,0,0-4.4232-2.3,2.6617,2.6617,0,0,0-2.3288.624.7023.7023,0,0,0,.3428,1.2793,7.7777,7.7777,0,0,1,3.3623,1.7291,2.1358,2.1358,0,0,0,2.195.089c.3757-.1655,1.4422-.9025.8519-1.421Z"/>
    <path class="cls-1" d="M452.5278,152.7681a6.6144,6.6144,0,0,1-2.1646-2.7227c-.2775-.6576-1.3181-.5233-1.8658-.3765-.3853.1032-1.6974.62-1.4276,1.259a7.519,7.519,0,0,0,2.3987,3.126,2.2744,2.2744,0,0,0,2.1787.0284c.3015-.1278,1.4864-.8584.8806-1.3142Z"/>
    <path class="cls-1" d="M452.593,147.9955a4.5,4.5,0,0,0-1.5652-2.7257c-.5107-.428-1.6059-.1153-2.1433.104-.2584.1055-1.4518.6546-.943,1.0809a3.8679,3.8679,0,0,1,1.358,2.4233c.1345.8362,3.4517.1013,3.2935-.8825Z"/>
    <path class="cls-1" d="M458.1474,153.52a6.41,6.41,0,0,0-.4874-3.5071c-.38-.8441-3.58.2446-3.2935.8825a5.99,5.99,0,0,1,.5263,3.1816c-.0732.5989.982.4312,1.3324.3721.3864-.0652,1.8535-.367,1.9222-.9291Z"/>
    <path class="cls-1" d="M462.9733,151.15l-1.6523-3.34c-.5325-1.0762-3.736-.012-3.2935.8825l1.6523,3.34c.5325,1.0762,3.736.012,3.2935-.8825Z"/>
    <path class="cls-1" d="M469.252,151.143a21.5062,21.5062,0,0,1-.1119-3.9676c.1-1.6167-3.2394-1.0957-3.3254.2928a24.8084,24.8084,0,0,0,.1438,4.5573c.172,1.4043,3.4768.6135,3.2935-.8825Z"/>
    <path class="cls-1" d="M474.1219,150.89l.55-2.5932c.1683-.7941-.93-1.1118-1.5138-1.049a1.947,1.947,0,0,0-1.8193,1.3134l-.55,2.5931c-.1683.7941.9295,1.1118,1.5138,1.049a1.947,1.947,0,0,0,1.8192-1.3133Z"/>
    <path class="cls-1" d="M459.88,154.4764a10.0415,10.0415,0,0,0-3.4476-1.407,2.8,2.8,0,0,0-2.3288.624c-.5035.47-.3759,1.052.3211,1.1985a8.1944,8.1944,0,0,1,2.8407,1.2019c.92.6019,3.9535-.7413,2.6146-1.6174Z"/>
    <path class="cls-1" d="M450.4757,158.1894a41.2264,41.2264,0,0,0-5.1577-5.3963c-.7966-.6952-3.8465.5585-3.0734,1.2333a41.2264,41.2264,0,0,1,5.1577,5.3963c.6259.7862,3.7915-.3312,3.0734-1.2333Z"/>
    <path class="cls-1" d="M437.4791,131.1372l-.195-1.1091c-.0942-.5353-1.5021-.2043-1.7972-.12-.3549.1009-1.5957.4376-1.4963,1.0028l.195,1.1091c.0942.5354,1.5021.2043,1.7972.12.3549-.1009,1.5957-.4376,1.4963-1.0029Z"/>
    <path class="cls-1" d="M441.3372,125.4031V123.922c0-.5614-3.2935-.0873-3.2935.8825v1.4811c0,.5615,3.2935.0873,3.2935-.8825Z"/>
    <polygon class="cls-1" points="495.047 141.026 512.265 138.613 513.376 140.574 498.969 146.58 488.68 144.99 495.047 141.026"/>
    <polygon class="cls-1" points="499.862 122.142 503.177 124.542 510.491 124.078 509.488 122.142 499.862 122.142"/>
    <polygon class="cls-1" points="466.138 121.401 476.666 118.254 476.666 119.827 466.138 121.401"/>
    <polygon class="cls-1" points="425.805 150.806 430.638 145.29 436.913 139.567 439.43 139.737 435.637 143.988 430.657 147.859 425.805 150.806"/>
    <polygon class="cls-9" points="404.699 148.617 401.922 153.411 406.921 153.248 407.846 148.251 404.699 148.617"/>
    <polygon class="cls-9" points="485.975 111.774 480.782 109.737 485.053 104.738 489.233 105.664 488.68 109.922 485.975 111.774"/>
    <polygon class="cls-9" points="413.759 108.663 408.565 106.627 412.837 101.628 417.017 102.554 416.464 106.812 413.759 108.663"/>
    <polygon class="cls-9" points="520.952 84.965 515.758 82.929 520.03 77.93 524.21 78.856 523.656 83.114 520.952 84.965"/>
    <polygon class="cls-9" points="572.791 127.328 567.597 125.292 571.869 120.293 576.049 121.218 575.496 125.477 572.791 127.328"/>
    <polygon class="cls-9" points="552.496 145.966 547.302 143.929 551.573 138.93 555.753 139.856 555.2 144.114 552.496 145.966"/>
    <polygon class="cls-9" points="525.225 178.642 525.225 182.031 532.977 180.739 534.297 175.647 525.225 178.642"/>
    <polygon class="cls-9" points="442.484 153.384 436.508 157.863 431.37 169.46 435.043 169.908 441.172 166.853 447.867 171.385 453.57 169.908 451.966 165.713 461.719 161.336 454.341 162.314 444.503 160.197 442.484 153.384"/>
    <polygon class="cls-2" points="441.359 154.336 437.501 157.249 439.43 161.576 443.781 162.88 450.805 165.713 453.191 162.067 446.36 160.596 443.972 158.806 441.359 154.336"/>
    <polygon class="cls-5" points="555.579 201.59 551.885 195.456 561.142 190.041 564.567 190.041 560.587 192.289 555.579 201.59"/>
    <polygon class="cls-5" points="539.861 199.345 531.52 204.765 542.258 203.327 539.861 199.345"/>
    <polygon class="cls-5" points="508.006 190.041 509.59 199.345 504.119 192.289 508.006 190.041"/>
    <polygon class="cls-5" points="498.969 177.374 502.268 179.571 505.177 171.487 498.969 177.374"/>
    <polyline class="cls-12" points="568.064 232.194 586.271 231.022 606.501 242.483 608.321 244.705 608.321 239.521 601.132 228.042 590.765 219.525 576.694 219.525 574.657 223.807 584.189 224.979 574.657 224.979 568.064 231.022"/>
    <polygon class="cls-5" points="544.295 224.979 529.761 224.719 519.264 234.493 514.302 241.432 518.005 252.873 525.405 265.544 542.258 239.14 549.093 233.041 544.295 224.979"/>
    <polygon class="cls-12" points="542.258 228.042 533.001 236.558 528.002 252.873 526.151 262.108 525.225 245.792 527.262 237.114 534.297 228.042 541.332 228.042 542.258 228.042"/>
    <polygon class="cls-12" points="531.697 228.042 527.817 228.042 518.755 236.929 517.132 240.446 517.132 244.705 524.293 260.683 524.429 239.152 530.409 231.022 531.697 228.042"/>
    <polyline class="cls-5" points="549.093 260.683 548.615 260.822 539.881 263.35 536.81 273.05 520.142 273.05 528.915 280.896 549.093 277.387 554.493 267.298"/>
  </g>
  <g id="overlay">
    <path class="cls-9" d="M249.6138,121.6079c3.3478-.0637,9.03-.0285,10.54-3.8739,1.1893-3.03-1.28-6.1746-3.1075-8.3354-2.8042-3.3152-6.28-5.9585-9.1894-9.1653a17.3667,17.3667,0,0,1-2.534-3.384l.958-5.679c1.2147-1.5377,5.5759-1.4973,7.2138-1.5714a33.4915,33.4915,0,0,1,16.0991,3.4734,1.8048,1.8048,0,0,0,2.6157-1.0641c1.5129-6.6388,2.2136-14.3872,4.7514-20.69,3.8157-9.4766,11.5194,9.2749,12.6818,12.1469,3.205,7.9187,9.6194,18.519,19.7851,16.99,10.1526-1.5273,12.054-14.2947,13.0341-22.4925a89.8074,89.8074,0,0,0-4.8072-41l-2.19,2.19c10.329,2.59,12.2844,16.5116,22.7731,19.0054,6.28,1.493,13.1057-3.3764,11.8834-10.0322l-2.6156,2.0108a50.4313,50.4313,0,0,1,17.2806,13.927c3.32,4.2335,5.431,12.2673,10.764,14.37,4.496,1.7729,10.4079-1.0606,14.3093-3.2872a37.28,37.28,0,0,0,12.1442-11.35,36.7147,36.7147,0,0,0,6.0776-15.4954c1.0232-7.21-1.3008-13.6114-2.0009-20.7-.4-4.0457.058-8.8027,3.3078-11.71,4.1407-3.7045,10.54-.5039,14.98,1.0983,7.3493,2.6517,14.9963,5.9054,20.3142,11.8546,5.6286,6.2968,7.9121,15.149,3.63,22.7708-2.78,4.9479-7.35,9.43-8.4042,15.1923-2.0872,11.4077,10.9195,15.3411,19.8308,14.1167A33.23,33.23,0,0,0,485.224,61.5533,69.156,69.156,0,0,0,487.64,53.628c.5508-1.85,1.0649-3.9474,2.639-5.2028,2.6983-2.1522,5.6376-.8023,7.49,1.7672,3.4677,4.8094,3.5064,11.1386,7.2205,15.8713,3.4212,4.3593,7.9686,4.9533,12.5527,1.9969,4.0627-2.62,6.8751-3.0632,10.2054.8075,1.9816,2.3033,3.5295,4.9505,5.53,7.2412,9.929,11.3666,23.5705,1.7562,31.6643-6.7735l-2.7965-.36a52.0536,52.0536,0,0,1,9.4467,32.41c-.2857,6.7037-1.3729,15.6853,4.6282,20.4091,7.6207,5.9985,16.2026-1.2447,24.2581-1.5853,9.3757-.3964,8.2724,8.7538,8.136,15.5794l-.3984,19.9373c-.0458,2.2925,3.5154,2.2923,3.5612,0l.3983-19.9373c.0942-4.7108,1.15-10.8676-1.7285-15.03-5.0711-7.3322-14.9106-3.0361-21.5234-1.14-7.459,2.1388-13.1267-.48-13.8962-8.4809-.4382-4.5563.2947-9.1277.2044-13.6877a54.86,54.86,0,0,0-10.0115-30.2721,1.8048,1.8048,0,0,0-2.7965-.36c-4.6964,4.9494-11.295,11.295-18.6358,11.1327-6.7859-.15-9.6923-7.1632-13.5228-11.6-2.462-2.8518-5.7212-5.047-9.6406-4.0456-2.9516.7541-5.348,4.1531-8.4226,4.2107-4.0661.0761-6.3015-5.41-7.3715-8.5409-1.57-4.5936-2.82-9.7419-6.9727-12.7942a7.7053,7.7053,0,0,0-10.1875.6173c-3.76,3.7085-3.7383,9.7545-5.7325,14.37A29.5494,29.5494,0,0,1,468.2,74.57c-5.8134,2.9559-13.9117,4.6185-20.0177,1.52-8.7564-4.4434-3.3418-12.7634.54-18.4981,3.1819-4.701,5.7773-9.4475,5.4922-15.2894a26.0562,26.0562,0,0,0-6.042-14.827c-4.2076-5.1918-10.1176-8.6668-16.1686-11.3007-5.4755-2.3834-13.2946-6.4138-19.3712-5.6034-12.355,1.6477-10.307,17.1052-8.6371,25.5915,3.022,15.3577-4.5632,31.53-19.435,37.6-2.6485,1.0811-6.4741,2.1032-9.1.4249-1.5881-1.0148-2.5726-4.1526-3.46-5.7223a52.5931,52.5931,0,0,0-22.6979-21.4038,1.8053,1.8053,0,0,0-2.6157,2.0108c1.2443,6.7753-7.8495,6.1311-11.0969,3.94-3.1285-2.11-5.2411-5.4975-7.4937-8.4358-3.14-4.0964-6.56-7.5733-11.6853-8.8584a1.7958,1.7958,0,0,0-2.19,2.19,86.9515,86.9515,0,0,1,4.68,40.0532c-.7039,5.7054-1.6093,14.504-7.0611,17.8892-7.076,4.3938-14.3308-3.8191-17.1089-9.5158-2.84-5.824-6.6265-22.5685-15.577-21.8981-3.4222.2563-4.9489,3.6025-5.7727,6.4945-1.8775,6.5906-3.0827,13.447-4.6055,20.1294l2.6156-1.0641c-7-3.358-15.35-5.1837-23.0676-3.3524-5.184,1.23-8.8431,5.1485-6.722,10.6314,1.8976,4.9053,6.8025,8.308,10.3868,11.9219,1.4736,1.4859,3.9887,3.5354,4.5478,5.6376.9549,3.5907-4.4157,3.1632-6.922,3.2109-2.2887.0435-2.2963,3.6048,0,3.5611Z"/>
    <path class="cls-9" d="M496.235,156.4134c3.8991-.014,7.7879-.519,11.6918-.5.5219.0025,1.9277-.2355,2.2984.0628,1.0169.818.513,3.6176.572,4.7308a11.2063,11.2063,0,0,0,2.4166,6.4869c2.1158,2.8826,4.5013,4.6576,4.463,8.5092-.0383,3.8534-2.5542,6.9245-3.4241,10.5861-.8867,3.7327-.4877,8.3943,3.2414,10.4063,4.7057,2.5388,12.4133.2266,16.9314-1.6531a33.8871,33.8871,0,0,0,13.4813-10.1815c4.541-5.7089,7.3023-13.1073,13.4986-17.3491a21.586,21.586,0,0,1,21.8847-1.3234c2.0408,1.0306,3.8457-2.0405,1.7974-3.0749a25.2018,25.2018,0,0,0-31.1416,6.6045c-4.3036,5.3135-6.9617,11.77-12.0805,16.4421a30.4459,30.4459,0,0,1-11.3019,6.5239c-3.5557,1.1225-11.3033,3.2866-13.0467-1.5982-1.2478-3.4959,1.8441-7.7867,2.954-10.8781a12.1158,12.1158,0,0,0,.5433-7.9756,16.89,16.89,0,0,0-3.4261-5.32c-1.67-2.06-2.9689-3.3975-3.23-6.2056-.1279-1.3773.1451-2.7214-.0847-4.1019-1.2263-7.3658-12.9171-3.771-18.0386-3.7526a1.7816,1.7816,0,0,0,0,3.5611Z"/>
    <path class="cls-9" d="M255.7851,139.0749c12.7433,1.0583,23.1931,7.7748,35.581,10.0441,7.2658,1.3309,17.4285,3.4522,24.1549-.9316,2.5182-1.6412,3.7466-5.6457,6.7076-6.3286,7.48-1.7254,15.5276,6.529,17.6554,12.8124,2.1137,6.2419-.0552,13.089,2.1081,19.314,1.9668,5.6592,7.5672,8.1125,13.1554,6.1115,8.0512-2.8831,10.7714-11.7208,15.9888-17.6451l-2.7965-.36c5.2827,7.3638,3.0846,16.7827,11.7368,21.7278,3.5415,2.024,4.4455,4.04,5.864,7.6916a16.08,16.08,0,0,0,2.8533,4.7186c3.0255,3.4922,7.3424,5.7,11.7,7.04,7.9563,2.4474,18.2367,2.2758,21.0254-7.21,1.3729-4.67.3937-9.4951.5776-14.2516.1194-3.0867.5652-7.0652,3.0634-9.2417,2.1784-1.8979,5.7636-1.7993,8.3552-3.0275,2.07-.9808.2646-4.052-1.7973-3.0749-3.7024,1.7546-7.4118,1.317-10.1529,4.7979-2.3,2.9213-2.9111,6.9329-3.03,10.5462-.1541,4.7014,1.0712,9.8337-.857,14.3083-2.7926,6.4806-10.6787,5.43-16.2382,3.7195-5.0707-1.56-10.4235-4.6217-12.3172-9.8938-1.3251-3.6892-1.1817-6.473-5.0443-8.385-2.7537-1.3631-4.9677-1.7647-6.5333-4.59a26.0552,26.0552,0,0,1-2.0536-6.24c-.9421-3.6886-1.8277-7.2964-4.078-10.4332a1.8035,1.8035,0,0,0-2.7965-.36c-4.7869,5.4354-7.9688,15.5042-15.7694,17.1517-10.4523,2.2074-7.8907-12.8366-8.5565-18.7382-1.1641-10.3184-10.8114-21.0961-21.9651-20.0546-3.7968.3545-4.808,2.9235-7.0855,5.4406-5.0515,5.5829-15.8625,3.2081-22.1535,2.0944a70.1165,70.1165,0,0,1-16.8643-5.2729,62.9105,62.9105,0,0,0-20.4388-5.0407c-2.2838-.19-2.2713,3.3725,0,3.5611Z"/>
    <g>
      <polygon class="cls-13" points="28.857 135.497 89.363 132.306 110.485 100.165 152.215 94.239 156.168 123.181 170.462 118.278 189.599 127.891 188.31 183.609 172.573 199.656 87.178 190.931 76.98 164.335 28.316 172.618 28.857 135.497"/>
      <polygon class="cls-14" points="27.492 157.466 88.28 159.335 97.548 179.396 122.241 184.04 129.868 177.68 133.805 142.287 189.599 147.249 188.31 183.609 174.527 205.68 89.244 196.94 79.046 170.344 30.382 178.627 27.492 157.466"/>
      <polygon class="cls-14" points="95.801 148.944 88.454 163.205 90.964 178.99 103.148 185.343 95.801 148.944"/>
      <polygon class="cls-13" points="123.922 117.871 110.485 100.165 140 83.99 173.522 76.001 177.009 89.922 123.922 117.871"/>
      <polygon class="cls-13" points="145.155 137.803 145.245 132.861 145.585 113.997 272.588 119.533 280.73 125.815 280.55 135.764 276.6 139.525 145.155 137.803"/>
      <polygon class="cls-13" points="142.98 159.698 143.521 140.303 207.586 142.904 207.045 162.298 142.98 159.698"/>
      <polygon class="cls-13" points="142.555 179.046 144.714 159.758 208.011 167.656 205.852 186.944 142.555 179.046"/>
      <polygon class="cls-13" points="150.012 197.565 151.489 182.542 195.184 187.328 193.707 202.351 150.012 197.565"/>
      <polygon class="cls-14" points="130.164 134.66 128.007 140.303 276.6 139.525 274.522 135.186 237.337 135.051 233.195 130.375 229.885 135.024 193.024 134.889 189.599 127.891 189.599 134.877 130.164 134.66"/>
      <ellipse class="cls-14" cx="30.3252" cy="156.8065" rx="7.086" ry="21.3601" transform="translate(-10.7075 2.4556) rotate(-3.9418)"/>
    </g>
    <path class="cls-9" d="M356.0073,117.8125a1.7816,1.7816,0,0,0,0-3.5611,1.7816,1.7816,0,0,0,0,3.5611Z"/>
    <path class="cls-9" d="M302.1935,144.3666a1.7816,1.7816,0,0,0,0-3.5611,1.7816,1.7816,0,0,0,0,3.5611Z"/>
    <path class="cls-9" d="M317.4983,136.9727a1.7816,1.7816,0,0,0,0-3.5611,1.7816,1.7816,0,0,0,0,3.5611Z"/>
    <path class="cls-9" d="M379.9521,164.6608a1.7816,1.7816,0,0,0,0-3.5611,1.7816,1.7816,0,0,0,0,3.5611Z"/>
    <path class="cls-9" d="M281.964,115.2842a1.7816,1.7816,0,0,0,0-3.5611,1.7816,1.7816,0,0,0,0,3.5611Z"/>
    <path class="cls-9" d="M289.007,131.3494a1.7816,1.7816,0,0,0,0-3.5611,1.7816,1.7816,0,0,0,0,3.5611Z"/>
    <path class="cls-9" d="M305.4025,115.7779a1.7816,1.7816,0,0,0,0-3.5611,1.7816,1.7816,0,0,0,0,3.5611Z"/>
    <path class="cls-9" d="M333.7905,85.7708a1.7816,1.7816,0,0,0,0-3.5611,1.7816,1.7816,0,0,0,0,3.5611Z"/>
    <path class="cls-9" d="M272.588,119.5331l-28.7654-1.2542a10.4559,10.4559,0,0,1-8.2528,3.8225,34.1588,34.1588,0,0,1-5.7927-.7969,5.4,5.4,0,0,1-1.2075,6.2167c-.0561.0544-.1185.1143-.1771.172a8.3189,8.3189,0,0,1,2.9946,2.0467,10.0283,10.0283,0,0,1,2.2509,7.3122c-.0089.2553-.01.6082-.0194.9878.1118,0,.2231.0056.3349.0033a4.86,4.86,0,0,1,3.1144.9646l39.5322.5172,3.95-3.7616.18-9.9482Z"/>
    <path class="cls-15" d="M233.1951,130.3748l-.6842.9612a11.2737,11.2737,0,0,1,1.1271,5.7161c-.0089.2553-.01.6082-.0194.9878.1118,0,.2231.0056.3349.0033a4.8234,4.8234,0,0,1,3.8836,1.6849l38.763-.2031-2.0783-4.3387-37.1844-.1354Z"/>
    <polygon class="cls-14" points="176.162 90.368 146.815 104.722 147.407 107.914 151.961 107.914 176.162 90.368"/>
  </g>
</svg>
