<svg xmlns="http://www.w3.org/2000/svg" viewBox="0 0 801.91 315.23"><defs><style>.cls-1{fill:#ffeeb8;}.cls-2{fill:#e56a6a;}.cls-3{fill:#468f99;}.cls-4,.cls-5{fill:none;stroke-miterlimit:10;stroke-width:6px;}.cls-4{stroke:#468f99;}.cls-5{stroke:#c24a4a;}.cls-6{fill:#c24a4a;}.cls-7{font-size:31.67px;}.cls-7,.cls-8,.cls-9{fill:#fff;font-family:Arvo-Bold, Arvo;font-weight:700;}.cls-8{font-size:18.95px;}.cls-9{font-size:21.39px;}.cls-10{fill:#69bec4;}.cls-11{fill:#f47f5b;}</style></defs><title>weitersagen_telefon</title><g id="Bcakground"><path class="cls-1" d="M138.91,289.5c-47.15,1.75-67.58-16-67.58-16s-81.71-60-24.44-90.2S143.26,152.61,215,168.76c94.48,117.39,443.38,47.77,525.94,81s-67.31,45-118.52,45.83c-24.81.42-128-1.42-233.09-3.22C277.41,290.48,163.22,288.6,138.91,289.5Z"/></g><g id="Ebene_8" data-name="Ebene 8"><ellipse class="cls-2" cx="578.26" cy="288.63" rx="45.33" ry="2"/><ellipse class="cls-3" cx="70" cy="284.9" rx="28.55" ry="1.5"/><polyline class="cls-4" points="453.95 242.81 460.61 263.31 481.11 268.01 511.24 256.31 521.06 237.69 519.78 220.77 499.78 220.77 497.78 233.44 525.91 247.44 543.78 248.11 574.38 251.8 577.61 275.45 577.61 288.7"/><polyline class="cls-5" points="169.95 194.03 177.12 223.36 173.53 246.7 154.62 251.36 121.28 251.36 93.28 247.36 79.28 251.36 67.95 278.31 67.95 285.81"/><polygon class="cls-6" points="206.3 85.74 197.69 114.27 180.48 106.57 173.84 94.62 167.28 94.7 163.62 135.88 170.95 166.54 180.62 174.21 191.99 155.18 203.28 152.7 214.62 166.3 219.75 194.03 213.28 214.21 196.62 210.88 183.28 200.88 162.3 200.67 136.28 135.21 150.28 71.21 175.69 68.79 183.41 51.28 199.54 56.9 206.3 85.74"/><polygon class="cls-3" points="411.18 208.59 431.58 186.87 443.58 201.43 444.2 215.08 450.11 217.93 471.71 182.68 478.79 151.95 473.54 140.78 454.89 152.77 443.67 149.97 439.57 132.75 447.3 105.62 462.07 90.43 475.52 100.83 483.01 115.71 501.71 125.23 495.9 195.43 454.89 246.52 431.07 237.39 416.36 249.64 404.41 237.43 411.18 208.59"/><ellipse class="cls-2" cx="444.2" cy="286.73" rx="57.43" ry="1.28"/><ellipse class="cls-3" cx="180.57" cy="286.74" rx="51.51" ry="1.96"/><polygon class="cls-6" points="223.17 81.6 257.45 66.12 242.34 55.91 252.71 17.78 260.23 13.26 358.56 48.21 362.26 68.11 318.23 114.18 264.58 76.53 223.17 81.6"/><polygon class="cls-3" points="431.37 132.74 408 130.96 413.03 125.94 401.73 96.6 395.56 93.68 328.69 125.34 327.49 139.66 360.11 172.8 400.96 138.12 431.37 132.74"/><text class="cls-7" transform="matrix(0.89, 0.45, -0.45, 0.9, 257.06, 48.57)">Jesus</text><polygon class="cls-6" points="238.51 184.41 255.22 162.52 262.45 158.21 380.93 205.57 398.32 229.61 359.73 262.77 238.51 184.41"/><text class="cls-8" transform="matrix(0.89, 0.45, -0.45, 0.89, 255.9, 179.3)">weitersagen!</text><text class="cls-9" transform="matrix(0.83, -0.56, 0.56, 0.83, 353.12, 154.35)">Was ?</text><polygon class="cls-6" points="255.86 167.51 249.7 143.1 234.63 143.1 226.79 112.35 230.1 145.51 242.98 147.32 245.85 174.79 255.86 167.51"/><polyline class="cls-2" points="203.28 152.7 197.03 157.11 195.03 172.8 202.03 201.36 213.28 214.21 219.75 194.03 214.62 166.3 203.28 152.7"/><polygon class="cls-2" points="197.69 114.27 186.61 109.31 182.03 85.86 179.53 68.11 183.41 51.28 199.54 56.9 206.3 85.74 197.69 114.27"/><polygon class="cls-2" points="150.28 71.21 147.14 85.58 158.03 79.61 168.53 78.4 175.69 68.79 150.28 71.21"/><polygon class="cls-2" points="153.28 102.86 148.28 132.74 161.41 169.61 164.78 171.86 168.03 168.11 161.41 133.86 164.03 105.11 159.28 100.36 158.16 94.86 153.28 102.86"/><polygon class="cls-2" points="168.03 176.36 168.03 181.61 177.12 185.61 178.02 183.45 168.03 176.36"/><polygon class="cls-2" points="192.32 157.51 187.77 165.38 191.99 168.42 194.44 159.41 192.32 157.51"/><ellipse class="cls-6" cx="201.16" cy="166.64" rx="1.63" ry="3.23"/><ellipse class="cls-6" cx="206.56" cy="162.71" rx="1.62" ry="3.23" transform="translate(-45.11 86.52) rotate(-21.39)"/><ellipse class="cls-6" cx="206.14" cy="177.73" rx="1.63" ry="3.23" transform="translate(-36.15 53.72) rotate(-13.66)"/><ellipse class="cls-6" cx="211.69" cy="174.79" rx="1.62" ry="3.23" transform="translate(-35.3 54.95) rotate(-13.66)"/><ellipse class="cls-6" cx="200.72" cy="182.46" rx="1.63" ry="3.23"/><ellipse class="cls-6" cx="206.56" cy="192.87" rx="1.63" ry="3.23" transform="translate(-32.51 42.16) rotate(-10.81)"/><ellipse class="cls-6" cx="210.51" cy="202.78" rx="1.63" ry="3.23" transform="translate(-41.94 55.46) rotate(-13.66)"/><ellipse class="cls-6" cx="213.95" cy="191.27" rx="1.63" ry="3.23"/><ellipse class="cls-6" cx="187.59" cy="66.02" rx="3.23" ry="1.62" transform="translate(104.68 246.79) rotate(-84.75)"/><ellipse class="cls-6" cx="193.33" cy="62.61" rx="1.62" ry="3.23" transform="translate(-9.78 56.2) rotate(-16.14)"/><ellipse class="cls-6" cx="191.54" cy="77.53" rx="1.62" ry="3.23" transform="translate(-9.28 28.86) rotate(-8.41)"/><ellipse class="cls-6" cx="197.34" cy="75.11" rx="1.62" ry="3.23" transform="translate(-8.87 29.68) rotate(-8.41)"/><ellipse class="cls-6" cx="185.71" cy="81.75" rx="3.23" ry="1.63" transform="translate(87.32 259.2) rotate(-84.75)"/><ellipse class="cls-6" cx="190.57" cy="92.64" rx="1.63" ry="3.23" transform="translate(-8.08 18.9) rotate(-5.56)"/><ellipse class="cls-6" cx="193.6" cy="102.87" rx="1.62" ry="3.23" transform="translate(-12.97 29.43) rotate(-8.41)"/><ellipse class="cls-6" cx="198.08" cy="91.72" rx="3.23" ry="1.62" transform="translate(88.62 280.58) rotate(-84.75)"/><polygon class="cls-10" points="462.07 90.43 469.03 111.36 464.05 134.86 478.75 124.67 485.8 123.36 497.28 128.11 501.71 125.23 483.01 115.71 475.52 100.83 462.07 90.43"/><polygon class="cls-10" points="431.58 186.87 434.78 210.49 427.53 224.11 436.28 219.37 444.2 215.08 443.58 201.43 431.58 186.87"/><polygon class="cls-10" points="447.78 224.11 450.11 217.93 444.2 215.08 436.28 219.37 447.78 224.11"/><polygon class="cls-10" points="451.53 224.11 481.89 186.87 471.71 182.68 450.11 217.93 447.78 224.11 451.53 224.11"/><ellipse class="cls-10" cx="453.06" cy="106.96" rx="3.37" ry="1.5" transform="matrix(0.29, -0.96, 0.96, 0.29, 219.43, 509.6)"/><ellipse class="cls-10" cx="449.03" cy="121.37" rx="3.37" ry="1.5" transform="translate(202.78 515.99) rotate(-73.16)"/><ellipse class="cls-10" cx="460.59" cy="114.43" rx="3.37" ry="1.5" transform="translate(217.63 522.12) rotate(-73.16)"/><ellipse class="cls-10" cx="455.01" cy="132.61" rx="3.37" ry="1.5" transform="translate(196.26 529.69) rotate(-73.16)"/><ellipse class="cls-10" cx="446.7" cy="138.12" rx="3.37" ry="1.5" transform="translate(185.08 525.65) rotate(-73.16)"/><ellipse class="cls-10" cx="422.32" cy="201.35" rx="3.37" ry="1.5" transform="matrix(0.49, -0.87, 0.87, 0.49, 39.04, 469.66)"/><ellipse class="cls-10" cx="415.23" cy="214.53" rx="3.37" ry="1.5" transform="translate(23.97 470.18) rotate(-60.48)"/><ellipse class="cls-10" cx="428.03" cy="210.29" rx="3.37" ry="1.5" transform="translate(34.15 479.17) rotate(-60.48)"/><ellipse class="cls-10" cx="418.6" cy="226.8" rx="3.37" ry="1.5" transform="translate(15 479.33) rotate(-60.48)"/><ellipse class="cls-10" cx="409.28" cy="230.36" rx="3.37" ry="1.5" transform="translate(7.18 473.03) rotate(-60.48)"/><polygon class="cls-10" points="395.56 93.68 332.39 125.18 330.81 136.23 327.49 139.66 328.69 125.34 395.56 93.68"/><polygon class="cls-10" points="361.52 169.38 360.11 172.8 327.49 139.66 330.81 136.23 361.52 169.38"/><polygon class="cls-11" points="258.53 14.28 353.12 49.28 356.35 68.22 316.63 113.06 318.23 114.18 362.26 68.11 358.56 48.21 260.23 13.26 258.53 14.28"/><polygon class="cls-11" points="231.38 144.7 244.15 146.13 249.7 143.1 234.63 143.1 231.38 144.7"/><polygon class="cls-11" points="262.45 158.21 378.31 206.25 391.79 228.92 398.32 229.61 380.93 205.57 262.45 158.21"/><polygon class="cls-11" points="199.53 59.11 185.71 55.11 180.12 71.56 186.61 109.31 177.12 71.11 183.41 51.28 199.54 56.9 199.53 59.11"/><polygon class="cls-11" points="150.78 135.36 161.41 133.86 164.78 164.61 161.41 164.61 150.78 135.36"/><polygon class="cls-11" points="205.45 155.3 199.54 158.21 198.08 169.86 195.03 174.79 197.03 157.11 203.28 152.7 205.45 155.3"/><polygon class="cls-2" points="78.11 249.86 79.28 251.36 93.28 247.36 93.28 244.53 78.11 249.86"/><polygon class="cls-2" points="121.28 251.36 121.28 248.7 152.62 248.7 154.62 251.36 121.28 251.36"/><polygon class="cls-10" points="499.03 218.4 499.78 220.77 519.78 220.77 523.45 218.4 499.03 218.4"/><polygon class="cls-10" points="525.91 247.44 543.78 248.11 574.38 251.8 576.9 249.62 543.6 245.21 525.91 244.18 525.91 247.44"/></g></svg>