<svg xmlns="http://www.w3.org/2000/svg" width="801.9145" height="315.2324" viewBox="0 0 801.9145 315.2324">
  <defs>
    <style>
      .cls-1 {
        isolation: isolate;
      }

      .cls-2 {
        fill: #ffeeb8;
      }

      .cls-10, .cls-13, .cls-3 {
        fill: #c24a4a;
      }

      .cls-4 {
        fill: #e56a6a;
      }

      .cls-5 {
        fill: #f47f5b;
      }

      .cls-6, .cls-8 {
        fill: #468f99;
      }

      .cls-7 {
        fill: #69bec4;
      }

      .cls-8 {
        mix-blend-mode: multiply;
      }

      .cls-9 {
        fill: #f7931e;
      }

      .cls-10 {
        font-size: 10.2693px;
      }

      .cls-10, .cls-12, .cls-13 {
        font-family: Arvo-Bold, Arvo;
        font-weight: 700;
      }

      .cls-11 {
        letter-spacing: -0.0731em;
      }

      .cls-12 {
        font-size: 17.8436px;
        fill: #fff;
      }

      .cls-13 {
        font-size: 21.7178px;
      }

      .cls-14 {
        letter-spacing: -0.0201em;
      }

      .cls-15 {
        letter-spacing: 0.0001em;
      }

      .cls-16 {
        fill: #7d4e24;
      }

      .cls-17 {
        opacity: 0.39;
      }

      .cls-18 {
        opacity: 0.51;
      }
    </style>
  </defs>
  <title>zeit_schenken</title>
  <g class="cls-1">
    <g id="Bcakground">
      <path class="cls-2" d="M138.8083,299.727c-47.15,1.75-67.5821-15.9609-67.5821-15.9609s-81.7089-60.0289-24.4356-90.1936,96.3713-30.735,168.1164-14.5844c94.482,117.3894,443.3791,47.7671,525.9415,81.0459S673.54,304.988,622.3239,305.8558c-24.8067.42-127.9528-1.4149-233.0887-3.22C277.3059,300.7133,163.1213,298.8247,138.8083,299.727Z"/>
    </g>
    <g id="asdsa">
      <ellipse class="cls-3" cx="488.4147" cy="299.9779" rx="129.1453" ry="5.1556"/>
      <ellipse class="cls-3" cx="283.3578" cy="284.8205" rx="47.6665" ry="1.9029"/>
    </g>
    <g id="Ebene_8" data-name="Ebene 8">
      <polygon class="cls-3" points="522.027 33.395 313.523 163.976 309.774 169.321 312.997 199.984 319.033 203.77 514.046 289.282 519.287 289.56 681.662 118.466 682.139 109.482 684.219 94.949 678.11 92.546 530.419 33.841 522.027 33.395"/>
      <polygon class="cls-4" points="318.416 165.169 503.779 249.136 511.448 249.136 675.034 97.738 672.454 89.658 530.023 34.377 523.448 34.377 321.724 158.373 318.416 165.169"/>
      <polygon class="cls-5" points="325.783 158.373 322.2 162.897 502.091 246.367 507.955 246.367 511.865 244.412 325.783 158.373"/>
      <polygon class="cls-6" points="351.195 152.797 515.779 226.752 524.917 226.752 657.252 96.566 655.158 92.2 525.819 46.589 522.561 46.589 351.195 152.797"/>
      <polygon class="cls-7" points="351.195 153.775 515.779 227.729 524.917 227.729 657.252 97.543 655.158 93.177 525.819 47.567 522.561 47.567 351.195 153.775"/>
      <polygon class="cls-3" points="573.059 55.06 569.801 57.666 602.706 70.046 604.335 67.114 573.059 55.06"/>
      <ellipse class="cls-3" cx="417.0321" cy="194.1727" rx="8.6913" ry="4.724"/>
      <polygon class="cls-4" points="528.751 265.195 527.122 260.634 559.054 228.31 564.263 228.31 564.263 233.268 532.987 265.195 528.751 265.195"/>
      <path class="cls-5" d="M572.4667,220.5742a1.6131,1.6131,0,0,0,0-3.2242,1.6131,1.6131,0,0,0,0,3.2242Z"/>
      <polygon class="cls-5" points="530.869 261.123 529.24 261.123 559.054 228.31 563.448 229.195 530.869 261.123"/>
      <polygon class="cls-4" points="648.783 141.756 648.072 139.782 662.006 125.788 664.278 125.788 664.278 127.934 650.631 141.756 648.783 141.756"/>
      <polygon class="cls-5" points="649.707 139.993 648.996 139.993 662.006 125.788 663.923 126.171 649.707 139.993"/>
      <polygon class="cls-6" points="444.118 102.858 427.176 116.093 530.452 157.265 528.497 162.478 539.423 160.197 547.719 162.478 566.274 140.946 450.959 102.858 444.118 102.858"/>
      <polygon class="cls-6" points="500.636 67.914 483.695 81.149 586.971 122.321 585.016 127.534 595.941 125.253 604.238 127.534 622.792 106.002 507.478 67.914 500.636 67.914"/>
      <polygon class="cls-8" points="345.164 145.881 326.162 165.744 337.64 168.491 330.03 175.02 345.404 170.35 489.851 217.666 518.273 176.072 353.821 144.623 345.164 145.881"/>
      <g>
        <polygon class="cls-9" points="595.512 122.618 520.087 81.962 507.829 82.532 513.771 78.557 509.232 76.111 509.092 73.137 528.412 56.664 531.017 55.06 619.006 102.488 619.067 105.412 600.025 121.367 595.512 122.618"/>
        <polygon class="cls-2" points="595.294 121.199 519.87 80.543 507.612 81.113 513.554 77.138 509.015 74.692 508.875 71.718 528.195 55.245 530.8 53.641 618.789 101.069 618.85 103.994 599.808 119.948 595.294 121.199"/>
        <text class="cls-10" transform="matrix(0.8733, 0.4869, -0.487, 0.8734, 525.6678, 71.0562)">He<tspan class="cls-11" x="15.4236" y="0">y</tspan><tspan x="20.8949" y="0">, wie gehts?</tspan></text>
      </g>
      <g>
        <polygon class="cls-5" points="378.758 71.323 490.276 109.054 498.217 119.717 500.642 112.562 508.091 115.082 511.292 112.922 521.639 82.394 520.447 78.626 398.119 27.111 378.758 71.323"/>
        <polygon class="cls-3" points="398.119 27.111 377.932 63.437 382.695 69.27 492.204 107.548 495.059 115.535 497.852 108.788 505.79 110.461 507.509 109.844 518.652 82.426 518.888 77.969 398.119 27.111"/>
        <text class="cls-12" transform="matrix(0.9288, 0.3657, -0.3658, 0.9307, 395.8016, 55.0293)">5^/*ç@:(“*#:/</text>
      </g>
      <polygon class="cls-3" points="386.776 23.132 378.758 5.214 391.267 20.852 386.776 23.132"/>
      <polygon class="cls-3" points="374.652 30.291 356.408 27.111 372.372 34.377 374.652 30.291"/>
      <polygon class="cls-3" points="345.983 44.635 367.159 46.589 365.53 50.825 345.983 44.635"/>
      <polygon class="cls-3" points="428.034 27.111 433.62 11.078 433.62 30.291 428.034 27.111"/>
      <polygon class="cls-3" points="471.412 47.73 485.421 37.467 475.322 50.825 471.412 47.73"/>
      <polygon class="cls-3" points="523.448 109.793 537.548 115.535 521.639 112.664 523.448 109.793"/>
      <polygon class="cls-3" points="475.279 110.891 468.154 110.891 468.154 129.992 475.279 110.891"/>
      <polygon class="cls-3" points="428.034 97.724 422.218 115.535 433.62 101.712 428.034 97.724"/>
      <polygon class="cls-3" points="405.928 88.839 400.957 99.693 409.279 89.919 405.928 88.839"/>
      <polygon class="cls-2" points="401.209 140.598 212.642 141.669 194.038 154.115 193.025 143.549 178.93 144.899 174.326 141.005 166.376 80.118 170.141 75.258 388.206 51.954 395.83 54.723 403.431 134.05 401.209 140.598"/>
      <polygon class="cls-9" points="166.376 80.118 384.053 56.652 389.072 60.221 401.209 140.598 403.431 134.05 395.83 54.723 388.206 51.954 170.141 75.258 166.376 80.118"/>
      <text class="cls-13" transform="matrix(0.6981, -0.0416, 0.0845, 0.9964, 185.2777, 116.2333)">Warte, ich komme vorbe<tspan class="cls-14" x="277.2731" y="0">i</tspan><tspan class="cls-15" x="285.215" y="0">!</tspan></text>
      <polygon class="cls-5" points="179.675 64.419 160.764 61.265 158.863 55 162.636 52.429 166.368 53.574 167.797 45.414 171.823 42.67 175.718 43.514 179.675 64.419"/>
      <polygon class="cls-5" points="211.182 61.413 205.601 57.005 206.105 54.629 207.793 54.468 208.801 55.507 210.728 53.11 212.528 52.938 213.643 53.909 211.182 61.413"/>
      <polygon class="cls-5" points="155.887 131.834 148.877 133.04 147.447 131.076 148.455 129.713 149.902 129.658 149.407 126.623 150.482 125.169 151.949 124.988 155.887 131.834"/>
      <polygon class="cls-5" points="80.332 132.904 73.322 134.11 71.892 132.147 72.9 130.784 74.347 130.729 73.852 127.693 74.927 126.239 76.394 126.059 80.332 132.904"/>
      <polygon class="cls-5" points="113.209 166.258 106.446 164.055 106.097 161.651 107.624 160.916 108.929 161.542 109.907 158.626 111.537 157.841 112.918 158.366 113.209 166.258"/>
      <polygon class="cls-5" points="256.471 49.506 246.827 37.743 248.969 33.01 252.569 33.446 254.199 36.079 259.322 31.953 263.163 32.418 265.048 34.957 256.471 49.506"/>
      <polygon class="cls-5" points="159.782 95.762 143.929 99.767 140.306 95.518 142.377 92.216 145.683 91.834 144.015 84.962 146.225 81.438 149.556 80.765 159.782 95.762"/>
      <polygon class="cls-5" points="280.264 155.688 301.484 145.629 307.774 150.607 305.777 155.838 301.225 157.297 305.49 166.514 303.359 172.095 298.853 173.971 280.264 155.688"/>
      <polygon class="cls-9" points="412.211 133.698 421.211 119.509 427.003 120.206 427.837 124.18 425.632 126.793 431.852 130.864 432.742 135.105 430.729 137.958 412.211 133.698"/>
      <polygon class="cls-16" points="365.471 200.849 365.207 204.653 424.336 231.931 427.273 229.957 365.471 200.849"/>
    </g>
  </g>
</svg>
