<svg xmlns="http://www.w3.org/2000/svg" viewBox="0 0 801.91 360.3"><defs><style>.cls-1{fill:#ffeeb8;}.cls-2{fill:#468f99;}.cls-3{fill:#69bec4;}.cls-4{fill:#f7931e;}.cls-12,.cls-13,.cls-5{fill:none;stroke-miterlimit:10;}.cls-5{stroke:#f4ca98;stroke-width:4.86px;}.cls-6{fill:#f4ca98;}.cls-7{fill:#e56a6a;}.cls-8{fill:#c24a4a;}.cls-9{fill:#7d4e24;}.cls-10{fill:#575756;}.cls-11{fill:#f6f6f6;}.cls-12,.cls-13{stroke:#69bec4;stroke-linecap:round;stroke-width:3.49px;}.cls-13{stroke-dasharray:13.12 13.12;}.cls-14{fill:#f47f5b;}.cls-15{fill:#e8d6bc;}</style></defs><title>familie unterstuetzung</title><g id="Bcakground"><path class="cls-1" d="M80.62,335.28a34.56,34.56,0,0,1-32.53-16s-39.33-60-11.76-90.2,46.38-30.73,80.91-14.58c45.48,117.39,213.41,47.76,253.14,81s-32.39,45-57,45.83c-11.94.42-61.59-1.42-112.19-3.22C147.28,336.26,92.32,334.37,80.62,335.28Z"/></g><g id="overlay"><polygon class="cls-2" points="226.55 124.29 250.58 134.92 298.25 162.99 307.49 171.43 291.93 195.77 243.19 193.24 216.8 134.92 226.55 124.29"/><polygon class="cls-3" points="226.55 124.29 250.58 134.92 298.25 162.99 307.49 171.43 293.27 167.4 271.36 170.86 224.52 136.93 226.55 124.29"/></g><g id="Ebene_8" data-name="Ebene 8"><ellipse class="cls-4" cx="258.93" cy="323.72" rx="66.35" ry="3.35"/><polyline class="cls-5" points="275.97 198.66 275.87 231.3 270.73 278.55"/><polygon class="cls-6" points="254.99 169.52 278.68 164.65 288.71 162.99 285.7 116.96 247.62 119.44 252.35 165.77 254.99 169.52"/><rect class="cls-6" x="243.63" y="166.23" width="24.66" height="10.23" transform="translate(-23.34 301.22) rotate(-58.74)"/><polygon class="cls-7" points="226.03 251.27 253.9 249.17 273.46 251.27 273.46 183.92 260.37 174.19 254.86 178.39 248.15 174.35 249.92 171.43 243.58 175.25 226.03 187.57 226.03 251.27"/><polygon class="cls-8" points="231.9 251.53 226.03 251.27 225.22 212.04 218.02 195.77 229.46 195.77 232.51 220.94 231.9 251.53"/><polyline class="cls-5" points="221.06 208.56 219.24 228.96 224.55 257.14"/><polyline class="cls-5" points="240.08 268.92 241.91 294.19 238.26 319.08"/><polyline class="cls-5" points="262.51 268.92 260.79 290.14 263.13 319.08"/><polygon class="cls-4" points="260.77 165.69 278.68 164.65 288.71 162.99 288.99 165.5 254.99 169.52 253.49 167.39 260.77 165.69"/><polygon class="cls-4" points="286.13 123.41 264.42 125.54 258.25 135.29 249.69 139.71 247.62 119.44 285.35 113.06 286.13 123.41"/><path class="cls-4" d="M280.12,144.32a2,2,0,1,0,2.22-1.68A2,2,0,0,0,280.12,144.32Z"/><polygon class="cls-4" points="251.59 168.69 255.86 177.63 263.13 169.4 254.38 164.09 251.59 168.69"/><path class="cls-4" d="M273.51,155.51c0,.28,3,.5,6.6.49s6.58-.24,6.57-.52-3-.51-6.59-.5S273.51,155.22,273.51,155.51Z"/><path class="cls-4" d="M268.53,153.05c-.07.18,1,1,2.44,1.88s2.62,1.4,2.69,1.22-1-1-2.45-1.87S268.59,152.87,268.53,153.05Z"/><polygon class="cls-7" points="279.55 201.28 272.94 201.28 273.46 184.04 279.55 190.41 279.55 201.28"/><polygon class="cls-7" points="229.46 214.66 212.67 214.66 212.67 194.06 226.03 187.57 229.46 194.06 229.46 214.66"/><polygon class="cls-4" points="259.76 129.05 259.54 161.08 260.77 165.69 255.56 170.24 253.22 170 249.24 135.35 259.76 129.05"/><polygon class="cls-9" points="248.12 151.85 243.07 120.85 239.94 113.57 244.54 106.42 287.56 97.06 289.3 120.93 276.51 121.79 272.49 116.06 271.82 121.92 263.43 122.93 252.69 130.75 251.2 149.61 248.12 151.85"/><rect class="cls-4" x="271.69" y="128.15" width="6.87" height="1.67" transform="translate(-28.73 131.15) rotate(-25.53)"/><rect class="cls-9" x="271.43" y="126.79" width="6.87" height="1.67" transform="translate(-28.17 130.91) rotate(-25.53)"/><polygon class="cls-4" points="243.85 147.26 249.88 140.57 247.03 134.14 239.98 134.05 243.85 147.26"/><ellipse class="cls-9" cx="275.8" cy="134.15" rx="2.1" ry="1.74" transform="translate(-12.16 28.59) rotate(-5.81)"/><ellipse class="cls-9" cx="282.8" cy="134.05" rx="1.74" ry="2.1" transform="translate(36.98 327.74) rotate(-63.6)"/><polygon class="cls-8" points="241.26 180.62 247.62 187.57 254.86 178.39 246.69 173.67 241.26 180.62"/><polygon class="cls-8" points="212.67 194.06 219.88 193.24 220.62 214.66 212.67 214.66 212.67 194.06"/><polygon class="cls-10" points="229.46 246.31 226.03 281.33 238.92 281.33 251.59 281.33 253.49 274.44 254.86 281.33 270.73 281.33 270.8 248.62 238.92 248.69 229.46 246.31"/><polygon class="cls-9" points="243.72 317.57 243 322.19 241.91 322.32 240.97 321.45 240.09 322.38 219.66 323.1 221.31 320.13 234.44 315.92 236.26 315.92 236.44 317.57 238.26 319.08 241.13 316.82 243.72 317.57"/><polygon class="cls-9" points="259.49 317.57 258.71 322.19 259.37 322.32 259.94 321.45 260.47 322.38 267.73 324.42 274.64 324.98 273.01 320.13 266.33 315.92 265.23 315.92 265.12 317.57 263.13 318.23 261.05 316.82 259.49 317.57"/><polygon class="cls-4" points="286.98 130.82 280.33 128.57 280.91 127 287.56 129.24 286.98 130.82"/><polygon class="cls-9" points="287.45 129.52 280.81 127.27 281.38 125.69 288.03 127.94 287.45 129.52"/><ellipse class="cls-4" cx="164.3" cy="329.72" rx="76.62" ry="4.53"/><polygon class="cls-9" points="133.51 299.87 145.14 320.03 140.88 323.13 139.32 329.72 192.05 329.72 192.05 325.85 231.21 328.17 231.21 323.13 227.33 322.36 233.53 301.81 133.51 299.87"/><polygon class="cls-2" points="118.78 302.97 86.99 263.43 94.74 201.24 145.94 115.95 200.97 112.23 226.55 124.29 238.26 171.34 240.92 226.89 239.94 244.98 243.72 289.31 238.26 305.64 118.78 302.97"/><polygon class="cls-3" points="211.92 118.32 238.32 129.49 250.84 156 216.64 154.71 216.8 129.07 211.92 118.32"/><polygon class="cls-4" points="199.42 115.95 178.09 152.94 175.38 166.12 162.59 169.61 133.51 169.61 131.57 164.96 143.22 134.92 155.63 115.95 194.38 112.63 199.42 115.95"/><polygon class="cls-6" points="160.52 120.55 144.45 142.79 138.31 159.22 148.1 164.47 161.68 160.65 167.86 153 169.94 145.75 170.36 141.09 165.83 136.23 161.52 127.98 160.52 120.55"/><polygon class="cls-11" points="144.32 169.61 168.09 192.66 173.54 175.78 199.42 115.95 165.49 164.6 144.32 169.61"/><polygon class="cls-11" points="138.16 170.86 120.61 184.54 129.39 158.67 143.22 134.92 131.57 164.96 138.16 170.86"/><line class="cls-12" x1="139.81" y1="174.11" x2="138.69" y2="180.99"/><polyline class="cls-13" points="136.57 193.95 136.22 196.07 133.51 221.36 136.22 260.62 136.66 284.26 141.2 290.65"/><polyline class="cls-12" points="144.99 296.01 146.5 298.13 149.7 301.12"/><polygon class="cls-4" points="90.46 235.55 99.97 246.82 105.79 264.29 105.79 286.82 89.22 286.09 78.75 259.07 77.3 227.47 86.99 215.17 93.51 211.14 90.46 235.55"/><path class="cls-4" d="M288.92,172.68c-6.05.87-12,.87-18.07,1.67-1.94.25,2.17,15.86,2.17,15.86l-16.28,25.3,7.43,13.09,6.37,4.55,8.44,2.54,12-9.22,12.88-46.19-3-9A119.6,119.6,0,0,0,288.92,172.68Z"/><polygon class="cls-6" points="280.1 179.44 279.55 190.41 266 212.39 264.59 225 273.35 221.11 286.68 225 298.5 193.24 301 177.63 291.55 177.03 280.1 179.44"/><polygon class="cls-6" points="264.51 227.9 271.04 230.47 276.8 225.67 273.34 223.19 264.51 227.9"/><polygon class="cls-6" points="271.36 231.59 277.88 234.16 283.65 229.37 280.18 226.89 271.36 231.59"/><polygon class="cls-6" points="92.83 216.59 88.34 230.67 88.34 236.87 99.97 246.82 103.47 262.26 102.11 265.79 97.84 263.38 81.17 245.1 77.38 229.33 86.99 215.17 91.54 214 92.83 216.59"/><polygon class="cls-6" points="87.33 258.38 89.7 265.56 98.57 272.73 100.9 271.28 100.9 266.91 87.33 258.38"/><polygon class="cls-6" points="88.5 269.71 90.42 277 99.74 284.05 102.06 282.6 102.06 278.24 88.5 269.71"/><polygon class="cls-4" points="211.32 99.96 212.86 129.52 209.48 133.4 180.93 133.4 176.63 130.69 166.5 93.47 171.72 86.49 210.4 80.83 211.32 99.96"/><polygon class="cls-8" points="226.98 75.64 224.52 72.15 203.95 75.64 191.37 58.96 171.72 61.29 166.5 65.17 161.28 89 161.28 98.12 168.27 99.96 166.5 93.47 183.28 84.96 210.4 80.83 211.18 89 226.04 86.41 229.13 79.46 226.98 75.64"/><polygon class="cls-6" points="211.18 89 212.86 139.24 205.89 142.51 196.33 142.51 180.4 129.73 174.78 99.96 193.82 90.75 211.18 89"/><polygon class="cls-4" points="167.63 105.66 162.41 102.4 163.16 111.3 169.53 111.7 167.63 105.66"/><ellipse class="cls-4" cx="197.48" cy="100.75" rx="4.87" ry="5.03"/><ellipse class="cls-4" cx="207.17" cy="99.1" rx="4.13" ry="3.99" transform="translate(107.84 306.16) rotate(-89.94)"/><ellipse class="cls-14" cx="204.31" cy="116.59" rx="2.86" ry="2.96"/><polygon class="cls-4" points="209.49 125.27 209.49 130.87 203.48 134.32 196.33 132.19 195.2 127.42 202.9 128.61 209.49 125.27"/><polygon class="cls-9" points="200.4 88.79 200.4 94.1 187.66 99.59 186.76 92.62 200.4 88.79"/><polygon class="cls-9" points="217.45 91.61 215.32 96.44 201.53 95.99 203.5 89.26 217.45 91.61"/><polygon class="cls-9" points="212.47 115.5 214.79 127.56 212.59 131.36 210.35 123.13 207.38 125.4 202.35 125.73 197.48 126.88 194.79 124.45 192.56 134.32 189.68 131.36 192.61 118.32 196.76 120.55 208.36 118.85 212.47 115.5"/><ellipse class="cls-9" cx="200.42" cy="101.97" rx="1.18" ry="1.22"/><ellipse class="cls-9" cx="208.36" cy="100.75" rx="0.98" ry="1.01"/><polygon class="cls-3" points="194.79 71.21 190.93 63.77 181.48 65.34 182.89 74.75 186.63 73.54 194.79 71.21"/><polygon class="cls-14" points="224.52 72.15 219.43 78.16 183.66 83 178.9 85.13 189.68 79.46 203.95 75.64 224.52 72.15"/><polygon class="cls-14" points="193.58 61.9 180.02 61.9 166.5 65.17 171.72 61.29 191.37 58.96 193.58 61.9"/><polygon class="cls-3" points="145.94 115.95 153.48 115.5 131.57 138.21 103.47 190.19 92.83 216.59 94.74 201.24 145.94 115.95"/><polygon class="cls-6" points="145.31 322.74 140.88 323.13 140.88 327.07 187.79 326.62 154.28 323.96 145.31 322.74"/><polygon class="cls-6" points="199.42 323.96 217.33 322.74 231.21 323.13 231.21 328.17 199.42 323.96"/><polygon class="cls-15" points="144.32 169.61 147.33 168.9 168.09 189.77 171.87 180.96 168.09 192.66 144.32 169.61"/><polygon class="cls-15" points="138.16 170.86 122.07 188.6 120.61 184.54 138.16 170.86"/><polygon class="cls-1" points="143.79 169.85 148.4 177.92 146.09 182.8 140.88 184.34 146.48 219.39 136.33 228.59 129.39 215.92 137.18 185.93 133.51 180.28 136.33 172.69 143.79 169.85"/><polygon class="cls-15" points="135.65 180.78 136.33 184.54 146.09 182.8 135.65 180.78"/><polygon class="cls-15" points="129.39 215.92 137.18 185.93 132.77 216.59 136.33 228.59 129.39 215.92"/><polygon class="cls-3" points="238.26 147.86 233.53 182.31 216.64 154.71 238.26 147.86"/></g></svg>