<svg xmlns="http://www.w3.org/2000/svg" viewBox="0 0 801.91 360.3"><defs><style>.cls-1{fill:#ffeeb8;}.cls-2{fill:#f7931e;}.cls-3{fill:#69bec4;}.cls-10,.cls-16,.cls-20,.cls-22,.cls-23,.cls-24,.cls-4{fill:none;}.cls-10,.cls-4{stroke:#f4ca98;}.cls-10,.cls-14,.cls-16,.cls-20,.cls-22,.cls-23,.cls-24,.cls-4{stroke-miterlimit:10;}.cls-4{stroke-width:4.66px;}.cls-5{fill:#f4ca98;}.cls-6{fill:#e56a6a;}.cls-7{fill:#c24a4a;}.cls-8{fill:#7d4e24;}.cls-9{fill:#575756;}.cls-10{stroke-width:7.8px;}.cls-11{fill:#e8d6bc;}.cls-12{fill:#b2b2b2;}.cls-13,.cls-14{fill:#f47f5b;}.cls-14{stroke:#f7931e;stroke-width:1.11px;}.cls-15{fill:#468f99;}.cls-16{stroke:#f47f5b;}.cls-16,.cls-20{stroke-width:1.29px;}.cls-17{fill:#706f6f;}.cls-18{fill:#d45c28;}.cls-19{fill:#9d9d9c;}.cls-20{stroke:#7d4e24;}.cls-21{fill:#f6f6f6;}.cls-22,.cls-23,.cls-24{stroke:#69bec4;stroke-linecap:round;}.cls-22,.cls-23{stroke-width:3.34px;}.cls-23{stroke-dasharray:12.58 12.58;}.cls-24{stroke-width:2.23px;stroke-dasharray:6.69;}</style></defs><title>familie</title><g id="Bcakground"><path class="cls-1" d="M128.15,338.88c-43.47,1.15-62.3-10.49-62.3-10.49s-75.33-39.47-22.53-59.31,118.4-15.87,155-9.59S231.43,268,300.44,267s53.36,11.6,128,4.59,87.26.84,133.62,12.47,140.67,14,121.11,28.73-62,29.56-109.26,30.13c-22.87.28-118-.93-214.88-2.12C255.82,339.53,150.56,338.29,128.15,338.88Z"/><path class="cls-1" d="M642.55,337.2c-1-2.19,19-6,33.55-13.93,10.76-5.86,15.73-12.6,16.3-11.35s-3.28,10.46-13.7,17.06C664.62,337.9,643.54,339.39,642.55,337.2Z"/><path class="cls-1" d="M546.56,272.06c-.29,1.45-13.07-.51-28.23-3.54s-28-4-27.68-5.45,13.56-2.83,28.73.21S546.85,270.62,546.56,272.06Z"/><path class="cls-1" d="M99,253.74c.13.76-11.67,1.45-25.94,4s-25.58,5.94-25.71,5.19,11-5.38,25.23-7.91S98.87,253,99,253.74Z"/></g><g id="Ebene_8" data-name="Ebene 8"><ellipse class="cls-2" cx="367.97" cy="325.72" rx="66.35" ry="3.35"/><polygon class="cls-3" points="106.1 251.59 106.59 255.21 107.96 255.21 108.35 251.04 106.1 251.59"/><polygon class="cls-3" points="98.71 252.12 100.43 255.12 101.76 254.71 100.71 250.96 98.71 252.12"/><polygon class="cls-3" points="113.58 255 111.94 258.26 113.07 259.04 115.75 255.82 113.58 255"/><polygon class="cls-3" points="118.39 263.44 115.18 265.18 115.66 266.45 119.69 265.35 118.39 263.44"/><polygon class="cls-3" points="119.8 271.35 116.29 270.37 115.75 271.63 119.42 273.63 119.8 271.35"/><polyline class="cls-4" points="389.53 204.95 389.43 236.24 384.51 281.53"/><polygon class="cls-5" points="369.42 177.02 392.13 172.35 401.74 170.75 398.86 126.63 362.35 129.01 366.88 173.42 369.42 177.02"/><rect class="cls-5" x="358.53" y="173.86" width="23.64" height="9.81" transform="translate(25.34 402.57) rotate(-58.74)"/><polygon class="cls-6" points="341.66 255.38 368.38 253.38 387.12 255.38 387.12 190.82 374.58 181.49 369.3 185.52 362.86 181.64 364.56 178.85 358.49 182.51 341.66 194.32 341.66 255.38"/><polygon class="cls-7" points="347.28 255.64 341.66 255.38 340.88 217.78 333.98 202.18 344.94 202.18 347.87 226.31 347.28 255.64"/><polyline class="cls-4" points="336.89 214.44 335.15 234 340.24 261.01"/><polyline class="cls-4" points="355.13 272.3 356.88 296.53 353.38 320.39"/><polyline class="cls-4" points="376.63 272.3 374.98 292.65 377.22 320.39"/><polygon class="cls-2" points="374.96 173.34 392.13 172.35 401.74 170.75 402.01 173.16 369.42 177.02 367.98 174.97 374.96 173.34"/><polygon class="cls-2" points="399.27 132.82 378.46 134.85 372.54 144.2 364.33 148.43 362.35 129.01 398.53 122.89 399.27 132.82"/><path class="cls-2" d="M393.51,152.86a2,2,0,1,0,2.13-1.62A1.89,1.89,0,0,0,393.51,152.86Z"/><polygon class="cls-2" points="366.16 176.22 370.25 184.79 377.22 176.9 368.83 171.81 366.16 176.22"/><path class="cls-2" d="M387.18,163.58c0,.27,2.83.48,6.32.48s6.3-.24,6.3-.51-2.83-.48-6.32-.47S387.17,163.31,387.18,163.58Z"/><path class="cls-2" d="M384.31,166.91c.18.19,1.27-.57,2.43-1.7s2-2.18,1.78-2.37-1.27.58-2.43,1.7S384.13,166.73,384.31,166.91Z"/><polygon class="cls-6" points="392.96 207.46 386.63 207.46 387.12 190.94 392.96 197.04 392.96 207.46"/><polygon class="cls-6" points="344.94 220.29 328.85 220.29 328.85 200.54 341.66 194.32 344.94 200.54 344.94 220.29"/><polygon class="cls-2" points="373.99 138.22 373.78 168.92 374.96 173.34 369.97 177.7 367.72 177.47 363.91 144.26 373.99 138.22"/><polygon class="cls-8" points="362.84 160.08 357.99 130.36 354.99 123.38 359.4 116.52 400.64 107.55 402.31 130.43 390.05 131.26 386.2 125.77 385.55 131.39 377.51 132.35 367.21 139.85 365.79 157.93 362.84 160.08"/><rect class="cls-2" x="384.37" y="140.48" width="6.59" height="1.61" transform="translate(-17.66 64.12) rotate(-9.25)"/><polygon class="cls-2" points="399.28 141.68 392.58 141.16 392.75 139.56 399.45 140.08 399.28 141.68"/><rect class="cls-8" x="384.51" y="139.16" width="6.59" height="1.61" transform="translate(-17.45 64.12) rotate(-9.25)"/><polygon class="cls-8" points="399.41 140.36 392.72 139.84 392.89 138.25 399.58 138.76 399.41 140.36"/><polygon class="cls-2" points="358.74 155.68 364.52 149.27 361.79 143.1 355.03 143.01 358.74 155.68"/><ellipse class="cls-8" cx="389.37" cy="143.11" rx="2.01" ry="1.67" transform="translate(-12.48 40.13) rotate(-5.81)"/><ellipse class="cls-8" cx="396.08" cy="143.01" rx="1.67" ry="2.01" transform="translate(91.85 434.18) rotate(-63.6)"/><polygon class="cls-7" points="356.26 187.66 362.35 194.32 369.3 185.52 361.47 181 356.26 187.66"/><polygon class="cls-7" points="328.85 200.54 335.76 199.76 336.47 220.29 328.85 220.29 328.85 200.54"/><polygon class="cls-9" points="344.94 250.63 341.66 284.2 354.02 284.2 366.16 284.2 367.98 277.6 369.3 284.2 384.51 284.2 384.57 252.85 354.02 252.91 344.94 250.63"/><polygon class="cls-8" points="358.61 318.94 357.92 323.37 356.88 323.49 355.98 322.66 355.13 323.56 335.55 324.25 337.13 321.39 349.72 317.36 351.46 317.36 351.63 318.94 353.38 320.39 356.13 318.23 358.61 318.94"/><polygon class="cls-8" points="373.74 318.94 372.99 323.37 373.62 323.49 374.16 322.66 374.67 323.56 381.63 325.51 388.26 326.05 386.69 321.39 380.29 317.36 379.24 317.36 379.13 318.94 377.22 319.57 375.23 318.23 373.74 318.94"/><ellipse class="cls-2" cx="160.16" cy="327.62" rx="45.49" ry="2.55"/><line class="cls-10" x1="170.56" y1="277.07" x2="172.79" y2="326.13"/><line class="cls-10" x1="193.71" y1="326.13" x2="191.48" y2="277.07"/><polygon class="cls-11" points="149.46 146.61 146.33 186.35 150.87 190.48 153.22 212.05 156.18 232.85 144.94 287.01 223.45 276.22 188.1 183.93 164.84 133.5 161.29 133.25 163.06 137.99 161.91 142.15 154.15 144.93 153.23 141.94 149.46 146.61"/><polygon class="cls-5" points="153.93 113.56 146.33 119.41 154.15 144.93 161.92 142.15 163.06 137.99 153.93 113.56"/><polygon class="cls-5" points="123.84 61.42 118.71 79.9 119.65 102.4 119.65 129.03 143.03 128.94 159.06 112 158.21 77.43 144.04 58.56 123.84 61.42"/><polygon class="cls-5" points="193.71 320.19 179.85 323.16 179.85 327.62 193.71 326.13 193.71 320.19"/><polygon class="cls-5" points="174.01 320.19 160.16 323.16 160.16 327.62 174.01 326.13 174.01 320.19"/><polygon class="cls-12" points="146.33 186.35 174 186.35 176.57 191.95 150.87 190.48 146.33 186.35"/><polygon class="cls-13" points="170.56 251.47 168.8 259.21 161.5 267 156.67 263.71 158.73 256.32 161.45 249.47 170.56 251.47"/><polygon class="cls-12" points="174.01 200.05 188.99 202.26 191.47 209.05 186.78 210.92 176.57 205.49 174.01 200.05"/><line class="cls-14" x1="184.19" y1="207.09" x2="167.08" y2="251.12"/><polygon class="cls-13" points="154.7 85.88 156.67 124.61 138.46 76.58 134.19 74.13 131.84 81.96 120 85.88 120.22 128.48 142.44 127.61 154.42 115.06 143.03 128.94 119.65 129.03 118.71 72.57 123.84 61.42 149.06 64.74 158.21 77.43 154.7 85.88"/><polygon class="cls-8" points="146.33 68.11 144.94 100.53 146.61 104.73 148.31 108.99 152.4 69.69 146.33 68.11"/><polygon class="cls-13" points="121.23 115.5 130.87 118.61 140.68 113.56 143.12 108.99 141.99 115.34 133.16 119.75 127.37 119.02 121.23 115.5"/><ellipse class="cls-13" cx="131.94" cy="90.18" rx="1.8" ry="2.86"/><ellipse class="cls-13" cx="124.25" cy="90.18" rx="1.8" ry="2.86"/><polygon class="cls-13" points="126.06 96.54 124.25 104.06 130.13 104.06 128.09 96.54 126.06 96.54"/><polygon class="cls-13" points="156.54 120.24 154.7 134.3 159.06 143.17 154.15 144.93 147.73 123.98 153.4 115.97 156.54 120.24"/><polygon class="cls-8" points="112.4 81.67 106.36 67.12 109.74 54.02 123.06 47.27 143.12 49.08 163.56 58.56 164.22 70.22 163.89 93.8 165.16 105.21 171.95 118.56 176.57 119.84 167.08 127.37 152.11 125.5 153.93 113.56 151.27 76.5 129.02 68.83 126.69 73.65 127.12 80.3 112.4 81.67"/><polygon class="cls-13" points="174.76 282.91 170.56 289.79 167.76 298.62 167.08 283.97 174.76 282.91"/><polygon class="cls-13" points="195.58 280.05 190.69 288.14 188.36 297.48 187.6 281.15 195.58 280.05"/><polygon class="cls-12" points="163.06 148.35 182.74 202.43 174.01 200.05 176.57 191.95 163.06 148.35"/><ellipse class="cls-2" cx="135.07" cy="329.95" rx="33.74" ry="2.64"/><polygon class="cls-13" points="137.14 297.25 137.44 315.89 146.91 315.89 146.91 311.71 148.68 315.89 156.71 315.89 156.72 313 157.12 297.25 137.14 297.25"/><polygon class="cls-15" points="138.08 254.83 130.69 261.9 128.12 299.18 133.1 301 157.68 301 160.56 299.18 158 267.04 147.4 254.83 139.36 257.73 138.08 254.83"/><polyline class="cls-16" points="125.55 271.54 115.66 286 110.44 277.97"/><polygon class="cls-15" points="132.14 259.78 122.71 271.76 126.9 278.82 135.07 269.31 132.14 259.78"/><polygon class="cls-17" points="99.56 264.37 108.67 277.33 114.88 278.83 116.06 277.33 107.81 262.87 99.56 262.12 99.56 264.37"/><polygon class="cls-2" points="110.44 223.71 127.42 260.88 133.11 259.83 156.96 253.15 148.18 213.92 137.05 212.09 110.44 223.71"/><line class="cls-16" x1="143.43" y1="311.99" x2="145.54" y2="327.57"/><line class="cls-16" x1="150.14" y1="311.64" x2="150.14" y2="328.05"/><polygon class="cls-7" points="132.73 329.77 146.19 329.77 148.33 328.86 147.26 324.44 145.19 325.51 143.4 324.44 134.31 327.49 132.73 329.77"/><polygon class="cls-6" points="137.21 329.95 150.67 329.95 152.8 329.04 151.74 324.62 149.67 325.69 147.88 324.62 138.79 327.67 137.21 329.95"/><polyline class="cls-16" points="158.95 276 162.3 284.18 164.11 305.11"/><polygon class="cls-13" points="161.53 304.41 160.56 308.46 164.11 311.64 167.24 309.17 167.24 303.17 161.53 304.41"/><polygon class="cls-15" points="150.14 262.87 150.14 275.08 153.82 280.22 162.5 277.92 164.11 275.08 158.97 262.87 150.14 262.87"/><polygon class="cls-15" points="116.28 236.49 107.81 236.49 101.61 220.42 119.96 208.78 130.01 208.78 125.55 205.07 137.21 207.19 137.14 202.43 140.53 208.42 150.14 209.13 154.36 215.48 155.95 221.3 152.8 220.42 154.01 223.6 155.95 235.95 152.8 239.12 145.53 226.07 143.43 226.77 145.53 236.49 142.19 236.49 138.31 228.54 117.99 235.24 116.28 236.49"/><polygon class="cls-5" points="117.99 239.12 135.07 236.49 137.95 243.53 143.43 245.3 152.8 243.53 154.72 250.94 135.07 257.71 128.12 259.06 117.99 239.12"/><polygon class="cls-3" points="148.33 260.88 152.8 263.82 158.97 262.87 164.11 275.08 162.5 277.92 154.72 267.69 144.48 262.87 143.43 260.88 148.33 260.88"/><polygon class="cls-3" points="142.37 268.59 143.43 299.11 154.72 299.82 158.95 298.41 157.12 282.53 154.25 280.55 151.39 264.59 143.43 260.88 142.37 268.59"/><polygon class="cls-18" points="156.96 303.17 143.43 305.11 142.37 315.89 137.44 315.89 137.14 301 157.68 301 156.96 303.17"/><polygon class="cls-3" points="123.39 271.54 124.84 273.78 131.37 264.83 130.69 261.9 123.39 271.54"/><polygon class="cls-19" points="100.43 264.02 99.56 262.12 107.81 262.87 116.06 277.33 114.88 278.83 106.92 264.27 100.43 264.02"/><polygon class="cls-13" points="102.14 275.93 107.9 279.88 113.41 277.52 110.53 272.54 107.81 268.07 105.41 268.07 100.43 270.57 102.14 275.93"/><polygon class="cls-7" points="122.28 237.46 124.44 240.4 132.6 238.93 131.63 235.45 122.28 237.46"/><polygon class="cls-7" points="114.98 239.81 116.18 242.8 121.21 241.53 120.76 238.03 114.98 239.81"/><polygon class="cls-20" points="114.6 244.36 117.23 253.95 121.47 253.95 123.79 251.94 121.16 245.54 119.19 242.89 114.6 244.36"/><polygon class="cls-20" points="124.51 242.09 127.14 251.68 131.38 251.68 133.7 249.67 131.07 243.28 129.11 240.62 124.51 242.09"/><polyline class="cls-20" points="131.83 245.12 145.53 230.5 148.33 231.08 150.14 234.33 150.66 240.25"/><line class="cls-20" x1="126.07" y1="247.77" x2="122.71" y2="248.42"/><polygon class="cls-2" points="125.26 248.42 120.6 250.57 119.95 250.88 122.22 253.15 124.14 255.07 126.82 253.15 125.26 248.42"/><polygon class="cls-5" points="121.83 251.74 125.17 249.96 124.85 249.13 119.95 250.88 121.83 251.74"/><ellipse class="cls-8" cx="129.92" cy="244.63" rx="0.52" ry="0.8"/><ellipse class="cls-2" cx="267.55" cy="330.59" rx="73.45" ry="4.35"/><polygon class="cls-8" points="238.03 301.98 249.18 321.3 245.09 324.27 243.6 330.59 294.15 330.59 294.15 326.88 331.69 329.11 331.69 324.27 327.97 323.53 333.92 303.83 238.03 301.98"/><polygon class="cls-15" points="223.91 304.95 193.43 267.04 200.86 207.42 243.23 125.66 302.7 122.09 327.23 133.65 368.11 192.71 368.11 244.74 359.93 250.44 351.38 296.18 343.58 309.41 223.91 304.95"/><polygon class="cls-2" points="301.21 125.66 280.77 161.12 278.17 173.75 265.9 177.1 238.03 177.1 236.17 172.64 240.63 143.84 252.52 125.66 296.38 122.47 301.21 125.66"/><polygon class="cls-2" points="253.82 108.99 252.3 137.33 255.65 141.05 283.96 141.05 288.22 138.45 298.26 102.77 293.09 96.08 254.74 90.66 253.82 108.99"/><polygon class="cls-7" points="238.3 85.67 240.74 82.33 261.13 85.67 273.61 69.69 293.09 71.92 298.26 75.64 303.44 98.49 303.44 107.23 296.51 108.99 298.26 102.77 281.63 94.61 254.74 90.66 253.96 98.49 239.22 96 236.17 89.34 238.3 85.67"/><polygon class="cls-3" points="305.67 127.77 290.06 158.88 290.06 168.67 307.9 178.18 340.79 175.04 349.15 193.83 362.53 193.83 327.23 133.65 305.67 127.77"/><polygon class="cls-5" points="253.96 98.49 252.3 146.64 259.21 149.79 268.69 149.79 284.49 137.53 290.06 108.99 271.18 100.17 253.96 98.49"/><polygon class="cls-5" points="246.95 141.05 241.75 148.46 240.74 170.75 251.28 176.42 265.9 172.3 275.28 168.67 280.29 155.71 281.25 148.3 268.69 154.44 252.99 156.75 246.95 141.05"/><polygon class="cls-2" points="297.15 114.45 302.32 111.33 301.58 119.86 295.26 120.24 297.15 114.45"/><circle class="cls-2" cx="267.55" cy="109.75" r="4.82"/><circle class="cls-2" cx="257.94" cy="108.17" r="3.96" transform="translate(-19.68 142.24) rotate(-29.75)"/><circle class="cls-13" cx="260.78" cy="124.93" r="2.84"/><polygon class="cls-21" points="248.39 177.1 271.18 199.2 276.4 183.02 301.21 125.66 268.69 172.3 248.39 177.1"/><polygon class="cls-21" points="242.49 178.3 225.66 191.41 234.08 166.62 240.63 143.84 236.17 172.64 242.49 178.3"/><line class="cls-22" x1="244.07" y1="181.41" x2="242.99" y2="188.01"/><polyline class="cls-23" points="240.96 200.43 240.63 202.46 238.03 226.72 240.63 264.35 241.05 287.01 245.4 293.14"/><polyline class="cls-22" points="249.04 298.27 250.48 300.3 253.54 303.17"/><polygon class="cls-2" points="322.11 225.58 307.34 260.01 280.86 262.1 275.28 275.92 275.28 283.78 277.79 292.08 290.55 296.18 330.27 278.83 351.38 245.19 344.8 230.88 322.11 225.58"/><polygon class="cls-2" points="196.76 240.31 205.88 251.12 211.46 267.87 211.46 289.46 195.57 288.77 185.53 262.87 184.14 232.57 193.43 220.77 199.68 216.92 196.76 240.31"/><polygon class="cls-5" points="320.11 230.24 301.21 251.74 283.29 261.9 278.07 274.1 287.27 280.05 313.33 276 326.3 267 341 248.42 341.07 237.59 320.11 230.24"/><polygon class="cls-5" points="275.96 275.78 277.46 282.57 283.86 284.32 283.86 280.05 275.96 275.78"/><polygon class="cls-5" points="276.82 283.49 278.32 290.29 284.72 292.04 284.72 287.77 276.82 283.49"/><polygon class="cls-5" points="199.03 222.14 194.73 235.63 194.73 241.58 205.88 251.12 209.22 265.92 207.92 269.3 203.84 267 187.85 249.47 184.22 234.36 193.43 220.77 197.8 219.65 199.03 222.14"/><polygon class="cls-5" points="193.76 262.2 196.03 269.08 204.54 275.95 206.77 274.57 206.77 270.38 193.76 262.2"/><polygon class="cls-5" points="194.87 273.06 196.72 280.05 205.65 286.81 207.88 285.42 207.88 281.24 194.87 273.06"/><polygon class="cls-2" points="255.64 133.25 255.64 138.62 268.69 139.89 269.81 135.31 255.64 133.25"/><polygon class="cls-8" points="264.65 98.28 264.65 103.37 277.28 108.63 278.17 101.95 264.65 98.28"/><polygon class="cls-8" points="247.88 104.43 249.99 109.06 263.66 108.63 261.7 102.17 247.88 104.43"/><polygon class="cls-8" points="253.23 126.59 248.39 136.9 252.3 137.33 255.64 133.25 262.72 133.69 269.81 135.31 272.43 141.93 275.94 141.93 272.17 129.29 253.23 126.59"/><circle class="cls-8" cx="267.03" cy="110.16" r="1.17"/><circle class="cls-8" cx="257.74" cy="108.78" r="0.97"/><polygon class="cls-3" points="270.22 81.43 274.05 74.3 283.42 75.8 282.02 84.82 278.31 83.67 270.22 81.43"/><polygon class="cls-13" points="240.74 82.33 245.79 88.09 281.25 92.73 285.97 94.78 275.28 89.34 261.13 85.67 240.74 82.33"/><polygon class="cls-13" points="271.42 72.5 284.86 72.5 298.26 75.64 293.09 71.92 273.61 69.69 271.42 72.5"/><polygon class="cls-3" points="243.23 125.66 250.47 125.23 236.17 147 209.22 196.83 199.03 222.14 200.86 207.42 243.23 125.66"/><polygon class="cls-5" points="249.34 323.9 245.09 324.27 245.09 328.05 290.06 327.62 257.94 325.06 249.34 323.9"/><polygon class="cls-5" points="301.21 325.06 318.38 323.9 331.69 324.27 331.69 329.11 301.21 325.06"/><polyline class="cls-24" points="313.33 225.58 321.65 217.11 332.66 220.77 347.87 223.37 357.02 236.49 360.02 245.43 354.02 252.91"/><polygon class="cls-3" points="333.98 189.15 332.66 171.81 347.08 175.39 349.15 193.83 333.98 215.75 324.06 212.09 311.38 221.84 333.98 189.15"/><polygon class="cls-11" points="248.39 177.1 251.28 176.42 271.18 196.43 274.8 187.98 271.18 199.2 248.39 177.1"/><polygon class="cls-11" points="242.49 178.3 227.06 195.31 225.66 191.41 242.49 178.3"/><polygon class="cls-1" points="247.88 177.33 252.3 185.07 250.09 189.75 245.09 191.23 250.47 224.83 240.74 233.64 234.08 221.5 241.55 192.74 238.03 187.33 240.74 180.06 247.88 177.33"/><polygon class="cls-11" points="240.08 187.81 240.74 191.41 250.09 189.75 240.08 187.81"/><polygon class="cls-11" points="234.08 221.5 241.55 192.74 237.32 222.14 240.74 233.64 234.08 221.5"/><polyline class="cls-13" points="154.15 144.93 154.15 169.59 159.06 143.17 154.15 144.93"/></g></svg>