<svg xmlns="http://www.w3.org/2000/svg" viewBox="0 0 801.91 360.3"><defs><style>.cls-1{fill:#ffeeb8;}.cls-2{fill:#dadada;}.cls-10,.cls-16,.cls-21,.cls-23,.cls-24,.cls-25,.cls-3{fill:none;}.cls-10,.cls-3{stroke:#f4ca98;}.cls-10,.cls-14,.cls-16,.cls-21,.cls-23,.cls-24,.cls-25,.cls-3{stroke-miterlimit:10;}.cls-3{stroke-width:3.75px;}.cls-4{fill:#f4ca98;}.cls-5{fill:#e56a6a;}.cls-6{fill:#c24a4a;}.cls-7{fill:#f7931e;}.cls-8{fill:#7d4e24;}.cls-9{fill:#575756;}.cls-10{stroke-width:6.27px;}.cls-11{fill:#e8d6bc;}.cls-12{fill:#b2b2b2;}.cls-13,.cls-14{fill:#f47f5b;}.cls-14{stroke:#f7931e;stroke-width:0.9px;}.cls-15{fill:#468f99;}.cls-16{stroke:#f47f5b;}.cls-16,.cls-21{stroke-width:1.03px;}.cls-17{fill:#706f6f;}.cls-18{fill:#69bec4;}.cls-19{fill:#d45c28;}.cls-20{fill:#9d9d9c;}.cls-21{stroke:#7d4e24;}.cls-22{fill:#f6f6f6;}.cls-23,.cls-24,.cls-25{stroke:#69bec4;stroke-linecap:round;}.cls-23,.cls-24{stroke-width:2.69px;}.cls-24{stroke-dasharray:10.1 10.1;}.cls-25{stroke-width:1.79px;stroke-dasharray:5.37;}.cls-26{font-size:11.97px;}.cls-26,.cls-27,.cls-28,.cls-29,.cls-30,.cls-31,.cls-32{fill:#fff;}.cls-26,.cls-27,.cls-29,.cls-31,.cls-32{font-family:Arvo, Arvo;}.cls-27{font-size:12px;}.cls-28{font-size:26.29px;}.cls-28,.cls-30{font-family:Arvo-Bold, Arvo;font-weight:700;}.cls-29{font-size:19.09px;}.cls-30{font-size:25.43px;}.cls-31{font-size:13.57px;}.cls-32{font-size:13.39px;}</style></defs><title>gemeinde</title><g id="Bcakground"><path class="cls-1" d="M137.07,323.29c-46.38.9-66.47-8.19-66.47-8.19s-80.38-30.78-24-46.26,94.79-15.76,165.36-7.48c92.94,60.21,436.12,24.5,517.33,41.57s-66.2,23.06-116.58,23.5c-24.4.22-125.86-.72-229.27-1.65C273.3,323.8,161,322.83,137.07,323.29Z"/></g><g id="Ebene_8" data-name="Ebene 8"><polygon class="cls-2" points="108.95 261.93 109.58 265.6 116.26 305.15 97.99 303.72 102.38 264.32 108.95 261.93"/><polygon class="cls-2" points="91.51 314.7 92.97 314.7 112.97 303.72 111.51 303.72 91.51 314.7"/><rect class="cls-2" x="102.01" y="302.83" width="1.46" height="10.98" transform="translate(205.48 616.64) rotate(180)"/><rect class="cls-2" x="92.41" y="303.24" width="1.46" height="10.98" transform="translate(186.28 617.45) rotate(180)"/><polygon class="cls-2" points="107.13 245.16 107.13 256.46 102.01 256.98 99.45 243.05 107.13 245.16"/><polygon class="cls-2" points="93.88 274.96 99.35 307.32 85.67 306.25 88.95 276.75 93.88 274.96"/><rect class="cls-2" x="88.68" y="305.59" width="1.09" height="8.22" transform="translate(178.45 619.39) rotate(180)"/><polygon class="cls-2" points="97.02 265.22 92.08 272.08 88.74 270.16 93.28 260.58 97.02 265.22"/><polygon class="cls-2" points="61.74 284.65 62.45 298.79 49.08 303.78 52.37 284.56 61.74 284.65"/><polygon class="cls-2" points="57.56 276.36 58.27 282.34 53.67 282.34 53.67 277.09 61.71 271.85 61.71 276.36 57.56 276.36"/><path class="cls-2" d="M59.31,298.42v10.73H53.67v-9.58Z"/><polygon class="cls-2" points="57.69 307.72 57.69 311.84 63.88 312.99 45.06 314.21 46.88 311.84 53.67 311.83 55.76 308.39 57.69 307.72"/><polygon class="cls-2" points="117.72 271.25 116.26 280.82 112.97 279.64 113.7 274.96 108.22 272.02 109.58 265.6 117.72 271.25"/><path class="cls-2" d="M98,314.32c0,.21-15,.38-8.94.38s31.05-.17,31.05-.38-4.95-.38-11-.38S98,314.11,98,314.32Z"/><polygon class="cls-2" points="41.95 290 42.25 291.79 45.51 311.06 36.61 310.37 38.74 291.17 41.95 290"/><rect class="cls-2" x="33.89" y="310.13" width="0.71" height="5.35"/><polygon class="cls-2" points="34.6 296.35 37.27 312.12 30.6 311.6 32.2 297.23 34.6 296.35"/><rect class="cls-2" x="32.07" y="311.28" width="0.53" height="4.01"/><polygon class="cls-2" points="33.94 290.24 33.94 294.36 32.07 294.55 31.14 289.47 33.94 290.24"/><ellipse class="cls-2" cx="41.99" cy="315.53" rx="5.39" ry="0.18"/><polygon class="cls-2" points="78.4 297.69 78.4 310.27 61.23 310.27 65.25 298.8 78.4 297.69"/><polyline class="cls-2" points="75.07 296.61 70.28 297.58 70.64 292.48 75.59 292.48 75.07 295.03"/><rect class="cls-2" x="70.99" y="307.03" width="5.53" height="5.82" transform="translate(147.51 619.88) rotate(180)"/><rect class="cls-2" x="65.4" y="308.2" width="2.98" height="4.19" transform="translate(133.77 620.6) rotate(180)"/><ellipse class="cls-2" cx="70.33" cy="312.85" rx="10.99" ry="0.53"/><rect class="cls-2" x="70.99" y="295.71" width="1.95" height="3.73" transform="translate(143.92 595.15) rotate(180)"/><polygon class="cls-2" points="75.59 290.93 75.33 294.03 67.48 293.13 75.59 290.93"/><polygon class="cls-2" points="89.23 282.04 83.87 278.78 80.89 267.81 77.43 272.84 81.31 280.82 89.23 284.58 89.23 282.04"/><polyline class="cls-3" points="479.45 221.56 479.37 246.69 475.42 283.07"/><polygon class="cls-4" points="463.3 199.13 481.54 195.38 489.26 194.09 486.95 158.66 457.62 160.56 461.26 196.24 463.3 199.13"/><rect class="cls-4" x="454.55" y="196.59" width="18.98" height="7.88" transform="translate(51.81 493.13) rotate(-58.74)"/><polygon class="cls-5" points="441.01 262.07 462.46 260.45 477.52 262.07 477.52 210.21 467.44 202.72 463.2 205.95 458.03 202.84 459.4 200.59 454.52 203.53 441.01 213.02 441.01 262.07"/><polygon class="cls-6" points="445.52 262.27 441.01 262.07 440.38 231.86 434.84 219.34 443.64 219.34 445.99 238.71 445.52 262.27"/><polyline class="cls-3" points="437.18 229.18 435.78 244.89 439.87 266.59"/><polyline class="cls-3" points="451.82 275.65 453.23 295.11 450.42 314.28"/><polyline class="cls-3" points="469.09 275.65 467.77 292 469.56 314.28"/><polygon class="cls-7" points="467.75 196.18 481.54 195.38 489.26 194.09 489.48 196.03 463.3 199.13 462.14 197.48 467.75 196.18"/><polygon class="cls-7" points="487.27 163.62 470.56 165.26 465.81 172.76 459.22 176.17 457.62 160.56 486.68 155.65 487.27 163.62"/><path class="cls-7" d="M482.65,179.72a1.57,1.57,0,1,0,1.71-1.3A1.52,1.52,0,0,0,482.65,179.72Z"/><polygon class="cls-7" points="460.68 198.49 463.97 205.37 469.56 199.03 462.83 194.94 460.68 198.49"/><path class="cls-7" d="M477.56,188.33c0,.22,2.28.39,5.08.39s5.06-.19,5.06-.41-2.27-.39-5.07-.38S477.56,188.12,477.56,188.33Z"/><path class="cls-7" d="M473.68,186.41c-.09.18.79.79,2,1.34s2.2.85,2.29.66-.8-.79-2-1.34S473.77,186.22,473.68,186.41Z"/><polygon class="cls-5" points="482.21 223.58 477.12 223.58 477.52 210.31 482.21 215.21 482.21 223.58"/><polygon class="cls-5" points="443.64 233.88 430.71 233.88 430.71 218.01 441.01 213.02 443.64 218.01 443.64 233.88"/><polygon class="cls-7" points="466.97 167.97 466.8 192.62 467.75 196.18 463.74 199.67 461.94 199.49 458.87 172.81 466.97 167.97"/><polygon class="cls-8" points="458.01 185.52 454.12 161.65 451.71 156.04 455.26 150.54 488.38 143.33 489.71 161.71 479.87 162.38 476.77 157.96 476.26 162.47 469.8 163.25 461.53 169.27 460.38 183.79 458.01 185.52"/><rect class="cls-7" x="474.86" y="167.38" width="5.29" height="1.29" transform="translate(-20.79 78.91) rotate(-9.25)"/><polygon class="cls-7" points="488.34 167.29 482.96 166.87 483.1 165.59 488.48 166 488.34 167.29"/><rect class="cls-8" x="474.97" y="166.32" width="5.29" height="1.29" transform="translate(-20.62 78.91) rotate(-9.25)"/><polygon class="cls-8" points="488.45 166.23 483.07 165.81 483.21 164.53 488.59 164.94 488.45 166.23"/><polygon class="cls-7" points="454.73 181.99 459.37 176.84 457.17 171.88 451.74 171.81 454.73 181.99"/><ellipse class="cls-8" cx="479.32" cy="171.89" rx="1.61" ry="1.34" transform="translate(-14.93 49.38) rotate(-5.81)"/><ellipse class="cls-8" cx="484.72" cy="171.81" rx="1.34" ry="1.61" transform="translate(115.28 529.56) rotate(-63.6)"/><polygon class="cls-6" points="452.73 207.67 457.62 213.02 463.2 205.95 456.91 202.32 452.73 207.67"/><polygon class="cls-6" points="430.71 218.01 436.27 217.39 436.83 233.88 430.71 233.88 430.71 218.01"/><polygon class="cls-9" points="443.64 258.25 441.01 285.21 450.93 285.21 460.68 285.21 462.14 279.91 463.2 285.21 475.42 285.21 475.47 260.03 450.93 260.08 443.64 258.25"/><polygon class="cls-8" points="454.62 313.12 454.06 316.68 453.23 316.77 452.5 316.1 451.82 316.82 436.1 317.38 437.37 315.09 447.48 311.84 448.88 311.84 449.02 313.12 450.42 314.28 452.63 312.54 454.62 313.12"/><polygon class="cls-8" points="466.77 313.12 466.17 316.68 466.67 316.77 467.11 316.1 467.52 316.82 473.11 318.39 478.43 318.82 477.18 315.09 472.03 311.84 471.19 311.84 471.1 313.12 469.56 313.62 467.97 312.54 466.77 313.12"/><ellipse class="cls-7" cx="295.23" cy="320.09" rx="36.54" ry="2.05"/><line class="cls-10" x1="303.58" y1="279.49" x2="305.37" y2="318.89"/><line class="cls-10" x1="322.17" y1="318.89" x2="320.38" y2="279.49"/><polygon class="cls-11" points="286.63 174.7 284.12 206.62 287.76 209.94 289.65 227.26 292.03 243.97 283 287.47 346.06 278.8 317.67 204.68 298.99 164.17 296.13 163.97 297.56 167.78 296.64 171.12 290.4 173.35 289.67 170.96 286.63 174.7"/><polygon class="cls-4" points="290.22 148.16 284.12 152.86 290.4 173.35 296.64 171.12 297.56 167.78 290.22 148.16"/><polygon class="cls-4" points="266.05 106.28 261.94 121.12 262.69 139.19 262.69 160.58 281.47 160.51 294.35 146.9 293.66 119.14 282.28 103.99 266.05 106.28"/><polygon class="cls-4" points="322.17 314.12 311.05 316.5 311.05 320.08 322.17 318.89 322.17 314.12"/><polygon class="cls-4" points="306.35 314.12 295.23 316.5 295.23 320.08 306.35 318.89 306.35 314.12"/><polygon class="cls-12" points="284.12 206.62 306.35 206.62 308.4 211.12 287.76 209.94 284.12 206.62"/><polygon class="cls-13" points="303.58 258.93 302.17 265.14 296.3 271.39 292.43 268.75 294.08 262.82 296.26 257.31 303.58 258.93"/><polygon class="cls-12" points="306.35 217.62 318.38 219.4 320.38 224.85 316.61 226.36 308.4 221.99 306.35 217.62"/><line class="cls-14" x1="314.53" y1="223.28" x2="300.79" y2="258.64"/><polygon class="cls-13" points="290.84 125.92 292.43 157.03 277.8 118.45 274.37 116.49 272.48 122.78 262.97 125.92 263.15 160.14 281 159.44 290.62 149.36 281.47 160.51 262.69 160.58 261.94 115.23 266.05 106.28 286.31 108.94 293.66 119.14 290.84 125.92"/><polygon class="cls-8" points="284.12 111.66 283 137.69 284.35 141.06 285.71 144.49 288.99 112.92 284.12 111.66"/><polygon class="cls-13" points="263.96 149.72 271.71 152.21 279.58 148.16 281.54 144.49 280.63 149.59 273.54 153.13 268.89 152.54 263.96 149.72"/><ellipse class="cls-13" cx="272.56" cy="129.38" rx="1.45" ry="2.3"/><ellipse class="cls-13" cx="266.39" cy="129.38" rx="1.45" ry="2.3"/><polygon class="cls-13" points="267.84 134.49 266.39 140.52 271.11 140.52 269.47 134.49 267.84 134.49"/><polygon class="cls-13" points="292.32 153.53 290.84 164.81 294.35 171.94 290.4 173.35 285.24 156.52 289.8 150.09 292.32 153.53"/><polygon class="cls-8" points="256.87 122.54 252.01 110.86 254.73 100.34 265.43 94.91 281.54 96.37 297.96 103.99 298.49 113.35 298.23 132.28 299.24 141.45 304.69 152.17 308.4 153.2 300.79 159.25 288.76 157.74 290.22 148.16 288.09 118.39 270.22 112.23 268.34 116.11 268.69 121.44 256.87 122.54"/><polygon class="cls-13" points="306.96 284.18 303.58 289.7 301.33 296.79 300.79 285.03 306.96 284.18"/><polygon class="cls-13" points="323.68 281.88 319.75 288.38 317.88 295.88 317.27 282.76 323.68 281.88"/><polygon class="cls-12" points="297.56 176.1 313.37 219.53 306.35 217.62 308.4 211.12 297.56 176.1"/><ellipse class="cls-7" cx="275.07" cy="321.96" rx="27.1" ry="2.12"/><polygon class="cls-13" points="276.74 295.69 276.98 310.66 284.58 310.66 284.58 307.31 286.01 310.66 292.45 310.66 292.46 308.34 292.79 295.69 276.74 295.69"/><polygon class="cls-15" points="277.49 261.63 271.56 267.3 269.49 297.24 273.49 298.7 293.24 298.7 295.55 297.24 293.49 271.43 284.98 261.63 278.52 263.95 277.49 261.63"/><polyline class="cls-16" points="267.43 275.05 259.48 286.66 255.29 280.21"/><polygon class="cls-15" points="272.72 265.6 265.15 275.23 268.52 280.89 275.07 273.25 272.72 265.6"/><polygon class="cls-17" points="246.56 269.28 253.87 279.69 258.86 280.9 259.81 279.69 253.18 268.08 246.56 267.48 246.56 269.28"/><polygon class="cls-7" points="255.29 236.63 268.94 266.48 273.5 265.64 292.66 260.27 285.6 228.77 276.67 227.29 255.29 236.63"/><line class="cls-16" x1="281.79" y1="307.53" x2="283.48" y2="320.04"/><line class="cls-16" x1="287.18" y1="307.25" x2="287.18" y2="320.43"/><polygon class="cls-6" points="273.2 321.82 284.01 321.82 285.72 321.08 284.87 317.54 283.2 318.39 281.76 317.54 274.47 319.98 273.2 321.82"/><polygon class="cls-5" points="276.79 321.96 287.61 321.96 289.32 321.23 288.46 317.68 286.8 318.53 285.36 317.68 278.06 320.12 276.79 321.96"/><polyline class="cls-16" points="294.26 278.63 296.95 285.19 298.4 302.01"/><polygon class="cls-13" points="296.33 301.44 295.55 304.7 298.4 307.25 300.92 305.27 300.92 300.45 296.33 301.44"/><polygon class="cls-15" points="287.18 268.08 287.18 277.88 290.14 282.01 297.11 280.17 298.4 277.88 294.27 268.08 287.18 268.08"/><polygon class="cls-15" points="259.98 246.89 253.18 246.89 248.2 233.99 262.94 224.63 271.01 224.63 267.43 221.66 276.79 223.36 276.74 219.53 279.46 224.35 287.18 224.92 290.57 230.02 291.85 234.69 289.32 233.99 290.29 236.54 291.85 246.46 289.32 249.01 283.48 238.52 281.79 239.09 283.48 246.89 280.79 246.89 277.68 240.5 261.36 245.89 259.98 246.89"/><polygon class="cls-4" points="261.36 249.01 275.07 246.89 277.39 252.55 281.79 253.97 289.32 252.55 290.86 258.5 275.07 263.94 269.49 265.02 261.36 249.01"/><polygon class="cls-18" points="285.72 266.48 289.32 268.85 294.27 268.08 298.4 277.88 297.11 280.17 290.86 271.95 282.64 268.08 281.79 266.48 285.72 266.48"/><polygon class="cls-18" points="280.94 272.67 281.79 297.19 290.86 297.76 294.26 296.62 292.79 283.87 290.49 282.28 288.18 269.46 281.79 266.48 280.94 272.67"/><polygon class="cls-19" points="292.66 300.45 281.79 302.01 280.94 310.66 276.98 310.66 276.74 298.7 293.24 298.7 292.66 300.45"/><polygon class="cls-18" points="265.69 275.05 266.86 276.85 272.1 269.65 271.56 267.3 265.69 275.05"/><polygon class="cls-20" points="247.25 269.01 246.56 267.48 253.18 268.08 259.81 279.69 258.86 280.9 252.47 269.2 247.25 269.01"/><polygon class="cls-13" points="248.62 278.57 253.26 281.74 257.68 279.85 255.36 275.85 253.18 272.26 251.25 272.26 247.25 274.27 248.62 278.57"/><polygon class="cls-6" points="264.81 247.67 266.54 250.03 273.09 248.85 272.31 246.06 264.81 247.67"/><polygon class="cls-6" points="258.94 249.56 259.9 251.96 263.94 250.94 263.58 248.13 258.94 249.56"/><polygon class="cls-21" points="258.63 253.21 260.75 260.91 264.15 260.91 266.02 259.3 263.9 254.16 262.32 252.03 258.63 253.21"/><polygon class="cls-21" points="266.6 251.39 268.71 259.09 272.11 259.09 273.98 257.48 271.86 252.34 270.29 250.21 266.6 251.39"/><polyline class="cls-21" points="272.47 253.82 283.48 242.08 285.72 242.55 287.18 245.16 287.6 249.91"/><line class="cls-21" x1="267.85" y1="255.95" x2="265.15" y2="256.47"/><polygon class="cls-7" points="267.2 256.47 263.46 258.21 262.93 258.45 264.76 260.27 266.3 261.81 268.45 260.27 267.2 256.47"/><polygon class="cls-4" points="264.44 259.14 267.13 257.71 266.87 257.04 262.93 258.45 264.44 259.14"/><ellipse class="cls-8" cx="270.94" cy="253.43" rx="0.42" ry="0.64"/><ellipse class="cls-7" cx="381.48" cy="322.47" rx="58.99" ry="3.49"/><polygon class="cls-8" points="357.77 299.49 366.73 315.01 363.44 317.4 362.25 322.47 402.84 322.47 402.84 319.49 432.99 321.28 432.99 317.4 430.01 316.8 434.78 300.98 357.77 299.49"/><polygon class="cls-15" points="346.43 301.88 321.95 271.43 327.92 223.54 361.95 157.88 409.71 155.01 429.41 164.29 462.25 211.73 462.25 253.52 455.68 258.09 448.81 294.84 442.55 305.46 346.43 301.88"/><polygon class="cls-7" points="408.52 157.88 392.1 186.35 390.01 196.5 380.16 199.19 357.77 199.19 356.28 195.61 359.86 172.48 369.41 157.88 404.63 155.32 408.52 157.88"/><polygon class="cls-7" points="370.46 144.49 369.24 167.25 371.92 170.24 394.66 170.24 398.08 168.15 406.15 139.49 401.99 134.12 371.19 129.76 370.46 144.49"/><polygon class="cls-6" points="357.99 125.76 359.94 123.07 376.32 125.76 386.35 112.92 401.99 114.71 406.15 117.7 410.31 136.05 410.31 143.07 404.74 144.49 406.15 139.49 392.79 132.94 371.19 129.76 370.57 136.05 358.73 134.06 356.28 128.71 357.99 125.76"/><polygon class="cls-18" points="412.1 159.57 399.56 184.56 399.56 192.42 413.89 200.06 440.31 197.54 447.02 212.63 457.77 212.63 429.41 164.29 412.1 159.57"/><polygon class="cls-4" points="370.57 136.05 369.24 174.73 374.79 177.25 382.4 177.25 395.08 167.41 399.56 144.49 384.4 137.4 370.57 136.05"/><polygon class="cls-4" points="364.93 170.24 360.75 176.19 359.94 194.09 368.41 198.64 380.16 195.33 387.69 192.42 391.71 182.01 392.48 176.06 382.4 181 369.79 182.85 364.93 170.24"/><polygon class="cls-7" points="405.25 148.88 409.41 146.37 408.81 153.22 403.74 153.53 405.25 148.88"/><circle class="cls-7" cx="381.48" cy="145.1" r="3.88"/><circle class="cls-7" cx="373.76" cy="143.83" r="3.18" transform="translate(-22.19 203.87) rotate(-29.67)"/><circle class="cls-13" cx="376.04" cy="157.29" r="2.28"/><polygon class="cls-22" points="366.09 199.19 384.4 216.94 388.59 203.94 408.52 157.88 382.4 195.33 366.09 199.19"/><polygon class="cls-22" points="361.35 200.16 347.84 210.69 354.6 190.77 359.86 172.48 356.28 195.61 361.35 200.16"/><line class="cls-23" x1="362.62" y1="202.66" x2="361.75" y2="207.96"/><polyline class="cls-24" points="360.13 217.93 359.86 219.56 357.77 239.04 359.86 269.26 360.19 287.47 363.69 292.39"/><polyline class="cls-23" points="366.61 296.51 367.77 298.14 370.23 300.45"/><polygon class="cls-7" points="425.3 238.13 413.44 265.78 392.17 267.46 387.69 278.56 387.69 284.87 389.71 291.55 399.95 294.84 431.86 280.9 448.81 253.88 443.53 242.38 425.3 238.13"/><polygon class="cls-7" points="324.63 249.96 331.95 258.64 336.43 272.1 336.43 289.44 323.67 288.88 315.61 268.08 314.49 243.74 321.95 234.27 326.97 231.17 324.63 249.96"/><polygon class="cls-4" points="423.7 241.87 408.52 259.14 394.12 267.3 389.93 277.1 397.32 281.88 418.25 278.63 428.67 271.39 440.47 256.47 440.53 247.77 423.7 241.87"/><polygon class="cls-4" points="388.24 278.45 389.44 283.9 394.58 285.31 394.58 281.88 388.24 278.45"/><polygon class="cls-4" points="388.93 284.64 390.13 290.1 395.27 291.51 395.27 288.08 388.93 284.64"/><polygon class="cls-4" points="326.44 235.37 322.99 246.21 322.99 250.98 331.95 258.64 334.64 270.53 333.59 273.25 330.31 271.39 317.47 257.31 314.55 245.18 321.95 234.27 325.46 233.37 326.44 235.37"/><polygon class="cls-4" points="322.21 267.55 324.04 273.07 330.87 278.59 332.66 277.48 332.66 274.11 322.21 267.55"/><polygon class="cls-4" points="323.11 276.26 324.59 281.88 331.77 287.31 333.56 286.19 333.56 282.83 323.11 276.26"/><polygon class="cls-7" points="371.92 163.97 371.92 168.29 382.4 169.31 383.29 165.63 371.92 163.97"/><polygon class="cls-8" points="379.16 135.89 379.16 139.97 389.3 144.2 390.01 138.83 379.16 135.89"/><polygon class="cls-8" points="365.68 140.83 367.37 144.55 378.35 144.2 376.79 139.01 365.68 140.83"/><polygon class="cls-8" points="369.98 158.63 366.09 166.91 369.24 167.25 371.92 163.97 377.6 164.33 383.29 165.63 385.4 170.94 388.22 170.94 385.19 160.79 369.98 158.63"/><circle class="cls-8" cx="381.07" cy="145.43" r="0.94"/><circle class="cls-8" cx="373.6" cy="144.32" r="0.78"/><polygon class="cls-18" points="383.62 122.35 386.7 116.62 394.22 117.83 393.1 125.08 390.12 124.15 383.62 122.35"/><polygon class="cls-13" points="359.94 123.07 364 127.7 392.48 131.43 396.28 133.07 387.69 128.71 376.32 125.76 359.94 123.07"/><polygon class="cls-13" points="384.58 115.18 395.38 115.18 406.15 117.7 401.99 114.71 386.35 112.92 384.58 115.18"/><polygon class="cls-18" points="361.95 157.88 367.76 157.53 356.28 175.01 334.64 215.04 326.44 235.37 327.92 223.54 361.95 157.88"/><polygon class="cls-4" points="366.86 317.1 363.44 317.4 363.44 320.43 399.56 320.08 373.76 318.03 366.86 317.1"/><polygon class="cls-4" points="408.52 318.03 422.31 317.1 432.99 317.4 432.99 321.28 408.52 318.03"/><polyline class="cls-25" points="418.25 238.13 424.93 231.33 433.77 234.27 445.99 236.35 453.34 246.89 455.75 254.08 450.93 260.08"/><polygon class="cls-18" points="434.84 208.87 433.77 194.94 445.36 197.82 447.02 212.63 434.84 230.24 426.87 227.29 416.69 235.13 434.84 208.87"/><polygon class="cls-11" points="366.09 199.19 368.41 198.64 384.4 214.71 387.3 207.93 384.4 216.94 366.09 199.19"/><polygon class="cls-11" points="361.35 200.16 348.96 213.82 347.84 210.69 361.35 200.16"/><polygon class="cls-1" points="365.68 199.38 369.24 205.59 367.46 209.35 363.44 210.54 367.76 237.52 359.94 244.6 354.6 234.85 360.6 211.76 357.77 207.41 359.94 201.57 365.68 199.38"/><polygon class="cls-11" points="359.42 207.79 359.94 210.69 367.46 209.35 359.42 207.79"/><polygon class="cls-11" points="354.6 234.85 360.6 211.76 357.2 235.37 359.94 244.6 354.6 234.85"/><polyline class="cls-13" points="290.4 173.35 290.4 193.16 294.35 171.94 290.4 173.35"/><polygon class="cls-20" points="513.71 194.09 512.19 202.66 495.77 294.84 540.63 291.51 529.86 199.67 513.71 194.09"/><rect class="cls-20" x="503.84" y="291.51" width="3.59" height="25.59"/><rect class="cls-20" x="527.17" y="289.44" width="3.59" height="25.59"/><rect class="cls-12" x="550.75" y="290.38" width="3.59" height="25.59"/><polygon class="cls-20" points="518.2 155.01 518.2 181.35 530.76 182.55 537.04 150.09 518.2 155.01"/><polygon class="cls-12" points="550.73 224.47 537.29 299.91 570.88 297.42 562.82 228.65 550.73 224.47"/><rect class="cls-12" x="560.8" y="295.86" width="2.69" height="19.16"/><polygon class="cls-12" points="554.09 195.2 554.09 214.92 563.49 215.82 568.2 191.51 554.09 195.2"/><polygon class="cls-20" points="584.35 247.06 582.61 280.03 615.44 291.64 607.36 246.85 584.35 247.06"/><polygon class="cls-20" points="594.62 227.73 592.87 241.68 604.17 241.68 604.17 229.43 584.43 217.22 584.43 227.73 594.62 227.73"/><path class="cls-20" d="M590.32,279.17v25h13.85V281.83Z"/><polygon class="cls-20" points="594.3 300.85 594.3 310.44 579.1 313.12 625.31 315.96 620.82 310.44 604.17 310.43 599.02 302.4 594.3 300.85"/><polygon class="cls-20" points="492.18 215.82 495.77 238.13 503.85 235.37 502.05 224.47 515.51 217.62 512.19 202.66 492.18 215.82"/><ellipse class="cls-20" cx="513.49" cy="316.22" rx="27.14" ry="0.88"/><polygon class="cls-20" points="623.08 277.45 623.08 306.79 665.24 306.79 655.37 280.04 623.08 277.45"/><polyline class="cls-20" points="631.25 274.94 643.02 277.19 642.13 265.31 629.99 265.31 631.25 271.25"/><rect class="cls-20" x="627.71" y="299.22" width="13.57" height="13.57"/><rect class="cls-20" x="647.69" y="301.96" width="7.33" height="9.77"/><ellipse class="cls-20" cx="642.91" cy="312.79" rx="26.97" ry="1.25"/><rect class="cls-20" x="636.5" y="272.84" width="4.78" height="8.71"/><polygon class="cls-20" points="629.99 261.69 630.61 268.93 649.9 266.84 629.99 261.69"/><polygon class="cls-20" points="215.26 194.09 216.71 202.66 232.3 294.84 189.7 291.51 199.93 199.67 215.26 194.09"/><rect class="cls-20" x="221.22" y="291.51" width="3.41" height="25.59" transform="translate(445.85 608.61) rotate(180)"/><rect class="cls-20" x="199.07" y="289.44" width="3.41" height="25.59" transform="translate(401.56 604.47) rotate(180)"/><rect class="cls-12" x="176.69" y="290.38" width="3.41" height="25.59" transform="translate(356.78 606.36) rotate(180)"/><polygon class="cls-20" points="211 155.01 211 181.35 199.07 182.55 193.11 150.09 211 155.01"/><polygon class="cls-12" points="180.12 224.47 192.87 299.91 160.98 297.42 168.63 228.65 180.12 224.47"/><rect class="cls-12" x="168" y="295.86" width="2.55" height="19.16" transform="translate(338.54 610.89) rotate(180)"/><polygon class="cls-12" points="187.44 201.76 175.92 217.77 168.14 213.28 178.72 190.95 187.44 201.76"/><polygon class="cls-20" points="125.19 247.06 126.85 280.03 95.68 291.64 103.35 246.85 125.19 247.06"/><polygon class="cls-20" points="123.97 228.53 121.01 242.26 110.86 238.79 114.83 227.19 123.49 222.3 128.37 230.03 123.97 228.53"/><path class="cls-20" d="M119.53,279.17v25H106.38V281.83Z"/><polygon class="cls-20" points="115.75 300.85 115.75 310.44 130.18 313.12 66.31 315.96 90.57 310.44 106.38 310.43 111.27 302.4 115.75 300.85"/><polygon class="cls-20" points="235.71 203.91 232.3 178.17 224.63 181.36 226.33 193.94 213.56 201.84 216.71 219.11 235.71 203.91"/><ellipse class="cls-20" cx="215.47" cy="316.22" rx="25.77" ry="0.88"/><polygon class="cls-20" points="79.06 259.54 79.76 263.71 87.36 308.63 66.61 307.01 71.59 262.26 79.06 259.54"/><rect class="cls-12" x="60.26" y="306.46" width="1.66" height="12.47"/><polygon class="cls-12" points="61.93 274.34 68.15 311.1 52.61 309.89 56.34 276.38 61.93 274.34"/><rect class="cls-12" x="56.03" y="309.13" width="1.24" height="9.34"/><polygon class="cls-12" points="60.38 260.08 60.38 269.69 56.03 270.13 53.85 258.28 60.38 260.08"/><ellipse class="cls-20" cx="59.16" cy="319.05" rx="12.56" ry="0.43"/><polygon class="cls-20" points="164.04 277.45 164.04 306.79 124 306.79 133.37 280.04 164.04 277.45"/><polyline class="cls-20" points="156.28 274.94 145.1 277.19 145.95 265.31 157.48 265.31 156.28 271.25"/><rect class="cls-20" x="146.76" y="299.22" width="12.88" height="13.57" transform="translate(306.4 612.02) rotate(180)"/><rect class="cls-20" x="133.72" y="301.96" width="6.96" height="9.77" transform="translate(274.39 613.7) rotate(180)"/><ellipse class="cls-20" cx="145.21" cy="312.79" rx="25.61" ry="1.25"/><rect class="cls-20" x="146.76" y="272.84" width="4.53" height="8.71" transform="translate(298.05 554.38) rotate(180)"/><polygon class="cls-20" points="157.48 261.69 156.89 268.93 138.57 266.84 157.48 261.69"/><polygon class="cls-12" points="169.27 240.96 156.78 233.37 149.85 207.79 141.78 219.53 150.82 238.13 169.27 246.89 169.27 240.96"/><ellipse class="cls-12" cx="146.76" cy="142.74" rx="3.69" ry="13.98" transform="translate(-43.36 218.69) rotate(-65.98)"/><rect class="cls-12" x="141.81" y="128.08" width="15.11" height="15.11" transform="translate(68.15 -49.05) rotate(24.02)"/><polygon class="cls-20" points="229.11 155.37 229.11 162.1 231.76 163.6 235.93 163.6 237.01 155.99 229.11 155.37"/><rect class="cls-20" x="231.87" y="162.49" width="0.83" height="7.83" transform="translate(17.77 -22.35) rotate(5.73)"/><rect class="cls-20" x="227.61" y="170.29" width="8.17" height="0.83" transform="translate(18.19 -22.27) rotate(5.73)"/><polygon class="cls-20" points="227.46 152.07 228.87 152.99 228.16 151.24 227.46 152.07"/><polygon class="cls-20" points="232.88 149.34 233.31 150.97 233.97 149.2 232.88 149.34"/><polygon class="cls-20" points="241.17 152.81 239.55 153.3 241.34 153.9 241.17 152.81"/><polygon class="cls-20" points="552.54 75.17 550.75 136.05 599.02 156.65 579.1 169.04 610.28 159.57 629.99 164.78 683.28 91.17 570.88 70.67 552.54 75.17"/><polygon class="cls-20" points="608.73 178.36 607.65 215.15 636.81 227.6 624.78 235.09 643.62 229.36 655.52 232.51 675.18 205.37 619.81 175.65 608.73 178.36"/><polygon class="cls-20" points="417.21 125.41 398.31 78.75 403.54 69.58 496.49 34.07 503.71 33.34 527.42 98.09 490.06 108.46 496.77 122.48 470.14 116.28 417.21 125.41"/><text class="cls-26" transform="matrix(0.94, -0.34, 0.34, 0.94, 424.68, 83.74)">Lobet </text><text class="cls-27" transform="matrix(0.98, -0.21, 0.21, 0.98, 464.08, 75.18)">den</text><text class="cls-28" transform="matrix(0.98, -0.2, 0.2, 0.98, 424.84, 106.17)">Herrn</text><text class="cls-29" transform="matrix(0.97, 0.23, -0.23, 0.97, 582.3, 103.87)">Halle</text><text class="cls-30" transform="matrix(0.97, 0.23, -0.23, 0.97, 567.43, 124.25)">lujah</text><text class="cls-31" transform="matrix(0.93, 0.37, -0.37, 0.93, 615.55, 200.4)">Wein...</text><polygon class="cls-20" points="724.23 241.88 709.36 265.23 685.41 260.26 658.62 266.59 680.3 258.39 671.34 255.17 670.23 229.72 718.28 235.36 724.23 241.88"/><text class="cls-32" transform="matrix(0.99, 0.1, -0.1, 0.99, 675.03, 249)">Brot...</text></g></svg>