<svg xmlns="http://www.w3.org/2000/svg" viewBox="0 0 85.13 111.53"><defs><style>.cls-1{fill:#f7931e;}.cls-16,.cls-17,.cls-18,.cls-2,.cls-8{fill:none;}.cls-2,.cls-8{stroke:#f4ca98;}.cls-12,.cls-16,.cls-17,.cls-18,.cls-2,.cls-8{stroke-miterlimit:10;}.cls-2{stroke-width:1.16px;}.cls-3{fill:#f4ca98;}.cls-4{fill:#e56a6a;}.cls-5{fill:#c24a4a;}.cls-6{fill:#7d4e24;}.cls-7{fill:#575756;}.cls-8{stroke-width:1.95px;}.cls-9{fill:#e8d6bc;}.cls-10{fill:#b2b2b2;}.cls-11,.cls-12{fill:#f47f5b;}.cls-12{stroke:#f7931e;stroke-width:0.28px;}.cls-13{fill:#468f99;}.cls-14{fill:#69bec4;}.cls-15{fill:#f6f6f6;}.cls-16,.cls-17,.cls-18{stroke:#69bec4;stroke-linecap:round;}.cls-16,.cls-17{stroke-width:0.84px;}.cls-17{stroke-dasharray:3.14 3.14;}.cls-18{stroke-width:0.56px;stroke-dasharray:1.67;}.cls-19{fill:#ffeeb8;}</style></defs><title>kapitelbild_2</title><g id="Ebene_8" data-name="Ebene 8"><ellipse class="cls-1" cx="64.6" cy="91.26" rx="16.57" ry="0.84"/><polyline class="cls-2" points="69.98 61.09 69.96 68.91 68.73 80.22"/><polygon class="cls-3" points="64.96 54.12 70.63 52.95 73.03 52.55 72.31 41.53 63.19 42.13 64.33 53.22 64.96 54.12"/><rect class="cls-3" x="62.24" y="53.33" width="5.9" height="2.45" transform="translate(-15.27 81.97) rotate(-58.74)"/><polygon class="cls-4" points="58.03 73.69 64.7 73.19 69.38 73.69 69.38 57.57 66.25 55.24 64.93 56.24 63.32 55.27 63.74 54.58 62.23 55.49 58.03 58.44 58.03 73.69"/><polygon class="cls-5" points="59.43 73.75 58.03 73.69 57.83 64.3 56.11 60.4 58.84 60.4 59.58 66.43 59.43 73.75"/><polyline class="cls-2" points="56.84 63.46 56.4 68.35 57.67 75.1"/><polyline class="cls-2" points="61.39 77.92 61.83 83.97 60.95 89.93"/><polyline class="cls-2" points="66.76 77.92 66.35 83 66.91 89.93"/><polygon class="cls-1" points="66.34 53.2 70.63 52.95 73.03 52.55 73.1 53.16 64.96 54.12 64.6 53.61 66.34 53.2"/><polygon class="cls-1" points="72.41 43.08 67.22 43.59 65.74 45.92 63.69 46.98 63.19 42.13 72.23 40.6 72.41 43.08"/><path class="cls-1" d="M71,48.09a.48.48,0,0,0,.44.5.46.46,0,1,0,.1-.91A.49.49,0,0,0,71,48.09Z"/><polygon class="cls-1" points="64.14 53.92 65.17 56.06 66.91 54.09 64.81 52.82 64.14 53.92"/><path class="cls-1" d="M69.39,50.76a5.18,5.18,0,0,0,1.58.12,5.58,5.58,0,0,0,1.58-.12A5.23,5.23,0,0,0,71,50.64,5.58,5.58,0,0,0,69.39,50.76Z"/><path class="cls-1" d="M68.68,51.6s.31-.15.6-.43.49-.54.45-.59-.32.14-.61.42S68.63,51.55,68.68,51.6Z"/><polygon class="cls-4" points="70.84 61.72 69.25 61.72 69.38 57.6 70.84 59.12 70.84 61.72"/><polygon class="cls-4" points="58.84 64.93 54.83 64.93 54.83 59.99 58.03 58.44 58.84 59.99 58.84 64.93"/><polygon class="cls-1" points="66.1 44.43 66.05 52.1 66.34 53.2 65.09 54.29 64.53 54.23 63.58 45.94 66.1 44.43"/><polygon class="cls-6" points="63.31 49.89 62.1 42.47 61.35 40.72 62.46 39.01 72.75 36.77 73.17 42.48 70.11 42.69 69.15 41.32 68.99 42.72 66.98 42.96 64.41 44.84 64.05 49.35 63.31 49.89"/><rect class="cls-1" x="68.69" y="44.99" width="1.65" height="0.4" transform="translate(-6.36 11.76) rotate(-9.25)"/><polygon class="cls-1" points="72.42 45.29 70.74 45.16 70.78 44.77 72.46 44.9 72.42 45.29"/><rect class="cls-6" x="68.73" y="44.66" width="1.65" height="0.4" transform="translate(-6.3 11.76) rotate(-9.25)"/><polygon class="cls-6" points="72.45 44.96 70.78 44.83 70.82 44.44 72.49 44.56 72.45 44.96"/><polygon class="cls-1" points="62.29 48.79 63.74 47.19 63.05 45.65 61.37 45.63 62.29 48.79"/><ellipse class="cls-6" cx="69.94" cy="45.65" rx="0.5" ry="0.42" transform="translate(-4.26 7.31) rotate(-5.81)"/><ellipse class="cls-6" cx="71.62" cy="45.63" rx="0.42" ry="0.5" transform="translate(-1.1 89.48) rotate(-63.6)"/><polygon class="cls-5" points="61.67 56.78 63.19 58.44 64.93 56.24 62.97 55.11 61.67 56.78"/><polygon class="cls-5" points="54.83 59.99 56.55 59.8 56.73 64.93 54.83 64.93 54.83 59.99"/><polygon class="cls-7" points="58.84 72.5 58.03 80.89 61.11 80.89 64.14 80.89 64.6 79.24 64.93 80.89 68.73 80.89 68.74 73.06 61.11 73.07 58.84 72.5"/><polygon class="cls-6" points="62.26 89.56 62.09 90.67 61.83 90.7 61.6 90.49 61.39 90.72 56.5 90.89 56.89 90.18 60.04 89.17 60.47 89.17 60.52 89.56 60.95 89.93 61.64 89.39 62.26 89.56"/><polygon class="cls-6" points="66.04 89.56 65.85 90.67 66.01 90.7 66.14 90.49 66.27 90.72 68.01 91.2 69.66 91.34 69.27 90.18 67.67 89.17 67.41 89.17 67.38 89.56 66.91 89.72 66.41 89.39 66.04 89.56"/><ellipse class="cls-1" cx="21.81" cy="91.73" rx="11.36" ry="0.64"/><line class="cls-8" x1="24.4" y1="79.11" x2="24.96" y2="91.36"/><line class="cls-8" x1="30.18" y1="91.36" x2="29.63" y2="79.11"/><polygon class="cls-9" points="19.13 46.52 18.35 56.45 19.48 57.48 20.07 62.87 20.81 68.06 18.01 81.59 37.61 78.89 28.78 55.85 22.98 43.25 22.09 43.19 22.53 44.37 22.24 45.41 20.3 46.11 20.08 45.36 19.13 46.52"/><polygon class="cls-3" points="20.25 38.27 18.35 39.73 20.3 46.11 22.25 45.41 22.53 44.37 20.25 38.27"/><polygon class="cls-3" points="12.73 25.25 11.45 29.86 11.69 35.48 11.69 42.13 17.53 42.11 21.53 37.88 21.32 29.25 17.78 24.54 12.73 25.25"/><polygon class="cls-3" points="30.18 89.88 26.73 90.62 26.73 91.73 30.18 91.36 30.18 89.88"/><polygon class="cls-3" points="25.27 89.88 21.81 90.62 21.81 91.73 25.27 91.36 25.27 89.88"/><polygon class="cls-10" points="18.35 56.45 25.26 56.45 25.9 57.85 19.48 57.48 18.35 56.45"/><polygon class="cls-11" points="24.4 72.71 23.96 74.65 22.14 76.59 20.93 75.77 21.45 73.93 22.13 72.21 24.4 72.71"/><polygon class="cls-10" points="25.27 59.87 29.01 60.42 29.63 62.12 28.45 62.59 25.9 61.23 25.27 59.87"/><line class="cls-12" x1="27.81" y1="61.63" x2="23.54" y2="72.63"/><polygon class="cls-11" points="20.44 31.36 20.93 41.03 16.39 29.04 15.32 28.42 14.73 30.38 11.78 31.36 11.83 42 17.38 41.78 20.37 38.65 17.53 42.11 11.69 42.13 11.45 28.03 12.73 25.25 19.04 26.08 21.32 29.25 20.44 31.36"/><polygon class="cls-6" points="18.35 26.92 18.01 35.02 18.42 36.06 18.85 37.13 19.87 27.32 18.35 26.92"/><polygon class="cls-11" points="12.08 38.76 14.49 39.53 16.94 38.27 17.55 37.13 17.27 38.72 15.06 39.82 13.62 39.63 12.08 38.76"/><ellipse class="cls-11" cx="14.76" cy="32.43" rx="0.45" ry="0.71"/><ellipse class="cls-11" cx="12.84" cy="32.43" rx="0.45" ry="0.71"/><polygon class="cls-11" points="13.29 34.02 12.84 35.9 14.31 35.9 13.8 34.02 13.29 34.02"/><polygon class="cls-11" points="20.9 39.94 20.44 43.45 21.53 45.67 20.3 46.11 18.7 40.87 20.12 38.87 20.9 39.94"/><polygon class="cls-6" points="9.88 30.31 8.37 26.67 9.21 23.4 12.54 21.71 17.55 22.17 22.66 24.54 22.82 27.45 22.74 33.34 23.05 36.19 24.75 39.52 25.9 39.84 23.54 41.72 19.8 41.25 20.25 38.27 19.59 29.01 14.03 27.1 13.45 28.3 13.55 29.96 9.88 30.31"/><polygon class="cls-11" points="25.45 80.57 24.4 82.28 23.7 84.49 23.54 80.83 25.45 80.57"/><polygon class="cls-11" points="30.65 79.85 29.43 81.87 28.85 84.2 28.66 80.13 30.65 79.85"/><polygon class="cls-10" points="22.53 46.96 27.45 60.46 25.27 59.87 25.9 57.85 22.53 46.96"/><ellipse class="cls-1" cx="39.52" cy="92.47" rx="18.34" ry="1.09"/><polygon class="cls-6" points="32.14 85.33 34.93 90.15 33.91 90.9 33.54 92.47 46.16 92.47 46.16 91.55 55.53 92.1 55.53 90.9 54.61 90.71 56.09 85.79 32.14 85.33"/><polygon class="cls-13" points="28.62 86.07 21 76.6 22.86 61.71 33.44 41.29 48.29 40.4 54.42 43.29 64.63 58.04 64.63 71.03 62.59 72.45 60.45 83.88 58.5 87.18 28.62 86.07"/><polygon class="cls-1" points="47.92 41.29 42.82 50.15 42.17 53.3 39.1 54.14 32.14 54.14 31.68 53.03 32.79 45.83 35.76 41.29 46.72 40.5 47.92 41.29"/><polygon class="cls-1" points="36.09 37.13 35.71 44.21 36.55 45.14 43.61 45.14 44.68 44.49 47.19 35.58 45.9 33.91 36.32 32.55 36.09 37.13"/><polygon class="cls-5" points="32.21 31.31 32.82 30.47 37.91 31.31 41.03 27.32 45.9 27.87 47.19 28.8 48.48 34.51 48.48 36.69 46.75 37.13 47.19 35.58 43.03 33.54 36.32 32.55 36.12 34.51 32.44 33.89 31.68 32.22 32.21 31.31"/><polygon class="cls-14" points="49.04 41.82 45.14 49.59 45.14 52.03 49.59 54.41 57.81 53.63 59.9 58.32 63.24 58.32 54.42 43.29 49.04 41.82"/><polygon class="cls-3" points="36.12 34.51 35.71 46.53 37.43 47.32 39.8 47.32 43.75 44.26 45.14 37.13 40.42 34.93 36.12 34.51"/><polygon class="cls-3" points="34.37 45.14 33.07 46.99 32.82 52.55 35.45 53.97 39.1 52.94 41.45 52.03 42.7 48.8 42.94 46.95 39.8 48.48 35.88 49.06 34.37 45.14"/><polygon class="cls-1" points="46.91 38.49 48.2 37.71 48.02 39.84 46.44 39.94 46.91 38.49"/><circle class="cls-1" cx="39.52" cy="37.32" r="1.2"/><circle class="cls-1" cx="37.12" cy="36.92" r="0.99" transform="translate(-13.51 23.57) rotate(-30.07)"/><circle class="cls-11" cx="37.82" cy="41.11" r="0.71"/><polygon class="cls-15" points="34.73 54.14 40.42 59.66 41.73 55.62 47.92 41.29 39.8 52.94 34.73 54.14"/><polygon class="cls-15" points="33.26 54.44 29.06 57.71 31.16 51.52 32.79 45.83 31.68 53.03 33.26 54.44"/><line class="cls-16" x1="33.65" y1="55.22" x2="33.38" y2="56.87"/><polyline class="cls-17" points="32.88 59.97 32.79 60.47 32.14 66.53 32.79 75.93 32.9 81.59 33.98 83.12"/><polyline class="cls-16" points="34.89 84.4 35.25 84.91 36.02 85.63"/><polygon class="cls-1" points="53.14 66.25 49.45 74.85 42.84 75.37 41.45 78.82 41.45 80.78 42.07 82.86 45.26 83.88 55.18 79.55 60.45 71.15 58.81 67.57 53.14 66.25"/><polygon class="cls-1" points="21.84 69.93 24.11 72.63 25.51 76.81 25.51 82.2 21.54 82.03 19.03 75.56 18.68 67.99 21 65.05 22.57 64.08 21.84 69.93"/><polygon class="cls-3" points="52.64 67.41 47.92 72.78 43.45 75.32 42.15 78.36 44.44 79.85 50.95 78.84 54.19 76.59 57.86 71.95 57.88 69.25 52.64 67.41"/><polygon class="cls-3" points="41.62 78.78 41.99 80.48 43.59 80.92 43.59 79.85 41.62 78.78"/><polygon class="cls-3" points="41.83 80.71 42.21 82.41 43.8 82.85 43.8 81.78 41.83 80.71"/><polygon class="cls-3" points="22.4 65.39 21.33 68.76 21.33 70.24 24.11 72.63 24.95 76.32 24.63 77.17 23.6 76.59 19.61 72.21 18.7 68.44 21 65.05 22.1 64.77 22.4 65.39"/><polygon class="cls-3" points="21.09 75.39 21.66 77.11 23.78 78.83 24.34 78.48 24.34 77.44 21.09 75.39"/><polygon class="cls-3" points="21.37 78.11 21.83 79.85 24.06 81.54 24.61 81.19 24.61 80.15 21.37 78.11"/><polygon class="cls-1" points="36.54 43.19 36.54 44.53 39.8 44.85 40.08 43.7 36.54 43.19"/><polygon class="cls-6" points="38.79 34.45 38.79 35.73 41.95 37.04 42.17 35.37 38.79 34.45"/><polygon class="cls-6" points="34.6 35.99 35.13 37.15 38.54 37.04 38.06 35.43 34.6 35.99"/><polygon class="cls-6" points="35.94 41.53 34.73 44.1 35.71 44.21 36.54 43.19 38.31 43.3 40.08 43.7 40.73 45.35 41.61 45.35 40.67 42.2 35.94 41.53"/><circle class="cls-6" cx="39.39" cy="37.42" r="0.29"/><circle class="cls-6" cx="37.07" cy="37.08" r="0.24"/><polygon class="cls-14" points="40.18 30.25 41.14 28.46 43.48 28.84 43.13 31.09 42.2 30.8 40.18 30.25"/><polygon class="cls-11" points="32.82 30.47 34.08 31.91 42.94 33.07 44.12 33.58 41.45 32.22 37.91 31.31 32.82 30.47"/><polygon class="cls-11" points="40.48 28.02 43.84 28.02 47.19 28.8 45.9 27.87 41.03 27.32 40.48 28.02"/><polygon class="cls-14" points="33.44 41.29 35.25 41.18 31.68 46.62 24.95 59.07 22.4 65.39 22.86 61.71 33.44 41.29"/><polygon class="cls-3" points="34.97 90.8 33.91 90.9 33.91 91.84 45.14 91.73 37.12 91.09 34.97 90.8"/><polygon class="cls-3" points="47.92 91.09 52.21 90.8 55.53 90.9 55.53 92.1 47.92 91.09"/><polyline class="cls-18" points="50.95 66.25 53.03 64.13 55.78 65.05 59.58 65.69 61.86 68.97 62.61 71.21 61.11 73.07"/><polygon class="cls-14" points="56.11 57.15 55.78 52.82 59.38 53.71 59.9 58.32 56.11 63.79 53.63 62.88 50.46 65.31 56.11 57.15"/><polygon class="cls-9" points="34.73 54.14 35.45 53.97 40.42 58.97 41.33 56.86 40.42 59.66 34.73 54.14"/><polygon class="cls-9" points="33.26 54.44 29.41 58.69 29.06 57.71 33.26 54.44"/><polygon class="cls-19" points="34.6 54.2 35.71 56.13 35.16 57.3 33.91 57.67 35.25 66.06 32.82 68.26 31.16 65.23 33.02 58.05 32.14 56.69 32.82 54.88 34.6 54.2"/><polygon class="cls-9" points="32.66 56.81 32.82 57.71 35.16 57.3 32.66 56.81"/><polygon class="cls-9" points="31.16 65.23 33.02 58.05 31.97 65.39 32.82 68.26 31.16 65.23"/><polyline class="cls-11" points="20.3 46.11 20.3 52.26 21.53 45.67 20.3 46.11"/></g></svg>