<svg xmlns="http://www.w3.org/2000/svg" xmlns:xlink="http://www.w3.org/1999/xlink" viewBox="0 0 801.91 360.3"><defs><style>.cls-1{fill:#ffeeb8;}.cls-2{fill:#fff;}.cls-3{fill:url(#Unbenannter_Verlauf_8);}.cls-4{fill:#f47f5b;}.cls-5{fill:#c24a4a;}.cls-6{fill:#d45c28;}.cls-7{fill:url(#Unbenannter_Verlauf_8-2);}</style><linearGradient id="Unbenannter_Verlauf_8" x1="239.59" y1="373.29" x2="486.59" y2="119.29" gradientUnits="userSpaceOnUse"><stop offset="0" stop-color="#fff"/><stop offset="1" stop-color="#fff" stop-opacity="0"/></linearGradient><linearGradient id="Unbenannter_Verlauf_8-2" x1="278.47" y1="153.26" x2="307.04" y2="123.89" xlink:href="#Unbenannter_Verlauf_8"/></defs><title>passport</title><g id="Bcakground"><path class="cls-1" d="M133.22,330.74c-43.7,2-62.63-18-62.63-18S-12.63,192,40.44,158.05s119-27.17,155.79-16.41S237,209.5,306.4,207.71s66.88-46.09,141.88-58.09,173.4,21.1,220,41,42.48,70.26,22.81,95.45-62.37,50.59-109.83,51.56c-23,.48-118.56-1.59-216-3.62C261.55,331.85,155.75,329.72,133.22,330.74Z"/></g><g id="Ebene_8" data-name="Ebene 8"><polygon class="cls-2" points="355.28 275.62 168.28 325.62 154.28 320.62 100.28 117.62 230.28 84.62 358.28 261.62 355.28 275.62"/><polygon class="cls-3" points="157.28 312.62 716.28 235.62 373.28 27.62 114.28 149.62 157.28 312.62"/><polygon class="cls-4" points="78.28 121.62 155.53 320.85 159.28 308.62 351.28 226.62 352.28 209.62 336.28 183.62 241.28 41.62 225.28 42.62 216.28 49.62 82.28 111.62 78.28 121.62"/><polygon class="cls-5" points="190.14 167.37 202.14 205.26 208.46 206.52 245.72 191.37 247.61 186.31 217.3 152.84 206.56 152.21 193.93 157.89 190.14 167.37"/><polygon class="cls-5" points="175.62 131.37 181.93 147.79 186.99 150.95 201.51 146.53 201.51 140.21 190.77 125.05 175.62 131.37"/><polygon class="cls-5" points="230.83 139.92 233.01 126.45 235.73 129.63 235.63 142.33 230.83 139.92"/><polygon class="cls-5" points="237.05 117.08 231.15 105.31 235.08 105.7 242.37 116.27 237.05 117.08"/><polygon class="cls-5" points="229.37 97.37 217.7 92.37 220.43 89.78 232.94 93.32 229.37 97.37"/><polygon class="cls-5" points="208.11 87.84 196.01 89.62 196.35 85.99 209.06 82.51 208.11 87.84"/><polygon class="cls-5" points="185.56 89.26 175.14 94.75 173.67 91.47 184.69 83.88 185.56 89.26"/><polygon class="cls-5" points="164.14 98.78 156.07 106.75 153.25 104.49 161.73 93.86 164.14 98.78"/><polygon class="cls-5" points="147.42 114.23 142.64 124.06 138.97 123.47 143.46 110.39 147.42 114.23"/><polygon class="cls-5" points="138.9 134.49 139.74 144.99 136.42 147 133.48 133.23 138.9 134.49"/><polygon class="cls-5" points="143.58 153.77 150.69 161.02 150 165.07 138.59 156.36 143.58 153.77"/><polygon class="cls-5" points="161.28 166.72 170.91 168.52 173.37 172.15 158.74 171.8 161.28 166.72"/><polygon class="cls-6" points="82.28 113.17 159.25 309.32 155.53 320.85 78.56 121.17 82.28 113.17"/><polygon class="cls-6" points="351.28 226.62 159.28 308.62 154.28 317.12 155.53 320.85 160.28 311.62 353.28 229.62 352.28 209.62 351.28 226.62"/><polygon class="cls-6" points="223.78 45.12 227.78 57.12 216.28 49.62 223.78 45.12"/><polygon class="cls-1" points="170.28 245.12 167.78 255.62 175.28 277.12 179.28 278.12 314.28 219.62 315.28 211.62 294.28 193.62 288.78 193.62 170.28 245.12"/><path class="cls-5" d="M181.49,250.2l7.8-3.29a7.8,7.8,0,0,1,2.53-.62,6.68,6.68,0,0,1,2.31.25,5.44,5.44,0,0,1,1.88,1,4.27,4.27,0,0,1,1.23,1.58,6.62,6.62,0,0,1,.6,2.23,4.67,4.67,0,0,1-.31,2.13,5.59,5.59,0,0,1-1.35,1.91,8.21,8.21,0,0,1-2.5,1.54l-2.39,1,1.37,3,1.58-.66,1.33,2.86-7.24,3L187,263.26l1.81-.75-4.4-10.15-1.77.74Zm6.69.59,1.85,4.28,1.54-.65a3.83,3.83,0,0,0,1.81-1.35,1.93,1.93,0,0,0,0-1.91,2.18,2.18,0,0,0-1.41-1.3,3.43,3.43,0,0,0-2.3.29Z"/><path class="cls-5" d="M211.55,253l1.64-.7-1.87-1.95-5.08,2.17.35,2.58,1.77-.75,1.41,2.85-6.41,2.7L202,257l1.26-.53-1.55-14.89,4.27-1.84,10.64,11.05,1.18-.51,1.48,2.84L213,255.83Zm-5.73-3.52,3.32-1.42L205,243.63Z"/><path class="cls-5" d="M222.54,237.93a2,2,0,0,0-.6-.57,2.26,2.26,0,0,0-.8-.33,3,3,0,0,0-.9-.05,2.49,2.49,0,0,0-.89.23,3.13,3.13,0,0,0-.7.4,1.85,1.85,0,0,0-.46.52,1.19,1.19,0,0,0-.19.61,1.48,1.48,0,0,0,.17.71,1.53,1.53,0,0,0,.58.66,2.1,2.1,0,0,0,.75.22,4.1,4.1,0,0,0,.85,0l.86-.1,3.34-.29A5.15,5.15,0,0,1,226,240a4.74,4.74,0,0,1,1.35.48,5.11,5.11,0,0,1,1.23.93,5.71,5.71,0,0,1,1,1.41,5.62,5.62,0,0,1,.71,2.25,4.7,4.7,0,0,1-.3,2.12,5.3,5.3,0,0,1-1.27,1.84,7.43,7.43,0,0,1-2.2,1.41,8.09,8.09,0,0,1-1.86.56,7.52,7.52,0,0,1-1.83.07,6.25,6.25,0,0,1-1.68-.4,5,5,0,0,1-1.44-.86l-1.1.48-1.6-3.12,3.84-1.66.33.64a2.83,2.83,0,0,0,.61.79,2.23,2.23,0,0,0,.81.48,2.61,2.61,0,0,0,1,.12,3.82,3.82,0,0,0,1.17-.32,2.08,2.08,0,0,0,1.21-1.05,1.6,1.6,0,0,0-.14-1.41,1.48,1.48,0,0,0-.52-.58,2.31,2.31,0,0,0-.68-.25,3.9,3.9,0,0,0-.77,0l-.78.06-2.8.29a8,8,0,0,1-1.62,0,5.18,5.18,0,0,1-3.05-1.42,5.54,5.54,0,0,1-1.14-1.59,4.94,4.94,0,0,1-.56-2.18,4.36,4.36,0,0,1,.44-2,5.33,5.33,0,0,1,1.33-1.7,8,8,0,0,1,2.07-1.29,6.93,6.93,0,0,1,1.87-.55,6.84,6.84,0,0,1,1.74-.05,5.76,5.76,0,0,1,1.51.38,4.73,4.73,0,0,1,1.19.7l1-.45,1.63,3.12L223,238.84Z"/><path class="cls-5" d="M235.14,232.33a2.42,2.42,0,0,0-.62-.57,2.75,2.75,0,0,0-.79-.33,2.93,2.93,0,0,0-.89-.05,2.65,2.65,0,0,0-.87.22,3.5,3.5,0,0,0-.66.4,1.87,1.87,0,0,0-.44.51,1.19,1.19,0,0,0-.16.62,1.53,1.53,0,0,0,.2.7,1.46,1.46,0,0,0,.59.65,1.92,1.92,0,0,0,.75.22,3.24,3.24,0,0,0,.82,0l.85-.1,3.27-.28a5.35,5.35,0,0,1,1.38.09,4.91,4.91,0,0,1,1.36.48,5.58,5.58,0,0,1,1.24.93,6,6,0,0,1,1.07,1.4,5.93,5.93,0,0,1,.79,2.23,4.64,4.64,0,0,1-.22,2.11,4.81,4.81,0,0,1-1.17,1.82,7,7,0,0,1-2.1,1.39,7.67,7.67,0,0,1-1.81.55,6.82,6.82,0,0,1-1.8.06,6.27,6.27,0,0,1-1.67-.4,5,5,0,0,1-1.44-.86l-1.07.47-1.7-3.1,3.71-1.63.36.63a2.9,2.9,0,0,0,.62.79,2.27,2.27,0,0,0,.82.48,2.36,2.36,0,0,0,1,.12,3.48,3.48,0,0,0,1.14-.31,2,2,0,0,0,1.16-1,1.62,1.62,0,0,0-.2-1.39,1.52,1.52,0,0,0-.54-.58,1.8,1.8,0,0,0-.68-.25,3.09,3.09,0,0,0-.75,0l-.76.05-2.75.27a6.52,6.52,0,0,1-1.59,0,5.23,5.23,0,0,1-1.59-.44,5.62,5.62,0,0,1-1.46-1,6,6,0,0,1-1.18-1.59,5.12,5.12,0,0,1-.64-2.17,4.1,4.1,0,0,1,.36-2,4.92,4.92,0,0,1,1.23-1.68,7.46,7.46,0,0,1,2-1.27,6.76,6.76,0,0,1,1.82-.55,6.49,6.49,0,0,1,1.7,0,5.32,5.32,0,0,1,1.5.38,4.68,4.68,0,0,1,1.2.7l1-.45,1.72,3.11-3.58,1.61Z"/><path class="cls-5" d="M237.79,225.65l6.7-3.07a6.13,6.13,0,0,1,2.25-.57,6.5,6.5,0,0,1,2.17.27,6.35,6.35,0,0,1,1.9,1,5.43,5.43,0,0,1,1.4,1.55,8.08,8.08,0,0,1,.92,2.17,4.64,4.64,0,0,1,.05,2.06,4.12,4.12,0,0,1-.94,1.83,5.94,5.94,0,0,1-2.07,1.45l-2,.94,1.76,3,1.36-.62,1.7,2.79-6.26,2.81-1.66-2.8,1.57-.7-5.71-9.91-1.53.7Zm6.29.67,2.41,4.17,1.33-.61a2.74,2.74,0,0,0,1.45-1.28,2,2,0,0,0-.27-1.85,2.66,2.66,0,0,0-1.51-1.28,2.88,2.88,0,0,0-2.09.25Z"/><path class="cls-5" d="M267.21,232.23a6.58,6.58,0,0,1-2,.57,8,8,0,0,1-2.19,0,9.33,9.33,0,0,1-2.2-.59,11.13,11.13,0,0,1-2.1-1.11,12.28,12.28,0,0,1-1.88-1.59,11.43,11.43,0,0,1-1.55-2,10.86,10.86,0,0,1-1.05-2.25,9.66,9.66,0,0,1-.47-2.23,8.26,8.26,0,0,1,.09-2.12,6.56,6.56,0,0,1,.62-1.89,6,6,0,0,1,1.12-1.56,5.67,5.67,0,0,1,1.62-1.13,6.13,6.13,0,0,1,2-.57,7.65,7.65,0,0,1,2.08.05,9.29,9.29,0,0,1,2.1.62,11.35,11.35,0,0,1,2,1.12,13.31,13.31,0,0,1,1.88,1.59,13.08,13.08,0,0,1,1.6,2,11.13,11.13,0,0,1,1.14,2.22,9.9,9.9,0,0,1,.58,2.21,7.78,7.78,0,0,1,0,2.1,6.2,6.2,0,0,1-.55,1.88,5.72,5.72,0,0,1-2.8,2.71Zm-2.06-3.18a2.78,2.78,0,0,0,1.24-1.07,3.34,3.34,0,0,0,.49-1.57,5.21,5.21,0,0,0-.24-1.87,7.71,7.71,0,0,0-.92-2,9,9,0,0,0-1.44-1.73,7.39,7.39,0,0,0-1.71-1.18,5.12,5.12,0,0,0-1.78-.5,3.45,3.45,0,0,0-1.68.3,2.8,2.8,0,0,0-1.21,1.07,3.43,3.43,0,0,0-.51,1.57,5.71,5.71,0,0,0,.18,1.89,7.62,7.62,0,0,0,.87,2,8,8,0,0,0,1.43,1.72,7.49,7.49,0,0,0,1.72,1.17,5.2,5.2,0,0,0,1.83.49A3.51,3.51,0,0,0,265.15,229.05Z"/><path class="cls-5" d="M265.69,212.58l7-3.38a4.85,4.85,0,0,1,2-.52,5.29,5.29,0,0,1,1.94.29,6,6,0,0,1,1.74,1,6.55,6.55,0,0,1,1.39,1.49,8,8,0,0,1,.79,1.42,4.38,4.38,0,0,1,.3,1.24,3.47,3.47,0,0,1-.12,1.12,4.82,4.82,0,0,1-.48,1.07,3.4,3.4,0,0,1,1.33.42,6.4,6.4,0,0,1,1.48,1.14l1.83,1.76,1.09-.53,2.13,2.94-3.89,1.87-3.06-3.35a8.42,8.42,0,0,0-1-1,3.32,3.32,0,0,0-1-.56,2.46,2.46,0,0,0-1-.11,2.93,2.93,0,0,0-1,.31l-1.14.54,2.26,3.32,1.24-.59,1.91,2.75-5.71,2.7-1.86-2.76,1.43-.67-6.45-9.77-1.39.67Zm6.07.72,2.45,3.7,1.75-.84a3.43,3.43,0,0,0,.82-.54,1.69,1.69,0,0,0,.46-.66,1.58,1.58,0,0,0,.05-.78,2.56,2.56,0,0,0-.4-.89,2.6,2.6,0,0,0-1.47-1.12,2.8,2.8,0,0,0-1.93.29Z"/><path class="cls-5" d="M289.71,217.53l1.34-.66-6.95-9.78-1.53.77,1.36,2-2.75,1.37L278,206.55l11.28-5.69,3.31,4.61L290,206.82l-1.4-2-1.71.86,7,9.76,1.35-.66,2,2.72-5.56,2.72Z"/><polygon class="cls-7" points="239.28 45.62 348.3 209.11 351.29 226.31 352.28 209.62 239.28 45.62"/><ellipse class="cls-1" cx="329.78" cy="84.09" rx="16.5" ry="2.03" transform="translate(-8.44 121.94) rotate(-20.69)"/><ellipse class="cls-1" cx="299.78" cy="45.15" rx="16.5" ry="2.03" transform="translate(29.02 181.51) rotate(-35.3)"/><ellipse class="cls-1" cx="94.71" cy="85.84" rx="0.98" ry="6.42" transform="translate(-5.01 5.88) rotate(-3.46)"/><ellipse class="cls-1" cx="130.53" cy="53.39" rx="1.26" ry="10.29" transform="matrix(1, -0.06, 0.06, 1, -2.94, 7.86)"/><ellipse class="cls-1" cx="243.03" cy="12.4" rx="10.29" ry="1.26" transform="translate(173.86 245.7) rotate(-76.41)"/><ellipse class="cls-1" cx="190.53" cy="24.4" rx="10.29" ry="1.26" transform="translate(165.52 214.84) rotate(-89.82)"/><ellipse class="cls-1" cx="384.28" cy="161.43" rx="16.5" ry="2.81"/><ellipse class="cls-1" cx="271.78" cy="296.53" rx="16.5" ry="1.97"/><ellipse class="cls-1" cx="350.28" cy="277.25" rx="16.5" ry="1.13"/><ellipse class="cls-1" cx="326.28" cy="253.75" rx="16.5" ry="1.13" transform="translate(-25.34 36.47) rotate(-6.16)"/><ellipse class="cls-2" cx="354.28" cy="310.75" rx="16.5" ry="1.13"/><ellipse class="cls-1" cx="359.28" cy="100.62" rx="16.5" ry="1.83" transform="translate(-12.04 64.16) rotate(-10.04)"/><ellipse class="cls-1" cx="463.28" cy="197.12" rx="16.5" ry="1.71"/><circle class="cls-1" cx="628.78" cy="201.12" r="16.5"/><ellipse class="cls-2" cx="499.28" cy="161.37" rx="16.5" ry="1.75" transform="translate(-10.34 36.45) rotate(-4.14)"/><ellipse class="cls-2" cx="616.28" cy="215.37" rx="16.5" ry="2.25"/><ellipse class="cls-2" cx="492.28" cy="241.37" rx="16.5" ry="1.75"/><ellipse class="cls-2" cx="397.28" cy="246.37" rx="16.5" ry="2.25"/><ellipse class="cls-2" cx="419.28" cy="197.5" rx="8.31" ry="2.93"/></g></svg>