<svg xmlns="http://www.w3.org/2000/svg" viewBox="0 0 801.9 409.98"><defs><style>.cls-1{fill:#ffeeb8;}.cls-2{fill:#468f99;}.cls-3,.cls-5{fill:none;stroke-miterlimit:10;stroke-width:25.75px;}.cls-3{stroke:#f4ca98;}.cls-4{fill:#f7931e;}.cls-5{stroke:#f7931e;}.cls-6{fill:#c24a4a;}.cls-7{fill:#f4ca98;}.cls-8{fill:#754c24;}.cls-9{fill:#e56a6a;}</style></defs><title>ablehnung</title><g id="Bcakground"><path class="cls-1" d="M443.22,289.91c-.09-2.52,18.59-.73,41.53-1.6s41.42-4.07,41.52-1.55-18.24,9.81-41.18,10.69S443.32,292.44,443.22,289.91Z"/><path class="cls-1" d="M749.32,279.41c-.62,2.45-18-4.59-40.26-10.28s-40.87-7.87-40.25-10.32,20.28-4.22,42.52,1.47S750,277,749.32,279.41Z"/></g><g id="asdsa"><path class="cls-1" d="M658.48,375.54c50.81.89,72.58-16,72.58-16s52.68-44.08,15.91-69S656,263.37,613.37,273s-49.53,29-130.17,28.65-118.81-29.24-206.49-33.35-144.46-7.14-198.39,10.24-69.7,38.68-46.54,59.34,73.12,41.08,128.3,41.08S607.67,374.65,658.48,375.54Z"/></g><g id="Ebene_8" data-name="Ebene 8"><ellipse class="cls-2" cx="202.81" cy="376.29" rx="141.15" ry="8.58"/><polyline class="cls-3" points="254.41 291.67 235.25 347.28 244.94 364.65 272.37 358.04"/><polygon class="cls-4" points="292.61 180.26 215.11 218.53 198.27 209.8 141.91 97.43 229.12 53.69 292.61 180.26"/><polygon class="cls-4" points="217.31 300.09 190.84 291.75 221.14 195.58 250.42 197.78 217.31 300.09"/><polyline class="cls-5" points="166.77 300.75 85.82 289.24 53.47 197.08 85.82 168.48"/><polygon class="cls-6" points="245.2 375.78 114.07 374.33 151.87 268.2 198.26 268.2 219.23 284.2 224.88 273.08 266.91 283.46 269.81 288.63 245.2 375.78"/><polygon class="cls-6" points="159.3 321.99 92.97 311.39 86.34 302.26 93.5 303.26 108.39 295.02 105.02 279.13 97.12 277.82 94.76 258.83 100.38 250.81 162.34 268.2 159.3 321.99"/><polygon class="cls-7" points="292.61 180.26 239.09 191.36 208.91 124.87 248.99 93.31 292.61 180.26"/><polygon class="cls-8" points="180.99 181.24 182.31 156.8 204.03 174.51 206.85 151.93 186.34 123.11 225.02 88.09 232.63 74.55 235.14 87.18 245.48 86.3 253.27 101.84 266.5 79.87 224.14 19.89 150.35 51.5 106.35 94.14 131.42 149.49 178.6 187.67 180.99 181.24"/><path class="cls-4" d="M188.27,155.62a17.08,17.08,0,1,1-20.07-13.43A17.07,17.07,0,0,1,188.27,155.62Z"/><path class="cls-8" d="M250.25,117c.87,4.4-1.64,8.61-5.6,9.4s-7.9-2.15-8.77-6.55,1.63-8.62,5.6-9.4S249.38,112.56,250.25,117Z"/><path class="cls-7" d="M253.48,126.45c.88,4.4-1.63,8.61-5.6,9.4s-7.89-2.15-8.77-6.55,1.64-8.62,5.61-9.4S252.61,122,253.48,126.45Z"/><path class="cls-8" d="M260.38,113.83c1.52,3.56,1.76,6.88.53,7.41s-3.47-1.94-5-5.51-1.76-6.89-.53-7.41S258.85,110.26,260.38,113.83Z"/><path class="cls-7" d="M262.46,121.7c1.52,3.57,1.76,6.89.53,7.41s-3.47-1.94-5-5.51-1.76-6.88-.53-7.41S260.94,118.13,262.46,121.7Z"/><polygon class="cls-8" points="246.42 92.53 246.27 99.96 222.25 114.08 217.35 105.76 238.94 93.07 240.76 84.72 246.42 92.53"/><rect class="cls-8" x="250.75" y="89.92" width="9.07" height="15.31" transform="translate(122.41 336.4) rotate(-81.83)"/><path class="cls-4" d="M273.89,139.61a5.42,5.42,0,1,1-.8-7.32A5.21,5.21,0,0,1,273.89,139.61Z"/><polygon class="cls-9" points="207.4 285.06 115.15 267.93 100.38 250.81 198.26 268.2 207.4 285.06"/><rect class="cls-7" x="268.16" y="151.98" width="14.61" height="9.3" transform="translate(-35.87 97.6) rotate(-18.89)"/><polygon class="cls-4" points="284.27 159.79 274.22 167.13 272.75 162.82 282.8 155.49 284.27 159.79"/><polygon class="cls-7" points="63.48 197.78 38.44 193.01 77.31 158.94 91.41 175.1 63.48 197.78"/><polyline class="cls-9" points="228.54 273.99 228.2 292.5 262.77 303.58 266.91 283.46"/><polygon class="cls-7" points="229.28 231.35 219.23 284.2 227.36 268.2 244.13 214.97 229.28 231.35"/><polygon class="cls-4" points="96.27 201.25 68.95 198.69 77.45 189.47 97.55 197.78 96.27 201.25"/><polygon class="cls-7" points="97.55 197.78 68.95 197.05 74.25 187.67 94.81 188.64 97.55 197.78"/><polygon class="cls-9" points="130.52 343.58 130.51 328.16 114.07 366.09 114.07 374.33 124.08 374.33 130.52 343.58"/><polygon class="cls-7" points="83.25 263.63 91.41 286.52 104.06 286.52 100.38 278.37 94.76 273.99 75.09 220.56 83.25 263.63"/><polygon class="cls-9" points="117.29 278.49 117.29 297.45 128.62 300.09 124.23 291.73 117.29 278.49"/></g></svg>