<svg xmlns="http://www.w3.org/2000/svg" viewBox="0 0 85.13 111.53"><defs><style>.cls-1{fill:#c24a4a;}.cls-2{fill:#f7931e;}.cls-3{fill:#f4ca98;}.cls-4{fill:#f47f5b;}.cls-5{fill:#7d4e24;}.cls-6{fill:#754c24;}.cls-7{fill:#dd992e;}</style></defs><title>kapitelbild_3</title><g id="Bcakground"><path class="cls-1" d="M61.12,84.53c-21.43-2.37-25.47,1-39.1.32S8.52,76,13.08,72.07s9.15-4.85,8.77-12.43,7.09-6.24-7.69-11.45-11.62-14.77-3.3-19.6S27,44.07,36.32,41.6s15.25-16.29,15.9-6.82S82.56,86.91,61.12,84.53Z"/><ellipse class="cls-1" cx="27.11" cy="34.56" rx="0.75" ry="5.45" transform="translate(-16.69 31.29) rotate(-47.61)"/></g><g id="Ebene_8" data-name="Ebene 8"><path class="cls-2" d="M81.71,90.29c0,1.24-16.38,2.25-36.58,2.25s-36.59-1-36.59-2.25,16.38-2.24,36.59-2.24S81.71,89.05,81.71,90.29Z"/><rect class="cls-3" x="31.37" y="36.82" width="23.82" height="33.06" transform="translate(-9.41 9.27) rotate(-11.04)"/><rect class="cls-3" x="37.14" y="69.01" width="12.76" height="6.27" transform="matrix(0.06, -1, 1, 0.06, -31.02, 111.41)"/><polygon class="cls-3" points="53.91 84.88 30.8 84.88 30.8 79.67 38.04 78.41 47.03 76.84 55.42 81.39 53.91 84.88"/><polygon class="cls-2" points="46.59 70.48 41.64 73.8 41.64 80.79 37.2 79.37 37.2 78.48 39.89 78.12 40.02 70.48 46.87 68.59 46.59 70.48"/><polygon class="cls-4" points="36.6 78.01 40.02 80.08 48.75 80.08 50.39 78.66 55.92 80.21 58.13 89.68 26.89 89.68 26.89 80.08 36.6 78.01"/><polygon class="cls-2" points="58.13 67.29 46.81 69.5 34.75 71.85 28.42 39.4 41.21 36.91 53.63 44.22 39.67 50.93 40.63 68 57.82 65.69 58.13 67.29"/><polygon class="cls-5" points="55.39 44.06 49.62 45.19 47.03 42.05 45.15 46.06 27.13 49.58 24.63 36.76 26.89 32.78 29.1 32.35 45.02 29.25 52.22 27.84 55.39 44.06"/><polygon class="cls-5" points="38.08 64.14 32.51 65.23 26.94 49.47 34.92 47.92 38.08 64.14"/><path class="cls-2" d="M34.7,59c0,2.4-1.56,4.36-3.49,4.36s-3.5-2-3.5-4.36,1.56-4.37,3.5-4.37S34.7,56.62,34.7,59Z"/><polygon class="cls-2" points="46.95 67.17 48.58 69.54 47.68 72.43 55.78 76.84 61.42 70.07 59.93 68.14 59.16 68.14 59.05 67 57.77 65.33 59.09 60.71 57.77 56.98 55.49 57.07 56.01 59.72 51.57 66.64 46.32 63.51 46.95 67.17"/><polygon class="cls-2" points="49.48 50.83 44.93 52.33 44.49 50.98 49.04 49.48 49.48 50.83"/><rect class="cls-2" x="49.29" y="47.02" width="4.8" height="1.42"/><rect class="cls-2" x="38.35" y="77.68" width="17.06" height="3.38" transform="translate(-44.67 68.65) rotate(-52.75)"/><polygon class="cls-3" points="47.67 67 49.29 69.36 49.29 71.85 56.34 74.7 61.42 69.36 60.64 67.96 59.87 67.96 59.76 66.82 58.48 65.15 59.8 60.53 58.48 56.8 56.2 56.89 56.72 59.54 52.28 66.46 47.03 63.33 47.67 67"/><polygon class="cls-3" points="43.78 87.01 41.09 84.97 49.9 73.78 52.73 75.1 43.78 87.01"/><polygon class="cls-6" points="49.18 50.18 44.85 51.29 44.49 49.92 48.82 48.8 49.18 50.18"/><polygon class="cls-6" points="54.53 48.05 50.08 47.75 50.23 45.46 54.68 45.76 54.53 48.05"/><path class="cls-2" d="M54.35,59.35A.88.88,0,0,0,54,59a3.38,3.38,0,0,1-1.69,1.81,3.14,3.14,0,0,1-2.58.39.93.93,0,0,0,.06.68c.37.67,1.7.66,3,0S54.72,60,54.35,59.35Z"/><path class="cls-2" d="M52.38,55.9c0,.84-.38,1.53-.84,1.53s-.83-.69-.83-1.53.37-1.52.83-1.52S52.38,55.06,52.38,55.9Z"/><polygon class="cls-1" points="32.04 91.28 44.64 77.21 50.08 80.73 42.02 91.28 32.04 91.28"/><path class="cls-6" d="M49.31,53A1.27,1.27,0,1,1,48,51.68,1.31,1.31,0,0,1,49.31,53Z"/><path class="cls-6" d="M54.05,50.88c.09,1.46-.37,2.67-1,2.71s-1.28-1.1-1.38-2.55.38-2.67,1.05-2.71S54,49.43,54.05,50.88Z"/><polygon class="cls-1" points="26.89 89.68 32.04 91.28 38.8 90.48 26.89 80.08 26.89 89.68"/><polygon class="cls-4" points="46.59 74.7 42.54 79.22 49.57 82.22 49.84 82.22 53.25 77.75 46.59 74.7"/><polyline class="cls-7" points="26.89 32.78 51.69 29.2 55.39 44.06 52.22 27.84 26.89 32.78"/></g></svg>