<svg xmlns="http://www.w3.org/2000/svg" viewBox="0 0 801.9 409.98"><defs><style>.cls-1{fill:#ffeeb8;}.cls-18,.cls-2{fill:#e8d6bc;}.cls-17,.cls-3,.cls-8{fill:#dd992e;}.cls-3,.cls-5{opacity:0.5;}.cls-11,.cls-16,.cls-4{fill:none;stroke-miterlimit:10;}.cls-4{stroke:#e56a6a;}.cls-11,.cls-4{stroke-width:0.72px;}.cls-6{fill:#f4ca98;}.cls-7{fill:#f7931e;}.cls-9{fill:#754c24;}.cls-10{fill:#c24a4a;}.cls-11,.cls-16{stroke:#dd992e;}.cls-12{fill:#e56a6a;}.cls-13{fill:#878787;}.cls-14{fill:#e4ae5a;}.cls-15{fill:#fff;}.cls-16{stroke-width:42px;}.cls-17,.cls-18{fill-rule:evenodd;}</style></defs><title>plan</title><g id="Bcakground"><path class="cls-1" d="M654.33,101.29c-1.22,2.09-10.81-6.27-24.14-14s-25.34-12-24.12-14.06,15.21-1.29,28.54,6.46S655.55,99.19,654.33,101.29Z"/><path class="cls-1" d="M119.53,70.17c.39,2.39-12.33,2-27.55,4.52s-27.16,6.87-27.55,4.47S75.35,68.5,90.57,66,119.14,67.77,119.53,70.17Z"/></g><g id="asdsa"><path class="cls-1" d="M115.88,371.5C66.49,378.45,42.74,334,42.74,334s-58-116-25.87-187.6,84.62-82.31,127.59-59.84,52.62,74.9,131.18,66.91,85.64-32.34,170.49-51.36S585.86,69.77,641,112.58s73.74,99.73,54.26,158.36-65.1,119-118.88,123.88S165.27,364.55,115.88,371.5Z"/></g><g id="Ebene_8" data-name="Ebene 8"><polygon class="cls-2" points="465.05 198.5 602.89 235.52 602.55 238.17 605.96 236.34 613.64 238.4 580.18 295.84 577.85 293.97 579.41 298.14 554.3 341.96 531.09 336.21 532.01 332 527.92 335.42 455.94 317.6 456.69 314.16 450.82 316.33 418.87 308.42 465.05 198.5"/><path class="cls-3" d="M494.58,298.84c-.52,2.37-7.55,2.85-15.71,1.06s-14.34-5.17-13.82-7.54,7.56-2.85,15.71-1.06S495.1,296.46,494.58,298.84Z"/><path class="cls-3" d="M544.53,310.34c-.52,2.37-7.56,2.85-15.71,1.06s-14.34-5.17-13.82-7.55,7.56-2.85,15.71-1.06S545.05,308,544.53,310.34Z"/><polygon class="cls-2" points="480.62 202.25 482.77 192.47 464.65 181.17 450.33 186.81 447.87 198.02 401.32 293.31 404.08 304.07 430.09 312.35 480.62 202.25"/><polyline class="cls-4" points="485.78 209.56 513.43 219.52 531.26 222.43 557.79 229.25 600.68 240.73"/><line class="cls-4" x1="599.62" y1="245.58" x2="552.48" y2="331.89"/><polyline class="cls-4" points="436.94 304.48 448.85 308.65 526.18 329.17 549.36 333.01"/><polygon class="cls-3" points="480.62 202.25 485.73 203.81 438.54 314.02 424.96 310.71 480.62 202.25"/><path class="cls-3" d="M407.18,300l-2-7.4,5.57.51,8.07.75,5.93,8,1.68,2.38-3,3.73-5.92-9.72-7,.34,2,2.58,2.61.58,1.54,2.17s-.42,3.57-2.45,2S407.18,300,407.18,300Z"/><polygon class="cls-3" points="425.62 292.69 428.91 302.72 474.32 209.28 425.62 292.69"/><g class="cls-5"><rect class="cls-6" x="491.58" y="243.85" width="23.43" height="16.88" transform="translate(117.45 662.27) rotate(-73.36)"/><rect class="cls-6" x="492.74" y="261.95" width="9.05" height="4.45" transform="translate(14.7 554.33) rotate(-59)"/><polygon class="cls-6" points="499.59 275.59 485.08 267.98 486.8 264.71 491.76 266.3 497.92 268.27 501.69 273.9 499.59 275.59"/><polygon class="cls-7" points="499.73 264.14 495.54 264.6 493.24 268.98 490.92 266.63 491.21 266.07 493.02 266.73 495.61 261.98 500.54 263.05 499.73 264.14"/><polygon class="cls-8" points="490.99 265.58 492.45 268 497.93 270.88 499.43 270.52 502.39 273.32 490.07 300.17 470.46 289.88 484.21 263.68 490.99 265.58"/><polygon class="cls-7" points="508.03 265.94 500.2 263.6 491.86 261.1 498.57 238.65 507.42 241.3 512.8 249.97 501.83 249.59 496.81 260.62 508.36 264.83 508.03 265.94"/><polygon class="cls-9" points="513.96 250.46 509.97 249.26 509.38 246.44 506.88 248.34 494.4 244.61 497.05 235.74 499.79 233.99 501.31 234.45 512.33 237.74 517.31 239.23 513.96 250.46"/><polygon class="cls-9" points="496.49 257.36 492.63 256.2 494.32 244.48 499.84 246.13 496.49 257.36"/><path class="cls-7" d="M496.05,253c-.79,1.51-2.42,2.22-3.63,1.58s-1.55-2.38-.76-3.89,2.42-2.22,3.63-1.58S496.84,251.52,496.05,253Z"/><rect class="cls-7" x="505.93" y="250.28" width="1.01" height="3.4" transform="translate(174.26 709.84) rotate(-80.49)"/><rect class="cls-7" x="509.92" y="249.84" width="1.01" height="3.4" transform="translate(50.62 586.77) rotate(-62.33)"/><rect class="cls-9" x="506.12" y="249.81" width="1.01" height="3.17" transform="translate(145.79 686.9) rotate(-76.75)"/><polygon class="cls-9" points="512.11 252.67 509.41 251.02 510.26 249.63 512.96 251.28 512.11 252.67"/><path class="cls-7" d="M508.27,259.7a.61.61,0,0,0-.13-.35,2.37,2.37,0,0,1-1.66.58,2.23,2.23,0,0,1-1.74-.6.65.65,0,0,0-.19.44c0,.55.85,1,1.88,1S508.28,260.25,508.27,259.7Z"/><path class="cls-7" d="M508.17,256.89c-.28.53-.74.84-1,.69s-.3-.71,0-1.24.74-.83,1-.68S508.45,256.37,508.17,256.89Z"/><path class="cls-9" d="M507.19,254.09a.9.9,0,1,1-.35-1.27A.93.93,0,0,1,507.19,254.09Z"/><path class="cls-9" d="M510,254.82a.82.82,0,0,1-1.2.45,1.16,1.16,0,0,1-.5-1.39.83.83,0,0,1,1.21-.45A1.15,1.15,0,0,1,510,254.82Z"/><polygon class="cls-10" points="484.47 264.44 470.98 290.15 473.17 291.3 485.2 265.7 484.47 264.44"/></g><g class="cls-5"><polygon class="cls-6" points="534.79 268.67 548.84 274.98 557.63 253.9 543.59 247.59 534.79 268.67"/><polygon class="cls-6" points="537.68 276.57 541.53 277.81 544.31 269.42 540.46 268.18 537.68 276.57"/><polygon class="cls-6" points="531.54 278.76 535.84 284.75 545.4 284.21 546.72 280.85 542.7 278.33 538.35 275.45 531.51 276.15 531.54 278.76"/><polygon class="cls-7" points="539.58 271.2 541.7 274.51 539.93 279.01 542.96 279.15 543.18 278.57 541.66 277.7 543.52 272.75 539.89 269.92 539.58 271.2"/><polygon class="cls-8" points="543.66 278.41 541.09 278.94 536.18 282.75 535.85 276.88 535.23 275.58 531.51 275.27 525.45 283.37 526.67 285.99 519.63 301.58 538.38 308.95 548.96 282.04 543.66 278.41"/><polygon class="cls-7" points="534.79 268.67 541.59 271.73 548.84 274.98 557.63 253.9 549.95 250.44 541.04 253.68 548.84 260.15 545.71 271.56 535.23 267.63 534.79 268.67"/><polygon class="cls-9" points="539.96 253.33 543.43 254.89 545.52 253.12 546.11 256.09 556.94 260.96 560.41 252.63 559.58 249.63 558.25 249.03 548.68 244.73 544.36 242.79 539.96 253.33"/><polygon class="cls-9" points="547.88 269.3 551.23 270.81 557.07 260.91 552.28 258.76 547.88 269.3"/><polygon class="cls-7" points="543.98 259.24 546.63 260.88 547.11 260.03 544.46 258.39 543.98 259.24"/><rect class="cls-7" x="540.83" y="255.85" width="0.99" height="3.09" transform="translate(174.05 731.1) rotate(-77.64)"/><polygon class="cls-9" points="544.25 258.2 546.81 259.56 547.24 258.67 544.68 257.32 544.25 258.2"/><polygon class="cls-9" points="540.2 257.53 543.04 257.94 543.29 256.37 540.44 255.96 540.2 257.53"/><path class="cls-7" d="M539.06,264.32a.57.57,0,0,1,.25-.26,2.22,2.22,0,0,0,1.12,1.22,1.87,1.87,0,0,0,1.66.23.68.68,0,0,1,0,.47c-.23.47-1.09.49-1.92,0S538.83,264.79,539.06,264.32Z"/><path class="cls-7" d="M541.14,262.17c-.13.56,0,1.08.3,1.14s.63-.35.75-.91,0-1.09-.3-1.15S541.26,261.6,541.14,262.17Z"/><path class="cls-9" d="M543.4,261.06a.83.83,0,1,0,1.6.35.88.88,0,0,0-.6-1.09A.89.89,0,0,0,543.4,261.06Z"/><path class="cls-9" d="M540.6,259.87a.72.72,0,0,0,.4,1.06,1.05,1.05,0,0,0,1.12-.7.73.73,0,0,0-.4-1.06A1,1,0,0,0,540.6,259.87Z"/><polygon class="cls-9" points="549.55 281.24 544.92 279.42 552.42 260.37 556.35 262.13 549.55 281.24"/><rect class="cls-9" x="524.02" y="263.68" width="24.5" height="1.13" transform="translate(94.08 666.58) rotate(-68.53)"/><rect class="cls-9" x="535.2" y="268.39" width="3.09" height="5.4" transform="translate(87.98 671.34) rotate(-68.53)"/><rect class="cls-9" x="544.1" y="271.89" width="3.09" height="5.4" transform="translate(90.33 681.81) rotate(-68.52)"/><polygon class="cls-10" points="525.69 283.88 527.83 287.26 539.49 291.85 540.83 289.84 533.82 287.08 533.74 286.12 532.8 286.62 525.69 283.88"/><polygon class="cls-10" points="547.08 282.23 535.79 307.01 538.42 308.31 548.17 282.66 547.08 282.23"/></g><polyline class="cls-11" points="513.2 234.29 515.13 233.18 526.4 236.84 529.04 232.58"/><rect class="cls-8" x="543.39" y="226.6" width="3.49" height="19.02" transform="translate(197.64 717.95) rotate(-77.62)"/><rect class="cls-8" x="496.51" y="300.43" width="1.49" height="19.77" transform="translate(87.56 729.48) rotate(-77.62)"/><rect class="cls-8" x="495.98" y="302.86" width="1.49" height="19.77" transform="translate(84.74 730.86) rotate(-77.62)"/><rect class="cls-8" x="524.73" y="305.77" width="1.49" height="19.77" transform="translate(104.5 761.24) rotate(-77.62)"/><rect class="cls-8" x="524.04" y="308.94" width="1.49" height="19.77" transform="translate(100.86 763.04) rotate(-77.62)"/><polyline class="cls-11" points="559.81 266.74 566.5 268.02 570.56 249.53 557.84 240.68"/><polyline class="cls-11" points="546.94 302.59 558.58 304.13 551.02 323.82 540.94 321.69 540.68 319.76 538.78 319.43"/><polygon class="cls-12" points="512.91 279.71 510.57 269.93 512.18 268.38 515.71 268.48 516.68 271.5 519.46 269.98 522.3 270.6 522.59 272.8 521.06 276.26 512.91 279.71"/><line class="cls-4" x1="524.24" y1="275.21" x2="532.06" y2="281.12"/><line class="cls-4" x1="509.65" y1="274.16" x2="492.16" y2="276.52"/><rect class="cls-8" x="501.11" y="284.86" width="6.82" height="0.66" transform="translate(39.63 631.25) rotate(-66.14)"/><rect class="cls-8" x="504.01" y="285.5" width="6.82" height="0.66" transform="translate(40.52 633.94) rotate(-66.1)"/><rect class="cls-8" x="506.91" y="286.14" width="6.82" height="0.66" transform="translate(41.54 636.81) rotate(-66.08)"/><rect class="cls-8" x="509.82" y="286.78" width="6.82" height="0.66" transform="translate(42.93 640.17) rotate(-66.12)"/><path class="cls-7" d="M596.85,348.64c0,3.74-40.91,6.77-91.37,6.77s-91.37-3-91.37-6.77,40.91-6.77,91.37-6.77S596.85,344.9,596.85,348.64Z"/><polygon class="cls-3" points="478.56 264.05 477.88 267.18 477.11 270.65 466.74 275.22 463.59 270.25 478.56 264.05"/><polygon class="cls-3" points="462.24 272.51 461.48 282.51 464.13 280.29 465.25 275.16 462.24 272.51"/><polygon class="cls-3" points="450 188.31 463.52 183.41 434.51 237.19 418.32 262.87 449.29 192.08 450 188.31"/><polyline class="cls-2" points="523.25 334.27 527.47 329.45 526.25 335.01"/><path class="cls-7" d="M122.85,319.66c0,2.27-22.62,4.11-50.53,4.11s-50.54-1.84-50.54-4.11,22.63-4.12,50.54-4.12S122.85,317.38,122.85,319.66Z"/><rect class="cls-13" x="67.16" y="291.08" width="10.31" height="26.63"/><polygon class="cls-8" points="107.41 293.8 31.76 293.8 51.73 182.32 127.38 182.32 107.41 293.8"/><polygon class="cls-14" points="104.07 287.92 31.8 287.92 50.88 181.43 123.14 181.43 104.07 287.92"/><polygon class="cls-13" points="98.58 276.93 41.23 276.93 56.37 192.42 113.72 192.42 98.58 276.93"/><polygon class="cls-15" points="71.7 198.02 96.52 262.68 96.52 272.77 88.65 273.35 57.78 210.54 60.2 198.02 71.7 198.02"/><polygon class="cls-15" points="77.47 198.02 96.52 249.5 96.52 245.09 77.47 198.02"/><polygon class="cls-15" points="57.78 223.76 79.57 272.77 77.15 272.87 54.76 232.53 57.78 223.76"/><path class="cls-16" d="M163.14,147.86c14.15-55.13,61.17-103.23,158-103.23s156.07,73.71,158,94.23"/><polygon class="cls-8" points="536.22 106.48 504.56 185.22 425.82 153.52 536.22 106.48"/><path class="cls-17" d="M132.74,310.25a15,15,0,0,1-2.33-4.44A10.68,10.68,0,0,1,142.71,292c10.09,2.36,20.36,4,30.55,5.89,1.16.22,1.17.21,1.11-1-.13-2.45-.31-4.9-.39-7.35-.21-6.4.79-12.51,4.2-18.08,1.86-3,4-5.86,6-8.75,1.86-2.59,4.35-3.37,7.3-3.41a17.24,17.24,0,0,1,2.38.11c4.31.51,7.74,2.39,9.81,6.33a2.5,2.5,0,0,1,.24,1.76c-1.08,5.21-2.12,10.44-3.19,15.65a3.8,3.8,0,0,0,.06,1.71,142,142,0,0,0,5.63,16.38,67.68,67.68,0,0,0,6.36,12.42c.37.55.67,1.42,1.55.51.18-.19.47,0,.7,0,.65.11,1.29.24,1.94.36l38.53,7.22a4.41,4.41,0,0,1,3.68,5.34c-1.63,7-3.7,13.9-5.55,20.86-1.19,4.51-2.45,9-3.66,13.51-.57,2.14-1.09,4.28-1.66,6.41-.89,3.32-1.85,6.61-2.7,9.93a4.86,4.86,0,0,1-5.22,3.48l-36.18-6.85a3.88,3.88,0,0,1-3.26-4.48c.09-.68.22-1.35.3-2,.05-.33.27-.74,0-1s-.65.11-.93.28a10.88,10.88,0,0,1-8,1.34c-2-.4-3.9-.78-5.85-1.16-5.85-1.13-11.72-2.2-17.58-3.31L157,361.86l-11.82-2.23a13.53,13.53,0,0,1-2.8-.78c-6.29-2.61-11.6-10.13-7.75-18.74a1,1,0,0,0-.12-1.2,11.55,11.55,0,0,1-1.17-12.47,2.13,2.13,0,0,0-.21-2.42c-2.66-4.16-3.36-8.42-.28-12.7C133.21,310.85,133,310.59,132.74,310.25Z"/><path class="cls-18" d="M168.82,358.73c7.78,1.47,15.56,2.93,23.33,4.43a6.48,6.48,0,0,0,3.75-.27c1-.4,2.12-.63,3.11-1.09a6.4,6.4,0,0,1,4.8-.35c.36.11.76.11,1.12.23.83.27,1.17.06,1.34-.86q3.49-18.76,7.1-37.52a1.54,1.54,0,0,0-.52-1.7c-.46-.37-.82-.85-1.27-1.22-3.22-2.64-5.26-6.06-7-9.76a195.39,195.39,0,0,1-9.86-26,3.14,3.14,0,0,1,0-1.61c1-5.09,1.91-10.19,2.91-15.28a1.49,1.49,0,0,0-.53-1.6,8.23,8.23,0,0,0-7.15-1.87,3.43,3.43,0,0,0-2.31,1.53A64.55,64.55,0,0,0,180,279a23.73,23.73,0,0,0-1.19,7,150.11,150.11,0,0,0,0,17c0,.94-.22,1-1,.82q-17.94-3.42-35.88-6.8c-3.26-.61-5.34.11-6.69,2.31a7,7,0,0,0,.69,7.78,8.66,8.66,0,0,0,2.49,2.14,1.25,1.25,0,0,1,.19,2.24c-4,3.05-4.13,7.8-.32,11.25.41.37.87.68,1.29,1a1.47,1.47,0,0,1-.1,2.55c-2.82,1.61-3.31,4.55-2.34,7.2a8.3,8.3,0,0,0,3.75,4.74,1.5,1.5,0,0,1,.21,2.31,1.37,1.37,0,0,1-.24.18c-3.63,2-3.55,5.45-1.83,8.47A14.71,14.71,0,0,0,142.1,353a5.83,5.83,0,0,0,2.85,1.36c8,1.48,15.9,3,23.85,4.5Z"/><ellipse class="cls-7" cx="274.72" cy="390.07" rx="6.82" ry="96.46" transform="translate(-117.73 661.39) rotate(-89.5)"/><path class="cls-16" d="M375.38,342.75c-40.46,21.2-130,9.28-130,9.28"/></g></svg>