<svg xmlns="http://www.w3.org/2000/svg" viewBox="0 0 245 155.33"><defs><style>.cls-1{fill:#ffeeb8;}.cls-2{fill:#468f99;}.cls-3{fill:none;stroke:#468f99;stroke-miterlimit:10;stroke-width:15px;}.cls-4{fill:#878787;}.cls-5{fill:#b2b2b2;}.cls-6{fill:#e56a6a;}.cls-7{fill:#fff;}</style></defs><title>rechner</title><g id="Bcakground"><path class="cls-1" d="M202.08,25.14c-.14.61-4-2.83-9.51-4.08s-10.47.18-10.33-.43,5.36-3,10.84-1.77S202.22,24.54,202.08,25.14Z"/></g><g id="asdsa"><path class="cls-1" d="M42.44,125.25c-15.63,3.59-24.42-9-24.42-9S-3.65,83.17,4.71,60.7,29.6,33.4,44,38.83,62.81,59.71,87.75,54.9,114.3,42.57,141,34.27s43.86-14,62.67-2.84,26.28,27.69,21.61,45.89S207.58,115,190.49,118.15,58.06,121.65,42.44,125.25Z"/></g><g id="Ebene_8" data-name="Ebene 8"><polygon class="cls-2" points="202.09 37.39 234.75 68.3 203.82 100.96 202.09 37.39"/><path class="cls-3" d="M50.81,1.2c0,154.93,95.68,68.35,154.13,68.35"/><polygon class="cls-4" points="10.24 56.47 65.39 136.07 140.5 112.13 144.61 101.9 78.65 30.03 10.42 48.11 10.24 56.47"/><polygon class="cls-5" points="23.5 49.19 71.29 120.54 137.96 100.87 77.41 35.68 23.5 49.19"/><polygon class="cls-6" points="30.38 52.77 43.37 66.99 87.78 57.04 75.17 42.16 30.38 52.77"/><polygon class="cls-7" points="39.27 54.13 44.03 59.7 81.48 55.37 39.27 54.13"/><polygon class="cls-4" points="50.93 73.16 55.3 77.53 64.4 75.36 60.93 69.97 50.93 73.16"/><polygon class="cls-4" points="65.06 68.65 69.43 73.03 78.53 70.85 75.06 65.46 65.06 68.65"/><polygon class="cls-4" points="79.19 64.15 83.56 68.53 92.67 66.35 89.2 60.96 79.19 64.15"/><polygon class="cls-4" points="58.42 84.06 62.8 88.44 71.9 86.26 68.43 80.87 58.42 84.06"/><polygon class="cls-4" points="72.17 79.68 76.55 84.06 85.65 81.88 82.18 76.49 72.17 79.68"/><polygon class="cls-4" points="87.1 74.92 91.47 79.3 100.57 77.12 97.1 71.73 87.1 74.92"/><polygon class="cls-4" points="66.95 94.64 71.33 99.02 80.43 96.84 76.96 91.45 66.95 94.64"/><polygon class="cls-4" points="83.87 89.25 88.24 93.63 97.34 91.45 93.88 86.06 83.87 89.25"/><polygon class="cls-4" points="95.9 84.71 107.37 102.57 127.55 95.87 112.34 81.4 95.9 84.71"/><polygon class="cls-4" points="76.12 105.01 80.49 109.39 89.59 107.21 86.13 101.82 76.12 105.01"/><polygon class="cls-4" points="90.25 100.51 94.63 104.89 103.73 102.71 100.26 97.32 90.25 100.51"/><rect class="cls-7" x="104.93" y="87.64" width="7.73" height="1.9" transform="translate(-21.76 37.22) rotate(-17.68)"/><polygon class="cls-7" points="107.72 91.21 115.09 88.86 116.25 90.47 108.88 92.82 107.72 91.21"/><path class="cls-2" d="M128.21,149.61c0,2.5-25.26,4.52-56.41,4.52s-56.42-2-56.42-4.52,25.26-4.51,56.42-4.51S128.21,147.12,128.21,149.61Z"/></g></svg>