<svg xmlns="http://www.w3.org/2000/svg" viewBox="0 0 494.62 457.14"><defs><style>.cls-1{fill:#ffeeb8;}.cls-2{fill:#f7931e;}.cls-3{fill:#b2b2b2;}.cls-4{fill:#dadada;}.cls-5{fill:#fff;}</style></defs><title>vase</title><g id="Ebene_8" data-name="Ebene 8"><path class="cls-1" d="M87.84,327.46c-.13-3.49,25.72-1,57.44-2.22s57.31-5.64,57.44-2.15-25.24,13.58-57,14.79S88,331,87.84,327.46Z"/><path class="cls-1" d="M120.63,412.64C92,416.32,78.86,376.43,78.86,376.43S47,272.44,66.51,211.59s50.08-67.7,74.61-46S170.5,233.4,216,230.22,281.06,29.49,330.39,17s86,10.08,117.33,50.06,37.13,186,25,236.19-39.3,100.63-70.47,102.31S149.28,409,120.63,412.64Z"/><path class="cls-2" d="M403.75,408.92c0,6.31-81,11.42-181,11.42s-181-5.11-181-11.42,81-11.42,181-11.42S403.75,402.61,403.75,408.92Z"/><path class="cls-3" d="M100,92.64l12.33,56.61L82.88,175.43l12,54.34,17.55,56a136.52,136.52,0,0,1,46.05,15.05,69.83,69.83,0,0,1,22.08-19.32c17.58-9.66,23.5-9.46,43-12,12.51-1.61,25.08,1,37.54,3.8L255,197l-9.16-53.24-37.1-20.12L199,73.43l14.65-13.82-3.33-17.2L77.91,68.11,81.24,85.3Z"/><rect class="cls-4" x="86.34" y="60.94" width="114.04" height="5.39" transform="translate(-9.5 28.48) rotate(-10.99)"/><rect class="cls-4" x="109.69" y="85.88" width="81.07" height="26.94" transform="translate(-16.18 30.45) rotate(-10.99)"/><polygon class="cls-4" points="227.28 148.9 98.7 173.85 118.91 150.72 206.79 133.66 227.28 148.9"/><path class="cls-4" d="M158.44,300.81a69.83,69.83,0,0,1,22.08-19.32c17.58-9.66,23.5-9.46,43-12,7.83-1,15.69-.35,23.53.95l-8.5-114.15-144.3,28L124.8,288.11A134.77,134.77,0,0,1,158.44,300.81Z"/><path class="cls-5" d="M195,155.16l13.4,116.31c4.22-.64,9-1.17,15.13-2a60.81,60.81,0,0,1,6.32-.44l-9.1-109.3-26.3-23.71L180,86.71l-9.88,1.92,9.76,50.25Z"/><rect class="cls-5" x="152.63" y="58.04" width="39.89" height="8.08" transform="matrix(0.98, -0.19, 0.19, 0.98, -8.67, 34.02)"/><path class="cls-3" d="M268.91,309.81l-1.05.67q-2,1.83-4.06,3.63c-7.66,6.57-15.4,13.43-24,18.67-23.17,14.11-52.36,19.88-78.88,12.56A117.23,117.23,0,0,1,128,330.65c-.31.06-.61.15-.92.21l-.24,0,7.91,70.43,3,9.48H258.05l5.11-9.48,10.45-92.63C272,309,270.46,309.38,268.91,309.81Z"/><path class="cls-4" d="M239.8,332.78c-23.17,14.11-52.36,19.88-78.88,12.56a121,121,0,0,1-22.72-8.8l4.36,45.92H251.11l7.55-63.94A149.36,149.36,0,0,1,239.8,332.78Z"/><path class="cls-5" d="M239.8,332.78a109.25,109.25,0,0,1-21.54,10.05l-4.2,54.44H233l7-64.63Z"/><path class="cls-3" d="M300,273l27.57-21.7,5.91,10.85L339,242l10.36-11.32s1.55,37.51,0,39.59-26.24,6.26-26.24,6.26Z"/><path class="cls-4" d="M301.87,268.61l27.57-21.7,5.91,10.85,5.52-20.21,5-.54s-1.15,26.74-2.7,28.82S325,272.08,325,272.08Z"/><polygon class="cls-3" points="122.83 297.68 116.45 321.65 140.88 330.45 149.22 317.66 132.84 314.06 122.83 297.68"/><polygon class="cls-3" points="6.02 290.39 37.52 354.09 56.59 373.62 50.04 349.71 77.46 330.87 6.02 290.39"/><polygon class="cls-3" points="248.73 253.59 236.21 281.88 255.28 301.41 248.73 277.5 276.15 258.66 248.73 253.59"/><polygon class="cls-3" points="297.55 298.79 285.03 327.08 304.1 346.61 297.55 322.7 324.97 303.86 297.55 298.79"/><polygon class="cls-3" points="366.29 288.55 342.73 293.01 361.8 312.54 376.48 305.39 382.67 269.79 366.29 288.55"/><polygon class="cls-4" points="366.92 286.43 343.36 290.88 362.42 310.42 377.11 303.27 383.3 267.67 366.92 286.43"/><polygon class="cls-3" points="197.51 303.9 167.33 310.69 162.99 337.64 178.3 318.14 209.76 328.96 197.51 303.9"/><polygon class="cls-4" points="209.2 279.26 188.58 283.9 185.61 302.31 196.07 288.99 217.56 296.38 209.2 279.26"/><polygon class="cls-3" points="91.06 329.44 81.63 368.5 109.22 390.06 101.84 359.75 115.76 329.44 98.7 345.6 91.06 329.44"/><polygon class="cls-3" points="362.09 314.06 328.76 330.23 328.76 353.13 396.64 361.21 362.7 343.7 362.09 314.06"/><polygon class="cls-3" points="220.11 298.82 215.06 329.34 253.59 336.72 285.03 279.26 235.83 303.04 232.83 300.32 220.11 298.82"/><polygon class="cls-4" points="225.28 294.11 220.23 324.62 258.76 332.01 290.2 274.55 241 298.33 238 295.61 225.28 294.11"/><polygon class="cls-3" points="351.91 202.81 373.49 217.8 362.7 202.81 351.91 202.81"/><polygon class="cls-3" points="391.72 305.19 403.75 322.7 403.75 305.19 391.72 305.19"/><polygon class="cls-3" points="162.99 221.06 162.99 258.42 132.84 273.24 158.44 300.81 143.35 273.24 169.47 258.42 162.99 221.06"/><polygon class="cls-3" points="244.53 208.18 236.25 213.57 249.52 240.51 211.56 251.29 216.65 270.37 223.51 269.51 224.6 258.42 256.18 239.28 243.77 221.06 244.53 208.18"/><polygon class="cls-3" points="122.5 187.97 179.85 187.97 152.23 213.57 186.52 228.56 193.41 275.3 188.3 277.5 179.85 234.19 143.35 213.57 173.76 192.01 122.5 187.97"/><polygon class="cls-4" points="359.49 315.12 331.48 328.71 331.48 347.97 388.53 354.76 360 340.04 359.49 315.12"/><polygon class="cls-4" points="17.32 294.59 43.61 347.74 59.52 364.04 54.05 344.08 76.94 328.37 17.32 294.59"/><polygon class="cls-5" points="86.87 254.55 103.87 221.06 116.45 239.28 126.82 230.67 122.5 253.59 106.84 239.28 86.87 254.55"/></g></svg>