<svg xmlns="http://www.w3.org/2000/svg" viewBox="0 0 801.9 409.98"><defs><style>.cls-1{fill:#ffeeb8;}.cls-2{fill:#f7931e;}.cls-3{fill:#b2b2b2;}.cls-4{fill:#dadada;}.cls-5{fill:#fff;}</style></defs><title>zerbruch</title><g id="Bcakground"><path class="cls-1" d="M118.59,292.16c-.09-2.52,18.59-.73,41.53-1.6s41.42-4.08,41.52-1.56-18.25,9.82-41.18,10.69S118.69,294.68,118.59,292.16Z"/><path class="cls-1" d="M749.32,279.41c-.62,2.45-18-4.59-40.26-10.28s-40.87-7.87-40.25-10.32,20.28-4.22,42.52,1.47S750,277,749.32,279.41Z"/><path class="cls-1" d="M81.7,226.08c1.42,2.08-20,5.19-38.91,18.15S14.55,275.1,13.13,273s5.56-23.37,24.5-36.33S80.27,224,81.7,226.08Z"/></g><g id="asdsa"><path class="cls-1" d="M658.48,375.54c50.81.89,72.58-16,72.58-16s52.68-44.08,15.91-69S656,263.37,613.37,273s-49.53,29-130.17,28.65S361,219.35,273.32,215.25s-151.78,6.13-205.71,23.51-59,78.41-35.83,99.07,73.12,41.08,128.3,41.08S607.67,374.65,658.48,375.54Z"/></g><g id="Ebene_8" data-name="Ebene 8"><path class="cls-2" d="M347,351.05c0,4.56-58.59,8.25-130.85,8.25s-130.86-3.69-130.86-8.25,58.59-8.26,130.86-8.26S347,346.49,347,351.05Z"/><path class="cls-2" d="M487.05,352.41c0,1.89-24.27,3.42-54.21,3.42s-54.21-1.53-54.21-3.42S402.9,349,432.84,349,487.05,350.52,487.05,352.41Z"/><path class="cls-3" d="M127.38,122.41l8.92,40.92L115,182.26l8.65,39.28L136.34,262a98.89,98.89,0,0,1,33.29,10.89,50.48,50.48,0,0,1,16-14c12.71-7,17-6.84,31.08-8.66,9-1.17,18.13.71,27.13,2.75l-4.38-55.14-6.63-38.49L206,144.85l-7.06-36.33,10.59-10L207.1,86.1l-95.69,18.57,2.41,12.43Z"/><rect class="cls-4" x="117.5" y="99.49" width="82.44" height="3.9" transform="translate(-16.42 32.1) rotate(-10.99)"/><rect class="cls-4" x="134.39" y="117.52" width="58.61" height="19.48" transform="translate(-21.25 33.53) rotate(-10.99)"/><polygon class="cls-4" points="219.39 163.07 126.44 181.12 141.05 164.39 204.59 152.06 219.39 163.07"/><path class="cls-4" d="M169.63,272.9a50.48,50.48,0,0,1,16-14c12.71-7,17-6.84,31.08-8.66a57.88,57.88,0,0,1,17,.69l-6.14-82.52L123.22,188.69l22.09,75A97.39,97.39,0,0,1,169.63,272.9Z"/><path class="cls-5" d="M196.05,167.61l9.68,84.08c3.06-.47,6.51-.85,10.94-1.42a43.67,43.67,0,0,1,4.57-.32l-6.58-79-19-17.14-10.43-35.68-7.14,1.39,7.06,36.33Z"/><rect class="cls-5" x="165.43" y="97.39" width="28.84" height="5.84" transform="translate(-15.82 36.11) rotate(-10.98)"/><path class="cls-3" d="M249.49,279.4l-.76.49c-1,.87-1.95,1.75-2.94,2.62-5.54,4.75-11.13,9.71-17.35,13.5-16.74,10.2-37.84,14.37-57,9.08a84.77,84.77,0,0,1-23.81-10.63c-.22.05-.44.12-.67.16l-.17,0,5.72,50.91,2.2,6.86h86.95l3.69-6.86,7.56-67C251.74,278.83,250.61,279.09,249.49,279.4Z"/><path class="cls-4" d="M228.44,296c-16.74,10.2-37.84,14.37-57,9.08A87.75,87.75,0,0,1,155,298.73l3.15,33.19h78.47l5.46-46.22A108.23,108.23,0,0,1,228.44,296Z"/><path class="cls-5" d="M228.44,296a79.35,79.35,0,0,1-15.56,7.26l-3,39.36H223.5l5.1-46.73Z"/><path class="cls-3" d="M271.93,252.82l19.93-15.69,4.27,7.85,4-14.61,7.49-8.18s1.12,27.12,0,28.62-19,4.52-19,4.52Z"/><path class="cls-4" d="M273.32,249.62l19.92-15.69,4.28,7.84,4-14.6,3.59-.39s-.83,19.32-2,20.83S290,252.13,290,252.13Z"/><polygon class="cls-3" points="143.89 270.63 139.27 287.96 156.93 294.32 162.97 285.07 151.12 282.47 143.89 270.63"/><polygon class="cls-3" points="59.44 265.36 82.22 311.41 96 325.53 91.27 308.25 111.09 294.63 59.44 265.36"/><polygon class="cls-3" points="234.9 238.76 225.85 259.21 239.63 273.33 234.9 256.05 254.72 242.43 234.9 238.76"/><polygon class="cls-3" points="270.19 271.44 261.14 291.88 274.93 306.01 270.19 288.72 290.02 275.1 270.19 271.44"/><polygon class="cls-3" points="319.88 264.04 302.85 267.26 316.64 281.38 327.25 276.21 331.73 250.47 319.88 264.04"/><polygon class="cls-4" points="320.34 262.5 303.31 265.72 317.09 279.84 327.71 274.67 332.18 248.94 320.34 262.5"/><polygon class="cls-3" points="197.88 275.13 176.06 280.04 172.92 299.52 183.99 285.42 206.73 293.24 197.88 275.13"/><polygon class="cls-4" points="206.32 257.32 191.42 260.67 189.27 273.98 196.84 264.35 212.37 269.69 206.32 257.32"/><polygon class="cls-3" points="120.92 293.59 114.1 321.83 134.04 337.41 128.71 315.5 138.78 293.59 126.44 305.28 120.92 293.59"/><polygon class="cls-3" points="316.85 282.47 292.75 294.16 292.75 310.72 341.82 316.56 317.29 303.9 316.85 282.47"/><polygon class="cls-3" points="214.21 271.46 210.56 293.52 238.41 298.86 261.14 257.32 225.57 274.51 223.41 272.54 214.21 271.46"/><polygon class="cls-4" points="217.95 268.05 214.3 290.11 242.15 295.45 264.88 253.91 229.31 271.1 227.14 269.13 217.95 268.05"/><polygon class="cls-3" points="309.49 202.05 325.09 212.89 317.29 202.05 309.49 202.05"/><polygon class="cls-3" points="338.27 276.06 346.97 288.72 346.97 276.06 338.27 276.06"/><polygon class="cls-3" points="172.92 215.25 172.92 242.25 151.12 252.96 169.63 272.9 158.72 252.96 177.61 242.25 172.92 215.25"/><polygon class="cls-3" points="231.86 205.93 225.88 209.83 235.47 229.3 208.03 237.09 211.71 250.89 216.67 250.27 217.46 242.25 240.29 228.41 231.32 215.25 231.86 205.93"/><polygon class="cls-3" points="143.65 191.32 185.11 191.32 165.14 209.83 189.93 220.67 194.91 254.46 191.21 256.05 185.11 224.73 158.72 209.83 180.71 194.25 143.65 191.32"/><polygon class="cls-4" points="314.97 283.24 294.72 293.07 294.72 306.98 335.97 311.89 315.34 301.25 314.97 283.24"/><polygon class="cls-4" points="67.61 268.4 86.62 306.82 98.12 318.6 94.17 304.18 110.71 292.82 67.61 268.4"/><polygon class="cls-5" points="117.89 239.45 130.18 215.25 139.27 228.41 146.77 222.19 143.65 238.76 132.33 228.41 117.89 239.45"/></g></svg>