<svg xmlns="http://www.w3.org/2000/svg" viewBox="0 0 538.56 311.06"><defs><style>.cls-1{fill:#ffeeb8;}.cls-2{fill:#ededed;}.cls-3{fill:#dd992e;}.cls-18,.cls-4{fill:#fff;}.cls-5{fill:#468f99;}.cls-6{fill:#706f6f;}.cls-7{fill:#e5aa3c;}.cls-8{fill:#e56a6a;}.cls-9{fill:#e8d6bc;}.cls-10{fill:#94bec4;}.cls-11{fill:#6ba6ad;}.cls-12{fill:#878787;}.cls-13{fill:#c24a4a;}.cls-14{fill:#b2b2b2;}.cls-15{fill:#5d5d5d;}.cls-16{fill:#c6c6c6;}.cls-17,.cls-19,.cls-20{fill:none;stroke-miterlimit:10;}.cls-17{stroke:#5d5d5d;}.cls-17,.cls-19{stroke-width:4.32px;}.cls-18{font-size:10.32px;font-family:Lato-Black, Lato;}.cls-19,.cls-20{stroke:#fff;}.cls-20{stroke-width:2.31px;}.cls-21{fill:#f6f6f6;}</style></defs><title>zerstoerung_1</title><g id="Ebene_8" data-name="Ebene 8"><path class="cls-1" d="M86.18,283.4c-30.18,4.84-45-28.23-45-28.23S5,168.84,24.14,116,75.41,55.6,101.86,72.53s32.69,55.82,80.72,50.4S234.8,99.52,286.62,86,371.94,62.9,406,95s45.78,74.35,34.23,117.65c-1.68,6.3-3.7,12.63-6,18.85-13.66,36.51-37.86,69.36-66,72.16C335.34,306.91,116.37,278.57,86.18,283.4Z"/><path class="cls-2" d="M297.3,166.54l-37.7.53-1.46-8.92,8.7-6.08,4.2-.49,2.19-8.3,10.71-1.14,2.81,1.64,4.8,7.06L295,148.9h5.47s7.3,3.46,7.54,4.19,4.14,2.87,4.14,2.87l5.35,3.41-1.7,5.73-12.52,2Z"/><path class="cls-1" d="M410.83,87.61c-1,1.75-9.05-5.24-20.2-11.73s-21.2-10-20.18-11.77,12.72-1.07,23.88,5.41S411.85,85.85,410.83,87.61Z"/><path class="cls-1" d="M103.19,61.75c.36,2-11.82-1.79-24.52.51s-21.09,9.83-21.45,7.83S64.67,57.33,77.36,55,102.83,59.75,103.19,61.75Z"/><path class="cls-1" d="M449.22,215.92c-2-.33,1.69-10.32,3.8-23s1.83-23.38,3.83-23.05,5.53,11.52,3.42,24.25S451.22,216.25,449.22,215.92Z"/><ellipse class="cls-1" cx="456.08" cy="163.37" rx="0.57" ry="3.32" transform="translate(-21.73 83.42) rotate(-10.21)"/><ellipse class="cls-3" cx="190.47" cy="290.31" rx="155.97" ry="8.1"/><path class="cls-4" d="M311.92,124.81l-37.69.54-1.46-8.92,8.69-6.08,4.2-.49,2.19-8.3,10.71-1.15,2.81,1.65,4.8,7.06,3.46-1.94h5.47s7.3,3.46,7.54,4.19,4.14,2.87,4.14,2.87l5.35,3.4-1.7,5.73-12.52,2Z"/><path class="cls-2" d="M68.24,204.73l-37.7.54-1.46-8.92,8.7-6.09,4.2-.48,2.19-8.31,10.71-1.14,2.8,1.65L62.49,189,66,187.1h5.47s7.3,3.46,7.54,4.19,4.14,2.87,4.14,2.87l5.35,3.4-1.7,5.73-12.52,2Z"/><path class="cls-5" d="M321.64,288.67a150.73,150.73,0,0,0-262.34,0l127.54,5.59Z"/><path class="cls-6" d="M161.26,163l-37.7.53-1.46-8.91,8.7-6.09,4.2-.48,2.19-8.31,10.71-1.14,2.81,1.64,4.8,7.07L159,145.4h5.47s7.3,3.47,7.54,4.2,4.14,2.87,4.14,2.87l5.35,3.4-1.7,5.73-12.52,2Z"/><polygon class="cls-7" points="92.43 181.99 123.49 227.89 96.34 245.88 64.1 202.11 92.43 181.99"/><polygon class="cls-8" points="70.2 208.68 86.94 197.76 99.59 221.53 87.15 229.97 70.2 208.68"/><polygon class="cls-8" points="66 204.68 94.2 184.44 94.83 185.3 66.86 205.84 66 204.68"/><polygon class="cls-8" points="93.69 244.53 121.89 224.29 122.51 225.15 94.55 245.7 93.69 244.53"/><path class="cls-7" d="M89.88,212.32a6.55,6.55,0,1,1-7.67-5.19A6.55,6.55,0,0,1,89.88,212.32Z"/><path class="cls-8" d="M86,213.06a2.64,2.64,0,1,1-3.1-2.09A2.64,2.64,0,0,1,86,213.06Z"/><polygon class="cls-8" points="85.28 213.21 89.75 211.67 90.97 214.81 84.76 214.96 85.28 213.21"/><polygon class="cls-8" points="82.85 205.05 83.32 212.91 82.09 213.82 77.43 208.05 82.85 205.05"/><polygon class="cls-8" points="78.88 219.11 81.71 214.57 83.14 215.25 84.08 221.58 78.88 219.11"/><path class="cls-7" d="M85,213.27a1.55,1.55,0,0,1-1.24,1.81A1.55,1.55,0,1,1,85,213.27Z"/><polygon class="cls-9" points="94.72 196.26 98.06 202.12 105.9 217.38 116.68 222.46 99.39 198.51 94.72 196.26"/><polygon class="cls-7" points="330.46 250.74 305.53 271.07 293.73 256.31 317.36 235.41 330.46 250.74"/><polygon class="cls-8" points="313.88 239.28 321.06 248.39 307.98 256.93 302.45 250.18 313.88 239.28"/><polygon class="cls-8" points="315.97 236.65 329.13 251.89 328.67 252.3 315.35 237.2 315.97 236.65"/><polygon class="cls-8" points="294.37 254.71 307.53 269.96 307.06 270.37 293.74 255.27 294.37 254.71"/><path class="cls-7" d="M312.79,250.84a3.8,3.8,0,1,1,2.61-4.7A3.8,3.8,0,0,1,312.79,250.84Z"/><path class="cls-8" d="M312.17,248.66a1.52,1.52,0,0,1-1.9-1,1.54,1.54,0,1,1,1.9,1Z"/><polygon class="cls-8" points="312.04 248.22 313.16 250.74 311.41 251.6 311 248.02 312.04 248.22"/><polygon class="cls-8" points="316.63 246.4 312.11 247.08 311.52 246.41 314.62 243.42 316.63 246.4"/><polygon class="cls-8" points="308.3 244.83 311.07 246.24 310.75 247.1 307.14 247.97 308.3 244.83"/><path class="cls-7" d="M312,248.06a.9.9,0,0,1-1.11-.63.89.89,0,0,1,.61-1.11.91.91,0,1,1,.5,1.74Z"/><polygon class="cls-8" points="100.81 245.84 92.58 253.23 96.7 263.62 111.36 251.88 129.62 240.08 190.47 231.45 214.18 236.36 244.48 236.36 246.4 229.58 190.47 221.43 180.36 219.79 134.49 225.55 111.36 236.36 100.81 245.84"/><polygon class="cls-10" points="167.34 228.41 129.97 235.91 122.8 197.87 160.17 190.37 167.34 228.41"/><rect class="cls-5" x="146.49" y="76.27" width="55.16" height="149.67"/><polygon class="cls-10" points="182.46 127 182.46 157.22 197.06 157.22 197.06 133.33 182.46 127"/><polygon class="cls-5" points="145.49 230.08 109.92 243.77 84.47 177.63 87.58 173.35 88.28 168.15 98.05 166.49 96.66 156.25 100.82 154.65 99.75 147.39 92.15 144.55 108.76 134.64 145.49 230.08"/><polygon class="cls-10" points="258 231.08 233.34 218.73 258.3 154.52 289.39 166.03 258 231.08"/><polygon class="cls-11" points="157.26 221.43 146.31 221.43 146.31 71.75 157.62 76.27 157.26 221.43"/><polygon class="cls-12" points="482.21 121.2 476.23 118.55 471.54 120.15 475 124.01 482.21 121.2"/><rect class="cls-8" x="249.21" y="189.9" width="47.41" height="24.53" transform="translate(-54.09 110.41) rotate(-20.86)"/><rect class="cls-13" x="290.28" y="182.42" width="4.53" height="24.53" transform="translate(-50.15 116.92) rotate(-20.86)"/><rect class="cls-14" x="474.93" y="117.31" width="38.69" height="20.02" transform="translate(-12.9 184.73) rotate(-20.9)"/><rect class="cls-12" x="508.45" y="111.19" width="3.7" height="20.02" transform="translate(-9.65 190.09) rotate(-20.91)"/><polygon class="cls-14" points="515.47 129.95 508.32 111.24 523.98 114.08 525.47 115.41 525.25 117.4 515.47 129.95"/><rect class="cls-15" x="272.6" y="215.03" width="23.48" height="2.66" transform="translate(-28.9 388.23) rotate(-66.02)"/><rect class="cls-16" x="474.81" y="121.79" width="32.3" height="5.14" transform="translate(-12.01 183.75) rotate(-20.95)"/><rect class="cls-15" x="248.71" y="192.15" width="12.58" height="56.23" transform="translate(-56.81 348.03) rotate(-63.1)"/><path class="cls-15" d="M240,222.4a5.76,5.76,0,1,1-2.53-7.74A5.77,5.77,0,0,1,240,222.4Z"/><path class="cls-15" d="M291.33,248.44a5.76,5.76,0,1,1-2.53-7.74A5.75,5.75,0,0,1,291.33,248.44Z"/><polygon class="cls-15" points="295.19 249.71 277.77 240.87 289.89 216.96 301.73 222.97 304.57 231.22 295.19 249.71"/><rect class="cls-4" x="290.71" y="222.81" width="6.33" height="8.01" transform="translate(-41.35 386.29) rotate(-63.1)"/><path class="cls-17" d="M295.58,205.13a5,5,0,1,1-2.18-6.65A5,5,0,0,1,295.58,205.13Z"/><polygon class="cls-12" points="489.39 139.9 485.95 146.69 481.2 148.13 481.57 142.88 489.39 139.9"/><polygon class="cls-16" points="511.72 114.45 511.89 118.05 522.66 116.46 522.89 115.5 511.72 114.45"/><rect class="cls-12" x="256.3" y="187.98" width="2.64" height="53.13" transform="translate(-50.26 347.23) rotate(-63.1)"/><polygon class="cls-5" points="92.23 157.76 89.3 159.48 93.55 160.46 95.17 152.18 92.23 157.76"/><polygon class="cls-5" points="83.9 163.88 82.64 170.35 91.42 165.26 83.9 163.88"/><polygon class="cls-5" points="83.96 155.88 74.93 155.03 85.52 158.6 83.96 155.88"/><path class="cls-6" d="M135.49,123.31l-68.08,1-2.64-16.11,15.71-11,7.59-.88,4-15,19.34-2.06,5.08,3L125.11,95l6.25-3.51h9.88s13.18,6.26,13.62,7.58,7.47,5.18,7.47,5.18l9.67,6.15-3.07,10.35-22.62,3.56Z"/><path class="cls-6" d="M221.62,112.35l-37.7.53L182.46,104l8.7-6.08,4.2-.49,2.19-8.3L208.26,88l2.81,1.64,4.8,7.06,3.46-1.94h5.47s7.3,3.46,7.54,4.19,4.14,2.87,4.14,2.87l5.35,3.41-1.7,5.73-12.52,2Z"/><polygon class="cls-5" points="235.12 231.45 197.06 229.18 209.06 153.16 249.23 139.73 235.12 231.45"/><polygon class="cls-11" points="198.21 229.25 185.05 226.12 194.78 139.73 209.06 153.16 198.21 229.25"/><path class="cls-8" d="M260.82,249.71l19.62,16.53s-6.48,8.23-9.81,7.11-22.18-6-23.6-5.61-8.91,9.35-8.91,9.35L255,292.73h41.12l7-10.52s-6.65-8.26-6.25-11S281.91,261,281.91,261L266,248.28Z"/><path class="cls-8" d="M182.46,257.26l36.76,4.49L210.05,276s-17.1,3-19.58,3.74-3.63,14.55-3.63,14.55l-52.35-1.53V272.6l11-15.34-9.13-9,44-8.41,23.71,6-9.72,9Z"/><polygon class="cls-10" points="194.78 139.73 209.06 153.16 249.23 139.73 194.78 139.73"/><polygon class="cls-10" points="201.66 76.27 146.31 71.75 157.62 76.27 201.66 76.27"/><polygon class="cls-11" points="102.69 149.75 105.42 163.57 113.92 160.93 107.54 146.59 102.69 149.75"/><polygon class="cls-11" points="91.08 181.37 95.03 192.8 106.54 187.09 98.81 175.38 91.08 181.37"/><polygon class="cls-11" points="102.26 212.08 106.21 223.51 117.72 217.79 109.99 206.09 102.26 212.08"/><polygon class="cls-11" points="119.63 191.44 124.11 207.55 130.21 205.63 123.06 189.33 119.63 191.44"/><polygon class="cls-11" points="111.06 127 108.76 134.64 145.49 230.08 148.24 226.06 111.06 127"/><polygon class="cls-10" points="92.15 144.55 111.06 127 108.76 134.64 92.15 144.55"/><polygon class="cls-10" points="213.73 162.5 213.73 171.01 219.22 171.01 220.44 159.38 213.73 162.5"/><polygon class="cls-10" points="231.32 180.42 231.32 188.93 236.81 188.93 238.03 177.3 231.32 180.42"/><polygon class="cls-10" points="212.13 187.52 212.13 196.03 217.62 196.03 218.84 184.4 212.13 187.52"/><polygon class="cls-10" points="221.99 215.49 221.99 230.68 227.49 230.68 230.91 215.61 221.99 215.49"/><polygon class="cls-10" points="168.9 210.81 168.9 226.01 174.39 226.01 177.81 210.93 168.9 210.81"/><path class="cls-10" d="M161.92,85.5,165,105.93s10.3-3,10.3-3.67-1.27-15.56-1.27-15.56Z"/><polygon class="cls-10" points="164.79 160.93 166.6 171.01 172.28 170.75 173.35 160.93 164.79 160.93"/><polyline class="cls-10" points="177.81 191.19 184.29 194.44 185.05 189.08 180.01 185.59 177.81 192.35"/><polygon class="cls-11" points="135.09 234.08 129.82 218.41 135.09 216.72 141.92 231.45 135.09 234.08"/><polygon class="cls-8" points="185.75 61.68 172.43 48.97 156.56 58.32 159.05 44.45 135.47 44.71 152.61 36.18 132.35 27.23 156.12 28.02 148.65 14.04 167.93 23.79 176.76 11.33 182.53 25.47 203.52 20.36 193.07 32.28 216.4 36.91 194.64 41.02 209.39 53.22 186.48 47.61 185.75 61.68"/><text class="cls-18" transform="matrix(0.94, 0.33, -0.33, 0.94, 155.76, 34.62)">!@#$%</text><polygon class="cls-5" points="169.28 254.82 149.18 254.82 140.8 220.84 169.65 219.79 169.28 254.82"/><polygon class="cls-10" points="143.68 217.11 173.34 216.83 169.65 219.79 140.8 220.84 143.68 217.11"/><polygon class="cls-11" points="172.28 216.72 172 249.71 169.28 254.82 169.65 219.79 172.28 216.72"/><line class="cls-19" x1="157.26" y1="227.85" x2="157.98" y2="250.44"/><line class="cls-19" x1="149.45" y1="235.41" x2="162.92" y2="237.31"/><line class="cls-19" x1="151.35" y1="256.81" x2="152.07" y2="279.4"/><line class="cls-19" x1="143.54" y1="264.37" x2="157.01" y2="266.26"/><line class="cls-19" x1="176.42" y1="260.13" x2="177.14" y2="282.72"/><line class="cls-19" x1="168.61" y1="267.69" x2="182.08" y2="269.59"/><line class="cls-19" x1="235.12" y1="237.37" x2="227.24" y2="258.55"/><line class="cls-19" x1="225.03" y1="241.41" x2="236.78" y2="248.26"/><line class="cls-19" x1="126.87" y1="236.6" x2="132.78" y2="258.41"/><line class="cls-19" x1="121.01" y1="245.76" x2="134.56" y2="244.49"/><polygon class="cls-5" points="181.78 250.29 194.43 253.41 196.89 248.65 199.38 230.51 192.12 222.71 180.01 223.15 181.78 250.29"/><line class="cls-20" x1="189.07" y1="232.76" x2="187.51" y2="244.76"/><line class="cls-20" x1="184.29" y1="236.08" x2="191.25" y2="238.24"/><rect class="cls-15" x="82.85" y="227.84" width="18.19" height="12.4" transform="translate(-135.82 127.48) rotate(-43.48)"/><polygon class="cls-15" points="68.37 264.94 83.53 250.57 75 241.57 61.42 254.45 61.27 257.45 68.37 264.94"/><polygon class="cls-15" points="75.11 258.56 90.97 243.52 71.94 223.45 59.27 235.46 59.8 242.42 75.11 258.56"/><polygon class="cls-4" points="70.02 248.98 76.47 242.86 66.45 232.29 62.36 236.17 62.82 241.39 70.02 248.98"/><polygon class="cls-15" points="102 241.76 100.62 236.16 95.11 234.5 90.96 238.43 92.33 244.02 97.85 245.69 102 241.76"/><polygon class="cls-15" points="80.51 262.13 79.14 256.54 73.62 254.87 69.48 258.8 70.85 264.39 76.36 266.06 80.51 262.13"/><rect class="cls-15" x="92.08" y="222.74" width="2.54" height="2.84" transform="translate(-128.63 125.73) rotate(-43.48)"/><rect class="cls-15" x="100.47" y="230.13" width="3.04" height="1.85" transform="translate(-130.99 133.54) rotate(-43.47)"/><rect class="cls-4" x="70.76" y="227.55" width="5.23" height="9.66" transform="translate(-139.77 114.26) rotate(-43.48)"/><path class="cls-8" d="M104.71,227.21l-.41-2.71,1.33-1.26,1.4-.05s-.67-2.6-1.06-2.44-3.26-.59-3.23-1.89a29.31,29.31,0,0,1,.86-4.41l2.59-.51.83-2.73-3.67-3.87c-.91-1-.15-6.43,0-6.9s2.94-2.79,2.94-2.79,3.27-.54,3.48.26,2.55,3.33,3.36,3.48,3-1.78,4.56-.27,4.7,2.48,4.27,4.5a47.63,47.63,0,0,1-1.41,4.79l-4,3.78,0,1.77,1.56,1.07-4,3.78-3.08,4.56-2.16,1.14-1.57-.52-1.62,1.53Z"/><polygon class="cls-21" points="300.64 182.75 465.92 128.58 471.26 147.26 302.19 195.14 300.64 182.75"/></g></svg>