<svg xmlns="http://www.w3.org/2000/svg" viewBox="0 0 801.9 409.98"><defs><style>.cls-1{fill:#ffeeb8;}.cls-2{fill:#ededed;}.cls-3{fill:#dd992e;}.cls-18,.cls-4{fill:#fff;}.cls-5{fill:#468f99;}.cls-6{fill:#706f6f;}.cls-7{fill:#e5aa3c;}.cls-8{fill:#e56a6a;}.cls-9{fill:#e8d6bc;}.cls-10{fill:#94bec4;}.cls-11{fill:#6ba6ad;}.cls-12{fill:#878787;}.cls-13{fill:#c24a4a;}.cls-14{fill:#b2b2b2;}.cls-15{fill:#5d5d5d;}.cls-16{fill:#c6c6c6;}.cls-17,.cls-19,.cls-20{fill:none;stroke-miterlimit:10;}.cls-17{stroke:#5d5d5d;}.cls-17,.cls-19{stroke-width:5.16px;}.cls-18{font-size:12.33px;font-family:Lato-Black, Lato;}.cls-19,.cls-20{stroke:#fff;}.cls-20{stroke-width:2.76px;}.cls-21{fill:#f6f6f6;}</style></defs><title>zerstoerung</title><g id="Layer_2" data-name="Layer 2"><path class="cls-1" d="M109.17,379.36c-43.75,6.15-64.78-33.2-64.78-33.2S-6.95,243.39,21.48,180s74.94-72.89,113-53,46.59,66.33,116.17,59.25,75.84-28.63,151-45.48,123.74-28.66,172.6,9.25,65.3,88.33,48,140.25S564.63,395.68,517,400,152.91,373.2,109.17,379.36Z"/><path class="cls-2" d="M346,240.46l-45,.64-1.75-10.66,10.39-7.27,5-.58,2.62-9.92L330,211.3l3.36,2,5.73,8.44,4.14-2.32h6.54s8.72,4.13,9,5,4.94,3.43,4.94,3.43l6.4,4.07-2,6.85-15,2.36Z"/></g><g id="Bcakground"><path class="cls-1" d="M593.33,171c-1.22,2.09-10.82-6.27-24.14-14s-25.34-12-24.12-14.06,15.21-1.29,28.53,6.46S594.55,168.86,593.33,171Z"/><path class="cls-1" d="M114,115.24c.43,2.39-14.13-2.14-29.3.61s-25.2,11.74-25.64,9.35,8.9-15.24,24.07-18S113.6,112.86,114,115.24Z"/><path class="cls-1" d="M626.8,299.48c-2.39-.4,2-12.34,4.54-27.55s2.19-27.94,4.58-27.54,6.6,13.76,4.08,29S629.19,299.87,626.8,299.48Z"/><ellipse class="cls-1" cx="635" cy="236.68" rx="0.68" ry="3.97" transform="translate(-31.89 116.29) rotate(-10.21)"/></g><g id="Ebene_8" data-name="Ebene 8"><ellipse class="cls-3" cx="218.33" cy="388.37" rx="186.38" ry="9.67"/><path class="cls-4" d="M363.47,190.6l-45.05.64-1.74-10.66,10.39-7.27,5-.58,2.61-9.92,12.8-1.37,3.36,2,5.73,8.44,4.14-2.32h6.54s8.72,4.13,9,5,5,3.42,5,3.42l6.39,4.07-2,6.85-15,2.36Z"/><path class="cls-2" d="M72.26,286.11l-45.05.63-1.74-10.65,10.39-7.27,5-.58,2.62-9.93L56.29,257l3.36,2,5.74,8.44L69.53,265h6.53s8.72,4.14,9,5,5,3.43,5,3.43l6.39,4.07-2,6.85-15,2.35Z"/><path class="cls-5" d="M375.08,386.42a180.12,180.12,0,0,0-313.5,0L214,393.1Z"/><path class="cls-6" d="M183.42,236.28l-45,.64-1.75-10.66L147,219l5-.58,2.62-9.92,12.8-1.36,3.35,2,5.74,8.44,4.14-2.32h6.53s8.73,4.13,9,5,4.94,3.43,4.94,3.43l6.4,4.07-2,6.84-15,2.36Z"/><polygon class="cls-7" points="101.17 258.93 138.28 313.78 105.84 335.27 67.32 282.97 101.17 258.93"/><polygon class="cls-8" points="74.6 290.82 94.61 277.77 109.73 306.18 94.86 316.27 74.6 290.82"/><polygon class="cls-8" points="69.59 286.05 103.28 261.85 104.03 262.88 70.62 287.44 69.59 286.05"/><polygon class="cls-8" points="102.68 333.67 136.37 309.48 137.12 310.51 103.7 335.06 102.68 333.67"/><path class="cls-7" d="M98.12,295.18A7.83,7.83,0,1,1,89,289,7.82,7.82,0,0,1,98.12,295.18Z"/><path class="cls-8" d="M93.54,296.06a3.16,3.16,0,1,1-3.7-2.5A3.16,3.16,0,0,1,93.54,296.06Z"/><polygon class="cls-8" points="92.62 296.24 97.97 294.4 99.42 298.15 92 298.33 92.62 296.24"/><polygon class="cls-8" points="89.72 286.48 90.28 295.88 88.81 296.97 83.24 290.07 89.72 286.48"/><polygon class="cls-8" points="84.97 303.29 88.36 297.86 90.07 298.67 91.19 306.25 84.97 303.29"/><path class="cls-7" d="M92.27,296.31a1.87,1.87,0,1,1-2.19-1.47A1.87,1.87,0,0,1,92.27,296.31Z"/><polygon class="cls-9" points="103.91 275.98 107.9 282.98 117.27 301.22 130.15 307.29 109.48 278.67 103.91 275.98"/><polygon class="cls-7" points="385.62 341.09 355.83 365.38 341.73 347.75 369.97 322.77 385.62 341.09"/><polygon class="cls-8" points="365.81 327.39 374.39 338.28 358.75 348.49 352.15 340.42 365.81 327.39"/><polygon class="cls-8" points="368.31 324.24 384.04 342.47 383.48 342.95 367.56 324.91 368.31 324.24"/><polygon class="cls-8" points="342.5 345.83 358.22 364.06 357.67 364.54 341.75 346.5 342.5 345.83"/><path class="cls-7" d="M364.51,341.21a4.54,4.54,0,1,1,3.11-5.62A4.54,4.54,0,0,1,364.51,341.21Z"/><path class="cls-8" d="M363.76,338.6a1.83,1.83,0,1,1,1.26-2.27A1.84,1.84,0,0,1,363.76,338.6Z"/><polygon class="cls-8" points="363.61 338.08 364.95 341.08 362.86 342.11 362.37 337.83 363.61 338.08"/><polygon class="cls-8" points="369.1 335.9 363.7 336.71 362.99 335.92 366.69 332.34 369.1 335.9"/><polygon class="cls-8" points="359.14 334.03 362.45 335.7 362.07 336.74 357.75 337.77 359.14 334.03"/><path class="cls-7" d="M363.55,337.88a1.08,1.08,0,1,1,.74-1.34A1.08,1.08,0,0,1,363.55,337.88Z"/><polygon class="cls-8" points="111.19 335.23 101.35 344.06 106.27 356.48 123.8 342.45 145.62 328.35 218.33 318.04 246.66 323.9 282.87 323.9 285.16 315.8 218.33 306.06 206.25 304.1 151.43 310.98 123.8 323.9 111.19 335.23"/><polygon class="cls-10" points="190.69 314.4 146.04 323.36 137.46 277.9 182.12 268.94 190.69 314.4"/><rect class="cls-5" x="165.78" y="132.59" width="65.92" height="178.86"/><polygon class="cls-10" points="208.76 193.21 208.76 229.33 226.2 229.33 226.2 200.78 208.76 193.21"/><polygon class="cls-5" points="164.57 316.4 122.07 332.76 91.65 253.72 95.38 248.6 96.21 242.39 107.89 240.4 106.22 228.17 111.2 226.26 109.91 217.59 100.84 214.19 120.68 202.35 164.57 316.4"/><polygon class="cls-10" points="299.03 317.59 269.56 302.83 299.39 226.1 336.54 239.86 299.03 317.59"/><polygon class="cls-11" points="178.64 306.06 165.56 306.06 165.56 127.19 179.07 132.59 178.64 306.06"/><polygon class="cls-12" points="566.97 186.29 559.82 183.11 554.22 185.03 558.36 189.64 566.97 186.29"/><rect class="cls-8" x="288.53" y="268.38" width="56.65" height="29.32" transform="translate(-80.01 131.35) rotate(-20.86)"/><rect class="cls-13" x="337.61" y="259.44" width="5.41" height="29.32" transform="translate(-75.29 139.13) rotate(-20.86)"/><rect class="cls-14" x="558.27" y="181.63" width="46.24" height="23.93" transform="translate(-30.81 220.17) rotate(-20.9)"/><rect class="cls-12" x="598.32" y="174.32" width="4.42" height="23.93" transform="translate(-26.94 226.57) rotate(-20.91)"/><polygon class="cls-14" points="606.71 196.74 598.17 174.38 616.88 177.78 618.66 179.37 618.39 181.75 606.71 196.74"/><rect class="cls-15" x="316.47" y="298.41" width="28.05" height="3.18" transform="translate(-77.92 480.07) rotate(-66.02)"/><rect class="cls-16" x="558.12" y="186.98" width="38.6" height="6.14" transform="translate(-29.78 219.01) rotate(-20.95)"/><rect class="cls-15" x="287.93" y="271.08" width="15.04" height="67.2" transform="translate(-109.93 430.32) rotate(-63.1)"/><path class="cls-15" d="M277.51,307.22a6.88,6.88,0,1,1-3-9.25A6.89,6.89,0,0,1,277.51,307.22Z"/><path class="cls-15" d="M338.86,338.34a6.88,6.88,0,1,1-3-9.25A6.87,6.87,0,0,1,338.86,338.34Z"/><polygon class="cls-15" points="343.47 339.85 322.65 329.29 337.14 300.72 351.29 307.89 354.68 317.76 343.47 339.85"/><rect class="cls-4" x="338.12" y="307.71" width="7.57" height="9.57" transform="translate(-91.46 476.04) rotate(-63.1)"/><path class="cls-17" d="M343.94,286.58a5.91,5.91,0,1,1-2.6-7.95A5.91,5.91,0,0,1,343.94,286.58Z"/><polygon class="cls-12" points="575.55 208.62 571.43 216.75 565.76 218.47 566.21 212.19 575.55 208.62"/><polygon class="cls-16" points="602.23 178.22 602.44 182.52 615.31 180.62 615.58 179.47 602.23 178.22"/><rect class="cls-12" x="297" y="266.09" width="3.16" height="63.49" transform="translate(-102.11 429.36) rotate(-63.1)"/><polygon class="cls-5" points="100.94 229.97 97.43 232.03 102.51 233.2 104.45 223.31 100.94 229.97"/><polygon class="cls-5" points="90.97 237.28 89.47 245.02 99.97 238.93 90.97 237.28"/><polygon class="cls-5" points="91.05 227.73 80.26 226.71 92.91 230.98 91.05 227.73"/><path class="cls-6" d="M152.63,188.8,71.27,190,68.12,170.7l18.77-13.12L96,156.52l4.73-17.92,23.12-2.46,6.06,3.54,10.36,15.25,7.48-4.19h11.8s15.75,7.47,16.28,9,8.93,6.2,8.93,6.2l11.55,7.35-3.68,12.37-27,4.25Z"/><path class="cls-6" d="M255.55,175.71l-45,.63-1.75-10.66,10.39-7.27,5-.58,2.62-9.92,12.8-1.36,3.36,2,5.73,8.44,4.14-2.32h6.54s8.72,4.14,9,5,4.94,3.43,4.94,3.43l6.4,4.07-2,6.84-15,2.36Z"/><path class="cls-5" d="M61.58,386.42S130.31,393.1,214,393.1s161.08-6.68,161.08-6.68"/><polygon class="cls-5" points="271.69 318.04 226.2 315.32 240.55 224.48 288.55 208.43 271.69 318.04"/><polygon class="cls-11" points="227.57 315.41 211.86 311.67 223.48 208.43 240.55 224.48 227.57 315.41"/><path class="cls-8" d="M302.4,339.85l23.45,19.76s-7.75,9.84-11.73,8.5-26.5-7.16-28.2-6.71-10.65,11.18-10.65,11.18l20.18,18.68h49.13l8.32-12.56s-7.95-9.88-7.47-13.14-17.83-12.21-17.83-12.21l-19-15.2Z"/><path class="cls-8" d="M208.76,348.88l43.93,5.37-11,17s-20.42,3.57-23.39,4.47S214,393.1,214,393.1l-62.57-1.84V367.21l13.14-18.33-10.91-10.73,52.59-10.06,28.34,7.14L223,346Z"/><polygon class="cls-10" points="223.48 208.43 240.55 224.48 288.55 208.43 223.48 208.43"/><polygon class="cls-10" points="231.7 132.59 165.56 127.19 179.07 132.59 231.7 132.59"/><polygon class="cls-11" points="113.43 220.4 116.69 236.92 126.86 233.76 119.23 216.63 113.43 220.4"/><polygon class="cls-11" points="99.56 258.19 104.27 271.85 118.03 265.02 108.79 251.03 99.56 258.19"/><polygon class="cls-11" points="112.92 294.89 117.64 308.54 131.39 301.72 122.15 287.73 112.92 294.89"/><polygon class="cls-11" points="133.67 270.22 139.03 289.47 146.31 287.18 137.77 267.7 133.67 270.22"/><polygon class="cls-11" points="123.44 193.21 120.68 202.35 164.57 316.4 167.87 311.6 123.44 193.21"/><polygon class="cls-10" points="100.84 214.19 123.44 193.21 120.68 202.35 100.84 214.19"/><polygon class="cls-10" points="246.12 235.64 246.12 245.81 252.69 245.81 254.15 231.91 246.12 235.64"/><polygon class="cls-10" points="267.14 257.05 267.14 267.22 273.7 267.22 275.17 253.32 267.14 257.05"/><polygon class="cls-10" points="244.21 265.54 244.21 275.71 250.77 275.71 252.24 261.81 244.21 265.54"/><polygon class="cls-10" points="256 298.96 256 317.12 262.56 317.12 266.66 299.11 256 298.96"/><polygon class="cls-10" points="192.55 293.37 192.55 311.53 199.11 311.53 203.2 293.52 192.55 293.37"/><path class="cls-10" d="M184.21,143.62,187.94,168s12.31-3.56,12.31-4.38-1.51-18.59-1.51-18.59Z"/><polygon class="cls-10" points="187.65 233.76 189.81 245.81 196.6 245.49 197.88 233.76 187.65 233.76"/><polyline class="cls-10" points="203.2 269.92 210.95 273.8 211.86 267.4 205.83 263.23 203.2 271.31"/><polygon class="cls-11" points="152.15 321.18 145.86 302.45 152.15 300.43 160.31 318.04 152.15 321.18"/><polygon class="cls-8" points="212.69 115.16 196.77 99.96 177.81 111.14 180.78 94.57 152.6 94.88 173.08 84.68 148.87 73.98 177.28 74.93 168.36 58.23 191.4 69.88 201.95 54.99 208.84 71.89 233.92 65.78 221.44 80.02 249.32 85.55 223.31 90.47 240.94 105.05 213.56 98.34 212.69 115.16"/><text class="cls-18" transform="matrix(0.94, 0.33, -0.33, 0.94, 176.85, 82.85)">!@#$%</text><polygon class="cls-5" points="193.01 345.96 168.99 345.96 158.97 305.36 193.45 304.1 193.01 345.96"/><polygon class="cls-10" points="162.42 300.9 197.86 300.56 193.45 304.1 158.97 305.36 162.42 300.9"/><polygon class="cls-11" points="196.6 300.43 196.26 339.85 193.01 345.96 193.45 304.1 196.6 300.43"/><line class="cls-19" x1="178.64" y1="313.74" x2="179.5" y2="340.73"/><line class="cls-19" x1="169.31" y1="322.77" x2="185.41" y2="325.03"/><line class="cls-19" x1="171.58" y1="348.34" x2="172.44" y2="375.34"/><line class="cls-19" x1="162.25" y1="357.38" x2="178.34" y2="359.64"/><line class="cls-19" x1="201.54" y1="352.31" x2="202.4" y2="379.31"/><line class="cls-19" x1="192.21" y1="361.35" x2="208.3" y2="363.61"/><line class="cls-19" x1="271.69" y1="325.11" x2="262.27" y2="350.42"/><line class="cls-19" x1="259.64" y1="329.94" x2="273.68" y2="338.12"/><line class="cls-19" x1="142.32" y1="324.19" x2="149.39" y2="350.26"/><line class="cls-19" x1="135.33" y1="335.14" x2="151.51" y2="333.62"/><polygon class="cls-5" points="207.95 340.55 223.06 344.27 226.01 338.58 228.97 316.91 220.31 307.59 205.83 308.12 207.95 340.55"/><line class="cls-20" x1="216.66" y1="319.6" x2="214.79" y2="333.94"/><line class="cls-20" x1="210.95" y1="323.57" x2="219.26" y2="326.15"/><rect class="cls-15" x="89.73" y="313.73" width="21.73" height="14.82" transform="translate(-193.37 157.33) rotate(-43.48)"/><polygon class="cls-15" points="72.42 358.06 90.54 340.89 80.34 330.13 64.11 345.52 63.93 349.11 72.42 358.06"/><polygon class="cls-15" points="80.47 350.43 99.42 332.46 76.68 308.48 61.54 322.83 62.18 331.15 80.47 350.43"/><polygon class="cls-4" points="74.38 338.98 82.1 331.67 70.13 319.04 65.24 323.68 65.78 329.91 74.38 338.98"/><polygon class="cls-15" points="112.6 330.35 110.96 323.67 104.37 321.67 99.42 326.37 101.06 333.06 107.65 335.05 112.6 330.35"/><polygon class="cls-15" points="86.92 354.7 85.28 348.01 78.69 346.02 73.74 350.72 75.38 357.4 81.97 359.4 86.92 354.7"/><rect class="cls-15" x="100.75" y="307.63" width="3.04" height="3.4" transform="translate(-184.78 155.23) rotate(-43.48)"/><rect class="cls-15" x="110.78" y="316.46" width="3.64" height="2.21" transform="translate(-187.6 164.57) rotate(-43.47)"/><rect class="cls-4" x="75.27" y="313.38" width="6.25" height="11.55" transform="translate(-198.1 141.52) rotate(-43.48)"/><path class="cls-8" d="M115.84,313l-.49-3.25,1.59-1.5,1.68-.05s-.8-3.12-1.27-2.93-3.89-.69-3.86-2.25a34,34,0,0,1,1-5.27l3.1-.61,1-3.27-4.39-4.62c-1.09-1.15-.17-7.69,0-8.24s3.51-3.33,3.51-3.33,3.91-.66,4.17.3,3,4,4,4.16,3.53-2.13,5.46-.32,5.61,3,5.1,5.38a54.56,54.56,0,0,1-1.69,5.72L130,297.41l.06,2.11,1.87,1.28-4.77,4.52-3.67,5.45-2.59,1.36-1.87-.62-1.93,1.83Z"/><polygon class="cls-21" points="349.98 259.83 547.5 195.1 553.88 217.42 351.84 274.64 349.98 259.83"/></g></svg>