<svg xmlns="http://www.w3.org/2000/svg" viewBox="0 0 400 292.73"><defs><style>.cls-1{fill:#ffeeb8;}.cls-2{fill:#dd992e;}.cls-3{fill:#468f99;}.cls-4{fill:#f7931e;}.cls-5{fill:#d45c28;}.cls-6{fill:#e56b41;}.cls-7{fill:#f4ca98;}.cls-15,.cls-18,.cls-8,.cls-9{fill:none;}.cls-8{stroke:#dd992e;stroke-linecap:round;}.cls-15,.cls-8{stroke-linejoin:round;}.cls-8,.cls-9{stroke-width:3.23px;}.cls-18,.cls-9{stroke:#878787;stroke-miterlimit:10;}.cls-10{opacity:0.4;}.cls-11{fill:#878787;}.cls-12{fill:#706f6f;}.cls-13{fill:#c24a4a;}.cls-14{fill:#e56a6a;}.cls-15{stroke:#e56a6a;stroke-width:1.6px;}.cls-16{fill:#5eb1b7;}.cls-17{fill:#9d9d9c;}.cls-18{stroke-width:2.82px;}</style></defs><title>brunnen</title><g id="Bcakground"><path class="cls-1" d="M92.33,263.18c-20.24,5.65-32.89-15-32.89-15s-31.35-54-22.29-90.48,30.37-44.08,49.72-35.06,27,38.92,59.38,31.43,43.56-30.62,65.18-52.29S267.91,79.6,293.6,98s39.55,60,35,89.57-20,61.11-42.16,66S112.57,257.52,92.33,263.18Z"/><path class="cls-1" d="M80.22,113.13c1.57,3.5-6.24-1.36-17.1,3.51-11,5-22.78,12.94-22.24,14.14-1.57-3.5,4.11-12.09,15-17S78.65,109.63,80.22,113.13Z"/><path class="cls-1" d="M334.61,182.27c-3.77.68,2.83-5.72.72-17.44-2.14-11.89-7.06-25.22-8.36-25,3.78-.68,10.74,6.91,12.85,18.62S338.38,181.6,334.61,182.27Z"/><path class="cls-1" d="M280.06,99.27c.51,3.8-5.61-3.07-17.41-1.46-12,1.64-25.52,6-25.34,7.29-.52-3.8,7.36-10.43,19.17-12S279.54,95.47,280.06,99.27Z"/></g><g id="overlay"><path class="cls-2" d="M303.08,252c0,5.83-63.37,10.55-141.54,10.55S20,257.87,20,252c0-2.49,11.58-4.78,31-6.58,74-6.9,114.29-4,110.59-4C239.71,241.49,303.08,246.21,303.08,252Z"/><path class="cls-3" d="M56.91,249c0,1.43-11.9,2.59-26.58,2.59S3.74,250.41,3.74,249c0-.61,2.17-1.17,5.81-1.62,13.9-1.69,21.47-1,20.78-1C45,246.39,56.91,247.55,56.91,249Z"/><path class="cls-3" d="M86.39,260.29c0,1.43-11.91,2.59-26.59,2.59s-26.59-1.16-26.59-2.59c0-.62,2.18-1.18,5.81-1.62,13.91-1.7,21.47-1,20.78-1C74.48,257.69,86.39,258.85,86.39,260.29Z"/><path class="cls-3" d="M60.91,264.3c0,.93-7.73,1.68-17.26,1.68s-17.26-.75-17.26-1.68c0-.4,1.41-.77,3.77-1.05,9-1.11,13.94-.64,13.49-.64C53.18,262.61,60.91,263.37,60.91,264.3Z"/><path class="cls-3" d="M106.13,268.33c0,.93-7.73,1.69-17.26,1.69s-17.26-.76-17.26-1.69c0-.39,1.41-.76,3.77-1.05,9-1.1,13.94-.63,13.49-.63C98.4,266.65,106.13,267.4,106.13,268.33Z"/><path class="cls-3" d="M39.92,260.26c0,.93-7.73,1.68-17.26,1.68s-17.27-.75-17.27-1.68c0-.4,1.42-.76,3.78-1.05,9-1.1,13.94-.64,13.49-.64C32.19,258.57,39.92,259.33,39.92,260.26Z"/><path class="cls-3" d="M296.39,266.22c0,1.1-12.39,2-27.67,2s-27.68-.9-27.68-2c0-.47,2.27-.91,6.05-1.25,14.47-1.31,22.35-.75,21.63-.75C284,264.22,296.39,265.11,296.39,266.22Z"/><path class="cls-3" d="M211.21,262.58c0,1.11-12.4,2-27.68,2s-27.68-.89-27.68-2c0-.47,2.27-.9,6.06-1.24,14.47-1.31,22.34-.76,21.62-.76C198.81,260.58,211.21,261.48,211.21,262.58Z"/><path class="cls-3" d="M321.43,266.6c0,4-44.75,7.22-100,7.22s-99.95-3.23-99.95-7.22c0-1.71,8.18-3.27,21.85-4.51,52.27-4.72,80.71-2.71,78.1-2.71C276.68,259.38,321.43,262.61,321.43,266.6Z"/><path class="cls-3" d="M263.2,259.9c0,1.45-11.92,2.63-26.62,2.63S210,261.35,210,259.9c0-.63,2.18-1.2,5.83-1.65,13.92-1.72,21.49-1,20.8-1C251.28,257.26,263.2,258.44,263.2,259.9Z"/><path class="cls-3" d="M288.24,259c0,.89-7.22,1.6-16.13,1.6S256,259.9,256,259c0-.37,1.32-.72,3.53-1,8.43-1,13-.6,12.6-.6C281,257.42,288.24,258.13,288.24,259Z"/><rect class="cls-4" x="100.57" y="69.91" width="7.56" height="29.43" transform="translate(12.04 -13) rotate(7.56)"/><rect class="cls-4" x="256.56" y="61.09" width="7.56" height="45.12" transform="translate(24.28 -54.36) rotate(12.5)"/><polygon class="cls-5" points="53.76 42.91 59.63 75.21 304.29 75.21 307.52 42.91 301.87 36.45 66.89 36.45 53.76 42.91"/><path class="cls-6" d="M86.78,38.39C85.06,43,83.91,47.86,82.3,52.46c0,.16-.1.31-.16.47H232.46c1.63-4.9,3.17-9.84,5.21-14.54Z"/><path class="cls-6" d="M75,48.88c1.23-3.47,2.21-7,3.34-10.49H67.21L54.08,40.81,60,52.93H73.62C74.08,51.57,74.54,50.22,75,48.88Z"/><path class="cls-6" d="M250.68,38.39a98.08,98.08,0,0,0-5.44,14.54H305l-2.78-12.12V38.39Z"/><polygon class="cls-4" points="117.45 228.63 97.88 230.09 78.53 27.82 98.1 26.36 117.45 228.63"/><polygon class="cls-7" points="118.64 229.75 113.75 230.11 94.4 27.84 99.29 27.48 118.64 229.75"/><polygon class="cls-4" points="252.75 229.97 233.14 229.43 243.05 27.6 261.85 28.15 252.75 229.97"/><polygon class="cls-7" points="253.82 231.21 248.92 231.07 258.02 27.63 262.93 27.77 253.82 231.21"/><polyline class="cls-8" points="140.47 33.49 145.85 79.78 148.54 33.49 153.39 79.78 157.7 33.49 161.54 79.78 178.54 33.49 175.46 83.65 164.16 33.49 166.04 109.39 169.27 113.43 165.23 120.16"/><polygon class="cls-2" points="143.11 128.67 189.97 141.72 169.89 182.96 152.65 178.15 139.3 174.43 143.11 128.67"/><polygon class="cls-5" points="182.66 144.38 168.93 141.55 160.04 181.24 169.89 182.96 189.97 141.72 182.66 144.38"/><polyline class="cls-9" points="155.71 132.54 160.39 115.31 167.39 114.77 176 118.54 178.15 124.46 173.2 139.51"/><polyline class="cls-8" points="170.62 110.2 162.81 113.97 164.96 118.27"/><polygon class="cls-3" points="201.57 133.08 212.07 129.31 217.45 131.46 219.33 137.65 211.53 137.65 207.76 134.15 201.57 133.08"/><polygon class="cls-3" points="204.2 147.88 214.47 152.24 216.96 157.47 214.14 163.3 208.41 158 208.02 152.87 204.2 147.88"/><polygon class="cls-3" points="196.64 161.98 200.17 164.95 200.53 167.32 198.71 169.29 197.08 166.49 197.54 164.42 196.64 161.98"/><polygon class="cls-3" points="192.84 130.21 196.11 130.46 197.54 129.54 197.72 127.82 195.45 128.35 194.57 129.51 192.84 130.21"/><path class="cls-7" d="M78.53,27.82l1,7L99.7,33.22s-.29-7.38-.58-7.19S78.53,27.82,78.53,27.82Z"/><path class="cls-7" d="M242,28.94a14.7,14.7,0,0,1,.29-1.53l10.59-1.61,9.91.29.49,1.55a26.29,26.29,0,0,1-.88,2.66c-.19.3-8.25,1-8.25,1l-1.07-3.89v3.69l-9.62-.39s0-2.91-.29-2.81-.59,2.81-.59,2.81l-.68.1Z"/><polygon class="cls-3" points="172.53 136.95 168.46 136.84 159.85 134.42 171.98 138.33 172.53 136.95"/><path class="cls-3" d="M191.88,135.77s-7.81-3.23-8.08-2.43-5.38,3.77-5.38,3.77l-2.61-.07-.69,2.31,1.42.45,7.26,1.08,6.17.84-1.22,2.52,4.77,1.2,4-3.21v-4.31Z"/><g class="cls-10"><path class="cls-1" d="M149.58,53.21l.13-2.13.22,2.14,3.26.06L150.85,31a1.63,1.63,0,0,0-1.64-1.45,1.61,1.61,0,0,0-1.57,1.53l-1.29,22.05Z"/><path class="cls-1" d="M167,53.52l-.15-6,1.37,6.09,2.15.08,2.28.09L177,42.09l-.73,11.78,3.23.11,1.4-22.71a1.62,1.62,0,0,0-3.13-.66l-7,19.14-4.27-18.94a1.61,1.61,0,0,0-3.18.4l.55,22.23Z"/><path class="cls-1" d="M158,53.34l.35-3.76.31,3.77,3.25,0L160,31a1.63,1.63,0,0,0-1.6-1.49h0A1.63,1.63,0,0,0,156.79,31L154.72,53.3Z"/><path class="cls-1" d="M142.08,53l3.27.13L142.78,31a1.62,1.62,0,1,0-3.21.38Z"/></g><polygon class="cls-11" points="141.49 135.88 141.18 140.96 153.51 147.8 162.53 150.7 173.09 152.56 181.18 152.77 185.94 151.42 188.43 147.28 187.7 146.24 187.5 146.86 181.69 147.8 173.51 147.59 163.25 145.62 153.82 141.99 142.32 136.4 142.53 135.16 141.49 135.88"/><polygon class="cls-11" points="140.19 157.9 139.94 161.88 150.04 167.24 157.43 169.52 166.09 170.98 172.72 171.15 176.63 170.09 178.66 166.84 178.07 166.03 177.9 166.51 173.14 167.24 166.44 167.08 158.03 165.54 150.3 162.69 140.87 158.3 141.04 157.33 140.19 157.9"/><path class="cls-1" d="M143.56,129.45l8.68,4.82,15.24,5.66,13.11,2.83,7.78-.52,1.22-.45-2.76-.57-1.35.45-5,.12c-.2,0-12.8-2.57-12.8-2.57L153,133.89l-5.59-3.54L154.3,132s.32-1,.13-.9-5.79-1.87-5.79-1.87l-4.18-.83-1,.06-.13,1Z"/><polygon class="cls-5" points="307.23 51.91 315.98 52.57 317.69 52.7 319.01 57.86 319.28 60.77 319.01 64.48 317.43 65.41 316.24 65.41 305.38 65.41 305.25 59.32 307.23 51.91"/><polygon class="cls-12" points="317.93 65.41 320.21 62.23 318.5 51.91 305.43 52.3 305.71 65.27 315.37 65.8 317.93 65.41"/><rect class="cls-5" x="307.78" y="50.98" width="7.27" height="51.2"/><rect class="cls-4" x="325.55" y="80.78" width="7.27" height="42.8" transform="translate(227 431.36) rotate(-90)"/><polygon class="cls-13" points="382.88 92.09 382.88 114.29 332.06 111.06 332.5 96.18 382.88 92.09"/><path class="cls-7" d="M310.3,101.17h20.39s1.21-2.22.61-2-21,.2-21,.2Z"/><rect class="cls-13" x="333.32" y="95.53" width="1.61" height="16.8"/><polygon class="cls-13" points="382.71 114.78 378.51 114.69 378.51 91.56 382.71 91.65 382.71 114.78"/><polygon class="cls-14" points="382.71 99.71 378.51 99.68 378.51 91.56 382.71 91.59 382.71 99.71"/><rect class="cls-14" x="333.32" y="95.53" width="1.61" height="7.67"/><path class="cls-15" d="M337.22,95.75l2.31,16.74,1.67-17.24,1.69,17.07s2.84-18,2.57-17.7,2,18.48,1.88,17.94S349,93.64,348.68,94s1.61,18.89,1.61,18.89l2.57-18.24.57,18.47s2.93-19.51,2.86-19.25,2.35,19.71,2.55,19.71,8.43-21.42,8.43-21.15,3.55,22.88,3.34,22.81,5.29-23.54,5.29-23.54-.78,25.27-1.26,24.79-4.22-24.3-4.22-24.3l-6.24,22.38L359.79,93"/><polygon class="cls-12" points="315.15 95.26 306.94 95.66 303.85 100.1 304.25 105.08 308.43 108.72 310.85 107.78 315.02 106.7 316.9 97.95 315.15 95.26"/><polygon class="cls-6" points="312.33 51.79 313 93.91 314.75 94.72 314.48 51.79 312.33 51.79"/><path class="cls-16" d="M321.43,265.3c0,2.3-32.11,4.16-71.71,4.16S178,267.6,178,265.3c0-1,5.86-1.88,15.67-2.59,37.5-2.71,57.9-1.56,56-1.56C289.32,261.15,321.43,263,321.43,265.3Z"/><path class="cls-16" d="M85.29,259.54c0,1.08-9.49,1.95-21.2,1.95s-21.21-.87-21.21-1.95c0-.46,1.73-.88,4.64-1.22,11.09-1.27,17.12-.73,16.57-.73C75.8,257.59,85.29,258.46,85.29,259.54Z"/><path class="cls-16" d="M59.81,263.46c0,.78-6.58,1.42-14.7,1.42s-14.7-.64-14.7-1.42c0-.34,1.2-.65,3.22-.89A56.83,56.83,0,0,1,45.11,262C53.23,262,59.81,262.67,59.81,263.46Z"/><path class="cls-16" d="M33.36,260.07c0,.42-2.92.76-6.52.76s-6.52-.34-6.52-.76c0-.18.54-.34,1.43-.47a21.39,21.39,0,0,1,5.09-.28C30.44,259.32,33.36,259.66,33.36,260.07Z"/><path class="cls-16" d="M105.72,267.87c0,.78-6.58,1.42-14.7,1.42s-14.71-.64-14.71-1.42c0-.34,1.21-.65,3.22-.89A56.94,56.94,0,0,1,91,266.44C99.14,266.44,105.72,267.08,105.72,267.87Z"/></g><g id="Ebene_8" data-name="Ebene 8"><polygon class="cls-12" points="54.57 198.66 71.19 252.35 147.34 257.19 228.67 257.19 261.59 254.2 292.83 246.29 302.52 186.54 302.52 175.64 240.99 175.64 240.99 184.12 235.78 184.12 228.67 175.64 168.58 175.64 164.79 185.33 155.95 175.64 89.11 175.64 89.11 184.12 78.2 175.64 54.57 175.64 54.57 185.33 54.57 198.66"/><polygon class="cls-17" points="54.57 175.64 78.2 175.64 79.51 180.72 54.88 179.5 54.57 175.64"/><path class="cls-17" d="M150.16,182.33c3.22,0,4.44,3.08,3.68,5.44l8.43-.19-6.55-11.53-66.43-1.62,1,12.82c1.55-1.46,4-1,5.46.39l.13.06a4.45,4.45,0,0,1,.34-1.16L96,186.4a4,4,0,0,1,0-5.65,3.29,3.29,0,0,1,.23-.46l.63-.81a4.07,4.07,0,0,1,2.85-1.19,4.14,4.14,0,0,1,2.86,1.19,4,4,0,0,1,1.18,2.85,5.24,5.24,0,0,1-.76,2.59c-.14.21-.29.4-.44.59a4.31,4.31,0,0,1,1,3.39l1.79,0v-.07a4.08,4.08,0,0,1,1.18-2.85,4.13,4.13,0,0,1,2.85-1.19h.41a3.89,3.89,0,0,1,1.41.28l.18-.13a4.1,4.1,0,0,1,5.53,1.45c.19.32.39.63.6.94a4.29,4.29,0,0,1,2-.52,3.86,3.86,0,0,1,.84.1,4.76,4.76,0,0,1,.77-.1,3.51,3.51,0,0,1,1.68.38,4.27,4.27,0,0,1,.49-1.61,4.06,4.06,0,0,1,5.52-1.45l3.63,2.43.34.25a4.57,4.57,0,0,1,1.8-1.06,3.95,3.95,0,0,1,4.78,2.38h0l7.2-.17C145.67,185.56,146.87,182.33,150.16,182.33Z"/><path class="cls-17" d="M245.84,246.79a23,23,0,0,1-2.17-2.94l-.25,7.92,4-.21a7.58,7.58,0,0,1-1.57-4.23A2,2,0,0,1,245.84,246.79Z"/><path class="cls-17" d="M244.63,176.68l-.4,7.27,1.21,3.63-.13,4.18a6.16,6.16,0,0,1,2,0,5.85,5.85,0,0,1,4.65,3.38,8.49,8.49,0,0,1,.34,3.74,4.11,4.11,0,0,1-4,4,3.7,3.7,0,0,1-2.51-.89A4.9,4.9,0,0,1,245,202l-.16,5.06a4.06,4.06,0,0,1,1.82-.46h.41a4.17,4.17,0,0,1,2.85,1.18,4.06,4.06,0,0,1,1.18,2.85,2.93,2.93,0,0,1,0,.59,12.61,12.61,0,0,1,5,5.91,4.12,4.12,0,0,1,.57,1.31l.12.51a21.13,21.13,0,0,1,.64,2.55s0,.11.05.17h0c.07.36.12.72.16,1.08a3.19,3.19,0,0,1-.85,2.77c.94,2.39-.26,5.7-3.59,5.7-3.77,0-4.8-4.25-3.1-6.58a4.14,4.14,0,0,1-.39-.82c-.32-1-.51-2-.76-3.06a14.31,14.31,0,0,0-1.39-2.12,1.27,1.27,0,0,0-.55-.45,17.8,17.8,0,0,1-.58,1.71c-.69,3,.49,6.32,1.57,9,.41,1,.86,2,1.33,3l.66.13a10.5,10.5,0,0,1,7.51,5.56,4.43,4.43,0,0,1,0,4.07c3.12,0,5.9,4.05,3,6.88a28,28,0,0,1-2.8,2.46l1.16-.06,6.05-1.35a4,4,0,0,1-.26-4.32,4.06,4.06,0,0,1,5.53-1.45,9.2,9.2,0,0,1,3.3,3.87l5.27-1.17.06,0,1.39-.31c.4-2.79,4.17-5.08,6.95-2.55l.85.82,3.56-.79L301.56,188l.4-10.09Zm27.46,41.58c-5.21,0-5.2-8.07,0-8.07S277.28,218.26,272.09,218.26ZM266,186.34a4,4,0,0,1,5.71,0,4,4,0,0,1,1.07,2l0-.15a3.41,3.41,0,0,0,.23.68,6.4,6.4,0,0,1,.31,1.94,4,4,0,0,1-8,.49,3,3,0,0,0-.17-.5,5,5,0,0,1-.29-1.6A4,4,0,0,1,266,186.34Zm-5.19,9.74a4.35,4.35,0,0,1,3.2-1.23,4.17,4.17,0,0,1,2.86,1.18,4,4,0,0,1,0,5.71l-.31.25a4.35,4.35,0,0,1-2.95,1.34,4.11,4.11,0,0,1-2.85-1.19,4.18,4.18,0,0,1-1.19-2.85A4.65,4.65,0,0,1,260.81,196.08ZM255.68,208a4.12,4.12,0,0,1,2.82-5,4.07,4.07,0,0,1,5,2.82,4.74,4.74,0,0,0,.16.65l.05.14a4.11,4.11,0,0,1,3.16,3.91,4,4,0,0,1-1.63,3.23,3.51,3.51,0,0,1,1.08,1.2,10.64,10.64,0,0,1,1.36,4.46,4,4,0,0,1-6.89,2.85,4.17,4.17,0,0,1-1.14-2.44c0-.12-.06-.24-.1-.36s-.13-.29-.2-.44a4.43,4.43,0,0,1-.41-3.11,3.78,3.78,0,0,1,1.26-2A8.41,8.41,0,0,1,255.68,208Zm22.73,26.64-.31.05a5.28,5.28,0,0,1-.9.36c-1.06.29-2.11,3.26-3,4.1a6.63,6.63,0,0,1-6.91,1.63c-3.54-1.35-7.82-4.57-9.22-8.15-1.73-4.42,4.6-6.54,7.16-3.26a3.81,3.81,0,0,1,1.18-.23,4.08,4.08,0,0,1,2.85,1.18,3.87,3.87,0,0,1,.59.79l.14-.23c.05-.08.11-.15.16-.22-.28-.53-.53-1.08-.77-1.66-.87-2.09.95-4.36,2.82-5a4.13,4.13,0,0,1,3.11.41,4.36,4.36,0,0,1,1.82,2.34h0c-.3-.73-.12-.38.07,0a4,4,0,0,1,1.18,7.86Zm6.22-9.11a4,4,0,0,1-2.85,1.18,3.77,3.77,0,0,1-1.88-.47,4.45,4.45,0,0,1-2.19-1.11,4,4,0,0,1,0-5.71,4.18,4.18,0,0,1,2.86-1.19,7.38,7.38,0,0,1,2,.24,4.65,4.65,0,0,1,2,1.17,4.2,4.2,0,0,1,1.08,1.84,11.55,11.55,0,0,1,.18,1.2A3.88,3.88,0,0,1,284.63,225.56Z"/><path class="cls-17" d="M166.71,183.14l1.87-7.5,60.31,1.85s7.27,6.86,6.86,8.07a43.25,43.25,0,0,0-.81,5.25s-6.46-1.61-7.67-.4-2.82,4.44-2.82,5.65-4,1.21-4,1.21l-3.63-3.63s3.23-2.83,1.61-2.43-8.07,1.62-8.07,1.62,2.42,4.44.8,4-6.86-2.83-6.86-2.83,2.42-7.27.4-7.27-4.84-3.63-8.07-2.42-25.44.81-25.44.81l2.43,7.67s1.21-4,3.63-3.23,4.85,1.21,4,2.83,1.61,3.22,0,4.44-.41,2.82-4,3.23-10.9-2.43-10.5-4,2.83-6.86,1.21-6.46-5.24,2.83-5.24,2.83l4.44-7.68"/><path class="cls-17" d="M169.94,208.17l1.33,1.52,1.5,1.71,4.84-4.44s1.22-2.83-1.61-2.83a42.35,42.35,0,0,1-7.67-1.21"/><path class="cls-17" d="M202.79,240.74a3.4,3.4,0,0,1-1,.62,25.84,25.84,0,0,0,.47,7.62c.12-.09.24-.2.38-.29h0a10.54,10.54,0,0,0,1-.93,5.32,5.32,0,0,0,.35-.67l-.21.49a4.42,4.42,0,0,1,2.23-2.31A10.06,10.06,0,0,1,202.79,240.74Z"/><path class="cls-17" d="M232.67,220.82c.94-4,1.55-7.87,3.63-11.46a3.82,3.82,0,0,1,1.17-1.25c-.12-.22-.23-.44-.36-.66a4.07,4.07,0,0,1-2.39-2.66c-.05.06-.09.12-.15.18-1.42,1.41-4.36,1.71-5.71,0a9.38,9.38,0,0,1-2.41-5.4l-22,.45a3.67,3.67,0,0,1,.4.65,5.87,5.87,0,0,1,.44,1.07,7.93,7.93,0,0,1,.15,1.18,4,4,0,0,1-1.13,2.8l-1,2a3.72,3.72,0,0,1,1.31,2.9,45.24,45.24,0,0,1-.54,7.54,3.86,3.86,0,0,1-.63,1.57,4.51,4.51,0,0,1,1.61,1,2.75,2.75,0,0,1,.44.52,4.22,4.22,0,0,1,1.81,0,4.11,4.11,0,0,1,2.42,1.86c.33.68.57,1.38.83,2.08a3.91,3.91,0,0,1,.52,2c0,.35-.09.71-.14,1.07a4,4,0,0,1-1.86,2.41,4,4,0,0,1-5.52-1.45c-.27-.55-.48-1.13-.7-1.7a3.7,3.7,0,0,1-.66.07h-1.61a3.75,3.75,0,0,1-1.26-.23c0,.42,0,.83,0,1.24a4.55,4.55,0,0,1,1.46.81c.31.22.61.43.9.68a5.25,5.25,0,0,1,1.16,1.52,4.16,4.16,0,0,1,.49,2.4,4.12,4.12,0,0,1,.87,2.46v.07a4.56,4.56,0,0,1,1.35-.73,4.12,4.12,0,0,1,3.11.41,4.43,4.43,0,0,1,1.83,2.34h0c-.3-.74-.13-.38.07,0a4,4,0,0,1,3.63,2.08,4.75,4.75,0,0,1,.91-.13,4.08,4.08,0,0,1,2.86,1.18,4,4,0,0,1,.89,1.42,4.31,4.31,0,0,1,.69,2.24,4,4,0,0,1-1.18,2.86,4.1,4.1,0,0,1-2.85,1.18,4.17,4.17,0,0,1-2.86-1.18,5.46,5.46,0,0,1-1.21-1.75l-.8.1a4.73,4.73,0,0,1,.28.39,4.08,4.08,0,0,1,.4,3.11l0,.08c5.1.31,10.92.62,15.35.74a4.16,4.16,0,0,1,.77-1.68,5.21,5.21,0,0,1-1.2-2.36,12.59,12.59,0,0,1-.21-2.29,4.18,4.18,0,0,1,1.19-2.86,3.6,3.6,0,0,1,1.8-1,4.44,4.44,0,0,1,.42-1,4,4,0,0,1-1.79.4,3.8,3.8,0,0,1-2.61-.94,4.09,4.09,0,0,1-4.92-2.84,23.69,23.69,0,0,1-.55-5.51,4,4,0,0,1,8.08,0c0,.4,0,.81,0,1.21a3.67,3.67,0,0,1,3.47,2.13,3.77,3.77,0,0,1,2.57-.92,3.86,3.86,0,0,1,2.17.61c.35-2.56.71-5.25,1.08-8A4.11,4.11,0,0,1,232.67,220.82Zm-15.09-3a15.85,15.85,0,0,1-.13,2.18,8.4,8.4,0,0,1-.82,2.68,4,4,0,0,1-2.41,1.86,4,4,0,0,1-3.11-.41,4.09,4.09,0,0,1-1.86-2.41,4,4,0,0,1,.14-2.47l-.07.18a4.66,4.66,0,0,0,.16-.49c0-.38,0-.75,0-1.12a4.08,4.08,0,0,1,3.74-4l-.54-.41a4,4,0,0,1,0-5.71,4,4,0,0,1,2.86-1.18,5.13,5.13,0,0,1,2.29.62,2.27,2.27,0,0,1,.25.18c.1,0,.2.09.3.15l.82.63a4,4,0,0,1,0,5.71A4.06,4.06,0,0,1,216.4,215,4.14,4.14,0,0,1,217.58,217.86Zm8.93,3.52c-.09.15-.17.29-.25.45a6.89,6.89,0,0,1-1,1.31,4,4,0,0,1-5.71,0,4.13,4.13,0,0,1-1.18-2.86,4,4,0,0,1,.76-2.31c.09-.14.17-.29.25-.44a6.31,6.31,0,0,1,1-1.31,4,4,0,0,1,6.13,5.16Z"/><path class="cls-17" d="M247.25,181.23v67.16l5.08,2.34s39.82-8.59,39.24-8.39,4.1-59.54,3.32-58.18S247.25,181.23,247.25,181.23Z"/><path class="cls-17" d="M205.91,182.28c-2.35.52-2.32,65.48-2.32,65.48s11.47.69,22.24,1.2c-.41-4.1-.46-7.93,2.76-11.61,2.14-2.46,5.81-.88,6.75,1.78,1.16,3.28,1.09,6.86,1.55,10.29,3.16.1,5.6.13,6.72.05.08-7.08.09-14.2-1.52-21.12-1.18-5.06,6.61-7.2,7.78-2.14.08.33.15.66.22,1,4.74-17.67,10.67-39.49,10.67-39.49Z"/><path class="cls-1" d="M84.75,255s-6-16.55-5.24-15.34,9.28,14.94,9.28,14.94,2-14.94,2.42-13.73,3.64,16.56,2.43,16.56S84.75,255,84.75,255Z"/><path class="cls-1" d="M116.25,255.41,107,249.76l11.71,4.84s-4.44-28.26-5.65-29.07-8.89-9.28-8.89-9.28c-.4-2,2.43-3.23,2.43-3.23a15.74,15.74,0,0,1,.73,3.09,8.7,8.7,0,0,1-1.54.79s8.47,8.76,8.34,8.76,5,29.11,5,29.11l.21-6.13,2.66-2.09-1.37,2.67.08,5,3.51-2.46-2.92,2.71,2.54.46a13.66,13.66,0,0,1,.75-1.79c0,.33,0,2.21,0,2.33l-.08.55Z"/><path class="cls-1" d="M135.89,257s-1.74-11-1.21-9.82,3.64,10,3.64,10,1.48-5.12,1.48-4.44a43.23,43.23,0,0,0,1.48,4.84l3.5-2.15s1.21,2.69.8,2.69-9.28.13-9.69,0S135.89,257,135.89,257Z"/><path class="cls-1" d="M267.11,253.79l-4.17-6.73s5.11,5.52,5.11,4.58.54-21.53.54-21.53,1.61,20.86,1.75,19.65,5.25-10.1,5.25-10.1,5.11,2,4.44,2.42-2.69-.13-3.1.27-5.51,8.89-5.51,8.89l3-1.48,4.3,3.36s-4-1.61-4.44-1.35-3.23,1.89-3.23,1.89Z"/><path class="cls-1" d="M291.47,248.41c-.27-.54-2.83-8.48-2.83-7.94s3.37,4,3.23,3.63S293,231.45,293,231.45l.94,11.31s6.06-3.1,5.65-3a41.41,41.41,0,0,0-4.44,4,16.76,16.76,0,0,0-.81,3.64l3-2.69s4.18,5.92,3.64,5.38-4.31-3.23-4.71-3a14.75,14.75,0,0,0-1.48,3l-3.64-.54-4.57.94,1.61-4.44Z"/><polygon class="cls-2" points="15.91 204.88 33.16 202.8 43.3 203.01 64.51 202.84 58.14 248.26 40.8 252.13 26.4 249.59 15.91 204.88"/><polygon class="cls-5" points="58.38 207.06 44.44 208.6 48.23 250.71 58.14 247.69 64.51 202.27 58.38 207.06"/><polyline class="cls-18" points="34.12 202.85 33.94 191.17 38.81 189.02 46.18 190.59 49.56 195.72 49.06 206.89"/><path class="cls-1" d="M16.66,205.68l9.66,1.72,16.24.68,13.35-1.36,7.24-2.89,1-.8-2.81.3-1.15.84s-4.54,1.62-4.73,1.67-13,1.51-13,1.51l-15.59-.56-9-1.66.66-.56,8.78-.91s.16-.76,0-.64-6,.66-6,.66l-4.47.54-1,.35.05.81Z"/><polygon class="cls-1" points="30.69 203.26 30.69 202.6 39.57 202.25 46.33 202.7 46.23 203.21 39.22 202.96 30.69 203.26"/><path class="cls-16" d="M220.21,209.38l1.21,45.42-6.86,1.62L185.63,259,157,261l62.57-2.12h9.89c1.82,0,14.74-1.65,14.74-1.65l-9.61-.4L223.24,255"/><polygon class="cls-5" points="48.2 246.64 35.88 248.91 30.33 248.63 26.12 248.38 26.4 249.59 40.8 252.13 48.59 250.71 48.2 246.64"/><polygon class="cls-5" points="23.74 237.32 26.39 239.44 33.6 240.47 42.88 240.47 47.23 239.61 47.81 237.95 23.74 237.32"/><polygon class="cls-5" points="18.69 217.18 19.29 219.28 31.12 221.74 45.73 220.43 48.8 219.94 49.56 218.28 18.69 217.18"/><polygon class="cls-11" points="22.15 233.59 23.14 237.46 34.41 239.44 42.14 239.32 50.83 238.04 57.18 236.15 60.57 233.94 61.51 230.22 60.69 229.63 60.68 230.15 56.38 232.31 49.95 234.23 41.48 235.35 33.25 235.03 22.93 233.76 22.79 232.78 22.15 233.59"/><path class="cls-1" d="M29.85,252.45s-6.06-16.56-5.25-15.34S33.88,252,33.88,252s2-14.93,2.43-13.72,3.63,16.55,2.42,16.55S29.85,252.45,29.85,252.45Z"/><polygon class="cls-11" points="16.6 212.25 17.87 217.17 31.7 219.87 41.17 219.85 51.8 218.36 59.55 216.06 63.67 213.31 64.76 208.6 63.75 207.84 63.74 208.5 58.51 211.17 50.66 213.5 40.3 214.79 30.21 214.25 17.54 212.48 17.36 211.24 16.6 212.25"/><polygon class="cls-5" points="114.3 81.43 113.75 82.94 115.4 82.18 115.4 81.43 114.3 81.43"/><polygon class="cls-5" points="79.03 81.91 77.98 78.51 75.92 82.32 76.97 83.59 79.03 81.91"/><polygon class="cls-5" points="112.61 94.38 110.05 91.92 110.09 96.24 111.61 96.86 112.61 94.38"/><polygon class="cls-5" points="236.4 80.73 237.99 77.56 233.87 78.88 233.74 80.52 236.4 80.73"/><polygon class="cls-5" points="271.66 78.51 268.18 77.75 270.49 81.42 272.11 81.14 271.66 78.51"/><polygon class="cls-5" points="316.07 70.86 319.17 72.59 318.03 68.41 316.4 68.21 316.07 70.86"/><polygon class="cls-5" points="321.18 65.69 320.04 66.21 320.81 64.34 321.34 64.41 321.18 65.69"/><polygon class="cls-5" points="269.33 88.68 267.49 87.29 267.85 90.08 268.88 90.36 269.33 88.68"/><polygon class="cls-3" points="219.53 210.2 223.06 213.17 223.42 215.54 221.6 217.51 219.97 214.72 220.44 212.64 219.53 210.2"/><polygon class="cls-3" points="219.07 233.18 219.1 237.8 217.51 239.6 214.82 239.48 215.9 236.44 217.79 235.45 219.07 233.18"/><polygon class="cls-3" points="220.38 216.22 219.53 255.25 221.42 254.8 220.38 216.22"/><polygon class="cls-3" points="235.77 236.39 238.38 239.6 241.04 248.51 241.04 257.43 241.04 259.48 243.42 258.95 243.42 247.81 239.6 240.74 237.47 236.39 235.77 236.39"/><polygon class="cls-3" points="205.96 245.28 208.3 250.56 208.85 257.19 212.31 257.19 210.58 252.63 209.12 248.51 205.96 245.28"/></g></svg>