<svg xmlns="http://www.w3.org/2000/svg" viewBox="0 0 801.91 409.98"><defs><style>.cls-1{fill:#ffeeb8;}.cls-2{fill:#d45c28;}.cls-3,.cls-6{fill:#dd992e;}.cls-4{fill:#c24a4a;}.cls-5{fill:none;}.cls-5,.cls-6{stroke:#d45c28;stroke-miterlimit:10;stroke-width:3.13px;}.cls-7{fill:#b2b2b2;}.cls-8{fill:#f4ca98;}.cls-9{fill:#f7931e;}.cls-10{fill:#9e9b9b;}.cls-11{fill:#e56a6a;}.cls-12{fill:#7d4e24;}.cls-13{fill:#b7cebf;}</style></defs><title>geist</title><g id="Bcakground"><path class="cls-1" d="M129.32,390c-40,1-57.4-8.94-57.4-8.94s-42-25.86-13.34-41.08,71.4-17,105.1-11.64,39.38,16.86,102.94,16,70.24-6.11,139.31-9.33,113.78-5.54,156.49,4.36,55.38,22.49,37.37,35S542.63,399.53,499.14,400,169.36,389,129.32,390Z"/><path class="cls-1" d="M427.78,365.88c-37.28-5.29-240.69,16.84-321.09,5.77s122.17,3.18,131.39-33.47,44-35.8,54.82-22.91,133,19.55,166.13-15,109.39-52.89,131.57-60.65,32.86,6.86,46.57,30.71,81.3,9.25,75.51,39.46S637,367.2,623.05,368.37,465.05,371.16,427.78,365.88Z"/><path class="cls-1" d="M89,323.07c1.38,3.08-2.65-.77-14.43,4.52S47.67,345.3,46.29,342.22s7.52-12.13,19.3-17.41S87.58,320,89,323.07Z"/></g><g id="Ebene_1" data-name="Ebene 1"><polygon class="cls-2" points="350.26 266.79 292.78 230.63 321.02 170.53 386.79 189.04 350.26 266.79"/><polygon class="cls-3" points="350.26 266.79 413.75 287.47 422.31 266.64 437.83 236.22 386.79 189.04 362.07 238.33 350.26 266.79"/><polygon class="cls-4" points="354.17 226.4 307.53 199.25 321.02 170.53 386.79 189.04 354.17 226.4"/><polygon class="cls-3" points="356.15 208.58 286.18 182.89 321.02 170.53 386.79 189.04 356.15 208.58"/><polygon class="cls-2" points="374.4 229.82 430.11 251.36 437.83 236.22 386.79 189.04 374.4 229.82"/><polygon class="cls-3" points="398.88 225.1 450.25 260.83 437.83 236.22 386.79 189.04 398.88 225.1"/><path class="cls-2" d="M390.76,257.8a10.77,10.77,0,0,1-1,2.4,6.57,6.57,0,0,1-1.44,1.7,4.57,4.57,0,0,1-1.84.89,4.88,4.88,0,0,1-2.21,0,8.38,8.38,0,0,1-1-.31,8.59,8.59,0,0,1-1-.48l.82-2.14a.78.78,0,0,1,.33-.42.73.73,0,0,1,.55-.06,1.47,1.47,0,0,1,.38.15,2.5,2.5,0,0,0,.55.19,2.26,2.26,0,0,0,.85,0,1.5,1.5,0,0,0,.73-.37,3,3,0,0,0,.61-.84,7.14,7.14,0,0,0,.53-1.37l3.1-10.37,3.21.74Z"/><path class="cls-2" d="M391,262.34a2.3,2.3,0,0,1,.41-.59,1.82,1.82,0,0,1,.54-.36,1.42,1.42,0,0,1,.61-.13,1.24,1.24,0,0,1,.61.14,1.4,1.4,0,0,1,.48.39,1.66,1.66,0,0,1,.27.57,1.74,1.74,0,0,1,.05.65,2.25,2.25,0,0,1-.2.69,2.1,2.1,0,0,1-.42.59,1.78,1.78,0,0,1-.55.37,1.57,1.57,0,0,1-.6.12,1.38,1.38,0,0,1-1.1-.54,1.49,1.49,0,0,1-.27-.55,2.06,2.06,0,0,1,0-.66A2.2,2.2,0,0,1,391,262.34Z"/><path class="cls-2" d="M403.08,266.26a.28.28,0,0,1,.13.11.44.44,0,0,1,.09.18l.32,1.46a4,4,0,0,1-2,.62,4.87,4.87,0,0,1-3.78-1.85A4.45,4.45,0,0,1,397,265a6.17,6.17,0,0,1,0-2.19,8.85,8.85,0,0,1,.77-2.35,7.63,7.63,0,0,1,1.43-2.06,5.89,5.89,0,0,1,1.82-1.27,4.78,4.78,0,0,1,2-.42,5.1,5.1,0,0,1,3,1.11,5.12,5.12,0,0,1,.69.71,4,4,0,0,1,.49.81,4.48,4.48,0,0,1,.3.87l-1.26.79a1.12,1.12,0,0,1-.25.11.41.41,0,0,1-.3,0,.42.42,0,0,1-.18-.17,2.55,2.55,0,0,1-.14-.24l-.15-.31a2.92,2.92,0,0,0-.23-.34,2.34,2.34,0,0,0-.35-.36,3.07,3.07,0,0,0-.55-.34A2.65,2.65,0,0,0,403,259a2.62,2.62,0,0,0-1.14.3,4,4,0,0,0-1.06.83,5.66,5.66,0,0,0-.88,1.34,5.76,5.76,0,0,0-.53,1.58,3.79,3.79,0,0,0,0,1.34,2.49,2.49,0,0,0,.43,1,2.08,2.08,0,0,0,.81.69,3.84,3.84,0,0,0,.54.22,1.78,1.78,0,0,0,.49.1,2.57,2.57,0,0,0,.48,0,3.06,3.06,0,0,0,.53-.15.85.85,0,0,1,.22,0A.45.45,0,0,1,403.08,266.26Z"/><path class="cls-2" d="M405.59,267a1.28,1.28,0,0,1,.63-.64,1.1,1.1,0,0,1,.4-.08.85.85,0,0,1,.41.09.82.82,0,0,1,.32.26,1,1,0,0,1,.18.38,1.07,1.07,0,0,1,0,.44,1.39,1.39,0,0,1-.41.85,1,1,0,0,1-.36.24.91.91,0,0,1-.81,0,.82.82,0,0,1-.32-.26,1.09,1.09,0,0,1-.19-.37,1.36,1.36,0,0,1,.12-.9Z"/><line class="cls-5" x1="374.84" y1="264" x2="406.17" y2="274.51"/><line class="cls-6" x1="384.98" y1="238.45" x2="414.32" y2="254.15"/><polygon class="cls-2" points="422.31 266.64 415.84 264.6 421.93 267.46 422.31 266.64"/><polygon class="cls-2" points="360.43 237.56 372.6 243.28 360.64 238.66 360.43 237.56"/><polyline class="cls-2" points="286.18 182.89 285.54 184.26 356.15 208.58"/><polyline class="cls-2" points="398.88 225.1 449.02 261.08 450.25 260.83"/></g><g id="overlay"><path class="cls-3" d="M292.9,390.1c0,5.48-59.68,9.93-133.3,9.93S26.29,395.58,26.29,390.1c0-2.35,10.91-4.51,29.15-6.21,69.7-6.49,107.64-3.73,104.16-3.73C233.22,380.16,292.9,384.61,292.9,390.1Z"/><path class="cls-3" d="M637.17,391.45c0,4.21-45.85,7.63-102.41,7.63s-102.41-3.42-102.41-7.63c0-1.8,8.38-3.46,22.39-4.77,15.37-1.43,28.74-2.28,39.91-2.75,27.75-1.19,42-.12,40.11-.12C591.32,383.81,637.17,387.23,637.17,391.45Z"/><path class="cls-3" d="M751.24,390.65c0,4.22-45.85,7.63-102.41,7.63s-102.41-3.41-102.41-7.63c0-1.8,8.38-3.46,22.39-4.76,15.37-1.44,28.74-2.28,39.91-2.76,27.75-1.19,42-.11,40.11-.11C705.39,383,751.24,386.43,751.24,390.65Z"/><path class="cls-3" d="M660.58,374.09c0,2.8-30.41,5.07-67.93,5.07s-67.94-2.27-67.94-5.07c0-1.19,5.56-2.29,14.86-3.16,10.19-.95,19.06-1.51,26.47-1.83,18.41-.78,27.87-.07,26.61-.07C630.17,369,660.58,371.3,660.58,374.09Z"/><polygon class="cls-7" points="116.09 390.1 116.8 382.77 122.18 178.08 147.43 162.46 183.39 169.31 209.63 200.89 203.93 251.44 223.32 390.1 141.61 394.02 116.09 390.1"/><polygon class="cls-8" points="159.32 85.6 162.35 129.17 187.39 139.33 201.31 131.97 200.88 125.28 188.19 115.78 200.5 119.49 199.88 109.99 198.31 86.01 197.37 71.63 193.37 67.32 158.9 75.03 159.32 85.6"/><polygon class="cls-9" points="198.12 89.27 187.82 93.75 181.47 132.02 187.39 139.33 169.71 132.16 176.25 70.42 197.45 72.97 198.12 89.27"/><polygon class="cls-7" points="203.59 81.68 193.09 56.87 174.38 56.87 160.24 59.58 155.3 75.51 133.58 145.58 171.14 140.05 176.64 121.79 185.04 123.23 183.78 98.08 187.87 84.53 195.26 80.38 199.3 80.96 203.59 81.68"/><polygon class="cls-8" points="198.93 113.55 208.2 108.69 204.44 96.52 197.45 92.08 198.93 113.55"/><polygon class="cls-10" points="183.39 169.31 141.61 182.99 132.3 217.22 159.6 232.04 156.91 394.02 116.09 390.1 122.18 178.08 141.61 166.27 183.39 169.31"/><polygon class="cls-10" points="209.14 83.94 203.46 78.65 193.09 56.87 192.75 57.99 199.09 71.88 197.37 71.63 198.02 81.68 209.14 83.94"/><polygon class="cls-10" points="133.04 196.68 123.1 211.51 132.42 238.89 243.69 271.02 243.69 213.79 234.84 191.77 133.04 196.68"/><polygon class="cls-8" points="238.08 222.92 312.29 231.39 320.28 216.07 347.66 216.07 347.66 231.39 366.65 231.39 375.92 237.75 371.61 271.02 361.34 278.24 307 261.7 303.59 247.16 238.08 242.59 238.08 222.92"/><polygon class="cls-7" points="584.43 200.82 630.71 200.82 638.53 258.86 638.53 374.12 560.32 370.42 556.4 277.68 567.49 258.86 584.43 200.82"/><polygon class="cls-4" points="516.43 389.8 536.46 391.22 536.46 362.81 543.56 362.81 543.56 391.22 562.84 391.22 568.81 385.89 568.81 334.45 514.76 332.04 516.43 389.8"/><polygon class="cls-11" points="525.26 248.53 524.98 231.8 528.99 229.33 544.9 208.99 563.72 208.99 571.9 258.12 571.9 355.7 495.6 352.77 490.18 352.56 508.9 274.06 520.48 258.12 525.26 248.53"/><polygon class="cls-8" points="536.01 129.6 514.76 181.77 521.25 189.36 549.33 202.94 556.71 199.37 569.4 163.35 575.03 147.39 572.38 136.44 538.73 125.16 536.01 129.6"/><polygon class="cls-9" points="556.71 199.37 549.33 202.94 557.81 157.65 554.58 152.21 536.53 147.26 529.92 144.03 533.58 133.57 571.89 144.03 572.76 153.83 556.71 199.37"/><polygon class="cls-8" points="597.56 132.8 590.63 189.04 608.88 191.77 632.61 191.77 651.08 139.33 620.85 113.55 597.56 119.11 597.56 132.8"/><polygon class="cls-9" points="603.09 152.81 590.54 152.81 590.54 165.74 597.39 165.74 603.09 152.81"/><polygon class="cls-2" points="607.74 389.8 632.61 313.03 620.17 254.15 632.61 243.09 659.07 234.43 686.44 254.84 700.13 318.74 712.68 374.12 679.6 394.02 607.74 389.8"/><polygon class="cls-8" points="640.92 162.97 620.87 215.98 637.96 222.94 661.02 228.56 691.37 181.98 668.1 149.78 644.15 149.68 640.92 162.97"/><polygon class="cls-12" points="654.12 245.87 645.79 286.19 634.13 250.08 645.65 250.08 654.12 245.87"/><path class="cls-13" d="M381.1,121.64,372,111.78c-2.71-2.93-7.79-6.86-9.28-10.61-3.23-8.11,7.44-8,11.77-7.9a36.1,36.1,0,0,1,14.06,3.52,1.93,1.93,0,0,0,2.79-1.14l2.46-11.43c.75-3.47.94-8.59,2.7-11.67,4.64-8.12,12.29,11.2,13.48,14,3.49,8.32,10.65,19.47,21.36,17.56,11.11-2,12.75-16.39,13.61-25.39a95.58,95.58,0,0,0-5.79-42.47l-2.34,2.34C447.64,41.14,450,55.3,460.64,58.41c6.75,2,14.82-3.15,13.28-10.62l-2.79,2.15a53.85,53.85,0,0,1,18.92,15c3.47,4.39,5.79,12.74,11.39,14.86,5.06,1.93,11.78-1.51,16-4.14a40,40,0,0,0,12.8-13,39.4,39.4,0,0,0,5.68-16.61c.79-7.88-2.43-15-2.74-22.72-.15-3.86.75-8.39,3.87-11,4.19-3.54,10.12-.65,14.6.87,8,2.71,16.3,5.94,22.3,12.09,6.2,6.35,9.46,15.84,5.27,24.14-2.84,5.64-7.83,10.42-9.13,16.76-2.52,12.32,11.52,16.58,21.1,15.22a35.42,35.42,0,0,0,27.53-22c1.11-2.93,1.52-6,2.52-9,2-5.79,6.92-7.29,10.64-1.86,3.5,5.12,3.69,11.7,7.75,16.57s9,4.8,13.91,1.36c3.92-2.7,6.74-2.65,10,.84,2.13,2.29,3.77,5,5.79,7.4,10.77,12.67,25.36,2.55,34.22-7l-3-.38a55.88,55.88,0,0,1,10.49,35.07c-.24,7.14-1.08,16.81,5.66,21.48,8.69,6,17.84-2.65,26.84-2.36s7.56,9.64,7.51,16.08l-.17,21.75c0,2.45,3.78,2.45,3.8,0l.17-21.75c0-4.84,1-11.08-1.88-15.38-5.26-7.82-15.72-3.51-22.67-1.3-7.12,2.25-13.82.89-15.24-7.24-.92-5.25,0-10.64-.15-15.92a58.47,58.47,0,0,0-11.08-32.35,1.92,1.92,0,0,0-3-.39c-5,5.36-12.15,12.43-20.07,12.14-7-.25-10.17-7.49-14.2-12.1-2.55-2.91-5.85-5.25-9.9-4.4C654,61.14,652.26,63,650,64.3c-5.13,2.91-8.44-2.39-10.15-6.49-2.1-5.06-3-10.69-7.4-14.47-3.2-2.77-7.69-3.25-11.06-.44-4.26,3.55-4.29,9.94-6,14.77a31.4,31.4,0,0,1-14.8,16.7c-6.22,3.31-14.44,5-21.13,2.12-9.78-4.27-4.39-13.39-.24-19.66,3.46-5.21,6.28-10.48,5.79-16.93a28,28,0,0,0-6.76-15.63c-4.43-5.27-10.56-8.83-16.82-11.49-6-2.56-14.45-6.87-21.17-5.92-13.45,1.9-10.69,18.81-8.82,27.88,3.35,16.25-4.91,33.55-20.56,40-3,1.24-6.9,2.69-9.56.23a16.24,16.24,0,0,1-2.91-4.35,60.21,60.21,0,0,0-6.44-9.46,57,57,0,0,0-18.86-14.55,1.93,1.93,0,0,0-2.79,2.15c1.38,6.72-7.73,6.94-11.41,4.62-3.29-2.06-5.6-5.44-7.94-8.43-3.54-4.55-7.31-8.68-13.12-10-1.3-.3-2.88.9-2.34,2.34a93.14,93.14,0,0,1,5.65,41.46c-.62,6.39-1.38,16.57-7.42,20.45-6.9,4.43-14.53-2.9-17.68-8.54-2.88-5.14-4.38-10.93-7.34-16-2-3.4-5.35-8.45-9.78-8.53-3.64-.06-5.53,3.31-6.45,6.39-2.13,7.17-3.23,14.83-4.8,22.15l2.79-1.13a40.13,40.13,0,0,0-18.58-4c-4.32.16-10,.73-12.69,4.65-2.8,4.09-.27,8.76,2.49,12.07,5.24,6.3,11.2,12.12,16.77,18.13,1.67,1.79,4.36-.9,2.69-2.69Z"/><path class="cls-13" d="M411.23,193.52c.74-3.07,1.44-6.35,3.19-9,2.84-4.31,8.86-6.09,11.51-.43,1.69,3.6,1.76,7.75,6.19,9.27,4.7,1.62,8.77-2,12.66-3.9,1.51-.76,7.29-3,8,0,.05.21-1.36,2.16-1.5,2.5a10.42,10.42,0,0,0-.77,3.35c-.73,11.17,10.37,15.51,18,20.71,3.2,2.19,6.1,5,7.18,8.83,1.27,4.51-1.55,6.51-3.75,9.86-2.47,3.75-1.18,7.88,1.89,10.86,3.6,3.51,8.46,3.93,12.75,6.11s4.78,5.58,5.34,10c.54,4.18,1.51,8.67,1.42,12.89C493,287,472.78,284.66,470.5,297s15.39,8.62,17.41,17.65c1.73,7.72-6.63,12-12.91,12.25-7.37.3-14.36-2.74-21.58-3.7-10.73-1.41-22.86,3.5-25.76,14.87-2.51,9.82,5.12,20.25,15.29,20.37,2.44,0,2.45-3.77,0-3.8-6.91-.08-12.42-6.59-12-13.44.53-7.86,8.17-13.59,15.54-14.43,12.42-1.43,24.85,7.93,37.09,2,7-3.38,11.49-13.69,5.35-20-3.34-3.41-8.39-3.2-12.09-5.85-9.77-7,7-13.57,11.69-16.07,3.54-1.88,6.9-4.49,8.08-8.49.86-3,.29-6.12-.06-9.11-.44-3.81-.7-7.72-1.39-11.49-.89-4.91-3.37-7.92-7.92-10-2.44-1.08-5.12-1.61-7.53-2.77a9.63,9.63,0,0,1-4-3.1c-2.24-3.52.35-5.89,2.16-8.54,6.56-9.62-3.87-18.65-11.41-23.09-5.33-3.14-11.92-6.75-12.21-13.79-.18-4.3,5.16-7,.52-10.76-3.34-2.72-8.49-1.46-11.92.34-3.91,2.07-9.25,5.91-12.16.37-1.21-2.32-1.24-4.91-3-7-3-3.57-8.21-3.6-12-1.42-5.14,2.92-6.81,9.08-8.09,14.43-.58,2.38,3.09,3.39,3.66,1Z"/><path class="cls-13" d="M756.61,192.09l1.3,10.4,1.4-1.83c-9.42,3.29-23.45-3.11-30.2,6.66-5.23,7.56-.18,18.07,6.5,22.88,3.95,2.84,9.57,4.8,14.3,2.78,2.13-.91,3.55-2.58,5-4.3s1.84-2.35,4-3.06c3.12-1,5,1.33,6.74,3.8,4.13,6,8.17,13.07,9.12,20.34.92,7.08-2.28,15.94-10,17.53-11.75,2.43-22-12.9-34.22-6.36-8,4.3-8.59,19.25-4.34,26.38,2.64,4.44,7.16,5.13,12,5,3.78-.09,7.33,0,9.31,3.65a9.45,9.45,0,0,1,.36,8.28c-2.26,4.8-9,3.85-12.08,7.92-2.67,3.51-1.26,7.69,1.67,10.51,3.5,3.36,19,6.85,16,13.45-3.36,7.3-19.68,1.61-25.85,2.23-5.1.52-10.06,3.07-11.52,8.29-1.16,4.18.12,8.79,4.24,10.67,2.21,1,4.14-2.27,1.92-3.28-3.52-1.61-3.49-6.31-1.15-9,2.7-3.08,7.51-3.17,11.24-2.95,6.31.39,12.84,2.58,19,.15,9.34-3.67,6.88-12.79-.62-16.79-3.79-2-20.21-8.27-8.67-13,3.82-1.56,7.31-2.5,9.24-6.51,3-6.25,0-15.28-7-17.11-6.22-1.6-13.62,2-15.89-6.43-1.55-5.74-1.36-16.7,5.47-18.78,12-3.66,21.87,11.75,34.32,6.64,8.15-3.34,11.56-13.11,10.4-21.31-.85-6-3.62-11.53-6.66-16.72-2.32-4-5.15-9.65-10-10.93-5.34-1.4-7.6,3-10.87,6.16-6.48,6.27-15.78-.77-18.81-7.24-3.77-8.06,1-14.41,9.44-14.82,6.34-.31,12.55,1,18.7-1.11a1.94,1.94,0,0,0,1.39-1.84l-1.29-10.4c-.3-2.39-4.11-2.42-3.81,0Z"/><path class="cls-13" d="M373.89,128.3c-4.63,3-3.43,9.63.82,12.56,3.72,2.57,8.3,1.91,12.47,3,1.6.41,3.4.95,4.39,2.38q2.13,1.18.47,3.43a2.76,2.76,0,0,1-1.57,3.12c-2.19,2.14-6.28,3.06-9.21,3.13-7.15.19-16.85-6.83-22.44.83a10.28,10.28,0,0,0,2.12,14.32c1.95,1.48,3.85-1.82,1.92-3.28-4.56-3.45-1.89-10.68,3.61-10.89,4.08-.15,8,2.23,12.06,2.69,5.65.65,12.12-1.1,16.08-5.34,3.45-3.7,2.72-8.44-1.08-11.52a14.63,14.63,0,0,0-7.32-2.87c-2.28-.34-4.67-.35-6.88-1-2-.6-7.55-4.58-3.52-7.22,2-1.34.14-4.63-1.92-3.28Z"/><polygon class="cls-9" points="631.95 186.7 647.21 186.7 651.08 186.7 648.83 192.09 656.12 198.47 666.48 195.79 666.48 208.58 656.12 225.1 661.02 228.56 684.78 198.47 691.37 181.98 660.21 151.77 640.92 162.97 631.95 186.7"/><polygon class="cls-12" points="643.02 137.35 629.35 167.69 636.74 174.01 648.9 176.5 655.43 165.35 664.34 176.12 656.4 188.25 660.47 195.8 669.91 185.97 677.19 189.25 668.83 207.79 673.28 288.76 682.37 282.01 680.93 216.07 691.99 206.8 708.01 170.82 690.52 140.24 661.5 129.5 643.02 137.35"/><ellipse class="cls-9" cx="524.98" cy="157.31" rx="3.23" ry="1.69" transform="translate(88.23 488.37) rotate(-53.84)"/><ellipse class="cls-4" cx="556.4" cy="134.54" rx="7.11" ry="44.78" transform="translate(255.02 621.22) rotate(-71.82)"/><path class="cls-11" d="M564.66,110.67c-14.65-4.81-27.15-6.83-27.91-4.5-.16.48-2.82,15.87-2.82,15.87h0a.83.83,0,0,0-.33.42c-.76,2.32,7.45,5.07,22.1,9.88,13.53,4.44,25.21,6.49,27.53,4.95h0a.94.94,0,0,0,.39-.46.76.76,0,0,0,0-.37c1.39-2.85,5.93-12.14,6.17-12.87C590.57,121.27,579.31,115.48,564.66,110.67Z"/><polygon class="cls-9" points="521.42 168.25 522.43 173.98 534.6 180.88 543.73 180.88 549.31 172.77 544.9 184.18 535.36 184.18 521.42 176.22 519.9 173.98 521.42 168.25"/><polygon class="cls-9" points="631.95 197.87 642.85 200.89 647.41 200.89 644.13 203.95 630.71 200.82 631.95 197.87"/><polygon class="cls-9" points="596.82 173.98 609.64 173.98 609.64 177.08 596.82 173.98"/><polygon class="cls-4" points="538.91 264.6 544.9 240.42 556.4 243.09 560.97 251.36 580.74 302.57 550.76 314.23 544.9 314.23 538.91 264.6"/><polygon class="cls-9" points="208.2 108.69 197.37 111.67 197.45 113.55 198.93 113.55 208.2 108.69"/><polygon class="cls-9" points="200.5 119.49 188.19 115.78 200.5 117.63 200.5 119.49"/><polygon class="cls-7" points="129 208.58 233.5 234.43 234.84 191.77 133.04 196.68 129 208.58"/><polygon class="cls-10" points="174.12 271.77 183.39 379.58 181.92 295.77 174.12 271.77"/><polygon class="cls-9" points="197.41 112.72 195.46 108.69 199.13 105.59 197.3 109.16 198.52 112.04 197.41 112.72"/><polygon class="cls-10" points="162.21 59.2 155.33 142.38 133.58 145.58 159.9 60.68 162.21 59.2"/><polyline class="cls-4" points="203.98 77.5 154.69 77.5 156.88 70.42 198.12 64.5"/><polygon class="cls-10" points="162.21 141.36 170.64 79.41 171.59 98.46 167.75 140.55 162.21 141.36"/><polygon class="cls-10" points="176.64 121.79 179.33 82.59 179.33 122.25 176.64 121.79"/><polygon class="cls-4" points="537 107.06 548.09 114.48 556.84 117.52 553.71 131.68 532.7 125.16 533.46 123.02 537 107.06"/><path class="cls-12" d="M561.7,152.81l-12.39,1.4,1.46,9.84,14.76,1.69-1.66,13.32,1.66,3.83,7.23-14.64s8.49.81,8,0,0-10.94,0-10.94L575,149.68l-3.13,6.6Z"/><ellipse class="cls-12" cx="529.62" cy="149.36" rx="2.94" ry="1.33" transform="translate(165.51 561.94) rotate(-64.32)"/><ellipse class="cls-12" cx="537.56" cy="153.76" rx="2.94" ry="1.33" transform="translate(166.04 571.6) rotate(-64.32)"/><polygon class="cls-9" points="238.08 231.39 309.17 242.09 312.56 253.18 361.15 271.77 371.61 271.02 361.34 278.24 307 261.7 303.59 247.16 238.08 242.59 238.08 231.39"/><polygon class="cls-9" points="326.35 216.07 343.54 223.32 345.13 225.1 347.16 224.94 347.66 216.07 326.35 216.07"/><polygon class="cls-9" points="318.89 226.4 308.98 244.12 309.17 252.5 315.05 256.66 318.89 226.4"/></g></svg>