<svg xmlns="http://www.w3.org/2000/svg" viewBox="0 0 85.13 111.53"><defs><style>.cls-1{fill:#c24a4a;}.cls-2{fill:#dd992e;}.cls-3{fill:#d45c28;}.cls-4{fill:none;stroke:#878787;stroke-miterlimit:10;stroke-width:2.36px;}.cls-5{fill:#ffeeb8;}.cls-6{fill:#878787;}.cls-7{fill:#468f99;}.cls-8{fill:#b2b2b2;}</style></defs><title>kapitelbild_06</title><g id="Bcakground"><path class="cls-1" d="M66.08,83.34c-13-.53-23,.94-36.64,0s-13.5-11-8.94-15.82,12.82-.88,12.44-10.26,3.59-7.78-11.19-14.23-9.7-33.11,2.3-22.7c7.74,6.72,10.36,12.56,19.69,9.5s31.82,1.3,26.16,11.59C53,72.24,79.11,83.87,66.08,83.34Z"/><path class="cls-1" d="M65.62,27.39c3.14,1.19,4.81,4.48,4.64,4.91S68.17,30.14,65,29s-6.31-.53-6.15-1S62.47,26.2,65.62,27.39Z"/><path class="cls-1" d="M17,66.63c1.73-2.88,6.24-3.06,6.53-2.7s-3.37.68-5.1,3.56-2.28,5.64-2.67,5.41S15.28,69.51,17,66.63Z"/><path class="cls-1" d="M37.06,29.64c-3.25-.76-5.35-3.8-5.25-4.25s2.36,1.86,5.61,2.62,6.24-.31,6.15.13S40.31,30.4,37.06,29.64Z"/><circle class="cls-1" cx="14.38" cy="14.6" r="0.99"/><circle class="cls-1" cx="72.74" cy="84.25" r="0.99"/></g><g id="Ebene_8" data-name="Ebene 8"><path class="cls-2" d="M71,87.62c0,1.43-11.91,2.59-26.59,2.59s-26.59-1.16-26.59-2.59C17.79,87,20,86.44,23.6,86c13.91-1.7,21.47-1,20.78-1C59.06,85,71,86.18,71,87.62Z"/><polygon class="cls-2" points="27.72 39.41 42.14 37.67 50.62 37.84 68.36 37.7 63.03 75.68 48.53 78.92 36.49 76.79 31.02 53.5 27.72 39.41"/><polygon class="cls-3" points="63.23 41.23 51.57 42.52 54.74 77.73 63.01 75.83 68.34 37.85 63.23 41.23"/><polyline class="cls-4" points="42.94 37.71 42.79 27.94 46.87 26.15 53.03 27.46 55.85 31.75 55.44 41.09"/><path class="cls-5" d="M28.34,40.08l8.08,1.43L50,42.08,61.17,41l6-2.42.86-.67-2.35.25-1,.71-4,1.39c-.15,0-10.84,1.26-10.84,1.26l-13-.46-7.54-1.4.55-.46,10.1-1s.13-.64,0-.53-7.79.82-7.79.82l-3.74.45-.84.3,0,.67Z"/><polygon class="cls-5" points="40.07 38.05 40.07 37.5 47.5 37.21 54.4 37.46 54.32 37.88 47.21 37.8 40.07 38.05"/><polygon class="cls-3" points="54.72 76.32 48.41 78.22 39.77 76.99 36.26 75.78 36.49 76.79 48.53 78.92 55.05 77.73 54.72 76.32"/><polygon class="cls-3" points="34.27 66.53 36.48 68.3 42.51 69.17 50.27 69.17 53.91 68.45 54.4 67.06 34.27 66.53"/><polygon class="cls-3" points="30.04 49.69 30.54 51.45 40.43 53.5 52.65 52.41 55.22 52 55.85 50.61 30.04 49.69"/><polygon class="cls-6" points="32.94 63.41 33.76 66.64 43.19 68.3 49.65 68.21 56.92 67.14 62.23 65.56 65.06 63.71 65.84 60.6 65.16 60.1 65.15 60.53 61.56 62.34 56.18 63.95 49.09 64.89 42.21 64.62 33.58 63.56 33.47 62.74 32.94 63.41"/><polygon class="cls-6" points="28.29 45.56 29.35 49.68 40.92 51.94 48.84 51.92 57.73 50.68 64.21 48.76 67.66 46.46 68.56 42.52 67.72 41.88 67.72 42.43 63.34 44.67 56.78 46.62 48.11 47.7 39.67 47.24 29.08 45.76 28.93 44.72 28.29 45.56"/><polygon class="cls-7" points="65.64 31.87 70.58 29.83 71.21 27.09 68.88 23.89 66.52 26.57 67.01 29.3 65.64 31.87"/><polygon class="cls-7" points="75.11 39.16 76.69 44 75.63 46.42 72.79 47.2 72.89 43.64 74.54 41.97 75.11 39.16"/><polygon class="cls-7" points="70.37 47.14 71.45 50.84 70.57 52.66 68.36 53.21 68.54 50.5 69.85 49.26 70.37 47.14"/><polygon class="cls-7" points="61.67 35.28 64.01 33.84 64.53 32.51 63.8 31.26 62.53 32.73 62.5 33.95 61.67 35.28"/><polygon class="cls-7" points="54.36 39.73 51.08 40.65 43.72 41.25 49.98 41.47 54.26 40.97 54.36 39.73"/><path class="cls-7" d="M68.63,32.34a46.44,46.44,0,0,0-5,2.65c-.83.7-2.59,2.68-2.59,2.68l-4.28,1-.12,2,4.19-.5L64,39.29l4.55-1.72-.8,4.31,4.1-.22,2.87-5.55-1.06-3.44Z"/><polyline class="cls-5" points="28.93 44.72 28.29 45.56 28.93 46.13 30.75 46.34 29.52 45.82 28.05 39.82 27.71 39.82 28.93 44.72"/><polygon class="cls-5" points="32.94 62.92 32.94 63.41 33.07 63.94 35.84 64.2 33.58 63.56 30.54 51.45 33.19 62.88 32.94 62.92"/><polygon class="cls-5" points="56.96 37.79 56.96 37.42 61.02 37.67 60.52 37.79 56.96 37.79"/><polygon class="cls-5" points="34.27 67.31 36.95 76.87 36.49 76.79 34.27 67.31"/><polygon class="cls-8" points="46.86 25.34 45.85 25.96 52.48 26.88 55.85 31.26 55.66 41.09 56.62 41.09 57.22 31.02 53.95 26.15 46.86 25.34"/><polygon class="cls-8" points="43.36 29.04 43.36 37.61 44.14 37.61 44.14 28.54 43.36 29.04"/></g></svg>