<svg xmlns="http://www.w3.org/2000/svg" viewBox="0 0 400 380.53"><defs><style>.cls-1{fill:#ffeeb8;}.cls-2{fill:#f4ca98;}.cls-3{fill:#f7931e;}.cls-4{fill:#dd992e;}.cls-5{fill:#da7346;}.cls-11,.cls-6,.cls-8{fill:none;stroke-miterlimit:10;}.cls-6{stroke:#f4ca98;stroke-width:12.96px;}.cls-7{fill:#d45c28;}.cls-8{stroke:#f7931e;stroke-width:2px;}.cls-9{fill:#7d4e24;}.cls-10{fill:#468f99;}.cls-11{stroke:#7d4e24;stroke-width:8px;}</style></defs><title>petrusvergleich_happy</title><g id="Bcakground"><path class="cls-1" d="M204.91,156.49c-8.17-16-161,6.29-115.51-20.86S190.22,91.9,255.12,88.87s76.58,13.34,58.33,33-76.32,55.49-66,81.6,32.19,23.73,52.52,49.85,56.1,43.73,20.27,71.78-95.52,23.2-148.42,28.09-108.4.91-114.92-17.09S213.08,172.52,204.91,156.49Z"/><path class="cls-1" d="M128.43,95.34c1.82,4-3.48-1-19,5.94s-35.32,23.29-37.14,19.24,9.9-16,25.39-22.9S126.62,91.3,128.43,95.34Z"/></g><g id="overlay"><rect class="cls-2" x="177.32" y="148.42" width="13.28" height="58.08"/><polygon class="cls-3" points="181.75 206.5 177.33 206.5 177.33 148.42 181.75 148.42 190.61 148.42 190.61 164.36 181.75 166.13 181.75 206.5"/><path class="cls-4" d="M364.44,358.63c0,7.21-78.47,13.06-175.28,13.06S13.88,365.84,13.88,358.63c0-3.09,14.34-5.92,38.32-8.16,91.65-8.54,141.54-4.91,137-4.91C286,345.56,364.44,351.41,364.44,358.63Z"/><polygon class="cls-5" points="245.56 354.31 186.39 358.24 144.87 354.31 144.87 184.6 177.24 184.6 177.35 197.69 190.61 188.46 191.09 179.94 210.5 174.6 245.56 184.6 245.56 354.31"/><polyline class="cls-6" points="256.12 219.16 264.12 283.98 262.58 344.79"/><polyline class="cls-6" points="135.6 227.11 128.28 278.28 119.49 358.24"/><polygon class="cls-7" points="226.93 235.77 244.75 232.29 262.58 192.02 226.93 192.02 226.93 235.77"/><polygon class="cls-3" points="262.58 235.19 249.74 242.63 249.74 232.12 262.58 232.12 262.58 235.19"/><polygon class="cls-5" points="238.29 232.12 273.94 232.12 273.94 188.37 253.43 178.4 238.29 188.37 238.29 232.12"/><polygon class="cls-7" points="144.87 285.52 144.87 296.94 188.64 299.62 144.87 285.52"/><rect class="cls-7" x="125.29" y="191.71" width="19.57" height="43.75"/><polygon class="cls-2" points="211.57 153.27 155.87 153.27 147.95 145.51 147.95 110.36 147.95 67.46 211.57 67.46 211.57 153.27"/><polygon class="cls-3" points="171.07 88.43 176.07 81.67 176.07 81.67 181.57 88.43 204.07 88.43 211.57 81.67 211.57 59.6 147.95 59.6 147.95 88.43 161.57 90.86 171.07 88.43"/><polyline class="cls-8" points="155.07 118.91 163.57 137.82 189.81 137.82 199.57 122.24"/><polygon class="cls-3" points="152.59 108.17 152.59 141.72 159.07 150.78 211.57 150.78 211.57 153.27 155.87 153.27 147.95 145.51 147.95 101.72 152.57 101.72 152.59 108.17"/><polygon class="cls-3" points="177.32 93.26 173.81 118.72 179.76 118.72 183.07 121.72 177.32 123.72 167.4 123.72 173.31 93.26 177.32 93.26"/><polygon class="cls-9" points="139.43 79.64 147.95 96.14 144.87 101.72 139.43 105.64 144.87 106.14 147.95 110.36 147.95 75.14 161.43 75.14 158.93 81.64 167.4 75.14 179.76 72.64 175.24 80.14 183.97 72.64 179.76 83.64 195.22 72.64 206.43 72.64 211.57 75.14 211.57 86.23 211.57 101.72 221.43 101.86 217.43 86.23 221.43 88.64 221.43 79.64 223.9 72.64 214.93 67.46 216.93 57.64 202.93 54.64 204.43 44.64 199.57 51.59 195.22 46.64 195.22 53.64 165.51 51.59 139.43 57.64 139.43 74.14 139.43 79.64"/><path class="cls-10" d="M145.47,64.32l-24.32-9.11-3.64-13.46,1.72-11.68,34.3-3.79s14.34-1.11,18.64-1.64,15.12-9.3,15.12-9.3l23.56,3.47,10.67,16.76,8,21.4-2,13.88-9.63,3.09-5-13.5L162.35,53l-15.59,2.52Z"/><polygon class="cls-3" points="211.57 98.2 223.9 93.26 223.9 113.14 215.43 113.14 211.57 105.64 211.57 98.2"/><polygon class="cls-3" points="139.36 87.38 139.36 102.45 141.86 102.45 150.38 96.88 150.3 88.99 142.03 84.88 139.36 87.38"/><line class="cls-11" x1="155.66" y1="79.79" x2="172.5" y2="80.48"/><line class="cls-11" x1="205.56" y1="82.57" x2="188.62" y2="81.7"/><circle class="cls-3" cx="191.76" cy="96.19" r="5.33"/><circle class="cls-3" cx="165.09" cy="96.19" r="5.33"/><circle class="cls-2" cx="191.76" cy="101.28" r="5.33"/><circle class="cls-2" cx="165.09" cy="101.28" r="5.33"/></g></svg>