<?xml version="1.0" standalone="no"?>
<!DOCTYPE svg PUBLIC "-//W3C//DTD SVG 20010904//EN"
 "http://www.w3.org/TR/2001/REC-SVG-20010904/DTD/svg10.dtd">
<svg version="1.0" xmlns="http://www.w3.org/2000/svg"
 width="1068.000000pt" height="1068.000000pt" viewBox="0 0 1068.000000 1068.000000"
 preserveAspectRatio="xMidYMid meet">
<metadata>
Created by potrace 1.11, written by Peter Selinger 2001-2013
</metadata>
<g transform="translate(0.000000,1068.000000) scale(0.100000,-0.100000)"
fill="#000000" stroke="none">
<path d="M5028 10425 c-2 -2 -15 -6 -29 -8 -14 -3 -212 -99 -440 -215 -228
-115 -661 -334 -964 -487 -302 -153 -748 -378 -990 -500 -242 -122 -479 -239
-528 -260 -104 -44 -175 -106 -209 -180 l-22 -50 -1 -3515 c-1 -3924 -8 -3571
71 -3659 46 -51 115 -93 184 -111 35 -10 554 -12 2240 -12 l2196 0 28 -82
c162 -460 483 -770 916 -885 79 -21 101 -26 202 -40 86 -12 309 -7 337 8 22
12 21 14 -46 84 -174 184 -258 385 -261 625 0 54 3 115 8 137 4 22 13 65 20
96 l11 56 338 1 c186 0 357 3 382 7 98 15 205 99 255 201 l29 59 3 3495 c2
3151 1 3500 -14 3548 -30 105 -91 175 -194 225 l-65 32 -285 3 c-157 1 -303 3
-325 5 l-40 2 -1 185 c0 157 -3 190 -18 220 -76 148 -242 224 -432 199 -32 -4
-84 -10 -114 -14 -30 -3 -66 -8 -80 -10 -14 -2 -50 -7 -80 -10 -30 -3 -68 -7
-85 -9 -16 -3 -61 -7 -100 -11 -38 -4 -91 -11 -117 -15 l-48 -7 0 112 c0 74
-5 127 -15 157 -17 47 -68 110 -122 147 -83 57 -227 80 -338 54 -33 -8 -69
-17 -80 -19 -11 -2 -187 -46 -391 -97 l-370 -93 -1 180 c0 100 -6 199 -12 221
-34 128 -170 223 -328 230 -39 2 -73 2 -75 0z"/>
</g>
</svg>
