<?xml version="1.0" encoding="utf-8"?>
<!-- Generator: Adobe Illustrator 22.1.0, SVG Export Plug-In . SVG Version: 6.00 Build 0)  -->
<svg version="1.1" id="Ebene_1" xmlns="http://www.w3.org/2000/svg" xmlns:xlink="http://www.w3.org/1999/xlink" x="0px" y="0px"
	 viewBox="0 0 88.5 88.6" style="enable-background:new 0 0 88.5 88.6;" xml:space="preserve">
<style type="text/css">
	.st0{fill-rule:evenodd;clip-rule:evenodd;fill:#E5696A;}
</style>
<g>
	<path class="st0" d="M88.5,75.6c-2.9,1.8-4.8,1-6.6-0.7C79,72,76,69.3,73,66.5c-1.8,0.7-3.1,1.2-4.9,1.9c0.4,2.9,0.9,5.7,1.3,8.8
		c1.8,1.7,3.6,3.5,5.5,5.2c1.9,1.7,2,3.6,0.8,5.7c-7.3,1.7-15.7-1.9-18.5-8.4c-1.1-2.5-1.2-5.6-1.5-8.5c-0.4-4-2-7.2-4.8-10
		c-8.2-8.1-16.3-16.2-24.4-24.4c-2.4-2.4-4.9-3.3-8.5-3.5c-6.1-0.2-11.4-2.7-15.4-8c-3.1-4.1-2.6-8.2-2.4-12.7c7-1.7,8.8,5,13.4,7.3
		c1.9,0,4,0,6.3,0c0-2.3,0-4.4,0-6.7c-2-2.2-4.1-4.6-6.3-6.9c-1.8-1.8-2.4-3.7-0.8-6.1C18-0.4,23-0.2,26.6,4.7
		c1.9,2.5,4,4.9,5.5,7.6c0.8,1.4,1.1,3.4,0.9,5c-0.3,3.8,1.2,6.8,3.7,9.3c8.3,8.5,16.7,16.9,25.2,25.2c2.3,2.3,5.2,3.7,8.7,3.6
		c8.1-0.1,13.6,4.4,16.9,11.3C88.9,69.3,88.3,72.7,88.5,75.6z"/>
	<path class="st0" d="M48.7,33.9c6.7-6.3,13.1-12.4,19.6-18.4c0.3-1.9,0.6-3.8,1-6c4-3,8.2-6.2,12.7-9.5c2.1,2.3,4.2,4.6,6.4,7
		c-2.7,4.6-5.2,9.1-8,13.5c-0.6,0.8-2.4,1.2-3.7,1.1c-2.2,0-3.7,0.9-5.3,2.4c-5.5,5.4-11.2,10.6-17,16.1
		C52.9,38.4,51,36.3,48.7,33.9z"/>
	<path class="st0" d="M36.9,61c0.9-1,1.8-2.1,2.7-3.2c-2.9-3.3-5.7-6.4-8.4-9.4c-0.5,0.3-0.8,0.4-1,0.5c-0.7,0.6-1.3,1.2-2,1.9
		L36.9,61z"/>
	<path class="st0" d="M25.3,53.6c-8,7.4-16,14.8-24,22.2c-0.5,0.5-1.2,1.2-1.2,1.8C0,80.9,0,84.1,0,87.6c3.3,0.3,9.2,0.8,9.2,0.8
		s2.7-0.7,3.6-1.5c7.2-7.5,14.3-15.1,21.3-22.7L25.3,53.6z"/>
</g>
</svg>
