<?xml version="1.0" encoding="utf-8"?>
<!-- Generator: Adobe Illustrator 16.0.0, SVG Export Plug-In . SVG Version: 6.00 Build 0)  -->
<!DOCTYPE svg PUBLIC "-//W3C//DTD SVG 1.1//EN" "http://www.w3.org/Graphics/SVG/1.1/DTD/svg11.dtd">
<svg version="1.1" xmlns="http://www.w3.org/2000/svg" xmlns:xlink="http://www.w3.org/1999/xlink" x="0px" y="0px"
	 width="241.197px" height="281.373px" viewBox="0 0 241.197 281.373" enable-background="new 0 0 241.197 281.373"
	 xml:space="preserve">
<g id="GRID_back">
</g>
<g id="Layer_2">
</g>
<g id="Ebene_1">
	<g>
		<g>
			<path fill="#C24A4A" d="M142.634,220.168H55.492c-18.322,0-33.18-14.856-33.18-33.18V84.144c0-18.329,14.857-33.183,33.18-33.183
				h87.186c18.303,0,33.142,14.828,33.142,33.132v102.896C175.819,205.312,160.963,220.168,142.634,220.168z"/>
			<path fill="#E56A6A" d="M147.514,206.312L31.64,220.14c-4.995,0.397-9.327-2.718-9.327-6.699V57.758
				c0-3.456,3.294-6.349,7.626-6.695l115.874-13.828c4.988-0.401,9.327,2.714,9.327,6.699v155.682
				C155.14,203.074,151.846,205.961,147.514,206.312z"/>
			<path fill="#C24A4A" d="M124.323,197.058l-92.098,22.989c-5.147,0.796-9.913-2.37-9.913-6.571V57.904
				c0-3.22,2.842-5.976,6.772-6.584l92.091-22.986c5.141-0.796,9.913,2.37,9.913,6.578v155.567
				C131.089,193.69,128.254,196.455,124.323,197.058z"/>
			<path fill="#E56A6A" d="M96.068,187.266l-64.511,32.587c-5.104,1.373-10.328-1.863-10.328-6.412V58.338
				c0-2.931,2.249-5.526,5.543-6.409l64.499-32.59c5.109-1.373,10.326,1.86,10.326,6.409v155.108
				C101.598,183.784,99.362,186.377,96.068,187.266z"/>
			<path fill="#C24A4A" d="M154.158,217.715c-2.466,5.854-3.873,16.132,5.574,24.471c1.02,0.901-27.14,5.026-34.237-24.471"/>
		</g>
		<ellipse fill="#E56A6A" cx="163.123" cy="256.658" rx="51.696" ry="5.053"/>
	</g>
</g>
<g id="overlay">
</g>
<g id="notes" display="none">
</g>
<g id="GRID_guides" display="none">
</g>
</svg>
