<?xml version="1.0" encoding="utf-8"?>
<!-- Generator: Adobe Illustrator 16.0.0, SVG Export Plug-In . SVG Version: 6.00 Build 0)  -->
<!DOCTYPE svg PUBLIC "-//W3C//DTD SVG 1.1//EN" "http://www.w3.org/Graphics/SVG/1.1/DTD/svg11.dtd">
<svg version="1.1" xmlns="http://www.w3.org/2000/svg" xmlns:xlink="http://www.w3.org/1999/xlink" x="0px" y="0px"
	 width="241.197px" height="281.373px" viewBox="0 0 241.197 281.373" enable-background="new 0 0 241.197 281.373"
	 xml:space="preserve">
<g id="GRID_back">
</g>
<g id="Layer_2">
</g>
<g id="Ebene_1">
	<g>
		<path fill="#4B9D8F" d="M151.69,222.089H64.549c-18.322,0-33.18-14.857-33.18-33.18V86.064c0-18.329,14.857-33.183,33.18-33.183
			h87.186c18.303,0,33.142,14.828,33.142,33.132V188.91C184.876,207.232,170.02,222.089,151.69,222.089z"/>
		<path fill="#69BEA4" d="M156.57,208.232L40.696,222.061c-4.995,0.398-9.327-2.717-9.327-6.699V59.679
			c0-3.456,3.294-6.349,7.626-6.695l115.874-13.828c4.988-0.401,9.327,2.714,9.327,6.699v155.682
			C164.196,204.996,160.902,207.882,156.57,208.232z"/>
		<path fill="#AFCA2E" d="M133.38,198.979l-92.098,22.989c-5.147,0.796-9.913-2.37-9.913-6.571V59.826
			c0-3.22,2.842-5.976,6.772-6.584l92.091-22.986c5.141-0.796,9.913,2.37,9.913,6.578v155.567
			C140.146,195.612,137.311,198.376,133.38,198.979z"/>
		<path fill="#F1E643" d="M105.125,189.187l-64.511,32.587c-5.104,1.373-10.328-1.863-10.328-6.412V60.259
			c0-2.931,2.249-5.527,5.543-6.409l64.499-32.59c5.109-1.373,10.326,1.86,10.326,6.409v155.109
			C110.654,185.705,108.419,188.298,105.125,189.187z"/>
		<path fill="#4B9D8F" d="M163.215,219.636c-2.466,5.854-3.873,16.131,5.574,24.47c1.02,0.902-27.14,5.027-34.237-24.47"/>
	</g>
	<g>
		<ellipse fill="#AFCA2E" cx="164.196" cy="256.658" rx="51.696" ry="5.053"/>
	</g>
</g>
<g id="overlay">
</g>
<g id="notes" display="none">
</g>
<g id="GRID_guides" display="none">
</g>
</svg>
