<?xml version="1.0" encoding="utf-8"?>
<!-- Generator: Adobe Illustrator 22.1.0, SVG Export Plug-In . SVG Version: 6.00 Build 0)  -->
<svg version="1.1" id="Ebene_1" xmlns="http://www.w3.org/2000/svg" xmlns:xlink="http://www.w3.org/1999/xlink" x="0px" y="0px"
	 viewBox="0 0 444.4 140.5" style="enable-background:new 0 0 444.4 140.5;" xml:space="preserve">
<style type="text/css">
	.st0{fill:#4C9E8F;}
	.st1{fill:#6ABFA6;}
	.st2{fill:#B0CB2F;}
	.st3{fill:#F2E744;}
</style>
<path class="st0" d="M91.9,20H5.7c-2.8,0-5.1,2.3-5.1,5.1v96c0,2.8,2.3,5.1,5.1,5.1h60.1c5,16.8,21.7,14.4,21.1,13.8
	c-5.2-4.6-5.2-10-4-13.8h9.1c2.8,0,5.1-2.3,5.1-5.1V25.1C97,22.3,94.7,20,91.9,20z"/>
<path class="st1" d="M79.2,117.5l-72.7,8.7c-3.1,0.3-5.9-1.7-5.9-4.2V24.3c0-2.2,2.1-4,4.8-4.2l72.7-8.7c3.1-0.3,5.9,1.7,5.9,4.2
	v97.7C84,115.5,81.9,117.3,79.2,117.5z"/>
<path class="st2" d="M64.7,111.7L6.9,126.1c-3.2,0.5-6.2-1.5-6.2-4.1V24.4c0-2,1.8-3.7,4.2-4.1L62.7,5.8c3.2-0.5,6.2,1.5,6.2,4.1
	v97.6C68.9,109.6,67.1,111.3,64.7,111.7z"/>
<path class="st3" d="M46.9,105.6L6.5,126c-3.2,0.9-6.5-1.2-6.5-4V24.7c0-1.8,1.4-3.5,3.5-4L43.9,0.2c3.2-0.9,6.5,1.2,6.5,4v97.3
	C50.4,103.4,49,105,46.9,105.6z"/>
<g>
	<path class="st0" d="M135.1,41.3H156v4.3h-16.1v23.2h15v4.3h-15v31.3h-4.8V41.3z"/>
	<path class="st0" d="M169.4,41.3v63.1h-4.8V41.3H169.4z"/>
	<path class="st0" d="M186.9,74.1v30.3h-4.8V41.3h9.6c9.7,0,13.8,4.3,13.8,14v3.2c0,7.8-2.4,12-6.6,13.4c4.4,1.3,6.1,4.6,6.1,12.9
		c0,5.4-0.1,15.4,0.7,19.5H201c-0.8-4-0.7-14.8-0.7-19.1c0-8.5-1.3-11.2-8.2-11.2H186.9z M186.9,70h5.6c6.8,0,8.2-4.5,8.2-11.2v-3.3
		c0-6.4-2-10.2-9.1-10.2h-4.7V70z"/>
	<path class="st0" d="M219.6,87.2v3.5c0,6.8,2.6,10.4,7.7,10.4c5.2,0,7.6-3,7.6-11.9c0-7.8-1.8-11.2-8.6-16.3
		c-7-5.2-10.3-8.2-10.3-17.5c0-7.8,2.4-14.9,11.6-14.9c8.1,0.1,11.2,4.9,11.2,13.7v2.6H234v-2.5c0-5.8-1.3-9.7-6.5-9.7
		c-5.3,0-6.7,4.5-6.7,10c0,6.8,1.4,9.1,7.6,13.7c8.6,6.4,11.4,9.8,11.4,20.2c0,8.8-2.2,16.6-12.4,16.6c-9.5,0-12.5-6.1-12.5-14.4
		v-3.5H219.6z"/>
	<path class="st0" d="M255.4,45.6h-10.6v-4.3h25.9v4.3h-10.5v58.8h-4.8V45.6z"/>
	<path class="st0" d="M295,87.2v3.5c0,6.8,2.6,10.4,7.7,10.4c5.2,0,7.6-3,7.6-11.9c0-7.8-1.8-11.2-8.6-16.3
		c-7-5.2-10.3-8.2-10.3-17.5c0-7.8,2.4-14.9,11.6-14.9c8.1,0.1,11.2,4.9,11.2,13.7v2.6h-4.8v-2.5c0-5.8-1.3-9.7-6.5-9.7
		c-5.3,0-6.7,4.5-6.7,10c0,6.8,1.4,9.1,7.6,13.7c8.6,6.4,11.4,9.8,11.4,20.2c0,8.8-2.2,16.6-12.4,16.6c-9.5,0-12.5-6.1-12.5-14.4
		v-3.5H295z"/>
	<path class="st0" d="M330.8,45.6h-10.6v-4.3h25.9v4.3h-10.5v58.8h-4.8V45.6z"/>
	<path class="st0" d="M373.3,72.6h-14.8v27.5h16.7l-0.7,4.3h-20.7V41.3h20.5v4.3h-15.7v22.8h14.8V72.6z"/>
	<path class="st0" d="M383.6,41.3h10.2c9.2,0,13.4,4.6,13.4,14.1v3.9c0,8.8-2.3,15.9-13.8,15.9h-4.9v29.1h-4.8V41.3z M388.4,71.2
		h4.7c8.2,0,9.2-5,9.2-11.8v-3.6c0-5.5-1.4-10.4-8.8-10.4h-5.1V71.2z"/>
	<path class="st0" d="M419.5,87.2v3.5c0,6.8,2.6,10.4,7.7,10.4c5.2,0,7.6-3,7.6-11.9c0-7.8-1.8-11.2-8.6-16.3
		c-7-5.2-10.3-8.2-10.3-17.5c0-7.8,2.4-14.9,11.6-14.9c8.1,0.1,11.2,4.9,11.2,13.7v2.6h-4.8v-2.5c0-5.8-1.3-9.7-6.5-9.7
		c-5.3,0-6.7,4.5-6.7,10c0,6.8,1.4,9.1,7.6,13.7c8.6,6.4,11.4,9.8,11.4,20.2c0,8.8-2.2,16.6-12.4,16.6c-9.5,0-12.5-6.1-12.5-14.4
		v-3.5H419.5z"/>
</g>
</svg>
