<svg xmlns="http://www.w3.org/2000/svg" viewBox="0 0 85.13 111.53"><defs><style>.cls-1{fill:#c24a4a;}.cls-2{fill:#468f99;}.cls-3{fill:#e56a6a;}.cls-4{fill:#dd992e;}.cls-5{fill:#ffeeb8;}.cls-6{fill:#e8d6bc;}.cls-10,.cls-7{fill:none;stroke-linecap:round;}.cls-7{stroke:#c24a4a;stroke-linejoin:round;stroke-width:0.73px;}.cls-8{fill:#61b5bc;}.cls-9{fill:#f6f6f6;}.cls-10{stroke:#dd992e;stroke-miterlimit:10;stroke-width:1.09px;}</style></defs><title>kapitelbild_07</title><g id="Layer_2" data-name="Layer 2"><path class="cls-1" d="M63.48,85.27c3.78.72,5.08,2.16,4.75,2.31s-2.16-1-5.94-1.75-8.09-.71-7.76-.87A31.94,31.94,0,0,1,63.48,85.27Z"/><path class="cls-1" d="M28.85,85.92c4.39-.3,7.44-.08,7.35.12s-3.32.18-7.7.54c-4.61.37-8.44,1.31-8.36,1.1C20.29,87.31,24.47,86.22,28.85,85.92Z"/><circle class="cls-1" cx="37.95" cy="77.85" r="1.32"/><path class="cls-1" d="M67.64,88.56c0,1-10.84,1.85-24.21,1.85s-24.2-.83-24.2-1.85c0-.44,2-.85,5.29-1.16,12.66-1.22,19.55-.7,18.91-.7C56.8,86.7,67.64,87.53,67.64,88.56Z"/><polygon class="cls-2" points="30.98 20.73 26.34 15.29 29.92 9.99 36.95 8.53 41.06 11.05 42.52 14.63 40.53 19.8 38.14 20.73 32.7 21.4 30.98 20.73"/><polygon class="cls-3" points="46 43.17 38.72 43.26 31.64 19.21 34.75 17.36 37.77 17.36 38.92 19.12 46 43.17"/><polygon class="cls-1" points="66.27 46.8 60.17 48.55 22.75 50.06 19.49 48.9 16.04 40.06 21.56 36.26 59.93 36.1 66.27 46.8"/><polygon class="cls-4" points="46.09 88.99 35.33 47.09 38.02 46.21 50.65 46.21 63.46 88.99 51.72 88.99 46.09 88.99"/><polygon class="cls-5" points="42.52 50.82 51.72 88.99 60.94 89.33 49.52 48.41 42.52 50.82"/><polygon class="cls-3" points="26.99 36.2 29.27 42.98 61.41 42.85 58.22 36.45 26.99 36.2"/><polygon class="cls-6" points="35.84 19.68 37.97 18.64 43.41 36.18 40.1 36.1 35.84 19.68"/><polyline class="cls-7" points="35.84 35.27 43.41 33 35 32.26 42.52 29.73 34.43 30.31 41.23 26.96 33.22 26.96 40.74 24.29 32.72 24.54 40.05 21.86 32.08 21.86 39 19.37 31.44 19.68"/><polygon class="cls-8" points="30.64 10.58 32.95 15.21 38.99 14.69 41.16 14.96 41.16 16.76 42.03 14.96 40.79 11.27 36.83 8.89 30.64 10.13 30.64 10.58"/><path class="cls-3" d="M22.18,36.86l2.57,6.73s3.82-.37,3.82-.61-2-6.74-2-6.74Z"/><polygon class="cls-3" points="21.19 37.16 23.86 44.13 23.27 44.38 20.4 37.7 21.19 37.16"/><polygon class="cls-3" points="59.2 36.76 62.42 43.26 65.54 46.21 60.11 36.41 59.2 36.76"/><polygon class="cls-2" points="17.18 40.77 15.18 42.14 16.46 45 18.73 46.66 19.61 45.76 17.43 40.77 17.18 40.77"/><path class="cls-8" d="M17.08,41.31l-1.14.7,1.14,2.37a20.43,20.43,0,0,0,1.93.89C18.86,45.12,17.08,41.31,17.08,41.31Z"/><polygon class="cls-5" points="37.97 52.25 46.83 87.86 50.34 88.99 41.16 51.34 37.97 52.25"/><polygon class="cls-9" points="50.34 48.41 61.88 88.99 63.46 88.99 51.4 48.96 50.34 48.41"/><polyline class="cls-4" points="43.41 49.22 52.89 87.66 44.2 48.41 43.41 49.22"/><polyline class="cls-10" points="46 54.36 50.34 56.59 50.34 58.23 48.15 60.23 48.17 62.52 51.73 63.01 52.89 65.21 49.45 68.03 49.86 68.87 53.99 69.98 54.84 72.23 50.95 75.63 51.73 76.97 54.84 76.97 55.56 79.72 52.41 82.19 52.89 84.25 57.51 85.17 58.36 86.08 54.32 87.66 54.66 88.48"/><polygon class="cls-2" points="61.89 39.44 65.06 45.02 65.44 45.43 65.99 44.95 62.83 39.44 61.89 39.44"/><polygon class="cls-8" points="62.37 39.59 65.32 44.95 65.73 44.95 62.79 39.59 62.37 39.59"/><polygon class="cls-8" points="29.48 12.2 26.99 15.39 29.83 18.19 31.44 15.2 29.48 12.2"/><polygon class="cls-6" points="37.04 9.65 38.82 12.83 41.16 13.97 39.63 11.2 37.04 9.65"/><polygon class="cls-6" points="32.13 10.56 33.13 12.83 34.43 12.83 33.28 10.56 32.13 10.56"/><polygon class="cls-1" points="36.67 36.21 37.08 36.16 39.01 36.16 34.38 18.55 35.4 18.04 37.99 18.09 37.77 17.36 34.75 17.36 31.64 19.21 36.67 36.21"/></g></svg>