<svg xmlns="http://www.w3.org/2000/svg" viewBox="0 0 801.91 409.98"><defs><style>.cls-1{fill:#ffeeb8;}.cls-2{fill:#dd992e;}.cls-3{fill:#3c3c3b;}.cls-4{fill:#f4ca98;}.cls-5{fill:#da7346;}.cls-16,.cls-17,.cls-18,.cls-6{fill:none;stroke-miterlimit:10;}.cls-6{stroke:#f4ca98;stroke-width:14.16px;}.cls-7{fill:#f7931e;}.cls-8{fill:#e56a6a;}.cls-9{fill:#d45c28;}.cls-10{fill:#7d4e24;}.cls-11{fill:#c24a4a;}.cls-12{fill:#d67d25;}.cls-13{fill:#edb27c;}.cls-14{fill:#e5aa3c;}.cls-15{fill:#e8d6bc;}.cls-16,.cls-17,.cls-18{stroke:#c24a4a;stroke-width:1.09px;}.cls-17{stroke-dasharray:9.98 9.98;}.cls-18{stroke-dasharray:13.11;}.cls-19{fill:#575756;}</style></defs><title>kultur</title><g id="Bcakground"><path class="cls-1" d="M148.22,371c-43.7,2-62.63-18-62.63-18S2.37,232.21,55.44,198.27s119-27.17,155.79-16.41,72.59,153.64,142,151.85,115.32-37.83,141.89-58.09,123.64-39.6,170.25-19.7,60.44,45.18,40.77,70.37-62.37,50.59-109.83,51.56S191.91,369,148.22,371Z"/><path class="cls-1" d="M126.33,164.15c.57,2.36-12.14,2.95-27.13,6.57s-26.57,8.89-27.14,6.53,10.09-11.45,25.08-15.07S125.76,161.79,126.33,164.15Z"/><path class="cls-1" d="M455.17,191.54c1.46,1.93-9.31,8.41-21.62,17.7s-21.5,17.85-23,15.92,5.36-13.65,17.67-22.94S453.7,189.6,455.17,191.54Z"/><path class="cls-1" d="M695.17,217.32c-1.32,2-9.91-7.69-22.85-16.08S647,189,648.32,187s15.84-1.47,28.78,6.92S696.49,215.28,695.17,217.32Z"/><path class="cls-1" d="M688.48,223.23c0,18.23-25.09,3.82-125.2,3.82s-99.75,44-141.88,44,16.42-90.33,116.53-90.33S688.48,205,688.48,223.23Z"/></g><g id="Ebene_8" data-name="Ebene 8"><path class="cls-2" d="M693,370.69c0,3.63-44.28,6.58-98.9,6.58s-98.91-2.95-98.91-6.58,44.28-6.59,98.91-6.59S693,367.05,693,370.69Z"/><path class="cls-2" d="M322.05,371.74c0,3.63-55.43,6.58-123.81,6.58s-123.8-2.95-123.8-6.58,55.42-6.59,123.8-6.59S322.05,368.1,322.05,371.74Z"/><polygon class="cls-3" points="590.47 119.64 603.17 116.05 599.64 127.83 591.98 129.99 590.47 119.64"/><polygon class="cls-4" points="588.99 214.18 533.43 220.26 508.65 206.15 497.75 106.44 585.75 96.81 593.53 204.55 588.99 214.18"/><rect class="cls-4" x="550.2" y="201.56" width="23.73" height="48.67"/><polygon class="cls-5" points="621.39 366.82 556.76 369.74 511.41 366.82 511.41 233.19 541.76 233.19 554.53 242.92 583.1 233.19 621.39 233.19 621.39 366.82"/><polyline class="cls-6" points="632.93 281.86 648.84 312.29 664.76 371.85"/><polyline class="cls-6" points="505.59 289.94 495.18 333.62 431.01 305.22"/><polygon class="cls-7" points="574.25 207.75 532.92 212.56 508.93 206.31 533.43 220.26 588.99 214.18 591.58 208.7 574.25 207.75"/><polygon class="cls-7" points="505.25 138.19 548.92 131.38 589.15 143.94 585.75 96.81 497.75 106.44 502.42 149.14 505.25 138.19"/><polygon class="cls-8" points="585.29 121.69 498.94 104.31 505.23 60.54 548.48 45.17 598.95 79.7 596.04 136.07 588.74 138.14 585.29 121.69"/><polygon class="cls-9" points="609.16 304.84 626.05 294.43 628.8 246.4 592.35 260.1 609.16 304.84"/><polygon class="cls-10" points="557.45 122.11 573.28 132.88 571.85 161.71 584.9 174.02 586.34 145.86 589.39 147.25 591.43 175.4 592.61 191.8 599.67 189.81 607.59 185.23 600.01 175.17 602.09 172.78 597.76 167.23 596.39 142.24 601.32 136.27 588.73 125.52 573.24 121.88 557.45 122.11"/><polygon class="cls-11" points="550.16 109.33 498.94 104.31 505.23 60.54 548.48 45.17 550.16 109.33"/><polygon class="cls-3" points="554.7 106.37 493.65 75.13 455.31 92.4 435.06 111.06 502.28 147.92 500.32 129.97 513.99 124.54 570.39 122.68 588.73 125.52 577.86 116.34 554.7 106.37"/><path class="cls-7" d="M521.48,166.69a4.73,4.73,0,1,1-5.74-3A4.57,4.57,0,0,1,521.48,166.69Z"/><polygon class="cls-7" points="573.93 225.89 550.2 236.69 550.2 215.27 573.93 215.27 573.93 225.89"/><polygon class="cls-7" points="611.47 169.67 591.55 163.45 589.68 147.24 603.65 138.73 611.47 169.67"/><polygon class="cls-10" points="502.75 151.08 504.99 167.66 496.62 170.45 494.31 162.28 500.64 155.9 502.75 151.08"/><path class="cls-7" d="M541.06,189.59c.1.65-6.55,2.34-14.86,3.78s-15.13,2.09-15.23,1.44,6.55-2.34,14.86-3.78S541,189,541.06,189.59Z"/><path class="cls-7" d="M545.82,179.69c.51.37-.91,3.25-3.17,6.44s-4.5,5.49-5,5.13.91-3.25,3.16-6.44S545.31,179.33,545.82,179.69Z"/><path class="cls-7" d="M512.48,195.5c-.54.11-1.45-1.21-2-2.94s-.63-3.22-.1-3.33,1.45,1.2,2,2.93S513,195.39,512.48,195.5Z"/><polygon class="cls-9" points="496.69 294.44 511.79 297.07 512.71 253.52 504.9 247.36 496.69 294.44"/><polygon class="cls-7" points="646.59 292.13 637.53 305.58 632.53 295.27 645.13 289.13 646.59 292.13"/><polygon class="cls-7" points="510.28 300.39 495.07 305.99 497.04 294.69 510.86 297.1 510.28 300.39"/><rect class="cls-5" x="609.73" y="246.95" width="38.94" height="47.79" transform="translate(-55.06 238.65) rotate(-20.6)"/><polygon class="cls-9" points="511.41 354.35 511.41 366.82 559.22 369.74 511.41 354.35"/><polygon class="cls-8" points="148.22 371.23 159.14 208.68 202.83 183.83 254.97 186.17 262.91 208.68 282.57 324.39 304.41 371.23 245.43 377.81 180.15 376.87 148.22 371.23"/><polyline class="cls-11" points="180.15 376.87 148.22 371.23 159.14 208.68"/><path class="cls-11" d="M198.27,197.94c8.33.87,17.13,2,24.92,5.26,11.14,4.59,14.41,13.09,21.16,23.83-.11-.95,14.16-5.13,14.12-6-.67-14-4-21.14-4-21.14l14.06-15.62-.16-.4-54.5-2.89-2.64.92-14,4.86-11,10.7A87.52,87.52,0,0,1,198.27,197.94Z"/><path class="cls-11" d="M249.92,241.05c-5.69-4.44-10.31-10.4-15.31-15.85a4.71,4.71,0,0,1-3.37-.94c-16.05-11.23-37.21-7.8-55.53-6.2a5,5,0,0,1-3.93-1.71L168.13,226l-9,17.75-10.92,127.5,31.93,5.64,65.28.95,21.11-2.36c-4.63-35.64-11.17-94.13-15.49-133.71A5.68,5.68,0,0,1,249.92,241.05Z"/><polygon class="cls-8" points="214.85 229.24 280.32 264.76 322.98 264.76 343.74 271.21 343.74 314.81 328.44 338.92 208.37 319.41 186.45 264.76 200.65 233.11 214.85 229.24"/><polygon class="cls-11" points="180.15 255.36 226.31 297.07 314.24 309.07 328.44 338.92 208.37 319.41 180.15 271.21 180.15 255.36"/><polygon class="cls-12" points="283.8 175.47 205.98 188.66 213.87 163.25 188.94 88.09 266.76 74.9 283.8 175.47"/><polygon class="cls-13" points="283.8 175.48 250.23 173.41 218.18 103.28 252.76 93.75 270.08 94.48 283.8 175.48"/><circle class="cls-12" cx="238.81" cy="121.15" r="9.23" transform="translate(-26.59 156.76) rotate(-34.54)"/><polygon class="cls-12" points="244.59 222.11 251.55 222.11 256.05 215.27 240.03 189.8 213.87 180.94 213.87 192.76 232.53 204.54 244.59 222.11"/><polygon class="cls-12" points="243.5 163.18 272.53 158.6 276.09 167.32 283.07 165.88 281.5 153.68 247.24 159.49 243.5 163.18"/><circle class="cls-12" cx="265.28" cy="116.45" r="9.23"/><polygon class="cls-3" points="181.24 116.62 193.8 146.07 191.62 171.78 168.13 183.83 181.24 192.76 197.17 192.76 205.98 188.66 213.87 163.25 205.98 124.94 211.82 137.59 220.71 186.17 241.32 201.56 263.96 202.13 288.94 195.88 310.55 179.28 309.87 165.57 286.65 146.07 277.38 141.91 281.19 160.92 274.52 165.19 236.37 163.25 211.82 110.66 223.84 93.61 229.31 101.39 233.75 88.22 183.43 99.54 181.24 116.62"/><polygon class="cls-14" points="188.53 133.72 165.01 128.95 155.22 113.83 158.85 94.48 168.13 88.3 161.57 74.65 166.43 68.66 165.03 52.54 174.19 42.38 194.88 35.12 215.19 36.67 220.86 43.55 226.36 42.69 236.37 45.95 260.09 38.69 281.19 47.54 291.29 59.84 288.52 86.19 281.19 102.14 270.49 103.98 269.55 91.34 250.99 86.03 197.17 109.31 184.17 123.48 188.53 133.72"/><polygon class="cls-12" points="250.97 117.04 256.47 148.86 265.09 147.21 256.47 125.71 250.97 117.04"/><polygon class="cls-11" points="343.74 314.81 343.74 273.62 321.09 289.94 324.79 321.7 328.44 338.92 343.74 314.81"/><polygon class="cls-12" points="252.56 104.03 253.51 116.43 263.51 117.77 258.89 103.46 252.56 104.03"/><polygon class="cls-3" points="249.13 117.42 226.77 127.06 221.47 113.19 221.26 111.98 243.53 103.48 245.58 104.34 249.95 115.79 249.13 117.42"/><polygon class="cls-3" points="277.69 117.79 255.44 114.8 256.02 102.35 257.75 101.49 278.63 106.33 279.97 108.49 277.69 117.79"/><polygon class="cls-12" points="256.47 148.86 272.57 145.17 272.57 142 260.21 145.17 256.47 148.86"/><polygon class="cls-3" points="248.3 157.95 246.06 166.97 231.76 166.97 231.76 162.46 248.3 157.95"/><polygon class="cls-15" points="260.09 38.69 236.37 45.95 226.36 42.69 220.86 43.55 215.19 36.67 194.88 35.12 185.63 38.36 179.79 50.94 182.2 62.62 173.78 67.95 184.26 78.77 182.54 85.99 194.4 102.66 251.79 79.8 276.02 86.85 280.98 102.17 281.19 102.14 288.52 86.19 291.29 59.84 281.19 47.54 260.09 38.69"/><polygon class="cls-13" points="437.82 314.61 401.17 326.44 395.65 297.62 434.02 294.8 437.82 314.61"/><polygon class="cls-12" points="370.94 312.29 331.67 316.42 331.67 300.34 336.16 287.34 370.94 301.47 370.94 312.29"/><polygon class="cls-13" points="370.21 303.12 341.19 303.12 336.16 287.34 370.21 297.71 370.21 303.12"/><polygon class="cls-12" points="406.59 329.12 364.5 321.64 370.21 292.45 424.46 300.42 406.59 329.12"/><polygon class="cls-7" points="373.48 326.7 373.48 317.26 397.88 319.53 400.06 330.7 377.49 330.7 373.48 326.7"/><polygon class="cls-13" points="400.06 292.45 378.22 300.42 381.13 304.85 389.14 307.69 410.36 298.35 419.02 299.62 414.99 292.78 400.06 292.45"/><rect class="cls-11" x="253.06" y="229.24" width="2.99" height="6.99" transform="translate(-28.16 35.16) rotate(-7.49)"/><rect class="cls-11" x="253.81" y="242.44" width="2.99" height="6.99" transform="matrix(0.99, -0.13, 0.13, 0.99, -29.87, 35.37)"/><path class="cls-16" d="M270.26,333.71a45.78,45.78,0,0,0,2.15,6.19"/><path class="cls-17" d="M276.34,349.08c2.05,4.6,4.3,9.47,6.24,13.62"/><path class="cls-16" d="M284.71,367.21c1.69,3.56,2.83,5.91,2.83,5.91"/><polyline class="cls-18" points="188.94 249.88 249.78 280.82 281.19 287.34 317.23 289.94"/><rect class="cls-10" x="521.64" y="141.5" width="12.81" height="1.9"/><rect class="cls-10" x="503.89" y="144.45" width="12.81" height="1.9" transform="translate(-18.22 192.45) rotate(-20.99)"/><polygon class="cls-3" points="231.76 157.86 279.29 148.86 281.19 155.94 231.76 162.46 231.76 157.86"/><polygon class="cls-3" points="254.55 157.95 250.99 162.46 250.97 157.95 254.55 157.95"/><path class="cls-19" d="M245.5,157l37.57-8.17-1.88-3.69,5.46,2.76,21.48,17.84v7.33l-15.29,7.84s-19.42.25-20.27,0-10.14-7.84-10.14-7.84l31.5-5.78-2.64-8.47-7.49-6.37L248.3,158Z"/><polygon class="cls-19" points="259.61 102.55 259.1 111.77 278.52 114.4 279.97 108.49 278.52 106.57 259.61 102.55"/><polygon class="cls-19" points="225.52 110.92 230.16 120.02 243.5 116.45 243.5 112.79 245.5 115.27 248.3 114.4 245.5 105.51 243.5 104.6 225.52 110.92"/><circle class="cls-3" cx="242.98" cy="119.87" r="3.88"/><circle class="cls-3" cx="267.8" cy="116.63" r="3.37"/></g></svg>