<svg xmlns="http://www.w3.org/2000/svg" viewBox="0 0 801.91 305.98"><defs><style>.cls-1{fill:#ffeeb8;}.cls-2{fill:#d45c28;}.cls-3{fill:#dd992e;}.cls-4{fill:#f6f6f6;}.cls-5{fill:#c24a4a;}.cls-6{fill:#e56a6a;}.cls-7{fill:#e8d6bc;}.cls-8{fill:#3c3c3b;}.cls-9{fill:#f47f5b;}.cls-10{fill:#468f99;}.cls-11{fill:#e5aa3c;}.cls-12,.cls-14{fill:none;stroke-linecap:round;}.cls-12{stroke:#c24a4a;stroke-linejoin:round;stroke-width:1.92px;}.cls-13{fill:#61b5bc;}.cls-14{stroke:#dd992e;stroke-miterlimit:10;stroke-width:2.88px;}</style></defs><title>schwertmantel</title><g id="Bcakground"><path class="cls-1" d="M111.4,261.85c-50.6,1.23-72.52-11.3-72.52-11.3S-14.25,217.86,22,198.64s90.24-21.48,132.82-14.71,49.76,21.3,130.08,20.17,88.76-7.72,176-11.79,143.78-7,197.75,5.52,70,28.41,47.23,44.26-72.23,31.82-127.19,32.43S162,260.61,111.4,261.85Z"/><path class="cls-1" d="M449.89,232.4C407,226.32,173.12,251.76,80.67,239s140.49,3.66,151.08-38.49,50.6-41.17,63.05-26.35,153,22.48,191-17.2S611.62,96.18,637.12,87.26s37.79,7.88,53.56,35.31,93.49,10.64,86.83,45.38-87,66-103.07,67.31S492.76,238.48,449.89,232.4Z"/></g><g id="overlay"><polygon class="cls-2" points="67.69 221.09 74.25 242.03 76.67 267.97 32.01 250.69 31.95 234.25 26.89 214.28 67.69 221.09"/><polygon class="cls-3" points="156.49 244.81 76.67 267.97 74.25 242.03 67.69 221.09 149.81 197.92 150.64 215.24 156.49 244.81"/><polygon class="cls-4" points="26.89 214.28 45.75 220.21 67.69 221.09 149.81 197.92 118.72 196.67 102.86 194.09 26.89 214.28"/><polygon class="cls-3" points="100.26 200.6 68.67 218.79 98.27 204.02 100.26 200.6"/><polygon class="cls-2" points="149.75 204.97 78.54 221.53 149.86 206.53 149.75 204.97"/><polygon class="cls-2" points="100.56 212.64 107.25 259.1 112.5 257.57 103.67 212.77 100.56 212.64"/><polygon class="cls-3" points="58.17 205.97 51.87 207.65 99.75 213.19 102.6 211.24 58.17 205.97"/><polygon class="cls-2" points="150.64 215.24 134.07 221.43 151.32 218.69 150.64 215.24"/><polygon class="cls-5" points="111.36 259.82 109.13 258.55 110.99 258.01 101.5 211.55 115.13 205.09 118.76 205.24 125.43 255.74 111.36 259.82"/><polygon class="cls-6" points="57.36 206.18 101.5 211.55 117.54 205.19 66.06 199.22 53.4 204.17 53.14 207.31 57.36 206.18"/><polygon class="cls-5" points="54.95 204.23 99.87 210.32 54.87 206.37 54.95 204.23"/><polygon class="cls-2" points="74.3 207.15 79.74 191.79 92.55 189 85.98 201.61 74.3 207.15"/><polygon class="cls-6" points="90.73 195.54 79.74 191.79 92.55 189 101.36 192.66 90.73 195.54"/><polygon class="cls-5" points="75.67 207.01 90.73 195.54 101.36 192.66 92.02 202.33 75.67 207.01"/><polygon class="cls-5" points="73.25 206.71 58.82 195.24 65.15 192.13 73.63 199.75 74.89 205.5 73.25 206.71"/><polygon class="cls-5" points="58.82 195.24 75.04 188.88 76.55 185.24 66.28 188.72 58.82 195.24"/><polygon class="cls-6" points="74.3 207.15 66.28 188.72 76.55 185.24 78.58 195.06 74.3 207.15"/><polygon class="cls-3" points="71.79 207.94 51.56 211.25 71.7 208.87 75.61 208.4 71.79 207.94"/><polygon class="cls-3" points="67.9 215.93 82.98 209.3 78.03 208.7 67.9 215.93"/><polygon class="cls-3" points="31.95 234.25 40.98 234.62 31.29 231.66 31.95 234.25"/><polygon class="cls-2" points="72.9 241.98 80.87 239.95 75.89 242.8 79.59 242.25 72.8 244.54 72.9 241.98"/><polygon class="cls-6" points="103.59 211.41 118.91 206.36 118.76 205.24 117.74 205.2 103.59 211.41"/><polygon class="cls-7" points="90.94 195.19 90.93 195.55 101.34 193 101.36 192.66 90.94 195.19"/></g><g id="Ebene_8" data-name="Ebene 8"><path class="cls-5" d="M260.88,266.54c0,1.85-28.32,3.36-63.24,3.36s-63.24-1.51-63.24-3.36,28.31-3.37,63.24-3.37S260.88,264.68,260.88,266.54Z"/><path class="cls-5" d="M203.91,255.58h65.35l25-32L318,203.68l-2.56-30.11,41-27.07h55.73v21.31l30.76,11.53,48.05-7.05L514,155.83s16.65,12.62,17.94,17.1-1.29,32,0,34.6.37,51.9.37,51.9h11.8l7.69-12.18,19.86,5.13,89.06,7.05L671,263.17s-101.87,11.63-104.44,11-23.06.69-25,0-83.94-7.65-83.94-7.65l-76.88-3.37s-19.21,2.66-24.34,3.94-51.9,2.79-51.9,2.79l-100.59-3.36H107.8l-18.58-3.37,6.41-6.31L120,246l12.82,5.13,31.82,2.56,26.48-1.92Z"/><polygon class="cls-8" points="513.95 177.13 502.61 163.71 479.41 154.79 464.02 152.5 467.89 142.95 481.88 134.62 489.56 121.24 481.47 105.11 454.35 101.07 445.27 107.38 438.89 116.1 443.06 118.53 447.88 118.37 452.41 114.12 460.55 109.84 469.11 111.59 476.16 114.58 479.87 120.08 472.89 129.68 458.37 133.02 453.25 141.01 449.9 150.4 441.85 149.21 404.98 149.72 379.93 160.39 370.32 171.22 380.37 175.38 409.54 162.06 437.19 166.18 483.62 173.08 506.09 194.09 529.07 193.77 513.95 177.13"/><polygon class="cls-9" points="412.13 146.5 404.98 149.72 392.06 176.29 392.06 189.75 402.1 216.18 368.09 235.4 352.71 252.22 307.06 259.43 233.54 259.43 277.75 252.7 294.08 219.54 322.84 202.96 337.33 187.52 340.7 176.29 315.39 173.57 344.54 149.3 372.89 143.62 417.58 143.62 419.98 149.51 412.13 146.5"/><path class="cls-9" d="M501.67,154.27l-8.17,33.25-14.89,9-58.63,5-4.32,14.18L359.56,256l36.6,3.39h82.45l23.06,3.74,58.15,6.73H546.36l113.41-6.73v-7.11l-97.55-6.73L583.84,257S549.73,259,547.32,259,519.45,257,519.45,257l9.62-32.67-6.25-13.91,2.4-12,7-13.5-3.11-18.7-6.73-7Z"/><ellipse class="cls-10" cx="387.79" cy="213.55" rx="4.81" ry="3.11" transform="translate(22.2 463.2) rotate(-63.17)"/><ellipse class="cls-10" cx="424.31" cy="213.14" rx="4.81" ry="3.11" transform="translate(42.59 495.56) rotate(-63.17)"/><ellipse class="cls-10" cx="370.32" cy="230.11" rx="4.81" ry="3.11" transform="translate(-58.49 308.92) rotate(-42.27)"/><ellipse class="cls-10" cx="409.89" cy="230.11" rx="4.81" ry="3.11" transform="translate(-48.2 335.54) rotate(-42.27)"/><ellipse class="cls-10" cx="351.58" cy="243.19" rx="4.81" ry="3.11" transform="translate(-72.16 299.72) rotate(-42.27)"/><ellipse class="cls-10" cx="396.16" cy="243.19" rx="4.81" ry="3.11" transform="translate(-60.57 329.7) rotate(-42.27)"/><ellipse class="cls-10" cx="370.32" cy="254.62" rx="4.81" ry="3.11" transform="translate(-74.97 315.3) rotate(-42.27)"/><polygon class="cls-9" points="114.41 248.46 98.33 255.66 147.89 263.17 238.82 263.17 208.39 244.05 183.6 235.22 142.76 243.19 123.58 247.41 114.41 248.46"/><polygon class="cls-9" points="189.33 259.43 221.53 259.43 208.07 254.62 189.33 259.43"/><polygon class="cls-11" points="553.57 159.17 555.97 161.88 572.31 154.27 564.62 149.3 553.57 159.17"/><polygon class="cls-11" points="551.19 192.51 551.76 196.09 569.63 198.45 565.82 190.13 551.19 192.51"/><polygon class="cls-11" points="545.25 232.04 544.69 235.62 560.95 243.39 559.9 234.29 545.25 232.04"/><polygon class="cls-11" points="523.58 122.93 526.5 125.06 540.85 114.17 532.28 110.94 523.58 122.93"/><polygon class="cls-11" points="458.91 84.5 462.52 84.26 466.51 66.68 457.87 69.72 458.91 84.5"/><polygon class="cls-11" points="381.35 103.25 384.39 101.29 379.39 83.98 373.3 90.82 381.35 103.25"/><polygon class="cls-11" points="323.31 146.04 326 143.62 318.28 127.33 313.36 135.05 323.31 146.04"/><polygon class="cls-11" points="289.32 187.54 289.98 183.98 273.94 175.77 274.74 184.89 289.32 187.54"/><polygon class="cls-10" points="166.61 87.08 154.36 72.73 163.81 58.73 182.35 54.88 193.2 61.53 197.05 70.98 191.8 84.6 185.5 87.08 171.16 88.83 166.61 87.08"/><polygon class="cls-6" points="206.22 146.25 187.01 146.5 168.35 83.07 176.56 78.17 184.52 78.17 187.56 82.82 206.22 146.25"/><polygon class="cls-5" points="259.7 155.83 243.6 160.44 144.91 164.42 136.3 161.37 127.2 138.06 141.76 128.03 242.96 127.61 259.7 155.83"/><polygon class="cls-3" points="206.45 267.11 178.09 156.59 185.18 154.27 218.5 154.27 252.28 267.11 221.3 267.11 206.45 267.11"/><polygon class="cls-1" points="197.05 166.44 221.3 267.11 245.62 268.01 215.52 160.07 197.05 166.44"/><polygon class="cls-6" points="156.09 127.88 162.1 145.76 246.86 145.4 238.46 128.53 156.09 127.88"/><polygon class="cls-7" points="179.43 84.31 185.04 81.57 199.4 127.81 190.66 127.61 179.43 84.31"/><polyline class="cls-12" points="179.43 125.43 199.4 119.42 177.21 117.47 197.05 110.81 175.71 112.33 193.64 103.49 172.51 103.49 192.35 96.45 171.21 97.1 190.53 90.05 169.51 90.05 187.76 83.48 167.81 84.31"/><polygon class="cls-13" points="165.72 60.29 171.8 72.52 187.75 71.14 193.45 71.86 193.45 76.61 195.75 71.86 192.49 62.11 182.04 55.85 165.72 59.11 165.72 60.29"/><path class="cls-6" d="M143.4,129.61l6.79,17.75s10.05-1,10.05-1.6S155,128,155,128Z"/><polygon class="cls-6" points="140.79 130.39 147.84 148.8 146.27 149.45 138.7 131.83 140.79 130.39"/><polygon class="cls-6" points="241.05 129.35 249.55 146.5 257.76 154.27 243.45 128.43 241.05 129.35"/><polygon class="cls-10" points="130.21 139.92 124.93 143.53 128.32 151.08 134.3 155.46 136.61 153.07 130.87 139.92 130.21 139.92"/><path class="cls-13" d="M130,141.35l-3,1.83,3,6.27s5.49,2.74,5.09,2.35S130,141.35,130,141.35Z"/><polygon class="cls-1" points="185.04 170.2 208.41 264.13 217.68 267.11 193.45 167.81 185.04 170.2"/><polygon class="cls-4" points="217.68 160.07 248.11 267.11 252.28 267.11 220.47 161.53 217.68 160.07"/><polyline class="cls-3" points="199.4 162.22 224.41 263.59 201.48 160.07 199.4 162.22"/><polyline class="cls-14" points="206.22 175.77 217.68 181.65 217.68 185.99 211.9 191.25 211.95 197.28 221.34 198.59 224.41 204.39 215.32 211.83 216.4 214.04 227.29 216.98 229.53 222.91 219.28 231.88 221.34 235.4 229.53 235.4 231.46 242.65 223.13 249.18 224.41 254.62 236.58 257.02 238.82 259.43 228.17 263.59 229.07 265.76"/><polygon class="cls-10" points="248.13 136.42 256.49 151.15 257.5 152.21 258.94 150.95 250.62 136.42 248.13 136.42"/><polygon class="cls-13" points="249.4 136.82 257.18 150.95 258.26 150.95 250.52 136.82 249.4 136.82"/><polygon class="cls-13" points="162.66 64.57 156.09 72.98 163.57 80.37 167.81 72.47 162.66 64.57"/><polygon class="cls-7" points="182.6 57.84 187.29 66.23 193.45 69.23 189.41 61.93 182.6 57.84"/><polygon class="cls-7" points="169.63 60.25 172.27 66.23 175.71 66.23 172.67 60.25 169.63 60.25"/><polygon class="cls-2" points="490.94 221.89 485.18 235.33 468.95 242.65 468.95 249.2 490.94 249.2 487.74 242.65 490.94 235.22 490.94 221.89"/></g></svg>