<svg xmlns="http://www.w3.org/2000/svg" viewBox="0 0 801.91 210.3"><defs><style>.cls-1{fill:#ffeeb8;}.cls-2{fill:#c24a4a;}.cls-3{fill:#468f99;}.cls-4{fill:#d45c28;}.cls-5{fill:#f47f5b;}.cls-10,.cls-6,.cls-7,.cls-9{fill:none;stroke-linecap:round;}.cls-6{stroke:#e5aa3c;}.cls-6,.cls-7{stroke-linejoin:round;stroke-width:4px;}.cls-7,.cls-9{stroke:#ffeeb8;}.cls-8{fill:#69bec4;}.cls-10,.cls-9{stroke-miterlimit:10;stroke-width:2px;stroke-dasharray:12;}.cls-10{stroke:#f47f5b;}</style></defs><title>vertrag</title><g id="Bcakground"><path class="cls-1" d="M111.4,179.67c-50.6,1.24-72.52-11.3-72.52-11.3S-14.25,135.69,22,116.46,112.25,95,154.83,101.75s49.76,21.3,130.08,20.18,88.76-7.73,176-11.8,143.78-7,197.75,5.52,70,28.42,47.23,44.27-72.23,31.81-127.19,32.43S162,178.43,111.4,179.67Z"/><path class="cls-1" d="M449.89,141.51C407,138,173.12,152.65,80.67,145.34s140.49,2.1,151.08-22.14S282.35,99.52,294.8,108s153,12.93,191-9.89S611.62,63.17,637.12,58s37.79,4.54,53.56,20.32,93.49,6.11,86.83,26.1-87,37.94-103.07,38.71S492.76,145,449.89,141.51Z"/><path class="cls-1" d="M687.74,182.85c-1.53-1.88,9-8.74,21-18.46s20.85-18.61,22.38-16.72-4.87,13.83-16.84,23.54S689.26,184.73,687.74,182.85Z"/><path class="cls-1" d="M437.62,104.69c-.67-1.94,11-4.7,24.88-9.4s24.83-9.56,25.5-7.62-9.17,10-23.08,14.65S438.29,106.63,437.62,104.69Z"/><path class="cls-1" d="M92.06,95.15c.36,2-13.57,1.53-28.07,3.94s-24.1,6.82-24.46,4.79,8.65-9.73,23.15-12.14S91.7,93.12,92.06,95.15Z"/><path class="cls-1" d="M684.76,60.51c-.29,2.41-11.58-8.34-26.89-10.19S629,56.21,629.34,53.8s14.28-14,29.59-12.2S685.06,58.1,684.76,60.51Z"/></g><g id="Ebene_8" data-name="Ebene 8"><ellipse class="cls-2" cx="153.59" cy="158.87" rx="144.25" ry="19.51"/><polygon class="cls-3" points="288.47 97.17 299.09 95.23 301.91 100.03 324.43 93.8 327.02 88.28 326.53 84.8 322.59 79.96 300.57 82.65 299.69 87.28 287.47 89.95 286.83 94.05 288.47 97.17"/><path class="cls-4" d="M117.23,134.42c.46,11.32-4.32,20.69-10.67,21s-11.88-8.7-12.34-20,2.32-30.69,8.68-30.95c3.17-.12,10.61,1.82,13.34,7.95S117,128.77,117.23,134.42Z"/><polygon class="cls-5" points="102.9 104.4 111.94 110.68 115.3 123.31 116.57 142.81 106.56 155.37 289.02 125.03 298.28 104.4 297.81 83.98 290.26 71.37 267.61 69.32 102.9 104.4"/><polygon class="cls-5" points="124.07 138.55 127.12 157.4 185.04 176.6 359.56 186.6 378.85 174.6 400.96 186.6 418.47 194.6 429.28 188.6 572.31 150.6 536.28 150.6 523.58 130.6 495.28 135.6 304.28 125.61 289.98 115.25 124.07 138.55"/><polygon class="cls-3" points="102.9 126.33 89.26 129.89 84.54 125.58 56.05 135.2 53.76 141.06 55.13 144.41 61.34 148.6 89.9 142.54 90.11 137.83 105.72 133.31 105.72 129.16 102.9 126.33"/><polygon class="cls-4" points="120.28 129.89 121.54 137.33 128.49 155.38 292.57 117.12 297.28 104.4 297.28 98.28 120.28 129.89"/><polygon class="cls-4" points="378.85 174.6 359.56 186.6 389.9 180.6 378.85 174.6"/><polygon class="cls-4" points="523.58 130.6 409.28 180.6 409.28 186.6 536.28 150.6 523.58 130.6"/><polyline class="cls-6" points="293.8 143.87 303.3 138.33 285.55 131.78 274.3 133.87 281.04 139.86 261.76 139.86 236.97 145.87 282.37 147.33 293.8 143.87 338.68 148.87 319.3 156.87 338.68 148.87 366.8 151.04 349.13 158.87"/><polyline class="cls-7" points="293.8 140.21 303.3 134.67 285.55 128.12 274.3 130.21 281.04 136.2 261.76 136.2 236.97 142.21 282.37 143.68 293.8 140.21 338.68 145.21 319.3 153.21 338.68 145.21 366.8 147.38 349.13 155.21"/><polygon class="cls-4" points="117.7 142.34 108 153.56 108.68 154.93 126.26 152.09 123.89 129.89 117.33 130.06 117.7 142.34"/><polygon class="cls-4" points="296.81 83.98 214.28 104.4 214.28 107.61 297.28 96.28 296.81 83.98"/><polygon class="cls-8" points="57.62 137.09 60.45 140.27 61.12 142.41 88.78 137.09 88.78 131.77 84.11 126.83 58.45 135.44 57.62 137.09"/><polyline class="cls-9" points="113.11 104.4 120.28 109.44 124.07 121.11 125.11 129.89 128.45 141.1 135.15 153.82 155.12 159.77 191.95 171.27 219.45 172.27 366.8 179.6 391.78 167.1 411.78 177.1 415.96 184.71 424.95 186.6 442.12 182.77 444.12 183.77"/><polyline class="cls-9" points="267.63 71.84 285.74 74.9 290.46 85.97 292.12 100.57 284.73 118.95 294.28 126.83 314.14 129 343.57 131.78 486.21 140.27 513.22 135.14 524.01 153 539.01 154.1 553.05 155.39"/><polyline class="cls-10" points="96.54 125.58 99.03 112.35 102.9 108.45 109.75 114.2 111.85 123 113.96 132.96 113.96 141.67 105.94 152.48 101.32 149.61 97.3 139.36"/><polygon class="cls-8" points="92.14 130.47 93.28 132.96 92.14 134.62 99.22 132.54 99.22 129.89 92.14 130.47"/><polyline class="cls-4" points="55 139.36 51.75 142.41 53.37 147.06 56.34 147.06 58.64 145.5 57.62 142.41 55.19 140.42"/><polygon class="cls-5" points="53.76 143.21 52.1 142.75 53.59 146.69 55.96 146.58 55.96 145.84 53.76 143.21"/><polygon class="cls-5" points="54.8 143.78 56.8 142.41 54.3 140.6 52.26 142.19 53.76 142.75 54.8 143.78"/></g></svg>