<?xml version="1.0" encoding="utf-8"?>
<!-- Generator: Adobe Illustrator 22.1.0, SVG Export Plug-In . SVG Version: 6.00 Build 0)  -->
<svg version="1.1" id="Ebene_1" xmlns="http://www.w3.org/2000/svg" xmlns:xlink="http://www.w3.org/1999/xlink" x="0px" y="0px"
	 viewBox="0 0 801.9 360.3" style="enable-background:new 0 0 801.9 360.3;" xml:space="preserve">
<style type="text/css">
	.st0{fill:#FFEEB8;}
	.st1{fill:#D45C28;}
	.st2{fill:#F47F5B;}
	.st3{fill:#E56A6A;}
	.st4{fill:#468F99;}
	.st5{fill:#C24A4A;}
	.st6{fill:#69BEC4;}
	.st7{fill:#575756;}
	.st8{fill:none;stroke:#468F99;stroke-width:6;stroke-miterlimit:10;}
	.st9{fill:#F4CA98;}
	.st10{fill:none;stroke:#69BEC4;stroke-miterlimit:10;}
	.st11{fill:none;stroke:#FFFFFF;stroke-miterlimit:10;}
	.st12{fill:#F7931E;}
	.st13{fill:#3C3C3B;}
	.st14{fill:#C6C6C6;}
	.st15{fill:#FFFFFF;}
	.st16{fill:#9D9D9C;}
	.st17{fill:#B2B2B2;}
	.st18{fill:none;stroke:#C24A4A;stroke-miterlimit:10;}
	.st19{fill:none;stroke:#E56A6A;stroke-miterlimit:10;}
	.st20{fill:none;stroke:#F7931E;stroke-width:2;stroke-miterlimit:10;}
	.st21{fill:none;stroke:#FFEEB8;stroke-width:1.02;stroke-miterlimit:10;}
</style>
<title>gewohnheiten</title>
<g id="Bcakground">
	<path class="st0" d="M118.2,314.9c-37.4,1.8-53.6-16.4-53.6-16.4s-64.8-61.7-19.4-92.8s101.8-24.8,133.2-15s28.5,13.4,87.8,11.7
		s57.2-42.1,121.4-53.1s148.3,19.3,188.2,37.5s36.3,64.2,19.5,87.2s-53.3,46.2-94,47.1c-19.7,0.4-101.4-1.5-184.8-3.3
		C227.9,315.9,137.4,314,118.2,314.9z"/>
	<ellipse class="st0" cx="492" cy="146.6" rx="72" ry="57.3"/>
	<ellipse class="st0" cx="53.3" cy="271.6" rx="32" ry="25.5"/>
	<ellipse class="st0" cx="147.7" cy="190.3" rx="32" ry="25.5"/>
	<ellipse class="st0" cx="57.7" cy="215" rx="32" ry="25.5"/>
	<ellipse class="st0" cx="546.6" cy="227.3" rx="72" ry="57.3"/>
	<ellipse class="st0" cx="409.3" cy="187.3" rx="72" ry="57.3"/>
	<path class="st0" d="M614.1,262.7c-2.4-0.4,6.2-12.4,9.1-27.6s-1.2-27.8,1.2-27.3s10.3,13.8,7.5,28.9S616.5,263.2,614.1,262.7z"/>
	<path class="st0" d="M576,139.6c-2,1.4-4.7-12.5-13.5-25.1s-20.4-19.3-18.4-20.7s16.8,3,25.6,15.7S578,138.2,576,139.6z"/>
</g>
<g id="overlay">
	<path class="st1" d="M257.5,305.7c0.1,5-56.3,11.1-125.1,11.8S7.7,314.9,7.7,309.8s60.1-12.2,129-13S257.5,300.7,257.5,305.7z"/>
	
		<ellipse transform="matrix(0.9999 -1.116988e-02 1.116988e-02 0.9999 -3.5024 2.8987)" class="st2" cx="257.8" cy="315" rx="30.1" ry="2.2"/>
	
		<ellipse transform="matrix(0.9999 -1.116988e-02 1.116988e-02 0.9999 -3.387 3.5573)" class="st2" cx="316.8" cy="305" rx="22.6" ry="1.7"/>
	
		<ellipse transform="matrix(0.9999 -1.116988e-02 1.116988e-02 0.9999 -3.5022 4.3678)" class="st2" cx="389.3" cy="315.7" rx="16.6" ry="1.2"/>
	
		<ellipse transform="matrix(0.9999 -1.116988e-02 1.116988e-02 0.9999 -3.4821 7.9794)" class="st2" cx="712.6" cy="315.7" rx="10.8" ry="0.8"/>
	
		<ellipse transform="matrix(0.9999 -1.116988e-02 1.116988e-02 0.9999 -3.4929 6.0359)" class="st2" cx="538.6" cy="315.7" rx="10.8" ry="0.8"/>
	
		<ellipse transform="matrix(0.9999 -1.116988e-02 1.116988e-02 0.9999 -3.4065 4.974)" class="st2" cx="443.6" cy="307.4" rx="13.9" ry="1"/>
	
		<ellipse transform="matrix(0.9999 -1.186796e-02 1.186796e-02 0.9999 -3.6036 7.5017)" class="st2" cx="630.3" cy="307.4" rx="10.5" ry="0.8"/>
	<polygon class="st3" points="67.9,43.3 51.3,57.9 96.6,313.3 116.3,317 135.9,313 83.3,71.9 154.9,91.9 212.3,299.3 219.6,300 
		237.8,298.2 172.9,74.6 75.9,41.9 	"/>
	<polygon class="st4" points="168.9,82.4 169.5,80.4 271.8,56.8 335.3,271.6 222.3,295 	"/>
	<polygon class="st5" points="62.3,48.9 116.3,317 96.6,313.3 51.3,57.9 	"/>
	<polygon class="st5" points="83.3,71.9 78.9,56.6 167.3,84.9 221.7,299.8 212.1,299.5 154.9,91.9 	"/>
	<polygon class="st6" points="270.6,57.1 331.3,269.6 335.3,271.6 271.8,56.8 	"/>
	<polygon class="st7" points="174.6,100 173.5,99.3 172.1,99.5 171.1,101.1 174.7,118.4 176.8,119.7 179.5,117.9 	"/>
	<polygon class="st7" points="213.7,254.9 212.2,254 210.6,254.2 209.2,256.2 213.8,278.2 216.4,279.9 219.9,277.5 	"/>
	<polygon class="st6" points="206.3,107.3 198.9,124.3 211.9,152.6 255.6,149.3 264,126.6 260,102.9 227.6,95.9 	"/>
	<line class="st8" x1="219.9" y1="91.3" x2="243.3" y2="160.3"/>
	<line class="st8" x1="267.5" y1="111.5" x2="198.2" y2="134.5"/>
	<polygon class="st6" points="286,160.6 283,166.9 289,185.3 297,186.6 300,181.6 292,159.9 	"/>
	
		<ellipse transform="matrix(0.9468 -0.3219 0.3219 0.9468 -40.0714 102.9877)" class="st7" cx="291.4" cy="172.7" rx="2.4" ry="5.1"/>
	<path class="st5" d="M321,165.7l-3.3-1.2l1.9-2.5l-2.2-5.6h-3.8l-3.7,0.9l-2,9.4l-17.1,4.3c0,0.5-0.4,0.4-0.4,0.9s0.7,1.2,0.8,1.7
		l17.9-4.4l7.5,5l3.9-1l2.8-2L321,165.7z M319,171.4l-2.2,0.6l-6.2-4.4l1.1-8.3l2.3-0.6h1.4l1.2,3.1l-2.8,3.7l5,1.8l1.3,3.3
		L319,171.4z"/>
	<path class="st3" d="M291.8,171.5l15.6-4l0.4-0.6l-15.9,4C291.8,171.3,291.8,171.2,291.8,171.5z"/>
	<polygon class="st3" points="313.3,156.8 316.4,156.9 317.3,156.6 313.7,156.5 	"/>
	<polygon class="st3" points="316.4,157.1 318.5,161.9 319.4,162.1 317.3,156.6 316,156.6 	"/>
	<polygon class="st3" points="316.8,165.1 319.5,166.1 321.4,170.9 322.5,171.3 323,171.3 320.9,165.7 317.8,164.7 	"/>
	<polygon class="st3" points="310.5,167.8 310,168 310,168.3 316,172.8 316.2,172.4 316.5,172.2 311,167.9 	"/>
	<polygon class="st9" points="80.7,62.8 133.7,313.4 135.9,313 	"/>
</g>
<g id="Ebene_8">
	<polygon class="st4" points="115.3,212.6 148.6,225.3 159.3,233.9 151.9,260.6 141.9,263.3 123.4,255.3 113.9,212.3 	"/>
	<path class="st10" d="M98.8,134.6c212-26.5,265.3,171.6,266.1,173.8c10.4-24.8,34.4-42.8,59.4-51.8c29-9,63-12,87.9,8.2"/>
	<path class="st11" d="M207.4,141.2c8.9,2.6,17.7,5.9,26.2,9.7"/>
	<polygon class="st12" points="147.3,244.9 147.9,251.9 177.9,254.9 185.3,252.3 230.2,206.9 224.1,202.7 181.8,244.6 173.3,247.6 
		149.8,241.1 	"/>
	<polygon class="st13" points="212,192.5 211.3,197.1 217.3,201.4 224.3,205.4 228,210 226.2,218.8 232.7,219.5 239.5,213.6 
		261.5,218.1 285.3,211.6 293,204.3 293.7,191.5 281.5,193.6 256,195.5 244.6,188.9 226.9,174.3 212.6,178.3 	"/>
	<polygon class="st14" points="213.1,177.8 218.5,181.8 228.1,179.9 222.2,184.5 223.9,185.8 226.1,187.5 237.3,186.4 232.2,192 
		243.9,190.4 237.6,196.1 240,197.9 249.1,193.6 247.4,197.5 251.8,197.3 256.1,195.9 261,196.9 241,186.9 228,174.1 	"/>
	<ellipse class="st6" cx="364.9" cy="310" rx="11.2" ry="1.5"/>
	<polygon class="st6" points="505.3,280.1 503,287.6 510.5,295.1 515.1,298.1 552.7,274.4 539.4,257.5 539,251.4 	"/>
	<polygon class="st5" points="538.3,244.6 535,251.3 537.3,258.3 550.3,276.6 553.6,279 559,276.3 561.6,273.6 559.3,259.6 
		546.3,245.3 	"/>
	<polygon class="st3" points="556.5,272.1 541.8,250.4 542,244.6 545.5,244.4 558.3,258.6 560.8,270.9 559.8,273.6 	"/>
	<polygon class="st4" points="537.5,258.4 538.8,272.9 510.5,295.1 515.1,298.1 551.8,277.4 547.5,272.9 	"/>
	<polygon class="st5" points="549.5,256.1 550.3,258.9 552,260.4 553.8,259.9 551.8,258.1 	"/>
	<polygon class="st6" points="553.2,260.2 551.7,259.1 551.2,258.8 550.2,256.2 565.6,244.5 578.5,247.8 579,250.8 577.3,252.7 
		566.7,250 	"/>
	<ellipse class="st4" cx="539.3" cy="314.4" rx="40.8" ry="3.6"/>
	<polygon class="st4" points="565.7,248 577.2,250.9 577.3,252.7 566.7,250 553.2,260.2 551.2,258.8 	"/>
	<polygon class="st15" points="557.4,257 556.6,251.4 553.9,253.4 554.5,259.2 	"/>
	<polygon class="st15" points="562.6,246.8 559.7,249 561.2,254.2 563.7,252.2 	"/>
	<polygon class="st15" points="570.4,250.9 570.5,245.8 568.3,245.2 567.9,250.3 	"/>
	<polygon class="st15" points="577.6,247.6 575.8,247.1 574.9,250.3 574.5,251.9 576.7,252.5 	"/>
	<polygon class="st4" points="577.2,250.9 577,250.8 576.7,252.5 577.3,252.7 	"/>
	<polygon class="st15" points="554.5,259.2 557.4,257 557.4,257 554.5,259.2 	"/>
	<polygon class="st16" points="554.2,256.5 554.5,259.2 557.4,257 557,254.4 	"/>
	<polygon class="st15" points="561.2,254.2 562.5,253.2 561.2,254.2 	"/>
	<polygon class="st16" points="563.2,249.8 560.5,251.8 561.2,254.2 562.5,253.2 563.7,252.2 	"/>
	<polygon class="st15" points="567.9,250.3 570.4,250.9 570.4,250.9 567.9,250.3 	"/>
	<polygon class="st16" points="568,248.6 567.9,250.3 570.4,250.9 570.5,249.2 	"/>
	<polygon class="st15" points="576.7,252.5 576.7,252.5 575.5,252.2 	"/>
	<polygon class="st17" points="575.7,250.5 576.9,250.8 576.7,252.5 574.5,251.9 574.9,250.3 	"/>
	<polygon class="st6" points="116.9,226.1 142.3,240.4 149.8,230.4 159.3,233.9 148.6,225.3 113.9,212.3 	"/>
	<polygon class="st9" points="153.3,242.1 150.1,244.9 149.9,247.9 171.9,251.1 177.4,249.3 221.1,211.3 219.4,209.4 217.4,209.4 
		181.8,244.6 173.3,247.6 	"/>
	<polygon class="st14" points="292.3,193.4 282.3,196.6 285.5,204.9 282.6,210.6 274.3,213.6 285.3,211.6 293,204.3 293.5,192.3 	
		"/>
	<polyline class="st18" points="241.1,211.4 243.4,216.8 248.8,215.3 	"/>
	<polyline class="st18" points="247.6,210.6 248.7,216.7 254.4,216.8 	"/>
	<polyline class="st18" points="255.1,210.6 256.1,217.8 261.5,218.1 	"/>
	<ellipse transform="matrix(0.3691 -0.9294 0.9294 0.3691 -44.1426 357.2254)" class="st5" cx="241" cy="211.1" rx="0.8" ry="1"/>
	<ellipse transform="matrix(0.3691 -0.9294 0.9294 0.3691 -39.5657 362.91)" class="st5" cx="247.5" cy="210.6" rx="0.8" ry="1"/>
	<ellipse transform="matrix(0.3691 -0.9294 0.9294 0.3691 -34.6796 370.1022)" class="st5" cx="255.3" cy="210.6" rx="0.8" ry="1"/>
	<polyline class="st18" points="240.4,213.6 242.4,223.9 252.1,227.8 256.6,226.3 255.4,223.1 250.9,222.9 244.9,221.1 241.4,213.9 
			"/>
	<polyline class="st19" points="248.4,226 252.1,227.4 256,226.2 	"/>
	<polygon class="st5" points="133.1,71.4 115.3,66 111.9,54.1 113,54.4 116.1,65.2 131.8,70 129.5,60 130.6,60.4 	"/>
	<polygon class="st20" points="120.5,60.9 114.8,41.2 123.6,49.1 125.3,42.8 129.1,50.5 132.6,45.6 137.2,65.9 	"/>
	<polygon class="st21" points="120.7,59.4 114.8,39.8 124,47.6 125.8,41.4 129.7,49.1 133.3,44.2 138.2,64.5 	"/>
</g>
</svg>
