<svg xmlns="http://www.w3.org/2000/svg" xmlns:xlink="http://www.w3.org/1999/xlink" viewBox="0 0 85.13 111.53"><defs><style>.cls-1{fill:#c24a4a;}.cls-2{fill:#fff;}.cls-3{fill:url(#Unbenannter_Verlauf_8);}.cls-4{fill:#f47f5b;}.cls-5{fill:#d45c28;}.cls-6{fill:#ffeeb8;}.cls-7{fill:url(#Unbenannter_Verlauf_8-2);}</style><linearGradient id="Unbenannter_Verlauf_8" x1="34.95" y1="82.35" x2="64.52" y2="51.94" gradientUnits="userSpaceOnUse"><stop offset="0" stop-color="#fff"/><stop offset="1" stop-color="#fff" stop-opacity="0"/></linearGradient><linearGradient id="Unbenannter_Verlauf_8-2" x1="53.96" y1="48.76" x2="59.37" y2="43.19" xlink:href="#Unbenannter_Verlauf_8"/></defs><title>kapitelbild_08</title><g id="Layer_2" data-name="Layer 2"><path class="cls-1" d="M61.3,85.27c3.78.72,5.08,2.16,4.75,2.31s-2.15-1-5.94-1.75S52,85.12,52.35,85A31.94,31.94,0,0,1,61.3,85.27Z"/><path class="cls-1" d="M26.67,85.92c4.39-.3,7.44-.08,7.35.12s-3.32.18-7.7.54c-4.61.37-8.44,1.31-8.36,1.1C18.11,87.31,22.3,86.22,26.67,85.92Z"/><path class="cls-1" d="M65.46,88.56c0,1-10.84,1.85-24.2,1.85s-24.21-.83-24.21-1.85c0-.44,2-.85,5.29-1.16,12.66-1.22,19.55-.7,18.92-.7C54.62,86.7,65.46,87.53,65.46,88.56Z"/></g><g id="Ebene_8" data-name="Ebene 8"><polygon class="cls-2" points="68.51 71.94 33.08 81.41 30.43 80.46 20.2 42.01 44.83 35.75 69.08 69.29 68.51 71.94"/><polygon class="cls-3" points="30.66 80.51 33.08 81.41 86.29 76.27 49.95 24.95 22.85 48.07 30.66 80.51"/><polygon class="cls-4" points="16.03 42.76 30.66 80.51 31.38 78.19 67.75 62.66 67.94 59.43 64.91 54.51 46.91 27.61 43.88 27.8 42.17 29.12 16.79 40.87 16.03 42.76"/><polygon class="cls-1" points="37.22 51.43 39.49 58.61 40.69 58.85 47.75 55.98 48.11 55.02 42.37 48.68 40.33 48.56 37.94 49.63 37.22 51.43"/><polygon class="cls-1" points="34.47 44.61 35.67 47.72 36.62 48.32 39.38 47.48 39.38 46.28 37.34 43.41 34.47 44.61"/><polygon class="cls-1" points="44.93 46.23 45.34 43.68 45.86 44.28 45.84 46.69 44.93 46.23"/><polygon class="cls-1" points="46.11 41.9 44.99 39.67 45.73 39.75 47.12 41.75 46.11 41.9"/><polygon class="cls-1" points="44.65 38.17 42.44 37.22 42.96 36.73 45.33 37.4 44.65 38.17"/><polygon class="cls-1" points="40.63 36.36 38.33 36.7 38.4 36.01 40.81 35.35 40.63 36.36"/><polygon class="cls-1" points="36.35 36.63 34.38 37.67 34.1 37.05 36.19 35.61 36.35 36.63"/><polygon class="cls-1" points="32.3 38.44 30.77 39.95 30.23 39.52 31.84 37.5 32.3 38.44"/><polygon class="cls-1" points="29.13 41.36 28.22 43.23 27.53 43.11 28.38 40.63 29.13 41.36"/><polygon class="cls-1" points="27.51 45.2 27.67 47.19 27.05 47.57 26.49 44.96 27.51 45.2"/><polygon class="cls-1" points="28.4 48.85 29.75 50.23 29.62 50.99 27.45 49.34 28.4 48.85"/><polygon class="cls-1" points="31.75 51.31 33.58 51.65 34.04 52.34 31.27 52.27 31.75 51.31"/><polygon class="cls-5" points="16.79 41.16 31.37 78.32 30.66 80.51 16.08 42.68 16.79 41.16"/><polygon class="cls-5" points="67.75 62.66 31.38 78.19 30.43 79.8 30.66 80.51 31.57 78.76 68.13 63.22 67.94 59.43 67.75 62.66"/><polygon class="cls-5" points="43.59 28.27 44.35 30.54 42.17 29.12 43.59 28.27"/><polygon class="cls-6" points="33.46 66.16 32.99 68.15 34.41 72.22 35.16 72.41 60.74 61.33 60.93 59.81 56.95 56.4 55.91 56.4 33.46 66.16"/><path class="cls-1" d="M35.6,67.12l1.48-.62a1.2,1.2,0,0,1,.48-.11,1.21,1.21,0,0,1,.43,0,.89.89,0,0,1,.36.19.76.76,0,0,1,.23.3,1.33,1.33,0,0,1,.12.42.89.89,0,0,1-.06.4,1.25,1.25,0,0,1-.26.37,1.64,1.64,0,0,1-.47.29l-.45.19.26.57L38,69l.26.55-1.38.56-.24-.54.34-.14-.83-1.93-.34.14Zm1.27.12.35.81.29-.13a.71.71,0,0,0,.34-.25.35.35,0,0,0,0-.36.44.44,0,0,0-.27-.25.66.66,0,0,0-.44.06Z"/><path class="cls-1" d="M41.29,67.65l.31-.13-.35-.37-1,.41.07.49.33-.14.27.54L39.74,69l-.26-.54.24-.1-.29-2.82.8-.35,2,2.1.22-.1.28.54-1.19.5ZM40.21,67l.63-.27-.78-.84Z"/><path class="cls-1" d="M43.37,64.8a.38.38,0,0,0-.11-.11.39.39,0,0,0-.15-.06h-.17l-.17,0-.13.08a.28.28,0,0,0-.09.1.21.21,0,0,0,0,.12.17.17,0,0,0,0,.13.22.22,0,0,0,.11.12.34.34,0,0,0,.14.05H43l.16,0,.64,0a.77.77,0,0,1,.26,0,1.14,1.14,0,0,1,.26.09,1,1,0,0,1,.23.18,1,1,0,0,1,.2.27,1,1,0,0,1,.13.42.89.89,0,0,1-.06.4.92.92,0,0,1-.24.35,1.33,1.33,0,0,1-.41.27,1.65,1.65,0,0,1-.36.11,1.93,1.93,0,0,1-.34,0,1.16,1.16,0,0,1-.32-.08.92.92,0,0,1-.27-.16l-.21.09-.31-.59.73-.31.07.12a.58.58,0,0,0,.11.15.51.51,0,0,0,.16.09.55.55,0,0,0,.19,0l.22-.06a.39.39,0,0,0,.23-.2.33.33,0,0,0,0-.27.27.27,0,0,0-.1-.11.28.28,0,0,0-.13,0h-.29L43,66a1.07,1.07,0,0,1-.31,0,1.11,1.11,0,0,1-.3-.08.83.83,0,0,1-.27-.19.78.78,0,0,1-.22-.3.93.93,0,0,1-.11-.41.85.85,0,0,1,.09-.38.93.93,0,0,1,.25-.32,1.51,1.51,0,0,1,.39-.24,1.24,1.24,0,0,1,.36-.11,1.16,1.16,0,0,1,.32,0,1.23,1.23,0,0,1,.29.07.88.88,0,0,1,.23.14l.19-.09.31.59-.71.31Z"/><path class="cls-1" d="M45.76,63.74a.57.57,0,0,0-.11-.11.44.44,0,0,0-.16-.06h-.16l-.17,0a.36.36,0,0,0-.12.08.38.38,0,0,0-.09.09.27.27,0,0,0,0,.12A.33.33,0,0,0,45,64a.29.29,0,0,0,.11.13.37.37,0,0,0,.14,0,.86.86,0,0,0,.16,0l.16,0,.62-.06a1,1,0,0,1,.52.11,1.25,1.25,0,0,1,.24.18,1.37,1.37,0,0,1,.2.26,1.23,1.23,0,0,1,.15.43,1.07,1.07,0,0,1,0,.4.93.93,0,0,1-.23.34,1.26,1.26,0,0,1-.39.26,1.57,1.57,0,0,1-.35.11,1.29,1.29,0,0,1-.34,0,1.09,1.09,0,0,1-.31-.08,1,1,0,0,1-.28-.16l-.2.09-.32-.59.7-.31.07.12a.44.44,0,0,0,.12.15.34.34,0,0,0,.15.09.58.58,0,0,0,.19,0l.22-.06a.4.4,0,0,0,.22-.2.31.31,0,0,0,0-.26.27.27,0,0,0-.1-.11.35.35,0,0,0-.13,0h-.29l-.52,0a1.5,1.5,0,0,1-.3,0,1,1,0,0,1-.3-.08,1.26,1.26,0,0,1-.28-.19,1.17,1.17,0,0,1-.22-.3.81.81,0,0,1-.12-.41.76.76,0,0,1,.06-.37,1,1,0,0,1,.24-.32,1.3,1.3,0,0,1,.38-.24,1.1,1.1,0,0,1,.34-.1,1.16,1.16,0,0,1,.32,0,.88.88,0,0,1,.29.07,1.16,1.16,0,0,1,.22.13l.19-.08.33.59-.68.3Z"/><path class="cls-1" d="M46.26,62.48l1.27-.59a1.23,1.23,0,0,1,.84,0,1.22,1.22,0,0,1,.36.18,1.1,1.1,0,0,1,.27.3,1.32,1.32,0,0,1,.17.41.86.86,0,0,1,0,.39.8.8,0,0,1-.18.34,1.09,1.09,0,0,1-.39.28l-.39.18.33.56.26-.12.32.53L48,65.42l-.32-.53.3-.13-1.08-1.88-.29.13Zm1.2.12.45.79.25-.11a.58.58,0,0,0,.28-.25.38.38,0,0,0,0-.35.56.56,0,0,0-.29-.24.58.58,0,0,0-.4.05Z"/><path class="cls-1" d="M51.84,63.72a1.25,1.25,0,0,1-.39.11,1.48,1.48,0,0,1-.42,0,1.67,1.67,0,0,1-.41-.11,1.71,1.71,0,0,1-.4-.21,2,2,0,0,1-.36-.3,2.24,2.24,0,0,1-.29-.38,1.86,1.86,0,0,1-.2-.43,1.58,1.58,0,0,1-.09-.42,1.76,1.76,0,0,1,0-.4,1.09,1.09,0,0,1,.12-.36,1,1,0,0,1,.21-.3,1.41,1.41,0,0,1,.31-.21,1.14,1.14,0,0,1,.37-.11,1.7,1.7,0,0,1,.39,0,2,2,0,0,1,.4.12,2.82,2.82,0,0,1,.38.21,2.6,2.6,0,0,1,.36.3,3.68,3.68,0,0,1,.31.38,2.06,2.06,0,0,1,.21.42,1.87,1.87,0,0,1,.11.42,1.34,1.34,0,0,1,0,.4,1.36,1.36,0,0,1-.1.36,1,1,0,0,1-.21.29A1.21,1.21,0,0,1,51.84,63.72Zm-.39-.6a.57.57,0,0,0,.23-.2.63.63,0,0,0,.1-.3,1.1,1.1,0,0,0-.05-.35,2.11,2.11,0,0,0-.17-.38,1.43,1.43,0,0,0-.28-.32,1.36,1.36,0,0,0-.32-.23,1,1,0,0,0-.34-.09.7.7,0,0,0-.32,0,.59.59,0,0,0-.32.5,1.1,1.1,0,0,0,0,.36,1.59,1.59,0,0,0,.17.38,1.18,1.18,0,0,0,.27.32,1.36,1.36,0,0,0,.32.23,1.13,1.13,0,0,0,.35.09A.63.63,0,0,0,51.45,63.12Z"/><path class="cls-1" d="M51.55,60l1.32-.64a.86.86,0,0,1,.38-.1,1.14,1.14,0,0,1,.37.05,1.35,1.35,0,0,1,.33.19,1.16,1.16,0,0,1,.26.28,1.25,1.25,0,0,1,.15.27,1.12,1.12,0,0,1,.06.23.78.78,0,0,1,0,.22,1.86,1.86,0,0,1-.1.2.7.7,0,0,1,.26.08,1.27,1.27,0,0,1,.28.22l.34.33.21-.1.4.56-.73.35-.58-.63a1.69,1.69,0,0,0-.19-.19.77.77,0,0,0-.19-.11.37.37,0,0,0-.18,0,.7.7,0,0,0-.19.06l-.22.1.43.63.23-.11.36.52-1.08.51-.35-.52.27-.13L52.15,60.4l-.26.13Zm1.15.13.46.71.33-.16a.5.5,0,0,0,.16-.11.27.27,0,0,0,.09-.12.38.38,0,0,0,0-.15.51.51,0,0,0-.08-.17.48.48,0,0,0-.28-.21A.52.52,0,0,0,53,60Z"/><path class="cls-1" d="M56.1,60.94l.26-.13L55,59l-.29.14.26.38-.53.25-.59-.87L56,57.78l.63.87-.5.26-.27-.37-.32.16,1.33,1.85.26-.13.38.52-1.05.51Z"/><polygon class="cls-7" points="46.53 28.36 67.19 59.34 67.75 62.6 67.94 59.43 46.53 28.36"/><ellipse class="cls-6" cx="63.68" cy="35.65" rx="3.13" ry="0.38" transform="translate(-8.49 24.8) rotate(-20.69)"/><ellipse class="cls-6" cx="57.99" cy="28.27" rx="3.13" ry="0.38" transform="translate(-5.68 38.71) rotate(-35.3)"/><ellipse class="cls-6" cx="19.14" cy="35.98" rx="0.19" ry="1.22" transform="translate(-2.14 1.22) rotate(-3.46)"/><ellipse class="cls-6" cx="25.93" cy="29.84" rx="0.24" ry="1.95" transform="translate(-1.73 1.6) rotate(-3.41)"/><ellipse class="cls-6" cx="47.24" cy="22.07" rx="1.95" ry="0.24" transform="matrix(0.24, -0.97, 0.97, 0.24, 14.69, 62.8)"/><ellipse class="cls-6" cx="37.29" cy="24.34" rx="1.95" ry="0.24" transform="translate(12.83 61.56) rotate(-89.82)"/><ellipse class="cls-6" cx="74" cy="50.3" rx="3.13" ry="0.53"/><ellipse class="cls-6" cx="52.69" cy="75.9" rx="3.13" ry="0.37"/><ellipse class="cls-6" cx="67.56" cy="72.25" rx="3.13" ry="0.21"/><ellipse class="cls-6" cx="63.01" cy="67.79" rx="3.13" ry="0.21" transform="translate(-6.91 7.15) rotate(-6.16)"/><ellipse class="cls-2" cx="68.32" cy="78.59" rx="3.13" ry="0.21"/><ellipse class="cls-6" cx="69.27" cy="38.78" rx="3.13" ry="0.35" transform="translate(-5.7 12.67) rotate(-10.04)"/><ellipse class="cls-6" cx="80.28" cy="62.7" rx="2.78" ry="0.29"/><ellipse class="cls-2" cx="86.35" cy="56.68" rx="2.78" ry="0.29" transform="translate(-3.86 6.38) rotate(-4.14)"/><ellipse class="cls-2" cx="85.17" cy="70.16" rx="2.78" ry="0.29"/><ellipse class="cls-2" cx="76.46" cy="66.4" rx="3.13" ry="0.43"/><ellipse class="cls-2" cx="80.63" cy="57.14" rx="1.57" ry="0.56"/></g></svg>