<svg xmlns="http://www.w3.org/2000/svg" viewBox="0 0 230.83 231.32"><defs><style>.cls-1{fill:#468f99;}.cls-2{fill:#d45c28;}.cls-10,.cls-3,.cls-8{fill:none;stroke:#f7931e;stroke-miterlimit:10;}.cls-3{stroke-width:15.19px;}.cls-4{fill:#f7931e;}.cls-5{fill:#e8d6bc;}.cls-6{fill:#f4ca98;}.cls-7{fill:#754c24;}.cls-8{stroke-width:14px;}.cls-9{fill:#e5aa3c;}</style></defs><title>cp_03_jesus_02</title><g id="Ebene_1" data-name="Ebene 1"><path class="cls-1" d="M149.53,223.71c0,1.6-19,2.9-42.36,2.9s-42.36-1.3-42.36-2.9,19-2.91,42.36-2.91S149.53,222.1,149.53,223.71Z"/><rect class="cls-2" x="3.34" y="127.08" width="219" height="32.3"/><rect class="cls-2" x="90.92" y="4.71" width="32.3" height="219"/><line class="cls-3" x1="134.75" y1="136.88" x2="181.25" y2="146.1"/><rect class="cls-4" x="178.31" y="134.2" width="29.44" height="23"/><polygon class="cls-4" points="199.99 124.02 194.25 121.51 182.16 135.33 193.38 141.84 199.99 124.02"/><polygon class="cls-4" points="125.11 84.3 120.13 88.1 88.31 88.1 88.31 35.41 125.11 35.41 125.11 84.3"/><rect class="cls-4" x="99.09" y="82.56" width="14.49" height="34.54"/><polygon class="cls-5" points="149.64 204.1 77.53 204.1 77.53 139.74 89.35 101.25 99.09 101.25 102.2 114.03 113.59 101.36 122.73 101.25 149.64 131.72 149.64 204.1"/><polygon class="cls-6" points="121.91 82.96 115.08 87.48 90.77 86.17 90.77 41.59 115.08 45.07 121.91 82.96"/><polygon class="cls-7" points="88.56 93.89 80.29 93.89 84.18 51.21 82.53 35.41 88.31 27.37 125.11 27.37 129.19 30.87 133.11 56.45 136.4 92.92 125.2 98.19 125.11 54.91 122.81 51.45 121.63 73.64 117.87 73.64 119.44 52.64 117.44 39.5 106.34 40.74 94.28 41.05 91.79 43.83 88.31 59.29 88.56 93.89"/><line class="cls-8" x1="81.44" y1="133.8" x2="41.95" y2="143.02"/><polygon class="cls-6" points="112.27 100.39 106.71 100.39 106.71 91.97 112.27 94.23 112.27 100.39"/><path class="cls-4" d="M100.05,57.9c0,.24-.65.44-1.45.44s-1.44-.2-1.44-.44.65-.43,1.44-.43S100.05,57.66,100.05,57.9Z"/><path class="cls-4" d="M111,57.9c0,.18-.56.33-1.25.33s-1.25-.15-1.25-.33.56-.33,1.25-.33S111,57.72,111,57.9Z"/><polygon class="cls-7" points="87.58 71.64 127.7 72.39 125.11 91.14 95.92 91.97 86.45 88.1 87.58 71.64"/><polygon class="cls-6" points="113.59 80.43 98.74 75.37 94.64 82.56 101.4 79.58 113.59 80.43"/><rect class="cls-4" x="109" y="46.79" width="4.03" height="11.1" transform="translate(44.53 155.51) rotate(-82.45)"/><rect class="cls-7" x="110.05" y="45.86" width="4.03" height="11.1" transform="translate(46.38 155.75) rotate(-82.45)"/><rect class="cls-4" x="92.54" y="49.28" width="9.94" height="4.03" transform="translate(-5.62 12.53) rotate(-7.15)"/><rect class="cls-7" x="91.85" y="48.29" width="9.94" height="4.03" transform="translate(-5.51 12.43) rotate(-7.15)"/><path class="cls-6" d="M104.86,71.64a1.8,1.8,0,1,1-1.78-2A1.9,1.9,0,0,1,104.86,71.64Z"/><rect class="cls-4" x="124.03" y="55.07" width="7.34" height="6.85"/><rect class="cls-4" x="77.77" y="55.07" width="7.34" height="6.85"/><polygon class="cls-9" points="94.64 126.58 89.35 101.25 77.53 139.74 77.53 204.1 99.09 204.1 94.64 126.58"/><polygon class="cls-5" points="140.26 146.51 156.81 146.51 156.81 127.64 132.06 113.68 140.26 146.51"/><polygon class="cls-9" points="135.41 127.08 104.11 194.27 84.7 197.94 83.2 179.27 132.06 114.77 135.41 127.08"/><polygon class="cls-9" points="99.11 102.16 97.39 106.8 98.25 119.88 103.08 117.09 111.27 103.53 102.2 114.03 99.11 102.16"/><polygon class="cls-1" points="127.17 106.27 97.39 147.78 77.53 160.18 76.23 164.6 77.53 192.04 101.48 187.33 138.11 117.09 131.36 109.56 128.7 106.27 127.17 106.27"/><polygon class="cls-9" points="80.47 146.51 68.39 146.51 68.39 127.64 86.45 113.68 80.47 146.51"/><rect class="cls-4" x="19.45" y="131.11" width="25" height="23"/><polygon class="cls-4" points="26.04 120.94 30.91 118.43 41.18 132.25 31.65 138.75 26.04 120.94"/><rect class="cls-4" x="16.2" y="131.39" width="6.75" height="6.6"/><rect class="cls-4" x="16.2" y="139.09" width="6.75" height="6.6"/><rect class="cls-4" x="16.2" y="146.79" width="6.75" height="6.6"/><polygon class="cls-9" points="149.64 146.91 139.44 143.23 143.88 149.16 149.64 150.51 149.64 146.91"/><polyline class="cls-10" points="82.45 48.68 78.95 51.3 80.7 47.02 76.23 47.02 75.29 37.35 77.77 44.52 81.44 34.69 85.11 43.19 88.31 34.02 95.45 36.35 96.81 30.52 102.69 37.52 107.08 32.85 111.02 37.52 115.29 30.52 117.75 41.59 121.91 33.35 122.79 44.52 128.62 37.52 131.37 34.19 131.37 46.02 136.4 37.69 136.4 45.19 133.29 51.3"/></g></svg>