<svg xmlns="http://www.w3.org/2000/svg" xmlns:xlink="http://www.w3.org/1999/xlink" viewBox="0 0 320.83 414.99"><defs><style>.cls-1{fill:#c24a4a;}.cls-2{fill:url(#linear-gradient);}.cls-3{fill:url(#linear-gradient-2);}.cls-4{fill:url(#linear-gradient-3);}.cls-5{fill:url(#linear-gradient-4);}.cls-6{fill:url(#linear-gradient-5);}.cls-7{fill:url(#linear-gradient-6);}.cls-8{fill:url(#linear-gradient-7);}.cls-9{fill:url(#linear-gradient-8);}.cls-10{fill:url(#linear-gradient-9);}.cls-11{fill:#d45c28;}.cls-12,.cls-14{fill:#dd992e;}.cls-13{fill:none;}.cls-13,.cls-14{stroke:#d45c28;stroke-miterlimit:10;stroke-width:5.47px;}.cls-15{fill:#e56a6a;}</style><linearGradient id="linear-gradient" x1="164.58" y1="31.7" x2="163.21" y2="-11.79" gradientUnits="userSpaceOnUse"><stop offset="0" stop-color="#ffeeb8"/><stop offset="1" stop-color="#ffeeb8" stop-opacity="0"/></linearGradient><linearGradient id="linear-gradient-2" x1="141.3" y1="-408.94" x2="139.92" y2="-452.65" gradientTransform="matrix(0.93, 0.36, -0.36, 0.93, -43.91, 383.77)" xlink:href="#linear-gradient"/><linearGradient id="linear-gradient-3" x1="-281.72" y1="-973.91" x2="-283.1" y2="-1017.62" gradientTransform="translate(-351.99 884.41) rotate(55.06)" xlink:href="#linear-gradient"/><linearGradient id="linear-gradient-4" x1="-24.14" y1="637.29" x2="-25.52" y2="593.59" gradientTransform="matrix(0.91, -0.42, 0.42, 0.91, -168.27, -567.18)" xlink:href="#linear-gradient"/><linearGradient id="linear-gradient-5" x1="-1435.91" y1="1424.31" x2="-1437.29" y2="1380.61" gradientTransform="matrix(-0.12, -0.99, 0.99, -0.12, -1563.42, -1138.02)" xlink:href="#linear-gradient"/><linearGradient id="linear-gradient-6" x1="-2260.09" y1="1102.25" x2="-2261.46" y2="1058.55" gradientTransform="matrix(-0.69, -0.72, 0.72, -0.69, -2292.36, -688.78)" xlink:href="#linear-gradient"/><linearGradient id="linear-gradient-7" x1="-2622.11" y1="710.55" x2="-2623.48" y2="666.84" gradientTransform="matrix(-0.91, -0.4, 0.41, -0.91, -2550.2, -216.14)" xlink:href="#linear-gradient"/><linearGradient id="linear-gradient-8" x1="-2792.02" y1="-197.59" x2="-2793.4" y2="-241.3" gradientTransform="matrix(-0.96, 0.29, -0.29, -0.96, -2504.59, 830.35)" xlink:href="#linear-gradient"/><linearGradient id="linear-gradient-9" x1="-2325.86" y1="-931.86" x2="-2327.24" y2="-975.56" gradientTransform="matrix(-0.53, 0.85, -0.85, -0.53, -1727.68, 1665.62)" xlink:href="#linear-gradient"/></defs><title>cp_03_keybox</title><g id="Ebene_2" data-name="Ebene 2"><g id="Layer_2" data-name="Layer 2"><path class="cls-1" d="M271.77,406.78c0,4.53-54.46,8.21-121.64,8.21s-121.64-3.68-121.64-8.21,54.46-8.2,121.64-8.2S271.77,402.25,271.77,406.78Z"/><polygon class="cls-2" points="147.89 57.81 159.23 60.97 184.66 16.81 143.34 9.9 147.89 57.81"/><polygon class="cls-3" points="217.22 73.86 226.67 80.87 258.79 45.91 222.7 24.63 217.22 73.86"/><polygon class="cls-4" points="258.79 103.46 262.69 114.56 308.87 103.56 290.88 65.73 258.79 103.46"/><polygon class="cls-5" points="78.74 49.27 90.37 47.4 87.78 0 47.35 10.96 78.74 49.27"/><polygon class="cls-6" points="53.71 116.93 55.45 105.29 9.48 93.42 7.7 135.26 53.71 116.93"/><polygon class="cls-7" points="93.61 163.78 88.02 153.42 44.1 171.47 67.76 206.02 93.61 163.78"/><polygon class="cls-8" points="153.03 175.75 143.94 168.27 110.1 201.56 145.06 224.61 153.03 175.75"/><polygon class="cls-9" points="226.01 189.77 214.25 190 210.22 237.31 251.76 232.05 226.01 189.77"/><polygon class="cls-10" points="273.52 160.57 264.85 168.54 293.15 206.65 320.82 175.2 273.52 160.57"/><polygon class="cls-11" points="164 368.05 46 353.55 46 237.31 164 217.66 164 368.05"/><polygon class="cls-12" points="164 368.05 280 353.55 278.06 314.17 280 254.41 164 217.66 161.52 314.17 164 368.05"/><polygon class="cls-1" points="140.12 301.14 46 292.85 46 237.31 164 217.66 140.12 301.14"/><polygon class="cls-12" points="130 271.43 0 282.83 46 237.31 164 217.66 130 271.43"/><polygon class="cls-11" points="174.72 291.5 279.03 284.16 280 254.41 164 217.66 174.72 291.5"/><polygon class="cls-12" points="210 265.8 318 284.16 280 254.41 164 217.66 210 265.8"/><path class="cls-11" d="M221.49,323.66a18.63,18.63,0,0,1,.16,4.55,11,11,0,0,1-1,3.77,8,8,0,0,1-2.24,2.78,8.48,8.48,0,0,1-3.53,1.58,15.43,15.43,0,0,1-1.89.29,13.16,13.16,0,0,1-2,0l-.29-4a1.34,1.34,0,0,1,.22-.91,1.22,1.22,0,0,1,.81-.51,3,3,0,0,1,.71,0,4,4,0,0,0,1-.11,3.6,3.6,0,0,0,1.38-.58,2.58,2.58,0,0,0,.88-1.11,5.26,5.26,0,0,0,.35-1.79,13.71,13.71,0,0,0-.18-2.56l-2.81-18.74,5.63-1.22Z"/><path class="cls-11" d="M225.17,330.7a3.55,3.55,0,0,1,.23-1.24,3.1,3.1,0,0,1,.58-1,2.64,2.64,0,0,1,.86-.66,2.31,2.31,0,0,1,1.08-.23,2.41,2.41,0,0,1,1.05.27,2.81,2.81,0,0,1,.85.69,3.1,3.1,0,0,1,.56,1,3.33,3.33,0,0,1,.19,1.24,3.63,3.63,0,0,1-.22,1.24,3.07,3.07,0,0,1-.59,1,2.61,2.61,0,0,1-.87.65,2.34,2.34,0,0,1-1.06.22,2.41,2.41,0,0,1-1.07-.26,2.74,2.74,0,0,1-.84-.68,3.35,3.35,0,0,1-.56-1A3.88,3.88,0,0,1,225.17,330.7Z"/><path class="cls-11" d="M247.31,327.88a.72.72,0,0,1,.28.07,1,1,0,0,1,.28.23l1.59,2.07a7,7,0,0,1-2.69,2.47,8,8,0,0,1-3.79.77,7.73,7.73,0,0,1-3.57-.88,8,8,0,0,1-2.66-2.31,10.62,10.62,0,0,1-1.65-3.45,15.13,15.13,0,0,1-.53-4.3,13.22,13.22,0,0,1,.73-4.32,10.22,10.22,0,0,1,1.93-3.37,8.45,8.45,0,0,1,2.92-2.18,8.68,8.68,0,0,1,3.74-.73,8.43,8.43,0,0,1,1.85.25,7.53,7.53,0,0,1,1.63.61,7.12,7.12,0,0,1,1.38.9,7.21,7.21,0,0,1,1.12,1.16l-1.4,2.19a1.83,1.83,0,0,1-.32.36.72.72,0,0,1-.5.16.73.73,0,0,1-.41-.12,4.49,4.49,0,0,1-.41-.29l-.47-.37a3.19,3.19,0,0,0-.61-.38,4.71,4.71,0,0,0-.83-.29,4.48,4.48,0,0,0-1.11-.14,4.41,4.41,0,0,0-2,.43,4.77,4.77,0,0,0-1.59,1.32,6.89,6.89,0,0,0-1.05,2.1,9.63,9.63,0,0,0-.4,2.79,9.94,9.94,0,0,0,.33,2.89,6.7,6.7,0,0,0,1,2.14A4.38,4.38,0,0,0,241.5,329a3.78,3.78,0,0,0,1.8.48,6.51,6.51,0,0,0,1,0,3.65,3.65,0,0,0,.85-.21,3.37,3.37,0,0,0,.75-.4,4.46,4.46,0,0,0,.73-.62A1.44,1.44,0,0,1,247,328,.73.73,0,0,1,247.31,327.88Z"/><path class="cls-11" d="M251.8,327.14a2.18,2.18,0,0,1,.15-.82,2.15,2.15,0,0,1,.38-.66,2.07,2.07,0,0,1,.58-.44,1.72,1.72,0,0,1,.72-.15,1.55,1.55,0,0,1,.7.18,1.93,1.93,0,0,1,.57.46,2.07,2.07,0,0,1,.37.67,2.49,2.49,0,0,1,.13.83,2.44,2.44,0,0,1-.15.82,2,2,0,0,1-.39.66,1.9,1.9,0,0,1-.58.44,1.56,1.56,0,0,1-.71.14,1.52,1.52,0,0,1-.71-.17,1.78,1.78,0,0,1-.57-.45,2.1,2.1,0,0,1-.36-.68A2.29,2.29,0,0,1,251.8,327.14Z"/><line class="cls-13" x1="200.87" y1="345.33" x2="258.34" y2="338.66"/><line class="cls-14" x1="197.92" y1="297.3" x2="256.1" y2="300.32"/><polygon class="cls-11" points="278.06 314.17 266.29 315.75 278.06 315.75 278.06 314.17"/><polygon class="cls-11" points="158.36 314.17 181.9 314.17 159.51 315.75 158.36 314.17"/><polyline class="cls-11" points="0 282.83 0 285.47 130 271.43"/><polyline class="cls-11" points="210 265.8 316.24 285.47 318 284.16"/><path class="cls-1" d="M239.44,133.88,135,101l2.75,1.94L115.52,65.39l-11.36-3.57H92.55l-6.8,21.61,5.73,9.48L81.36,97.37,74.6,118.83l8.66,7.89,11.82,3.73,40.32-20-3.07.49,65.21,20.52-12.4,39.41L195,174l5.35-17,10.26,3.23-5.34,17,9.85,3.1,12.41-39.41,10.17,3.2,2.71-8.6ZM94.38,121.45l-6.84-2.16-3.35-3.05,4-12.75,15.36-6.78L94.87,82.32l3.82-12.14h4.18L110,72.41l18.91,31.94Z"/><rect class="cls-15" x="187.75" y="70.72" width="2.81" height="101.53" transform="translate(16.48 265.44) rotate(-72.53)"/><polygon class="cls-15" points="132.59 102.34 112.27 68.31 114.72 66.94 133.72 98.78 132.59 102.34"/><rect class="cls-15" x="107.81" y="62.08" width="1.42" height="7.31" transform="matrix(0.3, -0.95, 0.95, 0.3, 13.24, 149.52)"/><rect class="cls-15" x="90.17" y="119.88" width="1.27" height="6.61" transform="translate(-53.97 172.81) rotate(-72.53)"/></g></g></svg>