<svg xmlns="http://www.w3.org/2000/svg" viewBox="0 0 738.96 198.13"><defs><style>.cls-1{fill:#ffeeb8;}</style></defs><title>background_1</title><g id="asdsa"><path class="cls-1" d="M425.11,100.06c-.09-2.52,18.59-.73,41.53-1.6s41.42-4.07,41.52-1.55S489.92,106.72,467,107.6,425.21,102.59,425.11,100.06Z"/><path class="cls-1" d="M84.38,10.76c1.33,2.14-15.77,9.88-35.23,22.05S15.24,57,13.91,54.82s10.94-17.6,30.4-29.76S83,8.62,84.38,10.76Z"/><path class="cls-1" d="M713.79,90.43c-.62,2.45-18-4.59-40.26-10.27s-40.87-7.88-40.24-10.33,20.28-4.22,42.51,1.47S714.42,88,713.79,90.43Z"/><path class="cls-1" d="M627.61,186.49c48.5.93,69.27-16,69.27-16s50.26-44,15.14-69S625.15,74.32,584.48,83.88s-47.34,24.75-124.23,28.56c-262.23,13-283.7-131.54-378-85.77C30.82,44,10.38,107.19,29.4,148.36s69.82,41.13,122.49,41.17S579.11,185.56,627.61,186.49Z"/></g></svg>