<svg xmlns="http://www.w3.org/2000/svg" viewBox="0 0 801.9 408.15"><defs><style>.cls-1{fill:#ffeeb8;}.cls-2{fill:#468f99;}.cls-3{fill:#e8d6bc;}.cls-4{fill:#80b2b9;}.cls-5{fill:#f6f6f6;}.cls-6{fill:#d45c28;}.cls-7{fill:#dd992e;}.cls-8{fill:#e56a6a;}.cls-9{fill:#c24a4a;}.cls-10{fill:#fff;}</style></defs><title>challenge_background</title><g id="asdsa"><path class="cls-1" d="M642.09,386.28c48.5.76,69.26-13,69.26-13s50.27-35.87,15.15-56.2S639.63,294.93,599,302.71,551.71,326.27,474.73,326,369.81,251.29,286.11,247.9,148.22,242,96.76,256.13s-71.9,65.57-52.89,99.1,69.83,33.5,122.5,33.53S593.59,385.53,642.09,386.28Z"/><path class="cls-1" d="M439.59,313.27c-.09-2,18.59-.59,41.52-1.3s41.43-3.32,41.53-1.27-18.25,8-41.18,8.71S439.69,315.33,439.59,313.27Z"/><path class="cls-1" d="M50.56,275.15c2.36.73-6.58,14.17-14.72,31.64s-1.41,32.36-3.77,31.64-12.92-16.8-4.78-34.27S48.2,274.42,50.56,275.15Z"/><path class="cls-1" d="M728.27,305.24c-.62,2-18-3.74-40.26-8.37s-40.87-6.42-40.25-8.41,20.29-3.44,42.52,1.2S728.9,303.24,728.27,305.24Z"/></g><g id="Ebene_8" data-name="Ebene 8"><path class="cls-2" d="M223.21,118.18l-61.29-11.54L97.43,162l12.76,33.88,4.55,8.86L55.51,224.23l23.85,12.93L157.68,207l4.76-15.51L131,199.78l.49-9.48s3.55-2.32,3.71-3.19c2.17-11.47,14-101.81,102.76-52.32C240.8,131.3,223.21,118.18,223.21,118.18Z"/><polygon class="cls-3" points="220.36 374.51 168.52 377.7 57.69 377.18 94.14 392.27 198.2 397.67 275.39 379.86 341.15 380.19 400.33 384.04 493.76 377.18 510.02 367.68 484.94 357.92 510.02 353.19 542.88 356.98 558.33 355.07 573.53 351.3 548.41 351.3 496.07 351.3 463.93 355.08 484.94 369.21 457.93 368 406.76 359.81 369.38 363.6 236.16 373.45 220.36 374.51"/><path class="cls-4" d="M482.76,357.92c-130.39-4-176.58-104.69-188.22-133.73-15.25-38.05-38.43-84.1-70.41-108.07C170.89,76.22,80.23,95.47,47.91,159.5l-21.39-8.33,29,73.06,106.93-32.79-40.77-9c31.61-104.18,101-63.72,118.61-45.41,13.5,14,38,64.05,55.51,101.86C307.46,264.13,347.33,361.08,482.76,357.92Z"/><path class="cls-5" d="M247,132.5l14.5,4.39,4.88,4.38,9.4,10.21,4.4,6.49,7.29.27s0,5.66-.31,6S285.4,170.62,286,171s4.39,4.59,4.39,4.59l3.05,2.74-1.37-8.6,5.18-5.6-2-7-5.05-3.33-5,2.42-3.41.68-1.92-2.16.13-3.2-1.68-3.48.53-2.33.59-5.78L275.09,136s-5.88-2-6.23-1.62a17.27,17.27,0,0,0-.79,3.49l.52,3.38-2.87-2.58-1.36-3.43-.7-3.9s.19-4.12-1.42-3.89-3.61,2.17-3.61,2.17l.63,3.24-5.1-.83-2.46-2.2-2.55.23-2.93,1.49Z"/><path class="cls-6" d="M363.26,384.34c0,2.92-25.78,5.28-57.58,5.28s-57.58-2.36-57.58-5.28,25.78-5.27,57.58-5.27S363.26,381.43,363.26,384.34Z"/><path class="cls-6" d="M220.36,374.51c0,1.45-12.84,2.63-28.67,2.63S163,376,163,374.51s12.84-2.63,28.68-2.63S220.36,373.06,220.36,374.51Z"/><polygon class="cls-7" points="199.34 372.6 192.71 374.76 182.67 374.76 171.16 165.97 179.51 151.81 188.25 159.01 199.34 372.6"/><polygon class="cls-7" points="316.15 381.98 301.44 384.04 295.3 86.84 313.88 76.83 327.65 88.1 316.15 381.98"/><polygon class="cls-8" points="171.16 174.56 315.65 94 318.62 101.11 318.62 146.13 309.73 145.53 171.16 205.3 171.16 174.56"/><polygon class="cls-9" points="315.65 94 327.65 108.81 327.65 152.64 309.73 145.53 315.65 94"/><polyline class="cls-1" points="312.43 77.6 312.43 94 294.67 104.36 295.3 86.84 313.88 76.83"/><polygon class="cls-1" points="309.73 149.62 301.44 384.04 283.02 382.31 295.25 154.6 309.73 149.62"/><polygon class="cls-9" points="241.98 172.81 230.38 177.95 231.21 143.13 241.98 137.64 241.98 172.81"/><polygon class="cls-9" points="225.91 178.42 215.45 183.05 216.21 151.68 225.91 146.74 225.91 178.42"/><polygon class="cls-9" points="212.2 182.97 202.85 187.11 203.52 159.04 212.2 154.63 212.2 182.97"/><polygon class="cls-9" points="198.2 191.19 188.84 195.33 189.52 167.26 198.2 162.84 198.2 191.19"/><polygon class="cls-9" points="183.55 196.37 175.48 199.94 176.06 175.72 183.55 171.9 183.55 196.37"/><polygon class="cls-9" points="261.89 163.89 249.68 169.3 250.56 132.65 261.89 126.88 261.89 163.89"/><polygon class="cls-9" points="282.25 156.12 268.54 162.19 269.53 121.04 282.25 114.56 282.25 156.12"/><polygon class="cls-9" points="302.45 146.96 288.31 153.22 294.86 107.97 307.98 101.3 302.45 146.96"/><path class="cls-6" d="M385.67,371.88c0,.87-11.81,1.57-26.37,1.57s-26.36-.7-26.36-1.57,11.8-1.57,26.36-1.57S385.67,371,385.67,371.88Z"/><path class="cls-6" d="M457.93,377.18c0,1.06-14.44,1.92-32.25,1.92s-32.26-.86-32.26-1.92,14.44-1.92,32.26-1.92S457.93,376.12,457.93,377.18Z"/><path class="cls-6" d="M452.49,368.71c0,.57-7.74,1-17.28,1s-17.27-.46-17.27-1,7.73-1,17.27-1S452.49,368.14,452.49,368.71Z"/><path class="cls-6" d="M496.07,369.87c0,.37-5,.67-11.13.67s-11.14-.3-11.14-.67,5-.66,11.14-.66S496.07,369.51,496.07,369.87Z"/><polygon class="cls-1" points="182.67 374.76 191.69 374.76 179.51 202.96 173.36 205.85 182.67 374.76"/><polygon class="cls-1" points="171.16 164.8 179.51 151.78 179.51 169.3 171.16 174.56 171.16 164.8"/><polygon class="cls-9" points="171.16 205.3 173.44 206.07 173.28 204.38 171.16 205.3"/><path class="cls-5" d="M115.61,97.42,147,82.7h15l31.62,3L211.09,90,223.9,79.29s8.67,9.65,8.67,10.71,6.76,13.54,8.35,13.26,14.49,1.1,14.49,1.1h9.38L249.31,91.83l.26-17.48L235.5,65.53l-13.67,2-4.78,11.71-4.77,6.4-6.56-.75-4.67-5.65-8.19-3.35-2.66-4.78-7.84-10.74h-13.5S155.79,66,155.79,67.19s4,7.16,4,7.16l6,4.94H157l-7.56-3.75L142.26,70s-6-7.3-8.35-4.44-2.85,9.21-2.85,9.21l6,4.55-10,6.4h-7.55l-4,4.31-2.72,7Z"/><path class="cls-5" d="M242,32.57l-10,7.75,12.92,10.12,7,10,10-5.26s1.09-12.48-3-12.48,3.1-8.84,3.1-8.84Z"/><path class="cls-5" d="M150.38,40l2.36,8.42h10.12s-2.7-3.7-3.71-4.21S156.62,40,156.62,40Z"/><path class="cls-6" d="M481.4,339.47c0,.56-10.51,1-23.47,1s-23.48-.45-23.48-1,10.51-1,23.48-1S481.4,338.92,481.4,339.47Z"/><polygon class="cls-10" points="174.85 239.84 184.25 374.69 182.67 374.76 174.85 239.84"/><polygon class="cls-10" points="283.02 382.31 285.99 382.59 290.96 237.16 283.02 382.31"/></g></svg>