<svg xmlns="http://www.w3.org/2000/svg" viewBox="0 0 1039.79 461.03"><defs><style>.cls-1{fill:#69bec4;}.cls-2{fill:#f7931e;}.cls-3{fill:#fff8dc;}.cls-4{fill:#f6f6f6;}.cls-5{fill:#d45c28;}.cls-6{fill:#dd992e;}.cls-7{fill:#e56a6a;}.cls-8{fill:#c24a4a;}.cls-9{fill:#ffeeb8;}.cls-10{fill:#fff;}</style></defs><title>challenge_background_02</title><g id="Ebene_8" data-name="Ebene 8"><path class="cls-1" d="M999.36,459.14c61.18.95,34.75-16.43,34.75-16.43s-30.24-45.25-74.54-70.89S850,343.9,798.69,353.72,739.09,383.43,642,383.06s-168.15-60.37-237.92-98.48S230.12,277.14,165.21,295s-65.32,85-92.88,125c-29.08,42.29-95.52,42.25-29.08,42.29S938.18,458.19,999.36,459.14Z"/><path class="cls-1" d="M597.66,367c-.12-2.59,23.45-.75,52.38-1.64s52.25-4.19,52.38-1.6-23,10.08-51.95,11S597.78,369.63,597.66,367Z"/><path class="cls-1" d="M120.39,306.06c2.91,1.12-9.46,17.26-21.16,38.53S85.8,379.33,82.9,378.21s-5.9-16.39,5.81-37.67S117.49,304.94,120.39,306.06Z"/><path class="cls-1" d="M961.8,356.9c-.78,2.52-22.74-4.71-50.78-10.55s-51.56-8.1-50.77-10.61,25.58-4.33,53.63,1.51S962.59,354.39,961.8,356.9Z"/><path class="cls-2" d="M324.72,121l-77.31-14.57-81.35,69.87L182.16,219l5.73,11.17-74.71,24.55L143.26,271l98.8-38.12,6-19.55-39.65,10.51.62-12s4.48-2.92,4.69-4c2.73-14.48,17.69-128.42,129.61-66C346.9,137.5,324.72,121,324.72,121Z"/><path class="cls-3" d="M652.11,423.36c-164.47-5-222.73-132.06-237.41-168.68-19.24-48-48.49-106.1-88.82-136.33C258.72,68,144.36,92.3,103.59,173.07l-27-10.5,36.58,92.15,134.88-41.35L196.63,202C236.5,70.59,324,121.63,346.24,144.73c17,17.69,48,80.8,70,128.49C431,305.05,481.28,427.34,652.11,423.36Z"/><path class="cls-4" d="M354.71,139,373,144.55l6.15,5.53L391,163l5.56,8.18,9.19.34s0,7.15-.39,7.58-2.21,8-1.46,8.52,5.54,5.79,5.54,5.79l3.84,3.45L411.56,186l6.54-7.07-2.52-8.8-6.36-4.2L403,169l-4.31.87-2.41-2.72.16-4-2.12-4.4.67-2.93.75-7.3-5.54-5s-7.41-2.53-7.85-2-1,4.4-1,4.4l.66,4.26-3.62-3.26-1.72-4.32-.88-4.93s.24-5.19-1.79-4.9-4.56,2.74-4.56,2.74l.79,4.08-6.43-1-3.1-2.78-3.21.29-3.7,1.88Z"/><path class="cls-5" d="M501.37,456.87c0,3.67-32.52,6.65-72.63,6.65s-72.63-3-72.63-6.65,32.52-6.66,72.63-6.66S501.37,453.19,501.37,456.87Z"/><path class="cls-5" d="M321.13,444.29c0,1.83-16.2,3.31-36.18,3.31s-36.17-1.48-36.17-3.31S265,441,285,441,321.13,442.46,321.13,444.29Z"/><polygon class="cls-6" points="294.6 441.88 286.24 444.6 273.58 444.6 259.06 181.23 269.6 163.38 280.62 172.45 294.6 441.88"/><polygon class="cls-6" points="441.95 453.7 423.39 456.3 415.65 81.42 439.08 68.78 456.46 83.01 441.95 453.7"/><polygon class="cls-7" points="259.06 192.06 441.32 90.45 445.06 99.42 445.06 156.2 433.85 155.45 259.06 230.84 259.06 192.06"/><polygon class="cls-8" points="441.32 90.45 456.46 109.13 456.46 164.42 433.85 155.45 441.32 90.45"/><polyline class="cls-9" points="437.26 69.77 437.26 90.45 414.86 103.52 415.65 81.42 439.08 68.78"/><polygon class="cls-9" points="433.85 160.6 423.39 456.3 400.16 454.13 415.58 166.89 433.85 160.6"/><polygon class="cls-8" points="348.4 189.87 333.75 196.35 334.81 152.42 348.4 145.5 348.4 189.87"/><polygon class="cls-8" points="328.12 196.94 314.93 202.78 315.88 163.2 328.12 156.97 328.12 196.94"/><polygon class="cls-8" points="310.83 202.68 299.03 207.9 299.88 172.5 310.83 166.92 310.83 202.68"/><polygon class="cls-8" points="293.16 213.04 281.36 218.26 282.21 182.86 293.16 177.29 293.16 213.04"/><polygon class="cls-8" points="274.69 219.57 264.5 224.08 265.24 193.53 274.69 188.72 274.69 219.57"/><polygon class="cls-8" points="373.51 178.61 358.1 185.43 359.21 139.2 373.51 131.92 373.51 178.61"/><polygon class="cls-8" points="399.19 168.81 381.89 176.47 383.14 124.56 399.19 116.39 399.19 168.81"/><polygon class="cls-8" points="424.67 157.26 406.83 165.16 415.1 108.08 431.65 99.65 424.67 157.26"/><path class="cls-5" d="M529.64,441c0,1.1-14.89,2-33.26,2s-33.25-.89-33.25-2,14.89-2,33.25-2S529.64,439.88,529.64,441Z"/><path class="cls-5" d="M620.79,447.66c0,1.33-18.22,2.42-40.68,2.42s-40.69-1.09-40.69-2.42,18.22-2.43,40.69-2.43S620.79,446.32,620.79,447.66Z"/><path class="cls-5" d="M613.93,437c0,.72-9.76,1.3-21.79,1.3s-21.79-.58-21.79-1.3,9.76-1.3,21.79-1.3S613.93,436.25,613.93,437Z"/><path class="cls-5" d="M668.91,438.44c0,.46-6.29.83-14,.83s-14-.37-14-.83,6.29-.84,14-.84S668.91,438,668.91,438.44Z"/><polygon class="cls-9" points="273.58 444.6 284.95 444.6 269.6 227.89 261.83 231.54 273.58 444.6"/><polygon class="cls-9" points="259.06 179.76 269.6 163.34 269.6 185.43 259.06 192.06 259.06 179.76"/><polygon class="cls-8" points="259.06 230.84 261.94 231.82 261.73 229.69 259.06 230.84"/><path class="cls-1" d="M189,94.76,228.63,76.2h18.93L287.43,80l22,5.43,16.16-13.5s10.94,12.16,10.94,13.5,8.53,17.08,10.54,16.73,18.28,1.39,18.28,1.39h11.83L357.63,87.71l.33-22L340.22,54.53,323,57.13,317,71.9l-6,8.07L302.66,79l-5.9-7.13-10.33-4.24-3.35-6-9.89-13.55h-17s-16.48,7-16.48,8.53,5,9,5,9l7.63,6.24H241.17l-9.53-4.74-9-7s-7.53-9.21-10.54-5.61-3.59,11.63-3.59,11.63l7.6,5.74L203.54,80H194l-5,5.43-3.42,8.86Z"/><path class="cls-1" d="M348.4,13l-12.64,9.78,16.3,12.76,8.79,12.59,12.66-6.64s1.37-15.73-3.73-15.73,3.9-11.16,3.9-11.16Z"/><path class="cls-1" d="M232.85,22.31l3,10.64h12.76s-3.41-4.68-4.68-5.32-3.19-5.32-3.19-5.32Z"/><path class="cls-5" d="M650.4,400.09c0,.7-13.26,1.27-29.61,1.27s-29.61-.57-29.61-1.27,13.25-1.27,29.61-1.27S650.4,399.39,650.4,400.09Z"/><polygon class="cls-10" points="263.72 274.41 275.57 444.51 273.58 444.6 263.72 274.41"/><polygon class="cls-10" points="400.16 454.13 403.9 454.48 410.18 271.04 400.16 454.13"/></g></svg>