<svg xmlns="http://www.w3.org/2000/svg" viewBox="0 0 178.49 167.77">
	<defs>
		<style>
			.cls-1 {
				fill: #dd992e;
			}
			.cls-2 {
				fill: #f0d3a5;
				stroke: #dd992e;
				stroke-miterlimit: 10;
				stroke-width: 11px;
			}
			.cls-4 {
				fill: #c24a4a;
			}
		</style>
	</defs>
	<title>checkbox_2</title>
	<g id="asdsa">
		<path class="cls-1" d="M139.55,145.26c0,2.07-25.22,3.75-56.34,3.75s-56.33-1.68-56.33-3.75,25.22-3.75,56.33-3.75S139.55,143.19,139.55,145.26Z"/>
		<rect class="cls-2" x="30.76" y="30.98" width="99.32" height="99.32" rx="7.56" ry="7.56"/>
		<path class="cls-4" d="M153.31,45a6.71,6.71,0,0,1-2,4.94l-52.61,52.6-9.88,9.88a7,7,0,0,1-9.88,0L69,102.56l-26.3-26.3a7,7,0,0,1,0-9.88l9.88-9.88a7,7,0,0,1,9.88,0L83.85,77.93,131.52,30.2a7,7,0,0,1,9.88,0l9.88,9.88A6.69,6.69,0,0,1,153.31,45Z"/>
	</g>  
</svg>
