<svg xmlns="http://www.w3.org/2000/svg" viewBox="0 0 80 80"><defs><style>.cls-1{fill:#FFF;}.cls-1,.cls-2{fill-rule:evenodd;}.cls-2{fill:#FFFFFFAA;}</style></defs><title>icon_sektion_02</title><g id="Ebene_8" data-name="Ebene 8"><path class="cls-1" d="M65.38,57.21a2.92,2.92,0,0,1-4.09-.46c-1.8-1.77-3.68-3.47-5.52-5.19l-3,1.19c.27,1.79.53,3.52.83,5.46,1.09,1,2.24,2.18,3.44,3.26A2.52,2.52,0,0,1,57.49,65c-4.52,1-9.77-1.19-11.53-5.19A17.92,17.92,0,0,1,45,54.57a9.79,9.79,0,0,0-3-6.25c-5.1-5-10.15-10.1-15.19-15.18A7.13,7.13,0,0,0,21.53,31a12.09,12.09,0,0,1-9.59-5c-1.92-2.55-1.59-5.12-1.46-7.89,4.32-1.06,5.49,3.14,8.33,4.55h3.92V18.52c-1.27-1.38-2.55-2.86-3.93-4.26-1.12-1.13-1.5-2.28-.53-3.77,3.27-.54,6.39-.43,8.65,2.61a51.27,51.27,0,0,1,3.45,4.75A5.64,5.64,0,0,1,31,21a7.19,7.19,0,0,0,2.29,5.75Q41,34.67,48.92,42.41a7.49,7.49,0,0,0,5.44,2.26c5-.05,8.47,2.74,10.52,7C65.64,53.29,65.25,55.41,65.38,57.21Z"/><path class="cls-1" d="M40.68,31.27,52.84,19.84c.2-1.21.38-2.34.6-3.71l7.88-5.94c1.33,1.46,2.6,2.84,4,4.34-1.67,2.86-3.21,5.68-5,8.37-.34.52-1.52.71-2.31.7a4.27,4.27,0,0,0-3.28,1.5c-3.41,3.34-6.93,6.56-10.57,10Z"/><path class="cls-1" d="M33.33,48.15c.56-.65,1.11-1.31,1.7-2l-5.21-5.85a3.62,3.62,0,0,0-.63.33L27.94,41.8Z"/><path class="cls-2" d="M26.1,43.5q-7.47,6.9-14.92,13.8c-.32.31-.73.74-.74,1.12-.08,2,0,4.09,0,6.25,2.07.2,5.72.5,5.72.5a6.57,6.57,0,0,0,2.22-1c4.46-4.67,8.86-9.4,13.27-14.13Z"/></g></svg>
