<svg xmlns="http://www.w3.org/2000/svg" viewBox="0 0 80 80"><defs><style>.cls-1{fill:#fff;}.cls-1,.cls-2{fill-rule:evenodd;}.cls-2{fill:#468f99;}</style></defs><title>icon_sektion_01</title><g id="Ebene_8" data-name="Ebene 8"><path class="cls-1" d="M8.3,21.68l46-4.07c.89,10,1.76,19.85,2.65,29.93L19.2,50.9,12.88,67.64l-.29-.06V51.76l-1.68-.49C10.05,41.5,9.19,31.71,8.3,21.68Z"/><path class="cls-2" d="M22.17,62.16c-.57-2.85-1.12-5.58-1.74-8.64L59.82,50c-.73-8.48-1.44-16.78-2.18-25.33l3.73-.85c.21.77.4,1.35.53,1.94,1.71,8.49,3.36,17,5.16,25.45a13.56,13.56,0,0,0,2,4.3,64.32,64.32,0,0,1,3.56,5.42c-.52-.14-1.06-.24-1.57-.41-4.32-1.45-8.62-3-13-4.33a8.32,8.32,0,0,0-3.87-.24c-10.25,2-20.49,4-30.74,6.1C23.15,62.08,22.86,62.09,22.17,62.16Z"/></g></svg>
