<svg xmlns="http://www.w3.org/2000/svg" viewBox="0 0 80 80"><defs><style>.cls-1{fill:#FFFFFF;}.cls-1,.cls-2{fill-rule:evenodd;}.cls-2{fill:#FFFFFFAA;}</style></defs><title>icon_sektion_03</title><g id="Ebene_8" data-name="Ebene 8"><path class="cls-1" d="M32.17,56.62c-4.24,1.49-8.42,3-12.62,4.4a5.51,5.51,0,0,1-2.13-.18l-3.69-12A34.59,34.59,0,0,0,17,46.73a3.35,3.35,0,0,0,1.24-1.84c.66-4.74,1.1-9.51,1.84-14.24a40,40,0,0,1,1.79-5.94c.92-2.79,1.87-5.57,2.78-8.27,2.68-1.44,5-.19,7.25.68,1,.4,1.34,1.58.93,2.84-1.09,3.34-2.23,6.69-3.06,10.1-.77,3.16-1.16,6.42-1.72,9.63l.57.16c.25-.75.52-1.49.74-2.25a2.36,2.36,0,0,1,3.08-1.92c4,.92,5.26.55,3.75,5.71-1.29,4.42-2.32,8.92-3.48,13.39C32.58,55.38,32.37,56,32.17,56.62Z"/><path class="cls-1" d="M57.72,46,62,49.12c-1.64,4.11-3.23,8.09-4.88,12.24L43.49,56.54c-1.11-4.58-2.22-9.1-3.32-13.63-.32-1.34-.68-2.68-1-4s.15-2.15,1.56-2.36c1.14-.17,2.26-.44,3.4-.56A2,2,0,0,1,46.6,37.8c.1.65.29,1.29.44,1.94l.49-.06A55.57,55.57,0,0,0,46.91,34c-1-4.68-2.06-9.34-3.17-14-.71-3-.28-3.73,2.81-4.37.67-.14,1.35-.31,2-.41a3.31,3.31,0,0,1,3.56,2.28c1.14,3.87,2.47,7.7,3.32,11.64.78,3.59,1,7.3,1.51,11C57.23,42.14,57.48,44.14,57.72,46Z"/><path class="cls-2" d="M11.65,51.35c-1.69.45-3.17.88-5,1.33v10C9.1,62,12,61.27,14.7,60.53Z"/><path class="cls-2" d="M60.24,60.7l9.65,3.23c-.3-3.86-.55-7.21-.81-10.61l-5.27-1.43Z"/></g></svg>
