<svg xmlns="http://www.w3.org/2000/svg" viewBox="0 0 80 80"><defs><style>.cls-1{fill:#f47f5b;fill-rule:evenodd;}</style></defs><title>icon_sektion_04</title><g id="Ebene_8" data-name="Ebene 8"><path class="cls-1" d="M42.53,24.16l3.75,5.31c3.89-2.9,8.13-4.33,13-3.29a14.7,14.7,0,0,1,7.64,4.16,14.94,14.94,0,0,1,2.65,17.29,14.91,14.91,0,0,1-25.06,2.48A15.51,15.51,0,0,1,41.23,39.3H35.65c.09,6.51-2.31,11.7-8.25,14.82A14.12,14.12,0,0,1,15.67,55,14.93,14.93,0,0,1,6.79,35.07a14.57,14.57,0,0,1,10.27-8.79c4.78-1.22,9.13,0,13.14,3,1.18-1.43,2.24-2.79,3.41-4.05a2.91,2.91,0,0,1,1.67-1C37.64,24.09,40,24.16,42.53,24.16Zm23.13,16.7a9.56,9.56,0,0,0-9.35-9.62,9.59,9.59,0,1,0-.05,19.17A9.49,9.49,0,0,0,65.66,40.86ZM30.16,41a9.76,9.76,0,0,0-9.49-9.74,9.59,9.59,0,0,0-.11,19.17A9.71,9.71,0,0,0,30.16,41ZM41,29.92a2.41,2.41,0,0,0-2.46-2.55,2.53,2.53,0,1,0,0,5.06A2.35,2.35,0,0,0,41,29.92Zm-5.51,7.15h6.11A3.87,3.87,0,0,0,35.51,37.07Z"/></g></svg>