<?xml version="1.0" encoding="utf-8"?>
<!-- Generator: Adobe Illustrator 22.1.0, SVG Export Plug-In . SVG Version: 6.00 Build 0)  -->
<svg version="1.1" id="Ebene_1" xmlns="http://www.w3.org/2000/svg" xmlns:xlink="http://www.w3.org/1999/xlink" x="0px" y="0px"
	 viewBox="0 0 327.9 365.3" style="enable-background:new 0 0 327.9 365.3;" xml:space="preserve">
<style type="text/css">
	.st0{fill:#54BEC3;}
	.st1{fill:#FFF9DE;}
	.st2{fill:#F4CA97;}
</style>
<g>
	<g>
		<path class="st0" d="M132.6,294.9h12.5v4h-8v9.4h7.6v4h-7.6v15h-4.5L132.6,294.9L132.6,294.9z"/>
		<path class="st0" d="M153.2,294.9v32.6h-4.5v-32.6H153.2z"/>
		<path class="st0" d="M163,312.7v14.8h-4.5v-32.6h6.6c5.1,0,7.9,2,7.9,7.7v1.3c0,4.8-1.9,6.3-3.4,6.8c2,0.8,3.1,2.3,3.1,6.7
			c0,2.8,0,8,0.3,10h-4.4c-0.4-2-0.4-7.4-0.4-9.7c0-4.1-0.6-5.1-3.7-5.1L163,312.7L163,312.7z M163,309h1.6c2.9,0,3.9-1.3,3.9-4.9
			v-1.3c0-2.7-0.7-4.4-3.8-4.4h-1.7L163,309L163,309z"/>
		<path class="st0" d="M180.3,318.1v2c0,2.7,0.9,4.2,3,4.2c2.2,0,2.9-1.8,2.9-4.5c0-3.6-0.8-4.9-4.4-7.6c-3.6-2.8-5.5-4.5-5.5-9.3
			c0-4.2,1.3-8.4,7.1-8.4c5.7,0,6.8,3.9,6.8,7.6v1.6h-4.5v-1.5c0-2.5-0.5-4-2.4-4c-2,0-2.5,1.6-2.5,4c0,2.6,0.5,3.7,3.5,5.9
			c4.9,3.5,6.4,5.5,6.4,11c0,4.6-1.5,8.9-7.6,8.9c-5.9,0-7.4-3.7-7.4-8v-1.9L180.3,318.1L180.3,318.1z"/>
		<path class="st0" d="M197.8,299h-5.4v-4h15.4v4h-5.4v28.5h-4.5L197.8,299L197.8,299z"/>
		<path class="st0" d="M220.8,318.1v2c0,2.7,0.9,4.2,3,4.2c2.2,0,2.9-1.8,2.9-4.5c0-3.6-0.8-4.9-4.4-7.6c-3.6-2.8-5.5-4.5-5.5-9.3
			c0-4.2,1.3-8.4,7.1-8.4c5.7,0,6.8,3.9,6.8,7.6v1.6h-4.5v-1.5c0-2.5-0.5-4-2.4-4c-2,0-2.5,1.6-2.5,4c0,2.6,0.5,3.7,3.5,5.9
			c4.9,3.5,6.4,5.5,6.4,11c0,4.6-1.5,8.9-7.6,8.9c-5.9,0-7.4-3.7-7.4-8v-1.9L220.8,318.1L220.8,318.1z"/>
		<path class="st0" d="M238.4,299h-5.4v-4h15.4v4h-5.4v28.5h-4.5L238.4,299L238.4,299z"/>
		<path class="st0" d="M263.2,312.2h-7.5v11.2h8.6l-0.6,4h-12.5v-32.6h12.4v4h-7.9v9.2h7.5L263.2,312.2L263.2,312.2z"/>
		<path class="st0" d="M267.7,294.9h6.9c5.2,0,7.8,2.5,7.8,8.1v2c0,5.2-1.8,8.8-8.1,8.8h-2.1v13.8h-4.5L267.7,294.9L267.7,294.9z
			 M272.2,310.1h1.7c3.5,0,4-2,4-5.3v-1.7c0-2.5-0.5-4.6-3.6-4.6h-2.1L272.2,310.1L272.2,310.1z"/>
		<path class="st0" d="M289.2,318.1v2c0,2.7,0.9,4.2,3,4.2c2.2,0,2.9-1.8,2.9-4.5c0-3.6-0.8-4.9-4.4-7.6c-3.6-2.8-5.5-4.5-5.5-9.3
			c0-4.2,1.3-8.4,7.1-8.4c5.7,0,6.8,3.9,6.8,7.6v1.6h-4.5v-1.5c0-2.5-0.5-4-2.4-4c-2,0-2.5,1.6-2.5,4c0,2.6,0.5,3.7,3.5,5.9
			c4.9,3.5,6.4,5.5,6.4,11c0,4.6-1.5,8.9-7.6,8.9c-5.9,0-7.4-3.7-7.4-8v-1.9L289.2,318.1L289.2,318.1z"/>
	</g>
</g>
<g>
	<path class="st0" d="M215.1,70.1H67.6c-4.8,0-8.6,3.9-8.6,8.6V243c0,4.8,3.9,8.6,8.6,8.6h102.8c8.6,28.8,37.1,24.6,36,23.6
		c-8.8-7.8-8.8-17.2-6.9-23.6h15.5c4.8,0,8.6-3.9,8.6-8.6V78.7C223.7,73.9,219.9,70.1,215.1,70.1z"/>
	<path class="st1" d="M193.3,236.8L68.9,251.7c-5.4,0.4-10-2.9-10-7.2V77.4c0-3.7,3.5-6.8,8.2-7.2l124.4-14.8c5.4-0.4,10,2.9,10,7.2
		v167.1C201.5,233.3,198,236.5,193.3,236.8z"/>
	<path class="st2" d="M168.4,226.9l-98.9,24.7c-5.5,0.9-10.6-2.5-10.6-7.1v-167c0-3.4,3-6.4,7.3-7.1l98.9-24.7
		c5.5-0.9,10.6,2.6,10.6,7.1v167C175.7,223.3,172.6,226.2,168.4,226.9z"/>
	<path class="st0" d="M138.1,216.4l-69.2,35c-5.5,1.5-11.1-2-11.1-6.9V78c0-3.1,2.4-5.9,5.9-6.9l69.2-35c5.5-1.5,11.1,2,11.1,6.9
		v166.5C144,212.6,141.6,215.4,138.1,216.4z"/>
</g>
</svg>
