<svg xmlns="http://www.w3.org/2000/svg" viewBox="0 0 801.9 464.56"><defs><style>.cls-1{fill:#ffeeb8;}.cls-10,.cls-2{fill:none;stroke-miterlimit:10;}.cls-2{stroke:#468f99;stroke-width:26.73px;}.cls-3{fill:#f4ca98;}.cls-4{fill:#f7931e;}.cls-5{fill:#e56a6a;}.cls-6{fill:#754c24;}.cls-7{fill:#fb006d;}.cls-8{fill:#d45c28;}.cls-9{fill:#c24a4a;}.cls-10{stroke:#f7931e;stroke-width:6.68px;}</style></defs><title>läufer_background</title><g id="asdsa"><path class="cls-1" d="M439.59,332.79c-.09-2.52,18.59-.73,41.52-1.6s41.43-4.08,41.53-1.56-18.25,9.82-41.18,10.69S439.69,335.31,439.59,332.79Z"/><path class="cls-1" d="M98.85,243.48c1.34,2.14-15.76,9.89-35.22,22s-33.91,24.15-35.25,22,11-17.59,30.41-29.76S97.52,241.34,98.85,243.48Z"/><path class="cls-1" d="M728.27,323.16c-.62,2.44-18-4.59-40.26-10.28s-40.87-7.88-40.25-10.32,20.29-4.22,42.52,1.47S728.9,320.71,728.27,323.16Z"/><path class="cls-1" d="M642.09,419.22c48.5.92,69.26-16,69.26-16s50.27-44.05,15.15-69S639.63,307,599,316.6s-47.34,24.75-124.23,28.56c-262.23,13-283.7-131.53-378-85.76-51.47,17.34-71.9,80.52-52.89,121.69s69.83,41.13,122.5,41.17S593.59,418.29,642.09,419.22Z"/></g><g id="Ebene_8" data-name="Ebene 8"><polyline class="cls-2" points="102.66 192.4 148.62 265.86 106.77 284.93"/><rect class="cls-3" x="36.64" y="53.44" width="89.55" height="124.29" transform="translate(-9.81 7.58) rotate(-5.03)"/><polygon class="cls-3" points="129.52 198.58 140.69 188.67 118.22 146.28 107.04 156.19 129.52 198.58"/><polygon class="cls-3" points="105.76 207.52 192.63 207.52 192.63 187.92 165.42 183.18 131.62 177.28 100.06 194.41 105.76 207.52"/><polygon class="cls-4" points="105.97 172.12 128.06 175.72 139 199.62 165.42 183.18 154.39 179.19 128.42 161.84 102.03 166.09 105.97 172.12"/><polygon class="cls-5" points="156.26 179.87 162.23 182.02 155.67 187.73 126.39 192.67 116.65 189.48 121.22 182.93 93.84 192.85 114.39 225.56 207.34 225.56 207.34 189.48 166.7 178.85 156.26 179.87"/><polygon class="cls-4" points="42.26 181.41 85.44 177.62 131.45 173.57 120.57 49.75 71.76 54.05 34.52 93.39 35.35 102.84 50.79 102.84 90.73 99.06 106.22 165.75 41.72 175.32 42.26 181.41"/><polygon class="cls-6" points="28 94.65 50.01 92.72 56.09 78.66 67.05 91.22 135.84 85.17 131.54 36.27 119.21 24.24 110.79 24.98 50.03 30.33 22.55 32.75 28 94.65"/><polygon class="cls-6" points="111.41 149.18 132.65 147.3 136.38 84.59 105.96 87.27 111.41 149.18"/><polygon class="cls-4" points="55.57 104.88 73.59 105.09 73.65 99.74 55.62 99.53 55.57 104.88"/><polygon class="cls-6" points="55.93 102.18 72.7 101.28 72.42 95.95 55.66 96.85 55.93 102.18"/><polygon class="cls-4" points="35.87 108.77 49.24 105.83 48.31 100.57 35.35 102.84 35.87 108.77"/><polygon class="cls-6" points="29.57 107.8 45.86 103.78 43.8 95.39 27.52 99.41 29.57 107.8"/><path class="cls-4" d="M51.18,134.29c.88,3,2.94,5.11,4.61,4.63s2.3-3.33,1.43-6.37-2.94-5.11-4.6-4.63S50.31,131.25,51.18,134.29Z"/><path class="cls-6" d="M58.43,117.55c1.91,3.19,5.46,4.07,7.93,2s2.9-6.39,1-9.57-5.46-4.08-7.92-2S56.51,114.36,58.43,117.55Z"/><path class="cls-6" d="M41.23,119.49c1.42,3.87,3.5,5.64,4.65,4s.92-6.21-.5-10.08-3.5-5.64-4.65-4S39.81,115.62,41.23,119.49Z"/><polygon class="cls-7" points="207.34 225.56 187.98 231.58 162.56 228.57 207.34 189.48 207.34 225.56"/><polyline class="cls-2" points="189.63 285.31 212.5 358.16 269.39 312.16"/><polyline class="cls-2" points="150.92 261.19 132.31 337.44 152.76 420.88"/><polygon class="cls-5" points="202.86 293.33 135.89 299.34 93.84 192.85 198.82 192.26 202.19 192.24 202.86 293.33"/><ellipse class="cls-8" cx="205.04" cy="424.94" rx="83.31" ry="8.39"/><path class="cls-8" d="M279.25,418.29c0,1.44,11.64,2.61,26,2.61s26-1.17,26-2.61-11.64-2.62-26-2.62S279.25,416.84,279.25,418.29Z"/><path class="cls-8" d="M342.91,424c.06.92,7.48,1.18,16.57.58s16.41-1.82,16.35-2.74-7.47-1.17-16.57-.57S342.85,423.13,342.91,424Z"/><path class="cls-8" d="M369.64,414.69c.06.91,7.48,1.17,16.57.58s16.41-1.82,16.35-2.74-7.47-1.18-16.57-.58S369.58,413.77,369.64,414.69Z"/><path class="cls-8" d="M407.33,417.59c0,.57,4.63.75,10.27.39s10.18-1.12,10.15-1.69-4.63-.75-10.27-.39S407.3,417,407.33,417.59Z"/><path class="cls-8" d="M429.37,412.1c0,.58,4.62.81,10.26.53s10.2-1,10.18-1.55-4.62-.81-10.26-.53S429.35,411.53,429.37,412.1Z"/><path class="cls-9" d="M294,311.7c13,11.54,20.86,23.93,17.54,27.67S295,336.79,282,325.24s-20.86-23.94-17.54-27.68S281,300.15,294,311.7Z"/><path class="cls-9" d="M126.26,426c-26.15-.23-47.25-2.53-47.12-5.14s21.44-4.53,47.59-4.3,47.25,2.53,47.12,5.13S152.42,426.24,126.26,426Z"/><polyline class="cls-2" points="198.82 203.51 279.43 221.56 229.51 265.42"/><path class="cls-4" d="M85,287.74A15.83,15.83,0,1,0,100.8,272.1,15.73,15.73,0,0,0,85,287.74Z"/><polygon class="cls-9" points="191.03 213.63 169.39 241.23 184.67 292.66 207.34 289.81 207.34 219.08 191.03 213.63"/><path class="cls-4" d="M196.12,264.3a22.39,22.39,0,1,0,22.39-22.12A22.26,22.26,0,0,0,196.12,264.3Z"/><path class="cls-10" d="M43.25,150.73S43.8,162,54.5,162s28-15.82,30.82-26.62"/><polygon class="cls-4" points="145.67 129.84 124.54 122.33 124.53 106.42 145.67 101.32 145.67 129.84"/></g></svg>