<svg xmlns="http://www.w3.org/2000/svg" viewBox="0 0 801.9 571.56"><defs><style>.cls-1{fill:#ffeeb8;}.cls-2{fill:#dd992e;}.cls-13,.cls-18,.cls-3,.cls-4{fill:none;stroke-miterlimit:10;}.cls-3{stroke:#c24a4a;}.cls-3,.cls-4{stroke-linecap:round;stroke-width:15.48px;}.cls-4{stroke:#dd992e;}.cls-5{fill:#b2b2b2;}.cls-6{fill:#9d9d9c;}.cls-7{fill:#d45c28;}.cls-8{fill:#dadada;}.cls-9{fill:#468f99;}.cls-10{fill:#3c3c3b;}.cls-11{fill:#f4ca98;}.cls-12{fill:#da7346;}.cls-13,.cls-18{stroke:#f4ca98;}.cls-13{stroke-width:19.63px;}.cls-14{fill:#f7931e;}.cls-15{fill:#e56a6a;}.cls-16{fill:#7d4e24;}.cls-17{fill:#c24a4a;}.cls-18{stroke-width:17.85px;}.cls-19{fill:#c6c6c6;}</style></defs><title>praying_dudes</title><g id="asdsa"><path class="cls-1" d="M439.59,360.36c-.09-5.4,18.59-1.56,41.52-3.43s41.43-8.74,41.53-3.34-18.25,21.05-41.18,22.92S439.69,365.77,439.59,360.36Z"/><path class="cls-1" d="M98.85,168.9c1.34,4.59-15.76,21.19-35.22,47.27S29.72,268,28.38,263.36s11-37.72,30.41-63.8S97.52,164.31,98.85,168.9Z"/><path class="cls-1" d="M728.27,339.71c-.62,5.25-18-9.83-40.26-22s-40.87-16.89-40.25-22.13,20.29-9.05,42.52,3.15S728.9,334.47,728.27,339.71Z"/><path class="cls-1" d="M642.09,545.65c48.5,2,69.26-34.28,69.26-34.28s50.27-94.44,15.15-147.95S639.63,305.17,599,325.66s-47.25,61.88-124.23,61.23C335.47,385.73,338.3,229.61,286.11,181.36S148.22,165.85,96.76,203,24.86,375.64,43.87,463.9s69.83,88.18,122.5,88.26S593.59,543.66,642.09,545.65Z"/><circle class="cls-2" cx="374.2" cy="261.27" r="5.48"/><circle class="cls-2" cx="389.83" cy="242.05" r="5.48"/><circle class="cls-2" cx="429.64" cy="224.59" r="5.48"/><circle class="cls-2" cx="418.78" cy="196.98" r="5.48"/><circle class="cls-2" cx="426.76" cy="174.03" r="5.48"/><circle class="cls-2" cx="443.21" cy="242.05" r="5.48"/><circle class="cls-2" cx="463.96" cy="261.27" r="5.48"/><circle class="cls-2" cx="409.04" cy="219.11" r="5.48"/></g><g id="Ebene_8" data-name="Ebene 8"><path class="cls-2" d="M689.18,539.18c0,5.05-61.4,9.13-137.15,9.13s-137.14-4.08-137.14-9.12,61.4-9.13,137.14-9.13S689.18,534.14,689.18,539.18Z"/><path class="cls-2" d="M439.47,139.58a10.82,10.82,0,1,1-14.69-4.25A10.82,10.82,0,0,1,439.47,139.58Z"/><path class="cls-3" d="M406.81,118.74a40.25,40.25,0,0,1,54.69,15.82"/><path class="cls-4" d="M393.21,94a68.44,68.44,0,0,1,93,26.91"/><path class="cls-3" d="M379.68,69.48a96.49,96.49,0,0,1,131.09,37.94"/><path class="cls-2" d="M150.74,541.51c0,3.69-25.62,6.68-57.22,6.68s-57.21-3-57.21-6.68,25.61-6.69,57.21-6.69S150.74,537.81,150.74,541.51Z"/><polygon class="cls-5" points="125.94 537.07 103.79 543.68 74.2 543.68 56 537.07 56 437.46 99.7 433.37 125.94 437.46 125.94 537.07"/><rect class="cls-5" x="114.32" y="465.55" width="29.59" height="5.29"/><rect class="cls-5" x="114.32" y="510.25" width="29.59" height="5.29"/><rect class="cls-5" x="139.31" y="467.68" width="10.52" height="19.07" transform="translate(-66.51 25.46) rotate(-8.19)"/><polygon class="cls-5" points="147.73 515.55 137.34 514.33 140.35 483.8 150.75 485.02 147.73 515.55"/><polygon class="cls-6" points="74.2 543.68 56 537.07 56 437.46 90.97 446.24 97.91 543.68 74.2 543.68"/><polygon class="cls-7" points="76.95 521.38 56 515.53 56 470.84 76.95 480.44 76.95 521.38"/><rect class="cls-6" x="114.32" y="465.55" width="5.92" height="11.66"/><rect class="cls-6" x="117.27" y="509.71" width="5.92" height="11.66"/><path class="cls-8" d="M72.66,423.16l-3.94-15.83,3.94-9.21,17.1-2.58V378.39L79.24,359.17,99.3,381s4.28,22.38,0,22-9.54,14.79-9.54,14.79l9.54,5.31-9.54,5.52H77Z"/><path class="cls-8" d="M105.33,364.66l4.6-9.24-1.28-6.23-10.52-3.92,2.28-10.6,9.23-10.43L94,335s-5.69,13.24-2.93,13.61S95.17,359,95.17,359l-6.77,2,5.33,4.71,8.08,1.74Z"/><path class="cls-8" d="M107.36,417.78l1.58-3.18-.46-2.15-3.66-1.36.77-3.65,3.18-3.59-5.41,3.69s-1.94,4.56-1,4.69,1.45,3.6,1.45,3.6l-2.35.67,1.86,1.64,2.81.61Z"/><path class="cls-8" d="M87.5,326.9l1.58-3.18-.46-2.15L85,320.21l.77-3.65L88.91,313l-5.41,3.69s-1.94,4.55-1,4.69S84,325,84,325l-2.34.67,1.86,1.63,2.81.61Z"/><path class="cls-2" d="M652.87,514.2c0,2.2,25.61,4,57.21,4s57.22-1.79,57.22-4-25.62-4-57.22-4S652.87,512,652.87,514.2Z"/><polygon class="cls-6" points="677.66 511.51 699.82 513.12 729.41 513.12 747.61 511.51 747.61 411.9 703.9 407.81 677.66 411.9 677.66 511.51"/><rect class="cls-5" x="659.7" y="439.99" width="29.59" height="5.29"/><rect class="cls-6" x="659.7" y="484.69" width="29.59" height="5.29"/><rect class="cls-5" x="649.5" y="446.4" width="19.07" height="10.52" transform="translate(118.1 1039.63) rotate(-81.81)"/><polygon class="cls-5" points="655.88 489.99 666.27 488.77 663.25 458.25 652.86 459.46 655.88 489.99"/><polygon class="cls-5" points="729.41 513.12 747.61 511.51 747.61 411.9 712.64 420.68 705.7 513.12 729.41 513.12"/><polygon class="cls-9" points="726.66 495.82 747.61 489.98 747.61 445.28 726.66 454.88 726.66 495.82"/><rect class="cls-6" x="683.37" y="439.99" width="5.92" height="11.66"/><rect class="cls-6" x="680.41" y="484.16" width="5.92" height="11.66"/><path class="cls-8" d="M731,397.6l3.94-15.83L731,372.56,713.85,370V352.83l10.52-19.22-20.06,21.85s-4.28,22.39,0,22.05,9.54,14.78,9.54,14.78l-9.54,5.31,9.54,5.52h12.71Z"/><path class="cls-8" d="M698.28,339.1l-4.61-9.24,1.29-6.23,10.52-3.92-2.28-10.59L694,298.68l15.64,10.76s5.69,13.24,2.93,13.61-4.1,10.43-4.1,10.43l6.77,2-5.33,4.71-8.08,1.74Z"/><path class="cls-8" d="M696.24,392.23l-1.57-3.18.46-2.15,3.66-1.37-.77-3.65-3.18-3.59,5.4,3.69s2,4.56,1,4.69-1.45,3.6-1.45,3.6l2.34.68-1.85,1.63-2.81.61Z"/><path class="cls-8" d="M716.11,301.34l-1.58-3.18L715,296l3.66-1.37-.77-3.65-3.18-3.59,5.41,3.69s1.94,4.56,1,4.69-1.44,3.6-1.44,3.6l2.34.68-1.86,1.63-2.81.61Z"/><path class="cls-2" d="M463,550c0,5-61.4,9.13-137.15,9.13S188.68,555.05,188.68,550s61.4-9.13,137.14-9.13S463,545,463,550Z"/><polygon class="cls-10" points="347.29 218.39 365.6 218.39 356.45 232.77 345.41 232.77 347.29 218.39"/><polygon class="cls-11" points="309.67 343.98 233.24 331.13 205.49 302.97 228.56 165.8 349.61 186.15 319.36 332.84 309.67 343.98"/><rect class="cls-11" x="264.97" y="315.48" width="32.91" height="67.49"/><polygon class="cls-12" points="363.69 544.64 274.06 548.7 211.18 544.64 211.18 359.34 253.27 359.34 270.98 372.84 310.58 359.34 363.69 359.34 363.69 544.64"/><polyline class="cls-13" points="379.68 426.84 379.68 525.01 287.43 463.65"/><polyline class="cls-13" points="203.11 438.04 195.04 520.1 263.2 459.97"/><polygon class="cls-14" points="292.42 329.84 235.47 320.67 205.81 303.29 233.24 331.13 309.67 343.98 315.19 337.64 292.42 329.84"/><polygon class="cls-14" points="226.59 211 287.43 218.39 336.38 250.31 349.61 186.15 228.56 165.8 218.68 224.54 226.59 211"/><polygon class="cls-15" points="339.62 219.18 230.95 163.41 255.85 107.38 319.36 103.18 373.67 168.29 348.54 242.41 338.01 242.41 339.62 219.18"/><polygon class="cls-7" points="335.47 451.99 362.46 446.73 389.46 385.73 335.47 385.73 335.47 451.99"/><polygon class="cls-16" points="302.31 209.24 319.36 229.57 306.59 267.5 319.36 288.85 331.9 251.82 335.45 254.82 327.55 293.15 322.94 315.48 333.11 315.48 345.41 312.36 339.08 296.09 342.76 293.68 339.08 284.63 346.67 250.78 355.5 244.66 342.76 225.58 323.46 214.87 302.31 209.24"/><rect class="cls-11" x="277.47" y="393.25" width="19.93" height="79"/><polygon class="cls-17" points="297.4 189.43 230.95 163.41 255.85 107.38 319.36 103.18 297.4 189.43"/><rect class="cls-11" x="254.82" y="402.18" width="14.32" height="66.84"/><polygon class="cls-10" points="304.57 187.19 234.89 122.47 177.22 131.06 143.16 148.32 218.96 222.86 223.11 198.18 243.4 196.07 319.36 214.87 342.76 225.58 331.72 209.24 304.57 187.19"/><path class="cls-14" d="M237.5,255.15A6.57,6.57,0,1,1,231,249,6.35,6.35,0,0,1,237.5,255.15Z"/><polygon class="cls-14" points="297.88 349.23 264.97 364.2 264.97 334.5 297.88 334.5 297.88 349.23"/><polygon class="cls-14" points="356.45 293.07 332.22 277.25 335.84 254.92 357.68 248.83 356.45 293.07"/><polygon class="cls-16" points="220.66 226.78 217.39 249.74 205.17 250.31 205.17 238.55 216.03 232.42 220.66 226.78"/><path class="cls-16" d="M264.36,229.79c-.1.57-4,.24-8.73-.73s-8.47-2.22-8.37-2.79,4-.24,8.73.73S264.46,229.23,264.36,229.79Z"/><path class="cls-16" d="M239.85,226.22c0,.29-3.83,1-8.64,1.58s-8.73.86-8.77.58,3.84-1,8.65-1.57S239.82,226,239.85,226.22Z"/><path class="cls-14" d="M255,293.09c-.1.91-9.62.66-21.25-.56s-21-2.92-20.86-3.82,9.62-.65,21.25.56S255.09,292.19,255,293.09Z"/><path class="cls-14" d="M265.07,281.68c.54.67-2.43,4-6.65,7.39s-8.08,5.63-8.63,4.95,2.44-4,6.65-7.39S264.52,281,265.07,281.68Z"/><path class="cls-14" d="M214.62,290.19c-.76-.05-1.48-2.15-1.61-4.68s.37-4.55,1.13-4.49,1.47,2.15,1.61,4.68S215.37,290.25,214.62,290.19Z"/><polygon class="cls-7" points="191.59 446.47 212.85 446.47 211.18 359.34 191.59 380.2 191.59 446.47"/><polygon class="cls-14" points="389.46 451.11 370.02 462.39 370.02 446.47 389.46 446.47 389.46 451.11"/><polygon class="cls-14" points="211.57 451.37 192.12 462.65 192.12 446.73 211.57 446.73 211.57 451.37"/><polygon class="cls-12" points="352.68 446.47 406.68 446.47 406.68 380.2 363.69 359.34 352.68 380.2 352.68 446.47"/><polygon class="cls-7" points="211.18 527.35 211.18 544.64 277.47 548.7 211.18 527.35"/><polygon class="cls-11" points="532.59 354.12 600.03 332.93 628.7 325.12 606.31 192.17 496.28 210.67 523.77 344 532.59 354.12"/><rect class="cls-11" x="543.3" y="328.22" width="29.91" height="61.35"/><polygon class="cls-15" points="483.48 536.51 564.95 540.19 622.11 536.51 622.11 368.08 583.85 368.08 567.75 380.35 531.75 368.08 483.48 368.08 483.48 536.51"/><polyline class="cls-18" points="468.95 429.43 468.95 518.66 552.79 462.89"/><polyline class="cls-18" points="629.44 439.61 636.77 514.2 574.82 459.55"/><polygon class="cls-14" points="548.26 341.27 600.03 332.93 628.7 325.12 630.25 332.36 532.59 354.12 527.57 348.36 548.26 341.27"/><polygon class="cls-14" points="609.45 210.8 546.96 223.42 531.9 253.59 508.31 268.99 496.28 210.67 604.13 180.91 609.45 210.8"/><polygon class="cls-17" points="509.14 452.3 484.6 447.51 460.06 392.07 509.14 392.07 509.14 452.3"/><rect class="cls-11" x="543.74" y="398.9" width="18.12" height="71.8"/><rect class="cls-11" x="569.43" y="407.02" width="13.01" height="60.76"/><path class="cls-14" d="M598.18,273.38a6,6,0,1,0,6-5.56A5.77,5.77,0,0,0,598.18,273.38Z"/><polygon class="cls-14" points="543.3 358.89 573.21 372.49 573.21 345.5 543.3 345.5 543.3 358.89"/><path class="cls-16" d="M569.5,246.63c.09.51,3.64.22,7.93-.67s7.71-2,7.62-2.53-3.64-.22-7.94.66S569.41,246.11,569.5,246.63Z"/><path class="cls-14" d="M582.29,307.87c.09.82,8.74.59,19.31-.51s19.06-2.66,19-3.48-8.75-.59-19.32.51S582.19,307.05,582.29,307.87Z"/><path class="cls-14" d="M573.12,297.49c-.49.62,2.21,3.63,6,6.72s7.34,5.12,7.84,4.5-2.22-3.62-6-6.72S573.62,296.88,573.12,297.49Z"/><path class="cls-14" d="M619,305.23c.69-.05,1.34-2,1.46-4.26s-.34-4.13-1-4.08-1.34,2-1.46,4.26S618.29,305.28,619,305.23Z"/><polygon class="cls-17" points="639.9 447.28 620.59 447.28 622.11 368.08 639.9 387.04 639.9 447.28"/><polygon class="cls-14" points="460.06 451.5 477.73 461.74 477.73 447.28 460.06 447.28 460.06 451.5"/><polygon class="cls-14" points="621.75 451.73 639.42 461.98 639.42 447.51 621.75 447.51 621.75 451.73"/><polygon class="cls-15" points="493.49 447.28 444.41 447.28 444.41 387.04 483.48 368.08 493.49 387.04 493.49 447.28"/><polygon class="cls-14" points="534.45 235.02 543.3 328.22 548.26 341.27 534.45 356.03 527.57 356.03 505.72 256.45 534.45 235.02"/><polygon class="cls-17" points="622.11 520.78 622.11 536.51 561.85 540.19 622.11 520.78"/><polygon class="cls-16" points="507.37 304.78 483.48 216.12 472.23 195.87 483.48 173.71 605.79 133.72 617.93 202.64 581 208.94 567.62 193.47 567.4 210.71 543.3 216.12 514.39 242.05 515.65 297.35 507.37 304.78"/><path class="cls-16" d="M608.16,240.11c0,1.07-2.23,1.94-5,1.94s-5-.87-5-1.94,2.24-2,5-2S608.16,239,608.16,240.11Z"/><rect class="cls-14" x="555.81" y="222.57" width="20.09" height="4.89" transform="translate(-39.04 154.84) rotate(-15.07)"/><polygon class="cls-14" points="611.4 224.8 590.93 225.3 590.95 220.41 611.42 219.91 611.4 224.8"/><rect class="cls-16" x="555.81" y="218.53" width="20.09" height="4.89" transform="matrix(0.97, -0.26, 0.26, 0.97, -37.99, 154.71)"/><polygon class="cls-16" points="611.4 220.76 590.93 221.26 590.95 216.36 611.42 215.87 611.4 220.76"/><polygon class="cls-14" points="493.59 292.69 509.15 271.46 498.93 253.59 478.41 255.41 493.59 292.69"/><rect class="cls-19" x="138" y="465.55" width="10.96" height="5.29"/></g></svg>