<svg xmlns="http://www.w3.org/2000/svg" viewBox="0 0 1039.79 541.49"><defs><style>.cls-1{fill:#fff8dc;}.cls-2{fill:#ffeeb8;}.cls-3{fill:#dd992e;}.cls-14,.cls-19,.cls-4,.cls-5{fill:none;stroke-miterlimit:10;}.cls-4{stroke:#c24a4a;}.cls-4,.cls-5{stroke-linecap:round;stroke-width:15.48px;}.cls-5{stroke:#ffeeb8;}.cls-6{fill:#b2b2b2;}.cls-7{fill:#9d9d9c;}.cls-8{fill:#d45c28;}.cls-9{fill:#dadada;}.cls-10{fill:#468f99;}.cls-11{fill:#3c3c3b;}.cls-12{fill:#f4ca98;}.cls-13{fill:#da7346;}.cls-14,.cls-19{stroke:#f4ca98;}.cls-14{stroke-width:19.63px;}.cls-15{fill:#f7931e;}.cls-16{fill:#e56a6a;}.cls-17{fill:#7d4e24;}.cls-18{fill:#c24a4a;}.cls-19{stroke-width:17.85px;}.cls-20{fill:#c6c6c6;}</style></defs><title>prayer_dudes_02</title><g id="Ebene_8" data-name="Ebene 8"><path class="cls-1" d="M1133.13,560.07H-73.39C-91,560.07-32.88,541.49,0,541.49c248.17,0,268.23-174.95,520.73-174.95,290.58,0,417.43,175,519.06,175C1090.43,541.49,1133.13,560.07,1133.13,560.07Z"/><path class="cls-1" d="M570.49,335c-.15-8.07,18.63-1.57,41.52-3.44s41.43-8.74,41.52-3.33-18.24,21-41.17,22.91S570.58,340.4,570.49,335Z"/><path class="cls-1" d="M229.75,143.54c1.34,4.58-15.76,21.18-35.22,47.27S160.62,242.58,159.28,238s10.94-37.71,30.4-63.79S228.41,139,229.75,143.54Z"/><path class="cls-1" d="M859.17,314.35c-.63,5.24-18-9.84-40.26-22S778,275.43,778.66,270.19s20.28-9.05,42.51,3.14S859.79,309.11,859.17,314.35Z"/><path class="cls-1" d="M773,520.28c48.5,2,69.26-34.28,69.26-34.28s50.26-94.43,15.15-147.95S770.53,279.8,729.86,300.3s-47.25,61.87-124.23,61.23C466.36,360.36,469.19,204.24,417,156s-137.89-15.51-189.36,21.67-71.89,172.61-52.88,260.88,69.82,88.18,122.49,88.26S724.49,518.3,773,520.28Z"/><circle class="cls-2" cx="505.1" cy="235.9" r="5.48"/><circle class="cls-2" cx="520.73" cy="216.68" r="5.48"/><circle class="cls-2" cx="560.53" cy="199.23" r="5.48"/><circle class="cls-2" cx="549.68" cy="171.61" r="5.48"/><circle class="cls-2" cx="557.65" cy="148.66" r="5.48"/><circle class="cls-2" cx="574.11" cy="216.68" r="5.48"/><circle class="cls-2" cx="594.86" cy="235.9" r="5.48"/><circle class="cls-2" cx="539.93" cy="193.75" r="5.48"/><path class="cls-3" d="M820.07,513.82c0,5-61.4,9.13-137.14,9.13s-137.15-4.09-137.15-9.13,61.41-9.13,137.15-9.13S820.07,508.78,820.07,513.82Z"/><path class="cls-2" d="M570.36,114.22A10.81,10.81,0,1,1,555.67,110,10.82,10.82,0,0,1,570.36,114.22Z"/><path class="cls-4" d="M537.71,93.37A40.26,40.26,0,0,1,592.4,109.2"/><path class="cls-5" d="M524.11,68.67a68.45,68.45,0,0,1,93,26.92"/><path class="cls-4" d="M510.58,44.11A96.49,96.49,0,0,1,641.66,82.05"/><path class="cls-3" d="M281.63,516.14c0,3.69-25.61,6.69-57.21,6.69s-57.22-3-57.22-6.69,25.62-6.68,57.22-6.68S281.63,512.45,281.63,516.14Z"/><polygon class="cls-6" points="256.84 511.71 234.69 518.32 205.09 518.32 186.9 511.71 186.9 412.1 230.6 408.01 256.84 412.1 256.84 511.71"/><rect class="cls-6" x="245.21" y="440.19" width="29.59" height="5.29"/><rect class="cls-6" x="245.21" y="484.88" width="29.59" height="5.29"/><rect class="cls-6" x="270.2" y="442.32" width="10.52" height="19.07" transform="translate(-61.56 43.85) rotate(-8.19)"/><polygon class="cls-6" points="278.62 490.18 268.23 488.96 271.25 458.44 281.64 459.65 278.62 490.18"/><polygon class="cls-7" points="205.09 518.32 186.9 511.71 186.9 412.1 221.87 420.87 228.8 518.32 205.09 518.32"/><polygon class="cls-8" points="207.85 496.01 186.9 490.17 186.9 445.48 207.85 455.07 207.85 496.01"/><rect class="cls-7" x="245.21" y="440.19" width="5.92" height="11.66"/><rect class="cls-7" x="248.17" y="484.35" width="5.92" height="11.66"/><path class="cls-9" d="M203.56,397.79,199.61,382l3.95-9.21,17.1-2.57V353L210.13,333.8l20.07,21.85s4.27,22.39,0,22.05-9.54,14.78-9.54,14.78l9.54,5.31-9.54,5.52H207.94Z"/><path class="cls-9" d="M236.22,339.29l4.61-9.24-1.29-6.22L229,319.9l2.28-10.59,9.24-10.44-15.65,10.76s-5.69,13.24-2.93,13.61,4.1,10.44,4.1,10.44l-6.76,2,5.33,4.72,8.07,1.73Z"/><path class="cls-9" d="M238.26,392.42l1.58-3.18-.46-2.15-3.66-1.37.76-3.65,3.19-3.58-5.41,3.68s-1.94,4.56-1,4.69,1.44,3.61,1.44,3.61l-2.34.67,1.86,1.63,2.8.61Z"/><path class="cls-9" d="M218.39,301.54l1.58-3.18-.46-2.15-3.66-1.37.77-3.65,3.18-3.58-5.4,3.68s-2,4.56-1,4.69,1.45,3.6,1.45,3.6l-2.35.68,1.86,1.63,2.81.61Z"/><path class="cls-3" d="M783.77,488.83c0,2.21,25.61,4,57.21,4s57.22-1.79,57.22-4-25.62-4-57.22-4S783.77,486.63,783.77,488.83Z"/><polygon class="cls-7" points="808.56 486.15 830.71 487.76 860.3 487.76 878.5 486.15 878.5 386.54 834.8 382.45 808.56 386.54 808.56 486.15"/><rect class="cls-6" x="790.59" y="414.63" width="29.59" height="5.29"/><rect class="cls-7" x="790.59" y="459.32" width="29.59" height="5.29"/><rect class="cls-6" x="780.4" y="421.03" width="19.07" height="10.52" transform="translate(255.45 1147.44) rotate(-81.81)"/><polygon class="cls-6" points="786.77 464.62 797.17 463.41 794.15 432.88 783.75 434.1 786.77 464.62"/><polygon class="cls-6" points="860.3 487.76 878.5 486.15 878.5 386.54 843.53 395.31 836.6 487.76 860.3 487.76"/><polygon class="cls-10" points="857.55 470.45 878.5 464.61 878.5 419.92 857.55 429.52 857.55 470.45"/><rect class="cls-7" x="814.27" y="414.63" width="5.92" height="11.66"/><rect class="cls-7" x="811.31" y="458.79" width="5.92" height="11.66"/><path class="cls-9" d="M861.84,372.23l3.95-15.83-3.95-9.2-17.1-2.58V327.46l10.52-19.22L835.2,330.1s-4.28,22.38,0,22,9.54,14.79,9.54,14.79l-9.54,5.3,9.54,5.53h12.72Z"/><path class="cls-9" d="M829.18,313.73l-4.61-9.24,1.28-6.22,10.53-3.92-2.28-10.6-9.24-10.43,15.65,10.75s5.69,13.24,2.92,13.62-4.09,10.43-4.09,10.43l6.76,2-5.33,4.71-8.08,1.73Z"/><path class="cls-9" d="M827.14,366.86l-1.58-3.18.46-2.15,3.66-1.37-.77-3.65-3.18-3.58,5.41,3.69s1.94,4.55,1,4.69-1.44,3.6-1.44,3.6l2.34.67-1.86,1.63-2.81.61Z"/><path class="cls-9" d="M847,276l-1.58-3.18.46-2.15,3.66-1.37-.76-3.65-3.18-3.58,5.4,3.68s1.94,4.56,1,4.7-1.45,3.6-1.45,3.6l2.34.67L851,276.33l-2.8.61Z"/><path class="cls-3" d="M593.87,524.64c0,5-61.41,9.13-137.15,9.13s-137.14-4.09-137.14-9.13,61.4-9.13,137.14-9.13S593.87,519.6,593.87,524.64Z"/><polygon class="cls-11" points="478.19 193.02 496.49 193.02 487.34 207.4 476.31 207.4 478.19 193.02"/><polygon class="cls-12" points="440.56 318.61 364.13 305.76 336.39 277.6 359.45 140.43 480.5 160.78 450.26 307.48 440.56 318.61"/><rect class="cls-12" x="395.87" y="290.12" width="32.91" height="67.49"/><polygon class="cls-13" points="494.59 519.28 404.96 523.33 342.07 519.28 342.07 333.98 384.16 333.98 401.87 347.48 441.48 333.98 494.59 333.98 494.59 519.28"/><polyline class="cls-14" points="510.57 401.47 510.57 499.64 418.33 438.29"/><polyline class="cls-14" points="334 412.68 325.93 494.74 394.1 434.61"/><polygon class="cls-15" points="423.31 304.47 366.36 295.3 336.7 277.92 364.13 305.76 440.56 318.61 446.08 312.27 423.31 304.47"/><polygon class="cls-15" points="357.49 185.64 418.33 193.02 467.27 224.95 480.5 160.78 359.45 140.43 349.58 199.17 357.49 185.64"/><polygon class="cls-16" points="470.51 193.81 361.85 138.05 386.75 82.02 450.26 77.82 504.57 142.93 479.43 217.05 468.9 217.05 470.51 193.81"/><polygon class="cls-8" points="466.36 426.63 493.36 421.37 520.36 360.36 466.36 360.36 466.36 426.63"/><polygon class="cls-17" points="433.21 183.87 450.26 204.2 437.48 242.13 450.26 263.49 462.8 226.45 466.35 229.46 458.44 267.78 453.84 290.12 464 290.12 476.31 287 469.98 270.72 473.66 268.31 469.98 259.27 477.57 225.41 486.4 219.3 473.66 200.21 454.36 189.51 433.21 183.87"/><rect class="cls-12" x="408.36" y="367.88" width="19.93" height="79"/><polygon class="cls-18" points="428.29 164.07 361.85 138.05 386.75 82.02 450.26 77.82 428.29 164.07"/><rect class="cls-12" x="385.71" y="376.81" width="14.32" height="66.84"/><polygon class="cls-11" points="435.47 161.82 365.79 97.11 308.11 105.7 274.06 122.95 349.86 197.49 354.01 172.81 374.3 170.71 450.26 189.51 473.66 200.21 462.62 183.87 435.47 161.82"/><path class="cls-15" d="M368.39,229.79a6.56,6.56,0,1,1-6.55-6.12A6.34,6.34,0,0,1,368.39,229.79Z"/><polygon class="cls-15" points="428.77 323.86 395.87 338.83 395.87 309.14 428.77 309.14 428.77 323.86"/><polygon class="cls-15" points="487.35 267.71 463.12 251.89 466.74 229.55 488.58 223.47 487.35 267.71"/><polygon class="cls-17" points="351.55 201.41 348.29 224.37 336.06 224.95 336.06 213.18 346.92 207.05 351.55 201.41"/><path class="cls-17" d="M395.26,204.43c-.1.56-4,.24-8.73-.74s-8.47-2.22-8.38-2.78,4-.24,8.73.73S395.35,203.86,395.26,204.43Z"/><path class="cls-17" d="M370.75,200.85c0,.3-3.84,1-8.65,1.59s-8.73.85-8.76.57,3.83-1,8.64-1.56S370.72,200.58,370.75,200.85Z"/><path class="cls-15" d="M385.88,267.73c-.11.9-9.62.65-21.25-.56s-21-2.93-20.87-3.83,9.62-.65,21.25.56S386,266.83,385.88,267.73Z"/><path class="cls-15" d="M396,256.31c.55.68-2.43,4-6.65,7.4s-8.08,5.62-8.62,5,2.43-4,6.65-7.4S395.42,255.64,396,256.31Z"/><path class="cls-15" d="M345.51,264.83c-.76-.06-1.48-2.15-1.61-4.69s.37-4.54,1.13-4.49,1.48,2.15,1.61,4.69S346.27,264.88,345.51,264.83Z"/><polygon class="cls-8" points="322.49 421.11 343.74 421.11 342.07 333.98 322.49 354.84 322.49 421.11"/><polygon class="cls-15" points="520.36 425.75 500.91 437.02 500.91 421.11 520.36 421.11 520.36 425.75"/><polygon class="cls-15" points="342.46 426.01 323.02 437.28 323.02 421.37 342.46 421.37 342.46 426.01"/><polygon class="cls-13" points="483.58 421.11 537.57 421.11 537.57 354.84 494.59 333.98 483.58 354.84 483.58 421.11"/><polygon class="cls-8" points="342.07 501.98 342.07 519.28 408.36 523.33 342.07 501.98"/><polygon class="cls-12" points="663.48 328.75 730.92 307.57 759.59 299.76 737.21 166.8 627.18 185.3 654.67 318.63 663.48 328.75"/><rect class="cls-12" x="674.2" y="302.85" width="29.91" height="61.35"/><polygon class="cls-16" points="614.38 511.14 695.84 514.83 753 511.14 753 342.72 714.75 342.72 698.64 354.99 662.65 342.72 614.38 342.72 614.38 511.14"/><polyline class="cls-19" points="599.84 404.06 599.84 493.3 683.69 437.53"/><polyline class="cls-19" points="760.33 414.25 767.67 488.83 705.71 434.18"/><polygon class="cls-15" points="679.16 315.9 730.92 307.57 759.59 299.76 761.14 306.99 663.48 328.75 658.46 322.99 679.16 315.9"/><polygon class="cls-15" points="740.34 185.44 677.85 198.05 662.8 228.23 639.2 243.62 627.18 185.3 735.03 155.55 740.34 185.44"/><polygon class="cls-18" points="640.03 426.93 615.49 422.14 590.96 366.7 640.03 366.7 640.03 426.93"/><rect class="cls-12" x="674.63" y="373.53" width="18.12" height="71.8"/><rect class="cls-12" x="700.32" y="381.65" width="13.01" height="60.76"/><path class="cls-15" d="M729.08,248a6,6,0,1,0,5.95-5.56A5.76,5.76,0,0,0,729.08,248Z"/><polygon class="cls-15" points="674.2 333.53 704.11 347.13 704.11 320.14 674.2 320.14 674.2 333.53"/><path class="cls-17" d="M700.4,221.26c.09.52,3.64.22,7.93-.66s7.7-2,7.61-2.54-3.64-.22-7.93.67S700.31,220.75,700.4,221.26Z"/><path class="cls-15" d="M713.18,282.5c.1.82,8.75.59,19.32-.51s19.06-2.66,19-3.48-8.74-.59-19.31.52S713.08,281.68,713.18,282.5Z"/><path class="cls-15" d="M704,272.13c-.5.61,2.21,3.62,6,6.72s7.35,5.11,7.84,4.5-2.21-3.63-6-6.72S704.52,271.51,704,272.13Z"/><path class="cls-15" d="M749.87,279.87c.69-.05,1.35-2,1.47-4.26s-.34-4.13-1-4.08-1.34,2-1.46,4.26S749.18,279.91,749.87,279.87Z"/><polygon class="cls-18" points="770.8 421.91 751.48 421.91 753 342.72 770.8 361.68 770.8 421.91"/><polygon class="cls-15" points="590.96 426.13 608.63 436.38 608.63 421.91 590.96 421.91 590.96 426.13"/><polygon class="cls-15" points="752.64 426.37 770.32 436.61 770.32 422.14 752.64 422.14 752.64 426.37"/><polygon class="cls-16" points="624.38 421.91 575.31 421.91 575.31 361.68 614.38 342.72 624.38 361.68 624.38 421.91"/><polygon class="cls-15" points="665.34 209.65 674.2 302.85 679.16 315.9 665.34 330.66 658.46 330.66 636.62 231.08 665.34 209.65"/><polygon class="cls-18" points="753 495.42 753 511.14 692.75 514.83 753 495.42"/><polygon class="cls-17" points="638.26 279.41 614.38 190.75 603.12 170.5 614.38 148.35 736.69 108.36 748.83 177.27 711.9 183.57 698.51 168.1 698.3 185.34 674.2 190.75 645.28 216.68 646.55 271.98 638.26 279.41"/><path class="cls-17" d="M739.06,214.74c0,1.07-2.24,1.94-5,1.94s-5-.87-5-1.94,2.23-1.94,5-1.94S739.06,213.67,739.06,214.74Z"/><rect class="cls-15" x="686.71" y="197.2" width="20.09" height="4.89" transform="translate(-27.95 187.99) rotate(-15.07)"/><polygon class="cls-15" points="742.29 199.44 721.82 199.93 721.84 195.04 742.31 194.54 742.29 199.44"/><rect class="cls-17" x="686.71" y="193.16" width="20.09" height="4.89" transform="translate(-26.9 187.87) rotate(-15.07)"/><polygon class="cls-17" points="742.29 195.39 721.82 195.89 721.84 191 742.31 190.5 742.29 195.39"/><polygon class="cls-15" points="624.49 267.33 640.04 246.09 629.83 228.23 609.3 230.04 624.49 267.33"/><rect class="cls-20" x="268.9" y="440.19" width="10.96" height="5.29"/></g></svg>