<!-- Generator: Adobe Illustrator 22.1.0, SVG Export Plug-In  -->
<svg version="1.1"
	 xmlns="http://www.w3.org/2000/svg" xmlns:xlink="http://www.w3.org/1999/xlink" xmlns:a="http://ns.adobe.com/AdobeSVGViewerExtensions/3.0/"
	 x="0px" y="0px" width="148.3px" height="313.5px" viewBox="0 0 148.3 313.5" style="enable-background:new 0 0 148.3 313.5;"
	 xml:space="preserve">
<style type="text/css">
	.st0{fill:#468F99;}
	.st1{fill:#B2B2B2;}
	.st2{fill:#C6C6C6;}
	.st3{fill:#9D9D9C;}
	.st4{fill:#D45C28;}
	.st5{opacity:0.39;}
	.st6{fill:#DADADA;}
	.st7{opacity:0.51;}

  #Rauch_Kopie > g {
  opacity: 0;
}



#Schritt_1_Kopie {
  animation: fade 2s 0s ease-in-out infinite;
}
#Schritt_2_Kopie {
  animation: fade 2s 0.5s ease-in-out infinite;
}
#Schritt_3_Kopie {
  animation: fade 2s 1s ease-in-out infinite;
}
#Schritt_4_Kopie {
  animation: fade 2s 1.5s ease-in-out infinite;
}


@keyframes fade {
  0% {
    opacity: 0;

  }
  50% {
    opacity: 0.3;

  }
  100% {
    opacity: 0;
  }
}

/*
looks different. but not even a bit better.
@keyframes fade {
  0% {
    opacity: 0;

  }
  25% {
    opacity: 0.5;

  }
  50% {
    opacity: 0;
  }
  100% {
    opacity: 0;
  }
}
  */
</style>
<defs>
</defs>
<g id="Tasse_Kopie">
	<path class="st0" d="M147.7,304.9c0,4.8-33.1,8.6-73.9,8.6c-40.8,0-73.9-3.9-73.9-8.6c0-4.8,33.1-8.6,73.9-8.6
		C114.7,296.2,147.7,300.1,147.7,304.9z"/>
	<path class="st1" d="M148.3,236.4l-3.5-24.4l-5.8,0.8v-2.7h-23.2v-36.3l-38.8-4.1l-51.5,4.1v128.6l23.5,5.5h38.2l28.6-5.5v-27.8
		h23.2v-0.6l4.9,0.6L148.3,236.4z M115.7,216.9h16l2.5,17.6l-3.3,33.3l-15.2-2.4V216.9z"/>
	<polygon class="st2" points="145.5,212.8 148.3,236.4 142.4,273.4 135.8,273.4 138.8,235.4 134.3,212.8 103.2,212.8 110.4,210.1
		145.5,210.1 	"/>
	<polygon class="st3" points="130.3,273.4 110.1,271.7 107.8,268.9 104.6,271.2 97.5,283.5 91.8,237.1 108.1,216.9 131.3,216.9
		131.3,215.8 108.4,215.8 103.2,215.8 101.1,214 88.8,236.3 93.9,289.6 93.8,289.7 93.9,289.7 98.2,289.7 101.5,289.7 112.8,274.6
		143.9,274.6 	"/>
	<path class="st2" d="M135.8,212.8"/>
	<polygon class="st3" points="79.5,284.3 81.1,284.3 81.1,278.8 77.8,278.8 77.8,281.5 77.6,281.5 76.3,263.3 77.2,263.3
		77.2,257.8 75.9,257.8 74.1,233.7 75.6,233.7 75.6,228.2 73.7,228.2 71.8,202.4 73.1,202.4 73.1,196.9 71.4,196.9 70.6,185.2
		25.4,173.8 25.4,302.4 48.9,308 79.5,308 78,287 79.5,287 	"/>
	<polygon class="st2" points="115.7,265.4 110.1,266.8 131,267.8 	"/>
	<path class="st2" d="M76.9,169.8l-51.5,4.1l45.2,11.3l45.2-11.3L76.9,169.8z M35.9,174.8l40.5-3.2l30.5,3.2l-35.5,6.7L35.9,174.8z"
		/>
	<polygon class="st3" points="76.4,171.6 75.5,180.7 106.9,174.8 	"/>
	<path class="st3" d="M112.5,271.9"/>
	<path class="st3" d="M112.5,271.9"/>
	<polygon class="st4" points="25.4,216.9 25.4,222.3 25.4,223.7 48.3,226.5 48.3,275.1 25.4,271 25.4,274.6 52.5,282.2 52.5,221.6
		"/>
	<polygon class="st4" points="25.4,227.8 42.8,230.1 44.1,231.8 45.3,269.9 43.6,271.9 25.4,269.1 	"/>
</g>
<g id="Rauch_Kopie">
	<g id="Schritt_1_Kopie" class="st5">
		<path class="st6" d="M46.9,155.4l-5.1-20.4l5.1-11.9l22.1-3.3V97.6L55.4,72.7L81.3,101c0,0,5.5,28.9,0,28.5
			C75.8,129,69,148.5,69,148.5l12.3,6.9L69,162.5H52.6L46.9,155.4z"/>
		<path class="st6" d="M89.1,79.8l5.9-11.9l-1.7-8l-13.6-5.1l2.9-13.7l11.9-13.5L74.5,41.5c0,0-7.3,17.1-3.8,17.6
			c3.6,0.5,5.3,13.5,5.3,13.5l-8.7,2.6l6.9,6.1l10.4,2.2L89.1,79.8z"/>
		<path class="st6" d="M91.7,148.4l2-4.1l-0.6-2.8l-4.7-1.8l1-4.7l4.1-4.6l-7,4.8c0,0-2.5,5.9-1.3,6.1c1.2,0.2,1.9,4.7,1.9,4.7
			l-3,0.9l2.4,2.1l3.6,0.8L91.7,148.4z"/>
		<path class="st6" d="M66.1,31.1l2-4.1l-0.6-2.8l-4.7-1.8l1-4.7l4.1-4.6l-7,4.8c0,0-2.5,5.9-1.3,6.1c1.2,0.2,1.9,4.7,1.9,4.7
			l-3,0.9l2.4,2.1l3.6,0.8L66.1,31.1z"/>
	</g>
	<g id="Schritt_2_Kopie" class="st7">
		<path class="st6" d="M42.9,121.8L37,98.1l8.5-7.1l20.7-0.1l4.1-13.2l-20-13.9l27.8,3.8c0,0,5,29.2,0.5,33
			c-4.5,3.8-13.1,5.3-13.1,5.3l10.2,12.7l-12.2,9.8l-12.1-1.5L42.9,121.8z"/>
		<path class="st6" d="M98.7,61.5l-1.7-17.7l-3.2-5.7l-14.5-0.5l-1.8-9.1l5.6-17.1L70.2,32.1c0,0,0,18.6,3.5,17.6
			c3.5-1,10.5-13.2,15.3-3.2c4.8,10-18.8,17.1-18.8,17.1l15.4,5.1L96,66.7L98.7,61.5z"/>
		<path class="st6" d="M92.5,137.8l3.3-6.7l-1-4.6l-7.8-2.9l1.6-7.7l6.7-7.6L84,116.1c0,0-4.1,9.7-2.1,9.9c2,0.3,3.1,7.6,3.1,7.6
			l-5,1.4l3.9,3.5l5.9,1.3L92.5,137.8z"/>
		<path class="st6" d="M64.7,18.4l2.1-0.2l0.1-1.5l-2.8-4.1l1.5-1.2l3.5,1.1l-5.4-3.2c0,0-2.7,0.5-1.9,1.5c0.8,1,0.4,3.2,0.4,3.2
			L60,12.2l1.2,2.6l2.2,3L64.7,18.4z"/>
		<path class="st6" d="M52.7,171l-6.7,5.6l25.5,4.8l15.5-3.1c2.2-7.9-1.7-30.7-1.7-30.7l-27.8-3.8l20,13.9l-4.1,13.2L52.7,171z"/>
	</g>
	<g id="Schritt_3_Kopie" class="st7">
		<path class="st6" d="M50.5,85.2l4.1-19l8.7-1.9l15.2,7.5l0.7-7.9l-2.7-17.2l10.7,13.5c0,0,1.6,22.1-3.1,23.1
			c-4.7,1-11.5-1.1-11.5-1.1l2.9,12.8l-12.4,2.4l-8.4-5.5L50.5,85.2z"/>
		<path class="st6" d="M68.1,41.1c0.6-0.5,1.2-2.4,2.2-3.5c0.2-0.8,0.3-1.7,0.2-2.6l-1.9,0.5l-1.8-3.4l-0.2-7.5l-2.1,9.8
			C64.5,34.5,67,41.9,68.1,41.1z"/>
		<path class="st6" d="M89.7,37l-3.3-0.6l-2,1.1c0.6,0.7,1,1.5,1.2,2.3c0.5,0,1.1,0,1.8,0.1c5.6,1-2.6,13.9-2.6,13.9l9.7-6.7
			l2.7-4.5l-0.9-2L89.7,37z"/>
		<path class="st6" d="M92.8,100.1l-0.2-3.4l-2.5-0.2l-6.9,4.4l-1.9-2.5l2-5.8l-5.4,8.8c0,0,0.8,4.5,2.4,3.2
			c1.6-1.2,5.3-0.5,5.3-0.5l-3.1,3.4l4.3-1.9l4.9-3.6L92.8,100.1z"/>
		<path class="st6" d="M64.7,18.4l2.1-0.2l0.1-1.5l-2.8-4.1l1.5-1.2l3.5,1.1l-5.4-3.2c0,0-2.7,0.5-1.9,1.5c0.8,1,0.4,3.2,0.4,3.2
			L60,12.2l1.2,2.6l2.2,3L64.7,18.4z"/>
		<path class="st6" d="M68.5,9.6l0.8-0.8l-0.5-0.7l-0.7-2.5c0,0-4.4,1.9-3.7,2c0.7,0.1-0.2,1.2-0.2,1.2l1.5,0.6l2,0.4L68.5,9.6z"/>
		<path class="st6" d="M65.4,44.9l0.8-0.8l-0.5-0.7L65,40.8c0,0-4.4,1.9-3.7,2c0.7,0.1-0.2,1.2-0.2,1.2l1.5,0.6l2,0.4L65.4,44.9z"/>
		<path class="st6" d="M52.5,163.6l-6.5,13l25.5,4.8l15.5-3.1c0.3-1.2-11.4-15.7-11.4-15.7l17.4-6.8L69,126.6l-26.1-15.3l23.8,39.1
			l0.4,6.8L52.5,163.6z"/>
	</g>
	<g id="Schritt_4_Kopie" class="st7">
		<path class="st6" d="M57.7,89.1l0.9-19.5l8.3-3.3l7.2-2.2l1.4-3.5L77,46.8l6.7,13.1c0,0,7.5,17.5,3.1,19.2
			c-4.4,1.8-7.8,3.4-7.8,3.4l5,12.1L72.2,99L63,94.9L57.7,89.1z"/>
		<path class="st6" d="M68.1,41.1c0.6-0.5,1.2-2.4,2.2-3.5c0.2-0.8,0.3-1.7,0.2-2.6l-1.9,0.5l-1.8-3.4l-0.2-7.5l-2.1,9.8
			C64.5,34.5,67,41.9,68.1,41.1z"/>
		<path class="st6" d="M92.8,100.1l-0.2-3.4l-2.5-0.2l-6.9,4.4l-1.9-2.5l2-5.8l-5.4,8.8c0,0,0.8,4.5,2.4,3.2
			c1.6-1.2,5.3-0.5,5.3-0.5l-3.1,3.4l4.3-1.9l4.9-3.6L92.8,100.1z"/>
		<path class="st6" d="M82.9,4l0.8-0.8l-0.5-0.7L82.5,0c0,0-4.4,1.9-3.7,2c0.7,0.1-0.2,1.2-0.2,1.2l1.5,0.6l2,0.4L82.9,4z"/>
		<path class="st6" d="M65.4,44.9l0.8-0.8l-0.5-0.7L65,40.8c0,0-4.4,1.9-3.7,2c0.7,0.1-0.2,1.2-0.2,1.2l1.5,0.6l2,0.4L65.4,44.9z"/>
		<path class="st6" d="M49.4,162.5l-1,9.1l24.7,4.5l10.6-8.8c0.3-1.2-9.1-10.4-9.1-10.4l-1.5-10.3l9.9-18.7L71.4,99.1l-4.7,27
			l-13.4,13.7l-4.6,8L49.4,162.5z"/>
		<polygon class="st6" points="88.8,165.6 86.8,169.8 92.8,171.4 95.1,167.3 		"/>
	</g>
</g>
</svg>
