<svg xmlns="http://www.w3.org/2000/svg" viewBox="0 0 149 148" id="Syav9Sm17"><style>@-webkit-keyframes SJmpv9SQJm_HkpB3B7yX_Animation{22.22%{-webkit-transform: scale(1, 1);transform: scale(1, 1);}25.56%{-webkit-transform: scale(1.05, 1.05);transform: scale(1.05, 1.05);}28.89%{-webkit-transform: scale(1, 1);transform: scale(1, 1);}0%{-webkit-transform: scale(1, 1);transform: scale(1, 1);}100%{-webkit-transform: scale(1, 1);transform: scale(1, 1);}}@keyframes SJmpv9SQJm_HkpB3B7yX_Animation{22.22%{-webkit-transform: scale(1, 1);transform: scale(1, 1);}25.56%{-webkit-transform: scale(1.05, 1.05);transform: scale(1.05, 1.05);}28.89%{-webkit-transform: scale(1, 1);transform: scale(1, 1);}0%{-webkit-transform: scale(1, 1);transform: scale(1, 1);}100%{-webkit-transform: scale(1, 1);transform: scale(1, 1);}}@-webkit-keyframes ByGpD5BmJQ_SJIGnHQJm_Animation{22.22%{-webkit-transform: scale(1, 1);transform: scale(1, 1);}25.56%{-webkit-transform: scale(1.1, 1.1);transform: scale(1.1, 1.1);}28.89%{-webkit-transform: scale(1, 1);transform: scale(1, 1);}0%{-webkit-transform: scale(1, 1);transform: scale(1, 1);}100%{-webkit-transform: scale(1, 1);transform: scale(1, 1);}}@keyframes ByGpD5BmJQ_SJIGnHQJm_Animation{22.22%{-webkit-transform: scale(1, 1);transform: scale(1, 1);}25.56%{-webkit-transform: scale(1.1, 1.1);transform: scale(1.1, 1.1);}28.89%{-webkit-transform: scale(1, 1);transform: scale(1, 1);}0%{-webkit-transform: scale(1, 1);transform: scale(1, 1);}100%{-webkit-transform: scale(1, 1);transform: scale(1, 1);}}@-webkit-keyframes HyV6w5Sm1Q_BkxziS7yX_Animation{1.11%{-webkit-transform: translate(-10px, 10px);transform: translate(-10px, 10px);}18.89%{-webkit-transform: translate(0px, 0px);transform: translate(0px, 0px);}0%{-webkit-transform: translate(-10px, 10px);transform: translate(-10px, 10px);}100%{-webkit-transform: translate(0px, 0px);transform: translate(0px, 0px);}}@keyframes HyV6w5Sm1Q_BkxziS7yX_Animation{1.11%{-webkit-transform: translate(-10px, 10px);transform: translate(-10px, 10px);}18.89%{-webkit-transform: translate(0px, 0px);transform: translate(0px, 0px);}0%{-webkit-transform: translate(-10px, 10px);transform: translate(-10px, 10px);}100%{-webkit-transform: translate(0px, 0px);transform: translate(0px, 0px);}}@-webkit-keyframes HyV6w5Sm1Q_HytnqrmJX_Animation{0%{-webkit-transform: scale(0, 0);transform: scale(0, 0);}15.56%{-webkit-transform: scale(1.4, 1.4);transform: scale(1.4, 1.4);}18.89%{-webkit-transform: scale(1, 1);transform: scale(1, 1);}21.11%{-webkit-transform: scale(0.85, 0.85);transform: scale(0.85, 0.85);}22.22%{-webkit-transform: scale(1, 1);transform: scale(1, 1);}100%{-webkit-transform: scale(1, 1);transform: scale(1, 1);}}@keyframes HyV6w5Sm1Q_HytnqrmJX_Animation{0%{-webkit-transform: scale(0, 0);transform: scale(0, 0);}15.56%{-webkit-transform: scale(1.4, 1.4);transform: scale(1.4, 1.4);}18.89%{-webkit-transform: scale(1, 1);transform: scale(1, 1);}21.11%{-webkit-transform: scale(0.85, 0.85);transform: scale(0.85, 0.85);}22.22%{-webkit-transform: scale(1, 1);transform: scale(1, 1);}100%{-webkit-transform: scale(1, 1);transform: scale(1, 1);}}#Syav9Sm17 *{-webkit-animation-duration: 3s;animation-duration: 3s;-webkit-animation-play-state: running;animation-play-state: running;-webkit-animation-timing-function: cubic-bezier(0, 0, 1, 1);animation-timing-function: cubic-bezier(0, 0, 1, 1);}#SJbTD5HXJX{fill: #dd992e;}#ByGpD5BmJQ{fill: #f0d3a5;}#SJmpv9SQJm{fill: none;stroke: #dd992e;stroke-miterlimit: 10;stroke-width: 7.3px;}#HyV6w5Sm1Q{font-size: 130.2px;fill: #c24a4a;font-family: FontAwesome, FontAwesome;-webkit-transform:  translate(23.17px, 104.34px);transform:  translate(23.17px, 104.34px);}#HyV6w5Sm1Q_HytnqrmJX{-webkit-transform-origin: 50% 50%;transform-origin: 50% 50%;transform-box: fill-box;-webkit-transform: scale(0, 0);transform: scale(0, 0);-webkit-animation-timing-function: cubic-bezier(0.42, 0, 0.58, 1);animation-timing-function: cubic-bezier(0.42, 0, 0.58, 1);}#Syav9Sm17:hover #HyV6w5Sm1Q_HytnqrmJX{-webkit-animation-name: HyV6w5Sm1Q_HytnqrmJX_Animation;animation-name: HyV6w5Sm1Q_HytnqrmJX_Animation;}#HyV6w5Sm1Q_BkxziS7yX{-webkit-transform-origin: 50% 50%;transform-origin: 50% 50%;transform-box: fill-box;-webkit-transform: translate(-10px, 10px);transform: translate(-10px, 10px);}#Syav9Sm17:hover #HyV6w5Sm1Q_BkxziS7yX{-webkit-animation-name: HyV6w5Sm1Q_BkxziS7yX_Animation;animation-name: HyV6w5Sm1Q_BkxziS7yX_Animation;}#SJmpv9SQJm_rJi0jSQyX{-webkit-transform-origin: 50% 50%;transform-origin: 50% 50%;transform-box: fill-box;-webkit-transform: scale(1, 1);transform: scale(1, 1);}#ByGpD5BmJQ_SJIGnHQJm{-webkit-transform-origin: 50% 50%;transform-origin: 50% 50%;transform-box: fill-box;-webkit-transform: scale(1, 1);transform: scale(1, 1);-webkit-animation-timing-function: cubic-bezier(0.42, 0, 0.58, 1);animation-timing-function: cubic-bezier(0.42, 0, 0.58, 1);}#Syav9Sm17:hover #ByGpD5BmJQ_SJIGnHQJm{-webkit-animation-name: ByGpD5BmJQ_SJIGnHQJm_Animation;animation-name: ByGpD5BmJQ_SJIGnHQJm_Animation;}#SJmpv9SQJm_HkpB3B7yX{-webkit-transform-origin: 50% 50%;transform-origin: 50% 50%;transform-box: fill-box;-webkit-transform: scale(1, 1);transform: scale(1, 1);-webkit-animation-timing-function: cubic-bezier(0.42, 0, 0.58, 1);animation-timing-function: cubic-bezier(0.42, 0, 0.58, 1);}#Syav9Sm17:hover #SJmpv9SQJm_HkpB3B7yX{-webkit-animation-name: SJmpv9SQJm_HkpB3B7yX_Animation;animation-name: SJmpv9SQJm_HkpB3B7yX_Animation;}</style><defs/><title>Splash copy</title><g id="HkxpPcB71Q" data-name="Ebene 1"><path d="M130.82,134.11c0,2.07-25.22,3.75-56.33,3.75s-56.34-1.68-56.34-3.75,25.22-3.75,56.34-3.75S130.82,132,130.82,134.11Z" id="SJbTD5HXJX"/><g id="ByGpD5BmJQ_SJIGnHQJm" data-animator-group="true" data-animator-type="2"><path d="M29.59,19.82H113.8a7.56,7.56,0,0,1,7.56,7.56v84.21a7.55,7.55,0,0,1-7.55,7.55H29.59A7.55,7.55,0,0,1,22,111.59V27.38a7.56,7.56,0,0,1,7.56-7.56Z" id="ByGpD5BmJQ"/></g><g id="SJmpv9SQJm_HkpB3B7yX" data-animator-group="true" data-animator-type="2"><path d="M29.59,19.82H113.8a7.56,7.56,0,0,1,7.56,7.56v84.21a7.55,7.55,0,0,1-7.55,7.55H29.59A7.55,7.55,0,0,1,22,111.59V27.38a7.56,7.56,0,0,1,7.56-7.56Z" id="SJmpv9SQJm"/></g><g id="HyV6w5Sm1Q_BkxziS7yX" data-animator-group="true" data-animator-type="0"><g id="HyV6w5Sm1Q_HytnqrmJX" data-animator-group="true" data-animator-type="2"><path class="cls-1" d="M156.45,139.08a1.51,1.51,0,0,1-.46,1.1l-11.66,11.66L142.14,154a1.48,1.48,0,0,1-1.09.45A1.5,1.5,0,0,1,140,154l-2.19-2.19L131.93,146a1.5,1.5,0,0,1-.45-1.1,1.48,1.48,0,0,1,.45-1.09l2.19-2.19a1.5,1.5,0,0,1,1.1-.45,1.48,1.48,0,0,1,1.09.45l4.74,4.75,10.56-10.58a1.5,1.5,0,0,1,1.1-.45,1.48,1.48,0,0,1,1.09.45L156,138A1.49,1.49,0,0,1,156.45,139.08Z" transform="translate(-131.48 -135.35)"/></g></g></g><script>(function(){var a=document.querySelector('#Syav9Sm17'),b=a.querySelectorAll('style'),c=function(d){b.forEach(function(f){var g=f.textContent;g&amp;&amp;(f.textContent=g.replace(/transform-box:[^;\r\n]*/gi,'transform-box: '+d))})};c('initial'),window.requestAnimationFrame(function(){return c('fill-box')})})();</script></svg>
